<?xml version="1.0" standalone="no"?>
<!DOCTYPE svg PUBLIC "-//W3C//DTD SVG 1.0//EN" "http://www.w3.org/TR/2001/REC-SVG-20010904/DTD/svg10.dtd">
<svg xmlns="http://www.w3.org/2000/svg" xmlns:xlink="http://www.w3.org/1999/xlink" id="body_1" width="102" height="77">

<g transform="matrix(0.30078125 0 0 0.30078125 12.5 -0)">
    <path d="M246.9 27.8L194.2 2.4C 188.09999 -0.5 180.8 0.70000005 176 5.5L176 5.5L3.6 162.7C -1 166.9 -1 174.2 3.6 178.5L3.6 178.5L17.7 191.3C 21.5 194.8 27.2 195 31.300001 191.90001L31.300001 191.90001L238.9 34.4C 245.9 29.100002 255.9 34.100002 255.9 42.800003L255.9 42.800003L255.9 42.200005C 255.9 36 252.4 30.4 246.9 27.8z" stroke="none" fill="#5B5B5B" fill-rule="nonzero" />
    <path d="M246.9 228.2L194.2 253.59999C 188.09999 256.5 180.8 255.29999 176 250.49998L176 250.49998L3.6 93.3C -1 89.1 -1 81.8 3.6 77.5L3.6 77.5L17.7 64.7C 21.5 61.199997 27.2 60.999996 31.300001 64.1L31.300001 64.1L239 221.6C 246 226.90001 256 221.90001 256 213.20001L256 213.20001L256 213.80002C 255.9 220 252.4 225.6 246.9 228.2z" stroke="none" fill="#676767" fill-rule="nonzero" />
    <path d="M194.2 253.6C 188.09999 256.5 180.8 255.3 176 250.5C 181.9 256.4 192 252.2 192 243.9L192 243.9L192 12.1C 192 3.8000002 181.9 -0.39999962 176 5.5000005C 180.8 0.7000003 188.1 -0.49999952 194.2 2.4000006L194.2 2.4000006L246.9 27.7C 252.4 30.400002 256 36 256 42.1L256 42.1L256 213.79999C 256 219.9 252.5 225.49998 246.9 228.19998L246.9 228.19998L194.2 253.6z" stroke="none" fill="#8A8A8A" fill-rule="nonzero" />
</g>
</svg>