<?xml version="1.0" standalone="no"?>
<!DOCTYPE svg PUBLIC "-//W3C//DTD SVG 1.0//EN" "http://www.w3.org/TR/2001/REC-SVG-20010904/DTD/svg10.dtd">
<svg xmlns="http://www.w3.org/2000/svg" xmlns:xlink="http://www.w3.org/1999/xlink" id="body_1" width="256" height="192">

<g transform="matrix(0.75 0 0 0.75 32.000008 -0)">
    <path d="M48.6 123.2L16.8 123.2C 11.599999 123.2 7.499999 119 7.499999 113.899994C 7.499999 108.799995 11.599998 104.49999 16.8 104.49999L16.8 104.49999L48.6 104.49999C 53.699997 104.49999 57.899998 108.69999 57.899998 113.899994C 58 119 53.8 123.2 48.6 123.2zM71 73C 68.9 73 66.8 72.3 65.1 70.9L65.1 70.9L39.9 50.2C 35.9 47 35.4 41.1 38.7 37.1C 41.9 33.1 47.800003 32.5 51.800003 35.8L51.800003 35.8L77 56.5C 83.8 62 79.8 73 71 73zM128 51C 122.9 51 118.7 46.8 118.7 41.7L118.7 41.7L118.7 9.5C 118.7 4.4 122.899994 0.19999981 128 0.19999981C 133.1 0.19999981 137.3 4.3999996 137.3 9.5L137.3 9.5L137.3 41.6C 137.3 46.8 133.1 51 128 51zM185 73C 176.2 73 172.2 62 179 56.4L179 56.4L204.2 35.7C 213.8 27.800001 225.7 42.2 216.09999 50.2L216.09999 50.2L190.9 70.9C 189.2 72.3 187.1 73 185 73zM239.2 123.2L207.1 123.2C 201.90001 123.2 197.8 119 197.8 113.899994C 197.8 108.799995 201.90001 104.49999 207.1 104.49999L207.1 104.49999L239.20001 104.49999C 244.40001 104.49999 248.50002 108.69999 248.50002 113.899994C 248.5 119 244.4 123.2 239.2 123.2z" stroke="none" fill="#AFAFAF" fill-rule="nonzero" />
    <path d="M181.6 137.6L194 137.6C 199.6 137.6 204.2 142.20001 204.2 147.90001L204.2 147.90001L204.2 245.6C 204.2 251.20001 199.59999 255.8 194 255.8L194 255.8L62 255.8C 56.4 255.8 51.8 251.2 51.8 245.6L51.8 245.6L51.8 147.90001C 51.8 142.3 56.399998 137.6 62 137.6L62 137.6L74.4 137.6L181.6 137.6zM134.7 201.8C 146.8 195 142 176.40001 128 176.40001C 114.1 176.40001 109.2 194.90001 121.3 201.8L121.3 201.8L121.3 215C 121.3 223.9 134.7 223.9 134.7 215L134.7 215L134.7 201.8z" stroke="none" fill="#333333" fill-rule="nonzero" />
    <path d="M181.6 137.6L74.4 137.6zM74.4 137.6L74.4 121.8C 74.4 92.200005 98.5 68.200005 128 68.200005C 157.6 68.200005 181.6 92.3 181.6 121.8L181.6 121.8L181.6 137.6zM150.9 137.6L150.9 121.8C 150.9 109.200005 140.59999 99 127.99999 99C 115.399994 99 105.2 109.2 105.2 121.8L105.2 121.8L105.2 137.6" stroke="none" fill="#AFAFAF" fill-rule="nonzero" />
</g>
</svg>