<?xml version="1.0" encoding="utf-8"?>
<!-- Generator: Adobe Illustrator 24.0.1, SVG Export Plug-In . SVG Version: 6.00 Build 0)  -->
<svg version="1.1" id="Layer_1" xmlns="http://www.w3.org/2000/svg" xmlns:xlink="http://www.w3.org/1999/xlink" x="0px" y="0px"
	 viewBox="0 0 256 256" style="enable-background:new 0 0 256 256;" xml:space="preserve">
<style type="text/css">
	.st0{fill:#5D5D5D;}
</style>
<path class="st0" d="M245.2,113.4c-0.5-4.3-1.1-9.3-2.5-14.7c-1.4-5.4-3.6-11.3-6.6-17.7c-3.2-6.1-7-12.7-12.2-18.8
	c-2-2.5-4.3-4.8-6.6-7.3C220.9,40.6,213,28,213,28c-13.8-0.9-22.5,4.3-25.7,6.6c-0.5-0.2-1.1-0.5-1.6-0.7c-2.3-0.9-4.8-1.8-7.3-2.7
	c-2.5-0.7-5-1.6-7.5-2c-2.5-0.7-5.2-1.1-7.9-1.6c-0.5,0-0.9-0.2-1.4-0.2C155.6,8.1,138.4,0,138.4,0c-19.8,12.6-23.6,29.7-23.6,29.7
	s0,0.5-0.2,0.9c-1.1,0.2-2,0.7-3.2,0.9c-1.4,0.5-3,0.9-4.3,1.6c-1.4,0.7-3,1.1-4.3,1.8c-3,1.4-5.7,2.7-8.6,4.3
	c-2.7,1.5-5.4,3.2-7.9,5c-0.5-0.2-0.7-0.5-0.7-0.5c-26.6-10.2-50.2,2-50.2,2C33.3,74.2,46,91.8,48.5,95c-0.7,1.8-1.1,3.4-1.8,5.2
	c-2,6.4-3.5,13-4.3,19.7c-0.2,0.9-0.2,2-0.5,3c-24.6,12-31.8,37.1-31.8,37.1c20.4,23.6,44.6,25.1,44.6,25.1
	c3,5.4,6.5,10.6,10.4,15.4c1.6,2,3.4,3.9,5.2,5.9c-7.5,21.3,1.1,39.3,1.1,39.3c22.9,0.9,38-10,41.1-12.5l6.8,2
	c7,1.8,14.3,3,21.3,3.2h9.3c10.7,15.4,29.8,17.5,29.8,17.5c13.4-14.3,14.3-28.2,14.3-31.4v-1.4c2.7-2,5.4-4.1,8.2-6.3
	c5.4-4.8,10-10.4,14.1-16.3c0.5-0.5,0.7-1.1,1.1-1.6c15.2,0.9,26-9.5,26-9.5c-2.5-15.9-11.6-23.6-13.4-25.1l-0.2-0.2l-0.2-0.2
	l-0.2-0.2c0-0.9,0.2-1.8,0.2-3c0.2-1.8,0.2-3.4,0.2-5.2V149c0-0.5,0-0.9-0.2-1.4l-0.5-2.7c-0.2-1.8-0.7-3.4-0.9-5.2
	c-1.6-6.7-4.2-13.1-7.7-19.1c-3.6-5.7-7.9-10.9-12.9-15.4c-4.9-4.3-10.4-7.8-16.3-10.4c-5.7-2.6-11.7-4.3-17.9-5
	c-3-0.5-6.1-0.5-9.1-0.5h-4.5c-1.6,0.2-3.2,0.5-4.5,0.7c-6.1,1.1-11.8,3.4-16.8,6.3s-9.3,6.8-12.9,11.1c-3.5,4.1-6.3,8.8-8.2,13.8
	c-1.8,4.8-3,10-3.2,14.7v5.4c0,0.7,0,1.1,0.2,1.8c0.7,7,3.3,13.6,7.5,19.3c2.7,3.6,5.7,6.3,9.1,8.6c3.4,2.3,6.8,3.9,10.4,5
	c3.6,1.1,7,1.6,10.2,1.4h4.7c0.5,0,0.9-0.2,1.1-0.2c0.5,0,0.7-0.2,1.1-0.2c0.7-0.2,1.6-0.5,2.3-0.7c1.4-0.5,2.7-1.1,4.1-1.6
	c1.4-0.7,2.5-1.4,3.4-2c0.2-0.2,0.7-0.5,0.9-0.7c1.1-0.9,1.3-2.5,0.5-3.6c0,0,0,0,0-0.1c-0.9-0.9-2.2-1.1-3.4-0.7
	c-0.2,0.2-0.5,0.2-0.9,0.5c-0.9,0.5-1.9,0.9-3,1.1c-1.1,0.2-2.3,0.7-3.4,0.9c-0.7,0-1.1,0.2-1.8,0.2h-3.8c0,0-0.2,0,0,0h-0.9
	c-0.2,0-0.7,0-0.9-0.2c-2.5-0.5-5.2-1.1-7.7-2.3c-2.5-1.1-5-2.7-7-4.8c-2.3-2-4.1-4.3-5.7-7c-1.6-2.7-2.5-5.7-3-8.6
	c-0.2-1.6-0.5-3.2-0.2-4.8v-1.4v-1.1c0-0.9,0.2-1.6,0.5-2.5c1.2-7,4.6-13.5,9.8-18.4c1.4-1.4,2.7-2.5,4.3-3.4c1.6-1.1,3.2-2,4.8-2.7
	s3.4-1.4,5.2-1.8c1.8-0.5,3.6-0.9,5.4-0.9c0.9,0,1.8-0.2,2.7-0.2h1.8h0.9c6.1,0.5,11.9,2.3,17.2,5.2c7.3,4.1,13.4,10.2,17,17.7
	c1.8,3.6,3.2,7.7,3.9,12c0.2,1.1,0.2,2,0.5,3.2v5.9c0,1.1-0.2,2.3-0.2,3.4c-0.2,1.1-0.2,2.3-0.5,3.4l-0.7,3.4
	c-0.2,1.1-1.4,4.3-2,6.6c-0.7,2.3-3.9,8.4-6.6,12c-5.5,7.5-12.8,13.5-21.3,17.5c-4.3,1.8-8.6,3.4-13.2,4.1c-2.2,0.5-4.5,0.7-6.8,0.7
	h-3.4h-0.4c-1.1,0-2.5,0-3.6-0.2c-5-0.5-9.8-1.4-14.5-2.7c-4.8-1.4-9.3-3.2-13.6-5.4c-8.6-4.7-16.3-11-22.5-18.6
	c-3-3.9-5.7-7.9-7.9-12.2c-2.3-4.3-3.9-8.9-5.2-13.4c-1.3-4.6-2.1-9.3-2.3-14.1v-7c0-2.3,0.2-4.8,0.7-7.3c0.2-2.5,0.7-4.8,1.1-7.3
	s1.1-4.8,1.8-7.3s3-9.3,5-13.6c4.1-8.6,9.3-16.3,15.4-22.5c1.6-1.6,3.2-3,5-4.3c0.7-0.7,2.3-2,4.1-3.2c1.8-1.1,3.6-2.3,5.7-3.2
	c0.9-0.5,1.8-0.9,3-1.4c0.5-0.2,0.9-0.5,1.6-0.7c0.5-0.2,0.9-0.5,1.6-0.7c2-0.9,4.1-1.6,6.1-2.3c0.5-0.2,1.1-0.2,1.6-0.5
	c0.5-0.2,1.1-0.2,1.6-0.5c0.5-0.2,2-0.5,3.2-0.9c0.5-0.2,1.1-0.2,1.6-0.5c0.5,0,1.1-0.2,1.6-0.2s1.1-0.2,1.6-0.2l1.8-0.5
	c0.5,0,1.1-0.2,1.6-0.2c0.7,0,1.1-0.2,1.8-0.2c0.5,0,1.4-0.2,1.8-0.2s0.7,0,1.1-0.2h1.6c0.7,0,1.1,0,1.8-0.2h0.9c0,0,0.2,0,0,0h8.4
	c4.1,0.2,8.2,0.7,12,1.4c7.6,1.3,14.9,3.8,21.8,7.3c6.4,3.1,12.3,7,17.7,11.6c0.2,0.2,0.7,0.5,0.9,0.9c0.2,0.2,0.7,0.5,0.9,0.9
	c0.7,0.5,1.1,1.1,1.8,1.6s1.1,1.1,1.8,1.6c0.5,0.7,1.1,1.1,1.6,1.8c6.1,6.2,11.1,13.3,15,21.1c0.2,0.2,0.2,0.5,0.5,0.9
	c0.2,0.2,0.2,0.5,0.5,0.9c0.2,0.4,0.5,1.1,0.9,1.6c0.2,0.5,0.5,1.1,0.7,1.6s0.5,1.1,0.7,1.6c0.9,2,1.6,4.1,2.3,6.1
	c1.1,3.2,1.8,5.9,2.5,8.2c0.3,0.9,1.1,1.6,2,1.6c1.1,0,1.8-0.9,1.8-2C245.4,119.7,245.4,116.8,245.2,113.4L245.2,113.4z"/>
</svg>
