<svg version="1.1" xmlns="http://www.w3.org/2000/svg" xmlns:xlink="http://www.w3.org/1999/xlink" width="256px" height="256px" viewBox="0,0,256,256"><g transform="translate(51.2,51.2) scale(0.6,0.6)"><g fill="none" fill-rule="nonzero" stroke="none" stroke-width="1" stroke-linecap="butt" stroke-linejoin="miter" stroke-miterlimit="10" stroke-dasharray="" stroke-dashoffset="0" font-family="none" font-weight="none" font-size="none" text-anchor="none" style="mix-blend-mode: normal"><g transform="translate(0.00778,0.09491)"><path d="M178.8,214.3c-3.2,4.9 -8,7.5 -13.7,9.5c3,1.5 5.7,2.8 8.4,4.2c5.3,2.6 4.3,1.6 4.2,7.1c-0.1,2.6 -0.4,5.1 -0.5,7.6c0,1 -0.4,1.6 -1.3,2.1c-5.4,3.2 -10.8,6.5 -16.2,9.7c-0.7,0.4 -1.4,0.7 -2.1,1c-0.5,0 -1,0 -1.5,0c-1.6,-1.6 -3.6,-2.5 -5.5,-3.8c-5.3,-3.6 -10.7,-7 -15.9,-10.6c-3.5,-2.4 -5.1,-5.5 -5.4,-9.5c-0.1,-2.1 -0.6,-4.2 -0.4,-6.3c0.1,-2 0.9,-3.3 2.9,-3.8c0.4,-0.1 0.8,-0.4 1.4,-0.7c-5.4,-2.5 -9.3,-6.6 -13.3,-10.7c-0.4,1.2 0.1,2.4 -0.1,3.5c-0.9,0.7 0,2.1 -0.6,2.6c-1,0.9 -0.5,1.4 0.1,2c-0.6,4.4 -3.1,7.7 -6.5,10.3c-8.8,6.5 -18.3,7.2 -28.5,3.4c-8.3,-3.1 -14.9,-8.6 -21.3,-14.4c0.1,-0.1 0.3,-0.2 0.4,-0.4c1.6,1.2 3.3,2.3 4.9,3.5c4.8,3.7 10.1,6.7 16,8.2c8.5,3.1 16.8,3.4 24.7,-1.7c3.1,-2 5.6,-4.6 6.7,-8.3c1.6,-5.5 0.2,-10.8 -0.9,-16.2c-0.9,-4.2 -2.3,-8.4 -2.9,-12.7c-0.6,-4.9 0.3,-9.4 4.2,-12.9c0.2,0.2 0.3,0.3 0.5,0.5c-0.4,0.6 -0.8,1.1 -1.2,1.7c-2.5,3.7 -2.2,7.8 -1.5,12c0,0.3 0,0.7 0.4,0.6c0.4,-0.1 0.2,-0.5 0.1,-0.7v-0.1c0.4,0.1 1,0.5 1.1,-0.1c0.1,-0.7 3.1,-10.9 2.8,-9.7c-0.5,0.1 -0.8,0.3 -0.2,0.8c-0.2,2 -0.5,4.1 -0.7,6.1c-0.3,0.1 -0.3,0.2 0,0.4c0,0.3 0,0.5 0,0.8c-0.8,0.1 -1,0.5 -0.4,1.2c0,0.4 0.1,0.7 0.5,0.8c0.1,1 0.1,2 0.2,3c-0.7,0.8 -0.6,1.5 0.4,2.7c0.3,1.3 0.7,2.6 1,3.8c-0.2,0.1 -0.4,0.1 -0.6,0.2c0.2,0 0.4,0 0.7,0.1c3.3,7.1 7.2,13.6 13.7,18.3c1,0.7 1.8,0.9 3,0.5c2.8,-1 5.5,-1.9 8.3,-2.8c2.3,-0.7 4.5,-0.7 6.9,0.3c3.9,1.6 7.7,3.4 11.5,5.1c0.9,0.4 1.6,0.5 2.5,0.1c5,-2 9.5,-4.7 12.9,-8.9c0.2,0.4 0.5,0.5 0.8,0.6zM173.4,230.2c-2.2,-1.1 -4.1,-2.1 -6,-2.9c-6.3,-2.7 -12.6,-5.5 -18.5,-9.1c-0.6,-0.4 -1.2,-0.7 -2,-0.5c-5,1.6 -9.9,3.2 -14.9,4.9c-0.3,0.1 -0.7,0.3 -0.7,0.5c-0.2,0.5 0.4,0.6 0.7,0.8c1.9,1.1 3.7,2.3 5.6,3.4c6.5,3.5 13.4,6.4 19.6,10.3c0.6,0.4 1.2,0.5 1.8,0.1c4.5,-3 9.3,-5.3 14.4,-7.5zM157.5,253.4c0,-4.1 -0.1,-7.9 0,-11.7c0.1,-1.5 -0.5,-2.3 -1.7,-3c-8.1,-4.6 -16.7,-8.3 -24.3,-13.7c-1.2,-0.9 -1.4,-0.2 -1.3,0.8c0.2,2.9 0.4,5.7 0.6,8.6c0.1,1.5 0.8,2.4 2,3.3c4.7,3.2 9.5,6.4 14.4,9.5c3.4,2 6.6,4.3 10.3,6.2zM158.9,246.2c0.1,0 0.1,0 0.2,0c0,1.7 0,3.3 0,5c0,1.3 0.3,1.7 1.5,0.9c1.6,-1.1 3.2,-2.3 4.9,-3.3c2.8,-1.7 5.6,-3.3 8.4,-4.9c0.6,-0.3 1.2,-0.7 1.3,-1.5c0.2,-3.3 0.5,-6.6 0.8,-9.9c0.1,-1.5 -0.5,-1.6 -1.7,-1c-4.7,2.3 -9.4,4.7 -14,7c-0.7,0.4 -1.4,0.8 -1.3,1.9c0,1.9 -0.1,3.8 -0.1,5.8z" fill="#101010"></path><path d="M228.5,173.5c-0.2,0 -0.3,-0.1 -0.5,-0.1c0,-0.6 0,-1.2 0,-1.8c0,-0.5 0,-1 0,-1.5c0,-0.3 0,-0.5 0,-0.8c0,-0.1 0.1,-0.2 0.1,-0.4c0.1,0 0.3,0 0.4,0c0,1.6 0,3.1 0,4.6z" fill="#c4c4c4"></path><path d="M68.2,220.7c-1.6,-1.2 -3.3,-2.3 -4.9,-3.5c-0.6,-0.5 -1,-1.3 -2,-1.1v0c0.3,-0.6 -0.1,-0.5 -0.4,-0.4v0c0.2,-0.5 -0.1,-0.5 -0.4,-0.4v0c0.1,-0.4 -0.2,-0.5 -0.4,-0.6c-1.8,-1.5 -4.2,-2 -6.1,-3.5c-1.1,-2.4 -7.3,-3.4 -9.8,0c-1.6,2.2 -1.3,5 0.9,7.5c1.4,1.6 3.2,2.7 4.8,4.1c1.8,1.7 2.1,3.2 1.1,5.1c-1,2 -2.3,2.7 -4.7,2.4c-3.2,-0.3 -5.6,-2 -7.7,-4.2c-8.1,-8.4 -5.3,-21.8 5.5,-26.1c4.8,-1.9 9.5,-0.7 14,1.4c5.5,2.6 10.1,6.5 15.5,9.3c6.8,3.5 13.8,4.9 21.3,3.1c6.6,-1.6 10.1,-6 10.1,-12.7c0,-4 -0.6,-8 -1.3,-11.9c-0.6,-3 -1.4,-6 -1.5,-9c-0.1,-5.5 3.1,-9.2 7.1,-12.4c1.6,-1.3 3.5,-2.2 5.6,-3.3c-0.6,-0.1 -0.8,-0.2 -0.9,-0.1c-6.4,2.3 -16.4,10.1 -14.1,19.4c0.3,1.2 -0.3,2 -1.4,2.7c-6.8,4.4 -14.5,6.1 -22.3,7.5c-8.9,1.6 -17.4,0.8 -25.4,-3.4c-5.9,-3.1 -10.5,-7.4 -10.9,-14.6c-0.5,-8.5 1.1,-16.6 5.1,-24.2c1.4,-2.7 3,-5.3 4.4,-8c0.3,-0.5 1.1,-1.2 0.2,-1.9c0,-0.6 -0.1,-1.1 0.7,-1.2c0.1,0 0.1,0.1 0.2,0.1c0.1,0 0.2,0 0.2,0c0.1,-1.1 0.5,-1.2 1.1,-0.3c1.5,2.1 3.1,4.2 4.9,6c-2.6,4.6 -4.9,9.2 -5.9,14.4c-0.8,4.5 -0.5,8.7 2,12.7c3.4,5.3 8.7,7.6 14.6,8.5c12.3,1.8 23,-1.8 31.9,-10.4c3.9,-3.8 6.4,-8.3 5.9,-14.1c-0.4,-5.6 -14.7,-24.2 -14.9,-24.4c-0.5,-0.9 -1.1,-1.9 -1.9,-2.6c-1,-0.4 -0.7,0 -1,-0.7c-1.2,-1.6 -6.7,-10.8 -7,-11.3c0.1,-0.3 0.6,-1.2 0.3,-1.4c-0.2,-1.3 0.4,-2.5 -0.2,-3.8c0.2,-0.4 -0.1,-0.8 -0.2,-1.1c0,-0.4 0.1,-0.8 -0.2,-1.2c0,-0.2 -0.1,-0.5 -0.1,-0.7c0.1,-0.4 0.1,-0.8 -0.1,-1.2c-0.1,-0.4 -0.2,-0.8 -0.3,-1.1c0.2,-0.3 0.3,-0.5 0,-0.8c0,-0.5 0,-1 0,-1.5c0.1,-1.7 0.2,-3.3 0.2,-5c0,-0.3 0,-0.5 0.1,-0.8c0.5,-2.4 1,-4.9 1.5,-7.3c0,-0.3 0,-0.5 0,-0.8c0.7,-0.8 0.9,-1.7 0.9,-2.7c0.3,-0.2 0.4,-0.4 0.4,-0.8c0.4,-0.8 0.8,-1.5 1.2,-2.3c0.1,0.2 0.3,0.4 0.4,0.6c1,5 4.3,5.7 7.8,5c7.4,-1.5 16.2,-11.6 15.3,-19.2c-0.3,-2.4 -1.1,-4.1 -3,-5.4c-0.7,-0.5 -1.8,-0.4 -2.1,-1.5c0.5,-0.3 0.9,-0.7 1.4,-1c0.1,0 0.2,-0.1 0.3,-0.2c1.9,-0.9 4,-1.4 5.7,-2.5c0.6,-0.2 1.7,0.3 1.6,-1v0c0.2,0 0.5,0.1 0.7,0.1c0.6,0.4 1,0.2 1.4,-0.2c0.3,0 0.5,-0.1 0.8,-0.1c0.7,0.1 1.3,-0.2 2,-0.4c1,-0.2 2,-0.4 3,-0.6c1.4,-0.2 2.8,-0.3 4.2,-0.5c0.7,0 1.3,0.1 1.9,-0.2c4.1,0.2 8.2,0 12.3,0.5c0.3,0.2 0.6,0.1 0.8,-0.1c0.5,0.4 1.1,0.6 1.8,0.5c0.9,0.1 1.8,0.3 2.7,0.4c0.3,0.4 0.7,0.4 1.1,0.3c0.3,0 0.5,0.1 0.8,0.1c1.5,0.7 3,1.3 4.6,1.4c0.4,0.6 1,0.6 1.7,0.6c0.3,0.6 0.9,0.4 1.4,0.4c0.1,0.5 0.4,0.6 0.8,0.5c0.2,0.2 0.4,0.5 0.7,0.4c0.7,0.3 1.4,0.6 2.2,0.9c1,0.7 2,1.4 3.2,1.8c1.3,0.8 2.4,1.8 3.9,2.4c0.3,0.4 0.6,0.7 1.1,0.7c0.5,0.6 1.3,0.9 2,1.2c0.1,0.3 0.1,0.8 0.6,0.7c0.9,0.7 1.5,1.7 2.7,2c0.1,0.1 0.2,0.2 0.2,0.3c0.2,0.4 0.4,0.8 0.9,0.9c0.1,0.1 0.2,0.2 0.3,0.3c0,0.6 0.6,0.4 0.9,0.7c-0.1,0.5 0.3,0.7 0.7,0.8c0.1,0.1 0.2,0.2 0.4,0.4c0.2,0.6 0.5,1 1.1,1.3c3.9,4.6 7,9.7 8.5,15.6c0,0.3 0,0.5 0.1,0.8c0.7,4.3 1.1,8.7 0.7,13c-0.3,0.2 -0.4,0.4 -0.2,0.8c-0.1,0.6 -0.1,1.3 -0.2,1.9c-0.1,0.4 -0.6,1.9 -0.6,2.3c-0.2,0.5 -2.3,6.7 -2.5,6.9c-0.1,0.3 -0.3,0.5 -0.3,0.8c-0.2,0.4 -0.4,0.7 -0.6,1.1c-0.3,0.4 -0.6,0.9 -0.7,1.5c-0.2,0.3 -0.4,0.6 -0.7,0.9c-2.1,3.2 -4.2,6.4 -7,9.2c-1.3,1.3 -1.6,2.8 -2.6,4.4c-0.3,0.2 -0.2,2 -1.4,1.6c-2.5,2 -4.6,4.2 -7.1,6.2c-0.3,0.3 -2,1.2 -2.3,1.5c-2.3,1.3 -4.9,4.5 -4.9,4.6c0,0 -6,4.4 -7.1,7.3c-1,1.3 -0.9,2.5 -1.4,3.9c-0.1,0.3 -0.7,0.6 -0.1,0.7c0.1,0 0.1,0.1 0.2,0c0.6,-0.9 1.1,-1.8 1.6,-2.8c1.6,0.2 2.5,-1.4 3.9,-1.8c5.8,-1.7 11.6,-1.8 17.4,0c-3.4,3.7 -7.2,6.9 -10.8,10.3c-0.1,0.6 -0.3,1.2 -0.4,1.9c-0.6,-0.1 -0.9,-0.6 -1.8,-0.2c-1.8,0.7 -3.7,0.9 -5.6,1.3c-0.3,-0.4 0.8,0.6 0.2,0.9c-0.3,0.1 -0.6,0 -0.4,0.3c-0.3,1.3 -1.3,1.1 -2,2c-2.5,3 -3.6,6.2 -1.7,9c0.3,0.6 0.7,1.1 1.4,1.3c0.4,-0.8 -0.3,-1.1 -0.6,-1.5c-0.8,-1.3 -1.1,-2.7 -0.8,-4.2c0.5,-2.3 1.9,-4 3.7,-5.4c0.3,-0.1 0.5,-0.3 0.8,-0.4c0.1,-0.1 0.2,-0.1 0.3,-0.2c0.3,-0.1 0.5,-0.2 0.8,-0.3c2.7,-0.6 5.3,-0.6 8,-0.3c0.3,0 0.5,0.1 0.8,0.1c1.1,0.3 2.3,0.6 3.4,0.9c0.2,0.3 0.5,0.3 0.8,0.2c3.7,1.9 7.5,3.7 10.8,6.4c0.5,0.5 1.1,1.1 1.6,1.6c3.2,3.1 5.3,6.9 6.2,11.2c1.3,6 0.7,11.9 -2.2,17.5c-0.6,0.9 -1.2,1.8 -1.8,2.7c-3.5,4.2 -8,6.9 -12.9,8.9c-0.9,0.4 -1.7,0.2 -2.5,-0.1c-3.9,-1.7 -7.6,-3.5 -11.5,-5.1c-2.4,-1 -4.5,-1 -6.9,-0.3c-2.8,0.9 -5.6,1.8 -8.3,2.8c-1.1,0.4 -2,0.3 -3,-0.5c-6.5,-4.6 -10.5,-11.2 -13.7,-18.3c0,-0.1 0,-0.2 -0.1,-0.3c-0.3,-1.3 -0.7,-2.6 -1,-3.8c0,-0.6 0,-1.3 0,-1.9c2.3,-0.1 4,-1.3 5.9,-2.5c4.1,-2.6 5.4,-8.9 1.3,-13c-1.7,-1.6 -3.8,-1.6 -5.7,-2.2c0,-0.1 0,-0.2 0.1,-0.2c0.6,-0.2 0.7,-0.8 0.9,-1.3c0.6,-0.9 1.3,-1.7 1.9,-2.6c-0.9,0.5 -1.6,0.5 -2.2,1.3c-0.1,0.1 -0.5,0.2 -0.7,0.3c-0.3,0 0.3,-0.3 -0.6,0.2l0.1,0.2c-1.4,-0.1 -7.8,9.6 -7.1,14.5c0.6,4.3 2,8.4 2.9,12.7c1.1,5.3 2.5,10.7 0.9,16.2c-1.1,3.7 -3.6,6.3 -6.7,8.3c-7.9,5.1 -16.2,4.8 -24.7,1.7c1.6,-0.7 1.3,-2.1 1.2,-3.3c-0.5,-4.2 -4.6,-8.8 -8.6,-9.8c-3.6,-0.9 -8,-0.4 -8.5,4.8c0.2,0.1 0.2,0.1 0.1,0.1zM147.6,186.1c-0.1,0 -0.1,-0.1 -0.1,-0.1c-0.3,-0.3 -0.6,-0.9 -1.1,-0.5c-0.4,0.3 0.1,0.6 0.4,0.8c0.8,0.8 1.6,1.4 2.8,1.4c3,0.7 4.8,-0.4 5.8,-3.5c0.3,-1 0.5,-1.6 1.3,-0.3c-0.2,0.6 0.2,1.1 0.4,1.6c1.1,3 1.8,6 1.4,9.2c-0.2,1.9 -0.7,3.6 -1.1,5.5c-0.1,0.3 -0.3,0.5 -0.6,0.5c-0.7,0 -1.4,-0.3 -2.1,-0.5c-8.3,-2.3 -14.7,-6.9 -17.6,-15.4c-1,-2.8 -0.4,-5.6 -1.1,-8.5c0.1,-0.2 -0.9,2.4 -1,3c0,0.1 0,0.1 0,0.2c-0.4,0.8 -1.3,2.8 -1.5,3.2c-1.6,3.5 -3,7.1 -3.2,10.8c0,0.3 -0.2,0.5 -0.5,0.6c-1.9,0.2 -3.4,1.1 -4.2,2.9c-1.1,2.3 -1.2,4.5 0.6,6.5c1.5,1.7 3.1,1.8 5.7,0.5c0.3,-0.1 0.6,-0.2 0.9,-0.3c0.2,0 0.5,0 0.6,0.2c0.8,1.1 1.6,2.3 2.5,3.3c8.1,8.8 19.3,8.4 28.3,2.1c0.4,-0.1 0.7,-0.3 1,-0.7c2.4,-2.4 4.9,-4.7 5.9,-8.1c2.3,-7.8 -2.3,-14.7 -8.5,-18.7c-0.3,-0.2 -0.7,-0.4 -0.9,0.2v0c0.6,-0.8 -0.3,-1 -0.6,-1.2c-1.5,-0.9 -3.1,-1.6 -4.8,-1.9c-0.1,0 -0.2,0 -0.2,0c-0.6,0.1 -1.1,0 -1.7,-0.1c-1,-0.2 -0.6,0.4 -0.5,0.9c1.1,1.9 1.2,3.8 0.1,5.7c-1,1.6 -2.6,1.8 -4.2,1.6c-0.1,0 -0.1,0 -0.2,-0.1c-0.8,-0.2 -1.4,-0.5 -2,-0.8zM107.4,134.8c-2,4.9 -0.4,8.7 2.4,11.5c0,0 0.1,0.1 0.2,0.1c4.8,2.5 11.4,0.7 14.3,-3.9c2.3,-3.7 1.9,-8.4 -1.1,-11.5c-3,-3.1 -5.2,-2.8 -9.9,-2.1c-0.1,0 -0.1,0.1 -0.2,0.2c-0.7,0.9 -2.6,2.4 -3.7,2.8c-0.1,0 -0.2,0.1 -0.3,0.2c-0.3,0.3 -1.4,1.4 -1.7,2.7zM127.3,137.1c-3.1,6.6 0.2,12.7 7.2,13.4c7.5,0.8 13.6,-6.4 11.2,-13.2c-1.7,-4.8 -7.5,-7.6 -11.6,-5.5c0,0.6 -0.2,0.7 -0.8,0.7c-1.1,0 -0.1,0.7 -1.6,1h-0.1c-1.6,0.5 -3.7,2.1 -4.3,3.6zM116.1,76.6c5.2,-0.1 8.6,-2.1 11.5,-5.3c1.5,-1.7 1.7,-3.7 0.7,-5.7c-1,-1.8 -2.8,-2.5 -4.8,-2.5c-4.6,-0.1 -7.7,2.3 -10.3,5.9c-1.2,1.7 -1.7,3.4 -0.9,5.3c0.8,1.9 2.5,2.5 3.8,2.3z" fill="#c4c4c4"></path><path d="M49.5,141.7c0.9,0.7 0.1,1.4 -0.2,1.9c-1.4,2.7 -3,5.3 -4.4,8c-4,7.6 -5.6,15.7 -5.1,24.2c0.4,7.2 5,11.5 10.9,14.6c8,4.3 16.6,5.1 25.4,3.4c7.8,-1.4 15.5,-3.2 22.3,-7.5c1.1,-0.7 1.7,-1.5 1.4,-2.7c-2.3,-9.3 7.7,-17.1 14.1,-19.4c0.2,-0.1 0.4,0 0.9,0.1c-2.1,1.1 -4,2 -5.6,3.3c-4,3.2 -7.3,6.9 -7.1,12.4c0.1,3.1 0.9,6 1.5,9c0.8,3.9 1.3,7.9 1.3,11.9c0,6.7 -3.5,11.1 -10.1,12.7c-7.5,1.9 -14.5,0.4 -21.3,-3.1c-5.4,-2.7 -10,-6.7 -15.5,-9.3c-4.5,-2.1 -9.1,-3.3 -14,-1.4c-10.9,4.4 -13.6,17.7 -5.5,26.1c2.1,2.2 4.6,3.9 7.7,4.2c2.4,0.3 3.7,-0.4 4.7,-2.4c1,-2 0.7,-3.4 -1.1,-5.1c-1.5,-1.5 -3.4,-2.5 -4.8,-4.1c-2.2,-2.5 -2.5,-5.3 -0.9,-7.5c2.5,-3.4 8.7,-2.3 9.8,0c-1.2,-0.4 -2.4,-0.9 -3.6,-1.1c-1.8,-0.4 -4.2,0.7 -5,2.2c-0.9,1.7 -0.2,3.2 0.7,4.6c1.5,2.3 3.9,3.5 5.9,5.1c3.5,2.6 1.8,9.2 -2.1,10.5c-2.2,0.7 -4.4,0.8 -6.6,-0.1c-10.8,-4.2 -17.5,-19 -6.8,-30.1c7,-7.3 17,-7.4 26.2,-1.7c5.5,3.4 10.8,7 16.9,9.2c4.3,1.6 8.6,2 13.1,1.1c6.4,-1.3 9.2,-5.1 8.7,-11.8c-0.2,-3 -0.8,-6 -1,-9.1c-0.1,-1.5 -0.6,-1.5 -1.7,-0.9c-3.5,1.8 -7,3.7 -10.7,5c-5.7,2.1 -11.5,3.2 -17.6,3.6c-7.3,0.5 -14.1,-0.8 -20.6,-4c-10.4,-5 -13.9,-12.6 -12.7,-23.5c1,-9.1 4.7,-17.1 9.9,-24.5c1.2,-0.9 2,-2.3 2.6,-3.8z" fill="#111111"></path><path d="M138.5,59.4c-0.3,0.2 -0.5,0.2 -0.8,0.1c-0.9,-0.9 -2.1,-1 -3.3,-0.9c-1.8,0.2 -3.9,0.2 -5.4,-0.3c-1.7,-0.7 -2.6,-0.3 -3.7,0.6c-0.6,0.3 -1.3,0.2 -1.9,0.2c-0.1,-0.5 0.2,-1.1 -0.4,-1.3c-0.1,-0.1 -0.4,0.1 -0.4,0.2c0,1.3 -0.6,0.4 -1,0.3c-0.9,-0.3 -1.8,0.3 -2.7,0.4c0.1,0.3 0.3,0.7 0.4,1c-1,0.2 -2,0.4 -3,0.6c-0.6,-0.6 -0.9,-1.8 -1.8,-1.6c-0.6,0.2 0,1.3 -0.2,2c-0.3,0 -0.5,0.1 -0.8,0.1c-0.7,-1.3 -1,-0.4 -1.4,0.2c-0.2,0 -0.5,-0.1 -0.7,-0.1c-0.1,0 -0.1,-0.4 -0.3,-0.1c0.1,0.1 0.2,0.1 0.3,0.2c0.1,1.4 -1,0.8 -1.6,1c-1.4,-0.4 -5.1,0.5 -5.9,1.6c-0.3,0.4 -0.1,0.7 0.2,1c-0.1,0.1 -0.2,0.2 -0.3,0.2c-0.9,-0.9 -1.8,-0.3 -2.5,0.1c-0.6,0.3 -0.1,0.9 0.1,1.3c-0.7,0.4 -1.3,0.8 -2,1.2c-1.6,-0.1 -2.9,0.2 -3.7,1.8c-0.4,0.8 -1.1,1.3 -2.2,0.6c0,0.8 0.3,1.3 0.8,1.5c-0.1,0.1 -0.2,0.2 -0.3,0.3c-0.9,-0.1 -1.2,0.3 -1.1,1.2v0c-1.2,-0.9 -2,0.2 -2.5,0.9c-0.4,0.5 -1.4,1.4 -0.3,2.3c-0.2,0.2 -0.4,0.4 -0.6,0.7c-1.4,0.1 -2.3,0.8 -2.6,2.1c-0.3,1.1 -0.9,1 -1.7,0.6v0c-0.3,-0.5 -0.8,-0.4 -1.3,-0.4c0.5,-0.8 6.4,-8.6 8.3,-10c0.8,0.1 1,-0.4 1,-1c6.3,-5.3 13.5,-8.6 21.4,-10.3c0,0.3 0.1,0.5 0.4,0.5c0.3,-0.1 0.3,-0.4 0.3,-0.6c4.1,-1.2 8.4,-1.5 12.6,-1.5c5.6,-0.1 11.1,0.3 16.5,1.9c0.1,1.8 0.9,0.6 1.5,0.4c1.2,0.3 2.5,0.6 3.7,0.9c0.1,0 0.2,0.1 0.4,0.1c0,-0.1 0,-0.3 0,-0.4c-1.6,-3.3 -2.3,-6.8 -1.7,-10.6c0.2,-0.1 0.3,-0.1 0.5,-0.2c-0.2,-0.1 -0.3,-0.1 -0.5,-0.2c0,-0.1 0,-0.3 0,-0.4c0.7,-0.2 0.9,-0.4 0.1,-0.8c1.4,-6.6 6.8,-10.4 13.1,-11.1c0.4,0 0.8,0 0.8,-0.4c0.1,-0.6 -0.4,-0.6 -0.9,-0.6c-3.5,-2 -6.9,-4.2 -10.1,-6.8c-0.9,-0.7 -1.3,-1.7 -1.2,-2.9c0.4,-4.8 0.7,-9.6 1.9,-14.3c0.7,-2.9 2.4,-4.6 5.2,-5.1c2.7,-0.5 5.4,-1.2 8.2,-1.3c-0.3,0.6 -0.5,1.2 -0.8,1.8c-3.1,0.4 -6.1,0.8 -9.3,1.3c0.3,0.3 0.4,0.5 0.5,0.6c6.6,4.5 13.4,8.6 20.3,12.6c1,0.6 2.2,0.7 3.3,0.5c4,-0.7 8,-1.4 12.1,-2.1c2.3,-0.4 4.7,-0.8 7.3,-1.3c-1,-0.7 -1.7,-1.1 -2.4,-1.5c-0.2,-0.1 -0.4,-0.2 -0.5,-0.3c-0.3,0 -0.5,0 -0.7,-0.3c0,-0.2 -0.1,-0.4 -0.3,-0.2c-1,-0.3 -1.9,-0.8 -2.7,-1.4c-0.3,-0.5 0.8,-1.4 -0.5,-1.6c-1,-0.1 -2,-0.2 -3,-0.4c-0.1,-0.1 -0.3,-0.1 -0.4,-0.2c0,-0.3 0.4,-0.5 0,-0.8c-0.1,0.2 -0.3,0.4 -0.4,0.6c-0.1,0 -0.2,0 -0.3,-0.2c-0.2,-0.5 -0.5,-0.6 -0.9,-0.5c-0.2,-0.1 -0.4,-0.2 -0.6,-0.3c-0.1,-0.4 -0.5,-0.5 -0.8,-0.5c-0.1,-0.1 -0.2,-0.1 -0.4,-0.2c-0.1,-0.1 -0.3,-0.2 -0.4,-0.2c-0.1,0 -0.2,-0.1 -0.3,-0.2c-0.1,-0.3 -0.3,-0.5 -0.7,-0.5c-0.2,-0.1 -0.3,-0.1 -0.5,-0.2c-0.1,-0.5 -0.2,-0.8 -0.8,-0.3c-0.5,-0.3 -1.1,-0.6 -1.6,-0.9c-0.1,-0.3 -0.3,-0.4 -0.6,-0.4c-1.8,-0.9 -3.7,-1.9 -5.9,-1.8c-0.1,-0.6 -0.2,-1.2 -0.4,-1.8c2.1,-0.3 4,0.3 5.8,1.3c0.6,0.3 1.2,1.1 2,0.2c0.2,0 0.4,0.1 0.7,0.1c-0.2,1.3 1.8,0.9 2.2,1.8c0.1,1.4 1.1,1.2 2,1.2c2.4,1.1 4.6,2.4 6.9,3.8c0,0.4 -0.2,0.9 0.3,1c0.5,0.2 0.4,-0.3 0.5,-0.6c2.2,1.1 4.3,2.3 6.5,3.2c1.7,0.8 2.3,2.1 2.1,3.8c-0.2,2.1 -0.4,4.3 -0.6,6.4c-0.4,0.3 -0.5,0.6 0,1c0.5,0.4 0.7,-0.5 0.8,-1c1.8,-2.8 2.8,-5.9 2.1,-9.3c-0.7,-3.7 -2.6,-7 -4.7,-10.1c0.7,-0.2 1.4,-0.2 2.1,-0.1c1.3,1.6 2.4,3.3 3.2,5.2c0.3,1 -1.1,2.7 1.3,2.7c0.3,0.4 0.3,0.8 0.4,1.3c-0.3,1.2 -1.6,2.5 0.5,3.4c0,0.3 0,0.5 0,0.8c-1.2,0.8 -1.6,2.5 -0.9,3.9c0,0.1 0,0.3 -0.1,0.3c-0.7,0.2 -1.6,0.3 -0.5,1.3c-0.3,0.5 -0.5,1 -0.8,1.5c-1.9,0.1 -2.1,0.9 -2.1,2.7c0,0.1 0,0.2 -0.2,0.3c-0.5,0.4 -2.2,-0.6 -1.2,1.2c-0.8,0.7 -1,1.6 -1,2.6c-0.1,1.5 -0.9,2.2 -2.3,2.8c-6.9,2.8 -14.4,3.9 -21.5,5.8c-0.4,0.1 -0.9,0.2 -1.3,0.2c-1.1,-0.1 -2.1,-1 -3.4,0c-2.3,1.7 -4.6,3.3 -5.7,6c-0.7,1.5 -1.1,3.1 -1,4.8c-1,-0.4 -0.7,-1.2 -0.7,-1.9c-0.1,-4.2 2.3,-7.1 5.3,-9.6c0.5,-0.4 1.5,-0.4 1.2,-1.4c0.2,-1.5 1.8,-0.3 2.3,-1.2c1.3,0.4 1.1,-0.6 1.1,-1.3c0.2,-4.5 0.7,-9 1.6,-13.5c0.3,-1.3 -0.1,-2 -1.1,-2.7c-2.3,-1.4 -4.6,-2.8 -6.8,-4.2c-4.7,-2.9 -9.4,-5.8 -14.2,-8.7c-0.4,1.7 -0.7,3.4 -1,5c-0.1,0 -0.2,0.1 -0.3,0.1c0.1,0.1 0.2,0.2 0.2,0.2c0.1,0.4 0.1,0.8 -0.1,1.2c-1.2,1 -1.2,2.2 -0.4,3.4c0,0.3 0,0.5 0,0.8c-0.3,0.2 -0.8,0.2 -0.8,0.7c0,0.3 0.4,0.4 0.7,0.5c0,0.5 -0.1,1 -0.1,1.5c-0.3,-0.1 -0.7,-0.4 -0.9,0.2c-0.2,0.7 -0.2,1.5 0.7,1.7c0,0.3 -0.1,0.5 -0.1,0.8l-0.1,0.1c0,0.1 0,0.2 0,0.2c0.5,1.7 2.2,2.1 3.3,3.3c0.1,0.1 0.2,0.2 0.3,0.3v0c0.2,0.1 0.3,0.2 0.5,0.3v0c0.3,1.2 0.4,1.3 1.2,0.6c0.4,0.2 0.7,0.4 1.1,0.6c0.1,0.8 0.6,0.8 1.2,0.7v0c0.1,0.3 0.4,0.4 0.7,0.5v0c0.1,0.2 0.1,0.3 0.2,0.5c0.1,-0.1 0.2,-0.1 0.3,-0.2c1,0.6 2.1,1.2 3.1,1.8c-0.1,0.9 0.3,0.7 0.9,0.5c0.3,0.2 0.7,0.4 1,0.6c0,0.1 0.1,0.3 0.1,0.4c0.1,-0.1 0.2,-0.1 0.2,-0.2c0.6,0.3 1.3,0.7 1.9,1c-0.6,0.5 -1.2,1 -1.8,1.4c-0.2,-0.1 -0.3,-0.1 -0.5,-0.2c-0.1,-0.8 -0.6,-0.7 -1.2,-0.7c-3.1,0.1 -5.5,1.9 -8,3.5c-0.6,0 -1.3,-0.1 -1,0.9h-0.1c-1.5,-1.3 -1.6,0.9 -2.5,1.1c-0.6,0.1 -0.4,1.1 0.3,1.4c-0.6,1.4 -1.2,2.8 -1.8,4.1c-1.1,1 -1.2,1.6 -0.4,2.3c0,1.4 -0.1,2.8 -0.1,4.2c-0.2,0 -0.4,0 -0.6,0.1c-0.1,-0.2 0.1,-0.6 -0.4,-0.5c-0.1,0 -0.1,0.1 -0.1,0.1c-0.1,0.4 0.3,0.3 0.5,0.4c0,0.6 0,1.1 0.8,1.1c0.4,0.7 0.3,1.5 0.4,2.3c-0.6,0.5 -0.3,0.7 0.3,0.8c0.3,0.8 0.5,1.7 1.2,2.2c0.1,0.8 0.4,1.1 1.1,0.5c2,0.5 3.7,1.6 5.4,2.7c0.1,0.5 -0.3,1.3 0.5,1.4c0.6,0.1 0.6,-0.5 0.6,-0.9c0.7,0.4 1.3,0.8 2,1.2c0,1.2 0.5,1.6 1.6,1c0.3,0 0.6,0.1 0.7,0.4c-0.3,0.3 -0.5,0.5 -0.8,0.8c-0.1,0 -0.3,-0.1 -0.3,-0.1c-0.1,0.3 0,0.4 0.3,0.5c0.6,0 1.1,0 1.6,-0.4l0.1,-0.1c-0.1,0.3 -0.1,0.6 -0.2,0.9c-0.2,0.1 -0.4,0.2 -0.3,0.5c0.1,0 0.2,-0.1 0.3,-0.1c0.6,0.4 1.3,1 1.7,-0.3c0.5,0.4 0.9,0.7 1.4,1.1c-0.1,0 -0.2,0 -0.4,0c-0.4,0.1 -0.8,0.2 -0.7,0.7c0.1,0.4 0.4,0.4 0.7,0.5c0.3,0.3 0.5,0.5 0.8,0.8c0.6,0 1.5,1.9 1.6,-0.3c1.1,1 2.3,2.1 3.4,3.1c-0.1,0.7 0.3,1.6 -0.4,2.2c-0.4,0.2 -0.6,0.4 -0.8,0.8c-0.4,-0.2 -0.8,-0.3 -0.7,-0.8c0,-0.6 -0.4,-0.7 -0.9,-0.7c-0.1,-0.1 -0.2,-0.2 -0.3,-0.3c0,-0.3 0,-0.6 0,-0.9c-0.2,-0.8 -0.5,-1 -1.2,-0.3c-1.2,-0.3 -1.8,-1.3 -2.7,-2c0,-0.4 -0.2,-0.7 -0.6,-0.7c-0.7,-0.3 -1.5,-0.6 -2,-1.2c-0.1,-0.7 -0.6,-0.7 -1.1,-0.7c-1.5,-0.5 -2.6,-1.6 -3.9,-2.4c-0.1,-1.4 -1.5,-1.2 -2.3,-1.8c-0.1,-0.2 -0.1,-0.3 -0.2,-0.5c-0.1,0.2 -0.1,0.3 -0.2,0.5c-0.2,0 -0.3,0.1 -0.5,0.1c-0.7,-0.3 -1.4,-0.6 -2.2,-0.9c-0.1,-0.4 -0.1,-0.9 -0.7,-0.4c-0.4,0.1 -0.7,-0.1 -0.8,-0.5c-0.4,-0.3 -0.8,-0.6 -1.4,-0.4c-0.6,0 -1.3,0 -1.7,-0.6c-0.6,-0.8 -2.8,-1.5 -4.6,-1.4c-0.3,0 -0.5,-0.1 -0.8,-0.1c-0.2,-0.8 -0.6,-0.9 -1.1,-0.3c-0.9,-0.1 -1.8,-0.3 -2.7,-0.4c-0.2,-0.5 0.6,-1.2 -0.2,-1.5c-1.2,-0.9 -1.2,0.4 -1.9,0.5zM201.3,20.6c-0.1,-1.2 0.2,-2.3 -1.2,-2c-6.8,1.7 -13.8,2.5 -20.7,3.7c-1.2,0.2 -1.5,0.7 -1.6,1.8c-0.6,4.7 -0.7,9.5 -1.5,14.2c-0.3,1.8 0.2,2.2 2,1.7c0.6,-0.2 1.2,-0.3 1.9,-0.5c5.7,-1.2 11.5,-2.3 17,-4.2c0.7,-0.2 1.6,-0.4 1.7,-1.3c0.9,-4.5 1.7,-9.2 2.4,-13.4zM174.8,39.8c0,-0.3 -0.2,-0.5 -0.5,-0.4c-0.2,0.1 -0.4,0.3 -0.4,0.5c-0.1,0.3 0.2,0.4 0.5,0.4c0.2,0 0.3,-0.2 0.4,-0.5zM134.3,57.5c0.7,0.5 1.1,0.2 1.6,-0.1c-0.6,-0.1 -1,-0.2 -1.6,0.1zM149.2,60.3c0.1,-0.3 0.2,-0.4 0.2,-0.5c-0.1,-0.1 -0.3,-0.2 -0.4,-0.4c0,0.1 -0.1,0.2 -0.1,0.3c0,0.2 0.2,0.4 0.3,0.6zM110.2,60.9c0,-0.1 0.1,-0.2 0.1,-0.3l-0.1,-0.1c-0.1,0 -0.2,0.1 -0.2,0.2c0,0.1 0.1,0.1 0.2,0.2zM137.2,58.4c0.1,0 0.1,-0.1 0.2,-0.1l-0.1,-0.1c0,0 -0.1,0 -0.2,0.1c0,0 0.1,0 0.1,0.1zM143.1,59.1c0,0.1 -0.1,0.1 0,0.2c0,0 0.1,0 0.1,0.1c0,-0.1 0.1,-0.1 0,-0.2c0.1,-0.1 0,-0.1 -0.1,-0.1z" fill="#0c0c0c"></path><path d="M162.5,65.1c-0.7,-0.4 -1.3,-0.8 -2,-1.2c-0.3,-0.2 -0.6,-0.6 -1.1,-0.4c-1.7,-1.1 -3.4,-2.2 -5.4,-2.7c-0.3,-0.3 -0.7,-0.5 -1.1,-0.5c-0.8,-0.5 -0.9,-1.4 -1.2,-2.2c0,-0.3 0,-0.6 -0.3,-0.8c0,-0.8 0,-1.6 -0.4,-2.3c0.1,-0.4 0,-0.8 -0.2,-1.2c0,-1.4 0.1,-2.8 0.1,-4.2c0.1,-0.8 0.3,-1.5 0.4,-2.3c0.6,-1.4 1.2,-2.8 1.8,-4.1c0.7,-0.8 1.5,-1.7 2.2,-2.5h0.1c0.3,-0.3 0.7,-0.6 1,-0.9c2.5,-1.6 5.4,-4 8.5,-4.2c0.3,0.4 1,1.5 1.1,1.6c1.6,1.2 3.3,2.4 5.2,3c0.3,1 -0.7,1.1 -1.2,1.4c-3,2.5 -4.5,4.9 -4.4,9c0,0.7 0,0.9 0.1,1.7c0,1.3 0.9,2.9 1.3,4c0.2,0.7 0.6,1.3 1,1.8c3.7,5.7 7.7,10.7 12.1,15.9c2.6,3 5.4,5.8 7.4,9.4c-0.8,-0.1 -0.8,0.6 -1.1,1.1c-0.9,1.3 -0.6,3.1 -1.8,4.3c-0.1,-0.1 -0.2,-0.3 -0.3,-0.4c-0.1,-0.6 -0.2,-1.2 -0.7,-1.6c-1.4,-3.2 -3.4,-6.1 -5.8,-8.8c-0.4,-0.7 -0.9,-1.3 -1.6,-1.8c-0.7,-0.9 -1.2,-1.8 -2.3,-2.3c-1.1,-1 -2.3,-2.1 -3.4,-3.1c0,-0.1 -0.1,-0.1 -0.2,-0.1c-0.5,-0.7 -1.1,-1.1 -1.8,-1.5c-0.5,-0.4 -0.9,-0.7 -1.4,-1.1c-0.5,-0.3 -1,-0.7 -1.5,-1l-0.1,0.1c-0.1,-0.4 -0.4,-0.6 -0.8,-0.7c-0.1,-0.3 -0.4,-0.4 -0.7,-0.4c-0.3,-0.5 -0.8,-0.9 -1.5,-1z" fill="#c3c3c3"></path><path d="M192.8,189.4c3.5,-0.8 7,-1.7 10.1,-3.7c3.4,-2.2 5.8,-5.2 7.7,-9.2c-3.4,1.3 -6.5,2.4 -9.4,3.7c-2.3,1 -4.4,1.2 -6.8,-0.1c-3.9,-2.1 -8.1,-3.6 -12.2,-5.4c-3.6,-1.6 -4.9,-4.2 -4.7,-8c0.1,-3 -0.5,-6 -0.3,-9c0.1,-1.6 0.6,-2.7 2.3,-2.9c1.4,-0.1 2.1,-0.8 2.5,-2.1c0.4,-1.3 1.2,-2.4 2,-3.4c0.1,0.1 0.3,0.3 0.4,0.4c-0.1,0.2 -0.2,0.5 -0.3,0.7c-0.4,1 -1.4,2.2 -0.8,3c0.6,0.8 1.9,-0.1 2.8,-0.4c2.5,-0.7 5.2,-0.7 7.5,-2c1.9,-1.1 3.8,-1.4 5.9,-1.1c2.7,0.4 5.1,1.5 7.3,3.1c8.8,6.4 10.5,19.5 3.7,28.9c-4.8,6.7 -11.7,9.5 -19.7,10.1c0.3,-1.1 2.5,-0.9 2,-2.6zM198.4,171.4c-0.1,0 -0.1,0 0,0c0,2 0,4.1 0,6.1c-0.1,1.4 0.3,1.6 1.6,1.1c3.6,-1.5 7.2,-2.9 10.9,-4.2c0.7,-0.2 0.9,-0.7 1,-1.2c1.3,-4.3 0.9,-8.4 -0.8,-12.5c-0.3,-0.7 -0.6,-0.9 -1.4,-0.6c-3.3,1.2 -6.7,2.4 -10.1,3.5c-0.8,0.3 -1.1,0.6 -1.1,1.5c-0.1,2.1 -0.1,4.2 -0.1,6.3zM179.6,156.1c1.2,0.9 2.3,1.5 3.5,1.9c4.1,1.3 8.2,2.4 12,4.4c1.2,0.6 2.6,0.7 4,0.1c3.1,-1.3 6.3,-2.4 9.5,-3.3c1.3,-0.4 1.2,-0.8 0.5,-1.6c-2.1,-2.7 -4.7,-4.6 -7.8,-5.9c-0.8,-0.4 -1.7,-0.4 -2.6,-0.2c-6.3,1.4 -12.7,3 -19.1,4.6zM179.1,157.6c-0.3,4 0.7,7.8 0.7,11.6c0,1.1 0.4,1.9 1.4,2.5c5.1,2.9 10.7,4.8 16.3,7.3c-0.2,-4.4 -0.4,-8.6 -0.1,-12.8c0.1,-1.5 -0.4,-2.2 -1.8,-2.6c-5.5,-1.6 -11,-3.4 -16.5,-6z" fill="#101010"></path><path d="M105.1,157.4c0.5,5.8 -2,10.3 -5.9,14.1c-8.9,8.6 -19.6,12.2 -31.9,10.4c-5.9,-0.9 -11.2,-3.1 -14.6,-8.5c-2.6,-4 -2.8,-8.2 -2,-12.7c1,-5.2 3.3,-9.9 5.9,-14.4c1.1,-1.7 2.3,-3.5 3.4,-5.2c1.9,-3 3,-6.1 2.3,-9.7c0.2,0 0.4,0 0.6,0c1.1,4.3 -0.5,8 -2.6,11.6c-2.6,4.5 -5.3,9 -6.7,14.1c-0.9,3.2 -1.3,6.4 -0.8,9.6c1,5.9 4.9,9.4 10.3,11.1c8.8,2.8 17.4,1.8 25.7,-2.4c4,-2 7.6,-4.7 10.8,-7.8c4.8,-4.7 5.5,-10.2 2.4,-16.2c-1.3,-2.6 -3,-4.9 -4.7,-7.2c0.2,-0.7 7.4,7.6 7.8,13.2z" fill="#131313"></path><path d="M54.4,96c2,-0.9 4.1,-0.7 6,0c4.1,1.4 8.2,2.8 12.1,4.6c1.3,0.6 1.7,1.3 1.6,2.9c-0.3,3.9 -0.3,7.8 -0.4,11.6c0,1.5 -0.4,2.6 -1.8,3.4c-3.2,1.9 -6.6,3.5 -9.9,5.4c-0.7,0.4 -1.4,0.6 -1.9,1.2c-0.1,0.1 -0.2,0.3 -0.4,0.4c-2.3,0.5 -4.4,1.7 -6.5,2.7c-2.3,1 -4.2,0.7 -6.2,-0.7c-2.8,-1.9 -5.6,-3.7 -8.7,-5.1c-2.9,-1.5 -3.9,-4.1 -3.9,-7.2c0,-2.5 -0.4,-5.1 -0.4,-7.6c0,-1.7 -0.7,-1.6 -1.8,-0.8c-0.4,-0.2 -0.5,-0.5 -0.6,-0.9c0.3,-0.6 0.8,-0.7 1.4,-0.7c0.3,0 0.9,0 0.9,-0.5c-0.2,-2.9 2.3,-2.6 3.9,-3.3c0,0.5 0,1 0,1.5c-0.4,0.2 -0.9,0.4 -1.4,0.6c4.5,2.4 8.9,4.7 13.2,7.1c0.9,0.5 1.5,0.3 2.3,0c5.6,-2.3 11.3,-4.7 16.9,-7c0.6,-0.3 1.4,-0.3 1.7,-1.1c-1.1,-1 -2.6,-1.2 -3.9,-1.6c-3.5,-1.1 -6.6,-3.3 -10.5,-3.4c0,-1.1 -1.2,-0.8 -1.7,-1.5zM51,126.9c2,-1 3.8,-1.8 5.6,-2.7c4.6,-2.3 9.2,-4.7 13.6,-7.4c0.6,-0.4 1.3,-0.8 1.3,-1.7c0,-3.7 0,-7.5 0,-11.2c-0.2,0 -0.3,-0.1 -0.3,-0.1c-6.4,2.4 -12.5,5.5 -18.9,7.8c-0.8,0.3 -1.3,0.9 -1.3,1.9c0.1,4.4 0,8.8 0,13.4zM35.5,104.7c0.4,4.8 0.9,9.2 1.3,13.5c0.1,0.7 0.5,1.2 1,1.5c3.9,2.5 8.1,4.4 12.1,7.3c0,-4.7 -0.1,-9 0.3,-13.3c0.1,-0.8 0,-1.6 -0.8,-2c-4.6,-2.1 -9.2,-4.1 -13.9,-7z" fill="#0c0c0c"></path><path d="M228,170.1c0,0.5 0,1 0,1.5c-0.6,0.1 -1.1,0.4 -1.2,1c-0.1,0.6 0.6,0.7 1,0.9c0,0.3 0,0.5 0,0.8c-0.3,0.1 -0.7,0 -0.6,0.4c0,0.1 0.4,0.2 0.6,0.3c-0.1,0.6 -0.1,1.2 -0.2,1.9c-0.8,0.1 -1.4,0.4 -1.3,1.3c0.1,1.6 -0.7,2.9 -0.9,4.3c-0.2,0.9 -1.6,1.8 -0.4,2.9c0,0.5 -0.3,0.8 -0.6,1.1c-1.1,0.3 -2,1.4 -2.3,2.1c-0.5,1.6 -1.8,2.4 -3,3.2c-1,0.7 -1.8,1.4 -1.6,2.8c-0.1,0.1 -0.3,0.2 -0.4,0.4c-0.4,-0.6 -0.7,-1.5 -1.5,-0.4c-0.5,0.2 -0.8,0.6 -0.8,1.1c-0.4,0.1 -1,-0.2 -1.2,0.2c-0.2,0.3 0.1,0.7 0.5,0.9c-1.3,1 -2.7,1.7 -4.2,2.3c0,-0.3 0.1,-0.8 -0.3,-1c-0.1,0 -0.3,0.2 -0.4,0.3c-0.1,0.4 0.2,0.6 0.6,0.7c-1.1,0.5 -2.2,0.9 -3.4,1.4c-1.3,-1.4 -1.9,-0.4 -2.4,0.8c-0.5,0.3 -0.9,0.6 -1.5,0.5c0,-0.3 0,-0.6 -0.4,-0.6c-0.1,0 -0.2,0.3 -0.4,0.5c-0.5,0.5 -1.1,0.9 -1.9,0.8c-0.1,-0.3 -0.1,-0.7 -0.5,-0.6c-0.5,0.1 -0.6,0.5 -0.7,1c-1.7,0.5 -3.5,0.9 -5.3,0.9c-0.6,-0.3 -1.3,-1.6 -1.6,0.2c-0.9,0.1 -1.8,0.5 -2.7,0.2c-0.3,-0.4 -0.5,-0.8 -0.8,-1.2c8.6,-1.7 16.9,-4.4 24.5,-9c0.7,0.3 1.3,0.6 1.1,-0.7c1.3,-1.1 2.7,-2.2 4,-3.4c1.6,0.5 1.5,-0.5 1.4,-1.5c1.7,-2.4 3.1,-5 4.1,-7.8c1.1,-0.1 1.1,-0.7 0.6,-1.5c1.1,-5.8 1.4,-11.7 0.1,-17.6c-1.8,-8 -6,-14 -13.5,-17.6c-5.3,-2.5 -10.8,-2.6 -16.4,-1.3c-0.1,-0.2 -0.1,-0.5 -0.2,-0.7c8.3,-3 15.9,-1.7 22.9,3.5c1.3,0.9 2.5,1.9 3.5,3.3c-0.3,0.1 -0.6,0.3 -0.4,0.6c0.2,0.3 0.7,0.2 1,0.2c1.8,0.5 3.6,1.1 5.5,1.5c1.3,0.3 1.7,1 1.7,2.3c-0.2,4.4 -0.3,8.7 -0.4,13.1c-0.9,0.5 -0.9,0.5 0.1,1.9c0.1,0.1 0.2,0.3 0.3,0.4c0,0.1 -0.1,0.2 -0.1,0.4c-0.2,0 -0.5,0.1 -0.5,0.4c0,0.5 0.3,0.6 0.5,0.6zM224.7,155.5v0c0.3,0.9 -1,2.5 1.1,2.7c0.3,-0.1 0.5,1.2 0.7,0.1c0.2,-1.6 0.1,-3.3 0.1,-4.9c-0.6,-0.2 -1.1,0.7 -1.8,0.1c0.6,-1 0.5,-1.6 -0.8,-1.8c-0.4,-0.1 -0.8,-0.3 -1.2,-0.4v0v0c0.2,0.5 0.3,0.9 0.5,1.4c0,0.4 -0.6,0.8 -0.1,1.1c0.3,0.2 0.4,-0.3 0.4,-0.6c0.4,0.2 1,-0.3 1.3,0.4c0.2,0.5 -0.7,0.6 -0.5,1.1c-0.3,0.4 -0.4,0.9 0.3,0.8zM226.9,162.1c-0.2,-0.2 -0.3,-0.3 -0.4,-0.3c-0.1,0 -0.4,0.1 -0.4,0.2c-0.1,0.3 0.1,0.4 0.4,0.4c0,-0.1 0.2,-0.2 0.4,-0.3zM226.5,165c0.1,0 0.1,0.1 0.2,0v-0.1c-0.1,0 -0.1,-0.1 -0.2,0c0,-0.1 0,0 0,0.1z" fill="#0c0c0c"></path><path d="M38.4,122.5c3.1,1.4 5.9,3.2 8.7,5.1c2,1.4 3.9,1.7 6.2,0.7c2.1,-0.9 4.2,-2.1 6.5,-2.7c0.1,0 0.3,0 0.4,0v0c0.3,2.1 1.7,3.7 2,5.8c0.7,3.6 -0.4,6.8 -2.3,9.7c-1.1,1.8 -2.3,3.5 -3.4,5.2c-1.8,-1.9 -3.4,-3.9 -4.9,-6c-0.6,-0.9 -1,-0.8 -1.1,0.3c0,0 -0.1,0 -0.2,0c-0.1,0 -0.1,-0.1 -0.2,-0.1c-0.5,-1 0.6,-2 0,-3c0.3,-2.5 -0.7,-4.5 -2.3,-6.2c-2,-2.2 -4.5,-3.4 -7.2,-4.5c0.1,-0.8 -0.4,-1.3 -0.8,-1.8c-0.6,-0.8 -1.4,-1.5 -1.4,-2.5z" fill="#939393"></path><path d="M97.3,144.3c-0.5,-0.7 -1,-1.4 -1.5,-2c0.1,-0.5 -0.1,-0.9 -0.7,-0.9c-3.6,-3.6 -6.8,-7.5 -9.9,-11.5c-3.9,-5.1 -6.7,-10.7 -7.8,-17.1c-1.6,-8.7 -0.8,-17.1 2.4,-25.4c1,-2.6 2.3,-5 3.5,-7.5c0.8,0.4 1.3,-0.3 1.9,-0.6v0c-0.3,1.1 0.5,1.5 1.2,2c-0.3,0.5 -0.6,1 -0.8,1.5c-0.8,-0.5 -1.1,-0.1 -1.4,0.6c-0.5,1.1 -1,2.2 -1.8,3.1c-1,1.1 -0.5,1.6 0.5,2.1c0,0.3 -0.1,0.6 -0.4,0.8c-1.7,-0.5 -1.1,1.2 -1.6,1.8c-0.5,0.4 0.2,0.8 0.7,0.9c0,0.3 0,0.5 0,0.8c-2.8,2.9 -2.8,4.3 -1.5,7.3c0,0.3 0,0.5 -0.1,0.8c-0.8,-0.4 -1.8,-0.2 -1.4,0.8c0.4,1.1 0.2,1.9 -0.1,2.8c-0.4,1.3 0.3,1.4 1.2,1.4c0,0.5 0,1 0,1.5c-0.4,0.3 -0.4,0.5 0,0.8c0.1,0.4 0.2,0.8 0.3,1.1c-0.3,0.1 -0.6,0.1 -0.6,0.5c0,0.5 0.3,0.6 0.7,0.6c0,0.2 0.1,0.5 0.1,0.7c-0.6,0.5 -0.6,0.9 0.2,1.2c0.2,0.4 0.4,0.7 0.2,1.1c-0.7,0.3 -1.1,-0.8 -2,-0.4c0.7,0.9 2.1,1.3 1.5,2.7v0c-0.5,0 -0.8,0.3 -0.8,0.8c0.1,1 0.6,-0.2 0.9,0.2c0.2,0.3 0.6,0.3 1,0.5c0,0.5 8.7,16 9.1,16.3c0.2,0.2 1,2.2 1.5,2.7c0.5,0.2 5.7,7.2 5.5,8zM78,102.8c-0.1,0 -0.2,-0.2 -0.3,-0.1c-0.1,0 -0.1,0.2 -0.1,0.3c0.1,0 0.2,0.2 0.3,0.1c0.1,0 0.1,-0.1 0.1,-0.3z" fill="#0c0c0c"></path><path d="M187.6,83.4c-1.9,-3.5 -4.8,-6.3 -7.4,-9.4c-4.4,-5.2 -8.9,-10.2 -12.7,-15.9c0.6,-0.1 1,0.1 1.3,0.5c4.4,5.5 9.8,10 14.7,15c7.6,7.8 13.6,16.7 15.8,27.6c0.1,0.3 0,0.6 0,0.9c-0.4,0.1 -0.8,0.1 -0.7,0.7c0.1,0.5 0.5,0.4 0.9,0.5c0.1,0.6 0.1,1.3 0.2,1.9c-1,0.6 -1,1.1 0.1,1.6c0.3,0.8 0.2,1.6 0.1,2.4c-0.7,0 -1.1,-0.5 -1.5,-0.9c-0.4,-0.4 -0.9,-1.2 -1.7,-0.7c-0.2,-4.1 -1.1,-8.1 -2.5,-11.9c-1.5,-4.5 -3.5,-8.7 -6.6,-12.3z" fill="#111111"></path><path d="M156.4,169.3c3.6,-3.5 7.4,-6.7 10.8,-10.3c6,-5.5 11.5,-11.5 16.7,-17.8c2.6,-3.2 4.6,-6.8 7.1,-10.2c1.4,0.8 2.3,0.4 3,-1.1c0.4,-0.9 0.6,-2.3 2.1,-2.4c-2.7,5.5 -6.3,10.3 -10.3,14.9c-8.4,9.6 -17.7,18 -27.5,26.1c-0.6,0.5 -1.1,1 -1.9,0.8z" fill="#131313"></path><path d="M40.7,126.8c2.7,1 5.2,2.3 7.2,4.5c1.6,1.8 2.7,3.7 2.3,6.2c-2.2,-4.9 -6.4,-7.2 -11.3,-8.6c-2,-0.6 -4,-1.2 -5.9,-2.2c-3.5,-1.7 -5.2,-4.7 -5.4,-8.5c-0.3,-3.9 -0.2,-7.8 2.6,-11c0.5,-0.5 0.9,-1.1 1.6,-1.3c0,0.4 0.2,0.7 0.6,0.9c-2.9,3.4 -3.1,7.4 -2.5,11.5c0.4,3 1.8,5.2 4.7,6.4c1.9,1 3.9,1.6 6.1,2.1z" fill="#111111"></path><path d="M192.8,189.4c0.4,1.7 -1.7,1.5 -1.9,2.8c-0.9,0 -1.8,0.1 -2.7,0.1c-0.4,-0.5 -0.8,-0.5 -1.1,0c-0.6,0 -1.3,0.1 -1.9,0.1c-0.4,-0.6 -1.1,-0.6 -1.4,-0.1c-0.4,0.5 -0.7,1.3 -0.7,1.9c0,0.7 0.8,0.3 1.3,0.4c0.3,0.3 0.3,0.7 0.3,1.1c-0.6,0.3 -0.8,0.6 0,0.8c0,0.3 0,0.5 0.1,0.8c-1.8,0.8 -0.7,1.6 0,2.4c0,0.2 0,0.4 0,0.7c-0.2,0.1 -0.5,0.2 -0.5,0.4c-0.1,0.3 0.2,0.4 0.5,0.4c0,2.4 0,2.4 2.5,2.2c0.1,0 0.3,0 0.4,0c0,0.4 0,0.8 0,1.2c-0.7,0 -1.4,0.2 -2.1,0.1c-1,-0.2 -1.5,0.3 -1.8,1.2c-0.6,0.1 -1,0.3 -0.2,0.8c-0.1,0.7 -0.3,1.4 -0.8,1.9c-0.3,0 -0.6,-0.1 -0.7,0.3c-0.1,0.3 0.2,0.4 0.4,0.5c-0.4,0.8 -0.8,1.6 -1.4,2.2c-0.2,0 -0.5,0 -0.7,0c-0.1,-0.1 -0.3,-0.1 -0.4,-0.2c2.8,-5.6 3.4,-11.5 2.2,-17.5c-0.9,-4.3 -3,-8.1 -6.2,-11.2c-0.5,-0.5 -1.1,-1.1 -1.6,-1.6c0.2,-0.1 0.5,-0.2 0.7,-0.2c0.6,-0.1 1.2,-0.2 1.9,-0.4c1.8,1.4 3.2,3.2 4.3,5.2c0.1,1.2 0.3,2.3 1.5,2.8c0.5,1.3 1.4,1.7 2.8,1.5c2.2,-0.3 4.7,-0.4 7.2,-0.6z" fill="#0c0c0c"></path><path d="M148.7,172.2c1.9,-0.4 3.8,-0.6 5.6,-1.3c0.9,-0.3 1.2,0.1 1.8,0.2c3.6,-0.2 6.8,0.9 10,2.4c0.1,0.5 0.2,0.9 0.8,0.3c2.4,0.9 4.6,2.1 6.5,3.8c0,0.6 -0.2,1.4 0.7,1.6c0.7,0.2 0.8,0.8 0.8,1.5c-0.2,0.1 -0.5,0.2 -0.7,0.2c-3.3,-2.7 -7,-4.5 -10.8,-6.4c-0.1,-0.6 -0.3,-0.9 -0.8,-0.2c-1.1,-0.3 -2.3,-0.6 -3.4,-0.9c-0.1,-0.2 -0.2,-0.5 -0.3,-0.5c-0.3,-0.1 -0.4,0.2 -0.4,0.4c-2.7,-0.4 -5.4,-0.3 -8,0.3c-0.6,-0.7 -0.7,-0.2 -0.8,0.3c-0.1,0.1 -0.2,0.1 -0.3,0.2c-0.1,-0.2 -0.2,-0.5 -0.5,-0.4c-0.4,0.1 -0.3,0.5 -0.2,0.8c-1.8,1.4 -3.2,3.1 -3.7,5.4c-0.3,1.5 0,2.9 0.8,4.2c-0.3,0.1 -0.6,0.1 -0.8,0.2c-2,-2.7 -1.6,-6.4 0.9,-9.4c0.5,-0.8 2.6,-2.6 2.8,-2.7z" fill="#0c0c0c"></path><path d="M196.1,127.5c-1.5,0 -1.7,1.4 -2.1,2.4c-0.7,1.5 -1.6,1.9 -3,1.1c1.1,-2.7 2.3,-5.4 3.4,-8.1c0.5,-0.1 0.9,-0.2 0.4,-0.8c1.1,-3.9 1.8,-7.8 2,-11.9c0.4,0 0.9,0 0.9,-0.6c0,-0.6 -0.4,-0.9 -0.9,-1c0,-0.4 -0.1,-0.8 -0.1,-1.1c0.9,-0.5 1.3,0.3 1.7,0.7c0.5,0.5 0.9,0.9 1.5,0.9c0,0.2 0,0.5 0,0.7c-0.3,0 -0.6,-0.1 -0.8,0.2v0.1c0.3,0.2 0.5,-0.1 0.8,-0.2c0.2,0.3 0.2,0.6 0.1,0.9c-1.7,0.2 -1,1.7 -1.4,2.6c-0.3,0.7 0,1.5 1,1.6c0,0.3 -0.1,0.5 -0.1,0.8c-1.9,0.1 -1.5,1.6 -1.7,2.7c-0.3,1.5 0.2,3.5 -0.9,4.3c-1.6,1.1 -0.4,2.7 -1.3,3.8c0.2,0.1 0.4,0.3 0.6,0.4c0.1,0.3 0,0.4 -0.1,0.5z" fill="#0c0c0c"></path><path d="M202.3,6.3c-0.7,0 -1.4,0.1 -2.1,0.1c-4.5,-5.6 -13.3,-5.9 -17.7,-1.7c-0.2,0 -0.4,-0.1 -0.7,-0.1c4.2,-5.2 12.9,-5.8 18.1,-1.1c1,0.9 1.8,1.7 2.4,2.8z" fill="#131313"></path><path d="M37.9,102.9c0,-0.5 0,-1 0,-1.5c4.4,-2.2 9.2,-3.1 13.8,-4.7c0.9,-0.3 1.8,-0.5 2.7,-0.8c0.5,0.7 1.7,0.4 1.9,1.4c-1.3,0 -2.5,0.3 -3.7,0.7c-4.9,1.7 -9.8,3.3 -14.7,4.9z" fill="#131313"></path><path d="M164.8,5.8c0.3,-0.6 0.5,-1.2 0.8,-1.8c2.8,-0.6 5.6,-0.9 8.4,-0.8c0.1,0.6 0.3,1.2 0.4,1.8c-3.2,0.2 -6.4,0.5 -9.6,0.8z" fill="#131313"></path><path d="M197.8,118.7c0.2,-1.1 -0.2,-2.6 1.7,-2.7c-0.4,3.9 -1.8,7.6 -3.3,11.2c-0.2,-0.1 -0.4,-0.3 -0.6,-0.4c0.9,-1.1 -0.3,-2.7 1.3,-3.8c1.2,-0.8 0.6,-2.9 0.9,-4.3l0.2,-0.1l-0.1,-0.1z" fill="#131313"></path><path d="M184.4,149.8c-0.1,-0.1 -0.3,-0.3 -0.4,-0.4c1.6,-2.3 3.5,-4.3 6,-5.5c0,0.2 0.1,0.5 0.1,0.7c-2.1,1.4 -4,3.2 -5.7,5.2z" fill="#212121"></path><path d="M199.7,115.2c-1,-0.1 -1.3,-0.9 -1,-1.6c0.4,-0.9 -0.3,-2.5 1.4,-2.6c0.1,1.4 -0.1,2.8 -0.4,4.2z" fill="#131313"></path><path d="M62.2,131.4c-0.3,-2.1 -1.7,-3.7 -2,-5.8c1.7,1.6 2.1,3.7 2.6,5.8c-0.2,-0.1 -0.4,-0.1 -0.6,0z" fill="#212121"></path><path d="M174.8,180.8c0,-0.6 -0.1,-1.3 -0.8,-1.5c-1,-0.3 -0.7,-1 -0.7,-1.6c1.4,0.6 2.4,1.7 3.4,2.8c-0.6,0.1 -1.2,0.2 -1.9,0.3z" fill="#101010"></path><path d="M190.2,144.6c0,-0.2 -0.1,-0.5 -0.1,-0.7c1.2,-0.9 2.5,-1.5 3.9,-1.8c0.1,0.2 0.1,0.5 0.2,0.7c-1.4,0.6 -2.7,1.2 -4,1.8z" fill="#131313"></path><path d="M119.2,218.4c-0.6,-0.6 -1.1,-1.1 -0.1,-2c0.6,-0.5 -0.3,-1.9 0.6,-2.6c0.1,1.6 0.2,3.1 -0.5,4.6z" fill="#212121"></path><path d="M206.8,23.6c-1.2,-1.3 -0.7,-3.7 0.9,-3.9c0,1.4 -0.2,2.7 -0.9,3.9z" fill="#131313"></path><path d="M203.2,29.4c-0.4,-1.7 0.2,-2.6 2.1,-2.7c-0.5,1.1 -1.2,1.9 -2.1,2.7z" fill="#131313"></path><path d="M207.7,18.9c-2.2,-0.3 -1.6,-2.7 -0.5,-3.4c0.6,1.1 0.5,2.3 0.5,3.4z" fill="#131313"></path><path d="M206.8,14.3c-2.1,0.6 -2.1,-1.5 -1.3,-2.7c0.7,0.7 1.1,1.7 1.3,2.7z" fill="#131313"></path><path d="M182.5,188.5c-1.3,-0.5 -1.4,-1.6 -1.5,-2.8c0.7,0.8 1.2,1.7 1.5,2.8z" fill="#101010"></path><path d="M227.8,168.6c-1,-1.5 -1,-1.5 -0.1,-1.9c0,0.6 0.5,1.2 0.1,1.9z" fill="#131313"></path><path d="M201.9,30.9c-1,-1.8 0.7,-1 1.2,-1.2c-0.4,0.4 -0.8,0.8 -1.2,1.2z" fill="#131313"></path><path d="M61.3,216.1c1,-0.2 1.4,0.6 2,1.1c-0.1,0.1 -0.3,0.2 -0.4,0.4c-0.7,-0.3 -1.2,-0.8 -1.6,-1.5z" fill="#212121"></path><path d="M199.9,106.8c-1.1,-0.4 -1.2,-0.9 -0.1,-1.6c0.3,0.5 0.4,1 0.1,1.6z" fill="#131313"></path><path d="M146.1,58c-0.6,0.3 -1.4,1.5 -1.5,-0.4c0.5,0.1 1,0.1 1.5,0.4z" fill="#111111"></path><path d="M85.1,79.2c-0.6,0.3 -1.1,1 -1.9,0.6c0.2,-0.3 0.4,-0.7 0.6,-1c0.5,0 1,-0.1 1.3,0.4z" fill="#131313"></path><path d="M199.6,103.3c-0.4,0 -0.8,0 -0.9,-0.5c-0.1,-0.5 0.3,-0.6 0.7,-0.7c0,0.5 0.1,0.9 0.2,1.2z" fill="#131313"></path><path d="M206.1,25.2c-1.4,-0.7 -0.3,-1.4 0.5,-1.3c0,0.5 0,1 -0.5,1.3z" fill="#131313"></path><path d="M221,149.7c-0.4,0 -0.8,0.2 -1,-0.2c-0.2,-0.4 0.1,-0.5 0.4,-0.6c0.2,0.3 0.4,0.5 0.6,0.8z" fill="#131313"></path><path d="M161.6,34.4c0.4,0 0.9,-0.1 0.9,0.6c0,0.5 -0.5,0.4 -0.8,0.4c0.4,-0.4 0.2,-0.7 -0.1,-1z" fill="#111111"></path><path d="M93.2,67.7c0,0.6 -0.2,1.1 -1,1c0.3,-0.3 0.6,-0.6 1,-1z" fill="#131313"></path><path d="M95.1,141.3c0.6,0 0.8,0.4 0.7,0.9c-0.4,-0.2 -0.6,-0.5 -0.7,-0.9z" fill="#131313"></path><path d="M166.8,173.9c-0.6,0.6 -0.7,0.2 -0.8,-0.3c0.3,0 0.6,0 0.8,0.3z" fill="#101010"></path><path d="M115.4,57.3c0,0.2 0,0.6 -0.3,0.6c-0.3,0.1 -0.4,-0.2 -0.4,-0.5c0.2,0 0.4,-0.1 0.7,-0.1z" fill="#131313"></path><path d="M148.5,46.5c0.7,0.4 0.5,0.7 -0.1,0.8c0,-0.2 0.1,-0.5 0.1,-0.8z" fill="#111111"></path><path d="M200,110.1c-0.3,0 -0.5,0.4 -0.8,0.2v-0.1c0.2,-0.3 0.5,-0.2 0.8,-0.2c0,-0.1 0,0.1 0,0.1z" fill="#131313"></path><path d="M148.4,47.7c0.2,0.1 0.3,0.1 0.5,0.2c-0.2,0.1 -0.3,0.1 -0.5,0.2c0,-0.1 0,-0.3 0,-0.4z" fill="#111111"></path><path d="M60.2,125.5c-0.1,0 -0.3,0 -0.4,0c0.1,-0.1 0.2,-0.3 0.4,-0.4c0,0.2 0.1,0.3 0,0.4z" fill="#212121"></path><path d="M60.1,214.8c0.3,0.1 0.6,0.2 0.4,0.6c-0.3,-0.1 -0.3,-0.3 -0.4,-0.6z" fill="#212121"></path><path d="M60.5,215.4c0.4,-0.1 0.6,0 0.4,0.4c-0.2,0 -0.4,-0.2 -0.4,-0.4z" fill="#212121"></path><path d="M60.9,215.7c0.4,-0.1 0.7,-0.1 0.4,0.4c-0.1,-0.1 -0.3,-0.2 -0.4,-0.4z" fill="#212121"></path><path d="M217.4,194.6c-0.2,-1.4 0.6,-2 1.6,-2.8c1.2,-0.9 2.4,-1.6 3,-3.2c0.2,-0.7 1.1,-1.8 2.3,-2.1c-1.4,3.6 -3.9,6 -6.9,8.1z" fill="#131313"></path><path d="M224.9,185.5c-1.2,-1.1 0.3,-2 0.4,-2.9c0.2,-1.4 1.1,-2.8 0.9,-4.3c-0.1,-0.9 0.5,-1.2 1.3,-1.3c-0.4,2.9 -1,5.9 -2.6,8.5z" fill="#131313"></path><path d="M178,214.1c0.6,-0.9 1.2,-1.8 1.8,-2.7c0.1,0.1 0.3,0.1 0.4,0.2c0,0.4 0,0.8 0,1.1c-0.3,0.7 -0.8,1.2 -1.4,1.6c-0.3,-0.1 -0.6,-0.2 -0.8,-0.2z" fill="#0c0c0c"></path><path d="M204,201.5c0.5,-1.2 1,-2.2 2.4,-0.8c-0.8,0.4 -1.6,0.7 -2.4,0.8z" fill="#101010"></path><path d="M227.8,173.5c-0.4,-0.3 -1.1,-0.3 -1,-0.9c0.1,-0.6 0.6,-0.9 1.2,-1c0,0.6 0,1.2 0,1.8c-0.1,0.1 -0.1,0.1 -0.2,0.1z" fill="#131313"></path><path d="M214.7,195.8c0,-0.6 0.3,-0.9 0.8,-1.1c0.1,0.4 0.2,0.7 0.4,1.1c-0.3,0.4 -0.6,0.7 -1.1,0.8c-0.1,-0.3 -0.1,-0.6 -0.1,-0.8z" fill="#101010"></path><path d="M215.8,195.7c-0.1,-0.4 -0.2,-0.7 -0.4,-1.1c0.8,-1.2 1.1,-0.2 1.5,0.4c-0.1,0.6 -0.5,0.7 -1.1,0.7z" fill="#131313"></path><path d="M214.7,195.8c0,0.3 0,0.5 0,0.8c-0.1,0.3 -0.4,0.4 -0.7,0.4c-0.3,-0.2 -0.7,-0.6 -0.5,-0.9c0.2,-0.5 0.8,-0.2 1.2,-0.3z" fill="#131313"></path><path d="M187.5,204.5c0,-0.4 0,-0.8 0,-1.2c0.2,-0.1 0.5,-0.1 0.7,-0.2c0.3,0.4 0.5,0.8 0.8,1.2c-0.5,0.2 -1,0.2 -1.5,0.2z" fill="#101010"></path><path d="M191.7,204.2c0.2,-1.9 1,-0.6 1.6,-0.2c-0.5,0.3 -1.1,0.3 -1.6,0.2z" fill="#101010"></path><path d="M198.6,203c0,-0.4 0.2,-0.9 0.7,-1c0.4,-0.1 0.4,0.3 0.5,0.6c-0.4,0.2 -0.8,0.3 -1.2,0.4z" fill="#101010"></path><path d="M209.7,199.3c-0.4,-0.1 -0.7,-0.3 -0.6,-0.7c0,-0.1 0.3,-0.3 0.4,-0.3c0.3,0.2 0.2,0.6 0.2,1z" fill="#101010"></path><path d="M180.2,212.7c0,-0.4 0,-0.8 0,-1.1c0.2,0 0.5,0 0.7,0c-0.1,0.4 -0.3,0.8 -0.7,1.1z" fill="#101010"></path><path d="M227.7,175.1c-0.2,-0.1 -0.5,-0.2 -0.6,-0.3c-0.1,-0.4 0.3,-0.4 0.6,-0.4c0,0.2 0,0.4 0,0.7z" fill="#131313"></path><path d="M201.7,201.9c0.1,-0.2 0.2,-0.5 0.4,-0.5c0.4,-0.1 0.4,0.3 0.4,0.6c-0.3,-0.1 -0.6,-0.1 -0.8,-0.1z" fill="#101010"></path><path d="M183.4,206.6c-0.7,-0.5 -0.4,-0.7 0.2,-0.8c0.1,0.3 0.1,0.6 -0.2,0.8z" fill="#101010"></path><path d="M182.3,209.3c-0.2,-0.1 -0.5,-0.2 -0.4,-0.5c0.1,-0.4 0.4,-0.3 0.7,-0.3c-0.1,0.3 -0.2,0.5 -0.3,0.8z" fill="#101010"></path><path d="M173.4,230.2c-5.2,2.2 -10,4.6 -14.5,7.5c-0.6,0.4 -1.2,0.3 -1.8,-0.1c-6.3,-4 -13.1,-6.8 -19.6,-10.3c-1.9,-1 -3.7,-2.2 -5.6,-3.4c-0.3,-0.2 -0.8,-0.3 -0.7,-0.8c0.1,-0.2 0.5,-0.4 0.7,-0.5c5,-1.6 9.9,-3.2 14.9,-4.9c0.8,-0.3 1.4,0.1 2,0.5c5.9,3.6 12.2,6.4 18.5,9.1c2.1,0.8 3.9,1.8 6.1,2.9z" fill="#b6b6b6"></path><path d="M157.5,253.4c-3.8,-1.9 -6.9,-4.2 -10.3,-6.3c-4.9,-3.1 -9.6,-6.2 -14.4,-9.5c-1.2,-0.8 -1.9,-1.8 -2,-3.3c-0.2,-2.9 -0.4,-5.7 -0.6,-8.6c-0.1,-1 0.1,-1.7 1.3,-0.8c7.6,5.4 16.2,9.2 24.3,13.7c1.2,0.7 1.8,1.5 1.7,3c0,3.9 0,7.7 0,11.8z" fill="#929292"></path><path d="M68.2,220.7l0.1,-0.1c0.5,-5.1 4.9,-5.7 8.5,-4.8c4.1,1 8.2,5.6 8.6,9.8c0.1,1.2 0.4,2.6 -1.2,3.3c-5.9,-1.5 -11.1,-4.4 -16,-8.2z" fill="#afafaf"></path><path d="M119.4,177.8c2,0.5 4,0.5 5.7,2.2c4.1,4 2.8,10.4 -1.3,13c-1.8,1.2 -3.6,2.4 -5.9,2.5c-0.1,-0.3 -0.3,-0.5 -0.4,-0.8c-0.1,-1 -0.1,-2 -0.2,-3c0.3,-0.3 0.1,-0.6 -0.1,-0.8c0,-0.4 0,-0.8 0,-1.1c0,-0.3 0,-0.5 0,-0.8c0,-0.1 0,-0.3 0,-0.4c0.2,-2 0.5,-4.1 0.7,-6.1c0.1,-0.3 0.2,-0.5 0.2,-0.8c0.5,-1.3 1.2,-3.8 1.3,-3.9z" fill="#afafaf"></path><path d="M158.9,246.2c0,-2 0.1,-4 0,-5.9c0,-1 0.6,-1.5 1.3,-1.9c4.7,-2.4 9.4,-4.7 14,-7c1.2,-0.6 1.8,-0.4 1.7,1c-0.3,3.3 -0.5,6.6 -0.8,9.9c-0.1,0.8 -0.7,1.2 -1.3,1.5c-2.8,1.7 -5.6,3.2 -8.4,4.9c-1.7,1 -3.3,2.2 -4.9,3.3c-1.2,0.8 -1.5,0.4 -1.5,-0.9c0.1,-1.7 0,-3.3 0,-5c0,0.1 0,0.1 -0.1,0.1zM168.3,245.3c0.4,-0.2 0.7,-0.4 0.7,-0.8c-0.1,-2.8 -0.1,-5.7 -0.4,-8.5c-0.1,-1.1 -0.7,-0.3 -1.1,0.1c-0.5,0.1 -0.8,0.4 -0.8,0.9c0,2.7 -0.1,5.4 0,8.1c0.2,1.4 1,1 1.6,0.2zM170.2,234.5c-0.5,0.4 -0.4,0.9 -0.4,1.4c0,2.5 0,5 0,7.4c0,0.6 -0.3,1.5 0.7,1.4c0.8,0 1.2,-0.6 1.2,-1.4c0,-2.8 0,-5.6 0,-8.4c0,-0.4 0.1,-1 -0.5,-1.1c-0.5,0 -0.8,0.3 -1,0.7zM165.6,247.2c0.4,-0.2 0.7,-0.4 0.6,-0.8c-0.5,-2.7 -0.1,-5.3 -0.3,-8c0,-0.6 0,-1.4 -0.9,-1.3c-0.7,0.1 -1.4,0.4 -1.4,1.4c0.1,2.9 -0.2,5.7 0.4,8.6c0.4,1.3 1,1 1.6,0.1zM160.3,243.7c-0.4,1.6 0.4,3.5 0.4,5.5c0,0.4 -0.2,1 0.3,1.2c0.5,0.3 0.9,-0.2 1.4,-0.5c0.7,-0.5 0.7,-1.2 0.7,-1.9c0,-2.7 -0.6,-5.3 -0.4,-8c0,-0.5 0.5,-1.5 -0.6,-1.5c-0.7,0 -1.7,0.4 -1.7,1.5c-0.2,1.2 -0.1,2.2 -0.1,3.7zM172.6,238c-0.1,0 -0.1,0 0,0c0,1.1 -0.1,2.3 0,3.4c0,0.5 -0.3,1.3 0.5,1.4c0.8,0.1 1,-0.7 1.2,-1.2c0.2,-0.5 0.1,-1.1 0.1,-1.7c0,-1.9 0,-3.8 0.1,-5.7c0,-0.6 0.7,-1.3 -0.3,-1.5c-0.9,-0.1 -1.5,0.5 -1.6,1.3c-0.1,1.3 0,2.7 0,4z" fill="#474747"></path><path d="M117.6,194.6c0.1,0.3 0.3,0.5 0.4,0.8c0,0.6 0,1.3 0,1.9c-1,-1.2 -1.1,-1.9 -0.4,-2.7z" fill="#212121"></path><path d="M114.4,191.3c0,-0.2 1.2,-0.7 1.1,-0.1c-0.1,0.6 -0.7,0.2 -1.1,0.1z" fill="#111111"></path><path d="M117.3,189.7c0,0.4 0,0.8 0,1.1c-0.1,0 -0.3,0 -0.4,0c-0.6,-0.7 -0.4,-1 0.4,-1.1z" fill="#111111"></path><path d="M118.3,181.6c-0.1,0.3 -0.2,0.5 -0.2,0.8c-0.6,-0.5 -0.3,-0.7 0.2,-0.8z" fill="#111111"></path><path d="M116.9,190.8c0.1,0 0.3,0 0.4,0c0.2,0.2 0.3,0.5 0.1,0.8c-0.4,-0.1 -0.5,-0.4 -0.5,-0.8z" fill="#212121"></path><path d="M113.9,191.5c0.2,0 0.3,-0.1 0.5,-0.1c0.1,0.3 0.3,0.6 -0.1,0.7c-0.4,0.1 -0.4,-0.3 -0.4,-0.6z" fill="#212121"></path><path d="M119,201.2c0.1,0.1 0.1,0.2 0.1,0.3c-0.2,0 -0.4,0 -0.7,-0.1c0.2,-0.1 0.4,-0.2 0.6,-0.2z" fill="#131313"></path><path d="M117.4,188.5c0,0.1 0,0.3 0,0.4c-0.4,-0.2 -0.4,-0.3 0,-0.4z" fill="#212121"></path><path d="M228,170.1c-0.2,0 -0.5,-0.1 -0.5,-0.4c0,-0.3 0.3,-0.3 0.5,-0.4c0,0.3 0,0.5 0,0.8z" fill="#131313"></path><path d="M196.8,110.2c-0.2,4 -0.9,8 -2,11.9c-0.1,0.3 -0.2,0.5 -0.4,0.8c-1.1,2.7 -2.3,5.4 -3.4,8.1c-2.5,3.3 -4.5,7 -7.1,10.2c-5.2,6.3 -10.7,12.3 -16.7,17.8c-5.8,-1.8 -11.6,-1.7 -17.4,0c-1.4,0.4 -2.2,2 -3.9,1.8c0.2,-0.4 0.4,-0.9 0.6,-1.3c1.8,-1.8 3.5,-3.7 5,-5.8l0.1,-0.1c0.9,-0.3 1.4,-1 1.9,-1.7c0.1,0 0.1,0 0.2,-0.1c0.4,-0.3 0.8,-0.7 1.2,-1c0.9,-0.6 1.8,-1.3 2.7,-1.9c0.1,-0.1 0.2,-0.2 0.4,-0.3c0.4,-0.1 0.7,-0.3 0.8,-0.7c0.4,-0.1 0.6,-0.3 0.7,-0.8c0.5,0.1 0.8,-0.1 0.8,-0.6c0.1,0 0.2,0 0.4,-0.1c0.2,0 0.4,0 0.4,-0.3v0c0.7,-0.4 1.4,-0.8 1.7,-1.6c0.2,-0.1 0.3,-0.2 0.5,-0.4c0.3,0.1 0.4,-0.1 0.4,-0.3c0.4,-0.1 0.7,-0.2 0.8,-0.6c0.4,-0.3 0.7,-0.6 1.1,-1c0.3,-0.1 0.5,-0.2 0.5,-0.6v0c1.6,-0.4 2.5,-1.8 3.6,-2.7c1.1,-0.6 1.8,-1.6 2.6,-2.5c0.1,0 0.1,-0.1 0.1,-0.2c0.7,-0.6 1.7,-1 2,-2.1c0.1,0 0.2,-0.1 0.3,-0.2c0.4,-0.2 0.7,-0.5 0.9,-1c0.2,-0.3 0.5,-0.5 0.7,-0.8c0.1,-0.3 0.3,-0.5 0.4,-0.8v0c0.7,-0.5 1.4,-1 1.5,-2c0.5,-0.3 0.9,-0.8 1,-1.4c0.9,-0.7 1.2,-1.8 1.7,-2.8v0c0.4,-0.1 0.4,-0.4 0.3,-0.8c0.1,-0.1 0.1,-0.2 0.1,-0.4c0.8,0 0.7,-0.7 0.8,-1.1c0.6,-0.2 0.6,-0.7 0.7,-1.2c0.3,-0.2 0.4,-0.4 0.4,-0.8c0.3,-0.3 0.5,-0.7 0.4,-1.2c0.2,-0.2 0.7,-0.3 0.6,-0.8c0.1,-0.2 0.1,-0.5 0.2,-0.7c0.2,-0.4 0.3,-0.8 0.5,-1.1c0.1,-0.4 0.2,-0.7 0.2,-1.1c0.3,-0.2 0.4,-0.5 0.4,-0.9c0.1,-0.5 0.3,-1 0.4,-1.6c0.3,-1.4 0.9,-2.7 0.8,-4.2c0,-0.3 0.1,-0.5 0.1,-0.8c0.4,-1.3 0.6,-2.5 0.3,-3.8c0.2,-0.4 0,-0.8 -0.1,-1.2c0.5,-0.7 0.4,-1.5 0,-2.3c0,-0.3 0,-0.5 0,-0.8c0.1,-1.2 0.1,-2.3 -0.3,-3.5c-0.1,-0.3 -0.1,-0.5 -0.2,-0.8c0.1,-1.3 -0.2,-2.6 -0.7,-3.8c0,-0.8 -0.2,-1.6 -0.7,-2.3c-0.1,-0.3 -0.2,-0.5 -0.3,-0.8c0,-0.1 -0.1,-0.2 -0.1,-0.4c0,-0.2 0,-0.5 0,-0.7c1.2,-1.2 0.9,-3 1.8,-4.3c0.3,-0.4 0.2,-1.2 1.1,-1.1c3.1,3.6 5.1,7.8 6.7,12.3c1.4,3.8 2.3,7.8 2.5,11.9c0,0.4 0.1,0.8 0.1,1.1c-0.3,1.3 -0.2,1.8 -0.1,2.3z" fill="#939393"></path><path d="M85.4,82.6c0.3,-0.5 0.6,-1 0.8,-1.5c1,-1.5 2.1,-3.1 3.1,-4.6c0.2,-0.2 0.4,-0.4 0.6,-0.7c0.9,-1.1 1.9,-2.1 2.8,-3.2v0c0.5,-0.2 0.8,-0.7 1.1,-1.2c0.1,-0.1 0.2,-0.2 0.3,-0.3c1.7,-1.3 3.4,-2.6 5,-4c0.7,-0.4 1.3,-0.8 2,-1.2c0.4,-0.1 0.7,-0.3 1.1,-0.4c0.3,1 1.4,1 2.1,1.5c1.9,1.3 2.7,3 3,5.4c0.9,7.6 -7.8,17.7 -15.3,19.2c-3.5,0.7 -6.9,0 -7.8,-5c0,-0.2 -0.2,-0.4 -0.4,-0.6c0.6,-1.1 1.1,-2.2 1.6,-3.4z" fill="#afafaf"></path><path d="M149.5,187c1.7,0.2 3.3,0.1 4.3,-1.6c1.1,-1.9 1,-3.8 -0.1,-5.7c1.2,0 1.7,1 2.5,1.5c2.8,2 5.7,3.6 9.3,5c-1.1,-2.1 -2.8,-2.9 -4,-4.3c0.2,-0.6 0.6,-0.4 0.9,-0.2c6.2,4 10.8,10.9 8.5,18.7c-1,3.4 -3.5,5.7 -5.9,8.1c-0.6,-0.1 -0.9,0.1 -1,0.7c-9,6.3 -20.2,6.7 -28.3,-2.1c-1,-1.1 -1.8,-2.4 -2.7,-3.7c-1.6,-3 -2.6,-6.2 -2.9,-9.6c0.1,-4 2.8,-11 2.6,-10.4c-1.2,3.4 -1.7,7 -1.2,10.6c1.5,10.3 12.2,19.9 24.1,15.9c3.1,-1.1 5.9,-2.5 8.5,-5.1c-5.6,-0.4 -10.9,-1.2 -15.7,-3.4c-3.9,-1.7 -7.4,-4 -9.7,-7.8c-2.6,-4.3 -3.3,-9 -3.9,-13.9c0.6,-0.5 1.1,2.1 2.1,4.9c2.9,8.5 9.2,13.1 17.6,15.4c0.8,0.2 1.7,0.6 2.6,0.5c2.9,0.9 5.9,0.8 8.9,1c0.8,0.1 1.1,-0.5 1.4,-1.1c1.7,-3.6 1.7,-7.2 0.1,-10.9c-0.2,-0.5 -0.5,-1 -1.2,-1.1c-3.6,-0.8 -6.7,-2.7 -9.8,-4.6c-0.8,-1.2 -1,-0.6 -1.3,0.3c-0.9,3.1 -2.8,4.2 -5.8,3.5c0.1,-0.2 0.1,-0.4 0.1,-0.6z" fill="#111111"></path><path d="M185.1,116.5c-0.1,0.4 -0.2,0.7 -0.2,1.1c-0.6,0 -1.2,-0.1 -1.2,0.7c-0.1,0.4 -0.3,0.8 -0.4,1.2c0,0.3 0,0.5 0,0.8c-0.9,-0.1 -1.2,0.3 -1.1,1.2c0,0.5 0.3,0.8 0.8,0.8c0,0.5 -0.1,1 -0.7,1.2c-1.1,0.2 -1.3,0.4 -0.8,1.1c0,0.1 0,0.2 -0.1,0.4c-0.3,0.2 -0.4,0.5 -0.3,0.8v0c-1.8,-0.2 -1.5,1.7 -2.5,2.4c-0.1,0.1 0.4,0.3 0.7,0.4c-0.1,0.6 -0.5,1.1 -1,1.4c-1.4,0 -1.5,1 -1.5,2v0c-0.3,0 -0.6,0 -0.8,0.4c-0.3,-0.1 -0.5,-0.3 -0.8,-0.4c-1.4,0.6 -0.3,1.7 -0.4,2.5c-0.1,0.1 -0.2,0.2 -0.3,0.2c-1.2,0.1 -2.2,0.5 -2,2.1c0,0.1 0,0.2 -0.1,0.2c-1.5,-0.3 -2.3,0.5 -2.6,2.5c-1.2,1 -2,2.3 -3.6,2.7c0.2,-0.5 0.3,-0.9 0,-1.4c-0.3,0.5 -0.1,0.9 0,1.4c0,0.3 -0.2,0.5 -0.5,0.6c-0.3,-0.2 -0.6,-0.6 -0.9,-0.6c-0.5,0.1 -0.3,0.6 -0.3,0.9c-0.6,0 -1.1,0 -1.1,0.7c0,0.3 0,0.5 0,0.8c-0.2,0.1 -0.3,0.2 -0.5,0.4c-1.7,-0.5 -2,-0.2 -1.7,1.6v0c-0.1,0.1 -0.3,0.2 -0.4,0.3c-0.1,0.1 -0.2,0.1 -0.4,0.1c-0.4,0 -0.7,0.1 -0.8,0.6c0,0.4 -0.2,0.7 -0.7,0.8c-0.1,-0.3 -0.1,-0.8 -0.4,-0.7c-0.7,0.2 -0.3,0.9 -0.4,1.4c-0.1,0.1 -0.2,0.2 -0.4,0.3c-1.4,-0.1 -2.6,0.2 -2.7,1.9c-0.4,0.3 -0.8,0.7 -1.2,1c0,-0.2 0.1,-0.5 -0.2,-0.6c0,0.2 0,0.5 0,0.7c-0.5,0.7 -1,1.4 -1.9,1.7c-0.1,0 -0.1,-0.4 -0.3,-0.1c0.1,0.1 0.2,0.1 0.2,0.2c-1.5,2.1 -3.1,4 -5,5.8c-0.2,-0.4 -0.5,-0.6 -0.9,-0.6c1.1,-2.9 5.6,-7.7 5.6,-7.7c0,-0.1 6.8,-6.2 7.1,-6.3c0.6,-0.3 5.4,-5.3 7.9,-7.3c0.7,-0.5 3.4,-3.1 4.6,-4.4c2.7,-2.8 4.8,-6 7,-9.2c0.7,-0.9 3.4,-7 3.8,-8c0.4,-1.7 0.4,-1.3 0.5,-1.5c0.3,-1.1 1.2,-5.1 1.3,-5.8c0.5,-0.1 0.8,-0.3 0.2,-0.8c0.3,-4.4 -0.1,-8.7 -0.7,-13c0.2,-0.1 0.5,-0.2 0.5,-0.3c0.1,-0.4 -0.3,-0.4 -0.6,-0.4c-1.5,-5.9 -4.6,-11 -8.5,-15.6c0.2,-0.7 -0.5,-0.9 -0.7,-1.3c0,-0.4 0,-0.8 0,-1.1c0.7,-0.6 0.3,-1.5 0.4,-2.2c1,0.5 1.6,1.5 2.3,2.3c0.1,1 0.3,1.9 1.6,1.8c2.4,2.6 4.3,5.5 5.8,8.8c-0.4,0.8 -0.8,1.6 0.7,1.6c0.1,0.1 0.2,0.3 0.3,0.4c0,0.2 0,0.5 0,0.7c-0.2,0 -0.4,0 -0.4,0.3c0,0.1 0.3,0.1 0.5,0.1c0.1,0.3 0.2,0.5 0.3,0.8c-1.6,0.8 0.5,1.5 0,2.3c-0.7,1.7 -1.4,3.4 1.4,3.8c0.1,0.3 0.1,0.5 0.2,0.8c-1.2,1.2 -1.1,2.9 0.3,3.5c0,0.3 0,0.5 0,0.8c-2,0.7 0.2,1.5 0,2.3c0.2,0.4 0.3,0.8 0.1,1.2c-0.9,-0.2 -0.6,-1.4 -1.6,-1.8c0.3,1.8 0.8,3.3 0.1,5c-0.2,0.6 0.6,0.6 1.1,0.6c0,0.3 -0.1,0.5 -0.1,0.8c-0.5,0 -1.3,-0.4 -1.1,0.6c0.3,1.2 -0.2,2.2 -0.4,3.2c-0.3,0.6 -0.5,1.3 -0.8,1.9c-0.2,0.1 -0.6,0.3 -0.6,0.4c0.2,-0.1 0.9,-0.4 1.3,-0.2zM173.2,132.2c-0.1,0.1 -0.1,0.2 -0.2,0.3c0.1,0 0.2,0.1 0.3,0.1l0.1,-0.1c0,-0.1 -0.1,-0.2 -0.2,-0.3z" fill="#101010"></path><path d="M113.3,129c0.9,0 0.7,0.1 1.6,0.1c-0.6,1.8 -0.1,3 1.5,3.6c0.8,0.3 1.5,0.2 2.2,-0.1c1.1,-0.4 1.4,-1.4 1.6,-2.5c3.7,2.6 4.9,6.4 3.3,10.3c-1.5,3.8 -5.7,6.2 -9.8,5.7c-4.8,-0.6 -7.2,-3.4 -7.1,-8.1c0,-1 0.2,-2 0.4,-3c0.5,-0.9 2.3,-3.2 3.9,-4.6c1,-0.9 2.2,-1.1 2.4,-1.4z" fill="#fafafa"></path><path d="M130.9,133.8c0.9,-0.7 1.4,-0.8 2.5,-1.4c0.5,-0.3 0.8,-0.1 0.8,-0.7c0.8,0.1 1.8,-0.1 1,1.3c-0.4,0.6 0.1,1.2 0.5,1.7c0.8,1 1.9,1.4 3.1,1.1c1.3,-0.3 2,-1.2 2,-2.6c3.1,1.8 4.5,4.9 3.8,8.5c-0.7,3.9 -3.6,6.8 -7.3,7.4c-5.3,0.8 -9.2,-1.5 -9.9,-5.9c-0.3,-2 -0.1,-4.1 0.6,-6c0.5,-1.4 2.1,-2.3 2.9,-3.4z" fill="#fafafa"></path><path d="M116.1,76.6c-1.3,0.2 -3,-0.3 -3.8,-2.3c-0.8,-1.9 -0.3,-3.7 0.9,-5.3c2.5,-3.5 5.6,-6 10.3,-5.9c2,0.1 3.8,0.7 4.8,2.5c1,1.9 0.8,4 -0.7,5.7c-2.9,3.2 -6.3,5.2 -11.5,5.3z" fill="#afafaf"></path><path d="M156.5,183.7c3.1,1.9 6.2,3.9 9.8,4.6c0.7,0.1 1,0.6 1.2,1.1c1.6,3.6 1.6,7.3 -0.1,10.9c-0.3,0.6 -0.5,1.2 -1.4,1.1c-3,-0.2 -6,-0.1 -8.9,-1c0.4,-2 1,-3.9 1.2,-5.9c0.4,-3.2 -0.3,-6.3 -1.4,-9.2c-0.1,-0.5 -0.6,-0.9 -0.4,-1.6z" fill="#939393"></path><path d="M128,137.1c-0.7,2 -0.9,4 -0.6,6c0.7,4.5 4.6,6.7 9.9,5.9c3.7,-0.6 6.6,-3.5 7.3,-7.4c0.7,-3.5 -0.7,-6.6 -3.8,-8.5c0,1.4 -0.7,2.3 -2,2.6c-1.2,0.3 -2.3,-0.1 -3.1,-1.1c-0.4,-0.5 -0.8,-1.1 -0.5,-1.7c0.8,-1.4 -0.2,-1.2 -1,-1.3c4.1,-2 9.9,0.7 11.6,5.5c2.4,6.9 -3.6,14.1 -11.2,13.2c-7.1,-0.8 -10.3,-6.8 -7.2,-13.4c0.2,0.2 0.4,0.2 0.6,0.2z" fill="#131313"></path><path d="M107,135c-0.1,1 -0.3,2 -0.4,3c-0.1,4.7 2.3,7.5 7.1,8.1c4.1,0.5 8.3,-1.9 9.8,-5.7c1.5,-4 0.4,-7.7 -3.3,-10.3c-0.1,1.1 -0.5,2.1 -1.6,2.5c-0.7,0.3 -1.5,0.3 -2.2,0.1c-1.6,-0.6 -2.1,-1.8 -1.5,-3.6c-0.9,0 -1.8,0 -2.6,0c3.6,-2 7.9,-1.2 10.9,2c2.9,3.1 3.4,7.9 1.1,11.5c-2.9,4.6 -9.6,6.4 -14.4,3.8c-3.9,-2.1 -4.6,-7.3 -2.6,-12.2c0.1,0.1 -0.4,0.6 -0.3,0.8z" fill="#131313"></path><path d="M130.2,193.9c0.2,3.4 1.3,6.6 2.9,9.6c-0.4,0.1 -0.9,0.1 -1.3,0.3c-2.6,1.3 -4.2,1.1 -5.7,-0.5c-1.8,-2 -1.7,-4.1 -0.6,-6.5c0.9,-2 2.6,-2.9 4.7,-2.9z" fill="#afafaf"></path><path d="M125.4,58.9c1.1,-1 2,-1.3 3.7,-0.6c1.4,0.5 3.5,0.5 5.4,0.3c1.1,-0.1 2.4,-0.1 3.3,0.9c-4.2,-0.6 -8.3,-0.3 -12.4,-0.6z" fill="#111111"></path><path d="M85.4,82.6c-0.5,1.2 -1,2.3 -1.5,3.5c-0.4,0.8 -0.8,1.5 -1.2,2.3c-1,-0.5 -1.5,-1 -0.5,-2.1c0.8,-0.8 1.3,-2 1.8,-3.1c0.4,-0.7 0.7,-1.1 1.4,-0.6z" fill="#131313"></path><path d="M80,99.9c-1.3,-2.9 -1.3,-4.4 1.5,-7.3c-0.5,2.4 -1,4.8 -1.5,7.3z" fill="#131313"></path><path d="M104,64.5c-0.3,-0.3 -0.5,-0.6 -0.2,-1c0.8,-1.1 4.4,-2 5.9,-1.6c-1.8,1.2 -3.8,1.7 -5.7,2.6z" fill="#131313"></path><path d="M79.7,105.6c-0.9,0 -1.6,-0.2 -1.2,-1.4c0.2,-0.9 0.5,-1.7 0.1,-2.8c-0.4,-0.9 0.5,-1.2 1.4,-0.8c-0.2,1.7 -0.2,3.4 -0.3,5z" fill="#131313"></path><path d="M119.2,59.6c-0.1,-0.3 -0.3,-0.7 -0.4,-1c0.9,-0.1 1.8,-0.7 2.7,-0.4c0.5,0.1 1,1 1,-0.3c0,-0.1 0.3,-0.2 0.4,-0.2c0.6,0.3 0.3,0.9 0.4,1.3c-1.3,0.3 -2.7,0.5 -4.1,0.6z" fill="#111111"></path><path d="M80.1,115.6c0.5,-1.4 -0.8,-1.9 -1.5,-2.7c0.9,-0.4 1.3,0.7 2,0.4c0.5,1.2 0.9,2.5 1.1,3.8c-0.2,0 -0.3,0 -0.5,0c-0.3,-0.2 -0.8,-0.2 -1,-0.5c-0.3,-0.4 -0.9,0.8 -0.9,-0.2c0,-0.5 0.3,-0.8 0.8,-0.8c0,0 0.1,0.1 0.2,0.1c-0.1,0 -0.1,-0.1 -0.2,-0.1z" fill="#131313"></path><path d="M145.8,158.6c0.4,0 0.7,0.2 0.9,0.6c-0.2,0.4 -0.5,1.2 -0.7,1.7c-0.5,0.9 -1.1,1.9 -1.6,2.8c-0.1,0.2 -0.3,0.5 -0.4,0.5c-0.7,-0.3 0.9,-4.3 1.8,-5.6z" fill="#111111"></path><path d="M144.9,60.7c1.8,-0.1 4,0.6 4.6,1.4c-1.6,-0.1 -3.1,-0.6 -4.6,-1.4z" fill="#111111"></path><path d="M81.5,91.8c-0.5,-0.1 -1.2,-0.5 -0.7,-0.9c0.6,-0.6 -0.1,-2.3 1.6,-1.8c0,1 -0.2,2 -0.9,2.7z" fill="#131313"></path><path d="M128,137.1c-0.2,0 -0.4,0 -0.6,0c0.6,-1.5 1.4,-2.9 3,-3.5c-0.8,1.2 -1.9,2.2 -2.4,3.5z" fill="#212121"></path><path d="M114.2,60.6c0.2,-0.7 -0.4,-1.8 0.2,-2c0.9,-0.2 1.3,1 1.8,1.6c-0.6,0.2 -1.3,0.5 -2,0.4z" fill="#131313"></path><path d="M102.3,65.6c-0.4,0.1 -0.7,0.3 -1.1,0.4c-0.2,-0.4 -0.7,-1 -0.1,-1.3c0.8,-0.4 1.6,-1 2.5,-0.1c-0.4,0.4 -0.9,0.7 -1.3,1z" fill="#131313"></path><path d="M156.3,65c0.2,0 0.3,-0.1 0.5,-0.1c0.1,0 0.3,0 0.4,0c0.8,0.6 2.2,0.4 2.3,1.8c-1.2,-0.3 -2.2,-0.9 -3.2,-1.7z" fill="#111111"></path><path d="M91.9,136.1" fill="#131313"></path><path d="M138.5,59.4c0.7,-0.1 0.6,-1.4 1.6,-1c0.8,0.3 0,1 0.2,1.5c-0.7,0.1 -1.3,-0.1 -1.8,-0.5z" fill="#111111"></path><path d="M149.5,187c0,0.2 0,0.4 0,0.6c-1.1,0 -2,-0.6 -2.8,-1.4c0.3,-0.1 0.5,-0.1 0.8,-0.2c0.7,0.4 1.4,0.7 2,1z" fill="#101010"></path><path d="M166.3,137.6" fill="#111111"></path><path d="M112.1,61c0.4,-0.6 0.7,-1.5 1.4,-0.2c-0.4,0.4 -0.9,0.6 -1.4,0.2z" fill="#131313"></path><path d="M144.7,184.3c0.3,-0.1 0.6,-0.1 0.8,-0.2c0.3,0.4 1,0.6 0.6,1.5c-0.6,-0.2 -1,-0.7 -1.4,-1.3z" fill="#101010"></path><path d="M80.4,112.2c-0.8,-0.3 -0.8,-0.7 -0.2,-1.2c0.3,0.3 0.2,0.7 0.2,1.2z" fill="#131313"></path><path d="M143,60.3c0.6,-0.6 0.9,-0.5 1.1,0.3c-0.4,0.1 -0.8,0.2 -1.1,-0.3z" fill="#111111"></path><path d="M177.9,124" fill="#111111"></path><path d="M80.1,110.2c-0.4,-0.1 -0.7,-0.2 -0.7,-0.6c0,-0.4 0.3,-0.5 0.6,-0.5c0.2,0.4 0.2,0.7 0.1,1.1z" fill="#131313"></path><path d="M119.6,177.6" fill="#111111"></path><path d="M173.7,77.2c0.3,0.4 0.9,0.6 0.7,1.3c-0.6,-0.2 -0.9,-0.7 -1.1,-1.3c0.1,0.1 0.2,0 0.4,0z" fill="#212121"></path><path d="M169.8,73.8c0.6,-0.7 1,-0.5 1.2,0.3c-0.3,0 -0.6,0 -0.9,0c-0.1,0 -0.2,-0.2 -0.3,-0.3z" fill="#101010"></path><path d="M171.3,75.3c0.5,0 0.9,0.2 0.9,0.7c-0.3,-0.2 -0.9,-0.1 -0.9,-0.7z" fill="#111111"></path><path d="M151.2,62.7c0.5,-0.1 1,0.1 1.4,0.4c-0.5,0 -1.1,0.3 -1.4,-0.4z" fill="#111111"></path><path d="M170.1,74.2c0.3,0 0.6,0 0.9,0c0,0.3 0,0.6 0,0.9c-0.5,-0.2 -0.8,-0.5 -0.9,-0.9z" fill="#111111"></path><path d="M173.7,77.2c-0.1,0 -0.3,0 -0.4,0c-0.1,-0.1 -0.2,-0.2 -0.4,-0.4c0.1,-0.4 0.4,-0.7 0.8,-0.8c0,0.5 0,0.9 0,1.2z" fill="#111111"></path><path d="M163.4,69.2c0.5,0 1,0 1.1,0.7c-0.5,-0.1 -0.9,-0.3 -1.1,-0.7z" fill="#111111"></path><path d="M81.2,117.1c0.2,0 0.3,0 0.5,0c0.3,0.2 0.3,0.5 0.2,0.8c-0.4,0 -0.6,-0.3 -0.7,-0.8z" fill="#212121"></path><path d="M181.7,116" fill="#111111"></path><path d="M183.6,107.9c0.6,0.5 0.2,0.6 -0.2,0.8c-0.1,-0.3 -0.1,-0.6 0.2,-0.8z" fill="#111111"></path><path d="M79.7,107.9c-0.4,-0.3 -0.4,-0.5 0,-0.8c0.3,0.3 0.2,0.6 0,0.8z" fill="#131313"></path><path d="M182.9,94.1c0.3,0.1 0.6,0 0.6,0.4c0,0.1 -0.3,0.2 -0.5,0.3c-0.1,-0.2 -0.1,-0.4 -0.1,-0.7z" fill="#111111"></path><path d="M166.5,71.1c0.5,0 0.6,0.3 0.6,0.7c-0.5,0.1 -0.5,-0.4 -0.6,-0.7z" fill="#111111"></path><path d="M158.3,173.4c0.1,-0.2 0.1,-0.5 0.4,-0.4c0.2,0.1 0.2,0.4 0.3,0.5c-0.2,0 -0.4,-0.1 -0.7,-0.1z" fill="#101010"></path><path d="M149.5,174c0.1,-0.6 0.2,-1 0.8,-0.3c-0.2,0.1 -0.5,0.2 -0.8,0.3z" fill="#101010"></path><path d="M148.5,174.6c0,-0.3 -0.1,-0.7 0.2,-0.8c0.3,-0.1 0.4,0.2 0.5,0.4c-0.2,0.1 -0.5,0.2 -0.7,0.4z" fill="#101010"></path><path d="M162.5,174.4c0.5,-0.7 0.7,-0.3 0.8,0.2c-0.3,0.1 -0.6,0.1 -0.8,-0.2z" fill="#101010"></path><path d="M147.5,186.1c-0.3,0.1 -0.5,0.1 -0.8,0.2c-0.3,-0.2 -0.8,-0.5 -0.4,-0.8c0.6,-0.4 0.9,0.3 1.2,0.6z" fill="#0c0c0c"></path><path d="M153.4,63.7c0.6,-0.4 0.7,0 0.7,0.4c-0.3,0.1 -0.5,-0.2 -0.7,-0.4z" fill="#111111"></path><path d="M164.1,209.2c0,-0.6 0.4,-0.8 1,-0.7c-0.3,0.4 -0.6,0.7 -1,0.7z" fill="#212121"></path><path d="M153.2,13.6c0.3,-1.6 0.7,-3.2 1,-5c4.8,2.9 9.5,5.8 14.2,8.7c2.3,1.4 4.6,2.8 6.8,4.2c1,0.6 1.4,1.3 1.1,2.7c-0.8,4.4 -1.4,8.9 -1.6,13.5c0,0.7 0.2,1.7 -1.1,1.3c-1.9,-1.1 -3.8,-2.2 -5.8,-3.2c-0.6,-0.3 -1.3,-0.7 -1.9,-1c-0.1,-0.1 -0.3,-0.2 -0.4,-0.3c-0.3,-0.2 -0.7,-0.4 -1,-0.6c-0.3,-0.2 -0.6,-0.3 -0.9,-0.5c-1,-0.6 -2.1,-1.2 -3.1,-1.8c-0.1,-0.1 -0.3,-0.2 -0.4,-0.3v0c-0.1,-0.3 -0.4,-0.4 -0.7,-0.5v0c-0.3,-0.5 -0.7,-0.6 -1.2,-0.7c-0.4,-0.2 -0.7,-0.4 -1.1,-0.6c-0.4,-0.2 -0.8,-0.4 -1.2,-0.6v0c-0.2,-0.1 -0.3,-0.2 -0.5,-0.3v0c-0.1,-0.1 -0.2,-0.2 -0.3,-0.3c-1.1,-1.1 -2.8,-1.5 -3.3,-3.3c0,-0.2 -0.2,-0.1 0,-0.3c0,-0.3 0.1,-0.5 0.1,-0.8c0.1,-0.6 0.1,-1.3 0.2,-1.9c0,-0.5 0.1,-1 0.1,-1.5c0,-0.4 0.1,-0.8 0.1,-1.1c0,-0.3 0,-0.5 0,-0.8c0.1,-1.1 0.3,-2.3 0.4,-3.4c0.2,-0.4 0.3,-0.8 0.1,-1.2c0.3,-0.2 0.3,-0.3 0.4,-0.4z" fill="#929292"></path><path d="M164.8,5.8c3.2,-0.3 6.4,-0.6 9.6,-0.8c2.1,0 4,0.9 5.9,1.8c0.2,0.1 0.4,0.3 0.6,0.4c0.5,0.3 1.1,0.6 1.6,0.9c0.3,0.1 0.5,0.2 0.8,0.3c0.2,0.1 0.3,0.1 0.5,0.2c0.2,0.2 0.4,0.3 0.7,0.5c0.1,0.1 0.1,0.2 0.3,0.2c0.1,0.1 0.3,0.2 0.4,0.2c0.1,0.1 0.2,0.1 0.4,0.2c0.2,0.3 0.5,0.5 0.8,0.5c0.2,0.1 0.4,0.2 0.6,0.3c0.3,0.2 0.6,0.3 0.9,0.5c0,0.1 0.1,0.2 0.3,0.2c0.1,0.1 0.2,0.2 0.4,0.3c0.1,0.1 0.3,0.1 0.4,0.2c1.1,0.8 2.3,1.4 3.5,2c0.8,0.6 1.7,1.1 2.7,1.4c0.1,0.1 0.2,0.1 0.3,0.2c0.1,0.3 0.4,0.3 0.7,0.3c0.2,0.1 0.4,0.2 0.5,0.3c0.7,0.4 1.4,0.9 2.4,1.5c-2.6,0.5 -5,0.9 -7.3,1.3c-4,0.7 -8,1.4 -12.1,2.1c-1.2,0.2 -2.3,0.1 -3.3,-0.5c-6.9,-4 -13.7,-8.1 -20.3,-12.6c-0.1,-0.1 -0.2,-0.3 -0.5,-0.6c3.1,-0.5 6.2,-0.9 9.2,-1.3z" fill="#b6b6b6"></path><path d="M182.5,4.8c4.4,-4.2 13.2,-3.9 17.7,1.7c2.1,3.1 4,6.4 4.7,10.1c0.7,3.3 -0.3,6.4 -2.1,9.3c-0.2,0 -0.5,0 -0.7,0c0.2,-2.1 0.4,-4.3 0.6,-6.4c0.1,-1.7 -0.4,-3.1 -2.1,-3.8c-2.2,-1 -4.3,-2.2 -6.5,-3.2c-0.3,-0.1 -0.5,-0.3 -0.8,-0.4c-2.2,-1.4 -4.5,-2.7 -6.9,-3.8c-0.5,-0.6 -1.2,-0.9 -2,-1.2c-0.4,-1 -2.4,-0.6 -1.9,-2.3z" fill="#c3c3c3"></path><path d="M201.3,20.6c-0.7,4.2 -1.6,8.8 -2.4,13.5c-0.2,0.9 -1,1.1 -1.7,1.3c-5.6,1.9 -11.3,3 -17,4.2c-0.6,0.1 -1.2,0.3 -1.9,0.5c-1.8,0.5 -2.3,0.2 -2,-1.7c0.8,-4.7 0.9,-9.5 1.5,-14.2c0.1,-1.1 0.4,-1.6 1.6,-1.8c6.9,-1.2 13.9,-2 20.7,-3.7c1.5,-0.4 1.2,0.7 1.2,1.9zM183.6,36.2c0.7,0 0.7,-0.6 0.8,-1.1c0.9,-3.5 1,-7.1 1.5,-10.7c0.1,-0.6 0.8,-1.4 -0.4,-1.6c-0.8,-0.1 -1.6,0.1 -1.9,1.1c-1.1,3.9 -1.3,7.9 -1.9,11.8c-0.1,0.5 -0.1,1.1 0.6,1.2c0.7,0.1 1.3,0.1 1.3,-0.7zM197.4,20.9c-1.1,0.3 -1,1.3 -1.1,2.2c-0.6,3.3 -0.6,6.7 -1.7,9.9c-0.6,1.8 0.4,1.8 1.6,1.7c1.2,-0.1 1.4,-1 1.6,-1.8c0.3,-1.5 0.4,-3 0.7,-4.5c0.4,-2.3 0.9,-4.6 1.2,-6.9c0.1,-0.6 0.3,-1.4 -0.6,-1.6c-0.7,-0.3 -1.5,0 -1.7,1zM190.1,33.4c0.3,0.9 -0.3,2 1.1,2c1.1,0.1 1.5,-0.4 1.8,-1.5c1,-3.9 1.3,-8 2.1,-12c0.2,-0.8 -0.2,-1.2 -1,-1.1c-1.1,0.1 -2,0.4 -2.2,1.7c-0.9,3.7 -0.9,7.5 -1.8,10.9zM185.9,34.8c0.2,0.9 -0.3,1.7 0.4,2c0.7,0.3 1.3,-0.1 1.9,-0.5c0.4,-0.3 0.4,-0.8 0.4,-1.2c0.7,-4 1.1,-8 1.5,-12.1c0.1,-0.6 0.7,-1.4 -0.3,-1.6c-0.7,-0.1 -1.5,0.1 -2,0.9c-0.2,0.4 -0.3,0.8 -0.4,1.3c-1,3.7 -0.5,7.7 -1.5,11.2zM182.1,25.2c-0.2,-0.6 0.3,-1.6 -0.6,-1.6c-1,0.1 -2.4,0 -2.5,1.9c-0.2,3.7 -0.8,7.4 -1.1,11.1c-0.1,0.6 -1,1.5 0.2,1.7c0.8,0.1 1.8,-0.3 2,-1.4c0.7,-3.8 1.4,-7.8 2,-11.7z" fill="#474747"></path><path d="M167.9,35.6c1.9,1.1 3.8,2.2 5.8,3.2c-0.5,0.9 -0.4,0.4 -2.3,1.2c-1.9,-0.6 -3.6,-1.8 -5.2,-3c0.5,-0.4 1.1,-0.9 1.7,-1.4z" fill="#111111"></path><path d="M99.2,67.3c-1.7,1.3 -3.4,2.6 -5,4c-0.5,-0.3 -0.9,-0.7 -0.8,-1.5c1,0.7 1.8,0.2 2.2,-0.6c0.7,-1.8 2,-2.1 3.6,-1.9z" fill="#131313"></path><path d="M89.4,76.5c-1,1.5 -2.1,3.1 -3.1,4.6c-0.7,-0.5 -1.5,-0.9 -1.2,-2c0.8,0.5 1.4,0.5 1.7,-0.6c0.3,-1.2 1.2,-1.9 2.6,-2z" fill="#131313"></path><path d="M92.8,72.6c-0.9,1.1 -1.9,2.1 -2.8,3.2c-1.1,-0.9 -0.1,-1.8 0.3,-2.3c0.5,-0.6 1.2,-1.8 2.5,-0.9z" fill="#131313"></path><path d="M155.4,40.7c-0.7,0.8 -1.5,1.7 -2.2,2.5c-0.7,-0.4 -0.9,-1.3 -0.3,-1.4c1,-0.2 1,-2.5 2.5,-1.1z" fill="#111111"></path><path d="M192.5,13.6c-1.2,-0.6 -2.4,-1.1 -3.5,-2c1,0.1 2,0.2 3,0.4c1.3,0.2 0.1,1.1 0.5,1.6z" fill="#131313"></path><path d="M152.9,15.1c-0.1,1.1 -0.3,2.3 -0.4,3.4c-1.1,-1.2 -1,-2.8 0.4,-3.4z" fill="#111111"></path><path d="M168.7,69.2c0.7,0.4 1.3,0.8 1.8,1.5c-0.5,0.2 -0.9,0.3 -1.4,0.5c-0.3,-0.3 -0.5,-0.5 -0.8,-0.8c0,-0.4 0,-0.8 0,-1.1c0.1,-0.1 0.3,-0.1 0.4,-0.1z" fill="#101010"></path><path d="M165.8,67.1c0.5,0.3 1,0.7 1.5,1c-0.3,1.3 -1,0.7 -1.7,0.3c0,-0.1 0,-0.3 0,-0.4c0.1,-0.3 0.1,-0.6 0.2,-0.9z" fill="#111111"></path><path d="M151.5,47.3c-0.1,0.8 -0.3,1.5 -0.4,2.3c-0.9,-0.7 -0.8,-1.3 0.4,-2.3z" fill="#111111"></path><path d="M152.3,22c-0.1,0.6 -0.1,1.3 -0.2,1.9c-1,0.1 -1.2,-1.4 -1,-2.1c0.2,-0.5 0.8,0.2 1.2,0.2z" fill="#111111"></path><path d="M184.4,7c0.7,0.2 1.4,0.6 2,1.2c-0.9,0.3 -1.9,0.2 -2,-1.2z" fill="#131313"></path><path d="M159.5,63.5c0.5,-0.1 0.8,0.2 1.1,0.4c0,0.4 0.1,1 -0.6,0.9c-0.8,-0.1 -0.4,-0.8 -0.5,-1.3z" fill="#111111"></path><path d="M169.1,71.1c0.5,-0.2 0.9,-0.3 1.4,-0.5c0.1,0 0.1,0 0.2,0.1c-0.1,2.4 -1.1,0.4 -1.6,0.4z" fill="#111111"></path><path d="M162.5,65.1c0.7,0.1 1.2,0.5 1.6,1c-1,0.6 -1.6,0.2 -1.6,-1z" fill="#111111"></path><path d="M202.1,25.8c0.2,0 0.5,0 0.7,0c0.3,0.7 -0.2,1.5 -0.8,1.4c-0.6,-0.2 -0.7,-1.3 0.1,-1.4z" fill="#131313"></path><path d="M174.8,39.8c0,0.3 -0.1,0.5 -0.4,0.5c-0.3,0 -0.6,0 -0.5,-0.4c0,-0.2 0.2,-0.4 0.4,-0.5c0.2,-0.1 0.4,0.1 0.5,0.4z" fill="#111111"></path><path d="M156.1,28.9c0.4,0.2 0.8,0.4 1.2,0.6c-0.8,0.6 -0.9,0.6 -1.2,-0.6z" fill="#111111"></path><path d="M164.9,66.5c0.4,0.1 0.7,0.3 0.8,0.7c-0.4,0.5 -1,0.4 -1.6,0.4c0,-0.1 0,-0.3 0,-0.4c0.3,-0.2 0.5,-0.4 0.8,-0.7z" fill="#101010"></path><path d="M134.3,57.5c0.6,-0.3 1,-0.3 1.6,-0.1c-0.6,0.3 -0.9,0.6 -1.6,0.1z" fill="#111111"></path><path d="M150.9,53.8c0.2,0.4 0.3,0.8 0.2,1.2c-0.8,0 -0.8,-0.6 -0.8,-1.1v0c0.2,-0.1 0.4,-0.1 0.6,-0.1z" fill="#111111"></path><path d="M193.3,11.9c0.3,0.1 0.5,0.3 0.8,0.4c-0.1,0.3 0,0.8 -0.5,0.6c-0.5,-0.1 -0.3,-0.6 -0.3,-1z" fill="#131313"></path><path d="M152.5,19.3c0,0.4 -0.1,0.8 -0.1,1.1c-0.3,0 -1.3,-0.1 -1.3,-0.5c0,-0.3 1.1,-0.4 1.4,-0.6z" fill="#111111"></path><path d="M168.3,69.2c0,0.4 0,0.8 0,1.1c-0.3,0 -0.6,-0.1 -0.7,-0.5c-0.1,-0.5 0.3,-0.6 0.7,-0.6z" fill="#111111"></path><path d="M153,60.3c0.5,0 0.8,0.1 1.1,0.5c-0.7,0.6 -1,0.3 -1.1,-0.5z" fill="#111111"></path><path d="M93.9,71.5c-0.3,0.4 -0.6,0.9 -1.1,1.2c-0.1,-0.9 0.2,-1.3 1.1,-1.2z" fill="#131313"></path><path d="M156.5,39.7c-0.3,0.3 -0.7,0.6 -1,0.9c-0.3,-1 0.4,-0.9 1,-0.9z" fill="#111111"></path><path d="M149.2,60.3c-0.1,-0.2 -0.3,-0.4 -0.3,-0.5c0,-0.1 0.1,-0.2 0.1,-0.3c0.1,0.1 0.3,0.2 0.4,0.4c0,0 -0.1,0.1 -0.2,0.4z" fill="#111111"></path><path d="M151.5,57.3c0.3,0.2 0.3,0.5 0.3,0.8c-0.6,-0.1 -0.9,-0.3 -0.3,-0.8z" fill="#111111"></path><path d="M183.3,8.5c-0.3,-0.1 -0.5,-0.2 -0.8,-0.3c0.7,-0.8 0.7,-0.2 0.8,0.3z" fill="#131313"></path><path d="M158.3,30.1c0.5,0.1 0.9,0.3 1.2,0.7c-0.5,0 -1.1,0.1 -1.2,-0.7z" fill="#111111"></path><path d="M110.2,60.9c-0.1,-0.1 -0.2,-0.2 -0.3,-0.2c0.1,-0.1 0.1,-0.1 0.2,-0.2l0.1,0.1c0,0.1 0,0.2 0,0.3z" fill="#131313"></path><path d="M188.5,11.5c-0.1,-0.1 -0.2,-0.2 -0.4,-0.3c0.1,-0.2 0.3,-0.4 0.4,-0.6c0.5,0.4 0,0.6 0,0.9z" fill="#131313"></path><path d="M150.3,53.8c-0.2,-0.1 -0.6,0.1 -0.5,-0.4c0,-0.1 0.1,-0.1 0.1,-0.1c0.5,0 0.3,0.3 0.4,0.5z" fill="#111111"></path><path d="M163.8,33.3c0.3,0.2 0.6,0.3 0.9,0.5c-0.6,0.3 -1.1,0.4 -0.9,-0.5z" fill="#111111"></path><path d="M137.2,58.4l-0.1,-0.1c0.1,0 0.1,-0.1 0.2,-0.1l0.1,0.1c-0.1,0 -0.1,0 -0.2,0.1z" fill="#111111"></path><path d="M143.1,59.1c0,0 0.1,0 0.1,0.1c0,0.1 0,0.1 0,0.2c0,0 -0.1,0 -0.1,-0.1c0,-0.1 0,-0.1 0,-0.2z" fill="#111111"></path><path d="M164.1,67.3c0,0.1 0,0.3 0,0.4c-0.2,-0.1 -0.4,-0.2 -0.3,-0.5c0,0 0.2,0 0.3,0.1z" fill="#111111"></path><path d="M165.6,68c0,0.1 0,0.3 0,0.4c-0.1,0 -0.2,0.1 -0.3,0.1c-0.1,-0.2 0.1,-0.4 0.3,-0.5z" fill="#101010"></path><path d="M187.9,11.1c-0.3,-0.2 -0.6,-0.3 -0.9,-0.5c0.4,-0.1 0.7,0 0.9,0.5z" fill="#131313"></path><path d="M186.3,10.3c-0.4,0 -0.7,-0.2 -0.8,-0.5c0.4,-0.1 0.7,0 0.8,0.5z" fill="#131313"></path><path d="M165.6,34.4c0.1,0.1 0.3,0.2 0.4,0.3c-0.1,0.1 -0.2,0.1 -0.2,0.2c-0.1,-0.2 -0.1,-0.4 -0.2,-0.5z" fill="#111111"></path><path d="M157.2,65c-0.1,0 -0.3,0 -0.4,0c0.1,-0.2 0.1,-0.3 0.2,-0.5c0.1,0.1 0.1,0.3 0.2,0.5z" fill="#101010"></path><path d="M160.2,31.2c0.1,0.1 0.3,0.2 0.4,0.3c-0.1,0.1 -0.2,0.1 -0.3,0.2c0.1,-0.1 0,-0.3 -0.1,-0.5z" fill="#111111"></path><path d="M159.5,30.8c0.3,0.1 0.6,0.1 0.7,0.5c-0.3,-0.1 -0.6,-0.2 -0.7,-0.5z" fill="#111111"></path><path d="M150.1,58.6c0,0.1 0,0.3 0,0.4c-0.1,0 -0.2,-0.1 -0.4,-0.1c0.2,-0.1 0.3,-0.2 0.4,-0.3z" fill="#fdfdfd"></path><path d="M155.6,28.6c0.2,0.1 0.3,0.2 0.5,0.3c-0.2,-0.1 -0.3,-0.2 -0.5,-0.3z" fill="#111111"></path><path d="M155.3,28.3c0.1,0.1 0.2,0.2 0.3,0.3c-0.1,-0.1 -0.2,-0.2 -0.3,-0.3z" fill="#111111"></path><path d="M196.7,15.9c-0.2,-0.1 -0.4,-0.2 -0.5,-0.3c0.1,0 0.3,0.1 0.5,0.3z" fill="#131313"></path><path d="M195.5,15.2c-0.1,-0.1 -0.2,-0.1 -0.3,-0.2c0.2,-0.2 0.3,0 0.3,0.2z" fill="#131313"></path><path d="M153.2,13.6c0,0.1 -0.1,0.2 -0.1,0.4c-0.1,-0.1 -0.2,-0.2 -0.2,-0.2c0.1,-0.2 0.2,-0.2 0.3,-0.2z" fill="#111111"></path><path d="M111.3,60.9c-0.1,-0.1 -0.2,-0.1 -0.3,-0.2c0.3,-0.2 0.2,0.1 0.3,0.2z" fill="#131313"></path><path d="M185.2,9.6c-0.1,-0.1 -0.3,-0.2 -0.4,-0.2c0.1,0 0.2,0.1 0.4,0.2z" fill="#131313"></path><path d="M184.4,9.2c-0.2,-0.2 -0.4,-0.3 -0.7,-0.5c0.6,-0.2 0.6,0.1 0.7,0.5z" fill="#131313"></path><path d="M180.9,7.2c-0.2,-0.1 -0.4,-0.3 -0.6,-0.4c0.8,-0.3 0.5,0.1 0.6,0.4z" fill="#131313"></path><path d="M177.9,78c-1.3,0.1 -1.5,-0.8 -1.6,-1.8c0.7,0.5 1.2,1.1 1.6,1.8z" fill="#212121"></path><path d="M184.4,88.4c-1.5,0 -1.1,-0.8 -0.7,-1.6c0.4,0.4 0.6,1 0.7,1.6z" fill="#212121"></path><path d="M188.2,203.2c-0.2,0.1 -0.5,0.1 -0.7,0.2c-0.1,0 -0.3,0 -0.4,0c-2.5,0.2 -2.5,0.2 -2.5,-2.2c0,-0.3 0.1,-0.5 0.1,-0.8c0,-0.2 0,-0.4 0,-0.7c0.2,-0.8 0.1,-1.6 0,-2.4c0,-0.3 0,-0.5 -0.1,-0.8c0,-0.3 0,-0.6 0,-0.8c0,-0.4 0,-0.8 -0.3,-1.1c0.4,-0.7 -1,-2.1 0.8,-2.2c0.6,0 1.3,-0.1 1.9,-0.1c0.4,0.3 0.8,0.3 1.1,0c0.9,0 1.8,-0.1 2.7,-0.1c8,-0.6 14.9,-3.4 19.7,-10.1c6.8,-9.4 5,-22.5 -3.7,-28.9c-2.2,-1.6 -4.6,-2.7 -7.3,-3.1c-2.1,-0.3 -4,0 -5.9,1.1c-2.3,1.4 -5,1.4 -7.5,2c-0.9,0.2 -2.2,1.1 -2.8,0.4c-0.6,-0.8 0.4,-2 0.8,-3c0.1,-0.2 0.2,-0.5 0.3,-0.7c1.7,-2 3.5,-3.9 5.8,-5.2c1.3,-0.6 2.6,-1.2 3.9,-1.8c5.6,-1.3 11.1,-1.2 16.4,1.3c7.5,3.6 11.7,9.7 13.5,17.6c1.3,5.9 1,11.7 -0.1,17.6c-0.2,0.5 -0.4,1 -0.6,1.5c-1,2.8 -2.4,5.4 -4.1,7.8c-0.5,0.5 -0.9,1 -1.4,1.5c-1.3,1.1 -2.7,2.2 -4,3.4c-0.4,0.2 -0.7,0.4 -1.1,0.7c-7.6,4.5 -15.8,7.2 -24.5,8.9z" fill="#c3c3c3"></path><path d="M198.4,171.4c0,-2.1 0,-4.2 0,-6.3c0,-0.9 0.3,-1.2 1.1,-1.5c3.4,-1.1 6.8,-2.3 10.1,-3.5c0.8,-0.3 1.1,-0.1 1.4,0.6c1.7,4.1 2.1,8.2 0.8,12.5c-0.2,0.5 -0.4,1 -1,1.2c-3.6,1.3 -7.3,2.7 -10.9,4.2c-1.3,0.6 -1.7,0.3 -1.6,-1.1c0.1,-2 0,-4 0.1,-6.1c-0.1,0 -0.1,0 0,0z" fill="#929292"></path><path d="M179.6,156.1c6.5,-1.6 12.8,-3.1 19.2,-4.7c0.9,-0.2 1.8,-0.2 2.6,0.2c3.1,1.3 5.8,3.3 7.8,5.9c0.6,0.8 0.8,1.2 -0.5,1.6c-3.2,1 -6.4,2.1 -9.5,3.3c-1.5,0.6 -2.8,0.6 -4,-0.1c-3.8,-1.9 -7.9,-3.1 -12,-4.4c-1.3,-0.3 -2.5,-0.9 -3.6,-1.8z" fill="#b6b6b6"></path><path d="M179.1,157.6c5.5,2.6 11,4.4 16.5,6c1.4,0.4 1.9,1.1 1.8,2.6c-0.3,4.2 -0.2,8.4 0.1,12.8c-5.6,-2.5 -11.2,-4.4 -16.3,-7.3c-1,-0.6 -1.4,-1.3 -1.4,-2.5c0,-3.8 -1,-7.6 -0.7,-11.6zM185.2,172v0c0.2,0.4 0.5,0.8 1,0.6c0.4,-0.2 0.5,-0.6 0.3,-1c-0.3,-0.8 -0.2,-1.6 -0.2,-2.4c0.2,-2.1 -0.4,-4.2 -0.4,-6.2c0,-1.1 -0.7,-1.7 -1.7,-1.7c-1.2,0 -0.6,1.1 -0.6,1.6c0.1,2.6 0.5,5.2 0.4,7.8c0,0.7 0.3,1.2 1.2,1.3zM188.2,173.5v0c0.4,0.4 0.8,0.8 1.5,0.5c0.4,-0.2 0.4,-0.6 0.4,-1c-0.2,-2.7 -0.5,-5.4 -0.7,-8.2c-0.1,-1.4 -0.7,-2.3 -1.9,-2.5c0,3.4 0,6.7 0,10.1c0,0.6 0.3,0.9 0.7,1.1zM191.7,163.9v0c-1.3,-0.3 -1.8,0.1 -1.5,1.3c0.4,1.5 0.3,2.9 0.3,4.4c0,1.3 0,2.6 0,3.8c0,1.3 1.1,1.8 2.1,1.8c1,0 0.5,-1.1 0.5,-1.7c0,-2.5 -0.5,-5.1 -0.4,-7.6c0.1,-0.7 0.1,-1.7 -1,-2zM183.3,168.1c0.2,-2.3 -0.7,-4.6 -0.8,-7c0,-0.9 -0.9,-1.3 -1.7,-1.2c-0.8,0 -0.5,0.9 -0.6,1.4c-0.2,2.7 0.6,5.3 0.4,8c-0.1,1.2 1.1,1.8 1.9,1.8c1.1,0.1 0.7,-1.1 0.8,-1.8c0,-0.4 0,-0.7 0,-1.2zM194,170v0c0,1.7 0,3.3 0,5c0,1.1 0.8,1.4 1.6,1.6c0.6,0.1 0.7,-0.5 0.6,-0.9c-0.4,-3.3 -0.8,-6.5 -0.4,-9.8c0.1,-0.8 -0.6,-1.2 -1.2,-1.2c-1,-0.1 -0.6,0.8 -0.6,1.2c0,1.3 0,2.7 0,4.1z" fill="#474747"></path><path d="M51,126.9c0,-4.6 0,-9 0,-13.4c0,-1 0.5,-1.6 1.3,-1.9c6.4,-2.2 12.5,-5.4 18.9,-7.8c0,0 0.1,0 0.3,0.1c0,3.7 0,7.4 0,11.2c0,1 -0.7,1.3 -1.3,1.7c-4.4,2.7 -9,5.1 -13.6,7.4c-1.7,0.8 -3.5,1.7 -5.6,2.7z" fill="#929292"></path><path d="M37.9,102.9c4.9,-1.6 9.8,-3.2 14.7,-4.8c1.2,-0.4 2.4,-0.7 3.7,-0.7c3.8,0 7,2.2 10.5,3.4c1.3,0.4 2.8,0.6 3.9,1.6c-0.3,0.8 -1.1,0.8 -1.7,1.1c-5.6,2.4 -11.3,4.7 -16.9,7c-0.8,0.3 -1.4,0.5 -2.3,0c-4.4,-2.4 -8.8,-4.7 -13.2,-7.1c0.4,-0.1 0.9,-0.3 1.3,-0.5z" fill="#b6b6b6"></path><path d="M35.5,104.7c4.7,2.9 9.3,4.9 13.8,7.1c0.9,0.4 0.9,1.2 0.8,2c-0.4,4.3 -0.3,8.6 -0.3,13.3c-4,-2.9 -8.2,-4.9 -12.1,-7.3c-0.6,-0.4 -1,-0.8 -1,-1.5c-0.3,-4.4 -0.8,-8.8 -1.2,-13.6zM45.2,122.5c0.2,0.4 0.5,0.8 1,0.6c0.5,-0.3 0.6,-0.8 0.5,-1.3c-0.3,-3 -0.5,-6 -0.4,-9.1c0,-0.5 -0.2,-0.8 -0.8,-0.9c-1.9,-0.8 -1.2,0.9 -1.1,1.3c0.5,2.4 0.2,4.8 0.3,7.2c0.2,0.8 -0.1,1.6 0.5,2.2zM47.9,124.1v0c0.4,0.7 1.1,1.1 1.1,-0.1c0.1,-3.4 0,-6.9 0,-10.3c0,-0.6 -0.3,-1 -0.9,-1c-0.7,0.1 -0.6,0.7 -0.6,1.2c0,2.5 0,5 0,7.5c0.1,0.8 -0.3,1.8 0.4,2.7zM40.6,110.2v0c-0.1,-0.8 -0.6,-1 -1.3,-0.9c0.2,2.2 0.4,4.4 0.5,6.6c0.1,2 -0.5,4.3 2.3,5.1c0.1,0 0.2,0.3 0.3,0.4c0.3,0.3 0.6,0.7 1.1,0.6c0.7,-0.2 0.5,-0.8 0.5,-1.3c0.2,-2.9 -0.6,-5.8 -0.4,-8.7c0.1,-0.7 -0.3,-1.2 -1,-1.2c-0.8,0 -0.5,0.7 -0.5,1.2c0,2.5 0,4.9 0,7.4c-0.4,-1.8 -0.7,-3.5 -0.8,-5.3c0,-1.3 0,-2.7 -0.7,-3.9zM36.7,109.5c0.4,2.9 0.8,5.7 1.2,8.6c0.1,0.6 0.2,1.2 0.9,1.2c0.9,0 0.7,-0.8 0.6,-1.3c-0.3,-2.8 -0.4,-5.7 -1.1,-8.4c-0.2,-0.8 0,-2.2 -1.1,-2.1c-1,0 -0.1,1.3 -0.5,2z" fill="#474747"></path><path d="M40.7,126.8c-2.1,-0.5 -4.2,-1.1 -6.2,-2c-2.9,-1.2 -4.3,-3.4 -4.7,-6.4c-0.6,-4.2 -0.4,-8.2 2.5,-11.5c1.1,-0.8 1.7,-0.9 1.8,0.8c0.1,2.5 0.4,5.1 0.4,7.6c0,3.2 0.9,5.7 3.9,7.2c0.1,1.1 0.8,1.8 1.5,2.5c0.4,0.5 0.8,1 0.8,1.8z" fill="#c3c3c3"></path><path d="M224.8,153.6c0.6,0.6 1.1,-0.3 1.8,-0.1c0,1.6 0.2,3.3 -0.1,4.9c-0.1,1.1 -0.4,-0.2 -0.7,-0.1c-0.2,-1 -0.5,-1.9 -1.1,-2.7v0c0,-0.3 -0.1,-0.6 -0.4,-0.8c-0.2,-0.6 0.7,-0.7 0.5,-1.2c0,-0.1 0,0 0,0z" fill="#929292"></path><path d="M224.8,153.6c0,0 0,-0.1 0,0c-0.2,-0.7 -0.9,-0.2 -1.3,-0.4c-0.1,-0.2 -0.2,-0.3 -0.3,-0.5c-0.2,-0.5 -0.3,-0.9 -0.5,-1.4v0c0.4,0.2 0.8,0.4 1.2,0.4c1.3,0.2 1.5,0.9 0.9,1.9z" fill="#b6b6b6"></path><path d="M224.7,155.4c0.6,0.8 0.9,1.8 1.1,2.7c-2.1,-0.1 -0.8,-1.7 -1.1,-2.7z" fill="#131313"></path><path d="M217.8,190.2c0.5,-0.5 0.9,-1 1.4,-1.5c0.1,1 0.2,2 -1.4,1.5z" fill="#131313"></path><path d="M223.4,180.8c0.2,-0.5 0.4,-1 0.6,-1.5c0.4,0.8 0.5,1.4 -0.6,1.5z" fill="#131313"></path><path d="M226.9,162.1c-0.2,0.1 -0.3,0.3 -0.5,0.3c-0.3,0 -0.5,-0.1 -0.4,-0.4c0,-0.1 0.3,-0.2 0.4,-0.2c0.2,-0.1 0.3,0.1 0.5,0.3z" fill="#131313"></path><path d="M212.7,194.2c0.4,-0.2 0.7,-0.4 1.1,-0.7c0.2,1.3 -0.4,1 -1.1,0.7z" fill="#101010"></path><path d="M223.2,152.7c0.1,0.2 0.2,0.3 0.3,0.5c-0.1,0.3 -0.1,0.8 -0.4,0.6c-0.5,-0.3 0.1,-0.7 0.1,-1.1z" fill="#131313"></path><path d="M224.3,154.7c0.3,0.2 0.4,0.4 0.4,0.8c-0.7,0.1 -0.6,-0.4 -0.4,-0.8z" fill="#131313"></path><path d="M226.5,165c0,0 0,-0.1 0.1,-0.1c0.1,0 0.1,0 0.2,0v0.1c-0.2,0 -0.3,0 -0.3,0z" fill="#131313"></path><path d="M222.7,151.3v-0.1l0.1,0.1z" fill="#b6b6b6"></path><path d="M78,102.8c0,0.1 -0.1,0.3 -0.1,0.3c-0.1,0 -0.2,-0.1 -0.3,-0.1c0,-0.1 0.1,-0.3 0.1,-0.3c0.1,0 0.2,0.1 0.3,0.1z" fill="#131313"></path><path d="M185.2,192.4c-1.8,0.2 -0.4,1.6 -0.8,2.2c-0.5,-0.1 -1.2,0.2 -1.3,-0.4c0,-0.6 0.3,-1.4 0.7,-1.9c0.3,-0.6 1,-0.5 1.4,0.1z" fill="#101010"></path><path d="M184.7,197.3c0.2,0.8 0.3,1.6 0,2.4c-0.7,-0.8 -1.8,-1.6 0,-2.4z" fill="#101010"></path><path d="M188.2,192.3c-0.4,0.3 -0.8,0.3 -1.1,0c0.4,-0.5 0.8,-0.5 1.1,0z" fill="#101010"></path><path d="M184.6,195.7c0,0.3 0,0.6 0,0.8c-0.7,-0.2 -0.6,-0.5 0,-0.8z" fill="#101010"></path><path d="M184.7,200.3c0,0.3 -0.1,0.5 -0.1,0.8c-0.2,-0.1 -0.5,-0.2 -0.5,-0.4c0.1,-0.1 0.5,-0.2 0.6,-0.4z" fill="#101010"></path><path d="M196.8,110.2c-0.2,-0.5 -0.2,-1 0,-1.6c0.5,0.1 0.9,0.4 0.9,1c0.1,0.7 -0.5,0.6 -0.9,0.6z" fill="#131313"></path><path d="M194.4,122.9c0.1,-0.3 0.2,-0.5 0.4,-0.8c0.5,0.6 0.1,0.7 -0.4,0.8z" fill="#131313"></path><path d="M197.8,118.7l0.1,-0.2l0.1,0.1z" fill="#0c0c0c"></path><path d="M160.3,243.7c0,-1.5 0,-2.6 0,-3.6c0,-1.1 1,-1.4 1.7,-1.5c1,-0.1 0.6,1 0.6,1.5c-0.2,2.7 0.4,5.3 0.4,8c0,0.7 0,1.4 -0.7,1.9c-0.4,0.3 -0.8,0.7 -1.4,0.5c-0.5,-0.2 -0.3,-0.8 -0.3,-1.2c0,-2.1 -0.7,-4 -0.3,-5.6zM161.8,249.2c0.7,-3.2 0,-6.3 -0.5,-9.5c-0.1,3.3 -0.7,6.4 0.5,9.5z" fill="#363636"></path><path d="M172.6,238c0,-1.3 -0.1,-2.7 0,-4c0.1,-0.8 0.7,-1.5 1.6,-1.3c1.1,0.2 0.4,1 0.3,1.5c0,1.9 0,3.8 -0.1,5.7c0,0.6 0,1.2 -0.1,1.7c-0.2,0.6 -0.4,1.4 -1.2,1.2c-0.8,-0.1 -0.5,-0.9 -0.5,-1.4c-0.1,-1.1 -0.1,-2.2 0,-3.4c-0.1,0 -0.1,0 0,0zM173.5,233.6c0,2.7 0,5.4 0,8.2c0.3,-2.8 0,-5.5 0,-8.2z" fill="#363636"></path><path d="M165.6,247.2c-0.6,0.9 -1.2,1.2 -1.5,-0.2c-0.6,-2.8 -0.3,-5.7 -0.4,-8.6c0,-1.1 0.7,-1.4 1.4,-1.4c0.9,-0.1 0.9,0.7 0.9,1.3c0.1,2.7 -0.3,5.3 0.3,8c0,0.5 -0.3,0.7 -0.7,0.9c-0.1,-2.7 -0.2,-5.3 -0.4,-8c0,-0.4 0.3,-1.2 -0.4,-1.2c-0.8,-0.1 -0.9,0.7 -0.7,1.3c0.5,2.3 0.3,4.6 0.3,6.8c0.1,0.8 0.4,1.1 1.2,1.1z" fill="#363636"></path><path d="M170.2,234.5c0.2,-0.4 0.5,-0.8 1,-0.7c0.6,0.1 0.5,0.7 0.5,1.1c0,2.8 0,5.6 0,8.4c0,0.9 -0.4,1.4 -1.2,1.4c-1,0.1 -0.7,-0.8 -0.7,-1.4c0,-2.5 0,-5 0,-7.4c0,-0.5 -0.1,-1 0.4,-1.4c0,2.7 0,5.5 0,8.2c0,0.4 -0.3,1.2 0.5,1.1c0.6,0 0.7,-0.8 0.6,-1.2c-0.6,-2.3 -0.3,-4.6 -0.3,-6.8c0,-0.6 0,-1.2 -0.8,-1.3z" fill="#363636"></path><path d="M167.5,236.1c0.3,-0.4 1,-1.2 1.1,-0.1c0.3,2.8 0.3,5.7 0.4,8.5c0,0.4 -0.3,0.7 -0.7,0.8v0c0,-2.5 0,-5 0,-7.6c0,-0.6 0.3,-1.5 -0.8,-1.6z" fill="#363636"></path><path d="M168.3,245.3c-0.6,0.9 -1.4,1.2 -1.5,-0.2c-0.2,-2.7 0,-5.4 0,-8.1c0,-0.5 0.2,-0.8 0.8,-0.9v0c-0.8,2.8 -0.2,5.6 -0.3,8.5c-0.1,0.7 0.5,0.6 1,0.7z" fill="#363636"></path><path d="M186.8,109.1c-0.5,-0.1 -1.3,0 -1.1,-0.6c0.6,-1.6 0.1,-3.2 -0.1,-5c1,0.4 0.7,1.6 1.6,1.8c0.1,1.3 0,2.6 -0.4,3.8z" fill="#111111"></path><path d="M186.5,96.8c-2.8,-0.5 -2.1,-2.2 -1.4,-3.8c0.2,0 0.4,0 0.7,0c0.5,1.2 0.8,2.5 0.7,3.8z" fill="#111111"></path><path d="M185.2,113.7c0.2,-1.1 0.7,-2.1 0.4,-3.2c-0.2,-1 0.6,-0.6 1.1,-0.6c0.1,1.5 -0.5,2.8 -0.8,4.2c-0.2,-0.2 -0.5,-0.3 -0.7,-0.4z" fill="#111111"></path><path d="M187,101c-1.4,-0.6 -1.6,-2.3 -0.3,-3.5c0.4,1.2 0.4,2.4 0.3,3.5z" fill="#111111"></path><path d="M169.8,139.2c0.3,-2 1.2,-2.8 2.6,-2.5c-0.8,0.9 -1.5,1.9 -2.6,2.5z" fill="#111111"></path><path d="M179.2,128.3c-0.3,-0.1 -0.8,-0.3 -0.7,-0.4c0.9,-0.7 0.7,-2.6 2.5,-2.4c-0.6,1 -0.9,2.1 -1.8,2.8z" fill="#111111"></path><path d="M161.1,146.3c-0.2,-1.8 0,-2.1 1.7,-1.6c-0.3,0.9 -1.1,1.2 -1.7,1.6z" fill="#111111"></path><path d="M154.9,150.9c0.1,-1.8 1.3,-2 2.7,-1.9c-0.9,0.6 -1.8,1.3 -2.7,1.9z" fill="#111111"></path><path d="M187,104.1c0.3,-0.7 -2,-1.5 0,-2.3c0.4,0.8 0.5,1.5 0,2.3z" fill="#111111"></path><path d="M172.6,136.5c-0.2,-1.5 0.7,-1.9 2,-2.1c-0.4,1.1 -1.3,1.5 -2,2.1z" fill="#111111"></path><path d="M185.8,93c-0.2,0 -0.4,0 -0.7,0c0.5,-0.8 -1.6,-1.5 0,-2.3c0.5,0.7 0.7,1.5 0.7,2.3z" fill="#212121"></path><path d="M174.8,134.3c0.1,-0.8 -1,-1.9 0.4,-2.5c0,0.6 -0.2,1.2 0.5,1.6c-0.2,0.4 -0.5,0.6 -0.9,0.9z" fill="#111111"></path><path d="M182.1,121.4c-0.1,-0.8 0.3,-1.3 1.1,-1.2h0.2h0.2c0.1,0.5 0,0.8 -0.4,1.2c-0.3,0 -0.7,0 -1.1,0z" fill="#111111"></path><path d="M176.8,131.8c0,-1 0.1,-2 1.5,-2c-0.2,0.9 -0.8,1.5 -1.5,2z" fill="#111111"></path><path d="M185.2,113.7c0.2,0.1 0.5,0.2 0.7,0.4c-0.1,0.5 -0.3,1 -0.4,1.6c-0.4,0 -0.7,0 -1.1,0c0.3,-0.7 0.5,-1.4 0.8,-2z" fill="#212121"></path><path d="M184.4,115.6c0.4,0 0.7,0 1.1,0c0,0.4 -0.1,0.7 -0.4,0.9c-0.4,-0.2 -1.1,0.1 -1.2,-0.5c-0.1,-0.1 0.3,-0.3 0.5,-0.4z" fill="#111111"></path><path d="M164.5,142.9c0.1,-0.3 -0.1,-0.9 0.3,-0.9c0.3,0 0.6,0.4 0.9,0.6c-0.4,0.3 -0.7,0.6 -1.1,1c-0.1,-0.3 -0.1,-0.5 -0.1,-0.7z" fill="#111111"></path><path d="M183.6,118.3c0.1,-0.8 0.6,-0.8 1.2,-0.7c-0.2,0.4 -0.3,0.8 -0.5,1.1c-0.2,-0.2 -0.4,-0.3 -0.7,-0.4z" fill="#212121"></path><path d="M164.5,142.9c0,0.2 0.1,0.4 0.1,0.6c-0.1,0.4 -0.4,0.5 -0.8,0.6c-0.1,-0.2 -0.3,-0.3 -0.4,-0.5c0,-0.8 0.5,-0.8 1.1,-0.7z" fill="#212121"></path><path d="M175.7,133.3c-0.6,-0.4 -0.4,-1 -0.5,-1.6c0.3,0.1 0.5,0.3 0.8,0.4c0.1,0.1 0.3,0.3 0.4,0.4c-0.3,0.3 -0.5,0.5 -0.7,0.8z" fill="#212121"></path><path d="M158,148.7c0.1,-0.5 -0.3,-1.2 0.4,-1.4c0.3,-0.1 0.3,0.4 0.4,0.7c-0.1,0.4 -0.5,0.6 -0.8,0.7z" fill="#111111"></path><path d="M181.4,124.5c-0.5,-0.8 -0.4,-1 0.8,-1.1c-0.1,0.4 0,1 -0.8,1.1z" fill="#212121"></path><path d="M183.6,118.3c0.2,0.1 0.5,0.3 0.7,0.4c-0.1,0.2 -0.1,0.5 -0.2,0.7c-0.3,0 -0.6,0 -0.9,0c0.2,-0.3 0.3,-0.7 0.4,-1.1z" fill="#111111"></path><path d="M182.1,121.4c0.4,0 0.8,0 1.1,0c0,0.3 -0.1,0.6 -0.4,0.8c-0.4,-0.1 -0.7,-0.3 -0.7,-0.8z" fill="#212121"></path><path d="M183.3,119.4c0.3,0 0.6,0 0.9,0c0.1,0.5 -0.3,0.6 -0.6,0.8h-0.2h-0.2c0.1,-0.2 0.1,-0.5 0.1,-0.8z" fill="#212121"></path><path d="M176.4,132.5c-0.1,-0.1 -0.3,-0.3 -0.4,-0.4c0.2,-0.3 0.5,-0.4 0.8,-0.4c-0.1,0.3 -0.3,0.6 -0.4,0.8z" fill="#111111"></path><path d="M166.2,141.9c-0.1,-0.5 -0.3,-0.9 0,-1.4c0.3,0.5 0.2,1 0,1.4z" fill="#212121"></path><path d="M159.4,147.3c0.1,-0.4 0.4,-0.6 0.8,-0.6c0,0.5 -0.3,0.7 -0.8,0.6z" fill="#111111"></path><path d="M163.3,143.6c0.1,0.2 0.3,0.3 0.4,0.5c-0.1,0.2 -0.2,0.4 -0.4,0.3c0,-0.3 0,-0.5 0,-0.8z" fill="#111111"></path><path d="M181,125.6c0,-0.3 0,-0.6 0.3,-0.8c0.1,0.4 0.1,0.7 -0.3,0.8z" fill="#111111"></path><path d="M153.5,152c0,-0.2 0,-0.5 0,-0.7c0.3,0.1 0.2,0.4 0.2,0.6c0,0 -0.1,0.1 -0.2,0.1z" fill="#111111"></path><path d="M184.8,89.9c-0.2,0 -0.5,0 -0.5,-0.1c0,-0.3 0.2,-0.2 0.4,-0.3c0.1,0.1 0.1,0.3 0.1,0.4z" fill="#212121"></path><path d="M160.6,146.6c0.1,-0.1 0.3,-0.2 0.4,-0.3c0,0.3 -0.1,0.3 -0.4,0.3z" fill="#111111"></path><path d="M173.2,132.2c0.1,0.1 0.1,0.1 0.2,0.2l-0.1,0.1c-0.1,0 -0.2,-0.1 -0.3,-0.1c0.1,0 0.2,-0.1 0.2,-0.2z" fill="#111111"></path><path d="M151.5,153.8c-0.1,-0.1 -0.2,-0.1 -0.2,-0.2c0.2,-0.3 0.2,0 0.2,0.2c0.1,-0.1 0,0 0,0z" fill="#111111"></path><path d="M80.1,115.6c0.1,0 0.1,0.1 0.2,0.1c-0.1,0 -0.1,-0.1 -0.2,-0.1z" fill="#0c0c0c"></path><path d="M197.4,20.9c0.2,-1 0.9,-1.2 1.7,-1.1c0.9,0.2 0.6,1 0.6,1.6c-0.4,2.3 -0.8,4.6 -1.2,6.9c-0.3,1.5 -0.4,3 -0.7,4.5c-0.2,0.9 -0.4,1.8 -1.6,1.8c-1.2,0.1 -2.2,0.1 -1.6,-1.7c1,-3.2 1.1,-6.6 1.7,-9.9c0.2,-0.8 0,-1.8 1.1,-2.1c-0.6,3.8 -0.9,7.6 -1.8,11.3c-0.1,0.6 -0.5,1.5 0.3,1.6c0.9,0.2 0.9,-0.8 1,-1.5c0.6,-3.3 1,-6.7 1.7,-9.9c0.5,-1.5 -0.1,-1.6 -1.2,-1.5z" fill="#363636"></path><path d="M190.1,33.4c1,-3.5 1,-7.2 1.8,-10.9c0.3,-1.2 1.2,-1.5 2.2,-1.7c0.8,-0.1 1.2,0.3 1,1.1c-0.9,4 -1.1,8 -2.1,12c-0.3,1.1 -0.7,1.5 -1.8,1.5c-1.4,0 -0.9,-1.1 -1.1,-2zM194.1,23.2c0.3,-1 0.3,-1.5 -0.3,-1.6c-0.5,-0.1 -0.9,0.1 -1.1,0.5c-0.1,0.3 -0.1,0.7 -0.2,1.1c-0.4,3.3 -0.9,6.5 -1.3,9.8c-0.1,0.6 -0.5,1.5 0.1,1.7c0.9,0.2 1,-0.8 1.1,-1.4c0.6,-3.5 1.2,-7.1 1.7,-10.1z" fill="#363636"></path><path d="M185.9,34.8c1.1,-3.5 0.6,-7.5 1.6,-11.2c0.1,-0.4 0.2,-0.9 0.4,-1.3c0.4,-0.8 1.3,-1 2,-0.9c1,0.2 0.4,1 0.3,1.6c-0.4,4 -0.8,8.1 -1.5,12.1c-0.1,0.4 0,1 -0.4,1.2c-0.6,0.4 -1.3,0.8 -1.9,0.5c-0.8,-0.4 -0.3,-1.2 -0.5,-2zM189.4,23.8c-0.1,-0.3 0.3,-1.2 -0.4,-1.3c-1,-0.2 -0.8,0.9 -0.8,1.4c-0.5,3.6 -1,7.3 -1.4,10.9c0,0.4 -0.3,1.2 0.5,1.2c0.6,0 0.9,-0.6 1,-1.2c0.3,-3.6 0.7,-7.2 1.1,-11z" fill="#363636"></path><path d="M183.6,36.2c-0.1,0.8 -0.7,0.8 -1.3,0.7c-0.7,-0.1 -0.7,-0.7 -0.6,-1.2c0.6,-3.9 0.8,-7.9 1.9,-11.8c0.3,-1 1.1,-1.2 1.9,-1.1c1.3,0.2 0.5,1 0.4,1.6c-0.6,3.6 -0.6,7.2 -1.5,10.7c-0.1,0.5 -0.1,1.1 -0.8,1.1c0.1,-0.5 0.1,-1 0.2,-1.5c0.5,-3.3 0.9,-6.6 1.3,-10c0,-0.4 0.2,-1 -0.5,-1c-0.4,0 -0.5,0.5 -0.6,0.9c-0.5,3.5 -1,7 -1.5,10.5c-0.1,0.9 0.4,1.1 1.1,1.1z" fill="#363636"></path><path d="M182.1,25.2c-0.7,3.9 -1.3,7.8 -2,11.8c-0.2,1.1 -1.2,1.5 -2,1.4c-1.2,-0.2 -0.3,-1.1 -0.2,-1.7c0.3,-3.7 0.9,-7.4 1.1,-11.1c0.1,-1.9 1.5,-1.8 2.5,-1.9c0.9,-0.1 0.5,0.9 0.6,1.5zM181.3,24.9c0,0 0.1,-0.4 -0.3,-0.4c-0.3,0 -0.7,0.1 -0.8,0.3c-0.5,0.6 -0.6,1.4 -0.7,2.1c-0.3,3.2 -0.6,6.4 -1,9.6c0,0.4 -0.3,0.8 0.2,0.9c0.6,0.1 0.7,-0.4 0.8,-0.9c0.7,-3.6 1.3,-7.4 1.8,-11.6z" fill="#363636"></path><path d="M183.3,168.1c0,0.5 0,0.8 0,1.1c-0.1,0.7 0.3,1.9 -0.8,1.8c-0.8,0 -2,-0.6 -1.9,-1.8c0.2,-2.7 -0.6,-5.3 -0.4,-8c0,-0.5 -0.3,-1.3 0.6,-1.4c0.8,0 1.6,0.3 1.7,1.2c0,2.5 1,4.8 0.8,7.1zM180.6,160.4c0.4,2.9 0.8,5.7 0.8,8.6c0,0.4 0.2,0.8 0.6,0.8c0.7,0 0.5,-0.6 0.5,-1c0.2,-2.4 -0.4,-4.8 -0.7,-7.1c-0.1,-0.6 -0.1,-1.3 -1.2,-1.3z" fill="#363636"></path><path d="M191.7,163.9c1.1,0.2 1.1,1.2 1.1,2c-0.1,2.6 0.4,5.1 0.4,7.6c0,0.6 0.5,1.7 -0.5,1.7c-1,0 -2.1,-0.4 -2.1,-1.8c0,-1.3 0,-2.6 0,-3.8c0,-1.5 0.1,-2.9 -0.3,-4.4c-0.4,-1.2 0.1,-1.5 1.4,-1.3c-0.7,0.1 -0.8,0.5 -0.8,1.1c0.1,2.8 0.6,5.6 0.4,8.4c0,0.8 0.5,1.1 1.4,1.1c-0.3,-1.1 -0.1,-2.3 -0.3,-3.4c-0.5,-2.4 0.1,-4.8 -0.7,-7.2z" fill="#363636"></path><path d="M188.2,173.5c-0.4,-0.2 -0.7,-0.5 -0.7,-1c0,-3.4 0,-6.7 0,-10.1c1.2,0.2 1.8,1.1 1.9,2.5c0.2,2.7 0.4,5.4 0.7,8.2c0,0.4 0,0.8 -0.4,1c-0.6,0.3 -1.1,-0.1 -1.5,-0.6c0.8,0 1.3,-0.3 1.1,-1.1c-0.5,-1.9 -0.1,-3.9 -0.4,-5.9c-0.2,-1 0.1,-2.3 -1,-3.3c-0.3,3.7 0.6,7 0.3,10.3z" fill="#363636"></path><path d="M185.2,172c-0.9,-0.1 -1.2,-0.6 -1.1,-1.4c0.1,-2.6 -0.2,-5.2 -0.4,-7.8c0,-0.5 -0.6,-1.6 0.6,-1.6c1,0 1.7,0.6 1.7,1.7c0.1,2.1 0.6,4.1 0.4,6.2c-0.1,0.8 -0.1,1.7 0.2,2.4c0.2,0.4 0.1,0.8 -0.3,1c-0.7,0.3 -0.9,-0.1 -1.1,-0.5c0.8,-0.1 0.9,-0.7 0.7,-1.3c-0.6,-2.3 -0.3,-4.7 -0.4,-7c0,-0.6 -0.1,-1.2 -1.2,-1.7c0.3,3.5 0.3,6.8 0.9,10z" fill="#363636"></path><path d="M194,170c0,-1.4 0,-2.8 0,-4.2c0,-0.5 -0.4,-1.3 0.6,-1.2c0.6,0.1 1.3,0.5 1.2,1.2c-0.4,3.3 0,6.5 0.4,9.8c0,0.5 0,1 -0.6,0.9c-0.9,-0.1 -1.6,-0.5 -1.6,-1.6c0,-1.6 0,-3.3 0,-4.9zM195.2,175.6c-0.2,-3.4 0.1,-6.8 -0.6,-10.1c0.4,3.3 0.1,6.7 0.6,10.1z" fill="#363636"></path><path d="M40.6,110.2c0.7,1.2 0.6,2.6 0.7,3.8c0.1,1.8 0.4,3.5 0.8,5.3c0,-2.5 0,-4.9 0,-7.4c0,-0.4 -0.3,-1.2 0.5,-1.2c0.6,0 1,0.5 1,1.2c-0.2,2.9 0.6,5.8 0.4,8.7c0,0.5 0.2,1.1 -0.5,1.3c-0.5,0.1 -0.8,-0.3 -1.1,-0.6c-0.1,-0.1 -0.2,-0.4 -0.3,-0.4c-2.8,-0.8 -2.2,-3.1 -2.3,-5.1c-0.1,-2.2 -0.3,-4.4 -0.5,-6.6c0.7,0 1.2,0.3 1.3,1c-0.3,-0.1 -0.9,-0.3 -0.7,0.4c0.4,1.2 0.1,2.5 0.3,3.8c0.4,1.7 0.2,3.5 0.6,5.3c0.5,-3.2 -0.2,-6.3 -0.2,-9.5zM43.1,114.3c-0.2,0 -0.4,0 -0.6,0.1c0.8,2.2 0.1,4.4 0.6,7c0,-2.7 0,-4.9 0,-7.1zM42.6,113.3c0.4,-0.7 0.5,-1.1 0,-1.6c0,0.5 0,0.8 0,1.6z" fill="#363636"></path><path d="M36.7,109.5c0.4,-0.7 -0.5,-2 0.6,-2.1c1,-0.1 0.8,1.3 1.1,2.1c0.7,2.8 0.8,5.6 1.1,8.4c0.1,0.5 0.3,1.3 -0.6,1.3c-0.7,0 -0.8,-0.6 -0.9,-1.2c-0.5,-2.7 -0.9,-5.6 -1.3,-8.5zM38.4,118.5c0.2,0 0.4,-0.1 0.6,-0.1c-0.5,-3.3 -0.9,-6.5 -1.4,-9.8c-0.2,0 -0.4,0.1 -0.6,0.1c0.6,3.3 1,6.5 1.4,9.8z" fill="#363636"></path><path d="M47.9,124.1c-0.7,-0.8 -0.3,-1.8 -0.4,-2.7c-0.1,-2.5 0,-5 0,-7.5c0,-0.5 -0.2,-1.1 0.6,-1.2c0.6,0 0.9,0.4 0.9,1c0,3.4 0.1,6.9 0,10.3c0,1.2 -0.7,0.7 -1.1,0.1c0.4,-0.1 0.7,-0.2 0.7,-0.7c-0.1,-3.2 0.3,-6.5 -0.2,-9.7c0,0 -0.2,0 -0.6,-0.1c0.1,3.5 0.1,7 0.1,10.5z" fill="#363636"></path><path d="M45.6,111.8c0.5,0.1 0.8,0.4 0.8,0.9c-0.1,3 0.1,6.1 0.4,9.1c0,0.5 0,1.1 -0.5,1.3c-0.5,0.3 -0.8,-0.2 -1,-0.6v0c1.1,-0.2 0.8,-1 0.8,-1.7c-0.1,-3 0,-6 -0.5,-9z" fill="#363636"></path><path d="M45.2,122.5c-0.7,-0.6 -0.3,-1.4 -0.4,-2.2c-0.1,-2.4 0.2,-4.8 -0.3,-7.2c-0.1,-0.5 -0.8,-2.2 1.1,-1.3v0c-0.6,0.5 -0.4,1.2 -0.4,1.8c0,2.9 0,5.9 0,8.9z" fill="#363636"></path><path d="M161.8,249.2c-1.2,-3.1 -0.7,-6.3 -0.5,-9.5c0.5,3.2 1.2,6.3 0.5,9.5z" fill="#474747"></path><path d="M173.5,233.6c0,2.7 0.3,5.4 0,8.2c0,-2.8 0,-5.5 0,-8.2z" fill="#474747"></path><path d="M165.6,247.2c-0.8,0 -1.1,-0.3 -1.2,-1.1c0,-2.3 0.2,-4.6 -0.3,-6.8c-0.1,-0.6 0,-1.3 0.7,-1.3c0.7,0 0.4,0.8 0.4,1.2c0.2,2.7 0.3,5.3 0.4,8z" fill="#474747"></path><path d="M170.2,234.5c0.8,0.1 0.8,0.7 0.8,1.3c0.1,2.3 -0.2,4.6 0.3,6.8c0.1,0.5 0.1,1.2 -0.6,1.2c-0.8,0.1 -0.5,-0.7 -0.5,-1.1c0,-2.7 0,-5.4 0,-8.2z" fill="#474747"></path><path d="M168.3,245.3c-0.5,0 -1.1,0 -1.1,-0.7c0.1,-2.8 -0.5,-5.7 0.3,-8.5c1.1,0.2 0.7,1 0.7,1.6c0.1,2.5 0.1,5.1 0.1,7.6z" fill="#474747"></path><path d="M197.4,20.9c1,-0.1 1.6,0 1.3,1.5c-0.7,3.3 -1.1,6.6 -1.7,9.9c-0.1,0.7 -0.1,1.7 -1,1.5c-0.8,-0.1 -0.5,-1 -0.3,-1.6c0.9,-3.8 1.1,-7.6 1.7,-11.3z" fill="#474747"></path><path d="M194.1,23.2c-0.5,3 -1,6.6 -1.7,10.1c-0.1,0.6 -0.3,1.7 -1.1,1.4c-0.7,-0.2 -0.2,-1.1 -0.1,-1.7c0.5,-3.3 0.9,-6.5 1.3,-9.8c0.1,-0.4 0,-0.8 0.2,-1.1c0.2,-0.5 0.6,-0.6 1.1,-0.5c0.6,0.2 0.6,0.6 0.3,1.6z" fill="#474747"></path><path d="M189.4,23.8c-0.4,3.8 -0.8,7.3 -1.1,10.9c-0.1,0.6 -0.4,1.2 -1,1.2c-0.8,0 -0.5,-0.8 -0.5,-1.2c0.4,-3.6 0.8,-7.3 1.4,-10.9c0.1,-0.5 -0.2,-1.5 0.8,-1.4c0.7,0.3 0.3,1.1 0.4,1.4z" fill="#474747"></path><path d="M183.6,36.2c-0.8,0 -1.2,-0.2 -1.1,-1.1c0.5,-3.5 1,-7 1.5,-10.5c0.1,-0.4 0.2,-0.9 0.6,-0.9c0.7,0 0.6,0.6 0.5,1c-0.4,3.3 -0.9,6.6 -1.3,10c0,0.5 -0.1,1 -0.2,1.5z" fill="#474747"></path><path d="M181.3,24.9c-0.5,4.1 -1,7.9 -1.8,11.7c-0.1,0.4 -0.2,1 -0.8,0.9c-0.5,-0.1 -0.2,-0.6 -0.2,-0.9c0.3,-3.2 0.7,-6.4 1,-9.6c0.1,-0.8 0.2,-1.5 0.7,-2.1c0.2,-0.2 0.6,-0.3 0.8,-0.3c0.4,-0.1 0.3,0.4 0.3,0.3z" fill="#474747"></path><path d="M180.6,160.4c1.1,0 1.1,0.6 1.2,1.3c0.3,2.4 0.9,4.7 0.7,7.1c0,0.4 0.2,1 -0.5,1c-0.4,0 -0.6,-0.4 -0.6,-0.8c0,-2.8 -0.4,-5.7 -0.8,-8.6z" fill="#474747"></path><path d="M191.7,163.9c0.8,2.3 0.2,4.8 0.7,7.2c0.2,1.1 0,2.2 0.3,3.4c-0.9,0 -1.5,-0.3 -1.4,-1.1c0.2,-2.8 -0.3,-5.6 -0.4,-8.4c0,-0.5 0.1,-1 0.8,-1.1z" fill="#474747"></path><path d="M188.2,173.5c0.3,-3.3 -0.6,-6.7 -0.3,-10.3c1.1,1.1 0.8,2.3 1,3.3c0.3,1.9 -0.1,3.9 0.4,5.9c0.3,0.9 -0.3,1.2 -1.1,1.1z" fill="#474747"></path><path d="M185.2,172c-0.5,-3.2 -0.6,-6.5 -0.8,-10c1,0.5 1.1,1.1 1.2,1.7c0.1,2.3 -0.2,4.7 0.4,7c0,0.6 0,1.2 -0.8,1.3z" fill="#474747"></path><path d="M195.2,175.6c-0.5,-3.4 -0.2,-6.8 -0.6,-10.1c0.7,3.3 0.4,6.7 0.6,10.1z" fill="#474747"></path><path d="M40.6,110.2c0,3.1 0.6,6.2 0.3,9.4c-0.4,-1.7 -0.3,-3.5 -0.6,-5.3c-0.3,-1.2 0.1,-2.5 -0.3,-3.8c-0.3,-0.6 0.3,-0.3 0.6,-0.3z" fill="#474747"></path><path d="M43.1,114.3c0,2.2 0,4.4 0,7c-0.5,-2.6 0.2,-4.8 -0.6,-7c0.2,0 0.4,0 0.6,0z" fill="#474747"></path><path d="M42.6,113.3c0,-0.7 0,-1.1 0,-1.6c0.5,0.4 0.4,0.8 0,1.6z" fill="#474747"></path><path d="M38.4,118.5c-0.4,-3.3 -0.9,-6.5 -1.3,-9.8c0.2,0 0.4,-0.1 0.6,-0.1c0.5,3.3 0.9,6.5 1.4,9.8c-0.2,0 -0.4,0 -0.7,0.1z" fill="#474747"></path><path d="M47.9,124.1c0,-3.5 0,-7 0,-10.5c0.3,0 0.6,0 0.6,0.1c0.4,3.2 0.1,6.5 0.2,9.7c-0.1,0.4 -0.4,0.6 -0.8,0.7c0,-0.1 0,0 0,0z" fill="#474747"></path><path d="M45.2,122.5c0,-3 0,-6 0,-9c0,-0.6 -0.2,-1.3 0.4,-1.8c0.5,3 0.4,6 0.4,9.1c0,0.7 0.3,1.5 -0.8,1.7z" fill="#474747"></path><g fill="#101010"><path d="M168.3,43.8c-3.4,3.7 -3.8,9.1 -1,12.8c0,0 0.1,-0.1 0.4,-0.7c-0.2,-0.5 -0.5,-1 -0.7,-1.5c-1.5,-3.9 1.3,-10.1 5.2,-12.4c-0.3,-0.3 -0.6,-0.7 -0.9,-1c-1.2,0.9 -2.1,1.8 -3,2.8z"></path><path d="M122.2,163.2c-6.5,-0.5 -11.6,2.6 -16.2,6.7c-4,3.6 -6.4,8.1 -5.4,13.8c0.2,1.4 -0.3,2.1 -1.5,2.9c-6.8,4.3 -14.4,6 -22.1,7.4c-10.1,1.9 -19.7,0.7 -28.4,-5c-4.7,-3 -7.8,-7.1 -8.2,-12.8c-0.6,-9.4 1.4,-18.3 6.2,-26.5c1.1,-2 2.4,-3.9 3.3,-6c2.5,-6 1.8,-11.1 -4.3,-14.7c-2.6,-1.6 -5.8,-2.3 -8.7,-3.4c-2.3,-0.9 -4.7,-1.7 -5.7,-4.2c-1.5,-3.8 -1.7,-7.7 -0.2,-11.4c-0.4,-0.6 -0.7,-1.3 -1,-1.9c-2.3,2.8 -2.2,6.4 -2,9.8c0.2,4.1 1.9,7.3 5.8,9c1.8,0.8 3.7,1.5 5.7,2.1c3.4,1 6.3,2.6 8.8,5c1.8,1.8 3,3.9 2,6.4c-0.8,2.1 -1.7,4.2 -3,6.1c-5.5,8.1 -9.3,16.8 -9.7,26.8c-0.2,5.4 0.7,10.6 4.5,14.6c7.4,7.8 16.9,10.3 27.3,10.2c10.2,-0.1 19.7,-3 28.6,-7.9c0.9,-0.5 1.9,-0.8 3.1,-1.3c0.4,4 1,7.6 1.1,11.2c0.3,6.9 -2.5,10.3 -9,11.4c-4.5,0.8 -9,0.7 -13,-1.3c-5.7,-2.8 -11.3,-5.8 -16.8,-9.1c-9.4,-5.6 -19.3,-5.5 -26.2,1.6c-10.7,11 -4.3,25.8 6.4,30.1c2.2,0.9 4.4,1 6.6,0.3c2.6,-0.8 3.8,-2.7 4.3,-5.2c0.5,-2.2 -0.1,-4 -1.9,-5.4c-1.9,-1.6 -3.9,-3.1 -5.6,-4.9c-1.3,-1.3 -1.8,-3 -0.9,-4.8c0.9,-1.7 3.4,-2.6 5.4,-2.2c0.8,0.1 1.7,0.5 2.5,0.8c1.1,0.4 2.3,0.9 3.4,1.4c-1.6,-1.2 -3.2,-2.2 -5,-2.9c-3.2,-1.3 -6.2,-0.4 -7.8,2.1c-1.4,2.2 -0.9,5.1 1.5,7.5c1.4,1.4 3.1,2.6 4.6,4c1.4,1.4 1.8,3 0.9,4.9c-0.9,1.9 -2.4,2.6 -4.4,2.4c-0.9,-0.1 -1.9,-0.3 -2.8,-0.6c-5.4,-2 -9.9,-8.5 -10.1,-14.3c-0.2,-5.8 4,-12.6 9.4,-15c5.2,-2.4 10.2,-1.6 14.9,1c5.4,2.9 10.4,6.4 15.8,9.3c6.6,3.6 13.7,4.9 21.1,3c6.9,-1.7 10.6,-6 10.2,-13.1c-0.3,-5.8 -1.2,-11.5 -2.3,-17.1c-1.3,-6.4 0.8,-11.3 5.6,-15.3c4.1,-3.3 8.6,-5.5 14.1,-5.2c-0.3,-0.2 -0.6,-0.3 -0.9,-0.3z"></path><path d="M180.4,81.2c-6.2,-8.5 -14.3,-14.9 -23.9,-19c-3.7,-1.6 -4.9,-4 -5.2,-7.5c-0.8,-9.3 3.7,-15.3 11.8,-17.8c0.4,-0.1 0.9,-0.2 1.3,-0.2c-1.1,-0.5 -2.1,-1 -3.2,-1.5c-5.1,1.2 -9.2,3.4 -11.3,8.3c-2.2,5.1 -1.4,10.2 0.6,14.9c-5.4,-0.9 -10.8,-2.3 -16.2,-2.7c-12.9,-0.9 -25.3,1.4 -36.4,8.6c-5.9,3.9 -10.6,8.8 -14.1,14.8c-3.9,6.7 -6.3,14 -6.9,21.8c-0.5,7.5 0.6,14.6 3.9,21.4c2.8,5.9 7.2,10.5 11.2,15.5c3.6,4.4 7.1,9 10.2,13.8c3.5,5.5 2.5,12.1 -2.4,16.2c-3.4,2.9 -6.9,5.7 -10.8,7.8c-8.1,4.4 -16.7,5.2 -25.6,2.5c-6.1,-1.8 -10.2,-6.7 -10.6,-12.3c-0.3,-3.9 0.3,-7.8 1.9,-11.4c1.7,-3.9 3.8,-7.6 5.8,-11.4c2,-3.6 3.6,-7.3 2.5,-11.5c-0.5,-1.7 -1.2,-3.3 -1.8,-4.9c-0.2,0.1 -0.5,0.2 -0.7,0.3c0.6,1.9 1.3,3.7 1.7,5.5c0.9,4.5 -1.5,8.1 -3.7,11.6c-3,4.7 -5.7,9.6 -7.2,15c-1.7,6.3 -1.4,12.3 3.3,17.4c3.4,3.7 7.9,5.5 12.8,6.2c12.9,1.8 24,-2 33,-11.4c2.6,-2.7 4.6,-5.9 5,-9.9c0.5,-5.2 -0.9,-9.9 -3.9,-14.1c-4,-5.5 -8.2,-10.7 -12.2,-16.1c-6.9,-9.3 -10.6,-19.5 -9,-31.1c2.2,-15.4 9.5,-27.4 23.3,-34.7c13.6,-7.1 27.9,-7.5 42.5,-3.7c8.3,2.1 15.7,6.2 22.3,11.6c6.7,5.5 12.2,11.8 14.3,20.5c1.1,4.7 1.7,9.5 1.1,14.3c-1.1,8.6 -4.8,16.2 -10.3,22.9c-4.6,5.7 -10.4,10 -16.1,14.4c-5.6,4.4 -9.9,9.8 -12.7,16.3c-0.6,1.3 -0.9,2.7 -1.3,4.1c1.6,-2.1 2.8,-4.2 4.3,-6.2c5.2,-7 12.7,-11.4 19.3,-16.8c10.4,-8.4 18,-18.6 20.2,-32.1c1.7,-10.6 -0.3,-20.5 -6.8,-29.4z"></path><path d="M132.8,219.6c-6,-4.3 -10.3,-10.3 -12.7,-17.2c-3.4,-9.8 -3.4,-19.7 2.9,-28.9c-0.3,0.1 -0.6,0.1 -0.8,0.2c-7.9,3.3 -11.5,10 -9.8,18.3c1.2,5.9 2.7,11.7 3.9,17.6c0.8,4 1,8.1 -1.2,11.9c-3.6,6.3 -9.5,9.1 -16.4,9.9c-6.1,0.7 -11.8,-1.2 -17.4,-3.2c-6.6,-2.4 -12.2,-6.5 -17.7,-10.7c-0.9,-0.7 -1.9,-1.5 -2.8,-2.2c1.5,1.8 3.1,3.3 4.8,4.8c5.6,5 11.6,9.4 18.8,12.2c8.6,3.3 17,3.4 25.1,-1c6.5,-3.5 10.7,-8.8 10.7,-16.6c0,-1.4 0,-2.8 0,-3.8c3.8,3.2 7.7,6.5 11.6,9.7c0.6,-0.2 0.8,-0.6 1,-1zM116.8,183.1c-1,2.7 -1.5,5.6 -2.2,8.3c-2.3,-6.4 0.6,-13.3 6.2,-16.3c-1.3,2.7 -2.9,5.2 -4,8z"></path><path d="M224.8,174.7c-0.3,1.5 -0.6,6 -1.2,7.5c-1.8,4.7 -4.6,8.5 -8.8,11.3c-8.5,5.7 -18,8.6 -28,10.2c-0.4,0.1 -0.9,0 -1.5,0c0,-3.7 0,-7.1 0.1,-10.7c1.7,-0.1 3.7,-0.2 5.7,-0.3c6.1,-0.4 11.8,-2.1 16.6,-6.1c2.9,-2.4 3.6,-6.2 4.9,-9.5c-1.2,0.1 -1,1.1 -2.2,1.3c-2.2,4.1 -5.6,7.3 -9.8,9.2c-4.3,1.9 -8.8,2.3 -13.3,2.7c-2.4,0.3 -4.3,-0.1 -4.9,-2.8c-0.2,-0.5 -0.6,-1 -0.9,-1.5c-5.3,-8 -13,-12.3 -22.1,-14.4c-1.1,-0.2 -2.2,-0.2 -3.6,-0.4c0.6,-0.5 1,-0.9 1.4,-1.2c4.5,-3.9 9.2,-7.7 13.6,-11.8c5.3,-5 10.2,-10.4 15.3,-15.6c4.8,-5 8.6,-10.6 11.2,-17c5.8,-14.6 3.6,-28.3 -4.8,-41.2c-3.8,-5.7 -8.5,-10.7 -13.5,-15.4c-4.2,-3.9 -8,-8.3 -11.9,-12.5l-0.1,0.1c0.2,0.4 0.4,0.9 0.7,1.3c3.4,4.5 6.8,9 10.4,13.3c4.4,5.2 9,10.3 12.5,16.2c5.7,9.6 7.8,19.8 5.4,30.8c-2,9 -6.4,16.9 -12.5,23.7c-8,8.9 -16.8,17.3 -25.1,26.1c-2.6,2.8 -5.8,3.8 -9.3,4.4c-0.4,-0.5 -0.9,-0.9 -1.4,-1.4c0.6,1.9 0.6,1.9 -0.8,3.3c-4.7,4.5 -4.1,10.3 1.4,13.2c3.2,1.7 6.3,0.5 7.4,-2.9c0.1,-0.4 0.3,-0.7 0.5,-1.2c3,2.6 6.3,4.4 10,5.4c0.6,0.2 1.3,0.5 1.5,1c1.7,3.5 1.8,7.1 0.1,10.7c-0.2,0.5 -1.1,1 -1.7,1c-2.6,-0.2 -5.2,-0.3 -7.8,-0.7c-13.7,-2 -21.8,-11 -22.1,-24.7c0,-0.5 -0.2,-1.1 -0.3,-2.1c-0.6,2.4 -1,4.2 -1.4,6c1,-0.6 0.9,0.3 1,0.8c0.6,2.9 0.9,5.8 1.7,8.5c2.2,7.2 7.7,11.2 14.6,13.3c4.1,1.2 8.4,1.9 12.8,2.8c-1,0.8 -2,1.8 -3.2,2.5c-5.3,3 -10.9,4.3 -16.9,2c-9.6,-3.7 -14.8,-14.5 -11.8,-24.4c0.6,-1.9 1.3,-3.7 1.8,-5.5c-3.6,5.4 -4.8,11.4 -3,17.9c1.9,8.4 7.3,14 15.7,16.2c7.3,1.9 17.9,-2.4 22.3,-8.6c3,-4.3 3.8,-8.9 1.9,-13.8c-2.3,-5.7 -6.7,-9.3 -12.2,-11.6c-1.7,-0.7 -3.6,-1 -5.4,-1.4c-0.1,0.1 -0.1,0.3 -0.2,0.5c0.3,0.4 0.7,0.8 1,1.3c1,1.7 0.9,3.4 0,5.1c-0.8,1.4 -2.1,1.9 -3.7,1.7c-4.2,-0.5 -6.6,-5 -4.7,-8.8c1.8,-3.7 5,-4.9 8.8,-5c5.8,-0.1 10.9,2.2 15.8,5.1c12.8,7.7 15.3,22.1 9.6,33c-3.1,5.8 -8.2,9 -13.9,11.4c0.2,0.2 0.4,0.4 0.6,0.6c9,-3.4 14.4,-9.7 17.6,-18.5c0.3,-0.1 0.5,-0.1 0.8,-0.1c10.4,0 20.1,-2.4 29.1,-7.6c4.2,-2.4 7.7,-5.5 10.1,-9.7c1.8,-3.2 2.3,-7.1 2.8,-10.6c-1.1,-0.1 -1.7,-2.4 -2.7,-2.4zM154.2,179.7c0.1,-0.2 0.3,-0.5 0.4,-0.7c4.6,0.9 8.3,3.3 11.3,6.8c-0.2,0.3 -0.3,0.5 -0.5,0.8c-3.8,-2.2 -7.5,-4.5 -11.2,-6.9z"></path><path d="M111,130.4c2.5,-2.4 6.6,-2.9 9.9,-1.3c3.7,1.8 5.8,5.5 5.4,9.4c-0.4,4 -2.5,6.8 -6.2,8.4c-3.7,1.6 -7.5,1.5 -10.9,-1c-2.9,-2.1 -3.3,-5.2 -2.9,-8.5c0.5,-3.1 1.6,-5.8 4.7,-7c-1.1,1.6 -2.6,3.1 -3.3,4.9c-1.5,4 0,8.3 3,10c4.7,2.6 11,0.6 13.3,-4.2c1.9,-4.1 0.4,-9 -3.2,-10.7c-0.4,2 -1.6,2.9 -3.3,2.5c-1.8,-0.4 -2.5,-1.7 -2,-4c-1.6,0.6 -3.1,1 -4.5,1.5z"></path><path d="M130.9,133.8c3.4,-3.3 8.9,-3.5 12.6,-0.4c3.9,3.3 4.6,8.7 1.8,12.8c-3.4,4.8 -10.5,6.1 -15.2,2.9c-5.4,-3.6 -3.6,-13.7 0.8,-15.3c-0.2,0.3 -0.4,0.7 -0.7,1c-2.6,2.9 -3.2,7.8 -1.3,11.1c1.5,2.7 5,4 9.1,3.3c3.6,-0.6 6.5,-3.5 7.2,-7.3c0.7,-3.6 -0.6,-6.6 -3.7,-8.5c-0.8,2.1 -2.1,3.1 -3.7,2.4c-0.7,-0.3 -1.5,-0.9 -1.8,-1.5c-0.3,-0.6 -0.1,-1.4 -0.1,-2.5c-1.8,0.8 -3.4,1.4 -5,2z"></path></g></g></g></g></svg>