<?xml version="1.0" encoding="utf-8"?>
<!-- Generator: Adobe Illustrator 24.0.1, SVG Export Plug-In . SVG Version: 6.00 Build 0)  -->
<svg version="1.1" id="Layer_1" xmlns="http://www.w3.org/2000/svg" xmlns:xlink="http://www.w3.org/1999/xlink" x="0px" y="0px"
	 viewBox="0 0 256 256" style="enable-background:new 0 0 256 256;" xml:space="preserve">
<style type="text/css">
	.st0{fill:#5B5B5B;}
	.st1{fill:#676767;}
	.st2{fill:#8A8A8A;}
</style>
<path class="st0" d="M246.9,27.8L194.2,2.4c-6.1-2.9-13.4-1.7-18.2,3.1L3.6,162.7c-4.6,4.2-4.6,11.5,0,15.8l14.1,12.8
	c3.8,3.5,9.5,3.7,13.6,0.6L238.9,34.4c7-5.3,17-0.3,17,8.4v-0.6C255.9,36,252.4,30.4,246.9,27.8L246.9,27.8z"/>
<path class="st1" d="M246.9,228.2l-52.7,25.4c-6.1,2.9-13.4,1.7-18.2-3.1L3.6,93.3C-1,89.1-1,81.8,3.6,77.5l14.1-12.8
	c3.8-3.5,9.5-3.7,13.6-0.6L239,221.6c7,5.3,17,0.3,17-8.4v0.6C255.9,220,252.4,225.6,246.9,228.2L246.9,228.2z"/>
<path class="st2" d="M194.2,253.6c-6.1,2.9-13.4,1.7-18.2-3.1c5.9,5.9,16,1.7,16-6.6V12.1c0-8.3-10.1-12.5-16-6.6
	c4.8-4.8,12.1-6,18.2-3.1l52.7,25.3c5.5,2.7,9.1,8.3,9.1,14.4v171.7c0,6.1-3.5,11.7-9.1,14.4L194.2,253.6z"/>
</svg>
