<?xml version="1.0" encoding="utf-8"?>
<!-- Generator: Adobe Illustrator 24.0.1, SVG Export Plug-In . SVG Version: 6.00 Build 0)  -->
<svg version="1.1" id="Layer_1" xmlns="http://www.w3.org/2000/svg" xmlns:xlink="http://www.w3.org/1999/xlink" x="0px" y="0px"
	 viewBox="0 0 256 256" style="enable-background:new 0 0 256 256;" xml:space="preserve">
<style type="text/css">
	.st0{fill:#101010;}
	.st1{fill:#C4C4C4;}
	.st2{fill:#111111;}
	.st3{fill:#0C0C0C;}
	.st4{fill:#C3C3C3;}
	.st5{fill:#131313;}
	.st6{fill:#939393;}
	.st7{fill:#212121;}
	.st8{fill:#B6B6B6;}
	.st9{fill:#929292;}
	.st10{fill:#AFAFAF;}
	.st11{fill:#474747;}
	.st12{fill:#FAFAFA;}
	.st13{fill:#FDFDFD;}
	.st14{fill:#363636;}
</style>
<path class="st0" d="M178.8,214.3c-3.2,4.9-8,7.5-13.7,9.5c3,1.5,5.7,2.8,8.4,4.2c5.3,2.6,4.3,1.6,4.2,7.1c-0.1,2.6-0.4,5.1-0.5,7.6
	c0,1-0.4,1.6-1.3,2.1c-5.4,3.2-10.8,6.5-16.2,9.7c-0.7,0.4-1.4,0.7-2.1,1c-0.5,0-1,0-1.5,0c-1.6-1.6-3.6-2.5-5.5-3.8
	c-5.3-3.6-10.7-7-15.9-10.6c-3.5-2.4-5.1-5.5-5.4-9.5c-0.1-2.1-0.6-4.2-0.4-6.3c0.1-2,0.9-3.3,2.9-3.8c0.4-0.1,0.8-0.4,1.4-0.7
	c-5.4-2.5-9.3-6.6-13.3-10.7c-0.4,1.2,0.1,2.4-0.1,3.5c-0.9,0.7,0,2.1-0.6,2.6c-1,0.9-0.5,1.4,0.1,2c-0.6,4.4-3.1,7.7-6.5,10.3
	c-8.8,6.5-18.3,7.2-28.5,3.4c-8.3-3.1-14.9-8.6-21.3-14.4c0.1-0.1,0.3-0.2,0.4-0.4c1.6,1.2,3.3,2.3,4.9,3.5c4.8,3.7,10.1,6.7,16,8.2
	c8.5,3.1,16.8,3.4,24.7-1.7c3.1-2,5.6-4.6,6.7-8.3c1.6-5.5,0.2-10.8-0.9-16.2c-0.9-4.2-2.3-8.4-2.9-12.7c-0.6-4.9,0.3-9.4,4.2-12.9
	c0.2,0.2,0.3,0.3,0.5,0.5c-0.4,0.6-0.8,1.1-1.2,1.7c-2.5,3.7-2.2,7.8-1.5,12c0,0.3,0,0.7,0.4,0.6c0.4-0.1,0.2-0.5,0.1-0.7l0-0.1
	c0.4,0.1,1,0.5,1.1-0.1c0.1-0.7,3.1-10.9,2.8-9.7c-0.5,0.1-0.8,0.3-0.2,0.8c-0.2,2-0.5,4.1-0.7,6.1c-0.3,0.1-0.3,0.2,0,0.4
	c0,0.3,0,0.5,0,0.8c-0.8,0.1-1,0.5-0.4,1.2c0,0.4,0.1,0.7,0.5,0.8c0.1,1,0.1,2,0.2,3c-0.7,0.8-0.6,1.5,0.4,2.7
	c0.3,1.3,0.7,2.6,1,3.8c-0.2,0.1-0.4,0.1-0.6,0.2c0.2,0,0.4,0,0.7,0.1c3.3,7.1,7.2,13.6,13.7,18.3c1,0.7,1.8,0.9,3,0.5
	c2.8-1,5.5-1.9,8.3-2.8c2.3-0.7,4.5-0.7,6.9,0.3c3.9,1.6,7.7,3.4,11.5,5.1c0.9,0.4,1.6,0.5,2.5,0.1c5-2,9.5-4.7,12.9-8.9
	C178.2,214.1,178.5,214.2,178.8,214.3z M173.4,230.2c-2.2-1.1-4.1-2.1-6-2.9c-6.3-2.7-12.6-5.5-18.5-9.1c-0.6-0.4-1.2-0.7-2-0.5
	c-5,1.6-9.9,3.2-14.9,4.9c-0.3,0.1-0.7,0.3-0.7,0.5c-0.2,0.5,0.4,0.6,0.7,0.8c1.9,1.1,3.7,2.3,5.6,3.4c6.5,3.5,13.4,6.4,19.6,10.3
	c0.6,0.4,1.2,0.5,1.8,0.1C163.5,234.7,168.3,232.4,173.4,230.2z M157.5,253.4c0-4.1-0.1-7.9,0-11.7c0.1-1.5-0.5-2.3-1.7-3
	c-8.1-4.6-16.7-8.3-24.3-13.7c-1.2-0.9-1.4-0.2-1.3,0.8c0.2,2.9,0.4,5.7,0.6,8.6c0.1,1.5,0.8,2.4,2,3.3c4.7,3.2,9.5,6.4,14.4,9.5
	C150.6,249.2,153.8,251.5,157.5,253.4z M158.9,246.2c0.1,0,0.1,0,0.2,0c0,1.7,0,3.3,0,5c0,1.3,0.3,1.7,1.5,0.9
	c1.6-1.1,3.2-2.3,4.9-3.3c2.8-1.7,5.6-3.3,8.4-4.9c0.6-0.3,1.2-0.7,1.3-1.5c0.2-3.3,0.5-6.6,0.8-9.9c0.1-1.5-0.5-1.6-1.7-1
	c-4.7,2.3-9.4,4.7-14,7c-0.7,0.4-1.4,0.8-1.3,1.9C159,242.3,158.9,244.2,158.9,246.2z"/>
<path class="st1" d="M228.5,173.5c-0.2,0-0.3-0.1-0.5-0.1c0-0.6,0-1.2,0-1.8c0-0.5,0-1,0-1.5c0-0.3,0-0.5,0-0.8
	c0-0.1,0.1-0.2,0.1-0.4c0.1,0,0.3,0,0.4,0C228.5,170.5,228.5,172,228.5,173.5z"/>
<path class="st1" d="M68.2,220.7c-1.6-1.2-3.3-2.3-4.9-3.5c-0.6-0.5-1-1.3-2-1.1c0,0,0,0,0,0c0.3-0.6-0.1-0.5-0.4-0.4c0,0,0,0,0,0
	c0.2-0.5-0.1-0.5-0.4-0.4c0,0,0,0,0,0c0.1-0.4-0.2-0.5-0.4-0.6c-1.8-1.5-4.2-2-6.1-3.5c-1.1-2.4-7.3-3.4-9.8,0
	c-1.6,2.2-1.3,5,0.9,7.5c1.4,1.6,3.2,2.7,4.8,4.1c1.8,1.7,2.1,3.2,1.1,5.1c-1,2-2.3,2.7-4.7,2.4c-3.2-0.3-5.6-2-7.7-4.2
	c-8.1-8.4-5.3-21.8,5.5-26.1c4.8-1.9,9.5-0.7,14,1.4c5.5,2.6,10.1,6.5,15.5,9.3c6.8,3.5,13.8,4.9,21.3,3.1c6.6-1.6,10.1-6,10.1-12.7
	c0-4-0.6-8-1.3-11.9c-0.6-3-1.4-6-1.5-9c-0.1-5.5,3.1-9.2,7.1-12.4c1.6-1.3,3.5-2.2,5.6-3.3c-0.6-0.1-0.8-0.2-0.9-0.1
	c-6.4,2.3-16.4,10.1-14.1,19.4c0.3,1.2-0.3,2-1.4,2.7c-6.8,4.4-14.5,6.1-22.3,7.5c-8.9,1.6-17.4,0.8-25.4-3.4
	c-5.9-3.1-10.5-7.4-10.9-14.6c-0.5-8.5,1.1-16.6,5.1-24.2c1.4-2.7,3-5.3,4.4-8c0.3-0.5,1.1-1.2,0.2-1.9c0-0.6-0.1-1.1,0.7-1.2
	c0.1,0,0.1,0.1,0.2,0.1c0.1,0,0.2,0,0.2,0c0.1-1.1,0.5-1.2,1.1-0.3c1.5,2.1,3.1,4.2,4.9,6c-2.6,4.6-4.9,9.2-5.9,14.4
	c-0.8,4.5-0.5,8.7,2,12.7c3.4,5.3,8.7,7.6,14.6,8.5c12.3,1.8,23-1.8,31.9-10.4c3.9-3.8,6.4-8.3,5.9-14.1
	c-0.4-5.6-14.7-24.2-14.9-24.4c-0.5-0.9-1.1-1.9-1.9-2.6c-1-0.4-0.7,0-1-0.7c-1.2-1.6-6.7-10.8-7-11.3c0.1-0.3,0.6-1.2,0.3-1.4
	c-0.2-1.3,0.4-2.5-0.2-3.8c0.2-0.4-0.1-0.8-0.2-1.1c0-0.4,0.1-0.8-0.2-1.2c0-0.2-0.1-0.5-0.1-0.7c0.1-0.4,0.1-0.8-0.1-1.2
	c-0.1-0.4-0.2-0.8-0.3-1.1c0.2-0.3,0.3-0.5,0-0.8c0-0.5,0-1,0-1.5c0.1-1.7,0.2-3.3,0.2-5c0-0.3,0-0.5,0.1-0.8c0.5-2.4,1-4.9,1.5-7.3
	c0-0.3,0-0.5,0-0.8c0.7-0.8,0.9-1.7,0.9-2.7c0.3-0.2,0.4-0.4,0.4-0.8c0.4-0.8,0.8-1.5,1.2-2.3c0.1,0.2,0.3,0.4,0.4,0.6
	c1,5,4.3,5.7,7.8,5c7.4-1.5,16.2-11.6,15.3-19.2c-0.3-2.4-1.1-4.1-3-5.4c-0.7-0.5-1.8-0.4-2.1-1.5c0.5-0.3,0.9-0.7,1.4-1
	c0.1,0,0.2-0.1,0.3-0.2c1.9-0.9,4-1.4,5.7-2.5c0.6-0.2,1.7,0.3,1.6-1l0,0c0.2,0,0.5,0.1,0.7,0.1c0.6,0.4,1,0.2,1.4-0.2
	c0.3,0,0.5-0.1,0.8-0.1c0.7,0.1,1.3-0.2,2-0.4c1-0.2,2-0.4,3-0.6c1.4-0.2,2.8-0.3,4.2-0.5c0.7,0,1.3,0.1,1.9-0.2
	c4.1,0.2,8.2,0,12.3,0.5c0.3,0.2,0.6,0.1,0.8-0.1c0.5,0.4,1.1,0.6,1.8,0.5c0.9,0.1,1.8,0.3,2.7,0.4c0.3,0.4,0.7,0.4,1.1,0.3
	c0.3,0,0.5,0.1,0.8,0.1c1.5,0.7,3,1.3,4.6,1.4c0.4,0.6,1,0.6,1.7,0.6c0.3,0.6,0.9,0.4,1.4,0.4c0.1,0.5,0.4,0.6,0.8,0.5
	c0.2,0.2,0.4,0.5,0.7,0.4c0.7,0.3,1.4,0.6,2.2,0.9c1,0.7,2,1.4,3.2,1.8c1.3,0.8,2.4,1.8,3.9,2.4c0.3,0.4,0.6,0.7,1.1,0.7
	c0.5,0.6,1.3,0.9,2,1.2c0.1,0.3,0.1,0.8,0.6,0.7c0.9,0.7,1.5,1.7,2.7,2c0.1,0.1,0.2,0.2,0.2,0.3c0.2,0.4,0.4,0.8,0.9,0.9
	c0.1,0.1,0.2,0.2,0.3,0.3c0,0.6,0.6,0.4,0.9,0.7c-0.1,0.5,0.3,0.7,0.7,0.8c0.1,0.1,0.2,0.2,0.4,0.4c0.2,0.6,0.5,1,1.1,1.3
	c3.9,4.6,7,9.7,8.5,15.6c0,0.3,0,0.5,0.1,0.8c0.7,4.3,1.1,8.7,0.7,13c-0.3,0.2-0.4,0.4-0.2,0.8c-0.1,0.6-0.1,1.3-0.2,1.9
	c-0.1,0.4-0.6,1.9-0.6,2.3c-0.2,0.5-2.3,6.7-2.5,6.9c-0.1,0.3-0.3,0.5-0.3,0.8c-0.2,0.4-0.4,0.7-0.6,1.1c-0.3,0.4-0.6,0.9-0.7,1.5
	c-0.2,0.3-0.4,0.6-0.7,0.9c-2.1,3.2-4.2,6.4-7,9.2c-1.3,1.3-1.6,2.8-2.6,4.4c-0.3,0.2-0.2,2-1.4,1.6c-2.5,2-4.6,4.2-7.1,6.2
	c-0.3,0.3-2,1.2-2.3,1.5c-2.3,1.3-4.9,4.5-4.9,4.6c0,0-6,4.4-7.1,7.3c-1,1.3-0.9,2.5-1.4,3.9c-0.1,0.3-0.7,0.6-0.1,0.7
	c0.1,0,0.1,0.1,0.2,0c0.6-0.9,1.1-1.8,1.6-2.8c1.6,0.2,2.5-1.4,3.9-1.8c5.8-1.7,11.6-1.8,17.4,0c-3.4,3.7-7.2,6.9-10.8,10.3
	c-0.1,0.6-0.3,1.2-0.4,1.9c-0.6-0.1-0.9-0.6-1.8-0.2c-1.8,0.7-3.7,0.9-5.6,1.3c-0.3-0.4,0.8,0.6,0.2,0.9c-0.3,0.1-0.6,0-0.4,0.3
	c-0.3,1.3-1.3,1.1-2,2c-2.5,3-3.6,6.2-1.7,9c0.3,0.6,0.7,1.1,1.4,1.3c0.4-0.8-0.3-1.1-0.6-1.5c-0.8-1.3-1.1-2.7-0.8-4.2
	c0.5-2.3,1.9-4,3.7-5.4c0.3-0.1,0.5-0.3,0.8-0.4c0.1-0.1,0.2-0.1,0.3-0.2c0.3-0.1,0.5-0.2,0.8-0.3c2.7-0.6,5.3-0.6,8-0.3
	c0.3,0,0.5,0.1,0.8,0.1c1.1,0.3,2.3,0.6,3.4,0.9c0.2,0.3,0.5,0.3,0.8,0.2c3.7,1.9,7.5,3.7,10.8,6.4c0.5,0.5,1.1,1.1,1.6,1.6
	c3.2,3.1,5.3,6.9,6.2,11.2c1.3,6,0.7,11.9-2.2,17.5c-0.6,0.9-1.2,1.8-1.8,2.7c-3.5,4.2-8,6.9-12.9,8.9c-0.9,0.4-1.7,0.2-2.5-0.1
	c-3.9-1.7-7.6-3.5-11.5-5.1c-2.4-1-4.5-1-6.9-0.3c-2.8,0.9-5.6,1.8-8.3,2.8c-1.1,0.4-2,0.3-3-0.5c-6.5-4.6-10.5-11.2-13.7-18.3
	c0-0.1,0-0.2-0.1-0.3c-0.3-1.3-0.7-2.6-1-3.8c0-0.6,0-1.3,0-1.9c2.3-0.1,4-1.3,5.9-2.5c4.1-2.6,5.4-8.9,1.3-13
	c-1.7-1.6-3.8-1.6-5.7-2.2c0-0.1,0-0.2,0.1-0.2c0.6-0.2,0.7-0.8,0.9-1.3c0.6-0.9,1.3-1.7,1.9-2.6c-0.9,0.5-1.6,0.5-2.2,1.3
	c-0.1,0.1-0.5,0.2-0.7,0.3c-0.3,0,0.3-0.3-0.6,0.2l0.1,0.2c-1.4-0.1-7.8,9.6-7.1,14.5c0.6,4.3,2,8.4,2.9,12.7
	c1.1,5.3,2.5,10.7,0.9,16.2c-1.1,3.7-3.6,6.3-6.7,8.3c-7.9,5.1-16.2,4.8-24.7,1.7c1.6-0.7,1.3-2.1,1.2-3.3c-0.5-4.2-4.6-8.8-8.6-9.8
	c-3.6-0.9-8-0.4-8.5,4.8C68.3,220.7,68.3,220.7,68.2,220.7z M147.6,186.1c-0.1,0-0.1-0.1-0.1-0.1c-0.3-0.3-0.6-0.9-1.1-0.5
	c-0.4,0.3,0.1,0.6,0.4,0.8c0.8,0.8,1.6,1.4,2.8,1.4c3,0.7,4.8-0.4,5.8-3.5c0.3-1,0.5-1.6,1.3-0.3c-0.2,0.6,0.2,1.1,0.4,1.6
	c1.1,3,1.8,6,1.4,9.2c-0.2,1.9-0.7,3.6-1.1,5.5c-0.1,0.3-0.3,0.5-0.6,0.5c-0.7,0-1.4-0.3-2.1-0.5c-8.3-2.3-14.7-6.9-17.6-15.4
	c-1-2.8-0.4-5.6-1.1-8.5c0.1-0.2-0.9,2.4-1,3c0,0.1,0,0.1,0,0.2c-0.4,0.8-1.3,2.8-1.5,3.2c-1.6,3.5-3,7.1-3.2,10.8
	c0,0.3-0.2,0.5-0.5,0.6c-1.9,0.2-3.4,1.1-4.2,2.9c-1.1,2.3-1.2,4.5,0.6,6.5c1.5,1.7,3.1,1.8,5.7,0.5c0.3-0.1,0.6-0.2,0.9-0.3
	c0.2,0,0.5,0,0.6,0.2c0.8,1.1,1.6,2.3,2.5,3.3c8.1,8.8,19.3,8.4,28.3,2.1c0.4-0.1,0.7-0.3,1-0.7c2.4-2.4,4.9-4.7,5.9-8.1
	c2.3-7.8-2.3-14.7-8.5-18.7c-0.3-0.2-0.7-0.4-0.9,0.2l0,0c0.6-0.8-0.3-1-0.6-1.2c-1.5-0.9-3.1-1.6-4.8-1.9c-0.1,0-0.2,0-0.2,0
	c-0.6,0.1-1.1,0-1.7-0.1c-1-0.2-0.6,0.4-0.5,0.9c1.1,1.9,1.2,3.8,0.1,5.7c-1,1.6-2.6,1.8-4.2,1.6c-0.1,0-0.1,0-0.2-0.1
	C148.8,186.7,148.2,186.4,147.6,186.1z M107.4,134.8c-2,4.9-0.4,8.7,2.4,11.5c0,0,0.1,0.1,0.2,0.1c4.8,2.5,11.4,0.7,14.3-3.9
	c2.3-3.7,1.9-8.4-1.1-11.5c-3-3.1-5.2-2.8-9.9-2.1c-0.1,0-0.1,0.1-0.2,0.2c-0.7,0.9-2.6,2.4-3.7,2.8c-0.1,0-0.2,0.1-0.3,0.2
	C108.8,132.4,107.7,133.5,107.4,134.8z M127.3,137.1c-3.1,6.6,0.2,12.7,7.2,13.4c7.5,0.8,13.6-6.4,11.2-13.2
	c-1.7-4.8-7.5-7.6-11.6-5.5c0,0.6-0.2,0.7-0.8,0.7c-1.1,0-0.1,0.7-1.6,1c0,0-0.1,0-0.1,0C130,134,127.9,135.6,127.3,137.1z
	 M116.1,76.6c5.2-0.1,8.6-2.1,11.5-5.3c1.5-1.7,1.7-3.7,0.7-5.7c-1-1.8-2.8-2.5-4.8-2.5c-4.6-0.1-7.7,2.3-10.3,5.9
	c-1.2,1.7-1.7,3.4-0.9,5.3C113.1,76.2,114.8,76.8,116.1,76.6z"/>
<path class="st2" d="M49.5,141.7c0.9,0.7,0.1,1.4-0.2,1.9c-1.4,2.7-3,5.3-4.4,8c-4,7.6-5.6,15.7-5.1,24.2c0.4,7.2,5,11.5,10.9,14.6
	c8,4.3,16.6,5.1,25.4,3.4c7.8-1.4,15.5-3.2,22.3-7.5c1.1-0.7,1.7-1.5,1.4-2.7c-2.3-9.3,7.7-17.1,14.1-19.4c0.2-0.1,0.4,0,0.9,0.1
	c-2.1,1.1-4,2-5.6,3.3c-4,3.2-7.3,6.9-7.1,12.4c0.1,3.1,0.9,6,1.5,9c0.8,3.9,1.3,7.9,1.3,11.9c0,6.7-3.5,11.1-10.1,12.7
	c-7.5,1.9-14.5,0.4-21.3-3.1c-5.4-2.7-10-6.7-15.5-9.3c-4.5-2.1-9.1-3.3-14-1.4c-10.9,4.4-13.6,17.7-5.5,26.1
	c2.1,2.2,4.6,3.9,7.7,4.2c2.4,0.3,3.7-0.4,4.7-2.4c1-2,0.7-3.4-1.1-5.1c-1.5-1.5-3.4-2.5-4.8-4.1c-2.2-2.5-2.5-5.3-0.9-7.5
	c2.5-3.4,8.7-2.3,9.8,0c-1.2-0.4-2.4-0.9-3.6-1.1c-1.8-0.4-4.2,0.7-5,2.2c-0.9,1.7-0.2,3.2,0.7,4.6c1.5,2.3,3.9,3.5,5.9,5.1
	c3.5,2.6,1.8,9.2-2.1,10.5c-2.2,0.7-4.4,0.8-6.6-0.1c-10.8-4.2-17.5-19-6.8-30.1c7-7.3,17-7.4,26.2-1.7c5.5,3.4,10.8,7,16.9,9.2
	c4.3,1.6,8.6,2,13.1,1.1c6.4-1.3,9.2-5.1,8.7-11.8c-0.2-3-0.8-6-1-9.1c-0.1-1.5-0.6-1.5-1.7-0.9c-3.5,1.8-7,3.7-10.7,5
	c-5.7,2.1-11.5,3.2-17.6,3.6c-7.3,0.5-14.1-0.8-20.6-4c-10.4-5-13.9-12.6-12.7-23.5c1-9.1,4.7-17.1,9.9-24.5
	C48.1,144.6,48.9,143.2,49.5,141.7z"/>
<path class="st3" d="M138.5,59.4c-0.3,0.2-0.5,0.2-0.8,0.1c-0.9-0.9-2.1-1-3.3-0.9c-1.8,0.2-3.9,0.2-5.4-0.3
	c-1.7-0.7-2.6-0.3-3.7,0.6c-0.6,0.3-1.3,0.2-1.9,0.2c-0.1-0.5,0.2-1.1-0.4-1.3c-0.1-0.1-0.4,0.1-0.4,0.2c0,1.3-0.6,0.4-1,0.3
	c-0.9-0.3-1.8,0.3-2.7,0.4c0.1,0.3,0.3,0.7,0.4,1c-1,0.2-2,0.4-3,0.6c-0.6-0.6-0.9-1.8-1.8-1.6c-0.6,0.2,0,1.3-0.2,2
	c-0.3,0-0.5,0.1-0.8,0.1c-0.7-1.3-1-0.4-1.4,0.2c-0.2,0-0.5-0.1-0.7-0.1c-0.1,0-0.1-0.4-0.3-0.1c0.1,0.1,0.2,0.1,0.3,0.2
	c0.1,1.4-1,0.8-1.6,1c-1.4-0.4-5.1,0.5-5.9,1.6c-0.3,0.4-0.1,0.7,0.2,1c-0.1,0.1-0.2,0.2-0.3,0.2c-0.9-0.9-1.8-0.3-2.5,0.1
	c-0.6,0.3-0.1,0.9,0.1,1.3c-0.7,0.4-1.3,0.8-2,1.2c-1.6-0.1-2.9,0.2-3.7,1.8c-0.4,0.8-1.1,1.3-2.2,0.6c0,0.8,0.3,1.3,0.8,1.5
	c-0.1,0.1-0.2,0.2-0.3,0.3c-0.9-0.1-1.2,0.3-1.1,1.2l0,0c-1.2-0.9-2,0.2-2.5,0.9c-0.4,0.5-1.4,1.4-0.3,2.3c-0.2,0.2-0.4,0.4-0.6,0.7
	c-1.4,0.1-2.3,0.8-2.6,2.1c-0.3,1.1-0.9,1-1.7,0.6l0,0c-0.3-0.5-0.8-0.4-1.3-0.4c0.5-0.8,6.4-8.6,8.3-10c0.8,0.1,1-0.4,1-1
	c6.3-5.3,13.5-8.6,21.4-10.3c0,0.3,0.1,0.5,0.4,0.5c0.3-0.1,0.3-0.4,0.3-0.6c4.1-1.2,8.4-1.5,12.6-1.5c5.6-0.1,11.1,0.3,16.5,1.9
	c0.1,1.8,0.9,0.6,1.5,0.4c1.2,0.3,2.5,0.6,3.7,0.9c0.1,0,0.2,0.1,0.4,0.1c0-0.1,0-0.3,0-0.4c-1.6-3.3-2.3-6.8-1.7-10.6
	c0.2-0.1,0.3-0.1,0.5-0.2c-0.2-0.1-0.3-0.1-0.5-0.2c0-0.1,0-0.3,0-0.4c0.7-0.2,0.9-0.4,0.1-0.8c1.4-6.6,6.8-10.4,13.1-11.1
	c0.4,0,0.8,0,0.8-0.4c0.1-0.6-0.4-0.6-0.9-0.6c-3.5-2-6.9-4.2-10.1-6.8c-0.9-0.7-1.3-1.7-1.2-2.9c0.4-4.8,0.7-9.6,1.9-14.3
	c0.7-2.9,2.4-4.6,5.2-5.1c2.7-0.5,5.4-1.2,8.2-1.3c-0.3,0.6-0.5,1.2-0.8,1.8c-3.1,0.4-6.1,0.8-9.3,1.3c0.3,0.3,0.4,0.5,0.5,0.6
	c6.6,4.5,13.4,8.6,20.3,12.6c1,0.6,2.2,0.7,3.3,0.5c4-0.7,8-1.4,12.1-2.1c2.3-0.4,4.7-0.8,7.3-1.3c-1-0.7-1.7-1.1-2.4-1.5
	c-0.2-0.1-0.4-0.2-0.5-0.3c-0.3,0-0.5,0-0.7-0.3c0-0.2-0.1-0.4-0.3-0.2c-1-0.3-1.9-0.8-2.7-1.4c-0.3-0.5,0.8-1.4-0.5-1.6
	c-1-0.1-2-0.2-3-0.4c-0.1-0.1-0.3-0.1-0.4-0.2c0-0.3,0.4-0.5,0-0.8c-0.1,0.2-0.3,0.4-0.4,0.6c-0.1,0-0.2,0-0.3-0.2
	c-0.2-0.5-0.5-0.6-0.9-0.5c-0.2-0.1-0.4-0.2-0.6-0.3c-0.1-0.4-0.5-0.5-0.8-0.5c-0.1-0.1-0.2-0.1-0.4-0.2c-0.1-0.1-0.3-0.2-0.4-0.2
	c-0.1,0-0.2-0.1-0.3-0.2c-0.1-0.3-0.3-0.5-0.7-0.5c-0.2-0.1-0.3-0.1-0.5-0.2c-0.1-0.5-0.2-0.8-0.8-0.3c-0.5-0.3-1.1-0.6-1.6-0.9
	c-0.1-0.3-0.3-0.4-0.6-0.4c-1.8-0.9-3.7-1.9-5.9-1.8c-0.1-0.6-0.2-1.2-0.4-1.8c2.1-0.3,4,0.3,5.8,1.3c0.6,0.3,1.2,1.1,2,0.2
	c0.2,0,0.4,0.1,0.7,0.1C182,6.5,184,6.1,184.4,7c0.1,1.4,1.1,1.2,2,1.2c2.4,1.1,4.6,2.4,6.9,3.8c0,0.4-0.2,0.9,0.3,1
	c0.5,0.2,0.4-0.3,0.5-0.6c2.2,1.1,4.3,2.3,6.5,3.2c1.7,0.8,2.3,2.1,2.1,3.8c-0.2,2.1-0.4,4.3-0.6,6.4c-0.4,0.3-0.5,0.6,0,1
	c0.5,0.4,0.7-0.5,0.8-1c1.8-2.8,2.8-5.9,2.1-9.3c-0.7-3.7-2.6-7-4.7-10.1c0.7-0.2,1.4-0.2,2.1-0.1c1.3,1.6,2.4,3.3,3.2,5.2
	c0.3,1-1.1,2.7,1.3,2.7c0.3,0.4,0.3,0.8,0.4,1.3c-0.3,1.2-1.6,2.5,0.5,3.4c0,0.3,0,0.5,0,0.8c-1.2,0.8-1.6,2.5-0.9,3.9
	c0,0.1,0,0.3-0.1,0.3c-0.7,0.2-1.6,0.3-0.5,1.3c-0.3,0.5-0.5,1-0.8,1.5c-1.9,0.1-2.1,0.9-2.1,2.7c0,0.1,0,0.2-0.2,0.3
	c-0.5,0.4-2.2-0.6-1.2,1.2c-0.8,0.7-1,1.6-1,2.6c-0.1,1.5-0.9,2.2-2.3,2.8c-6.9,2.8-14.4,3.9-21.5,5.8c-0.4,0.1-0.9,0.2-1.3,0.2
	c-1.1-0.1-2.1-1-3.4,0c-2.3,1.7-4.6,3.3-5.7,6c-0.7,1.5-1.1,3.1-1,4.8c-1-0.4-0.7-1.2-0.7-1.9c-0.1-4.2,2.3-7.1,5.3-9.6
	c0.5-0.4,1.5-0.4,1.2-1.4c0.2-1.5,1.8-0.3,2.3-1.2c1.3,0.4,1.1-0.6,1.1-1.3c0.2-4.5,0.7-9,1.6-13.5c0.3-1.3-0.1-2-1.1-2.7
	c-2.3-1.4-4.6-2.8-6.8-4.2c-4.7-2.9-9.4-5.8-14.2-8.7c-0.4,1.7-0.7,3.4-1,5c-0.1,0-0.2,0.1-0.3,0.1c0.1,0.1,0.2,0.2,0.2,0.2
	c0.1,0.4,0.1,0.8-0.1,1.2c-1.2,1-1.2,2.2-0.4,3.4c0,0.3,0,0.5,0,0.8c-0.3,0.2-0.8,0.2-0.8,0.7c0,0.3,0.4,0.4,0.7,0.5
	c0,0.5-0.1,1-0.1,1.5c-0.3-0.1-0.7-0.4-0.9,0.2c-0.2,0.7-0.2,1.5,0.7,1.7c0,0.3-0.1,0.5-0.1,0.8c0,0-0.1,0.1-0.1,0.1
	c0,0.1,0,0.2,0,0.2c0.5,1.7,2.2,2.1,3.3,3.3c0.1,0.1,0.2,0.2,0.3,0.3c0,0,0,0,0,0c0.2,0.1,0.3,0.2,0.5,0.3l0,0
	c0.3,1.2,0.4,1.3,1.2,0.6c0.4,0.2,0.7,0.4,1.1,0.6c0.1,0.8,0.6,0.8,1.2,0.7l0,0c0.1,0.3,0.4,0.4,0.7,0.5l0,0
	c0.1,0.2,0.1,0.3,0.2,0.5c0.1-0.1,0.2-0.1,0.3-0.2c1,0.6,2.1,1.2,3.1,1.8c-0.1,0.9,0.3,0.7,0.9,0.5c0.3,0.2,0.7,0.4,1,0.6
	c0,0.1,0.1,0.3,0.1,0.4c0.1-0.1,0.2-0.1,0.2-0.2c0.6,0.3,1.3,0.7,1.9,1c-0.6,0.5-1.2,1-1.8,1.4c-0.2-0.1-0.3-0.1-0.5-0.2
	c-0.1-0.8-0.6-0.7-1.2-0.7c-3.1,0.1-5.5,1.9-8,3.5c-0.6,0-1.3-0.1-1,0.9l-0.1,0c-1.5-1.3-1.6,0.9-2.5,1.1c-0.6,0.1-0.4,1.1,0.3,1.4
	c-0.6,1.4-1.2,2.8-1.8,4.1c-1.1,1-1.2,1.6-0.4,2.3c0,1.4-0.1,2.8-0.1,4.2c-0.2,0-0.4,0-0.6,0.1c-0.1-0.2,0.1-0.6-0.4-0.5
	c-0.1,0-0.1,0.1-0.1,0.1c-0.1,0.4,0.3,0.3,0.5,0.4c0,0.6,0,1.1,0.8,1.1c0.4,0.7,0.3,1.5,0.4,2.3c-0.6,0.5-0.3,0.7,0.3,0.8
	c0.3,0.8,0.5,1.7,1.2,2.2c0.1,0.8,0.4,1.1,1.1,0.5c2,0.5,3.7,1.6,5.4,2.7c0.1,0.5-0.3,1.3,0.5,1.4c0.6,0.1,0.6-0.5,0.6-0.9
	c0.7,0.4,1.3,0.8,2,1.2c0,1.2,0.5,1.6,1.6,1c0.3,0,0.6,0.1,0.7,0.4c-0.3,0.3-0.5,0.5-0.8,0.8c-0.1,0-0.3-0.1-0.3-0.1
	c-0.1,0.3,0,0.4,0.3,0.5c0.6,0,1.1,0,1.6-0.4l0.1-0.1c-0.1,0.3-0.1,0.6-0.2,0.9c-0.2,0.1-0.4,0.2-0.3,0.5c0.1,0,0.2-0.1,0.3-0.1
	c0.6,0.4,1.3,1,1.7-0.3c0.5,0.4,0.9,0.7,1.4,1.1c-0.1,0-0.2,0-0.4,0c-0.4,0.1-0.8,0.2-0.7,0.7c0.1,0.4,0.4,0.4,0.7,0.5
	c0.3,0.3,0.5,0.5,0.8,0.8c0.6,0,1.5,1.9,1.6-0.3c1.1,1,2.3,2.1,3.4,3.1c-0.1,0.7,0.3,1.6-0.4,2.2c-0.4,0.2-0.6,0.4-0.8,0.8
	c-0.4-0.2-0.8-0.3-0.7-0.8c0-0.6-0.4-0.7-0.9-0.7c-0.1-0.1-0.2-0.2-0.3-0.3c0-0.3,0-0.6,0-0.9c-0.2-0.8-0.5-1-1.2-0.3
	c-1.2-0.3-1.8-1.3-2.7-2c0-0.4-0.2-0.7-0.6-0.7c-0.7-0.3-1.5-0.6-2-1.2c-0.1-0.7-0.6-0.7-1.1-0.7c-1.5-0.5-2.6-1.6-3.9-2.4
	c-0.1-1.4-1.5-1.2-2.3-1.8c-0.1-0.2-0.1-0.3-0.2-0.5c-0.1,0.2-0.1,0.3-0.2,0.5c-0.2,0-0.3,0.1-0.5,0.1c-0.7-0.3-1.4-0.6-2.2-0.9
	c-0.1-0.4-0.1-0.9-0.7-0.4c-0.4,0.1-0.7-0.1-0.8-0.5c-0.4-0.3-0.8-0.6-1.4-0.4c-0.6,0-1.3,0-1.7-0.6c-0.6-0.8-2.8-1.5-4.6-1.4
	c-0.3,0-0.5-0.1-0.8-0.1c-0.2-0.8-0.6-0.9-1.1-0.3c-0.9-0.1-1.8-0.3-2.7-0.4c-0.2-0.5,0.6-1.2-0.2-1.5
	C139.2,58,139.2,59.3,138.5,59.4z M201.3,20.6c-0.1-1.2,0.2-2.3-1.2-2c-6.8,1.7-13.8,2.5-20.7,3.7c-1.2,0.2-1.5,0.7-1.6,1.8
	c-0.6,4.7-0.7,9.5-1.5,14.2c-0.3,1.8,0.2,2.2,2,1.7c0.6-0.2,1.2-0.3,1.9-0.5c5.7-1.2,11.5-2.3,17-4.2c0.7-0.2,1.6-0.4,1.7-1.3
	C199.8,29.5,200.6,24.8,201.3,20.6z M174.8,39.8c0-0.3-0.2-0.5-0.5-0.4c-0.2,0.1-0.4,0.3-0.4,0.5c-0.1,0.3,0.2,0.4,0.5,0.4
	C174.6,40.3,174.7,40.1,174.8,39.8z M134.3,57.5c0.7,0.5,1.1,0.2,1.6-0.1C135.3,57.3,134.9,57.2,134.3,57.5z M149.2,60.3
	c0.1-0.3,0.2-0.4,0.2-0.5c-0.1-0.1-0.3-0.2-0.4-0.4c0,0.1-0.1,0.2-0.1,0.3C148.9,59.9,149.1,60.1,149.2,60.3z M110.2,60.9
	c0-0.1,0.1-0.2,0.1-0.3c0,0-0.1-0.1-0.1-0.1c-0.1,0-0.2,0.1-0.2,0.2C110,60.8,110.1,60.8,110.2,60.9z M137.2,58.4
	c0.1,0,0.1-0.1,0.2-0.1c0,0-0.1-0.1-0.1-0.1c0,0-0.1,0-0.2,0.1C137.1,58.3,137.2,58.3,137.2,58.4z M143.1,59.1c0,0.1-0.1,0.1,0,0.2
	c0,0,0.1,0,0.1,0.1c0-0.1,0.1-0.1,0-0.2C143.3,59.1,143.2,59.1,143.1,59.1z"/>
<path class="st4" d="M162.5,65.1c-0.7-0.4-1.3-0.8-2-1.2c-0.3-0.2-0.6-0.6-1.1-0.4c-1.7-1.1-3.4-2.2-5.4-2.7
	c-0.3-0.3-0.7-0.5-1.1-0.5c-0.8-0.5-0.9-1.4-1.2-2.2c0-0.3,0-0.6-0.3-0.8c0-0.8,0-1.6-0.4-2.3c0.1-0.4,0-0.8-0.2-1.2
	c0-1.4,0.1-2.8,0.1-4.2c0.1-0.8,0.3-1.5,0.4-2.3c0.6-1.4,1.2-2.8,1.8-4.1c0.7-0.8,1.5-1.7,2.2-2.5c0,0,0.1,0,0.1,0
	c0.3-0.3,0.7-0.6,1-0.9c2.5-1.6,5.4-4,8.5-4.2c0.3,0.4,1,1.5,1.1,1.6c1.6,1.2,3.3,2.4,5.2,3c0.3,1-0.7,1.1-1.2,1.4
	c-3,2.5-4.5,4.9-4.4,9c0,0.7,0,0.9,0.1,1.7c0,1.3,0.9,2.9,1.3,4c0.2,0.7,0.6,1.3,1,1.8c3.7,5.7,7.7,10.7,12.1,15.9
	c2.6,3,5.4,5.8,7.4,9.4c-0.8-0.1-0.8,0.6-1.1,1.1c-0.9,1.3-0.6,3.1-1.8,4.3c-0.1-0.1-0.2-0.3-0.3-0.4c-0.1-0.6-0.2-1.2-0.7-1.6
	c-1.4-3.2-3.4-6.1-5.8-8.8c-0.4-0.7-0.9-1.3-1.6-1.8c-0.7-0.9-1.2-1.8-2.3-2.3c-1.1-1-2.3-2.1-3.4-3.1c0-0.1-0.1-0.1-0.2-0.1
	c-0.5-0.7-1.1-1.1-1.8-1.5c-0.5-0.4-0.9-0.7-1.4-1.1c-0.5-0.3-1-0.7-1.5-1c0,0-0.1,0.1-0.1,0.1c-0.1-0.4-0.4-0.6-0.8-0.7
	c-0.1-0.3-0.4-0.4-0.7-0.4C163.7,65.6,163.2,65.2,162.5,65.1z"/>
<path class="st0" d="M192.8,189.4c3.5-0.8,7-1.7,10.1-3.7c3.4-2.2,5.8-5.2,7.7-9.2c-3.4,1.3-6.5,2.4-9.4,3.7c-2.3,1-4.4,1.2-6.8-0.1
	c-3.9-2.1-8.1-3.6-12.2-5.4c-3.6-1.6-4.9-4.2-4.7-8c0.1-3-0.5-6-0.3-9c0.1-1.6,0.6-2.7,2.3-2.9c1.4-0.1,2.1-0.8,2.5-2.1
	c0.4-1.3,1.2-2.4,2-3.4c0.1,0.1,0.3,0.3,0.4,0.4c-0.1,0.2-0.2,0.5-0.3,0.7c-0.4,1-1.4,2.2-0.8,3c0.6,0.8,1.9-0.1,2.8-0.4
	c2.5-0.7,5.2-0.7,7.5-2c1.9-1.1,3.8-1.4,5.9-1.1c2.7,0.4,5.1,1.5,7.3,3.1c8.8,6.4,10.5,19.5,3.7,28.9c-4.8,6.7-11.7,9.5-19.7,10.1
	C191.1,190.9,193.3,191.1,192.8,189.4z M198.4,171.4C198.3,171.4,198.3,171.4,198.4,171.4c0,2,0,4.1,0,6.1c-0.1,1.4,0.3,1.6,1.6,1.1
	c3.6-1.5,7.2-2.9,10.9-4.2c0.7-0.2,0.9-0.7,1-1.2c1.3-4.3,0.9-8.4-0.8-12.5c-0.3-0.7-0.6-0.9-1.4-0.6c-3.3,1.2-6.7,2.4-10.1,3.5
	c-0.8,0.3-1.1,0.6-1.1,1.5C198.4,167.2,198.4,169.3,198.4,171.4z M179.6,156.1c1.2,0.9,2.3,1.5,3.5,1.9c4.1,1.3,8.2,2.4,12,4.4
	c1.2,0.6,2.6,0.7,4,0.1c3.1-1.3,6.3-2.4,9.5-3.3c1.3-0.4,1.2-0.8,0.5-1.6c-2.1-2.7-4.7-4.6-7.8-5.9c-0.8-0.4-1.7-0.4-2.6-0.2
	C192.4,152.9,186,154.5,179.6,156.1z M179.1,157.6c-0.3,4,0.7,7.8,0.7,11.6c0,1.1,0.4,1.9,1.4,2.5c5.1,2.9,10.7,4.8,16.3,7.3
	c-0.2-4.4-0.4-8.6-0.1-12.8c0.1-1.5-0.4-2.2-1.8-2.6C190.1,162,184.6,160.2,179.1,157.6z"/>
<path class="st5" d="M105.1,157.4c0.5,5.8-2,10.3-5.9,14.1c-8.9,8.6-19.6,12.2-31.9,10.4c-5.9-0.9-11.2-3.1-14.6-8.5
	c-2.6-4-2.8-8.2-2-12.7c1-5.2,3.3-9.9,5.9-14.4c1.1-1.7,2.3-3.5,3.4-5.2c1.9-3,3-6.1,2.3-9.7c0.2,0,0.4,0,0.6,0
	c1.1,4.3-0.5,8-2.6,11.6c-2.6,4.5-5.3,9-6.7,14.1c-0.9,3.2-1.3,6.4-0.8,9.6c1,5.9,4.9,9.4,10.3,11.1c8.8,2.8,17.4,1.8,25.7-2.4
	c4-2,7.6-4.7,10.8-7.8c4.8-4.7,5.5-10.2,2.4-16.2c-1.3-2.6-3-4.9-4.7-7.2C97.5,143.5,104.7,151.8,105.1,157.4z"/>
<path class="st3" d="M54.4,96c2-0.9,4.1-0.7,6,0c4.1,1.4,8.2,2.8,12.1,4.6c1.3,0.6,1.7,1.3,1.6,2.9c-0.3,3.9-0.3,7.8-0.4,11.6
	c0,1.5-0.4,2.6-1.8,3.4c-3.2,1.9-6.6,3.5-9.9,5.4c-0.7,0.4-1.4,0.6-1.9,1.2c-0.1,0.1-0.2,0.3-0.4,0.4c-2.3,0.5-4.4,1.7-6.5,2.7
	c-2.3,1-4.2,0.7-6.2-0.7c-2.8-1.9-5.6-3.7-8.7-5.1c-2.9-1.5-3.9-4.1-3.9-7.2c0-2.5-0.4-5.1-0.4-7.6c0-1.7-0.7-1.6-1.8-0.8
	c-0.4-0.2-0.5-0.5-0.6-0.9c0.3-0.6,0.8-0.7,1.4-0.7c0.3,0,0.9,0,0.9-0.5c-0.2-2.9,2.3-2.6,3.9-3.3c0,0.5,0,1,0,1.5
	c-0.4,0.2-0.9,0.4-1.4,0.6c4.5,2.4,8.9,4.7,13.2,7.1c0.9,0.5,1.5,0.3,2.3,0c5.6-2.3,11.3-4.7,16.9-7c0.6-0.3,1.4-0.3,1.7-1.1
	c-1.1-1-2.6-1.2-3.9-1.6c-3.5-1.1-6.6-3.3-10.5-3.4C56.1,96.4,54.9,96.7,54.4,96z M51,126.9c2-1,3.8-1.8,5.6-2.7
	c4.6-2.3,9.2-4.7,13.6-7.4c0.6-0.4,1.3-0.8,1.3-1.7c0-3.7,0-7.5,0-11.2c-0.2,0-0.3-0.1-0.3-0.1c-6.4,2.4-12.5,5.5-18.9,7.8
	c-0.8,0.3-1.3,0.9-1.3,1.9C51.1,117.9,51,122.3,51,126.9z M35.5,104.7c0.4,4.8,0.9,9.2,1.3,13.5c0.1,0.7,0.5,1.2,1,1.5
	c3.9,2.5,8.1,4.4,12.1,7.3c0-4.7-0.1-9,0.3-13.3c0.1-0.8,0-1.6-0.8-2C44.8,109.6,40.2,107.6,35.5,104.7z"/>
<path class="st3" d="M228,170.1c0,0.5,0,1,0,1.5c-0.6,0.1-1.1,0.4-1.2,1c-0.1,0.6,0.6,0.7,1,0.9c0,0.3,0,0.5,0,0.8
	c-0.3,0.1-0.7,0-0.6,0.4c0,0.1,0.4,0.2,0.6,0.3c-0.1,0.6-0.1,1.2-0.2,1.9c-0.8,0.1-1.4,0.4-1.3,1.3c0.1,1.6-0.7,2.9-0.9,4.3
	c-0.2,0.9-1.6,1.8-0.4,2.9c0,0.5-0.3,0.8-0.6,1.1c-1.1,0.3-2,1.4-2.3,2.1c-0.5,1.6-1.8,2.4-3,3.2c-1,0.7-1.8,1.4-1.6,2.8
	c-0.1,0.1-0.3,0.2-0.4,0.4c-0.4-0.6-0.7-1.5-1.5-0.4c-0.5,0.2-0.8,0.6-0.8,1.1c-0.4,0.1-1-0.2-1.2,0.2c-0.2,0.3,0.1,0.7,0.5,0.9
	c-1.3,1-2.7,1.7-4.2,2.3c0-0.3,0.1-0.8-0.3-1c-0.1,0-0.3,0.2-0.4,0.3c-0.1,0.4,0.2,0.6,0.6,0.7c-1.1,0.5-2.2,0.9-3.4,1.4
	c-1.3-1.4-1.9-0.4-2.4,0.8c-0.5,0.3-0.9,0.6-1.5,0.5c0-0.3,0-0.6-0.4-0.6c-0.1,0-0.2,0.3-0.4,0.5c-0.5,0.5-1.1,0.9-1.9,0.8
	c-0.1-0.3-0.1-0.7-0.5-0.6c-0.5,0.1-0.6,0.5-0.7,1c-1.7,0.5-3.5,0.9-5.3,0.9c-0.6-0.3-1.3-1.6-1.6,0.2c-0.9,0.1-1.8,0.5-2.7,0.2
	c-0.3-0.4-0.5-0.8-0.8-1.2c8.6-1.7,16.9-4.4,24.5-9c0.7,0.3,1.3,0.6,1.1-0.7c1.3-1.1,2.7-2.2,4-3.4c1.6,0.5,1.5-0.5,1.4-1.5
	c1.7-2.4,3.1-5,4.1-7.8c1.1-0.1,1.1-0.7,0.6-1.5c1.1-5.8,1.4-11.7,0.1-17.6c-1.8-8-6-14-13.5-17.6c-5.3-2.5-10.8-2.6-16.4-1.3
	c-0.1-0.2-0.1-0.5-0.2-0.7c8.3-3,15.9-1.7,22.9,3.5c1.3,0.9,2.5,1.9,3.5,3.3c-0.3,0.1-0.6,0.3-0.4,0.6c0.2,0.3,0.7,0.2,1,0.2
	c1.8,0.5,3.6,1.1,5.5,1.5c1.3,0.3,1.7,1,1.7,2.3c-0.2,4.4-0.3,8.7-0.4,13.1c-0.9,0.5-0.9,0.5,0.1,1.9c0.1,0.1,0.2,0.3,0.3,0.4
	c0,0.1-0.1,0.2-0.1,0.4c-0.2,0-0.5,0.1-0.5,0.4C227.5,170,227.8,170.1,228,170.1z M224.7,155.5L224.7,155.5c0.3,0.9-1,2.5,1.1,2.7
	c0.3-0.1,0.5,1.2,0.7,0.1c0.2-1.6,0.1-3.3,0.1-4.9c-0.6-0.2-1.1,0.7-1.8,0.1c0.6-1,0.5-1.6-0.8-1.8c-0.4-0.1-0.8-0.3-1.2-0.4l0,0
	l0,0c0.2,0.5,0.3,0.9,0.5,1.4c0,0.4-0.6,0.8-0.1,1.1c0.3,0.2,0.4-0.3,0.4-0.6c0.4,0.2,1-0.3,1.3,0.4c0.2,0.5-0.7,0.6-0.5,1.1
	C224.1,155.1,224,155.6,224.7,155.5z M226.9,162.1c-0.2-0.2-0.3-0.3-0.4-0.3c-0.1,0-0.4,0.1-0.4,0.2c-0.1,0.3,0.1,0.4,0.4,0.4
	C226.5,162.3,226.7,162.2,226.9,162.1z M226.5,165c0.1,0,0.1,0.1,0.2,0c0,0,0-0.1,0-0.1c-0.1,0-0.1-0.1-0.2,0
	C226.5,164.8,226.5,164.9,226.5,165z"/>
<path class="st6" d="M38.4,122.5c3.1,1.4,5.9,3.2,8.7,5.1c2,1.4,3.9,1.7,6.2,0.7c2.1-0.9,4.2-2.1,6.5-2.7c0.1,0,0.3,0,0.4,0
	c0,0,0,0,0,0c0.3,2.1,1.7,3.7,2,5.8c0.7,3.6-0.4,6.8-2.3,9.7c-1.1,1.8-2.3,3.5-3.4,5.2c-1.8-1.9-3.4-3.9-4.9-6
	c-0.6-0.9-1-0.8-1.1,0.3c0,0-0.1,0-0.2,0c-0.1,0-0.1-0.1-0.2-0.1c-0.5-1,0.6-2,0-3c0.3-2.5-0.7-4.5-2.3-6.2c-2-2.2-4.5-3.4-7.2-4.5
	c0.1-0.8-0.4-1.3-0.8-1.8C39.2,124.2,38.4,123.5,38.4,122.5z"/>
<path class="st3" d="M97.3,144.3c-0.5-0.7-1-1.4-1.5-2c0.1-0.5-0.1-0.9-0.7-0.9c-3.6-3.6-6.8-7.5-9.9-11.5
	c-3.9-5.1-6.7-10.7-7.8-17.1c-1.6-8.7-0.8-17.1,2.4-25.4c1-2.6,2.3-5,3.5-7.5c0.8,0.4,1.3-0.3,1.9-0.6c0,0,0,0,0,0
	c-0.3,1.1,0.5,1.5,1.2,2c-0.3,0.5-0.6,1-0.8,1.5c-0.8-0.5-1.1-0.1-1.4,0.6c-0.5,1.1-1,2.2-1.8,3.1c-1,1.1-0.5,1.6,0.5,2.1
	c0,0.3-0.1,0.6-0.4,0.8c-1.7-0.5-1.1,1.2-1.6,1.8c-0.5,0.4,0.2,0.8,0.7,0.9c0,0.3,0,0.5,0,0.8c-2.8,2.9-2.8,4.3-1.5,7.3
	c0,0.3,0,0.5-0.1,0.8c-0.8-0.4-1.8-0.2-1.4,0.8c0.4,1.1,0.2,1.9-0.1,2.8c-0.4,1.3,0.3,1.4,1.2,1.4c0,0.5,0,1,0,1.5
	c-0.4,0.3-0.4,0.5,0,0.8c0.1,0.4,0.2,0.8,0.3,1.1c-0.3,0.1-0.6,0.1-0.6,0.5c0,0.5,0.3,0.6,0.7,0.6c0,0.2,0.1,0.5,0.1,0.7
	c-0.6,0.5-0.6,0.9,0.2,1.2c0.2,0.4,0.4,0.7,0.2,1.1c-0.7,0.3-1.1-0.8-2-0.4c0.7,0.9,2.1,1.3,1.5,2.7l0,0c-0.5,0-0.8,0.3-0.8,0.8
	c0.1,1,0.6-0.2,0.9,0.2c0.2,0.3,0.6,0.3,1,0.5c0,0.5,8.7,16,9.1,16.3c0.2,0.2,1,2.2,1.5,2.7C92.3,136.5,97.5,143.5,97.3,144.3z
	 M78,102.8c-0.1,0-0.2-0.2-0.3-0.1c-0.1,0-0.1,0.2-0.1,0.3c0.1,0,0.2,0.2,0.3,0.1C78,103.1,78,103,78,102.8z"/>
<path class="st2" d="M187.6,83.4c-1.9-3.5-4.8-6.3-7.4-9.4c-4.4-5.2-8.9-10.2-12.7-15.9c0.6-0.1,1,0.1,1.3,0.5
	c4.4,5.5,9.8,10,14.7,15c7.6,7.8,13.6,16.7,15.8,27.6c0.1,0.3,0,0.6,0,0.9c-0.4,0.1-0.8,0.1-0.7,0.7c0.1,0.5,0.5,0.4,0.9,0.5
	c0.1,0.6,0.1,1.3,0.2,1.9c-1,0.6-1,1.1,0.1,1.6c0.3,0.8,0.2,1.6,0.1,2.4c-0.7,0-1.1-0.5-1.5-0.9c-0.4-0.4-0.9-1.2-1.7-0.7
	c-0.2-4.1-1.1-8.1-2.5-11.9C192.7,91.2,190.7,87,187.6,83.4z"/>
<path class="st5" d="M156.4,169.3c3.6-3.5,7.4-6.7,10.8-10.3c6-5.5,11.5-11.5,16.7-17.8c2.6-3.2,4.6-6.8,7.1-10.2
	c1.4,0.8,2.3,0.4,3-1.1c0.4-0.9,0.6-2.3,2.1-2.4c-2.7,5.5-6.3,10.3-10.3,14.9c-8.4,9.6-17.7,18-27.5,26.1
	C157.7,169,157.2,169.5,156.4,169.3z"/>
<path class="st2" d="M40.7,126.8c2.7,1,5.2,2.3,7.2,4.5c1.6,1.8,2.7,3.7,2.3,6.2c-2.2-4.9-6.4-7.2-11.3-8.6c-2-0.6-4-1.2-5.9-2.2
	c-3.5-1.7-5.2-4.7-5.4-8.5c-0.3-3.9-0.2-7.8,2.6-11c0.5-0.5,0.9-1.1,1.6-1.3c0,0.4,0.2,0.7,0.6,0.9c-2.9,3.4-3.1,7.4-2.5,11.5
	c0.4,3,1.8,5.2,4.7,6.4C36.5,125.7,38.5,126.3,40.7,126.8z"/>
<path class="st3" d="M192.8,189.4c0.4,1.7-1.7,1.5-1.9,2.8c-0.9,0-1.8,0.1-2.7,0.1c-0.4-0.5-0.8-0.5-1.1,0c-0.6,0-1.3,0.1-1.9,0.1
	c-0.4-0.6-1.1-0.6-1.4-0.1c-0.4,0.5-0.7,1.3-0.7,1.9c0,0.7,0.8,0.3,1.3,0.4c0.3,0.3,0.3,0.7,0.3,1.1c-0.6,0.3-0.8,0.6,0,0.8
	c0,0.3,0,0.5,0.1,0.8c-1.8,0.8-0.7,1.6,0,2.4c0,0.2,0,0.4,0,0.7c-0.2,0.1-0.5,0.2-0.5,0.4c-0.1,0.3,0.2,0.4,0.5,0.4
	c0,2.4,0,2.4,2.5,2.2c0.1,0,0.3,0,0.4,0c0,0.4,0,0.8,0,1.2c-0.7,0-1.4,0.2-2.1,0.1c-1-0.2-1.5,0.3-1.8,1.2c-0.6,0.1-1,0.3-0.2,0.8
	c-0.1,0.7-0.3,1.4-0.8,1.9c-0.3,0-0.6-0.1-0.7,0.3c-0.1,0.3,0.2,0.4,0.4,0.5c-0.4,0.8-0.8,1.6-1.4,2.2c-0.2,0-0.5,0-0.7,0
	c-0.1-0.1-0.3-0.1-0.4-0.2c2.8-5.6,3.4-11.5,2.2-17.5c-0.9-4.3-3-8.1-6.2-11.2c-0.5-0.5-1.1-1.1-1.6-1.6c0.2-0.1,0.5-0.2,0.7-0.2
	c0.6-0.1,1.2-0.2,1.9-0.4c1.8,1.4,3.2,3.2,4.3,5.2c0.1,1.2,0.3,2.3,1.5,2.8c0.5,1.3,1.4,1.7,2.8,1.5
	C187.8,189.7,190.3,189.6,192.8,189.4z"/>
<path class="st3" d="M148.7,172.2c1.9-0.4,3.8-0.6,5.6-1.3c0.9-0.3,1.2,0.1,1.8,0.2c3.6-0.2,6.8,0.9,10,2.4c0.1,0.5,0.2,0.9,0.8,0.3
	c2.4,0.9,4.6,2.1,6.5,3.8c0,0.6-0.2,1.4,0.7,1.6c0.7,0.2,0.8,0.8,0.8,1.5c-0.2,0.1-0.5,0.2-0.7,0.2c-3.3-2.7-7-4.5-10.8-6.4
	c-0.1-0.6-0.3-0.9-0.8-0.2c-1.1-0.3-2.3-0.6-3.4-0.9c-0.1-0.2-0.2-0.5-0.3-0.5c-0.3-0.1-0.4,0.2-0.4,0.4c-2.7-0.4-5.4-0.3-8,0.3
	c-0.6-0.7-0.7-0.2-0.8,0.3c-0.1,0.1-0.2,0.1-0.3,0.2c-0.1-0.2-0.2-0.5-0.5-0.4c-0.4,0.1-0.3,0.5-0.2,0.8c-1.8,1.4-3.2,3.1-3.7,5.4
	c-0.3,1.5,0,2.9,0.8,4.2c-0.3,0.1-0.6,0.1-0.8,0.2c-2-2.7-1.6-6.4,0.9-9.4C146.4,174.1,148.5,172.3,148.7,172.2z"/>
<path class="st3" d="M196.1,127.5c-1.5,0-1.7,1.4-2.1,2.4c-0.7,1.5-1.6,1.9-3,1.1c1.1-2.7,2.3-5.4,3.4-8.1c0.5-0.1,0.9-0.2,0.4-0.8
	c1.1-3.9,1.8-7.8,2-11.9c0.4,0,0.9,0,0.9-0.6c0-0.6-0.4-0.9-0.9-1c0-0.4-0.1-0.8-0.1-1.1c0.9-0.5,1.3,0.3,1.7,0.7
	c0.5,0.5,0.9,0.9,1.5,0.9c0,0.2,0,0.5,0,0.7c-0.3,0-0.6-0.1-0.8,0.2c0,0,0,0.1,0,0.1c0.3,0.2,0.5-0.1,0.8-0.2
	c0.2,0.3,0.2,0.6,0.1,0.9c-1.7,0.2-1,1.7-1.4,2.6c-0.3,0.7,0,1.5,1,1.6c0,0.3-0.1,0.5-0.1,0.8c-1.9,0.1-1.5,1.6-1.7,2.7
	c-0.3,1.5,0.2,3.5-0.9,4.3c-1.6,1.1-0.4,2.7-1.3,3.8c0.2,0.1,0.4,0.3,0.6,0.4C196.3,127.3,196.2,127.4,196.1,127.5z"/>
<path class="st5" d="M202.3,6.3c-0.7,0-1.4,0.1-2.1,0.1c-4.5-5.6-13.3-5.9-17.7-1.7c-0.2,0-0.4-0.1-0.7-0.1
	c4.2-5.2,12.9-5.8,18.1-1.1C200.9,4.4,201.7,5.2,202.3,6.3z"/>
<path class="st5" d="M37.9,102.9c0-0.5,0-1,0-1.5c4.4-2.2,9.2-3.1,13.8-4.7c0.9-0.3,1.8-0.5,2.7-0.8c0.5,0.7,1.7,0.4,1.9,1.4
	c-1.3,0-2.5,0.3-3.7,0.7C47.7,99.7,42.8,101.3,37.9,102.9z"/>
<path class="st5" d="M164.8,5.8c0.3-0.6,0.5-1.2,0.8-1.8c2.8-0.6,5.6-0.9,8.4-0.8c0.1,0.6,0.3,1.2,0.4,1.8
	C171.2,5.2,168,5.5,164.8,5.8z"/>
<path class="st5" d="M197.8,118.7c0.2-1.1-0.2-2.6,1.7-2.7c-0.4,3.9-1.8,7.6-3.3,11.2c-0.2-0.1-0.4-0.3-0.6-0.4
	c0.9-1.1-0.3-2.7,1.3-3.8C198.1,122.2,197.5,120.1,197.8,118.7l0.2-0.1l-0.1-0.1L197.8,118.7z"/>
<path class="st7" d="M184.4,149.8c-0.1-0.1-0.3-0.3-0.4-0.4c1.6-2.3,3.5-4.3,6-5.5c0,0.2,0.1,0.5,0.1,0.7
	C188,146,186.1,147.8,184.4,149.8z"/>
<path class="st5" d="M199.7,115.2c-1-0.1-1.3-0.9-1-1.6c0.4-0.9-0.3-2.5,1.4-2.6C200.2,112.4,200,113.8,199.7,115.2z"/>
<path class="st7" d="M62.2,131.4c-0.3-2.1-1.7-3.7-2-5.8c1.7,1.6,2.1,3.7,2.6,5.8C62.6,131.3,62.4,131.3,62.2,131.4z"/>
<path class="st0" d="M174.8,180.8c0-0.6-0.1-1.3-0.8-1.5c-1-0.3-0.7-1-0.7-1.6c1.4,0.6,2.4,1.7,3.4,2.8
	C176.1,180.6,175.5,180.7,174.8,180.8z"/>
<path class="st5" d="M190.2,144.6c0-0.2-0.1-0.5-0.1-0.7c1.2-0.9,2.5-1.5,3.9-1.8c0.1,0.2,0.1,0.5,0.2,0.7
	C192.8,143.4,191.5,144,190.2,144.6z"/>
<path class="st7" d="M119.2,218.4c-0.6-0.6-1.1-1.1-0.1-2c0.6-0.5-0.3-1.9,0.6-2.6C119.8,215.4,119.9,216.9,119.2,218.4z"/>
<path class="st5" d="M206.8,23.6c-1.2-1.3-0.7-3.7,0.9-3.9C207.7,21.1,207.5,22.4,206.8,23.6z"/>
<path class="st5" d="M203.2,29.4c-0.4-1.7,0.2-2.6,2.1-2.7C204.8,27.8,204.1,28.6,203.2,29.4z"/>
<path class="st5" d="M207.7,18.9c-2.2-0.3-1.6-2.7-0.5-3.4C207.8,16.6,207.7,17.8,207.7,18.9z"/>
<path class="st5" d="M206.8,14.3c-2.1,0.6-2.1-1.5-1.3-2.7C206.2,12.3,206.6,13.3,206.8,14.3z"/>
<path class="st0" d="M182.5,188.5c-1.3-0.5-1.4-1.6-1.5-2.8C181.7,186.5,182.2,187.4,182.5,188.5z"/>
<path class="st5" d="M227.8,168.6c-1-1.5-1-1.5-0.1-1.9C227.7,167.3,228.2,167.9,227.8,168.6z"/>
<path class="st5" d="M201.9,30.9c-1-1.8,0.7-1,1.2-1.2C202.7,30.1,202.3,30.5,201.9,30.9z"/>
<path class="st7" d="M61.3,216.1c1-0.2,1.4,0.6,2,1.1c-0.1,0.1-0.3,0.2-0.4,0.4C62.2,217.3,61.7,216.8,61.3,216.1z"/>
<path class="st5" d="M199.9,106.8c-1.1-0.4-1.2-0.9-0.1-1.6C200.1,105.7,200.2,106.2,199.9,106.8z"/>
<path class="st2" d="M146.1,58c-0.6,0.3-1.4,1.5-1.5-0.4C145.1,57.7,145.6,57.7,146.1,58z"/>
<path class="st5" d="M85.1,79.2c-0.6,0.3-1.1,1-1.9,0.6c0.2-0.3,0.4-0.7,0.6-1C84.3,78.8,84.8,78.7,85.1,79.2z"/>
<path class="st5" d="M199.6,103.3c-0.4,0-0.8,0-0.9-0.5c-0.1-0.5,0.3-0.6,0.7-0.7C199.4,102.6,199.5,103,199.6,103.3z"/>
<path class="st5" d="M206.1,25.2c-1.4-0.7-0.3-1.4,0.5-1.3C206.6,24.4,206.6,24.9,206.1,25.2z"/>
<path class="st5" d="M221,149.7c-0.4,0-0.8,0.2-1-0.2c-0.2-0.4,0.1-0.5,0.4-0.6C220.6,149.2,220.8,149.4,221,149.7z"/>
<path class="st2" d="M161.6,34.4c0.4,0,0.9-0.1,0.9,0.6c0,0.5-0.5,0.4-0.8,0.4C162.1,35,161.9,34.7,161.6,34.4z"/>
<path class="st5" d="M93.2,67.7c0,0.6-0.2,1.1-1,1C92.5,68.4,92.8,68.1,93.2,67.7z"/>
<path class="st5" d="M95.1,141.3c0.6,0,0.8,0.4,0.7,0.9C95.4,142,95.2,141.7,95.1,141.3z"/>
<path class="st0" d="M166.8,173.9c-0.6,0.6-0.7,0.2-0.8-0.3C166.3,173.6,166.6,173.6,166.8,173.9z"/>
<path class="st5" d="M115.4,57.3c0,0.2,0,0.6-0.3,0.6c-0.3,0.1-0.4-0.2-0.4-0.5C114.9,57.4,115.1,57.3,115.4,57.3z"/>
<path class="st2" d="M148.5,46.5c0.7,0.4,0.5,0.7-0.1,0.8C148.4,47.1,148.5,46.8,148.5,46.5z"/>
<path class="st5" d="M200,110.1c-0.3,0-0.5,0.4-0.8,0.2c0,0,0-0.1,0-0.1c0.2-0.3,0.5-0.2,0.8-0.2C200,109.9,200,110.1,200,110.1z"/>
<path class="st2" d="M148.4,47.7c0.2,0.1,0.3,0.1,0.5,0.2c-0.2,0.1-0.3,0.1-0.5,0.2C148.4,48,148.4,47.8,148.4,47.7z"/>
<path class="st7" d="M60.2,125.5c-0.1,0-0.3,0-0.4,0c0.1-0.1,0.2-0.3,0.4-0.4C60.2,125.3,60.3,125.4,60.2,125.5z"/>
<path class="st7" d="M60.1,214.8c0.3,0.1,0.6,0.2,0.4,0.6C60.2,215.3,60.2,215.1,60.1,214.8z"/>
<path class="st7" d="M60.5,215.4c0.4-0.1,0.6,0,0.4,0.4C60.7,215.8,60.5,215.6,60.5,215.4z"/>
<path class="st7" d="M60.9,215.7c0.4-0.1,0.7-0.1,0.4,0.4C61.2,216,61,215.9,60.9,215.7z"/>
<path class="st5" d="M217.4,194.6c-0.2-1.4,0.6-2,1.6-2.8c1.2-0.9,2.4-1.6,3-3.2c0.2-0.7,1.1-1.8,2.3-2.1
	C222.9,190.1,220.4,192.5,217.4,194.6z"/>
<path class="st5" d="M224.9,185.5c-1.2-1.1,0.3-2,0.4-2.9c0.2-1.4,1.1-2.8,0.9-4.3c-0.1-0.9,0.5-1.2,1.3-1.3
	C227.1,179.9,226.5,182.9,224.9,185.5z"/>
<path class="st3" d="M178,214.1c0.6-0.9,1.2-1.8,1.8-2.7c0.1,0.1,0.3,0.1,0.4,0.2c0,0.4,0,0.8,0,1.1c-0.3,0.7-0.8,1.2-1.4,1.6
	C178.5,214.2,178.2,214.1,178,214.1z"/>
<path class="st0" d="M204,201.5c0.5-1.2,1-2.2,2.4-0.8C205.6,201.1,204.8,201.4,204,201.5z"/>
<path class="st5" d="M227.8,173.5c-0.4-0.3-1.1-0.3-1-0.9c0.1-0.6,0.6-0.9,1.2-1c0,0.6,0,1.2,0,1.8
	C227.9,173.5,227.9,173.5,227.8,173.5z"/>
<path class="st0" d="M214.7,195.8c0-0.6,0.3-0.9,0.8-1.1c0.1,0.4,0.2,0.7,0.4,1.1c-0.3,0.4-0.6,0.7-1.1,0.8
	C214.7,196.3,214.7,196,214.7,195.8z"/>
<path class="st5" d="M215.8,195.7c-0.1-0.4-0.2-0.7-0.4-1.1c0.8-1.2,1.1-0.2,1.5,0.4C216.8,195.6,216.4,195.7,215.8,195.7z"/>
<path class="st5" d="M214.7,195.8c0,0.3,0,0.5,0,0.8c-0.1,0.3-0.4,0.4-0.7,0.4c-0.3-0.2-0.7-0.6-0.5-0.9
	C213.7,195.6,214.3,195.9,214.7,195.8z"/>
<path class="st0" d="M187.5,204.5c0-0.4,0-0.8,0-1.2c0.2-0.1,0.5-0.1,0.7-0.2c0.3,0.4,0.5,0.8,0.8,1.2
	C188.5,204.5,188,204.5,187.5,204.5z"/>
<path class="st0" d="M191.7,204.2c0.2-1.9,1-0.6,1.6-0.2C192.8,204.3,192.2,204.3,191.7,204.2z"/>
<path class="st0" d="M198.6,203c0-0.4,0.2-0.9,0.7-1c0.4-0.1,0.4,0.3,0.5,0.6C199.4,202.8,199,202.9,198.6,203z"/>
<path class="st0" d="M209.7,199.3c-0.4-0.1-0.7-0.3-0.6-0.7c0-0.1,0.3-0.3,0.4-0.3C209.8,198.5,209.7,198.9,209.7,199.3L209.7,199.3
	z"/>
<path class="st0" d="M180.2,212.7c0-0.4,0-0.8,0-1.1c0.2,0,0.5,0,0.7,0C180.8,212,180.6,212.4,180.2,212.7z"/>
<path class="st5" d="M227.7,175.1c-0.2-0.1-0.5-0.2-0.6-0.3c-0.1-0.4,0.3-0.4,0.6-0.4C227.7,174.6,227.7,174.8,227.7,175.1z"/>
<path class="st0" d="M201.7,201.9c0.1-0.2,0.2-0.5,0.4-0.5c0.4-0.1,0.4,0.3,0.4,0.6C202.2,201.9,201.9,201.9,201.7,201.9z"/>
<path class="st0" d="M183.4,206.6c-0.7-0.5-0.4-0.7,0.2-0.8C183.7,206.1,183.7,206.4,183.4,206.6z"/>
<path class="st0" d="M182.3,209.3c-0.2-0.1-0.5-0.2-0.4-0.5c0.1-0.4,0.4-0.3,0.7-0.3C182.5,208.8,182.4,209,182.3,209.3z"/>
<path class="st8" d="M173.4,230.2c-5.2,2.2-10,4.6-14.5,7.5c-0.6,0.4-1.2,0.3-1.8-0.1c-6.3-4-13.1-6.8-19.6-10.3
	c-1.9-1-3.7-2.2-5.6-3.4c-0.3-0.2-0.8-0.3-0.7-0.8c0.1-0.2,0.5-0.4,0.7-0.5c5-1.6,9.9-3.2,14.9-4.9c0.8-0.3,1.4,0.1,2,0.5
	c5.9,3.6,12.2,6.4,18.5,9.1C169.4,228.1,171.2,229.1,173.4,230.2z"/>
<path class="st9" d="M157.5,253.4c-3.8-1.9-6.9-4.2-10.3-6.3c-4.9-3.1-9.6-6.2-14.4-9.5c-1.2-0.8-1.9-1.8-2-3.3
	c-0.2-2.9-0.4-5.7-0.6-8.6c-0.1-1,0.1-1.7,1.3-0.8c7.6,5.4,16.2,9.2,24.3,13.7c1.2,0.7,1.8,1.5,1.7,3
	C157.5,245.5,157.5,249.3,157.5,253.4z"/>
<path class="st10" d="M68.2,220.7c0,0,0.1-0.1,0.1-0.1c0.5-5.1,4.9-5.7,8.5-4.8c4.1,1,8.2,5.6,8.6,9.8c0.1,1.2,0.4,2.6-1.2,3.3
	C78.3,227.4,73.1,224.5,68.2,220.7z"/>
<path class="st10" d="M119.4,177.8c2,0.5,4,0.5,5.7,2.2c4.1,4,2.8,10.4-1.3,13c-1.8,1.2-3.6,2.4-5.9,2.5c-0.1-0.3-0.3-0.5-0.4-0.8
	c-0.1-1-0.1-2-0.2-3c0.3-0.3,0.1-0.6-0.1-0.8c0-0.4,0-0.8,0-1.1c0-0.3,0-0.5,0-0.8c0-0.1,0-0.3,0-0.4c0.2-2,0.5-4.1,0.7-6.1
	c0.1-0.3,0.2-0.5,0.2-0.8C118.6,180.4,119.3,177.9,119.4,177.8z"/>
<path class="st11" d="M158.9,246.2c0-2,0.1-4,0-5.9c0-1,0.6-1.5,1.3-1.9c4.7-2.4,9.4-4.7,14-7c1.2-0.6,1.8-0.4,1.7,1
	c-0.3,3.3-0.5,6.6-0.8,9.9c-0.1,0.8-0.7,1.2-1.3,1.5c-2.8,1.7-5.6,3.2-8.4,4.9c-1.7,1-3.3,2.2-4.9,3.3c-1.2,0.8-1.5,0.4-1.5-0.9
	c0.1-1.7,0-3.3,0-5C159,246.2,159,246.2,158.9,246.2z M168.3,245.3c0.4-0.2,0.7-0.4,0.7-0.8c-0.1-2.8-0.1-5.7-0.4-8.5
	c-0.1-1.1-0.7-0.3-1.1,0.1c-0.5,0.1-0.8,0.4-0.8,0.9c0,2.7-0.1,5.4,0,8.1C166.9,246.5,167.7,246.1,168.3,245.3z M170.2,234.5
	c-0.5,0.4-0.4,0.9-0.4,1.4c0,2.5,0,5,0,7.4c0,0.6-0.3,1.5,0.7,1.4c0.8,0,1.2-0.6,1.2-1.4c0-2.8,0-5.6,0-8.4c0-0.4,0.1-1-0.5-1.1
	C170.7,233.8,170.4,234.1,170.2,234.5L170.2,234.5z M165.6,247.2c0.4-0.2,0.7-0.4,0.6-0.8c-0.5-2.7-0.1-5.3-0.3-8
	c0-0.6,0-1.4-0.9-1.3c-0.7,0.1-1.4,0.4-1.4,1.4c0.1,2.9-0.2,5.7,0.4,8.6C164.4,248.4,165,248.1,165.6,247.2L165.6,247.2z
	 M160.3,243.7c-0.4,1.6,0.4,3.5,0.4,5.5c0,0.4-0.2,1,0.3,1.2c0.5,0.3,0.9-0.2,1.4-0.5c0.7-0.5,0.7-1.2,0.7-1.9c0-2.7-0.6-5.3-0.4-8
	c0-0.5,0.5-1.5-0.6-1.5c-0.7,0-1.7,0.4-1.7,1.5C160.2,241.2,160.3,242.2,160.3,243.7z M172.6,238C172.5,238,172.5,238,172.6,238
	c0,1.1-0.1,2.3,0,3.4c0,0.5-0.3,1.3,0.5,1.4c0.8,0.1,1-0.7,1.2-1.2c0.2-0.5,0.1-1.1,0.1-1.7c0-1.9,0-3.8,0.1-5.7
	c0-0.6,0.7-1.3-0.3-1.5c-0.9-0.1-1.5,0.5-1.6,1.3C172.5,235.3,172.6,236.7,172.6,238z"/>
<path class="st7" d="M117.6,194.6c0.1,0.3,0.3,0.5,0.4,0.8c0,0.6,0,1.3,0,1.9C117,196.1,116.9,195.4,117.6,194.6z"/>
<path class="st2" d="M114.4,191.3c0-0.2,1.2-0.7,1.1-0.1C115.4,191.8,114.8,191.4,114.4,191.3z"/>
<path class="st2" d="M117.3,189.7c0,0.4,0,0.8,0,1.1c-0.1,0-0.3,0-0.4,0C116.3,190.1,116.5,189.8,117.3,189.7z"/>
<path class="st2" d="M118.3,181.6c-0.1,0.3-0.2,0.5-0.2,0.8C117.5,181.9,117.8,181.7,118.3,181.6z"/>
<path class="st7" d="M116.9,190.8c0.1,0,0.3,0,0.4,0c0.2,0.2,0.3,0.5,0.1,0.8C117,191.5,116.9,191.2,116.9,190.8z"/>
<path class="st7" d="M113.9,191.5c0.2,0,0.3-0.1,0.5-0.1c0.1,0.3,0.3,0.6-0.1,0.7C113.9,192.2,113.9,191.8,113.9,191.5z"/>
<path class="st5" d="M119,201.2c0.1,0.1,0.1,0.2,0.1,0.3c-0.2,0-0.4,0-0.7-0.1C118.6,201.3,118.8,201.2,119,201.2z"/>
<path class="st7" d="M117.4,188.5c0,0.1,0,0.3,0,0.4C117,188.7,117,188.6,117.4,188.5z"/>
<path class="st5" d="M228,170.1c-0.2,0-0.5-0.1-0.5-0.4c0-0.3,0.3-0.3,0.5-0.4C228,169.6,228,169.8,228,170.1z"/>
<path class="st6" d="M196.8,110.2c-0.2,4-0.9,8-2,11.9c-0.1,0.3-0.2,0.5-0.4,0.8c-1.1,2.7-2.3,5.4-3.4,8.1c-2.5,3.3-4.5,7-7.1,10.2
	c-5.2,6.3-10.7,12.3-16.7,17.8c-5.8-1.8-11.6-1.7-17.4,0c-1.4,0.4-2.2,2-3.9,1.8c0.2-0.4,0.4-0.9,0.6-1.3c1.8-1.8,3.5-3.7,5-5.8
	l0.1-0.1c0.9-0.3,1.4-1,1.9-1.7c0.1,0,0.1,0,0.2-0.1c0.4-0.3,0.8-0.7,1.2-1c0.9-0.6,1.8-1.3,2.7-1.9c0.1-0.1,0.2-0.2,0.4-0.3
	c0.4-0.1,0.7-0.3,0.8-0.7c0.4-0.1,0.6-0.3,0.7-0.8c0.5,0.1,0.8-0.1,0.8-0.6c0.1,0,0.2,0,0.4-0.1c0.2,0,0.4,0,0.4-0.3l0,0
	c0.7-0.4,1.4-0.8,1.7-1.6c0.2-0.1,0.3-0.2,0.5-0.4c0.3,0.1,0.4-0.1,0.4-0.3c0.4-0.1,0.7-0.2,0.8-0.6c0.4-0.3,0.7-0.6,1.1-1
	c0.3-0.1,0.5-0.2,0.5-0.6l0,0c1.6-0.4,2.5-1.8,3.6-2.7c1.1-0.6,1.8-1.6,2.6-2.5c0.1,0,0.1-0.1,0.1-0.2c0.7-0.6,1.7-1,2-2.1
	c0.1,0,0.2-0.1,0.3-0.2c0.4-0.2,0.7-0.5,0.9-1c0.2-0.3,0.5-0.5,0.7-0.8c0.1-0.3,0.3-0.5,0.4-0.8l0,0c0.7-0.5,1.4-1,1.5-2
	c0.5-0.3,0.9-0.8,1-1.4c0.9-0.7,1.2-1.8,1.7-2.8l0,0c0.4-0.1,0.4-0.4,0.3-0.8c0.1-0.1,0.1-0.2,0.1-0.4c0.8,0,0.7-0.7,0.8-1.1
	c0.6-0.2,0.6-0.7,0.7-1.2c0.3-0.2,0.4-0.4,0.4-0.8c0.3-0.3,0.5-0.7,0.4-1.2c0.2-0.2,0.7-0.3,0.6-0.8c0.1-0.2,0.1-0.5,0.2-0.7
	c0.2-0.4,0.3-0.8,0.5-1.1c0.1-0.4,0.2-0.7,0.2-1.1c0.3-0.2,0.4-0.5,0.4-0.9c0.1-0.5,0.3-1,0.4-1.6c0.3-1.4,0.9-2.7,0.8-4.2
	c0-0.3,0.1-0.5,0.1-0.8c0.4-1.3,0.6-2.5,0.3-3.8c0.2-0.4,0-0.8-0.1-1.2c0.5-0.7,0.4-1.5,0-2.3c0-0.3,0-0.5,0-0.8
	c0.1-1.2,0.1-2.3-0.3-3.5c-0.1-0.3-0.1-0.5-0.2-0.8c0.1-1.3-0.2-2.6-0.7-3.8c0-0.8-0.2-1.6-0.7-2.3c-0.1-0.3-0.2-0.5-0.3-0.8
	c0-0.1-0.1-0.2-0.1-0.4c0-0.2,0-0.5,0-0.7c1.2-1.2,0.9-3,1.8-4.3c0.3-0.4,0.2-1.2,1.1-1.1c3.1,3.6,5.1,7.8,6.7,12.3
	c1.4,3.8,2.3,7.8,2.5,11.9c0,0.4,0.1,0.8,0.1,1.1C196.6,109.2,196.7,109.7,196.8,110.2z"/>
<path class="st10" d="M85.4,82.6c0.3-0.5,0.6-1,0.8-1.5c1-1.5,2.1-3.1,3.1-4.6c0.2-0.2,0.4-0.4,0.6-0.7c0.9-1.1,1.9-2.1,2.8-3.2l0,0
	c0.5-0.2,0.8-0.7,1.1-1.2c0.1-0.1,0.2-0.2,0.3-0.3c1.7-1.3,3.4-2.6,5-4c0.7-0.4,1.3-0.8,2-1.2c0.4-0.1,0.7-0.3,1.1-0.4
	c0.3,1,1.4,1,2.1,1.5c1.9,1.3,2.7,3,3,5.4c0.9,7.6-7.8,17.7-15.3,19.2c-3.5,0.7-6.9,0-7.8-5c0-0.2-0.2-0.4-0.4-0.6
	C84.4,84.9,84.9,83.8,85.4,82.6z"/>
<path class="st2" d="M149.5,187c1.7,0.2,3.3,0.1,4.3-1.6c1.1-1.9,1-3.8-0.1-5.7c1.2,0,1.7,1,2.5,1.5c2.8,2,5.7,3.6,9.3,5
	c-1.1-2.1-2.8-2.9-4-4.3c0.2-0.6,0.6-0.4,0.9-0.2c6.2,4,10.8,10.9,8.5,18.7c-1,3.4-3.5,5.7-5.9,8.1c-0.6-0.1-0.9,0.1-1,0.7
	c-9,6.3-20.2,6.7-28.3-2.1c-1-1.1-1.8-2.4-2.7-3.7c-1.6-3-2.6-6.2-2.9-9.6c0.1-4,2.8-11,2.6-10.4c-1.2,3.4-1.7,7-1.2,10.6
	c1.5,10.3,12.2,19.9,24.1,15.9c3.1-1.1,5.9-2.5,8.5-5.1c-5.6-0.4-10.9-1.2-15.7-3.4c-3.9-1.7-7.4-4-9.7-7.8c-2.6-4.3-3.3-9-3.9-13.9
	c0.6-0.5,1.1,2.1,2.1,4.9c2.9,8.5,9.2,13.1,17.6,15.4c0.8,0.2,1.7,0.6,2.6,0.5c2.9,0.9,5.9,0.8,8.9,1c0.8,0.1,1.1-0.5,1.4-1.1
	c1.7-3.6,1.7-7.2,0.1-10.9c-0.2-0.5-0.5-1-1.2-1.1c-3.6-0.8-6.7-2.7-9.8-4.6c-0.8-1.2-1-0.6-1.3,0.3c-0.9,3.1-2.8,4.2-5.8,3.5
	C149.5,187.4,149.5,187.2,149.5,187z"/>
<path class="st0" d="M185.1,116.5c-0.1,0.4-0.2,0.7-0.2,1.1c-0.6,0-1.2-0.1-1.2,0.7c-0.1,0.4-0.3,0.8-0.4,1.2c0,0.3,0,0.5,0,0.8
	c-0.9-0.1-1.2,0.3-1.1,1.2c0,0.5,0.3,0.8,0.8,0.8c0,0.5-0.1,1-0.7,1.2c-1.1,0.2-1.3,0.4-0.8,1.1c0,0.1,0,0.2-0.1,0.4
	c-0.3,0.2-0.4,0.5-0.3,0.8c0,0,0,0,0,0c-1.8-0.2-1.5,1.7-2.5,2.4c-0.1,0.1,0.4,0.3,0.7,0.4c-0.1,0.6-0.5,1.1-1,1.4
	c-1.4,0-1.5,1-1.5,2c0,0,0,0,0,0c-0.3,0-0.6,0-0.8,0.4c-0.3-0.1-0.5-0.3-0.8-0.4c-1.4,0.6-0.3,1.7-0.4,2.5c-0.1,0.1-0.2,0.2-0.3,0.2
	c-1.2,0.1-2.2,0.5-2,2.1c0,0.1,0,0.2-0.1,0.2c-1.5-0.3-2.3,0.5-2.6,2.5c-1.2,1-2,2.3-3.6,2.7c0.2-0.5,0.3-0.9,0-1.4
	c-0.3,0.5-0.1,0.9,0,1.4c0,0.3-0.2,0.5-0.5,0.6c-0.3-0.2-0.6-0.6-0.9-0.6c-0.5,0.1-0.3,0.6-0.3,0.9c-0.6,0-1.1,0-1.1,0.7
	c0,0.3,0,0.5,0,0.8c-0.2,0.1-0.3,0.2-0.5,0.4c-1.7-0.5-2-0.2-1.7,1.6c0,0,0,0,0,0c-0.1,0.1-0.3,0.2-0.4,0.3
	c-0.1,0.1-0.2,0.1-0.4,0.1c-0.4,0-0.7,0.1-0.8,0.6c0,0.4-0.2,0.7-0.7,0.8c-0.1-0.3-0.1-0.8-0.4-0.7c-0.7,0.2-0.3,0.9-0.4,1.4
	c-0.1,0.1-0.2,0.2-0.4,0.3c-1.4-0.1-2.6,0.2-2.7,1.9c-0.4,0.3-0.8,0.7-1.2,1c0-0.2,0.1-0.5-0.2-0.6c0,0.2,0,0.5,0,0.7
	c-0.5,0.7-1,1.4-1.9,1.7c-0.1,0-0.1-0.4-0.3-0.1c0.1,0.1,0.2,0.1,0.2,0.2c-1.5,2.1-3.1,4-5,5.8c-0.2-0.4-0.5-0.6-0.9-0.6
	c1.1-2.9,5.6-7.7,5.6-7.7c0-0.1,6.8-6.2,7.1-6.3c0.6-0.3,5.4-5.3,7.9-7.3c0.7-0.5,3.4-3.1,4.6-4.4c2.7-2.8,4.8-6,7-9.2
	c0.7-0.9,3.4-7,3.8-8c0.4-1.7,0.4-1.3,0.5-1.5c0.3-1.1,1.2-5.1,1.3-5.8c0.5-0.1,0.8-0.3,0.2-0.8c0.3-4.4-0.1-8.7-0.7-13
	c0.2-0.1,0.5-0.2,0.5-0.3c0.1-0.4-0.3-0.4-0.6-0.4c-1.5-5.9-4.6-11-8.5-15.6c0.2-0.7-0.5-0.9-0.7-1.3c0-0.4,0-0.8,0-1.1
	c0.7-0.6,0.3-1.5,0.4-2.2c1,0.5,1.6,1.5,2.3,2.3c0.1,1,0.3,1.9,1.6,1.8c2.4,2.6,4.3,5.5,5.8,8.8c-0.4,0.8-0.8,1.6,0.7,1.6
	c0.1,0.1,0.2,0.3,0.3,0.4c0,0.2,0,0.5,0,0.7c-0.2,0-0.4,0-0.4,0.3c0,0.1,0.3,0.1,0.5,0.1c0.1,0.3,0.2,0.5,0.3,0.8
	c-1.6,0.8,0.5,1.5,0,2.3c-0.7,1.7-1.4,3.4,1.4,3.8c0.1,0.3,0.1,0.5,0.2,0.8c-1.2,1.2-1.1,2.9,0.3,3.5c0,0.3,0,0.5,0,0.8
	c-2,0.7,0.2,1.5,0,2.3c0.2,0.4,0.3,0.8,0.1,1.2c-0.9-0.2-0.6-1.4-1.6-1.8c0.3,1.8,0.8,3.3,0.1,5c-0.2,0.6,0.6,0.6,1.1,0.6
	c0,0.3-0.1,0.5-0.1,0.8c-0.5,0-1.3-0.4-1.1,0.6c0.3,1.2-0.2,2.2-0.4,3.2c-0.3,0.6-0.5,1.3-0.8,1.9c-0.2,0.1-0.6,0.3-0.6,0.4
	C184,116.6,184.7,116.3,185.1,116.5z M173.2,132.2c-0.1,0.1-0.1,0.2-0.2,0.3c0.1,0,0.2,0.1,0.3,0.1c0,0,0.1-0.1,0.1-0.1
	C173.4,132.4,173.3,132.3,173.2,132.2z"/>
<path class="st12" d="M113.3,129c0.9,0,0.7,0.1,1.6,0.1c-0.6,1.8-0.1,3,1.5,3.6c0.8,0.3,1.5,0.2,2.2-0.1c1.1-0.4,1.4-1.4,1.6-2.5
	c3.7,2.6,4.9,6.4,3.3,10.3c-1.5,3.8-5.7,6.2-9.8,5.7c-4.8-0.6-7.2-3.4-7.1-8.1c0-1,0.2-2,0.4-3c0.5-0.9,2.3-3.2,3.9-4.6
	C111.9,129.5,113.1,129.3,113.3,129z"/>
<path class="st12" d="M130.9,133.8c0.9-0.7,1.4-0.8,2.5-1.4c0.5-0.3,0.8-0.1,0.8-0.7c0.8,0.1,1.8-0.1,1,1.3
	c-0.4,0.6,0.1,1.2,0.5,1.7c0.8,1,1.9,1.4,3.1,1.1c1.3-0.3,2-1.2,2-2.6c3.1,1.8,4.5,4.9,3.8,8.5c-0.7,3.9-3.6,6.8-7.3,7.4
	c-5.3,0.8-9.2-1.5-9.9-5.9c-0.3-2-0.1-4.1,0.6-6C128.5,135.8,130.1,134.9,130.9,133.8z"/>
<path class="st10" d="M116.1,76.6c-1.3,0.2-3-0.3-3.8-2.3c-0.8-1.9-0.3-3.7,0.9-5.3c2.5-3.5,5.6-6,10.3-5.9c2,0.1,3.8,0.7,4.8,2.5
	c1,1.9,0.8,4-0.7,5.7C124.7,74.5,121.3,76.5,116.1,76.6z"/>
<path class="st6" d="M156.5,183.7c3.1,1.9,6.2,3.9,9.8,4.6c0.7,0.1,1,0.6,1.2,1.1c1.6,3.6,1.6,7.3-0.1,10.9
	c-0.3,0.6-0.5,1.2-1.4,1.1c-3-0.2-6-0.1-8.9-1c0.4-2,1-3.9,1.2-5.9c0.4-3.2-0.3-6.3-1.4-9.2C156.8,184.8,156.3,184.4,156.5,183.7z"
	/>
<path class="st5" d="M128,137.1c-0.7,2-0.9,4-0.6,6c0.7,4.5,4.6,6.7,9.9,5.9c3.7-0.6,6.6-3.5,7.3-7.4c0.7-3.5-0.7-6.6-3.8-8.5
	c0,1.4-0.7,2.3-2,2.6c-1.2,0.3-2.3-0.1-3.1-1.1c-0.4-0.5-0.8-1.1-0.5-1.7c0.8-1.4-0.2-1.2-1-1.3c4.1-2,9.9,0.7,11.6,5.5
	c2.4,6.9-3.6,14.1-11.2,13.2c-7.1-0.8-10.3-6.8-7.2-13.4C127.6,137.1,127.8,137.1,128,137.1z"/>
<path class="st5" d="M107,135c-0.1,1-0.3,2-0.4,3c-0.1,4.7,2.3,7.5,7.1,8.1c4.1,0.5,8.3-1.9,9.8-5.7c1.5-4,0.4-7.7-3.3-10.3
	c-0.1,1.1-0.5,2.1-1.6,2.5c-0.7,0.3-1.5,0.3-2.2,0.1c-1.6-0.6-2.1-1.8-1.5-3.6c-0.9,0-1.8,0-2.6,0c3.6-2,7.9-1.2,10.9,2
	c2.9,3.1,3.4,7.9,1.1,11.5c-2.9,4.6-9.6,6.4-14.4,3.8c-3.9-2.1-4.6-7.3-2.6-12.2C107.4,134.3,106.9,134.8,107,135z"/>
<path class="st10" d="M130.2,193.9c0.2,3.4,1.3,6.6,2.9,9.6c-0.4,0.1-0.9,0.1-1.3,0.3c-2.6,1.3-4.2,1.1-5.7-0.5
	c-1.8-2-1.7-4.1-0.6-6.5C126.4,194.8,128.1,193.9,130.2,193.9z"/>
<path class="st2" d="M125.4,58.9c1.1-1,2-1.3,3.7-0.6c1.4,0.5,3.5,0.5,5.4,0.3c1.1-0.1,2.4-0.1,3.3,0.9
	C133.6,58.9,129.5,59.2,125.4,58.9z"/>
<path class="st5" d="M85.4,82.6c-0.5,1.2-1,2.3-1.5,3.5c-0.4,0.8-0.8,1.5-1.2,2.3c-1-0.5-1.5-1-0.5-2.1c0.8-0.8,1.3-2,1.8-3.1
	C84.4,82.5,84.7,82.1,85.4,82.6z"/>
<path class="st5" d="M80,99.9c-1.3-2.9-1.3-4.4,1.5-7.3C81,95,80.5,97.4,80,99.9z"/>
<path class="st5" d="M104,64.5c-0.3-0.3-0.5-0.6-0.2-1c0.8-1.1,4.4-2,5.9-1.6C107.9,63.1,105.9,63.6,104,64.5z"/>
<path class="st5" d="M79.7,105.6c-0.9,0-1.6-0.2-1.2-1.4c0.2-0.9,0.5-1.7,0.1-2.8c-0.4-0.9,0.5-1.2,1.4-0.8
	C79.8,102.3,79.8,104,79.7,105.6z"/>
<path class="st2" d="M119.2,59.6c-0.1-0.3-0.3-0.7-0.4-1c0.9-0.1,1.8-0.7,2.7-0.4c0.5,0.1,1,1,1-0.3c0-0.1,0.3-0.2,0.4-0.2
	c0.6,0.3,0.3,0.9,0.4,1.3C122,59.3,120.6,59.5,119.2,59.6z"/>
<path class="st5" d="M80.1,115.6c0.5-1.4-0.8-1.9-1.5-2.7c0.9-0.4,1.3,0.7,2,0.4c0.5,1.2,0.9,2.5,1.1,3.8c-0.2,0-0.3,0-0.5,0
	c-0.3-0.2-0.8-0.2-1-0.5c-0.3-0.4-0.9,0.8-0.9-0.2C79.3,115.9,79.6,115.6,80.1,115.6c0,0,0.1,0.1,0.2,0.1
	C80.2,115.7,80.2,115.6,80.1,115.6z"/>
<path class="st2" d="M145.8,158.6c0.4,0,0.7,0.2,0.9,0.6c-0.2,0.4-0.5,1.2-0.7,1.7c-0.5,0.9-1.1,1.9-1.6,2.8
	c-0.1,0.2-0.3,0.5-0.4,0.5C143.3,163.9,144.9,159.9,145.8,158.6z"/>
<path class="st2" d="M144.9,60.7c1.8-0.1,4,0.6,4.6,1.4C147.9,62,146.4,61.5,144.9,60.7z"/>
<path class="st5" d="M81.5,91.8c-0.5-0.1-1.2-0.5-0.7-0.9c0.6-0.6-0.1-2.3,1.6-1.8C82.4,90.1,82.2,91.1,81.5,91.8z"/>
<path class="st7" d="M128,137.1c-0.2,0-0.4,0-0.6,0c0.6-1.5,1.4-2.9,3-3.5C129.6,134.8,128.5,135.8,128,137.1z"/>
<path class="st5" d="M114.2,60.6c0.2-0.7-0.4-1.8,0.2-2c0.9-0.2,1.3,1,1.8,1.6C115.6,60.4,114.9,60.7,114.2,60.6z"/>
<path class="st5" d="M102.3,65.6c-0.4,0.1-0.7,0.3-1.1,0.4c-0.2-0.4-0.7-1-0.1-1.3c0.8-0.4,1.6-1,2.5-0.1
	C103.2,65,102.7,65.3,102.3,65.6z"/>
<path class="st2" d="M156.3,65c0.2,0,0.3-0.1,0.5-0.1c0.1,0,0.3,0,0.4,0c0.8,0.6,2.2,0.4,2.3,1.8C158.3,66.4,157.3,65.8,156.3,65z"
	/>
<path class="st5" d="M91.9,136.1"/>
<path class="st2" d="M138.5,59.4c0.7-0.1,0.6-1.4,1.6-1c0.8,0.3,0,1,0.2,1.5C139.6,60,139,59.8,138.5,59.4z"/>
<path class="st0" d="M149.5,187c0,0.2,0,0.4,0,0.6c-1.1,0-2-0.6-2.8-1.4c0.3-0.1,0.5-0.1,0.8-0.2C148.2,186.4,148.9,186.7,149.5,187
	z"/>
<path class="st2" d="M166.3,137.6"/>
<path class="st5" d="M112.1,61c0.4-0.6,0.7-1.5,1.4-0.2C113.1,61.2,112.6,61.4,112.1,61z"/>
<path class="st0" d="M144.7,184.3c0.3-0.1,0.6-0.1,0.8-0.2c0.3,0.4,1,0.6,0.6,1.5C145.5,185.4,145.1,184.9,144.7,184.3z"/>
<path class="st5" d="M80.4,112.2c-0.8-0.3-0.8-0.7-0.2-1.2C80.5,111.3,80.4,111.7,80.4,112.2z"/>
<path class="st2" d="M143,60.3c0.6-0.6,0.9-0.5,1.1,0.3C143.7,60.7,143.3,60.8,143,60.3z"/>
<path class="st2" d="M177.9,124"/>
<path class="st5" d="M80.1,110.2c-0.4-0.1-0.7-0.2-0.7-0.6c0-0.4,0.3-0.5,0.6-0.5C80.2,109.5,80.2,109.8,80.1,110.2z"/>
<path class="st2" d="M119.6,177.6"/>
<path class="st7" d="M173.7,77.2c0.3,0.4,0.9,0.6,0.7,1.3c-0.6-0.2-0.9-0.7-1.1-1.3C173.4,77.3,173.5,77.2,173.7,77.2z"/>
<path class="st0" d="M169.8,73.8c0.6-0.7,1-0.5,1.2,0.3c-0.3,0-0.6,0-0.9,0C170,74.1,169.9,73.9,169.8,73.8z"/>
<path class="st2" d="M171.3,75.3c0.5,0,0.9,0.2,0.9,0.7C171.9,75.8,171.3,75.9,171.3,75.3z"/>
<path class="st2" d="M151.2,62.7c0.5-0.1,1,0.1,1.4,0.4C152.1,63.1,151.5,63.4,151.2,62.7z"/>
<path class="st2" d="M170.1,74.2c0.3,0,0.6,0,0.9,0c0,0.3,0,0.6,0,0.9C170.5,74.9,170.2,74.6,170.1,74.2z"/>
<path class="st2" d="M173.7,77.2c-0.1,0-0.3,0-0.4,0c-0.1-0.1-0.2-0.2-0.4-0.4c0.1-0.4,0.4-0.7,0.8-0.8
	C173.7,76.5,173.7,76.9,173.7,77.2z"/>
<path class="st2" d="M163.4,69.2c0.5,0,1,0,1.1,0.7C164,69.8,163.6,69.6,163.4,69.2z"/>
<path class="st7" d="M81.2,117.1c0.2,0,0.3,0,0.5,0c0.3,0.2,0.3,0.5,0.2,0.8C81.5,117.9,81.3,117.6,81.2,117.1z"/>
<path class="st2" d="M181.7,116"/>
<path class="st2" d="M183.6,107.9c0.6,0.5,0.2,0.6-0.2,0.8C183.3,108.4,183.3,108.1,183.6,107.9z"/>
<path class="st5" d="M79.7,107.9c-0.4-0.3-0.4-0.5,0-0.8C80,107.4,79.9,107.7,79.7,107.9z"/>
<path class="st2" d="M182.9,94.1c0.3,0.1,0.6,0,0.6,0.4c0,0.1-0.3,0.2-0.5,0.3C182.9,94.6,182.9,94.4,182.9,94.1z"/>
<path class="st2" d="M166.5,71.1c0.5,0,0.6,0.3,0.6,0.7C166.6,71.9,166.6,71.4,166.5,71.1z"/>
<path class="st0" d="M158.3,173.4c0.1-0.2,0.1-0.5,0.4-0.4c0.2,0.1,0.2,0.4,0.3,0.5C158.8,173.5,158.6,173.4,158.3,173.4z"/>
<path class="st0" d="M149.5,174c0.1-0.6,0.2-1,0.8-0.3C150.1,173.8,149.8,173.9,149.5,174z"/>
<path class="st0" d="M148.5,174.6c0-0.3-0.1-0.7,0.2-0.8c0.3-0.1,0.4,0.2,0.5,0.4C149,174.3,148.7,174.4,148.5,174.6z"/>
<path class="st0" d="M162.5,174.4c0.5-0.7,0.7-0.3,0.8,0.2C163,174.7,162.7,174.7,162.5,174.4z"/>
<path class="st3" d="M147.5,186.1c-0.3,0.1-0.5,0.1-0.8,0.2c-0.3-0.2-0.8-0.5-0.4-0.8C146.9,185.1,147.2,185.8,147.5,186.1z"/>
<path class="st2" d="M153.4,63.7c0.6-0.4,0.7,0,0.7,0.4C153.8,64.2,153.6,63.9,153.4,63.7z"/>
<path class="st7" d="M164.1,209.2c0-0.6,0.4-0.8,1-0.7C164.8,208.9,164.5,209.2,164.1,209.2z"/>
<path class="st9" d="M153.2,13.6c0.3-1.6,0.7-3.2,1-5c4.8,2.9,9.5,5.8,14.2,8.7c2.3,1.4,4.6,2.8,6.8,4.2c1,0.6,1.4,1.3,1.1,2.7
	c-0.8,4.4-1.4,8.9-1.6,13.5c0,0.7,0.2,1.7-1.1,1.3c-1.9-1.1-3.8-2.2-5.8-3.2c-0.6-0.3-1.3-0.7-1.9-1c-0.1-0.1-0.3-0.2-0.4-0.3
	c-0.3-0.2-0.7-0.4-1-0.6c-0.3-0.2-0.6-0.3-0.9-0.5c-1-0.6-2.1-1.2-3.1-1.8c-0.1-0.1-0.3-0.2-0.4-0.3c0,0,0,0,0,0
	c-0.1-0.3-0.4-0.4-0.7-0.5c0,0,0,0,0,0c-0.3-0.5-0.7-0.6-1.2-0.7c-0.4-0.2-0.7-0.4-1.1-0.6c-0.4-0.2-0.8-0.4-1.2-0.6c0,0,0,0,0,0
	c-0.2-0.1-0.3-0.2-0.5-0.3c0,0,0,0,0,0c-0.1-0.1-0.2-0.2-0.3-0.3c-1.1-1.1-2.8-1.5-3.3-3.3c0-0.2-0.2-0.1,0-0.3
	c0-0.3,0.1-0.5,0.1-0.8c0.1-0.6,0.1-1.3,0.2-1.9c0-0.5,0.1-1,0.1-1.5c0-0.4,0.1-0.8,0.1-1.1c0-0.3,0-0.5,0-0.8
	c0.1-1.1,0.3-2.3,0.4-3.4c0.2-0.4,0.3-0.8,0.1-1.2C153.1,13.8,153.1,13.7,153.2,13.6z"/>
<path class="st8" d="M164.8,5.8c3.2-0.3,6.4-0.6,9.6-0.8c2.1,0,4,0.9,5.9,1.8c0.2,0.1,0.4,0.3,0.6,0.4c0.5,0.3,1.1,0.6,1.6,0.9
	c0.3,0.1,0.5,0.2,0.8,0.3c0.2,0.1,0.3,0.1,0.5,0.2c0.2,0.2,0.4,0.3,0.7,0.5c0.1,0.1,0.1,0.2,0.3,0.2c0.1,0.1,0.3,0.2,0.4,0.2
	c0.1,0.1,0.2,0.1,0.4,0.2c0.2,0.3,0.5,0.5,0.8,0.5c0.2,0.1,0.4,0.2,0.6,0.3c0.3,0.2,0.6,0.3,0.9,0.5c0,0.1,0.1,0.2,0.3,0.2
	c0.1,0.1,0.2,0.2,0.4,0.3c0.1,0.1,0.3,0.1,0.4,0.2c1.1,0.8,2.3,1.4,3.5,2c0.8,0.6,1.7,1.1,2.7,1.4c0.1,0.1,0.2,0.1,0.3,0.2
	c0.1,0.3,0.4,0.3,0.7,0.3c0.2,0.1,0.4,0.2,0.5,0.3c0.7,0.4,1.4,0.9,2.4,1.5c-2.6,0.5-5,0.9-7.3,1.3c-4,0.7-8,1.4-12.1,2.1
	c-1.2,0.2-2.3,0.1-3.3-0.5c-6.9-4-13.7-8.1-20.3-12.6c-0.1-0.1-0.2-0.3-0.5-0.6C158.7,6.6,161.8,6.2,164.8,5.8z"/>
<path class="st4" d="M182.5,4.8c4.4-4.2,13.2-3.9,17.7,1.7c2.1,3.1,4,6.4,4.7,10.1c0.7,3.3-0.3,6.4-2.1,9.3c-0.2,0-0.5,0-0.7,0
	c0.2-2.1,0.4-4.3,0.6-6.4c0.1-1.7-0.4-3.1-2.1-3.8c-2.2-1-4.3-2.2-6.5-3.2c-0.3-0.1-0.5-0.3-0.8-0.4c-2.2-1.4-4.5-2.7-6.9-3.8
	c-0.5-0.6-1.2-0.9-2-1.2C184,6.1,182,6.5,182.5,4.8z"/>
<path class="st11" d="M201.3,20.6c-0.7,4.2-1.6,8.8-2.4,13.5c-0.2,0.9-1,1.1-1.7,1.3c-5.6,1.9-11.3,3-17,4.2
	c-0.6,0.1-1.2,0.3-1.9,0.5c-1.8,0.5-2.3,0.2-2-1.7c0.8-4.7,0.9-9.5,1.5-14.2c0.1-1.1,0.4-1.6,1.6-1.8c6.9-1.2,13.9-2,20.7-3.7
	C201.6,18.3,201.3,19.4,201.3,20.6z M183.6,36.2c0.7,0,0.7-0.6,0.8-1.1c0.9-3.5,1-7.1,1.5-10.7c0.1-0.6,0.8-1.4-0.4-1.6
	c-0.8-0.1-1.6,0.1-1.9,1.1c-1.1,3.9-1.3,7.9-1.9,11.8c-0.1,0.5-0.1,1.1,0.6,1.2C183,37,183.6,37,183.6,36.2L183.6,36.2z M197.4,20.9
	c-1.1,0.3-1,1.3-1.1,2.2c-0.6,3.3-0.6,6.7-1.7,9.9c-0.6,1.8,0.4,1.8,1.6,1.7c1.2-0.1,1.4-1,1.6-1.8c0.3-1.5,0.4-3,0.7-4.5
	c0.4-2.3,0.9-4.6,1.2-6.9c0.1-0.6,0.3-1.4-0.6-1.6C198.4,19.6,197.6,19.9,197.4,20.9L197.4,20.9z M190.1,33.4c0.3,0.9-0.3,2,1.1,2
	c1.1,0.1,1.5-0.4,1.8-1.5c1-3.9,1.3-8,2.1-12c0.2-0.8-0.2-1.2-1-1.1c-1.1,0.1-2,0.4-2.2,1.7C191,26.2,191,30,190.1,33.4z
	 M185.9,34.8c0.2,0.9-0.3,1.7,0.4,2c0.7,0.3,1.3-0.1,1.9-0.5c0.4-0.3,0.4-0.8,0.4-1.2c0.7-4,1.1-8,1.5-12.1c0.1-0.6,0.7-1.4-0.3-1.6
	c-0.7-0.1-1.5,0.1-2,0.9c-0.2,0.4-0.3,0.8-0.4,1.3C186.4,27.3,186.9,31.3,185.9,34.8z M182.1,25.2c-0.2-0.6,0.3-1.6-0.6-1.6
	c-1,0.1-2.4,0-2.5,1.9c-0.2,3.7-0.8,7.4-1.1,11.1c-0.1,0.6-1,1.5,0.2,1.7c0.8,0.1,1.8-0.3,2-1.4C180.8,33.1,181.5,29.1,182.1,25.2z"
	/>
<path class="st2" d="M167.9,35.6c1.9,1.1,3.8,2.2,5.8,3.2c-0.5,0.9-0.4,0.4-2.3,1.2c-1.9-0.6-3.6-1.8-5.2-3
	C166.7,36.6,167.3,36.1,167.9,35.6z"/>
<path class="st5" d="M99.2,67.3c-1.7,1.3-3.4,2.6-5,4c-0.5-0.3-0.9-0.7-0.8-1.5c1,0.7,1.8,0.2,2.2-0.6
	C96.3,67.4,97.6,67.1,99.2,67.3z"/>
<path class="st5" d="M89.4,76.5c-1,1.5-2.1,3.1-3.1,4.6c-0.7-0.5-1.5-0.9-1.2-2c0.8,0.5,1.4,0.5,1.7-0.6
	C87.1,77.3,88,76.6,89.4,76.5z"/>
<path class="st5" d="M92.8,72.6c-0.9,1.1-1.9,2.1-2.8,3.2c-1.1-0.9-0.1-1.8,0.3-2.3C90.8,72.9,91.5,71.7,92.8,72.6z"/>
<path class="st2" d="M155.4,40.7c-0.7,0.8-1.5,1.7-2.2,2.5c-0.7-0.4-0.9-1.3-0.3-1.4C153.9,41.6,153.9,39.3,155.4,40.7z"/>
<path class="st5" d="M192.5,13.6c-1.2-0.6-2.4-1.1-3.5-2c1,0.1,2,0.2,3,0.4C193.3,12.2,192.1,13.1,192.5,13.6z"/>
<path class="st2" d="M152.9,15.1c-0.1,1.1-0.3,2.3-0.4,3.4C151.4,17.3,151.5,15.7,152.9,15.1z"/>
<path class="st0" d="M168.7,69.2c0.7,0.4,1.3,0.8,1.8,1.5c-0.5,0.2-0.9,0.3-1.4,0.5c-0.3-0.3-0.5-0.5-0.8-0.8c0-0.4,0-0.8,0-1.1
	C168.4,69.2,168.6,69.2,168.7,69.2z"/>
<path class="st2" d="M165.8,67.1c0.5,0.3,1,0.7,1.5,1c-0.3,1.3-1,0.7-1.7,0.3c0-0.1,0-0.3,0-0.4C165.7,67.7,165.7,67.4,165.8,67.1z"
	/>
<path class="st2" d="M151.5,47.3c-0.1,0.8-0.3,1.5-0.4,2.3C150.2,48.9,150.3,48.3,151.5,47.3z"/>
<path class="st2" d="M152.3,22c-0.1,0.6-0.1,1.3-0.2,1.9c-1,0.1-1.2-1.4-1-2.1C151.3,21.3,151.9,22,152.3,22z"/>
<path class="st5" d="M184.4,7c0.7,0.2,1.4,0.6,2,1.2C185.5,8.5,184.5,8.4,184.4,7z"/>
<path class="st2" d="M159.5,63.5c0.5-0.1,0.8,0.2,1.1,0.4c0,0.4,0.1,1-0.6,0.9C159.2,64.7,159.6,64,159.5,63.5z"/>
<path class="st2" d="M169.1,71.1c0.5-0.2,0.9-0.3,1.4-0.5c0.1,0,0.1,0,0.2,0.1C170.6,73.1,169.6,71.1,169.1,71.1z"/>
<path class="st2" d="M162.5,65.1c0.7,0.1,1.2,0.5,1.6,1C163.1,66.7,162.5,66.3,162.5,65.1z"/>
<path class="st5" d="M202.1,25.8c0.2,0,0.5,0,0.7,0c0.3,0.7-0.2,1.5-0.8,1.4C201.4,27,201.3,25.9,202.1,25.8z"/>
<path class="st2" d="M174.8,39.8c0,0.3-0.1,0.5-0.4,0.5c-0.3,0-0.6,0-0.5-0.4c0-0.2,0.2-0.4,0.4-0.5
	C174.5,39.3,174.7,39.5,174.8,39.8z"/>
<path class="st2" d="M156.1,28.9c0.4,0.2,0.8,0.4,1.2,0.6C156.5,30.1,156.4,30.1,156.1,28.9z"/>
<path class="st0" d="M164.9,66.5c0.4,0.1,0.7,0.3,0.8,0.7c-0.4,0.5-1,0.4-1.6,0.4c0-0.1,0-0.3,0-0.4C164.4,67,164.6,66.8,164.9,66.5
	z"/>
<path class="st2" d="M134.3,57.5c0.6-0.3,1-0.3,1.6-0.1C135.3,57.7,135,58,134.3,57.5z"/>
<path class="st2" d="M150.9,53.8c0.2,0.4,0.3,0.8,0.2,1.2c-0.8,0-0.8-0.6-0.8-1.1l0,0C150.5,53.8,150.7,53.8,150.9,53.8z"/>
<path class="st5" d="M193.3,11.9c0.3,0.1,0.5,0.3,0.8,0.4c-0.1,0.3,0,0.8-0.5,0.6C193.1,12.8,193.3,12.3,193.3,11.9z"/>
<path class="st2" d="M152.5,19.3c0,0.4-0.1,0.8-0.1,1.1c-0.3,0-1.3-0.1-1.3-0.5C151.1,19.6,152.2,19.5,152.5,19.3z"/>
<path class="st2" d="M168.3,69.2c0,0.4,0,0.8,0,1.1c-0.3,0-0.6-0.1-0.7-0.5C167.5,69.3,167.9,69.2,168.3,69.2z"/>
<path class="st2" d="M153,60.3c0.5,0,0.8,0.1,1.1,0.5C153.4,61.4,153.1,61.1,153,60.3z"/>
<path class="st5" d="M93.9,71.5c-0.3,0.4-0.6,0.9-1.1,1.2C92.7,71.8,93,71.4,93.9,71.5z"/>
<path class="st2" d="M156.5,39.7c-0.3,0.3-0.7,0.6-1,0.9C155.2,39.6,155.9,39.7,156.5,39.7z"/>
<path class="st2" d="M149.2,60.3c-0.1-0.2-0.3-0.4-0.3-0.5c0-0.1,0.1-0.2,0.1-0.3c0.1,0.1,0.3,0.2,0.4,0.4
	C149.4,59.9,149.3,60,149.2,60.3z"/>
<path class="st2" d="M151.5,57.3c0.3,0.2,0.3,0.5,0.3,0.8C151.2,58,150.9,57.8,151.5,57.3z"/>
<path class="st5" d="M183.3,8.5c-0.3-0.1-0.5-0.2-0.8-0.3C183.2,7.4,183.2,8,183.3,8.5z"/>
<path class="st2" d="M158.3,30.1c0.5,0.1,0.9,0.3,1.2,0.7C159,30.8,158.4,30.9,158.3,30.1z"/>
<path class="st5" d="M110.2,60.9c-0.1-0.1-0.2-0.2-0.3-0.2c0.1-0.1,0.1-0.1,0.2-0.2c0,0,0.1,0.1,0.1,0.1
	C110.2,60.7,110.2,60.8,110.2,60.9z"/>
<path class="st5" d="M188.5,11.5c-0.1-0.1-0.2-0.2-0.4-0.3c0.1-0.2,0.3-0.4,0.4-0.6C189,11,188.5,11.2,188.5,11.5z"/>
<path class="st2" d="M150.3,53.8c-0.2-0.1-0.6,0.1-0.5-0.4c0-0.1,0.1-0.1,0.1-0.1C150.4,53.3,150.2,53.6,150.3,53.8
	C150.3,53.8,150.3,53.8,150.3,53.8z"/>
<path class="st2" d="M163.8,33.3c0.3,0.2,0.6,0.3,0.9,0.5C164.1,34.1,163.6,34.2,163.8,33.3z"/>
<path class="st2" d="M137.2,58.4c0,0-0.1-0.1-0.1-0.1c0.1,0,0.1-0.1,0.2-0.1c0,0,0.1,0.1,0.1,0.1C137.3,58.3,137.3,58.3,137.2,58.4z
	"/>
<path class="st2" d="M143.1,59.1c0,0,0.1,0,0.1,0.1c0,0.1,0,0.1,0,0.2c0,0-0.1,0-0.1-0.1C143.1,59.2,143.1,59.2,143.1,59.1z"/>
<path class="st2" d="M164.1,67.3c0,0.1,0,0.3,0,0.4c-0.2-0.1-0.4-0.2-0.3-0.5C163.8,67.2,164,67.2,164.1,67.3z"/>
<path class="st0" d="M165.6,68c0,0.1,0,0.3,0,0.4c-0.1,0-0.2,0.1-0.3,0.1C165.2,68.3,165.4,68.1,165.6,68z"/>
<path class="st5" d="M187.9,11.1c-0.3-0.2-0.6-0.3-0.9-0.5C187.4,10.5,187.7,10.6,187.9,11.1z"/>
<path class="st5" d="M186.3,10.3c-0.4,0-0.7-0.2-0.8-0.5C185.9,9.7,186.2,9.8,186.3,10.3z"/>
<path class="st2" d="M165.6,34.4c0.1,0.1,0.3,0.2,0.4,0.3c-0.1,0.1-0.2,0.1-0.2,0.2C165.7,34.7,165.7,34.5,165.6,34.4z"/>
<path class="st0" d="M157.2,65c-0.1,0-0.3,0-0.4,0c0.1-0.2,0.1-0.3,0.2-0.5C157.1,64.6,157.1,64.8,157.2,65z"/>
<path class="st2" d="M160.2,31.2c0.1,0.1,0.3,0.2,0.4,0.3c-0.1,0.1-0.2,0.1-0.3,0.2C160.4,31.6,160.3,31.4,160.2,31.2z"/>
<path class="st2" d="M159.5,30.8c0.3,0.1,0.6,0.1,0.7,0.5C159.9,31.2,159.6,31.1,159.5,30.8z"/>
<path class="st13" d="M150.1,58.6c0,0.1,0,0.3,0,0.4c-0.1,0-0.2-0.1-0.4-0.1C149.9,58.8,150,58.7,150.1,58.6z"/>
<path class="st2" d="M155.6,28.6c0.2,0.1,0.3,0.2,0.5,0.3C155.9,28.8,155.8,28.7,155.6,28.6z"/>
<path class="st2" d="M155.3,28.3c0.1,0.1,0.2,0.2,0.3,0.3C155.5,28.5,155.4,28.4,155.3,28.3z"/>
<path class="st5" d="M196.7,15.9c-0.2-0.1-0.4-0.2-0.5-0.3C196.3,15.6,196.5,15.7,196.7,15.9z"/>
<path class="st5" d="M195.5,15.2c-0.1-0.1-0.2-0.1-0.3-0.2C195.4,14.8,195.5,15,195.5,15.2z"/>
<path class="st2" d="M153.2,13.6c0,0.1-0.1,0.2-0.1,0.4c-0.1-0.1-0.2-0.2-0.2-0.2C153,13.6,153.1,13.6,153.2,13.6z"/>
<path class="st5" d="M111.3,60.9c-0.1-0.1-0.2-0.1-0.3-0.2C111.3,60.5,111.2,60.8,111.3,60.9C111.3,60.9,111.3,60.9,111.3,60.9z"/>
<path class="st5" d="M185.2,9.6c-0.1-0.1-0.3-0.2-0.4-0.2C184.9,9.4,185,9.5,185.2,9.6z"/>
<path class="st5" d="M184.4,9.2c-0.2-0.2-0.4-0.3-0.7-0.5C184.3,8.5,184.3,8.8,184.4,9.2z"/>
<path class="st5" d="M180.9,7.2c-0.2-0.1-0.4-0.3-0.6-0.4C181.1,6.5,180.8,6.9,180.9,7.2z"/>
<path class="st7" d="M177.9,78c-1.3,0.1-1.5-0.8-1.6-1.8C177,76.7,177.5,77.3,177.9,78z"/>
<path class="st7" d="M184.4,88.4c-1.5,0-1.1-0.8-0.7-1.6C184.1,87.2,184.3,87.8,184.4,88.4z"/>
<path class="st4" d="M188.2,203.2c-0.2,0.1-0.5,0.1-0.7,0.2c-0.1,0-0.3,0-0.4,0c-2.5,0.2-2.5,0.2-2.5-2.2c0-0.3,0.1-0.5,0.1-0.8
	c0-0.2,0-0.4,0-0.7c0.2-0.8,0.1-1.6,0-2.4c0-0.3,0-0.5-0.1-0.8c0-0.3,0-0.6,0-0.8c0-0.4,0-0.8-0.3-1.1c0.4-0.7-1-2.1,0.8-2.2
	c0.6,0,1.3-0.1,1.9-0.1c0.4,0.3,0.8,0.3,1.1,0c0.9,0,1.8-0.1,2.7-0.1c8-0.6,14.9-3.4,19.7-10.1c6.8-9.4,5-22.5-3.7-28.9
	c-2.2-1.6-4.6-2.7-7.3-3.1c-2.1-0.3-4,0-5.9,1.1c-2.3,1.4-5,1.4-7.5,2c-0.9,0.2-2.2,1.1-2.8,0.4c-0.6-0.8,0.4-2,0.8-3
	c0.1-0.2,0.2-0.5,0.3-0.7c1.7-2,3.5-3.9,5.8-5.2c1.3-0.6,2.6-1.2,3.9-1.8c5.6-1.3,11.1-1.2,16.4,1.3c7.5,3.6,11.7,9.7,13.5,17.6
	c1.3,5.9,1,11.7-0.1,17.6c-0.2,0.5-0.4,1-0.6,1.5c-1,2.8-2.4,5.4-4.1,7.8c-0.5,0.5-0.9,1-1.4,1.5c-1.3,1.1-2.7,2.2-4,3.4
	c-0.4,0.2-0.7,0.4-1.1,0.7C205.1,198.8,196.9,201.5,188.2,203.2z"/>
<path class="st9" d="M198.4,171.4c0-2.1,0-4.2,0-6.3c0-0.9,0.3-1.2,1.1-1.5c3.4-1.1,6.8-2.3,10.1-3.5c0.8-0.3,1.1-0.1,1.4,0.6
	c1.7,4.1,2.1,8.2,0.8,12.5c-0.2,0.5-0.4,1-1,1.2c-3.6,1.3-7.3,2.7-10.9,4.2c-1.3,0.6-1.7,0.3-1.6-1.1
	C198.4,175.5,198.3,173.5,198.4,171.4C198.3,171.4,198.3,171.4,198.4,171.4z"/>
<path class="st8" d="M179.6,156.1c6.5-1.6,12.8-3.1,19.2-4.7c0.9-0.2,1.8-0.2,2.6,0.2c3.1,1.3,5.8,3.3,7.8,5.9
	c0.6,0.8,0.8,1.2-0.5,1.6c-3.2,1-6.4,2.1-9.5,3.3c-1.5,0.6-2.8,0.6-4-0.1c-3.8-1.9-7.9-3.1-12-4.4
	C181.9,157.6,180.7,157,179.6,156.1z"/>
<path class="st11" d="M179.1,157.6c5.5,2.6,11,4.4,16.5,6c1.4,0.4,1.9,1.1,1.8,2.6c-0.3,4.2-0.2,8.4,0.1,12.8
	c-5.6-2.5-11.2-4.4-16.3-7.3c-1-0.6-1.4-1.3-1.4-2.5C179.8,165.4,178.8,161.6,179.1,157.6z M185.2,172L185.2,172
	c0.2,0.4,0.5,0.8,1,0.6c0.4-0.2,0.5-0.6,0.3-1c-0.3-0.8-0.2-1.6-0.2-2.4c0.2-2.1-0.4-4.2-0.4-6.2c0-1.1-0.7-1.7-1.7-1.7
	c-1.2,0-0.6,1.1-0.6,1.6c0.1,2.6,0.5,5.2,0.4,7.8C184,171.4,184.3,171.9,185.2,172z M188.2,173.5L188.2,173.5
	c0.4,0.4,0.8,0.8,1.5,0.5c0.4-0.2,0.4-0.6,0.4-1c-0.2-2.7-0.5-5.4-0.7-8.2c-0.1-1.4-0.7-2.3-1.9-2.5c0,3.4,0,6.7,0,10.1
	C187.5,173,187.8,173.3,188.2,173.5z M191.7,163.9L191.7,163.9c-1.3-0.3-1.8,0.1-1.5,1.3c0.4,1.5,0.3,2.9,0.3,4.4c0,1.3,0,2.6,0,3.8
	c0,1.3,1.1,1.8,2.1,1.8c1,0,0.5-1.1,0.5-1.7c0-2.5-0.5-5.1-0.4-7.6C192.8,165.2,192.8,164.2,191.7,163.9z M183.3,168.1
	c0.2-2.3-0.7-4.6-0.8-7c0-0.9-0.9-1.3-1.7-1.2c-0.8,0-0.5,0.9-0.6,1.4c-0.2,2.7,0.6,5.3,0.4,8c-0.1,1.2,1.1,1.8,1.9,1.8
	c1.1,0.1,0.7-1.1,0.8-1.8C183.3,168.9,183.3,168.6,183.3,168.1z M194,170C194,170,194,170,194,170c0,1.7,0,3.3,0,5
	c0,1.1,0.8,1.4,1.6,1.6c0.6,0.1,0.7-0.5,0.6-0.9c-0.4-3.3-0.8-6.5-0.4-9.8c0.1-0.8-0.6-1.2-1.2-1.2c-1-0.1-0.6,0.8-0.6,1.2
	C194,167.2,194,168.6,194,170z"/>
<path class="st9" d="M51,126.9c0-4.6,0-9,0-13.4c0-1,0.5-1.6,1.3-1.9c6.4-2.2,12.5-5.4,18.9-7.8c0,0,0.1,0,0.3,0.1
	c0,3.7,0,7.4,0,11.2c0,1-0.7,1.3-1.3,1.7c-4.4,2.7-9,5.1-13.6,7.4C54.9,125,53.1,125.9,51,126.9z"/>
<path class="st8" d="M37.9,102.9c4.9-1.6,9.8-3.2,14.7-4.8c1.2-0.4,2.4-0.7,3.7-0.7c3.8,0,7,2.2,10.5,3.4c1.3,0.4,2.8,0.6,3.9,1.6
	c-0.3,0.8-1.1,0.8-1.7,1.1c-5.6,2.4-11.3,4.7-16.9,7c-0.8,0.3-1.4,0.5-2.3,0c-4.4-2.4-8.8-4.7-13.2-7.1
	C37,103.3,37.5,103.1,37.9,102.9z"/>
<path class="st11" d="M35.5,104.7c4.7,2.9,9.3,4.9,13.8,7.1c0.9,0.4,0.9,1.2,0.8,2c-0.4,4.3-0.3,8.6-0.3,13.3
	c-4-2.9-8.2-4.9-12.1-7.3c-0.6-0.4-1-0.8-1-1.5C36.4,113.9,35.9,109.5,35.5,104.7z M45.2,122.5c0.2,0.4,0.5,0.8,1,0.6
	c0.5-0.3,0.6-0.8,0.5-1.3c-0.3-3-0.5-6-0.4-9.1c0-0.5-0.2-0.8-0.8-0.9c-1.9-0.8-1.2,0.9-1.1,1.3c0.5,2.4,0.2,4.8,0.3,7.2
	C44.9,121.1,44.6,121.9,45.2,122.5z M47.9,124.1L47.9,124.1c0.4,0.7,1.1,1.1,1.1-0.1c0.1-3.4,0-6.9,0-10.3c0-0.6-0.3-1-0.9-1
	c-0.7,0.1-0.6,0.7-0.6,1.2c0,2.5,0,5,0,7.5C47.6,122.2,47.2,123.2,47.9,124.1z M40.6,110.2L40.6,110.2c-0.1-0.8-0.6-1-1.3-0.9
	c0.2,2.2,0.4,4.4,0.5,6.6c0.1,2-0.5,4.3,2.3,5.1c0.1,0,0.2,0.3,0.3,0.4c0.3,0.3,0.6,0.7,1.1,0.6c0.7-0.2,0.5-0.8,0.5-1.3
	c0.2-2.9-0.6-5.8-0.4-8.7c0.1-0.7-0.3-1.2-1-1.2c-0.8,0-0.5,0.7-0.5,1.2c0,2.5,0,4.9,0,7.4c-0.4-1.8-0.7-3.5-0.8-5.3
	C41.3,112.8,41.3,111.4,40.6,110.2z M36.7,109.5c0.4,2.9,0.8,5.7,1.2,8.6c0.1,0.6,0.2,1.2,0.9,1.2c0.9,0,0.7-0.8,0.6-1.3
	c-0.3-2.8-0.4-5.7-1.1-8.4c-0.2-0.8,0-2.2-1.1-2.1C36.2,107.5,37.1,108.8,36.7,109.5z"/>
<path class="st4" d="M40.7,126.8c-2.1-0.5-4.2-1.1-6.2-2c-2.9-1.2-4.3-3.4-4.7-6.4c-0.6-4.2-0.4-8.2,2.5-11.5
	c1.1-0.8,1.7-0.9,1.8,0.8c0.1,2.5,0.4,5.1,0.4,7.6c0,3.2,0.9,5.7,3.9,7.2c0.1,1.1,0.8,1.8,1.5,2.5C40.3,125.5,40.7,126,40.7,126.8z"
	/>
<path class="st9" d="M224.8,153.6c0.6,0.6,1.1-0.3,1.8-0.1c0,1.6,0.2,3.3-0.1,4.9c-0.1,1.1-0.4-0.2-0.7-0.1c-0.2-1-0.5-1.9-1.1-2.7
	c0,0,0,0,0,0c0-0.3-0.1-0.6-0.4-0.8C224.1,154.2,225,154.1,224.8,153.6C224.8,153.5,224.8,153.6,224.8,153.6z"/>
<path class="st8" d="M224.8,153.6C224.8,153.6,224.8,153.5,224.8,153.6c-0.2-0.7-0.9-0.2-1.3-0.4c-0.1-0.2-0.2-0.3-0.3-0.5
	c-0.2-0.5-0.3-0.9-0.5-1.4c0,0,0,0,0,0c0.4,0.2,0.8,0.4,1.2,0.4C225.2,151.9,225.4,152.6,224.8,153.6z"/>
<path class="st5" d="M224.7,155.4c0.6,0.8,0.9,1.8,1.1,2.7C223.7,158,225,156.4,224.7,155.4z"/>
<path class="st5" d="M217.8,190.2c0.5-0.5,0.9-1,1.4-1.5C219.3,189.7,219.4,190.7,217.8,190.2z"/>
<path class="st5" d="M223.4,180.8c0.2-0.5,0.4-1,0.6-1.5C224.4,180.1,224.5,180.7,223.4,180.8z"/>
<path class="st5" d="M226.9,162.1c-0.2,0.1-0.3,0.3-0.5,0.3c-0.3,0-0.5-0.1-0.4-0.4c0-0.1,0.3-0.2,0.4-0.2
	C226.6,161.7,226.7,161.9,226.9,162.1z"/>
<path class="st0" d="M212.7,194.2c0.4-0.2,0.7-0.4,1.1-0.7C214,194.8,213.4,194.5,212.7,194.2z"/>
<path class="st5" d="M223.2,152.7c0.1,0.2,0.2,0.3,0.3,0.5c-0.1,0.3-0.1,0.8-0.4,0.6C222.6,153.5,223.2,153.1,223.2,152.7z"/>
<path class="st5" d="M224.3,154.7c0.3,0.2,0.4,0.4,0.4,0.8C224,155.6,224.1,155.1,224.3,154.7z"/>
<path class="st5" d="M226.5,165c0,0,0-0.1,0.1-0.1c0.1,0,0.1,0,0.2,0c0,0,0,0.1,0,0.1C226.6,165,226.5,165,226.5,165z"/>
<polygon class="st8" points="222.7,151.3 222.7,151.2 222.8,151.3 "/>
<path class="st5" d="M78,102.8c0,0.1-0.1,0.3-0.1,0.3c-0.1,0-0.2-0.1-0.3-0.1c0-0.1,0.1-0.3,0.1-0.3C77.8,102.7,77.9,102.8,78,102.8
	z"/>
<path class="st0" d="M185.2,192.4c-1.8,0.2-0.4,1.6-0.8,2.2c-0.5-0.1-1.2,0.2-1.3-0.4c0-0.6,0.3-1.4,0.7-1.9
	C184.1,191.7,184.8,191.8,185.2,192.4z"/>
<path class="st0" d="M184.7,197.3c0.2,0.8,0.3,1.6,0,2.4C184,198.9,182.9,198.1,184.7,197.3z"/>
<path class="st0" d="M188.2,192.3c-0.4,0.3-0.8,0.3-1.1,0C187.5,191.8,187.9,191.8,188.2,192.3z"/>
<path class="st0" d="M184.6,195.7c0,0.3,0,0.6,0,0.8C183.9,196.3,184,196,184.6,195.7z"/>
<path class="st0" d="M184.7,200.3c0,0.3-0.1,0.5-0.1,0.8c-0.2-0.1-0.5-0.2-0.5-0.4C184.2,200.6,184.6,200.5,184.7,200.3z"/>
<path class="st5" d="M196.8,110.2c-0.2-0.5-0.2-1,0-1.6c0.5,0.1,0.9,0.4,0.9,1C197.8,110.3,197.2,110.2,196.8,110.2z"/>
<path class="st5" d="M194.4,122.9c0.1-0.3,0.2-0.5,0.4-0.8C195.3,122.7,194.9,122.8,194.4,122.9z"/>
<polygon class="st3" points="197.8,118.7 197.9,118.5 198,118.6 "/>
<path class="st14" d="M160.3,243.7c0-1.5,0-2.6,0-3.6c0-1.1,1-1.4,1.7-1.5c1-0.1,0.6,1,0.6,1.5c-0.2,2.7,0.4,5.3,0.4,8
	c0,0.7,0,1.4-0.7,1.9c-0.4,0.3-0.8,0.7-1.4,0.5c-0.5-0.2-0.3-0.8-0.3-1.2C160.6,247.2,159.9,245.3,160.3,243.7z M161.8,249.2
	c0.7-3.2,0-6.3-0.5-9.5C161.2,243,160.6,246.1,161.8,249.2z"/>
<path class="st14" d="M172.6,238c0-1.3-0.1-2.7,0-4c0.1-0.8,0.7-1.5,1.6-1.3c1.1,0.2,0.4,1,0.3,1.5c0,1.9,0,3.8-0.1,5.7
	c0,0.6,0,1.2-0.1,1.7c-0.2,0.6-0.4,1.4-1.2,1.2c-0.8-0.1-0.5-0.9-0.5-1.4C172.5,240.3,172.5,239.2,172.6,238
	C172.5,238,172.5,238,172.6,238z M173.5,233.6c0,2.7,0,5.4,0,8.2C173.8,239,173.5,236.3,173.5,233.6z"/>
<path class="st14" d="M165.6,247.2c-0.6,0.9-1.2,1.2-1.5-0.2c-0.6-2.8-0.3-5.7-0.4-8.6c0-1.1,0.7-1.4,1.4-1.4
	c0.9-0.1,0.9,0.7,0.9,1.3c0.1,2.7-0.3,5.3,0.3,8C166.3,246.8,166,247,165.6,247.2c-0.1-2.7-0.2-5.3-0.4-8c0-0.4,0.3-1.2-0.4-1.2
	c-0.8-0.1-0.9,0.7-0.7,1.3c0.5,2.3,0.3,4.6,0.3,6.8C164.5,246.9,164.8,247.2,165.6,247.2z"/>
<path class="st14" d="M170.2,234.5c0.2-0.4,0.5-0.8,1-0.7c0.6,0.1,0.5,0.7,0.5,1.1c0,2.8,0,5.6,0,8.4c0,0.9-0.4,1.4-1.2,1.4
	c-1,0.1-0.7-0.8-0.7-1.4c0-2.5,0-5,0-7.4C169.8,235.4,169.7,234.9,170.2,234.5c0,2.7,0,5.5,0,8.2c0,0.4-0.3,1.2,0.5,1.1
	c0.6,0,0.7-0.8,0.6-1.2c-0.6-2.3-0.3-4.6-0.3-6.8C171,235.2,171,234.6,170.2,234.5z"/>
<path class="st14" d="M167.5,236.1c0.3-0.4,1-1.2,1.1-0.1c0.3,2.8,0.3,5.7,0.4,8.5c0,0.4-0.3,0.7-0.7,0.8l0,0c0-2.5,0-5,0-7.6
	C168.3,237.1,168.6,236.2,167.5,236.1L167.5,236.1z"/>
<path class="st14" d="M168.3,245.3c-0.6,0.9-1.4,1.2-1.5-0.2c-0.2-2.7,0-5.4,0-8.1c0-0.5,0.2-0.8,0.8-0.9c0,0,0,0,0,0
	c-0.8,2.8-0.2,5.6-0.3,8.5C167.2,245.3,167.8,245.2,168.3,245.3L168.3,245.3z"/>
<path class="st2" d="M186.8,109.1c-0.5-0.1-1.3,0-1.1-0.6c0.6-1.6,0.1-3.2-0.1-5c1,0.4,0.7,1.6,1.6,1.8
	C187.3,106.6,187.2,107.9,186.8,109.1z"/>
<path class="st2" d="M186.5,96.8c-2.8-0.5-2.1-2.2-1.4-3.8c0.2,0,0.4,0,0.7,0C186.3,94.2,186.6,95.5,186.5,96.8z"/>
<path class="st2" d="M185.2,113.7c0.2-1.1,0.7-2.1,0.4-3.2c-0.2-1,0.6-0.6,1.1-0.6c0.1,1.5-0.5,2.8-0.8,4.2
	C185.7,113.9,185.4,113.8,185.2,113.7z"/>
<path class="st2" d="M187,101c-1.4-0.6-1.6-2.3-0.3-3.5C187.1,98.7,187.1,99.9,187,101z"/>
<path class="st2" d="M169.8,139.2c0.3-2,1.2-2.8,2.6-2.5C171.6,137.6,170.9,138.6,169.8,139.2z"/>
<path class="st2" d="M179.2,128.3c-0.3-0.1-0.8-0.3-0.7-0.4c0.9-0.7,0.7-2.6,2.5-2.4C180.4,126.5,180.1,127.6,179.2,128.3z"/>
<path class="st2" d="M161.1,146.3c-0.2-1.8,0-2.1,1.7-1.6C162.5,145.6,161.7,145.9,161.1,146.3z"/>
<path class="st2" d="M154.9,150.9c0.1-1.8,1.3-2,2.7-1.9C156.7,149.6,155.8,150.3,154.9,150.9z"/>
<path class="st2" d="M187,104.1c0.3-0.7-2-1.5,0-2.3C187.4,102.6,187.5,103.3,187,104.1z"/>
<path class="st2" d="M172.6,136.5c-0.2-1.5,0.7-1.9,2-2.1C174.2,135.5,173.3,135.9,172.6,136.5z"/>
<path class="st7" d="M185.8,93c-0.2,0-0.4,0-0.7,0c0.5-0.8-1.6-1.5,0-2.3C185.6,91.4,185.8,92.2,185.8,93z"/>
<path class="st2" d="M174.8,134.3c0.1-0.8-1-1.9,0.4-2.5c0,0.6-0.2,1.2,0.5,1.6C175.5,133.8,175.2,134,174.8,134.3z"/>
<path class="st2" d="M182.1,121.4c-0.1-0.8,0.3-1.3,1.1-1.2c0,0,0.2,0,0.2,0l0.2,0c0.1,0.5,0,0.8-0.4,1.2
	C182.9,121.4,182.5,121.4,182.1,121.4z"/>
<path class="st2" d="M176.8,131.8c0-1,0.1-2,1.5-2C178.1,130.7,177.5,131.3,176.8,131.8z"/>
<path class="st7" d="M185.2,113.7c0.2,0.1,0.5,0.2,0.7,0.4c-0.1,0.5-0.3,1-0.4,1.6c-0.4,0-0.7,0-1.1,0
	C184.7,115,184.9,114.3,185.2,113.7z"/>
<path class="st2" d="M184.4,115.6c0.4,0,0.7,0,1.1,0c0,0.4-0.1,0.7-0.4,0.9c-0.4-0.2-1.1,0.1-1.2-0.5
	C183.8,115.9,184.2,115.7,184.4,115.6z"/>
<path class="st2" d="M164.5,142.9c0.1-0.3-0.1-0.9,0.3-0.9c0.3,0,0.6,0.4,0.9,0.6c-0.4,0.3-0.7,0.6-1.1,1
	C164.5,143.3,164.5,143.1,164.5,142.9z"/>
<path class="st7" d="M183.6,118.3c0.1-0.8,0.6-0.8,1.2-0.7c-0.2,0.4-0.3,0.8-0.5,1.1C184.1,118.5,183.9,118.4,183.6,118.3z"/>
<path class="st7" d="M164.5,142.9c0,0.2,0.1,0.4,0.1,0.6c-0.1,0.4-0.4,0.5-0.8,0.6c-0.1-0.2-0.3-0.3-0.4-0.5
	C163.4,142.8,163.9,142.8,164.5,142.9z"/>
<path class="st7" d="M175.7,133.3c-0.6-0.4-0.4-1-0.5-1.6c0.3,0.1,0.5,0.3,0.8,0.4c0.1,0.1,0.3,0.3,0.4,0.4
	C176.1,132.8,175.9,133,175.7,133.3z"/>
<path class="st2" d="M158,148.7c0.1-0.5-0.3-1.2,0.4-1.4c0.3-0.1,0.3,0.4,0.4,0.7C158.7,148.4,158.3,148.6,158,148.7z"/>
<path class="st7" d="M181.4,124.5c-0.5-0.8-0.4-1,0.8-1.1C182.1,123.8,182.2,124.4,181.4,124.5z"/>
<path class="st2" d="M183.6,118.3c0.2,0.1,0.5,0.3,0.7,0.4c-0.1,0.2-0.1,0.5-0.2,0.7c-0.3,0-0.6,0-0.9,0
	C183.4,119.1,183.5,118.7,183.6,118.3z"/>
<path class="st7" d="M182.1,121.4c0.4,0,0.8,0,1.1,0c0,0.3-0.1,0.6-0.4,0.8C182.4,122.1,182.1,121.9,182.1,121.4z"/>
<path class="st7" d="M183.3,119.4c0.3,0,0.6,0,0.9,0c0.1,0.5-0.3,0.6-0.6,0.8c0,0-0.2,0-0.2,0s-0.2,0-0.2,0
	C183.3,120,183.3,119.7,183.3,119.4z"/>
<path class="st2" d="M176.4,132.5c-0.1-0.1-0.3-0.3-0.4-0.4c0.2-0.3,0.5-0.4,0.8-0.4C176.7,132,176.5,132.3,176.4,132.5z"/>
<path class="st7" d="M166.2,141.9c-0.1-0.5-0.3-0.9,0-1.4C166.5,141,166.4,141.5,166.2,141.9C166.2,141.9,166.2,141.9,166.2,141.9z"
	/>
<path class="st2" d="M159.4,147.3c0.1-0.4,0.4-0.6,0.8-0.6C160.2,147.2,159.9,147.4,159.4,147.3z"/>
<path class="st2" d="M163.3,143.6c0.1,0.2,0.3,0.3,0.4,0.5c-0.1,0.2-0.2,0.4-0.4,0.3C163.3,144.1,163.3,143.9,163.3,143.6z"/>
<path class="st2" d="M181,125.6c0-0.3,0-0.6,0.3-0.8C181.4,125.2,181.4,125.5,181,125.6z"/>
<path class="st2" d="M153.5,152c0-0.2,0-0.5,0-0.7c0.3,0.1,0.2,0.4,0.2,0.6C153.7,151.9,153.6,152,153.5,152z"/>
<path class="st7" d="M184.8,89.9c-0.2,0-0.5,0-0.5-0.1c0-0.3,0.2-0.2,0.4-0.3C184.8,89.6,184.8,89.8,184.8,89.9z"/>
<path class="st2" d="M160.6,146.6c0.1-0.1,0.3-0.2,0.4-0.3C161,146.6,160.9,146.6,160.6,146.6z"/>
<path class="st2" d="M173.2,132.2c0.1,0.1,0.1,0.1,0.2,0.2c0,0-0.1,0.1-0.1,0.1c-0.1,0-0.2-0.1-0.3-0.1
	C173.1,132.4,173.2,132.3,173.2,132.2z"/>
<path class="st2" d="M151.5,153.8c-0.1-0.1-0.2-0.1-0.2-0.2C151.5,153.3,151.5,153.6,151.5,153.8
	C151.6,153.7,151.5,153.8,151.5,153.8z"/>
<path class="st3" d="M80.1,115.6c0.1,0,0.1,0.1,0.2,0.1C80.2,115.7,80.2,115.6,80.1,115.6C80.1,115.6,80.1,115.6,80.1,115.6z"/>
<path class="st14" d="M197.4,20.9c0.2-1,0.9-1.2,1.7-1.1c0.9,0.2,0.6,1,0.6,1.6c-0.4,2.3-0.8,4.6-1.2,6.9c-0.3,1.5-0.4,3-0.7,4.5
	c-0.2,0.9-0.4,1.8-1.6,1.8c-1.2,0.1-2.2,0.1-1.6-1.7c1-3.2,1.1-6.6,1.7-9.9C196.5,22.2,196.3,21.2,197.4,20.9
	c-0.6,3.8-0.9,7.6-1.8,11.3c-0.1,0.6-0.5,1.5,0.3,1.6c0.9,0.2,0.9-0.8,1-1.5c0.6-3.3,1-6.7,1.7-9.9
	C199.1,20.9,198.5,20.8,197.4,20.9z"/>
<path class="st14" d="M190.1,33.4c1-3.5,1-7.2,1.8-10.9c0.3-1.2,1.2-1.5,2.2-1.7c0.8-0.1,1.2,0.3,1,1.1c-0.9,4-1.1,8-2.1,12
	c-0.3,1.1-0.7,1.5-1.8,1.5C189.8,35.4,190.3,34.3,190.1,33.4z M194.1,23.2c0.3-1,0.3-1.5-0.3-1.6c-0.5-0.1-0.9,0.1-1.1,0.5
	c-0.1,0.3-0.1,0.7-0.2,1.1c-0.4,3.3-0.9,6.5-1.3,9.8c-0.1,0.6-0.5,1.5,0.1,1.7c0.9,0.2,1-0.8,1.1-1.4
	C193,29.8,193.6,26.2,194.1,23.2z"/>
<path class="st14" d="M185.9,34.8c1.1-3.5,0.6-7.5,1.6-11.2c0.1-0.4,0.2-0.9,0.4-1.3c0.4-0.8,1.3-1,2-0.9c1,0.2,0.4,1,0.3,1.6
	c-0.4,4-0.8,8.1-1.5,12.1c-0.1,0.4,0,1-0.4,1.2c-0.6,0.4-1.3,0.8-1.9,0.5C185.6,36.4,186.1,35.6,185.9,34.8z M189.4,23.8
	c-0.1-0.3,0.3-1.2-0.4-1.3c-1-0.2-0.8,0.9-0.8,1.4c-0.5,3.6-1,7.3-1.4,10.9c0,0.4-0.3,1.2,0.5,1.2c0.6,0,0.9-0.6,1-1.2
	C188.6,31.2,189,27.6,189.4,23.8z"/>
<path class="st14" d="M183.6,36.2c-0.1,0.8-0.7,0.8-1.3,0.7c-0.7-0.1-0.7-0.7-0.6-1.2c0.6-3.9,0.8-7.9,1.9-11.8
	c0.3-1,1.1-1.2,1.9-1.1c1.3,0.2,0.5,1,0.4,1.6c-0.6,3.6-0.6,7.2-1.5,10.7C184.3,35.6,184.3,36.2,183.6,36.2c0.1-0.5,0.1-1,0.2-1.5
	c0.5-3.3,0.9-6.6,1.3-10c0-0.4,0.2-1-0.5-1c-0.4,0-0.5,0.5-0.6,0.9c-0.5,3.5-1,7-1.5,10.5C182.4,36,182.9,36.2,183.6,36.2z"/>
<path class="st14" d="M182.1,25.2c-0.7,3.9-1.3,7.8-2,11.8c-0.2,1.1-1.2,1.5-2,1.4c-1.2-0.2-0.3-1.1-0.2-1.7
	c0.3-3.7,0.9-7.4,1.1-11.1c0.1-1.9,1.5-1.8,2.5-1.9C182.4,23.6,182,24.6,182.1,25.2z M181.3,24.9c0,0,0.1-0.4-0.3-0.4
	c-0.3,0-0.7,0.1-0.8,0.3c-0.5,0.6-0.6,1.4-0.7,2.1c-0.3,3.2-0.6,6.4-1,9.6c0,0.4-0.3,0.8,0.2,0.9c0.6,0.1,0.7-0.4,0.8-0.9
	C180.2,32.9,180.8,29.1,181.3,24.9z"/>
<path class="st14" d="M183.3,168.1c0,0.5,0,0.8,0,1.1c-0.1,0.7,0.3,1.9-0.8,1.8c-0.8,0-2-0.6-1.9-1.8c0.2-2.7-0.6-5.3-0.4-8
	c0-0.5-0.3-1.3,0.6-1.4c0.8,0,1.6,0.3,1.7,1.2C182.5,163.5,183.5,165.8,183.3,168.1z M180.6,160.4c0.4,2.9,0.8,5.7,0.8,8.6
	c0,0.4,0.2,0.8,0.6,0.8c0.7,0,0.5-0.6,0.5-1c0.2-2.4-0.4-4.8-0.7-7.1C181.7,161.1,181.7,160.4,180.6,160.4z"/>
<path class="st14" d="M191.7,163.9c1.1,0.2,1.1,1.2,1.1,2c-0.1,2.6,0.4,5.1,0.4,7.6c0,0.6,0.5,1.7-0.5,1.7c-1,0-2.1-0.4-2.1-1.8
	c0-1.3,0-2.6,0-3.8c0-1.5,0.1-2.9-0.3-4.4C189.9,164,190.4,163.7,191.7,163.9c-0.7,0.1-0.8,0.5-0.8,1.1c0.1,2.8,0.6,5.6,0.4,8.4
	c0,0.8,0.5,1.1,1.4,1.1c-0.3-1.1-0.1-2.3-0.3-3.4C191.9,168.7,192.5,166.3,191.7,163.9z"/>
<path class="st14" d="M188.2,173.5c-0.4-0.2-0.7-0.5-0.7-1c0-3.4,0-6.7,0-10.1c1.2,0.2,1.8,1.1,1.9,2.5c0.2,2.7,0.4,5.4,0.7,8.2
	c0,0.4,0,0.8-0.4,1C189.1,174.4,188.6,174,188.2,173.5c0.8,0,1.3-0.3,1.1-1.1c-0.5-1.9-0.1-3.9-0.4-5.9c-0.2-1,0.1-2.3-1-3.3
	C187.6,166.9,188.5,170.2,188.2,173.5z"/>
<path class="st14" d="M185.2,172c-0.9-0.1-1.2-0.6-1.1-1.4c0.1-2.6-0.2-5.2-0.4-7.8c0-0.5-0.6-1.6,0.6-1.6c1,0,1.7,0.6,1.7,1.7
	c0.1,2.1,0.6,4.1,0.4,6.2c-0.1,0.8-0.1,1.7,0.2,2.4c0.2,0.4,0.1,0.8-0.3,1C185.6,172.8,185.4,172.4,185.2,172
	c0.8-0.1,0.9-0.7,0.7-1.3c-0.6-2.3-0.3-4.7-0.4-7c0-0.6-0.1-1.2-1.2-1.7C184.6,165.5,184.6,168.8,185.2,172z"/>
<path class="st14" d="M194,170c0-1.4,0-2.8,0-4.2c0-0.5-0.4-1.3,0.6-1.2c0.6,0.1,1.3,0.5,1.2,1.2c-0.4,3.3,0,6.5,0.4,9.8
	c0,0.5,0,1-0.6,0.9c-0.9-0.1-1.6-0.5-1.6-1.6C194,173.3,194,171.6,194,170C194,170,194,170,194,170z M195.2,175.6
	c-0.2-3.4,0.1-6.8-0.6-10.1C195,168.8,194.7,172.2,195.2,175.6z"/>
<path class="st14" d="M40.6,110.2c0.7,1.2,0.6,2.6,0.7,3.8c0.1,1.8,0.4,3.5,0.8,5.3c0-2.5,0-4.9,0-7.4c0-0.4-0.3-1.2,0.5-1.2
	c0.6,0,1,0.5,1,1.2c-0.2,2.9,0.6,5.8,0.4,8.7c0,0.5,0.2,1.1-0.5,1.3c-0.5,0.1-0.8-0.3-1.1-0.6c-0.1-0.1-0.2-0.4-0.3-0.4
	c-2.8-0.8-2.2-3.1-2.3-5.1c-0.1-2.2-0.3-4.4-0.5-6.6C40,109.2,40.5,109.5,40.6,110.2c-0.3-0.1-0.9-0.3-0.7,0.4
	c0.4,1.2,0.1,2.5,0.3,3.8c0.4,1.7,0.2,3.5,0.6,5.3C41.3,116.5,40.6,113.4,40.6,110.2z M43.1,114.3c-0.2,0-0.4,0-0.6,0.1
	c0.8,2.2,0.1,4.4,0.6,7C43.1,118.7,43.1,116.5,43.1,114.3z M42.6,113.3c0.4-0.7,0.5-1.1,0-1.6C42.6,112.2,42.6,112.5,42.6,113.3z"/>
<path class="st14" d="M36.7,109.5c0.4-0.7-0.5-2,0.6-2.1c1-0.1,0.8,1.3,1.1,2.1c0.7,2.8,0.8,5.6,1.1,8.4c0.1,0.5,0.3,1.3-0.6,1.3
	c-0.7,0-0.8-0.6-0.9-1.2C37.5,115.3,37.1,112.4,36.7,109.5z M38.4,118.5c0.2,0,0.4-0.1,0.6-0.1c-0.5-3.3-0.9-6.5-1.4-9.8
	c-0.2,0-0.4,0.1-0.6,0.1C37.6,112,38,115.2,38.4,118.5z"/>
<path class="st14" d="M47.9,124.1c-0.7-0.8-0.3-1.8-0.4-2.7c-0.1-2.5,0-5,0-7.5c0-0.5-0.2-1.1,0.6-1.2c0.6,0,0.9,0.4,0.9,1
	c0,3.4,0.1,6.9,0,10.3C49,125.2,48.3,124.7,47.9,124.1c0.4-0.1,0.7-0.2,0.7-0.7c-0.1-3.2,0.3-6.5-0.2-9.7c0,0-0.2,0-0.6-0.1
	C47.9,117.1,47.9,120.6,47.9,124.1z"/>
<path class="st14" d="M45.6,111.8c0.5,0.1,0.8,0.4,0.8,0.9c-0.1,3,0.1,6.1,0.4,9.1c0,0.5,0,1.1-0.5,1.3c-0.5,0.3-0.8-0.2-1-0.6l0,0
	c1.1-0.2,0.8-1,0.8-1.7C46,117.8,46.1,114.8,45.6,111.8L45.6,111.8z"/>
<path class="st14" d="M45.2,122.5c-0.7-0.6-0.3-1.4-0.4-2.2c-0.1-2.4,0.2-4.8-0.3-7.2c-0.1-0.5-0.8-2.2,1.1-1.3c0,0,0,0,0,0
	c-0.6,0.5-0.4,1.2-0.4,1.8C45.2,116.5,45.2,119.5,45.2,122.5L45.2,122.5z"/>
<path class="st11" d="M161.8,249.2c-1.2-3.1-0.7-6.3-0.5-9.5C161.8,242.9,162.5,246,161.8,249.2z"/>
<path class="st11" d="M173.5,233.6c0,2.7,0.3,5.4,0,8.2C173.5,239,173.5,236.3,173.5,233.6z"/>
<path class="st11" d="M165.6,247.2c-0.8,0-1.1-0.3-1.2-1.1c0-2.3,0.2-4.6-0.3-6.8c-0.1-0.6,0-1.3,0.7-1.3c0.7,0,0.4,0.8,0.4,1.2
	C165.4,241.9,165.5,244.5,165.6,247.2L165.6,247.2z"/>
<path class="st11" d="M170.2,234.5c0.8,0.1,0.8,0.7,0.8,1.3c0.1,2.3-0.2,4.6,0.3,6.8c0.1,0.5,0.1,1.2-0.6,1.2
	c-0.8,0.1-0.5-0.7-0.5-1.1C170.2,240,170.2,237.3,170.2,234.5C170.2,234.5,170.2,234.5,170.2,234.5z"/>
<path class="st11" d="M168.3,245.3c-0.5,0-1.1,0-1.1-0.7c0.1-2.8-0.5-5.7,0.3-8.5c1.1,0.2,0.7,1,0.7,1.6
	C168.3,240.2,168.3,242.8,168.3,245.3z"/>
<path class="st11" d="M197.4,20.9c1-0.1,1.6,0,1.3,1.5c-0.7,3.3-1.1,6.6-1.7,9.9c-0.1,0.7-0.1,1.7-1,1.5c-0.8-0.1-0.5-1-0.3-1.6
	C196.6,28.4,196.8,24.6,197.4,20.9C197.4,20.9,197.4,20.9,197.4,20.9z"/>
<path class="st11" d="M194.1,23.2c-0.5,3-1,6.6-1.7,10.1c-0.1,0.6-0.3,1.7-1.1,1.4c-0.7-0.2-0.2-1.1-0.1-1.7
	c0.5-3.3,0.9-6.5,1.3-9.8c0.1-0.4,0-0.8,0.2-1.1c0.2-0.5,0.6-0.6,1.1-0.5C194.4,21.8,194.4,22.2,194.1,23.2z"/>
<path class="st11" d="M189.4,23.8c-0.4,3.8-0.8,7.3-1.1,10.9c-0.1,0.6-0.4,1.2-1,1.2c-0.8,0-0.5-0.8-0.5-1.2
	c0.4-3.6,0.8-7.3,1.4-10.9c0.1-0.5-0.2-1.5,0.8-1.4C189.7,22.7,189.3,23.5,189.4,23.8z"/>
<path class="st11" d="M183.6,36.2c-0.8,0-1.2-0.2-1.1-1.1c0.5-3.5,1-7,1.5-10.5c0.1-0.4,0.2-0.9,0.6-0.9c0.7,0,0.6,0.6,0.5,1
	c-0.4,3.3-0.9,6.6-1.3,10C183.8,35.2,183.7,35.7,183.6,36.2C183.6,36.2,183.6,36.2,183.6,36.2z"/>
<path class="st11" d="M181.3,24.9c-0.5,4.1-1,7.9-1.8,11.7c-0.1,0.4-0.2,1-0.8,0.9c-0.5-0.1-0.2-0.6-0.2-0.9c0.3-3.2,0.7-6.4,1-9.6
	c0.1-0.8,0.2-1.5,0.7-2.1c0.2-0.2,0.6-0.3,0.8-0.3C181.4,24.5,181.3,25,181.3,24.9z"/>
<path class="st11" d="M180.6,160.4c1.1,0,1.1,0.6,1.2,1.3c0.3,2.4,0.9,4.7,0.7,7.1c0,0.4,0.2,1-0.5,1c-0.4,0-0.6-0.4-0.6-0.8
	C181.4,166.2,181,163.3,180.6,160.4z"/>
<path class="st11" d="M191.7,163.9c0.8,2.3,0.2,4.8,0.7,7.2c0.2,1.1,0,2.2,0.3,3.4c-0.9,0-1.5-0.3-1.4-1.1c0.2-2.8-0.3-5.6-0.4-8.4
	C190.9,164.5,191,164,191.7,163.9C191.7,163.9,191.7,163.9,191.7,163.9z"/>
<path class="st11" d="M188.2,173.5c0.3-3.3-0.6-6.7-0.3-10.3c1.1,1.1,0.8,2.3,1,3.3c0.3,1.9-0.1,3.9,0.4,5.9
	C189.6,173.3,189,173.6,188.2,173.5L188.2,173.5z"/>
<path class="st11" d="M185.2,172c-0.5-3.2-0.6-6.5-0.8-10c1,0.5,1.1,1.1,1.2,1.7c0.1,2.3-0.2,4.7,0.4,7
	C186,171.3,186,171.9,185.2,172L185.2,172z"/>
<path class="st11" d="M195.2,175.6c-0.5-3.4-0.2-6.8-0.6-10.1C195.3,168.8,195,172.2,195.2,175.6z"/>
<path class="st11" d="M40.6,110.2c0,3.1,0.6,6.2,0.3,9.4c-0.4-1.7-0.3-3.5-0.6-5.3c-0.3-1.2,0.1-2.5-0.3-3.8
	C39.7,109.9,40.3,110.2,40.6,110.2C40.6,110.2,40.6,110.2,40.6,110.2z"/>
<path class="st11" d="M43.1,114.3c0,2.2,0,4.4,0,7c-0.5-2.6,0.2-4.8-0.6-7C42.7,114.3,42.9,114.3,43.1,114.3z"/>
<path class="st11" d="M42.6,113.3c0-0.7,0-1.1,0-1.6C43.1,112.1,43,112.5,42.6,113.3z"/>
<path class="st11" d="M38.4,118.5c-0.4-3.3-0.9-6.5-1.3-9.8c0.2,0,0.4-0.1,0.6-0.1c0.5,3.3,0.9,6.5,1.4,9.8
	C38.9,118.4,38.7,118.4,38.4,118.5z"/>
<path class="st11" d="M47.9,124.1c0-3.5,0-7,0-10.5c0.3,0,0.6,0,0.6,0.1c0.4,3.2,0.1,6.5,0.2,9.7C48.6,123.8,48.3,124,47.9,124.1
	C47.9,124,47.9,124.1,47.9,124.1z"/>
<path class="st11" d="M45.2,122.5c0-3,0-6,0-9c0-0.6-0.2-1.3,0.4-1.8c0.5,3,0.4,6,0.4,9.1C46,121.5,46.3,122.3,45.2,122.5z"/>
<g>
	<path class="st0" d="M168.3,43.8c-3.4,3.7-3.8,9.1-1,12.8c0,0,0.1-0.1,0.4-0.7c-0.2-0.5-0.5-1-0.7-1.5c-1.5-3.9,1.3-10.1,5.2-12.4
		c-0.3-0.3-0.6-0.7-0.9-1C170.1,41.9,169.2,42.8,168.3,43.8z"/>
	<path class="st0" d="M122.2,163.2c-6.5-0.5-11.6,2.6-16.2,6.7c-4,3.6-6.4,8.1-5.4,13.8c0.2,1.4-0.3,2.1-1.5,2.9
		c-6.8,4.3-14.4,6-22.1,7.4c-10.1,1.9-19.7,0.7-28.4-5c-4.7-3-7.8-7.1-8.2-12.8c-0.6-9.4,1.4-18.3,6.2-26.5c1.1-2,2.4-3.9,3.3-6
		c2.5-6,1.8-11.1-4.3-14.7c-2.6-1.6-5.8-2.3-8.7-3.4c-2.3-0.9-4.7-1.7-5.7-4.2c-1.5-3.8-1.7-7.7-0.2-11.4c-0.4-0.6-0.7-1.3-1-1.9
		c-2.3,2.8-2.2,6.4-2,9.8c0.2,4.1,1.9,7.3,5.8,9c1.8,0.8,3.7,1.5,5.7,2.1c3.4,1,6.3,2.6,8.8,5c1.8,1.8,3,3.9,2,6.4
		c-0.8,2.1-1.7,4.2-3,6.1c-5.5,8.1-9.3,16.8-9.7,26.8c-0.2,5.4,0.7,10.6,4.5,14.6c7.4,7.8,16.9,10.3,27.3,10.2
		c10.2-0.1,19.7-3,28.6-7.9c0.9-0.5,1.9-0.8,3.1-1.3c0.4,4,1,7.6,1.1,11.2c0.3,6.9-2.5,10.3-9,11.4c-4.5,0.8-9,0.7-13-1.3
		c-5.7-2.8-11.3-5.8-16.8-9.1c-9.4-5.6-19.3-5.5-26.2,1.6c-10.7,11-4.3,25.8,6.4,30.1c2.2,0.9,4.4,1,6.6,0.3
		c2.6-0.8,3.8-2.7,4.3-5.2c0.5-2.2-0.1-4-1.9-5.4c-1.9-1.6-3.9-3.1-5.6-4.9c-1.3-1.3-1.8-3-0.9-4.8c0.9-1.7,3.4-2.6,5.4-2.2
		c0.8,0.1,1.7,0.5,2.5,0.8c1.1,0.4,2.3,0.9,3.4,1.4c-1.6-1.2-3.2-2.2-5-2.9c-3.2-1.3-6.2-0.4-7.8,2.1c-1.4,2.2-0.9,5.1,1.5,7.5
		c1.4,1.4,3.1,2.6,4.6,4c1.4,1.4,1.8,3,0.9,4.9c-0.9,1.9-2.4,2.6-4.4,2.4c-0.9-0.1-1.9-0.3-2.8-0.6c-5.4-2-9.9-8.5-10.1-14.3
		c-0.2-5.8,4-12.6,9.4-15c5.2-2.4,10.2-1.6,14.9,1c5.4,2.9,10.4,6.4,15.8,9.3c6.6,3.6,13.7,4.9,21.1,3c6.9-1.7,10.6-6,10.2-13.1
		c-0.3-5.8-1.2-11.5-2.3-17.1c-1.3-6.4,0.8-11.3,5.6-15.3c4.1-3.3,8.6-5.5,14.1-5.2C122.8,163.3,122.5,163.2,122.2,163.2z"/>
	<path class="st0" d="M180.4,81.2c-6.2-8.5-14.3-14.9-23.9-19c-3.7-1.6-4.9-4-5.2-7.5c-0.8-9.3,3.7-15.3,11.8-17.8
		c0.4-0.1,0.9-0.2,1.3-0.2c-1.1-0.5-2.1-1-3.2-1.5c-5.1,1.2-9.2,3.4-11.3,8.3c-2.2,5.1-1.4,10.2,0.6,14.9
		c-5.4-0.9-10.8-2.3-16.2-2.7c-12.9-0.9-25.3,1.4-36.4,8.6c-5.9,3.9-10.6,8.8-14.1,14.8c-3.9,6.7-6.3,14-6.9,21.8
		c-0.5,7.5,0.6,14.6,3.9,21.4c2.8,5.9,7.2,10.5,11.2,15.5c3.6,4.4,7.1,9,10.2,13.8c3.5,5.5,2.5,12.1-2.4,16.2
		c-3.4,2.9-6.9,5.7-10.8,7.8c-8.1,4.4-16.7,5.2-25.6,2.5c-6.1-1.8-10.2-6.7-10.6-12.3c-0.3-3.9,0.3-7.8,1.9-11.4
		c1.7-3.9,3.8-7.6,5.8-11.4c2-3.6,3.6-7.3,2.5-11.5c-0.5-1.7-1.2-3.3-1.8-4.9c-0.2,0.1-0.5,0.2-0.7,0.3c0.6,1.9,1.3,3.7,1.7,5.5
		c0.9,4.5-1.5,8.1-3.7,11.6c-3,4.7-5.7,9.6-7.2,15c-1.7,6.3-1.4,12.3,3.3,17.4c3.4,3.7,7.9,5.5,12.8,6.2c12.9,1.8,24-2,33-11.4
		c2.6-2.7,4.6-5.9,5-9.9c0.5-5.2-0.9-9.9-3.9-14.1c-4-5.5-8.2-10.7-12.2-16.1c-6.9-9.3-10.6-19.5-9-31.1
		c2.2-15.4,9.5-27.4,23.3-34.7c13.6-7.1,27.9-7.5,42.5-3.7c8.3,2.1,15.7,6.2,22.3,11.6c6.7,5.5,12.2,11.8,14.3,20.5
		c1.1,4.7,1.7,9.5,1.1,14.3c-1.1,8.6-4.8,16.2-10.3,22.9c-4.6,5.7-10.4,10-16.1,14.4c-5.6,4.4-9.9,9.8-12.7,16.3
		c-0.6,1.3-0.9,2.7-1.3,4.1c1.6-2.1,2.8-4.2,4.3-6.2c5.2-7,12.7-11.4,19.3-16.8c10.4-8.4,18-18.6,20.2-32.1
		C188.9,100,186.9,90.1,180.4,81.2z"/>
	<path class="st0" d="M132.8,219.6c-6-4.3-10.3-10.3-12.7-17.2c-3.4-9.8-3.4-19.7,2.9-28.9c-0.3,0.1-0.6,0.1-0.8,0.2
		c-7.9,3.3-11.5,10-9.8,18.3c1.2,5.9,2.7,11.7,3.9,17.6c0.8,4,1,8.1-1.2,11.9c-3.6,6.3-9.5,9.1-16.4,9.9c-6.1,0.7-11.8-1.2-17.4-3.2
		c-6.6-2.4-12.2-6.5-17.7-10.7c-0.9-0.7-1.9-1.5-2.8-2.2c1.5,1.8,3.1,3.3,4.8,4.8c5.6,5,11.6,9.4,18.8,12.2c8.6,3.3,17,3.4,25.1-1
		c6.5-3.5,10.7-8.8,10.7-16.6c0-1.4,0-2.8,0-3.8c3.8,3.2,7.7,6.5,11.6,9.7C132.4,220.4,132.6,220,132.8,219.6z M116.8,183.1
		c-1,2.7-1.5,5.6-2.2,8.3c-2.3-6.4,0.6-13.3,6.2-16.3C119.5,177.8,117.9,180.3,116.8,183.1z"/>
	<path class="st0" d="M224.8,174.7c-0.3,1.5-0.6,6-1.2,7.5c-1.8,4.7-4.6,8.5-8.8,11.3c-8.5,5.7-18,8.6-28,10.2c-0.4,0.1-0.9,0-1.5,0
		c0-3.7,0-7.1,0.1-10.7c1.7-0.1,3.7-0.2,5.7-0.3c6.1-0.4,11.8-2.1,16.6-6.1c2.9-2.4,3.6-6.2,4.9-9.5c-1.2,0.1-1,1.1-2.2,1.3
		c-2.2,4.1-5.6,7.3-9.8,9.2c-4.3,1.9-8.8,2.3-13.3,2.7c-2.4,0.3-4.3-0.1-4.9-2.8c-0.2-0.5-0.6-1-0.9-1.5c-5.3-8-13-12.3-22.1-14.4
		c-1.1-0.2-2.2-0.2-3.6-0.4c0.6-0.5,1-0.9,1.4-1.2c4.5-3.9,9.2-7.7,13.6-11.8c5.3-5,10.2-10.4,15.3-15.6c4.8-5,8.6-10.6,11.2-17
		c5.8-14.6,3.6-28.3-4.8-41.2c-3.8-5.7-8.5-10.7-13.5-15.4c-4.2-3.9-8-8.3-11.9-12.5l-0.1,0.1c0.2,0.4,0.4,0.9,0.7,1.3
		c3.4,4.5,6.8,9,10.4,13.3c4.4,5.2,9,10.3,12.5,16.2c5.7,9.6,7.8,19.8,5.4,30.8c-2,9-6.4,16.9-12.5,23.7c-8,8.9-16.8,17.3-25.1,26.1
		c-2.6,2.8-5.8,3.8-9.3,4.4c-0.4-0.5-0.9-0.9-1.4-1.4c0.6,1.9,0.6,1.9-0.8,3.3c-4.7,4.5-4.1,10.3,1.4,13.2c3.2,1.7,6.3,0.5,7.4-2.9
		c0.1-0.4,0.3-0.7,0.5-1.2c3,2.6,6.3,4.4,10,5.4c0.6,0.2,1.3,0.5,1.5,1c1.7,3.5,1.8,7.1,0.1,10.7c-0.2,0.5-1.1,1-1.7,1
		c-2.6-0.2-5.2-0.3-7.8-0.7c-13.7-2-21.8-11-22.1-24.7c0-0.5-0.2-1.1-0.3-2.1c-0.6,2.4-1,4.2-1.4,6c1-0.6,0.9,0.3,1,0.8
		c0.6,2.9,0.9,5.8,1.7,8.5c2.2,7.2,7.7,11.2,14.6,13.3c4.1,1.2,8.4,1.9,12.8,2.8c-1,0.8-2,1.8-3.2,2.5c-5.3,3-10.9,4.3-16.9,2
		c-9.6-3.7-14.8-14.5-11.8-24.4c0.6-1.9,1.3-3.7,1.8-5.5c-3.6,5.4-4.8,11.4-3,17.9c1.9,8.4,7.3,14,15.7,16.2
		c7.3,1.9,17.9-2.4,22.3-8.6c3-4.3,3.8-8.9,1.9-13.8c-2.3-5.7-6.7-9.3-12.2-11.6c-1.7-0.7-3.6-1-5.4-1.4c-0.1,0.1-0.1,0.3-0.2,0.5
		c0.3,0.4,0.7,0.8,1,1.3c1,1.7,0.9,3.4,0,5.1c-0.8,1.4-2.1,1.9-3.7,1.7c-4.2-0.5-6.6-5-4.7-8.8c1.8-3.7,5-4.9,8.8-5
		c5.8-0.1,10.9,2.2,15.8,5.1c12.8,7.7,15.3,22.1,9.6,33c-3.1,5.8-8.2,9-13.9,11.4c0.2,0.2,0.4,0.4,0.6,0.6c9-3.4,14.4-9.7,17.6-18.5
		c0.3-0.1,0.5-0.1,0.8-0.1c10.4,0,20.1-2.4,29.1-7.6c4.2-2.4,7.7-5.5,10.1-9.7c1.8-3.2,2.3-7.1,2.8-10.6
		C226.4,177,225.8,174.7,224.8,174.7z M154.2,179.7c0.1-0.2,0.3-0.5,0.4-0.7c4.6,0.9,8.3,3.3,11.3,6.8c-0.2,0.3-0.3,0.5-0.5,0.8
		C161.6,184.4,157.9,182.1,154.2,179.7z"/>
	<path class="st0" d="M111,130.4c2.5-2.4,6.6-2.9,9.9-1.3c3.7,1.8,5.8,5.5,5.4,9.4c-0.4,4-2.5,6.8-6.2,8.4s-7.5,1.5-10.9-1
		c-2.9-2.1-3.3-5.2-2.9-8.5C106.8,134.3,107.9,131.6,111,130.4c-1.1,1.6-2.6,3.1-3.3,4.9c-1.5,4,0,8.3,3,10c4.7,2.6,11,0.6,13.3-4.2
		c1.9-4.1,0.4-9-3.2-10.7c-0.4,2-1.6,2.9-3.3,2.5c-1.8-0.4-2.5-1.7-2-4C113.9,129.5,112.4,129.9,111,130.4z"/>
	<path class="st0" d="M130.9,133.8c3.4-3.3,8.9-3.5,12.6-0.4c3.9,3.3,4.6,8.7,1.8,12.8c-3.4,4.8-10.5,6.1-15.2,2.9
		C124.7,145.5,126.5,135.4,130.9,133.8c-0.2,0.3-0.4,0.7-0.7,1c-2.6,2.9-3.2,7.8-1.3,11.1c1.5,2.7,5,4,9.1,3.3
		c3.6-0.6,6.5-3.5,7.2-7.3c0.7-3.6-0.6-6.6-3.7-8.5c-0.8,2.1-2.1,3.1-3.7,2.4c-0.7-0.3-1.5-0.9-1.8-1.5s-0.1-1.4-0.1-2.5
		C134.1,132.6,132.5,133.2,130.9,133.8z"/>
</g>
</svg>
