<?xml version="1.0" standalone="no"?>
<!DOCTYPE svg PUBLIC "-//W3C//DTD SVG 1.0//EN" "http://www.w3.org/TR/2001/REC-SVG-20010904/DTD/svg10.dtd">
<svg xmlns="http://www.w3.org/2000/svg" xmlns:xlink="http://www.w3.org/1999/xlink" id="body_1" width="256" height="192">

<g transform="matrix(0.75 0 0 0.75 32.000008 -0)">
    <path d="M127.1 0.8C 62.199997 0.8 66.2 28.9 66.2 28.9L66.2 28.9L66.299995 58.1L128.2 58.1L128.2 66.9L41.7 66.9C 41.7 66.9 0.10000229 62.2 0.10000229 127.7C 0.10000229 193.2 36.4 190.9 36.4 190.9L36.4 190.9L58 190.9L58 160.5C 58 160.5 56.8 124.2 93.7 124.2L93.7 124.2L155 124.2C 155 124.2 189.6 124.799995 189.6 90.799995L189.6 90.799995L189.6 34.799995C 189.7 34.7 194.9 0.8 127.1 0.8zM92.9 20.4C 99.1 20.4 104 25.4 104 31.5C 104 37.6 99 42.6 92.9 42.6C 86.8 42.6 81.8 37.6 81.8 31.499998C 81.7 25.4 86.7 20.4 92.9 20.4z" stroke="none" fill="#646464" fill-rule="nonzero" />
    <path d="M128.9 255.2C 193.79999 255.2 189.79999 227.09999 189.79999 227.09999L189.79999 227.09999L189.69998 197.9L127.79998 197.9L127.79998 189.09999L214.29999 189.09999C 214.29999 189.09999 255.9 193.79999 255.9 128.29999C 255.9 62.799988 219.59999 65.09999 219.59999 65.09999L219.59999 65.09999L198 65.09999L198 95.49999C 198 95.49999 199.2 131.79999 162.3 131.79999L162.3 131.79999L101 131.79999C 101 131.79999 66.4 131.19998 66.4 165.19998L66.4 165.19998L66.4 221.29999C 66.3 221.3 61.1 255.2 128.9 255.2zM163.1 235.6C 157 235.6 152 230.6 152 224.5C 152 218.4 157 213.4 163.1 213.4C 169.3 213.4 174.20001 218.4 174.20001 224.5C 174.3 230.6 169.3 235.6 163.1 235.6z" stroke="none" fill="#DEDEDE" fill-rule="nonzero" />
</g>
</svg>