




<?xml version="1.0" encoding="UTF-8"?>
<svg width="352px" height="92px" viewBox="0 0 352 92" version="1.1" xmlns="http://www.w3.org/2000/svg" xmlns:xlink="http://www.w3.org/1999/xlink">
    <title>Logos</title>
    <g id="Logos" stroke="none" stroke-width="1" fill="none" fill-rule="evenodd">
        <g id="logo-apple" transform="translate(83.000000, 14.000000)" fill="#707780" fill-rule="nonzero">
            
		<path d="M171.4,69.3c23.6,20.5,23.9,50.4,27.8,81.2c2.6-4.3,4.2-6.8,5.5-9.4c12.5-25.3,19-52.1,18.9-80.5
	c-0.1-18.3,5.4-35,17.3-49c3.3-3.9,7.9-6.8,13.1-9.6c-8.8,23.9,2.7,43.8,11.1,63.8c12.3,29.2,19.9,59.2,20.7,90.9
	c0.2,6.8,1.8,13.5,4,20.4c5.3-43.9,6.2-88.8,34.5-126c-4.9,29.5,3.1,55.7,17.8,80.7c23.7,40.1,31.7,82.4,15.6,127.2
	c-3.9,10.8-10.8,20.5-17,32c30.4-6.1,60.4-12,92.5-18.4c-8.9,23.7-23.2,44.6-37.7,65.3c-2.3,3.4-8.3,5.9-12.7,5.9
	c-85,0.3-170,0.3-255,0.1c-3.6,0-8.4-1.5-10.7-4.1c-9.1-10-17.5-20.8-24.3-32.5c-3.5-6-6.7-12.2-9.2-18.6
	c-0.5-1.4-4.2-15.7-4.8-15.8c28.6,6.1,56.4,12.1,85.9,18.5c-1.3-2.9-1.5-4-2.2-4.9c-25.7-33.6-30.4-70.7-17.9-110.4
	c6.3-20.2,14.5-39.8,19.9-60.2C168.4,100.9,169.1,85.2,171.4,69.3z"/>
<path d="M389.9,372.1c0,15.2,0,30,0,45.6c-89.1,0-178.3,0-268.4,0c0-14.6,0-29.6,0-45.6
	C210.5,372.1,299.9,372.1,389.9,372.1z"/>
<path d="M271.8,510h-33.1c-35.9,0-65-29.1-65-65v-1.7h163.1v1.7C336.8,480.9,307.7,510,271.8,510z"/>
			
			
			     </g>
    </g>
</svg>