<svg version="1.1" xmlns="http://www.w3.org/2000/svg" xmlns:xlink="http://www.w3.org/1999/xlink" width="256px" height="256px" viewBox="0,0,256,256"><g transform="translate(38.4,38.4) scale(0.7,0.7)"><g fill="none" fill-rule="nonzero" stroke="none" stroke-width="1" stroke-linecap="butt" stroke-linejoin="miter" stroke-miterlimit="10" stroke-dasharray="" stroke-dashoffset="0" font-family="none" font-weight="none" font-size="none" text-anchor="none" style="mix-blend-mode: normal"><g transform="translate(0.04966,-0.00599)"><g><g><path d="M71.1,168.3c-1.5,2.3 -3.7,3.5 -6.4,4.4c1.4,0.7 2.7,1.3 3.9,2c2.5,1.2 2,0.7 2,3.3c0,1.2 -0.2,2.4 -0.2,3.5c0,0.5 -0.2,0.7 -0.6,1c-2.5,1.5 -5,3 -7.6,4.5c-0.3,0.2 -0.7,0.3 -1,0.5c-0.2,0 -0.5,0 -0.7,0c-0.7,-0.7 -1.7,-1.2 -2.6,-1.8c-2.5,-1.7 -5,-3.3 -7.4,-4.9c-1.6,-1.1 -2.4,-2.6 -2.5,-4.4c0,-1 -0.3,-2 -0.2,-2.9c0,-0.9 0.4,-1.5 1.4,-1.8c0.2,0 0.4,-0.2 0.7,-0.3c-2.5,-1.2 -4.3,-3.1 -6.2,-5c-0.2,0.6 0,1.1 0,1.6c-0.4,0.3 0,1 -0.3,1.2c-0.5,0.4 -0.2,0.7 0,0.9c-0.3,2.1 -1.4,3.6 -3,4.8c-4.1,3 -8.5,3.4 -13.3,1.6c-3.9,-1.4 -6.9,-4 -9.9,-6.7c0,0 0.1,-0.1 0.2,-0.2c0.7,0.6 1.5,1.1 2.3,1.6c2.2,1.7 4.7,3.1 7.5,3.8c4,1.4 7.8,1.6 11.5,-0.8c1.4,-0.9 2.6,-2.1 3.1,-3.9c0.7,-2.6 0.1,-5 -0.4,-7.6c-0.4,-2 -1.1,-3.9 -1.4,-5.9c-0.3,-2.3 0.1,-4.4 2,-6c0.1,0.1 0.1,0.1 0.2,0.2c-0.2,0.3 -0.4,0.5 -0.6,0.8c-1.2,1.7 -1,3.6 -0.7,5.6c0,0.1 0,0.3 0.2,0.3c0.2,0 0.1,-0.2 0,-0.3v0c0.2,0 0.5,0.2 0.5,0c0,-0.3 1.4,-5.1 1.3,-4.5c-0.2,0 -0.4,0.1 -0.1,0.4c-0.1,0.9 -0.2,1.9 -0.3,2.8c-0.1,0 -0.1,0.1 0,0.2c0,0.1 0,0.2 0,0.4c-0.4,0 -0.5,0.2 -0.2,0.6c0,0.2 0,0.3 0.2,0.4c0,0.5 0,0.9 0.1,1.4c-0.3,0.4 -0.3,0.7 0.2,1.3c0.1,0.6 0.3,1.2 0.5,1.8c-0.1,0 -0.2,0 -0.3,0.1c0.1,0 0.2,0 0.3,0c1.5,3.3 3.4,6.3 6.4,8.5c0.5,0.3 0.8,0.4 1.4,0.2c1.3,-0.5 2.6,-0.9 3.9,-1.3c1.1,-0.3 2.1,-0.3 3.2,0.1c1.8,0.7 3.6,1.6 5.4,2.4c0.4,0.2 0.7,0.2 1.2,0c2.3,-0.9 4.4,-2.2 6,-4.1c0,0.1 0.1,0.1 0.3,0.2zM68.6,175.7c-1,-0.5 -1.9,-1 -2.8,-1.4c-2.9,-1.3 -5.9,-2.6 -8.6,-4.2c-0.3,-0.2 -0.6,-0.3 -0.9,-0.2c-2.3,0.7 -4.6,1.5 -6.9,2.3c-0.1,0 -0.3,0.1 -0.3,0.2c-0.1,0.2 0.2,0.3 0.3,0.4c0.9,0.5 1.7,1.1 2.6,1.6c3,1.6 6.2,3 9.1,4.8c0.3,0.2 0.6,0.2 0.8,0c2.1,-1.4 4.3,-2.5 6.7,-3.5zM61.2,186.5c0,-1.9 0,-3.7 0,-5.5c0,-0.7 -0.2,-1.1 -0.8,-1.4c-3.8,-2.1 -7.8,-3.9 -11.3,-6.4c-0.6,-0.4 -0.7,-0.1 -0.6,0.4c0.1,1.4 0.2,2.7 0.3,4c0,0.7 0.4,1.1 0.9,1.5c2.2,1.5 4.4,3 6.7,4.4c1.5,1.1 3,2.1 4.8,3zM61.8,183.2c0.1,0 0.1,0 0,0c0.1,0.8 0.1,1.5 0.1,2.3c0,0.6 0.1,0.8 0.7,0.4c0.7,-0.5 1.5,-1.1 2.3,-1.5c1.3,-0.8 2.6,-1.5 3.9,-2.3c0.3,-0.1 0.6,-0.3 0.6,-0.7c0.1,-1.5 0.2,-3.1 0.4,-4.6c0,-0.7 -0.2,-0.7 -0.8,-0.5c-2.2,1.1 -4.4,2.2 -6.5,3.3c-0.3,0.2 -0.7,0.4 -0.6,0.9c0,0.8 -0.1,1.7 -0.1,2.7z" fill="#101010"></path><path d="M94.3,149.3c-0.1,0 -0.1,0 -0.2,0c0,-0.3 0,-0.6 0,-0.8c0,-0.2 0,-0.5 0,-0.7c0,-0.1 0,-0.2 0,-0.4c0,0 0,-0.1 0,-0.2c0,0 0.1,0 0.2,0c0,0.7 0,1.4 0,2.1z" fill="#c4c4c4"></path><path d="M19.5,171.3c-0.7,-0.6 -1.5,-1.1 -2.3,-1.6c-0.3,-0.2 -0.5,-0.6 -0.9,-0.5v0c0.1,-0.3 0,-0.2 -0.2,-0.2v0c0.1,-0.2 0,-0.2 -0.2,-0.2v0c0,-0.2 -0.1,-0.2 -0.2,-0.3c-0.8,-0.7 -2,-0.9 -2.8,-1.6c-0.5,-1.1 -3.4,-1.6 -4.6,0c-0.7,1 -0.6,2.3 0.4,3.5c0.7,0.7 1.5,1.3 2.2,1.9c0.8,0.8 1,1.5 0.5,2.4c-0.5,0.9 -1.1,1.3 -2.2,1.1c-1.5,-0.1 -2.6,-0.9 -3.6,-2c-3.8,-3.9 -2.5,-10.2 2.6,-12.2c2.2,-0.9 4.4,-0.3 6.5,0.7c2.6,1.2 4.7,3 7.2,4.3c3.2,1.6 6.4,2.3 9.9,1.4c3.1,-0.7 4.7,-2.8 4.7,-5.9c0,-1.9 -0.3,-3.7 -0.6,-5.5c-0.3,-1.4 -0.7,-2.8 -0.7,-4.2c0,-2.6 1.4,-4.3 3.3,-5.8c0.7,-0.6 1.6,-1 2.6,-1.5c-0.3,0 -0.4,-0.1 -0.4,0c-3,1.1 -7.6,4.7 -6.6,9c0.1,0.6 -0.1,0.9 -0.7,1.3c-3.2,2.1 -6.8,2.8 -10.4,3.5c-4.1,0.7 -8.1,0.4 -11.8,-1.6c-2.8,-1.4 -4.9,-3.5 -5.1,-6.8c-0.2,-4 0.5,-7.7 2.4,-11.3c0.7,-1.3 1.4,-2.5 2.1,-3.7c0.1,-0.2 0.5,-0.6 0.1,-0.9c0,-0.3 0,-0.5 0.3,-0.6c0,0 0,0 0.1,0h0.1c0,-0.5 0.2,-0.6 0.5,-0.1c0.7,1 1.4,2 2.3,2.8c-1.2,2.1 -2.3,4.3 -2.8,6.7c-0.4,2.1 -0.2,4.1 0.9,5.9c1.6,2.5 4.1,3.5 6.8,4c5.7,0.8 10.7,-0.8 14.9,-4.8c1.8,-1.8 3,-3.9 2.8,-6.6c-0.2,-2.6 -6.9,-11.3 -6.9,-11.4c-0.2,-0.4 -0.5,-0.9 -0.9,-1.2c-0.5,-0.2 -0.3,0 -0.5,-0.3c-0.6,-0.7 -3.1,-5 -3.3,-5.3c0,-0.1 0.3,-0.6 0.1,-0.7c-0.1,-0.6 0.2,-1.2 -0.1,-1.8c0.1,-0.2 0,-0.4 -0.1,-0.5c0,-0.2 0,-0.4 -0.1,-0.6c0,-0.1 0,-0.2 0,-0.3c0,-0.2 0,-0.4 0,-0.6c0,-0.2 -0.1,-0.4 -0.1,-0.5c0.1,-0.1 0.1,-0.2 0,-0.4c0,-0.2 0,-0.5 0,-0.7c0,-0.8 0.1,-1.5 0.1,-2.3c0,-0.1 0,-0.2 0,-0.4c0.2,-1.1 0.5,-2.3 0.7,-3.4c0,-0.1 0,-0.2 0,-0.4c0.3,-0.4 0.4,-0.8 0.4,-1.3c0.1,-0.1 0.2,-0.2 0.2,-0.4c0.2,-0.4 0.4,-0.7 0.6,-1.1c0,0.1 0.1,0.2 0.2,0.3c0.5,2.3 2,2.7 3.6,2.3c3.5,-0.7 7.6,-5.4 7.1,-9c-0.1,-1.1 -0.5,-1.9 -1.4,-2.5c-0.3,-0.2 -0.8,-0.2 -1,-0.7c0.2,-0.1 0.4,-0.3 0.7,-0.5c0,0 0.1,0 0.1,-0.1c0.9,-0.4 1.9,-0.7 2.7,-1.2c0.3,-0.1 0.8,0.1 0.7,-0.5v0c0.1,0 0.2,0 0.3,0c0.3,0.2 0.5,0.1 0.7,-0.1c0.1,0 0.2,0 0.4,0c0.3,0 0.6,-0.1 0.9,-0.2c0.5,-0.1 0.9,-0.2 1.4,-0.3c0.7,-0.1 1.3,-0.1 2,-0.2c0.3,0 0.6,0 0.9,-0.1c1.9,0.1 3.8,0 5.7,0.2c0.1,0.1 0.3,0 0.4,0c0.2,0.2 0.5,0.3 0.8,0.2c0.4,0 0.8,0.1 1.3,0.2c0.1,0.2 0.3,0.2 0.5,0.1c0.1,0 0.2,0 0.4,0c0.7,0.3 1.4,0.6 2.1,0.7c0.2,0.3 0.5,0.3 0.8,0.3c0.1,0.3 0.4,0.2 0.7,0.2c0,0.2 0.2,0.3 0.4,0.2c0.1,0.1 0.2,0.2 0.3,0.2c0.3,0.1 0.7,0.3 1,0.4c0.5,0.3 0.9,0.7 1.5,0.8c0.6,0.4 1.1,0.8 1.8,1.1c0.1,0.2 0.3,0.3 0.5,0.3c0.2,0.3 0.6,0.4 0.9,0.6c0,0.1 0,0.4 0.3,0.3c0.4,0.3 0.7,0.8 1.3,0.9l0.1,0.1c0.1,0.2 0.2,0.4 0.4,0.4l0.1,0.1c0,0.3 0.3,0.2 0.4,0.3c0,0.2 0.1,0.3 0.3,0.4c0,0 0.1,0.1 0.2,0.2c0.1,0.3 0.2,0.5 0.5,0.6c1.8,2.1 3.3,4.5 4,7.3c0,0.1 0,0.2 0,0.4c0.3,2 0.5,4.1 0.3,6.1c-0.1,0.1 -0.2,0.2 -0.1,0.4c0,0.3 0,0.6 -0.1,0.9c0,0.2 -0.3,0.9 -0.3,1.1c-0.1,0.2 -1.1,3.1 -1.2,3.2c0,0.1 -0.1,0.2 -0.1,0.4c-0.1,0.2 -0.2,0.3 -0.3,0.5c-0.1,0.2 -0.3,0.4 -0.3,0.7c-0.1,0.1 -0.2,0.3 -0.3,0.4c-1,1.5 -2,3 -3.3,4.3c-0.6,0.6 -0.7,1.3 -1.2,2.1c-0.1,0.1 -0.1,0.9 -0.7,0.7c-1.2,0.9 -2.1,2 -3.3,2.9c-0.1,0.1 -0.9,0.6 -1.1,0.7c-1.1,0.6 -2.3,2.1 -2.3,2.1c0,0 -2.8,2.1 -3.3,3.4c-0.5,0.6 -0.4,1.2 -0.7,1.8c0,0.1 -0.3,0.3 0,0.3c0,0 0,0 0.1,0c0.3,-0.4 0.5,-0.8 0.7,-1.3c0.7,0.1 1.2,-0.7 1.8,-0.8c2.7,-0.8 5.4,-0.8 8.1,0c-1.6,1.7 -3.4,3.2 -5,4.8c0,0.3 -0.1,0.6 -0.2,0.9c-0.3,0 -0.4,-0.3 -0.8,-0.1c-0.8,0.3 -1.7,0.4 -2.6,0.6c-0.1,-0.2 0.4,0.3 0.1,0.4c-0.1,0 -0.3,0 -0.2,0.1c-0.1,0.6 -0.6,0.5 -0.9,0.9c-1.2,1.4 -1.7,2.9 -0.8,4.2c0.1,0.3 0.3,0.5 0.7,0.6c0.2,-0.4 -0.1,-0.5 -0.3,-0.7c-0.4,-0.6 -0.5,-1.3 -0.4,-2c0.2,-1.1 0.9,-1.9 1.7,-2.5c0.1,0 0.2,-0.1 0.4,-0.2c0,0 0.1,0 0.1,-0.1c0.1,0 0.2,-0.1 0.4,-0.1c1.3,-0.3 2.5,-0.3 3.7,-0.1c0.1,0 0.2,0 0.4,0c0.5,0.1 1.1,0.3 1.6,0.4c0.1,0.1 0.2,0.1 0.4,0.1c1.7,0.9 3.5,1.7 5,3c0.2,0.2 0.5,0.5 0.7,0.7c1.5,1.4 2.5,3.2 2.9,5.2c0.6,2.8 0.3,5.5 -1,8.2c-0.3,0.4 -0.6,0.8 -0.8,1.3c-1.6,2 -3.7,3.2 -6,4.1c-0.4,0.2 -0.8,0.1 -1.2,0c-1.8,-0.8 -3.5,-1.6 -5.4,-2.4c-1.1,-0.5 -2.1,-0.5 -3.2,-0.1c-1.3,0.4 -2.6,0.8 -3.9,1.3c-0.5,0.2 -0.9,0.1 -1.4,-0.2c-3,-2.1 -4.9,-5.2 -6.4,-8.5v-0.1c-0.1,-0.6 -0.3,-1.2 -0.5,-1.8c0,-0.3 0,-0.6 0,-0.9c1.1,0 1.9,-0.6 2.8,-1.2c1.9,-1.2 2.5,-4.1 0.6,-6.1c-0.8,-0.7 -1.8,-0.7 -2.7,-1v-0.1c0.3,-0.1 0.3,-0.4 0.4,-0.6c0.3,-0.4 0.6,-0.8 0.9,-1.2c-0.4,0.2 -0.7,0.2 -1,0.6c0,0 -0.2,0.1 -0.3,0.1c-0.1,0 0.1,-0.1 -0.3,0.1v0.1c-0.7,0 -3.6,4.5 -3.3,6.8c0.3,2 0.9,3.9 1.4,5.9c0.5,2.5 1.2,5 0.4,7.6c-0.5,1.7 -1.7,2.9 -3.1,3.9c-3.7,2.4 -7.6,2.2 -11.5,0.8c0.7,-0.3 0.6,-1 0.6,-1.5c-0.2,-2 -2.1,-4.1 -4,-4.6c-1.3,0.1 -3.4,0.3 -3.6,2.8c0.1,0 0.1,0 0,0zM56.5,155.1v0c-0.2,-0.2 -0.3,-0.5 -0.6,-0.3c-0.2,0.1 0,0.3 0.2,0.4c0.4,0.4 0.7,0.7 1.3,0.7c1.4,0.3 2.2,-0.2 2.7,-1.6c0.1,-0.5 0.2,-0.7 0.6,-0.1c-0.1,0.3 0.1,0.5 0.2,0.7c0.5,1.4 0.8,2.8 0.7,4.3c-0.1,0.9 -0.3,1.7 -0.5,2.6c0,0.1 -0.1,0.2 -0.3,0.2c-0.3,0 -0.7,-0.1 -1,-0.2c-3.9,-1.1 -6.9,-3.2 -8.2,-7.2c-0.5,-1.3 -0.2,-2.6 -0.5,-4c0,-0.1 -0.4,1.1 -0.5,1.4c0,0 0,0 0,0.1c-0.2,0.4 -0.6,1.3 -0.7,1.5c-0.7,1.6 -1.4,3.3 -1.5,5c0,0.1 -0.1,0.2 -0.2,0.3c-0.9,0.1 -1.6,0.5 -2,1.4c-0.5,1.1 -0.6,2.1 0.3,3c0.7,0.8 1.4,0.8 2.7,0.2c0.1,0 0.3,-0.1 0.4,-0.1c0.1,0 0.2,0 0.3,0.1c0.4,0.5 0.7,1.1 1.2,1.5c3.8,4.1 9,3.9 13.2,1c0.2,0 0.3,-0.1 0.5,-0.3c1.1,-1.1 2.3,-2.2 2.8,-3.8c1.1,-3.6 -1.1,-6.9 -4,-8.7c-0.1,-0.1 -0.3,-0.2 -0.4,0.1v0c0.3,-0.4 -0.1,-0.5 -0.3,-0.6c-0.7,-0.4 -1.4,-0.7 -2.2,-0.9h-0.1c-0.3,0 -0.5,0 -0.8,0c-0.5,-0.1 -0.3,0.2 -0.2,0.4c0.5,0.9 0.6,1.8 0,2.7c-0.5,0.7 -1.2,0.8 -2,0.7c0,0 0,0 -0.1,0c-0.4,-0.2 -0.7,-0.3 -1,-0.5zM37.8,131.2c-0.9,2.3 -0.2,4.1 1.1,5.4c0,0 0,0 0.1,0c2.2,1.2 5.3,0.3 6.7,-1.8c1.1,-1.7 0.9,-3.9 -0.5,-5.4c-1.4,-1.4 -2.4,-1.3 -4.6,-1c0,0 0,0 -0.1,0.1c-0.3,0.4 -1.2,1.1 -1.7,1.3c0,0 -0.1,0 -0.1,0.1c-0.2,0.2 -0.8,0.7 -0.9,1.3zM47.1,132.3c-1.4,3.1 0.1,5.9 3.4,6.2c3.5,0.4 6.3,-3 5.2,-6.2c-0.8,-2.2 -3.5,-3.5 -5.4,-2.6c0,0.3 -0.1,0.3 -0.4,0.3c-0.5,0 0,0.3 -0.7,0.5v0c-0.9,0.3 -1.8,1.1 -2.1,1.8zM41.9,104.1c2.4,0 4,-1 5.4,-2.5c0.7,-0.8 0.8,-1.7 0.3,-2.7c-0.5,-0.8 -1.3,-1.2 -2.2,-1.2c-2.1,0 -3.6,1.1 -4.8,2.8c-0.6,0.8 -0.8,1.6 -0.4,2.5c0.4,0.9 1,1.2 1.7,1.1z" fill="#c4c4c4"></path><path d="M10.8,134.4c0.4,0.3 0,0.7 -0.1,0.9c-0.7,1.3 -1.4,2.5 -2.1,3.7c-1.9,3.5 -2.6,7.3 -2.4,11.3c0.2,3.4 2.3,5.4 5.1,6.8c3.7,2 7.7,2.4 11.8,1.6c3.6,-0.7 7.2,-1.5 10.4,-3.5c0.5,-0.3 0.8,-0.7 0.7,-1.3c-1.1,-4.3 3.6,-8 6.6,-9c0.1,0 0.2,0 0.4,0c-1,0.5 -1.9,0.9 -2.6,1.5c-1.9,1.5 -3.4,3.2 -3.3,5.8c0,1.4 0.4,2.8 0.7,4.2c0.4,1.8 0.6,3.7 0.6,5.5c0,3.1 -1.6,5.2 -4.7,5.9c-3.5,0.9 -6.8,0.2 -9.9,-1.4c-2.5,-1.3 -4.7,-3.1 -7.2,-4.3c-2.1,-1 -4.2,-1.5 -6.5,-0.7c-5.1,2.1 -6.3,8.3 -2.6,12.2c1,1 2.1,1.8 3.6,2c1.1,0.1 1.7,-0.2 2.2,-1.1c0.5,-0.9 0.3,-1.6 -0.5,-2.4c-0.7,-0.7 -1.6,-1.2 -2.2,-1.9c-1,-1.2 -1.2,-2.5 -0.4,-3.5c1.2,-1.6 4.1,-1.1 4.6,0c-0.6,-0.2 -1.1,-0.4 -1.7,-0.5c-0.8,-0.2 -2,0.3 -2.3,1c-0.4,0.8 -0.1,1.5 0.3,2.1c0.7,1.1 1.8,1.6 2.8,2.4c1.6,1.2 0.8,4.3 -1,4.9c-1,0.3 -2.1,0.4 -3.1,0c-5,-2 -8.2,-8.9 -3.2,-14c3.3,-3.4 7.9,-3.5 12.2,-0.8c2.6,1.6 5,3.3 7.9,4.3c2,0.7 4,0.9 6.1,0.5c3,-0.6 4.3,-2.4 4.1,-5.5c-0.1,-1.4 -0.4,-2.8 -0.5,-4.2c0,-0.7 -0.3,-0.7 -0.8,-0.4c-1.6,0.8 -3.3,1.7 -5,2.3c-2.7,1 -5.4,1.5 -8.2,1.7c-3.4,0.2 -6.6,-0.4 -9.6,-1.9c-4.8,-2.3 -6.5,-5.9 -5.9,-11c0.5,-4.2 2.2,-8 4.6,-11.4c0.4,-0.4 0.8,-1.1 1.1,-1.8z" fill="#111111"></path><path d="M52.3,96.1c-0.1,0.1 -0.2,0.1 -0.4,0c-0.4,-0.4 -1,-0.5 -1.5,-0.4c-0.8,0.1 -1.8,0.1 -2.5,-0.1c-0.8,-0.3 -1.2,-0.1 -1.7,0.3c-0.3,0.1 -0.6,0.1 -0.9,0.1c0,-0.2 0.1,-0.5 -0.2,-0.6c0,0 -0.2,0 -0.2,0.1c0,0.6 -0.3,0.2 -0.5,0.1c-0.4,-0.1 -0.8,0.1 -1.3,0.2c0,0.1 0.1,0.3 0.2,0.5c-0.5,0.1 -0.9,0.2 -1.4,0.3c-0.3,-0.3 -0.4,-0.8 -0.8,-0.7c-0.3,0.1 0,0.6 -0.1,0.9c-0.1,0 -0.2,0 -0.4,0c-0.3,-0.6 -0.5,-0.2 -0.7,0.1c-0.1,0 -0.2,0 -0.3,0c0,0 0,-0.2 -0.1,0c0,0 0.1,0 0.1,0.1c0,0.7 -0.5,0.4 -0.7,0.5c-0.7,-0.2 -2.4,0.2 -2.8,0.7c-0.1,0.2 0,0.3 0.1,0.5l-0.1,0.1c-0.4,-0.4 -0.8,-0.1 -1.2,0c-0.3,0.1 0,0.4 0,0.6c-0.3,0.2 -0.6,0.4 -0.9,0.6c-0.7,0 -1.4,0.1 -1.7,0.8c-0.2,0.4 -0.5,0.6 -1,0.3c0,0.4 0.1,0.6 0.4,0.7l-0.1,0.1c-0.4,0 -0.6,0.1 -0.5,0.6v0c-0.6,-0.4 -0.9,0.1 -1.2,0.4c-0.2,0.2 -0.7,0.7 -0.1,1.1c-0.1,0.1 -0.2,0.2 -0.3,0.3c-0.7,0 -1.1,0.4 -1.2,1c-0.1,0.5 -0.4,0.5 -0.8,0.3v0c-0.1,-0.2 -0.4,-0.2 -0.6,-0.2c0.2,-0.4 3,-4 3.9,-4.7c0.4,0 0.5,-0.2 0.5,-0.5c2.9,-2.5 6.3,-4 10,-4.8c0,0.1 0,0.2 0.2,0.2c0.1,0 0.1,-0.2 0.1,-0.3c1.9,-0.6 3.9,-0.7 5.9,-0.7c2.6,0 5.2,0.1 7.7,0.9c0,0.8 0.4,0.3 0.7,0.2c0.6,0.1 1.2,0.3 1.7,0.4c0,0 0.1,0 0.2,0c0,0 0,-0.1 0,-0.2c-0.7,-1.5 -1.1,-3.2 -0.8,-4.9c0.1,0 0.1,0 0.2,-0.1c-0.1,0 -0.1,0 -0.2,-0.1c0,0 0,-0.1 0,-0.2c0.3,-0.1 0.4,-0.2 0,-0.4c0.7,-3.1 3.2,-4.8 6.1,-5.2c0.2,0 0.4,0 0.4,-0.2c0,-0.3 -0.2,-0.3 -0.4,-0.3c-1.6,-0.9 -3.2,-2 -4.7,-3.2c-0.4,-0.3 -0.6,-0.8 -0.6,-1.4c0.2,-2.2 0.3,-4.5 0.9,-6.7c0.3,-1.4 1.1,-2.1 2.4,-2.4c1.3,-0.2 2.5,-0.6 3.8,-0.6c-0.1,0.3 -0.2,0.6 -0.4,0.8c-1.4,0.2 -2.8,0.4 -4.3,0.6c0.1,0.1 0.2,0.2 0.2,0.3c3.1,2.1 6.2,4 9.5,5.9c0.5,0.3 1,0.3 1.5,0.2c1.9,-0.3 3.7,-0.7 5.6,-1c1.1,-0.2 2.2,-0.4 3.4,-0.6c-0.5,-0.3 -0.8,-0.5 -1.1,-0.7c-0.1,0 -0.2,-0.1 -0.2,-0.1c-0.1,0 -0.2,0 -0.3,-0.1c0,-0.1 0,-0.2 -0.1,-0.1c-0.5,-0.1 -0.9,-0.4 -1.3,-0.7c-0.1,-0.2 0.4,-0.7 -0.2,-0.7c-0.5,0 -0.9,-0.1 -1.4,-0.2c0,0 -0.1,0 -0.2,-0.1c0,-0.1 0.2,-0.2 0,-0.4c0,0.1 -0.1,0.2 -0.2,0.3c0,0 -0.1,0 -0.1,-0.1c-0.1,-0.2 -0.2,-0.3 -0.4,-0.2c-0.1,0 -0.2,-0.1 -0.3,-0.1c0,-0.2 -0.2,-0.2 -0.4,-0.2c0,0 -0.1,0 -0.2,-0.1c0,0 -0.1,-0.1 -0.2,-0.1c0,0 -0.1,0 -0.1,-0.1c0,-0.1 -0.1,-0.2 -0.3,-0.2c-0.1,0 -0.1,0 -0.2,-0.1c0,-0.2 -0.1,-0.4 -0.4,-0.1c-0.2,-0.1 -0.5,-0.3 -0.7,-0.4c0,-0.1 -0.1,-0.2 -0.3,-0.2c-0.8,-0.4 -1.7,-0.9 -2.8,-0.8c0,-0.3 -0.1,-0.6 -0.2,-0.8c1,-0.1 1.9,0.1 2.7,0.6c0.3,0.1 0.6,0.5 0.9,0.1c0.1,0 0.2,0 0.3,0c-0.1,0.6 0.8,0.4 1,0.8c0,0.7 0.5,0.6 0.9,0.6c1.1,0.5 2.1,1.1 3.2,1.8c0,0.2 -0.1,0.4 0.1,0.5c0.2,0.1 0.2,-0.1 0.2,-0.3c1,0.5 2,1.1 3,1.5c0.8,0.4 1.1,1 1,1.8c-0.1,1 -0.2,2 -0.3,3c-0.2,0.1 -0.2,0.3 0,0.5c0.2,0.2 0.3,-0.2 0.4,-0.5c0.8,-1.3 1.3,-2.8 1,-4.3c-0.3,-1.7 -1.2,-3.3 -2.2,-4.7c0.3,-0.1 0.7,-0.1 1,0c0.6,0.7 1.1,1.5 1.5,2.4c0.1,0.5 -0.5,1.3 0.6,1.3c0.1,0.2 0.1,0.4 0.2,0.6c-0.1,0.6 -0.7,1.2 0.2,1.6c0,0.1 0,0.2 0,0.4c-0.6,0.4 -0.7,1.2 -0.4,1.8v0.1c-0.3,0.1 -0.7,0.1 -0.2,0.6c-0.1,0.2 -0.2,0.5 -0.4,0.7c-0.9,0 -1,0.4 -1,1.3c0,0 0,0.1 -0.1,0.1c-0.2,0.2 -1,-0.3 -0.6,0.6c-0.4,0.3 -0.5,0.7 -0.5,1.2c0,0.7 -0.4,1 -1.1,1.3c-3.2,1.3 -6.7,1.8 -10,2.7c-0.2,0 -0.4,0.1 -0.6,0.1c-0.5,0 -1,-0.5 -1.6,0c-1.1,0.8 -2.1,1.5 -2.7,2.8c-0.3,0.7 -0.5,1.4 -0.5,2.2c-0.5,-0.2 -0.3,-0.6 -0.3,-0.9c0,-2 1.1,-3.3 2.5,-4.5c0.2,-0.2 0.7,-0.2 0.6,-0.7c0.1,-0.7 0.8,-0.1 1.1,-0.6c0.6,0.2 0.5,-0.3 0.5,-0.6c0.1,-2.1 0.3,-4.2 0.7,-6.3c0.1,-0.6 0,-0.9 -0.5,-1.3c-1.1,-0.7 -2.1,-1.3 -3.2,-2c-2.2,-1.4 -4.4,-2.7 -6.6,-4.1c-0.2,0.8 -0.3,1.6 -0.5,2.3h-0.1l0.1,0.1c0,0.2 0,0.4 0,0.6c-0.6,0.5 -0.6,1 -0.2,1.6c0,0.1 0,0.2 0,0.4c-0.1,0.1 -0.4,0.1 -0.4,0.3c0,0.1 0.2,0.2 0.3,0.2c0,0.2 0,0.5 0,0.7c-0.1,0 -0.3,-0.2 -0.4,0.1c-0.1,0.3 -0.1,0.7 0.3,0.8c0,0.1 0,0.2 0,0.4v0v0.1c0.2,0.8 1,1 1.5,1.5l0.1,0.1v0c0.1,0 0.1,0.1 0.2,0.1v0c0.1,0.6 0.2,0.6 0.6,0.3c0.2,0.1 0.3,0.2 0.5,0.3c0,0.4 0.3,0.4 0.6,0.3v0c0,0.1 0.2,0.2 0.3,0.2v0c0,0.1 0,0.1 0.1,0.2c0,0 0.1,0 0.1,-0.1c0.5,0.3 1,0.6 1.4,0.8c0,0.4 0.1,0.3 0.4,0.2c0.1,0.1 0.3,0.2 0.5,0.3c0,0 0,0.1 0,0.2c0,0 0.1,0 0.1,-0.1c0.3,0.1 0.6,0.3 0.9,0.5c-0.3,0.2 -0.6,0.5 -0.8,0.7c-0.1,0 -0.1,0 -0.2,-0.1c0,-0.4 -0.3,-0.3 -0.6,-0.3c-1.4,0 -2.6,0.9 -3.7,1.6c-0.3,0 -0.6,0 -0.5,0.4v0c-0.7,-0.6 -0.7,0.4 -1.2,0.5c-0.3,0 -0.2,0.5 0.1,0.7c-0.3,0.7 -0.6,1.3 -0.8,1.9c-0.5,0.5 -0.6,0.7 -0.2,1.1c0,0.7 0,1.3 0,2c-0.1,0 -0.2,0 -0.3,0c0,-0.1 0,-0.3 -0.2,-0.2v0c0,0.2 0.1,0.1 0.2,0.2c0,0.3 0,0.5 0.4,0.5c0.2,0.3 0.1,0.7 0.2,1.1c-0.3,0.2 -0.1,0.3 0.1,0.4c0.1,0.4 0.2,0.8 0.6,1c0,0.4 0.2,0.5 0.5,0.2c0.9,0.2 1.7,0.7 2.5,1.3c0,0.2 -0.1,0.6 0.2,0.7c0.3,0 0.3,-0.2 0.3,-0.4c0.3,0.2 0.6,0.4 0.9,0.6c0,0.6 0.2,0.7 0.7,0.5c0.1,0 0.3,0 0.3,0.2c-0.1,0.1 -0.2,0.2 -0.4,0.4h-0.1c0,0.1 0,0.2 0.1,0.2c0.3,0 0.5,0 0.7,-0.2v0c0,0.1 0,0.3 -0.1,0.4c-0.1,0 -0.2,0.1 -0.1,0.2h0.1c0.3,0.2 0.6,0.5 0.8,-0.1c0.2,0.2 0.4,0.3 0.7,0.5c0,0 -0.1,0 -0.2,0c-0.2,0 -0.4,0.1 -0.3,0.3c0,0.2 0.2,0.2 0.3,0.2c0.1,0.1 0.2,0.2 0.4,0.4c0.3,0 0.7,0.9 0.7,-0.1c0.5,0.5 1.1,1 1.6,1.4c0,0.3 0.1,0.7 -0.2,1c-0.2,0.1 -0.3,0.2 -0.4,0.4c-0.2,-0.1 -0.4,-0.1 -0.3,-0.4c0,-0.3 -0.2,-0.3 -0.4,-0.3l-0.1,-0.1c0,-0.1 0,-0.3 0,-0.4c-0.1,-0.4 -0.2,-0.5 -0.6,-0.1c-0.6,-0.1 -0.8,-0.6 -1.3,-0.9c0,-0.2 -0.1,-0.3 -0.3,-0.3c-0.3,-0.1 -0.7,-0.3 -0.9,-0.6c0,-0.3 -0.3,-0.3 -0.5,-0.3c-0.7,-0.2 -1.2,-0.7 -1.8,-1.1c0,-0.7 -0.7,-0.6 -1.1,-0.8c0,-0.1 0,-0.1 -0.1,-0.2c0,0.1 0,0.1 -0.1,0.2c-0.1,0 -0.1,0 -0.2,0c-0.3,-0.1 -0.7,-0.3 -1,-0.4c0,-0.2 0,-0.4 -0.3,-0.2c-0.2,0 -0.3,0 -0.4,-0.2c-0.2,-0.1 -0.4,-0.3 -0.7,-0.2c-0.3,0 -0.6,0 -0.8,-0.3c-0.3,-0.4 -1.3,-0.7 -2.1,-0.7c-0.1,0 -0.2,0 -0.4,0c-0.1,-0.4 -0.3,-0.4 -0.5,-0.1c-0.4,0 -0.8,-0.1 -1.3,-0.2c-0.1,-0.2 0.3,-0.6 -0.1,-0.7c-0.2,-0.6 -0.2,0 -0.5,0.1zM81.6,78c0,-0.6 0.1,-1.1 -0.6,-0.9c-3.2,0.8 -6.4,1.2 -9.7,1.7c-0.6,0.1 -0.7,0.3 -0.7,0.8c-0.3,2.2 -0.3,4.4 -0.7,6.6c-0.1,0.8 0.1,1 0.9,0.8c0.3,-0.1 0.6,-0.1 0.9,-0.2c2.7,-0.6 5.4,-1.1 7.9,-2c0.3,-0.1 0.7,-0.2 0.8,-0.6c0.5,-2.1 0.9,-4.3 1.2,-6.2zM69.2,86.9c0,-0.1 -0.1,-0.2 -0.2,-0.2c-0.1,0 -0.2,0.1 -0.2,0.2c0,0.1 0.1,0.2 0.2,0.2c0.1,0.1 0.2,0 0.2,-0.2zM50.3,95.2c0.3,0.2 0.5,0.1 0.7,0c-0.2,-0.1 -0.4,-0.2 -0.7,0zM57.3,96.5c0,-0.1 0.1,-0.2 0.1,-0.2c0,0 -0.1,-0.1 -0.2,-0.2v0.1c-0.1,0.1 0,0.2 0.1,0.3zM39.1,96.8v-0.1v0c0,-0.1 -0.1,-0.1 0,0.1c-0.1,-0.1 0,-0.1 0,0zM51.7,95.6c0,0 0,-0.1 0,0v0c0,-0.1 0,-0.1 0,0c-0.1,-0.1 0,-0.1 0,0zM54.4,95.9c0,0.1 0,0.1 0,0c0,0.1 0,0.1 0,0.1c0.1,0 0.1,0 0,-0.1c0.1,0 0.1,0 0,0z" fill="#0c0c0c"></path><path d="M63.5,98.7c-0.3,-0.2 -0.6,-0.4 -0.9,-0.6c-0.1,-0.1 -0.3,-0.3 -0.5,-0.2c-0.8,-0.5 -1.6,-1 -2.5,-1.3c-0.1,-0.1 -0.3,-0.2 -0.5,-0.2c-0.4,-0.2 -0.4,-0.7 -0.6,-1c0,-0.1 0,-0.3 -0.1,-0.4c0,-0.4 0,-0.7 -0.2,-1.1c0,-0.2 0,-0.4 -0.1,-0.6c0,-0.7 0,-1.3 0,-2c0,-0.4 0.1,-0.7 0.2,-1.1c0.3,-0.7 0.6,-1.3 0.8,-1.9c0.3,-0.4 0.7,-0.8 1,-1.2v0c0.1,-0.1 0.3,-0.3 0.5,-0.4c1.2,-0.7 2.5,-1.9 4,-2c0.1,0.2 0.5,0.7 0.5,0.7c0.7,0.6 1.5,1.1 2.4,1.4c0.1,0.5 -0.3,0.5 -0.6,0.7c-1.4,1.2 -2.1,2.3 -2.1,4.2c0,0.3 0,0.4 0,0.8c0,0.6 0.4,1.4 0.6,1.9c0.1,0.3 0.3,0.6 0.5,0.8c1.7,2.7 3.6,5 5.6,7.4c1.2,1.4 2.5,2.7 3.5,4.4c-0.4,0 -0.4,0.3 -0.5,0.5c-0.4,0.6 -0.3,1.4 -0.8,2c0,0 -0.1,-0.1 -0.1,-0.2c0,-0.3 -0.1,-0.6 -0.3,-0.7c-0.7,-1.5 -1.6,-2.8 -2.7,-4.1c-0.2,-0.3 -0.4,-0.6 -0.7,-0.8c-0.3,-0.4 -0.6,-0.8 -1.1,-1.1c-0.5,-0.5 -1.1,-1 -1.6,-1.4c0,0 0,0 -0.1,0c-0.2,-0.3 -0.5,-0.5 -0.8,-0.7c-0.2,-0.2 -0.4,-0.3 -0.7,-0.5c-0.2,-0.1 -0.5,-0.3 -0.7,-0.5v0c0,-0.2 -0.2,-0.3 -0.4,-0.3c0,-0.1 -0.2,-0.2 -0.3,-0.2c-0.2,-0.1 -0.4,-0.2 -0.7,-0.3z" fill="#c3c3c3"></path><path d="M77.6,156.7c1.6,-0.4 3.3,-0.8 4.7,-1.7c1.6,-1 2.7,-2.4 3.6,-4.3c-1.6,0.6 -3,1.1 -4.4,1.7c-1.1,0.5 -2.1,0.6 -3.2,0c-1.8,-1 -3.8,-1.7 -5.7,-2.5c-1.7,-0.7 -2.3,-2 -2.2,-3.7c0,-1.4 -0.2,-2.8 -0.1,-4.2c0,-0.7 0.3,-1.3 1.1,-1.4c0.7,0 1,-0.4 1.2,-1c0.2,-0.6 0.6,-1.1 0.9,-1.6c0,0 0.1,0.1 0.2,0.2c0,0.1 -0.1,0.2 -0.1,0.3c-0.2,0.5 -0.7,1 -0.4,1.4c0.3,0.4 0.9,0 1.3,-0.2c1.2,-0.3 2.4,-0.3 3.5,-0.9c0.9,-0.5 1.8,-0.7 2.8,-0.5c1.3,0.2 2.4,0.7 3.4,1.4c4.1,3 4.9,9.1 1.7,13.5c-2.2,3.1 -5.5,4.4 -9.2,4.7c0.1,-0.5 1.1,-0.4 0.9,-1.2zM80.2,148.3v0c0,0.9 0,1.9 0,2.8c0,0.7 0.1,0.7 0.7,0.5c1.7,-0.7 3.4,-1.4 5.1,-2c0.3,-0.1 0.4,-0.3 0.5,-0.6c0.6,-2 0.4,-3.9 -0.4,-5.8c-0.1,-0.3 -0.3,-0.4 -0.7,-0.3c-1.5,0.6 -3.1,1.1 -4.7,1.6c-0.4,0.1 -0.5,0.3 -0.5,0.7c0,1.1 0,2.1 0,3.1zM71.5,141.1c0.6,0.4 1.1,0.7 1.6,0.9c1.9,0.6 3.8,1.1 5.6,2.1c0.6,0.3 1.2,0.3 1.9,0c1.4,-0.6 2.9,-1.1 4.4,-1.5c0.6,-0.2 0.6,-0.4 0.2,-0.7c-1,-1.3 -2.2,-2.1 -3.6,-2.8c-0.4,-0.2 -0.8,-0.2 -1.2,-0.1c-3,0.7 -6,1.4 -8.9,2.1zM71.2,141.8c-0.1,1.9 0.3,3.6 0.3,5.4c0,0.5 0.2,0.9 0.7,1.2c2.4,1.4 5,2.2 7.6,3.4c-0.1,-2.1 -0.2,-4 0,-6c0,-0.7 -0.2,-1 -0.8,-1.2c-2.6,-0.7 -5.2,-1.5 -7.8,-2.8z" fill="#101010"></path><path d="M36.7,141.8c0.2,2.7 -0.9,4.8 -2.8,6.6c-4.1,4 -9.1,5.7 -14.9,4.8c-2.8,-0.4 -5.2,-1.4 -6.8,-4c-1.2,-1.9 -1.3,-3.8 -0.9,-5.9c0.5,-2.4 1.5,-4.6 2.8,-6.7c0.5,-0.8 1.1,-1.6 1.6,-2.4c0.9,-1.4 1.4,-2.8 1.1,-4.5c0.1,0 0.2,0 0.3,0c0.5,2 -0.2,3.7 -1.2,5.4c-1.2,2.1 -2.5,4.2 -3.1,6.6c-0.4,1.5 -0.6,3 -0.4,4.5c0.5,2.8 2.3,4.4 4.8,5.2c4.1,1.3 8.1,0.8 12,-1.1c1.9,-0.9 3.5,-2.2 5,-3.6c2.2,-2.2 2.6,-4.8 1.1,-7.6c-0.6,-1.2 -1.4,-2.3 -2.2,-3.4c0.1,-0.4 3.4,3.4 3.6,6.1z" fill="#131313"></path><path d="M13.1,113.1c0.9,-0.4 1.9,-0.3 2.8,0c1.9,0.7 3.8,1.3 5.6,2.1c0.6,0.3 0.8,0.6 0.7,1.4c-0.1,1.8 -0.1,3.6 -0.2,5.4c0,0.7 -0.2,1.2 -0.8,1.6c-1.5,0.9 -3.1,1.6 -4.6,2.5c-0.3,0.2 -0.7,0.3 -0.9,0.6c0,0 -0.1,0.1 -0.2,0.2c-1.1,0.2 -2.1,0.8 -3,1.3c-1.1,0.5 -2,0.3 -2.9,-0.3c-1.3,-0.9 -2.6,-1.7 -4.1,-2.4c-1.4,-0.7 -1.8,-1.9 -1.8,-3.4c0,-1.2 -0.2,-2.4 -0.2,-3.5c0,-0.8 -0.3,-0.7 -0.8,-0.4c-0.2,-0.1 -0.2,-0.2 -0.3,-0.4c0.1,-0.3 0.4,-0.3 0.7,-0.3c0.1,0 0.4,0 0.4,-0.2c-0.1,-1.4 1.1,-1.2 1.8,-1.5c0,0.2 0,0.5 0,0.7c-0.2,0.1 -0.4,0.2 -0.7,0.3c2.1,1.1 4.1,2.2 6.2,3.3c0.4,0.2 0.7,0.1 1.1,0c2.6,-1.1 5.3,-2.2 7.9,-3.3c0.3,-0.1 0.7,-0.1 0.8,-0.5c-0.5,-0.5 -1.2,-0.6 -1.8,-0.7c-1.6,-0.5 -3.1,-1.5 -4.9,-1.6c0,-0.7 -0.6,-0.5 -0.8,-0.9zM11.5,127.5c0.9,-0.5 1.8,-0.8 2.6,-1.3c2.1,-1.1 4.3,-2.2 6.3,-3.5c0.3,-0.2 0.6,-0.4 0.6,-0.8c0,-1.7 0,-3.5 0,-5.2c-0.1,0 -0.1,0 -0.1,0c-3,1.1 -5.8,2.6 -8.8,3.6c-0.4,0.1 -0.6,0.4 -0.6,0.9c0,2.1 0,4.2 0,6.3zM4.3,117.2c0.2,2.2 0.4,4.3 0.6,6.3c0,0.3 0.2,0.6 0.5,0.7c1.8,1.2 3.8,2.1 5.6,3.4c0,-2.2 0,-4.2 0.1,-6.2c0,-0.4 0,-0.7 -0.4,-0.9c-2.1,-1 -4.2,-2 -6.4,-3.3z" fill="#0c0c0c"></path><path d="M94,147.7c0,0.2 0,0.5 0,0.7c-0.3,0 -0.5,0.2 -0.6,0.5c0,0.3 0.3,0.3 0.5,0.4c0,0.1 0,0.2 0,0.4c-0.1,0 -0.3,0 -0.3,0.2c0,0 0.2,0.1 0.3,0.1c0,0.3 0,0.6 -0.1,0.9c-0.4,0 -0.7,0.2 -0.6,0.6c0,0.7 -0.3,1.4 -0.4,2c-0.1,0.4 -0.7,0.8 -0.2,1.4c0,0.2 -0.1,0.4 -0.3,0.5c-0.5,0.1 -0.9,0.7 -1.1,1c-0.2,0.7 -0.8,1.1 -1.4,1.5c-0.5,0.3 -0.8,0.7 -0.7,1.3c0,0 -0.1,0.1 -0.2,0.2c-0.2,-0.3 -0.3,-0.7 -0.7,-0.2c-0.2,0.1 -0.4,0.3 -0.4,0.5c-0.2,0 -0.5,-0.1 -0.6,0.1c-0.1,0.1 0,0.3 0.2,0.4c-0.6,0.5 -1.3,0.8 -2,1.1c0,-0.1 0,-0.4 -0.1,-0.5c0,0 -0.1,0.1 -0.2,0.1c0,0.2 0.1,0.3 0.3,0.3c-0.5,0.2 -1,0.4 -1.6,0.7c-0.6,-0.7 -0.9,-0.2 -1.1,0.4c-0.2,0.1 -0.4,0.3 -0.7,0.2c0,-0.1 0,-0.3 -0.2,-0.3c0,0 -0.1,0.1 -0.2,0.2c-0.2,0.2 -0.5,0.4 -0.9,0.4c0,-0.1 0,-0.3 -0.2,-0.3c-0.2,0 -0.3,0.2 -0.3,0.5c-0.8,0.2 -1.6,0.4 -2.5,0.4c-0.3,-0.1 -0.6,-0.7 -0.7,0.1c-0.4,0 -0.8,0.2 -1.3,0.1c-0.1,-0.2 -0.2,-0.4 -0.4,-0.6c4,-0.8 7.9,-2.1 11.4,-4.2c0.3,0.1 0.6,0.3 0.5,-0.3c0.6,-0.5 1.3,-1 1.9,-1.6c0.7,0.2 0.7,-0.2 0.7,-0.7c0.8,-1.1 1.4,-2.3 1.9,-3.6c0.5,0 0.5,-0.3 0.3,-0.7c0.5,-2.7 0.7,-5.5 0,-8.2c-0.8,-3.7 -2.8,-6.5 -6.3,-8.2c-2.5,-1.2 -5,-1.2 -7.6,-0.6c0,-0.1 0,-0.2 -0.1,-0.3c3.9,-1.4 7.4,-0.8 10.7,1.6c0.6,0.4 1.2,0.9 1.6,1.5c-0.1,0 -0.3,0.1 -0.2,0.3c0.1,0.1 0.3,0.1 0.5,0.1c0.8,0.2 1.7,0.5 2.6,0.7c0.6,0.1 0.8,0.5 0.8,1.1c-0.1,2.1 -0.1,4.1 -0.2,6.1c-0.4,0.2 -0.4,0.2 0,0.9c0,0 0.1,0.1 0.1,0.2c0,0 0,0.1 0,0.2c-0.1,0 -0.2,0 -0.2,0.2c0.1,0.1 0.2,0.2 0.3,0.2zM92.5,140.9v0c0.1,0.4 -0.5,1.2 0.5,1.3c0.1,0 0.2,0.6 0.3,0c0.1,-0.7 0,-1.5 0,-2.3c-0.3,-0.1 -0.5,0.3 -0.8,0c0.3,-0.5 0.2,-0.7 -0.4,-0.8c-0.2,0 -0.4,-0.1 -0.6,-0.2v0v0c0.1,0.2 0.1,0.4 0.2,0.7c0,0.2 -0.3,0.4 0,0.5c0.1,0.1 0.2,-0.1 0.2,-0.3c0.2,0.1 0.5,-0.1 0.6,0.2c0.1,0.2 -0.3,0.3 -0.2,0.5c-0.1,0.2 -0.1,0.4 0.2,0.4zM93.5,143.9c-0.1,-0.1 -0.1,-0.1 -0.2,-0.1c0,0 -0.2,0 -0.2,0.1c0,0.1 0,0.2 0.2,0.2c0,-0.1 0.1,-0.1 0.2,-0.2zM93.3,145.3c0.1,0 0.1,0 0,0v0c0.1,-0.1 0.1,-0.1 0,0c0,-0.1 0,-0.1 0,0z" fill="#0c0c0c"></path><path d="M5.6,125.5c1.4,0.7 2.8,1.5 4.1,2.4c0.9,0.7 1.8,0.8 2.9,0.3c1,-0.4 2,-1 3,-1.3c0,0 0.1,0 0.2,0v0c0.1,1 0.8,1.7 0.9,2.7c0.3,1.7 -0.2,3.2 -1.1,4.5c-0.5,0.8 -1.1,1.6 -1.6,2.4c-0.8,-0.9 -1.6,-1.8 -2.3,-2.8c-0.3,-0.4 -0.5,-0.4 -0.5,0.1c0,0 0,0 -0.1,0c0,0 0,0 -0.1,0c-0.2,-0.5 0.3,-0.9 0,-1.4c0.1,-1.2 -0.3,-2.1 -1.1,-2.9c-0.9,-1 -2.1,-1.6 -3.4,-2.1c0,-0.4 -0.2,-0.6 -0.4,-0.8c-0.1,-0.3 -0.5,-0.7 -0.5,-1.1z" fill="#939393"></path><path d="M33.1,135.6c-0.2,-0.3 -0.5,-0.7 -0.7,-0.9c0,-0.2 0,-0.4 -0.3,-0.4c-1.7,-1.7 -3.2,-3.5 -4.6,-5.4c-1.8,-2.4 -3.1,-5 -3.6,-8c-0.7,-4.1 -0.4,-8 1.1,-11.8c0.5,-1.2 1.1,-2.3 1.6,-3.5c0.4,0.2 0.6,-0.1 0.9,-0.3v0c-0.1,0.5 0.2,0.7 0.6,0.9c-0.1,0.2 -0.3,0.5 -0.4,0.7c-0.4,-0.2 -0.5,0 -0.7,0.3c-0.2,0.5 -0.5,1 -0.8,1.4c-0.5,0.5 -0.2,0.7 0.2,1c0,0.1 0,0.3 -0.2,0.4c-0.8,-0.2 -0.5,0.6 -0.7,0.8c-0.2,0.2 0.1,0.4 0.3,0.4c0,0.1 0,0.2 0,0.4c-1.3,1.4 -1.3,2 -0.7,3.4c0,0.1 0,0.2 0,0.4c-0.4,-0.2 -0.8,-0.1 -0.7,0.4c0.2,0.5 0.1,0.9 0,1.3c-0.2,0.6 0.1,0.7 0.6,0.7c0,0.2 0,0.5 0,0.7c-0.2,0.1 -0.2,0.2 0,0.4c0,0.2 0.1,0.4 0.1,0.5c-0.1,0 -0.3,0 -0.3,0.2c0,0.2 0.1,0.3 0.3,0.3c0,0.1 0,0.2 0,0.3c-0.3,0.2 -0.3,0.4 0.1,0.6c0.1,0.2 0.2,0.3 0.1,0.5c-0.3,0.1 -0.5,-0.4 -0.9,-0.2c0.3,0.4 1,0.6 0.7,1.3v0c-0.2,0 -0.4,0.1 -0.4,0.4c0,0.5 0.3,-0.1 0.4,0.1c0.1,0.1 0.3,0.1 0.5,0.2c0,0.2 4.1,7.5 4.2,7.6c0.1,0.1 0.5,1 0.7,1.3c0.3,0 2.7,3.3 2.6,3.6zM24.1,116.3c0,0 -0.1,-0.1 -0.1,0v0.1c0,0 0.1,0.1 0.1,0c0,0 0,0 0,-0.1z" fill="#0c0c0c"></path><path d="M75.2,107.2c-0.9,-1.6 -2.2,-2.9 -3.5,-4.4c-2.1,-2.4 -4.1,-4.8 -5.9,-7.4c0.3,0 0.5,0 0.6,0.2c2.1,2.6 4.6,4.7 6.9,7c3.5,3.6 6.3,7.8 7.4,12.9c0,0.1 0,0.3 0,0.4c-0.2,0 -0.4,0 -0.3,0.3c0,0.2 0.2,0.2 0.4,0.2c0,0.3 0,0.6 0.1,0.9c-0.5,0.3 -0.5,0.5 0,0.7c0.1,0.4 0.1,0.7 0,1.1c-0.3,0 -0.5,-0.2 -0.7,-0.4c-0.2,-0.2 -0.4,-0.6 -0.8,-0.3c-0.1,-1.9 -0.5,-3.8 -1.2,-5.5c-0.6,-2 -1.6,-4 -3,-5.7z" fill="#111111"></path><path d="M60.6,147.3c1.7,-1.6 3.5,-3.1 5,-4.8c2.8,-2.6 5.4,-5.4 7.8,-8.3c1.2,-1.5 2.1,-3.2 3.3,-4.8c0.7,0.4 1.1,0.2 1.4,-0.5c0.2,-0.4 0.3,-1.1 1,-1.1c-1.3,2.6 -2.9,4.8 -4.8,6.9c-3.9,4.5 -8.3,8.4 -12.8,12.2c-0.2,0.3 -0.5,0.5 -0.9,0.4z" fill="#131313"></path><path d="M6.7,127.5c1.3,0.5 2.4,1.1 3.4,2.1c0.7,0.8 1.3,1.7 1.1,2.9c-1,-2.3 -3,-3.4 -5.3,-4c-0.9,-0.3 -1.9,-0.6 -2.8,-1c-1.6,-0.8 -2.4,-2.2 -2.5,-4c-0.1,-1.8 -0.1,-3.6 1.2,-5.1c0.2,-0.2 0.4,-0.5 0.7,-0.6c0,0.2 0.1,0.3 0.3,0.4c-1.4,1.6 -1.4,3.5 -1.2,5.4c0.2,1.4 0.8,2.4 2.2,3c0.9,0.4 1.9,0.7 2.9,0.9z" fill="#111111"></path><path d="M77.6,156.7c0.2,0.8 -0.8,0.7 -0.9,1.3c-0.4,0 -0.8,0 -1.3,0c-0.2,-0.2 -0.4,-0.2 -0.5,0c-0.3,0 -0.6,0 -0.9,0c-0.2,-0.3 -0.5,-0.3 -0.7,0c-0.2,0.2 -0.3,0.6 -0.3,0.9c0,0.3 0.4,0.1 0.6,0.2c0.1,0.1 0.1,0.3 0.1,0.5c-0.3,0.1 -0.4,0.3 0,0.4c0,0.1 0,0.2 0,0.4c-0.8,0.4 -0.3,0.7 0,1.1c0,0.1 0,0.2 0,0.3c-0.1,0 -0.2,0.1 -0.2,0.2c0,0.1 0.1,0.2 0.2,0.2c0,1.1 0,1.1 1.2,1c0,0 0.1,0 0.2,0c0,0.2 0,0.4 0,0.6c-0.3,0 -0.7,0.1 -1,0c-0.5,-0.1 -0.7,0.1 -0.8,0.6c-0.3,0 -0.5,0.1 -0.1,0.4c0,0.3 -0.1,0.7 -0.4,0.9c-0.1,0 -0.3,0 -0.3,0.1c0,0.1 0.1,0.2 0.2,0.2c-0.2,0.4 -0.4,0.7 -0.7,1c-0.1,0 -0.2,0 -0.3,0c0,0 -0.1,0 -0.2,-0.1c1.3,-2.6 1.6,-5.4 1,-8.2c-0.4,-2 -1.4,-3.8 -2.9,-5.2c-0.2,-0.2 -0.5,-0.5 -0.7,-0.7c0.1,0 0.2,-0.1 0.3,-0.1c0.3,0 0.6,-0.1 0.9,-0.2c0.8,0.7 1.5,1.5 2,2.4c0,0.6 0.1,1.1 0.7,1.3c0.2,0.6 0.7,0.8 1.3,0.7c1.2,-0.1 2.4,-0.1 3.5,-0.2z" fill="#0c0c0c"></path><path d="M57.1,148.7c0.9,-0.2 1.8,-0.3 2.6,-0.6c0.4,-0.1 0.6,0 0.8,0.1c1.7,-0.1 3.2,0.4 4.7,1.1c0,0.2 0.1,0.4 0.4,0.1c1.1,0.4 2.1,1 3,1.8c0,0.3 -0.1,0.7 0.3,0.7c0.3,0.1 0.4,0.4 0.4,0.7c-0.1,0 -0.2,0.1 -0.3,0.1c-1.5,-1.3 -3.3,-2.1 -5,-3c0,-0.3 -0.1,-0.4 -0.4,-0.1c-0.5,-0.1 -1.1,-0.3 -1.6,-0.4c0,-0.1 -0.1,-0.2 -0.1,-0.2c-0.1,0 -0.2,0.1 -0.2,0.2c-1.3,-0.2 -2.5,-0.1 -3.7,0.1c-0.3,-0.3 -0.3,-0.1 -0.4,0.1c0,0 -0.1,0 -0.1,0.1c0,-0.1 -0.1,-0.2 -0.2,-0.2c-0.2,0 -0.1,0.2 -0.1,0.4c-0.8,0.7 -1.5,1.4 -1.7,2.5c-0.1,0.7 0,1.4 0.4,2c-0.1,0 -0.3,0 -0.4,0.1c-0.9,-1.3 -0.7,-3 0.4,-4.4c0.1,-0.4 1.1,-1.2 1.2,-1.2z" fill="#0c0c0c"></path><path d="M79.2,127.8c-0.7,0 -0.8,0.7 -1,1.1c-0.3,0.7 -0.7,0.9 -1.4,0.5c0.5,-1.3 1.1,-2.5 1.6,-3.8c0.2,0 0.4,-0.1 0.2,-0.4c0.5,-1.8 0.8,-3.6 0.9,-5.5c0.2,0 0.4,0 0.4,-0.3c0,-0.3 -0.2,-0.4 -0.4,-0.5c0,-0.2 0,-0.4 0,-0.5c0.4,-0.2 0.6,0.1 0.8,0.3c0.2,0.2 0.4,0.4 0.7,0.4c0,0.1 0,0.2 0,0.3c-0.1,0 -0.3,0 -0.4,0.1v0c0.1,0.1 0.2,0 0.4,-0.1c0.1,0.1 0.1,0.3 0,0.4c-0.8,0.1 -0.5,0.8 -0.7,1.2c-0.1,0.3 0,0.7 0.5,0.7c0,0.1 0,0.2 0,0.4c-0.9,0 -0.7,0.7 -0.8,1.3c-0.1,0.7 0.1,1.6 -0.4,2c-0.7,0.5 -0.2,1.3 -0.6,1.8c0.1,0 0.2,0.1 0.3,0.2c-0.1,0.3 -0.1,0.4 -0.1,0.4z" fill="#0c0c0c"></path><path d="M82,71.3c-0.3,0 -0.7,0 -1,0c-2.1,-2.6 -6.2,-2.8 -8.3,-0.8c-0.1,0 -0.2,0 -0.3,0c2,-2.4 6,-2.7 8.4,-0.5c0.6,0.4 1,0.8 1.2,1.3z" fill="#131313"></path><path d="M5.4,116.3c0,-0.2 0,-0.5 0,-0.7c2.1,-1 4.3,-1.4 6.4,-2.2c0.4,-0.1 0.8,-0.2 1.3,-0.4c0.2,0.3 0.8,0.2 0.9,0.7c-0.6,0 -1.2,0.1 -1.7,0.3c-2.3,0.8 -4.6,1.6 -6.9,2.3z" fill="#131313"></path><path d="M64.6,71.1c0.1,-0.3 0.2,-0.6 0.4,-0.8c1.3,-0.3 2.6,-0.4 3.9,-0.4c0,0.3 0.1,0.6 0.2,0.8c-1.6,0.1 -3,0.2 -4.5,0.4z" fill="#131313"></path><path d="M79.9,123.7c0.1,-0.5 -0.1,-1.2 0.8,-1.3c-0.2,1.8 -0.8,3.5 -1.5,5.2c-0.1,0 -0.2,-0.1 -0.3,-0.2c0.4,-0.5 -0.1,-1.3 0.6,-1.8c0.6,-0.3 0.3,-1.2 0.4,-1.9v0v0z" fill="#131313"></path><path d="M73.7,138.2c0,0 -0.1,-0.1 -0.2,-0.2c0.7,-1.1 1.6,-2 2.8,-2.6c0,0.1 0,0.2 0,0.3c-0.9,0.7 -1.8,1.6 -2.6,2.5z" fill="#212121"></path><path d="M80.8,122.1c-0.5,0 -0.6,-0.4 -0.5,-0.7c0.2,-0.4 -0.1,-1.2 0.7,-1.2c0.1,0.6 0,1.2 -0.2,1.9z" fill="#131313"></path><path d="M16.7,129.6c-0.1,-1 -0.8,-1.7 -0.9,-2.7c0.8,0.7 1,1.7 1.2,2.7c-0.1,0 -0.2,0 -0.3,0z" fill="#212121"></path><path d="M69.2,152.7c0,-0.3 0,-0.6 -0.4,-0.7c-0.5,-0.1 -0.3,-0.5 -0.3,-0.7c0.7,0.3 1.1,0.8 1.6,1.3c-0.3,0 -0.5,0 -0.9,0.1z" fill="#101010"></path><path d="M76.4,135.8c0,-0.1 0,-0.2 0,-0.3c0.6,-0.4 1.2,-0.7 1.8,-0.8c0,0.1 0,0.2 0.1,0.3c-0.7,0.2 -1.3,0.5 -1.9,0.8z" fill="#131313"></path><path d="M43.3,170.2c-0.3,-0.3 -0.5,-0.5 0,-0.9c0.3,-0.2 -0.1,-0.9 0.3,-1.2c0,0.7 0,1.4 -0.3,2.1z" fill="#212121"></path><path d="M84.1,79.4c-0.6,-0.6 -0.3,-1.7 0.4,-1.8c0.1,0.6 0,1.2 -0.4,1.8z" fill="#131313"></path><path d="M82.5,82.1c-0.2,-0.8 0.1,-1.2 1,-1.3c-0.3,0.5 -0.6,0.9 -1,1.3z" fill="#131313"></path><path d="M84.6,77.2c-1,-0.1 -0.7,-1.3 -0.2,-1.6c0.2,0.5 0.2,1.1 0.2,1.6z" fill="#131313"></path><path d="M84.1,75c-1,0.3 -1,-0.7 -0.6,-1.3c0.4,0.4 0.6,0.9 0.6,1.3z" fill="#131313"></path><path d="M72.8,156.3c-0.6,-0.2 -0.7,-0.7 -0.7,-1.3c0.3,0.3 0.6,0.7 0.7,1.3z" fill="#101010"></path><path d="M93.9,147c-0.5,-0.7 -0.5,-0.7 0,-0.9c0,0.3 0.2,0.5 0,0.9z" fill="#131313"></path><path d="M81.9,82.8c-0.5,-0.8 0.3,-0.5 0.6,-0.6c-0.3,0.2 -0.5,0.4 -0.6,0.6z" fill="#131313"></path><path d="M16.3,169.1c0.5,-0.1 0.7,0.3 0.9,0.5c0,0 -0.1,0.1 -0.2,0.2c-0.3,-0.1 -0.5,-0.4 -0.7,-0.7z" fill="#212121"></path><path d="M80.9,118.2c-0.5,-0.2 -0.6,-0.4 0,-0.7c0.1,0.1 0.2,0.4 0,0.7z" fill="#131313"></path><path d="M55.8,95.4c-0.3,0.1 -0.7,0.7 -0.7,-0.2c0.3,0.1 0.5,0.1 0.7,0.2z" fill="#111111"></path><path d="M27.4,105.3c-0.3,0.1 -0.5,0.5 -0.9,0.3c0.1,-0.1 0.2,-0.3 0.3,-0.5c0.2,0 0.5,0 0.6,0.2z" fill="#131313"></path><path d="M80.8,116.5c-0.2,0 -0.4,0 -0.4,-0.2c0,-0.2 0.1,-0.3 0.3,-0.3c0,0.2 0,0.4 0.1,0.5z" fill="#131313"></path><path d="M83.8,80.1c-0.7,-0.3 -0.1,-0.7 0.2,-0.6c0.1,0.2 0.1,0.5 -0.2,0.6z" fill="#131313"></path><path d="M90.8,138.2c-0.2,0 -0.4,0.1 -0.5,-0.1c-0.1,-0.2 0,-0.2 0.2,-0.3c0.1,0.1 0.2,0.2 0.3,0.4z" fill="#131313"></path><path d="M63.1,84.4c0.2,0 0.4,0 0.4,0.3c0,0.2 -0.2,0.2 -0.4,0.2c0.2,-0.2 0.1,-0.4 0,-0.5z" fill="#111111"></path><path d="M31.2,99.9c0,0.3 -0.1,0.5 -0.5,0.5c0.2,-0.1 0.3,-0.3 0.5,-0.5z" fill="#131313"></path><path d="M32.1,134.2c0.3,0 0.4,0.2 0.3,0.4c-0.2,0 -0.3,-0.2 -0.3,-0.4z" fill="#131313"></path><path d="M65.5,149.4c-0.3,0.3 -0.3,0.1 -0.4,-0.1c0.2,0 0.3,0 0.4,0.1z" fill="#101010"></path><path d="M41.5,95.1c0,0.1 0,0.3 -0.1,0.3c-0.1,0 -0.2,-0.1 -0.2,-0.2c0.1,-0.1 0.2,-0.1 0.3,-0.1z" fill="#131313"></path><path d="M57,90c0.3,0.2 0.2,0.3 0,0.4c-0.1,-0.1 0,-0.2 0,-0.4z" fill="#111111"></path><path d="M81,119.7c-0.1,0 -0.2,0.2 -0.4,0.1v0c0.1,-0.2 0.2,-0.1 0.4,-0.1c0,-0.1 0,0 0,0z" fill="#131313"></path><path d="M56.9,90.6c0.1,0 0.1,0 0.2,0.1c-0.1,0 -0.1,0 -0.2,0.1c0,-0.1 0,-0.2 0,-0.2z" fill="#111111"></path><path d="M15.8,126.9c0,0 -0.1,0 -0.2,0c0,0 0.1,-0.1 0.2,-0.2c0,0.1 0,0.1 0,0.2z" fill="#212121"></path><path d="M15.7,168.5c0.1,0 0.3,0.1 0.2,0.3c-0.1,-0.1 -0.1,-0.1 -0.2,-0.3z" fill="#212121"></path><path d="M15.9,168.8c0.2,0 0.3,0 0.2,0.2c-0.1,0 -0.2,-0.1 -0.2,-0.2z" fill="#212121"></path><path d="M16.1,168.9c0.2,0 0.3,0 0.2,0.2c0,0 -0.1,-0.1 -0.2,-0.2z" fill="#212121"></path><path d="M89.1,159.1c-0.1,-0.7 0.3,-0.9 0.7,-1.3c0.6,-0.4 1.1,-0.7 1.4,-1.5c0.1,-0.3 0.5,-0.8 1.1,-1c-0.6,1.7 -1.8,2.8 -3.2,3.8z" fill="#131313"></path><path d="M92.6,154.9c-0.6,-0.5 0.1,-0.9 0.2,-1.4c0.1,-0.7 0.5,-1.3 0.4,-2c0,-0.4 0.2,-0.6 0.6,-0.6c-0.2,1.3 -0.5,2.7 -1.2,4z" fill="#131313"></path><path d="M70.7,168.2c0.3,-0.4 0.6,-0.8 0.8,-1.3c0,0 0.1,0 0.2,0.1c0,0.2 0,0.4 0,0.5c-0.1,0.3 -0.4,0.6 -0.7,0.7c-0.1,0 -0.2,0 -0.3,0z" fill="#0c0c0c"></path><path d="M82.8,162.3c0.2,-0.6 0.5,-1 1.1,-0.4c-0.3,0.2 -0.7,0.4 -1.1,0.4z" fill="#101010"></path><path d="M93.9,149.3c-0.2,-0.1 -0.5,-0.1 -0.5,-0.4c0,-0.3 0.3,-0.4 0.6,-0.5c0,0.3 0,0.5 -0.1,0.9c0.1,0 0.1,0 0,0z" fill="#131313"></path><path d="M87.8,159.7c0,-0.3 0.1,-0.4 0.4,-0.5c0,0.2 0.1,0.3 0.2,0.5c-0.1,0.2 -0.3,0.3 -0.5,0.4c-0.1,-0.2 -0.1,-0.3 -0.1,-0.4z" fill="#101010"></path><path d="M88.3,159.6c0,-0.2 -0.1,-0.3 -0.2,-0.5c0.4,-0.6 0.5,-0.1 0.7,0.2c0,0.3 -0.2,0.3 -0.5,0.3z" fill="#131313"></path><path d="M87.8,159.7c0,0.1 0,0.2 0,0.4c0,0.1 -0.2,0.2 -0.3,0.2c-0.1,-0.1 -0.3,-0.3 -0.2,-0.4c0.1,-0.3 0.3,-0.2 0.5,-0.2z" fill="#131313"></path><path d="M75.1,163.7c0,-0.2 0,-0.4 0,-0.6c0.1,0 0.2,0 0.3,-0.1c0.1,0.2 0.2,0.4 0.4,0.6c-0.2,0.1 -0.4,0.1 -0.7,0.1z" fill="#101010"></path><path d="M77.1,163.6c0.1,-0.9 0.5,-0.3 0.7,-0.1c-0.2,0.1 -0.5,0.1 -0.7,0.1z" fill="#101010"></path><path d="M80.3,163c0,-0.2 0.1,-0.4 0.3,-0.5c0.2,0 0.2,0.1 0.2,0.3c-0.1,0.1 -0.3,0.2 -0.5,0.2z" fill="#101010"></path><path d="M85.5,161.3c-0.2,0 -0.3,-0.1 -0.3,-0.3c0,0 0.1,-0.1 0.2,-0.1c0.1,0 0.1,0.2 0.1,0.4z" fill="#101010"></path><path d="M71.7,167.5c0,-0.2 0,-0.4 0,-0.5c0.1,0 0.2,0 0.3,0c0,0.2 -0.1,0.4 -0.3,0.5z" fill="#101010"></path><path d="M93.9,150c-0.1,0 -0.2,-0.1 -0.3,-0.1c0,-0.2 0.1,-0.2 0.3,-0.2c0,0.1 0,0.2 0,0.3z" fill="#131313"></path><path d="M81.8,162.5c0,-0.1 0.1,-0.2 0.2,-0.2c0.2,0 0.2,0.1 0.2,0.3c-0.2,-0.1 -0.3,-0.1 -0.4,-0.1z" fill="#101010"></path><path d="M73.2,164.7c-0.3,-0.2 -0.2,-0.3 0.1,-0.4c0.1,0.2 0.1,0.3 -0.1,0.4z" fill="#101010"></path><path d="M72.7,166c-0.1,0 -0.2,-0.1 -0.2,-0.2c0,-0.2 0.2,-0.1 0.3,-0.1c0,0 0,0.1 -0.1,0.3z" fill="#101010"></path><path d="M68.6,175.7c-2.4,1 -4.7,2.1 -6.8,3.5c-0.3,0.2 -0.6,0.1 -0.8,0c-2.9,-1.9 -6.1,-3.2 -9.1,-4.8c-0.9,-0.5 -1.7,-1 -2.6,-1.6c-0.1,-0.1 -0.4,-0.1 -0.3,-0.4c0,-0.1 0.2,-0.2 0.3,-0.2c2.3,-0.7 4.6,-1.5 6.9,-2.3c0.4,-0.1 0.7,0 0.9,0.2c2.8,1.7 5.7,3 8.6,4.2c1,0.4 1.8,0.9 2.9,1.4z" fill="#b6b6b6"></path><path d="M61.2,186.5c-1.8,-0.9 -3.2,-2 -4.8,-2.9c-2.3,-1.4 -4.5,-2.9 -6.7,-4.4c-0.6,-0.4 -0.9,-0.8 -0.9,-1.5c-0.1,-1.4 -0.2,-2.7 -0.3,-4c0,-0.5 0,-0.8 0.6,-0.4c3.5,2.5 7.6,4.3 11.3,6.4c0.6,0.3 0.8,0.7 0.8,1.4c0,1.7 0,3.5 0,5.4z" fill="#929292"></path><path d="M19.5,171.3v0c0.3,-2.4 2.3,-2.7 4,-2.3c1.9,0.5 3.8,2.6 4,4.6c0,0.6 0.2,1.2 -0.6,1.5c-2.7,-0.7 -5.1,-2.1 -7.4,-3.8z" fill="#afafaf"></path><path d="M43.4,151.3c0.9,0.2 1.9,0.2 2.7,1c1.9,1.9 1.3,4.8 -0.6,6.1c-0.8,0.6 -1.7,1.1 -2.8,1.2c0,-0.1 -0.1,-0.2 -0.2,-0.4c0,-0.5 0,-0.9 -0.1,-1.4c0.1,-0.1 0,-0.3 0,-0.4c0,-0.2 0,-0.4 0,-0.5c0,-0.1 0,-0.2 0,-0.4c0,0 0,-0.1 0,-0.2c0.1,-0.9 0.2,-1.9 0.3,-2.8c0,-0.1 0.1,-0.2 0.1,-0.4c0.2,-0.6 0.5,-1.8 0.6,-1.8z" fill="#afafaf"></path><path d="M61.8,183.2c0,-0.9 0,-1.9 0,-2.8c0,-0.5 0.3,-0.7 0.6,-0.9c2.2,-1.1 4.4,-2.2 6.5,-3.3c0.6,-0.3 0.8,-0.2 0.8,0.5c-0.1,1.5 -0.2,3.1 -0.4,4.6c0,0.4 -0.3,0.6 -0.6,0.7c-1.3,0.8 -2.6,1.5 -3.9,2.3c-0.8,0.5 -1.5,1 -2.3,1.5c-0.6,0.4 -0.7,0.2 -0.7,-0.4c0.1,-0.8 0.1,-1.5 0,-2.2c0.1,0 0.1,0 0,0zM66.2,182.7c0.2,-0.1 0.3,-0.2 0.3,-0.4c0,-1.3 0,-2.7 -0.2,-4c0,-0.5 -0.3,-0.1 -0.5,0c-0.2,0 -0.4,0.2 -0.4,0.4c0,1.3 0,2.5 0,3.8c0.1,0.8 0.5,0.6 0.8,0.2zM67.1,177.7c-0.2,0.2 -0.2,0.4 -0.2,0.7c0,1.2 0,2.3 0,3.5c0,0.3 -0.1,0.7 0.3,0.7c0.4,0 0.6,-0.3 0.6,-0.7c0,-1.3 0,-2.6 0,-3.9c0,-0.2 0,-0.5 -0.2,-0.5c-0.3,-0.1 -0.4,0 -0.5,0.2zM64.9,183.6c0.2,-0.1 0.3,-0.2 0.3,-0.4c-0.2,-1.3 0,-2.5 -0.1,-3.7c0,-0.3 0,-0.7 -0.4,-0.6c-0.3,0 -0.7,0.2 -0.7,0.7c0,1.4 -0.1,2.7 0.2,4c0.2,0.6 0.5,0.4 0.7,0zM62.5,182c-0.2,0.7 0.2,1.6 0.2,2.6c0,0.2 -0.1,0.5 0.1,0.6c0.2,0.1 0.4,-0.1 0.7,-0.2c0.3,-0.2 0.3,-0.6 0.3,-0.9c0,-1.3 -0.3,-2.5 -0.2,-3.7c0,-0.2 0.2,-0.7 -0.3,-0.7c-0.3,0 -0.8,0.2 -0.8,0.7c-0.1,0.4 0,0.9 0,1.6zM68.2,179.3v0c0,0.5 0,1.1 0,1.6c0,0.2 -0.1,0.6 0.2,0.7c0.4,0 0.5,-0.3 0.6,-0.6c0.1,-0.2 0,-0.5 0,-0.8c0,-0.9 0,-1.8 0,-2.7c0,-0.3 0.3,-0.6 -0.1,-0.7c-0.4,0 -0.7,0.2 -0.7,0.6c0,0.7 0,1.3 0,1.9z" fill="#474747"></path><path d="M42.6,159.1c0,0.1 0.1,0.2 0.2,0.4c0,0.3 0,0.6 0,0.9c-0.5,-0.6 -0.6,-0.9 -0.2,-1.3z" fill="#212121"></path><path d="M41.1,157.6c0,-0.1 0.6,-0.3 0.5,0c-0.1,0.2 -0.4,0 -0.5,0z" fill="#111111"></path><path d="M42.4,156.8c0,0.2 0,0.4 0,0.5c0,0 -0.1,0 -0.2,0c-0.3,-0.3 -0.2,-0.4 0.2,-0.5z" fill="#111111"></path><path d="M42.9,153c0,0.1 -0.1,0.2 -0.1,0.4c-0.3,-0.2 -0.2,-0.3 0.1,-0.4z" fill="#111111"></path><path d="M42.2,157.3c0,0 0.1,0 0.2,0c0.1,0.1 0.1,0.2 0,0.4c-0.1,0 -0.2,-0.2 -0.2,-0.4z" fill="#212121"></path><path d="M40.8,157.7c0.1,0 0.1,0 0.2,0c0,0.1 0.1,0.3 0,0.3c-0.2,0 -0.2,-0.2 -0.2,-0.3z" fill="#212121"></path><path d="M43.2,162.2v0.1c-0.1,0 -0.2,0 -0.3,0c0.1,-0.1 0.2,-0.1 0.3,-0.1z" fill="#131313"></path><path d="M42.5,156.3c0,0 0,0.1 0,0.2c-0.2,-0.2 -0.2,-0.2 0,-0.2z" fill="#212121"></path><path d="M94,147.7c-0.1,0 -0.2,0 -0.2,-0.2c0,-0.1 0.1,-0.1 0.2,-0.2c0,0.1 0,0.2 0,0.4z" fill="#131313"></path><path d="M79.5,119.7c-0.1,1.9 -0.4,3.7 -0.9,5.5c0,0.1 -0.1,0.2 -0.2,0.4c-0.5,1.3 -1.1,2.5 -1.6,3.8c-1.2,1.5 -2.1,3.3 -3.3,4.8c-2.4,2.9 -5,5.7 -7.8,8.3c-2.7,-0.8 -5.4,-0.8 -8.1,0c-0.7,0.2 -1,0.9 -1.8,0.8c0.1,-0.2 0.2,-0.4 0.3,-0.6c0.8,-0.8 1.6,-1.7 2.3,-2.7v0c0.4,-0.1 0.7,-0.5 0.9,-0.8c0,0 0,0 0.1,0c0.2,-0.1 0.4,-0.3 0.6,-0.5c0.4,-0.3 0.8,-0.6 1.3,-0.9c0,0 0.1,-0.1 0.2,-0.1c0.2,0 0.3,-0.1 0.4,-0.3c0.2,0 0.3,-0.1 0.3,-0.4c0.2,0 0.4,0 0.4,-0.3c0,0 0.1,0 0.2,0c0.1,0 0.2,0 0.2,-0.1v0c0.3,-0.2 0.7,-0.4 0.8,-0.7c0.1,0 0.1,-0.1 0.2,-0.2c0.1,0 0.2,0 0.2,-0.1c0.2,0 0.3,-0.1 0.4,-0.3c0.2,-0.1 0.3,-0.3 0.5,-0.5c0.1,0 0.2,-0.1 0.2,-0.3v0c0.7,-0.2 1.2,-0.8 1.7,-1.3c0.5,-0.3 0.8,-0.7 1.2,-1.2c0,0 0,0 0,-0.1c0.3,-0.3 0.8,-0.5 0.9,-1c0,0 0.1,0 0.1,-0.1c0.2,-0.1 0.3,-0.2 0.4,-0.5c0.1,-0.1 0.2,-0.2 0.3,-0.4c0,-0.1 0.1,-0.2 0.2,-0.4v0c0.3,-0.2 0.7,-0.5 0.7,-0.9c0.2,-0.1 0.4,-0.4 0.5,-0.7c0.4,-0.3 0.6,-0.8 0.8,-1.3v0c0.2,0 0.2,-0.2 0.1,-0.4c0,0 0,-0.1 0,-0.2c0.4,0 0.3,-0.3 0.4,-0.5c0.3,-0.1 0.3,-0.3 0.3,-0.6c0.1,-0.1 0.2,-0.2 0.2,-0.4c0.1,-0.1 0.2,-0.3 0.2,-0.6c0.1,-0.1 0.3,-0.1 0.3,-0.4c0,-0.1 0,-0.2 0.1,-0.3c0.1,-0.2 0.1,-0.4 0.2,-0.5c0,-0.2 0.1,-0.3 0.1,-0.5c0.1,-0.1 0.2,-0.2 0.2,-0.4c0,-0.2 0.1,-0.5 0.2,-0.7c0.1,-0.7 0.4,-1.3 0.4,-2c0,-0.1 0,-0.2 0,-0.4c0.2,-0.6 0.3,-1.2 0.1,-1.8c0.1,-0.2 0,-0.4 0,-0.6c0.2,-0.3 0.2,-0.7 0,-1.1c0,-0.1 0,-0.2 0,-0.4c0,-0.6 0,-1.1 -0.1,-1.6c0,-0.1 0,-0.2 -0.1,-0.4c0,-0.6 -0.1,-1.2 -0.3,-1.8c0,-0.4 -0.1,-0.7 -0.3,-1.1c0,-0.1 -0.1,-0.2 -0.1,-0.4c0,0 0,-0.1 0,-0.2c0,-0.1 0,-0.2 0,-0.3c0.6,-0.6 0.4,-1.4 0.8,-2c0.1,-0.2 0.1,-0.6 0.5,-0.5c1.4,1.7 2.4,3.6 3.1,5.7c0.7,1.8 1.1,3.6 1.2,5.5c0,0.2 0,0.4 0,0.5c-0.2,1.1 -0.2,1.3 -0.1,1.5z" fill="#939393"></path><path d="M27.5,106.9c0.1,-0.2 0.3,-0.5 0.4,-0.7c0.5,-0.7 1,-1.4 1.4,-2.1c0.1,-0.1 0.2,-0.2 0.3,-0.3c0.4,-0.5 0.9,-1 1.3,-1.5v0c0.2,-0.1 0.4,-0.3 0.5,-0.6l0.1,-0.1c0.8,-0.6 1.6,-1.2 2.3,-1.9c0.3,-0.2 0.6,-0.4 0.9,-0.6c0.2,0 0.3,-0.1 0.5,-0.2c0.1,0.5 0.7,0.5 1,0.7c0.9,0.6 1.3,1.4 1.4,2.5c0.4,3.5 -3.6,8.3 -7.1,9c-1.6,0.3 -3.2,0 -3.6,-2.3c0,-0.1 -0.1,-0.2 -0.2,-0.3c0.4,-0.6 0.6,-1.1 0.8,-1.6z" fill="#afafaf"></path><path d="M57.4,155.6c0.8,0.1 1.5,0 2,-0.7c0.5,-0.9 0.5,-1.8 0,-2.7c0.6,0 0.8,0.5 1.2,0.7c1.3,0.9 2.7,1.7 4.3,2.3c-0.5,-1 -1.3,-1.4 -1.9,-2c0.1,-0.3 0.3,-0.2 0.4,-0.1c2.9,1.9 5,5.1 4,8.7c-0.5,1.6 -1.6,2.7 -2.8,3.8c-0.3,0 -0.4,0 -0.5,0.3c-4.2,2.9 -9.4,3.1 -13.2,-1c-0.5,-0.5 -0.8,-1.1 -1.3,-1.7c-0.7,-1.4 -1.2,-2.9 -1.4,-4.5c0,-1.9 1.3,-5.1 1.2,-4.8c-0.6,1.6 -0.8,3.3 -0.6,4.9c0.7,4.8 5.7,9.3 11.2,7.4c1.4,-0.5 2.8,-1.2 4,-2.4c-2.6,-0.2 -5.1,-0.6 -7.3,-1.6c-1.8,-0.8 -3.5,-1.9 -4.5,-3.6c-1.2,-2 -1.5,-4.2 -1.8,-6.5c0.3,-0.2 0.5,1 1,2.3c1.4,4 4.3,6.1 8.2,7.2c0.4,0.1 0.8,0.3 1.2,0.2c1.4,0.4 2.8,0.4 4.1,0.5c0.4,0 0.5,-0.2 0.7,-0.5c0.8,-1.7 0.8,-3.4 0,-5.1c-0.1,-0.2 -0.2,-0.5 -0.6,-0.5c-1.7,-0.4 -3.1,-1.3 -4.6,-2.1c-0.4,-0.6 -0.5,-0.3 -0.6,0.1c-0.4,1.4 -1.3,2 -2.7,1.6c0.3,-0.1 0.3,-0.2 0.3,-0.2z" fill="#111111"></path><path d="M74,122.7c0,0.2 -0.1,0.3 -0.1,0.5c-0.3,0 -0.6,0 -0.6,0.3c0,0.2 -0.1,0.4 -0.2,0.6c0,0.1 0,0.2 0,0.4c-0.4,0 -0.6,0.1 -0.5,0.6c0,0.2 0.1,0.4 0.4,0.4c0,0.2 0,0.5 -0.3,0.6c-0.5,0.1 -0.6,0.2 -0.4,0.5c0,0 0,0.1 0,0.2c-0.1,0.1 -0.2,0.2 -0.1,0.4v0c-0.8,-0.1 -0.7,0.8 -1.2,1.1c0,0 0.2,0.1 0.3,0.2c0,0.3 -0.2,0.5 -0.5,0.7c-0.7,0 -0.7,0.5 -0.7,0.9v0c-0.1,0 -0.3,0 -0.4,0.2c-0.1,0 -0.2,-0.1 -0.4,-0.2c-0.7,0.3 -0.1,0.8 -0.2,1.2l-0.1,0.1c-0.6,0 -1,0.2 -0.9,1v0.1c-0.7,-0.1 -1.1,0.2 -1.2,1.2c-0.6,0.5 -0.9,1.1 -1.7,1.3c0.1,-0.2 0.1,-0.4 0,-0.7c-0.1,0.2 0,0.4 0,0.7c0,0.1 -0.1,0.2 -0.2,0.3c-0.1,-0.1 -0.3,-0.3 -0.4,-0.3c-0.2,0 -0.1,0.3 -0.1,0.4c-0.3,0 -0.5,0 -0.5,0.3c0,0.1 0,0.2 0,0.4c-0.1,0 -0.1,0.1 -0.2,0.2c-0.8,-0.2 -0.9,-0.1 -0.8,0.7v0c0,0 -0.1,0.1 -0.2,0.1c0,0 -0.1,0 -0.2,0c-0.2,0 -0.3,0 -0.4,0.3c0,0.2 -0.1,0.3 -0.3,0.4c0,-0.1 0,-0.4 -0.2,-0.3c-0.3,0.1 -0.1,0.4 -0.2,0.7c0,0 -0.1,0.1 -0.2,0.1c-0.7,0 -1.2,0.1 -1.3,0.9c-0.2,0.1 -0.4,0.3 -0.6,0.5c0,-0.1 0,-0.2 -0.1,-0.3c0,0.1 0,0.2 0,0.3c-0.2,0.3 -0.5,0.7 -0.9,0.8c0,0 0,-0.2 -0.1,0c0,0 0.1,0 0.1,0.1c-0.7,1 -1.4,1.9 -2.3,2.7c-0.1,-0.2 -0.2,-0.3 -0.4,-0.3c0.5,-1.4 2.6,-3.6 2.6,-3.6c0,0 3.2,-2.9 3.3,-2.9c0.3,-0.1 2.5,-2.5 3.7,-3.4c0.3,-0.2 1.6,-1.4 2.1,-2.1c1.3,-1.3 2.2,-2.8 3.3,-4.3c0.3,-0.4 1.6,-3.3 1.8,-3.7c0.2,-0.8 0.2,-0.6 0.2,-0.7c0.1,-0.5 0.6,-2.4 0.6,-2.7c0.2,0 0.4,-0.1 0.1,-0.4c0.1,-2.1 0,-4.1 -0.3,-6.1c0.1,0 0.2,-0.1 0.2,-0.1c0,-0.2 -0.1,-0.2 -0.3,-0.2c-0.7,-2.8 -2.1,-5.1 -4,-7.3c0.1,-0.3 -0.2,-0.4 -0.3,-0.6c0,-0.2 0,-0.4 0,-0.5c0.3,-0.3 0.1,-0.7 0.2,-1c0.5,0.2 0.7,0.7 1.1,1.1c0,0.5 0.1,0.9 0.7,0.8c1.1,1.2 2,2.6 2.7,4.1c-0.2,0.4 -0.4,0.7 0.3,0.7c0,0 0.1,0.1 0.1,0.2c0,0.1 0,0.2 0,0.3c-0.1,0 -0.2,0 -0.2,0.1c0,0 0.1,0 0.2,0c0,0.1 0.1,0.2 0.1,0.4c-0.7,0.4 0.2,0.7 0,1.1c-0.3,0.8 -0.7,1.6 0.7,1.8c0,0.1 0,0.2 0.1,0.4c-0.6,0.6 -0.5,1.4 0.1,1.6c0,0.1 0,0.2 0,0.4c-0.9,0.3 0.1,0.7 0,1.1c0.1,0.2 0.1,0.4 0,0.6c-0.4,-0.1 -0.3,-0.7 -0.7,-0.8c0.1,0.8 0.4,1.5 0,2.3c-0.1,0.3 0.3,0.3 0.5,0.3c0,0.1 0,0.2 0,0.4c-0.2,0 -0.6,-0.2 -0.5,0.3c0.1,0.6 -0.1,1 -0.2,1.5c-0.1,0.3 -0.2,0.6 -0.4,0.9c-0.1,0 -0.3,0.1 -0.3,0.2c0.3,-0.5 0.6,-0.6 0.8,-0.5zM68.5,130c0,0 0,0.1 -0.1,0.1h0.1v0c0.1,0 0,-0.1 0,-0.1z" fill="#101010"></path><path d="M40.5,128.5c0.4,0 0.3,0 0.7,0c-0.3,0.8 0,1.4 0.7,1.7c0.4,0.1 0.7,0.1 1,0c0.5,-0.2 0.7,-0.7 0.7,-1.2c1.7,1.2 2.3,3 1.5,4.8c-0.7,1.8 -2.7,2.9 -4.6,2.7c-2.2,-0.3 -3.4,-1.6 -3.3,-3.8c0,-0.5 0.1,-0.9 0.2,-1.4c0.2,-0.4 1.1,-1.5 1.8,-2.1c0.7,-0.5 1.3,-0.5 1.3,-0.7z" fill="#fafafa"></path><path d="M48.8,130.7c0.4,-0.3 0.7,-0.4 1.2,-0.7c0.2,-0.1 0.4,0 0.4,-0.3c0.4,0 0.8,0 0.5,0.6c-0.2,0.3 0,0.6 0.2,0.8c0.4,0.5 0.9,0.7 1.4,0.5c0.6,-0.1 0.9,-0.6 0.9,-1.2c1.4,0.8 2.1,2.3 1.8,4c-0.3,1.8 -1.7,3.2 -3.4,3.5c-2.5,0.4 -4.3,-0.7 -4.6,-2.8c-0.1,-0.9 0,-1.9 0.3,-2.8c0.1,-0.6 0.9,-1 1.3,-1.6z" fill="#fafafa"></path><path d="M41.9,104.1c-0.6,0.1 -1.4,-0.1 -1.8,-1.1c-0.4,-0.9 -0.1,-1.7 0.4,-2.5c1.2,-1.6 2.6,-2.8 4.8,-2.8c0.9,0 1.8,0.3 2.2,1.2c0.5,0.9 0.4,1.9 -0.3,2.7c-1.3,1.5 -2.9,2.4 -5.3,2.5z" fill="#afafaf"></path><path d="M60.7,154c1.4,0.9 2.9,1.8 4.6,2.1c0.3,0 0.5,0.3 0.6,0.5c0.7,1.7 0.7,3.4 0,5.1c-0.1,0.3 -0.2,0.6 -0.7,0.5c-1.4,-0.1 -2.8,0 -4.1,-0.5c0.2,-0.9 0.5,-1.8 0.6,-2.8c0.2,-1.5 -0.1,-2.9 -0.7,-4.3c-0.2,-0.1 -0.4,-0.3 -0.3,-0.6z" fill="#939393"></path><path d="M47.4,132.3c-0.3,0.9 -0.4,1.9 -0.3,2.8c0.3,2.1 2.1,3.1 4.6,2.8c1.7,-0.3 3.1,-1.6 3.4,-3.5c0.3,-1.6 -0.3,-3.1 -1.8,-4c0,0.7 -0.3,1.1 -0.9,1.2c-0.6,0.1 -1.1,0 -1.4,-0.5c-0.2,-0.2 -0.4,-0.5 -0.2,-0.8c0.4,-0.7 -0.1,-0.6 -0.5,-0.6c1.9,-0.9 4.6,0.3 5.4,2.6c1.1,3.2 -1.7,6.6 -5.2,6.2c-3.3,-0.4 -4.8,-3.2 -3.4,-6.2c0.1,0 0.2,0 0.3,0z" fill="#131313"></path><path d="M37.6,131.3c0,0.5 -0.1,0.9 -0.2,1.4c0,2.2 1.1,3.5 3.3,3.8c1.9,0.2 3.9,-0.9 4.6,-2.7c0.7,-1.9 0.2,-3.6 -1.5,-4.8c0,0.5 -0.2,1 -0.7,1.2c-0.3,0.1 -0.7,0.1 -1,0c-0.7,-0.3 -1,-0.8 -0.7,-1.7c-0.4,0 -0.8,0 -1.2,0c1.7,-0.9 3.7,-0.6 5.1,0.9c1.4,1.4 1.6,3.7 0.5,5.4c-1.4,2.1 -4.5,3 -6.7,1.8c-1.8,-1 -2.1,-3.4 -1.2,-5.7c-0.1,0.1 -0.3,0.3 -0.3,0.4z" fill="#131313"></path><path d="M48.4,158.8c0.1,1.6 0.6,3.1 1.4,4.5c-0.2,0 -0.4,0 -0.6,0.1c-1.2,0.6 -2,0.5 -2.7,-0.2c-0.8,-0.9 -0.8,-1.9 -0.3,-3c0.5,-1 1.2,-1.4 2.2,-1.4z" fill="#afafaf"></path><path d="M46.2,95.8c0.5,-0.5 0.9,-0.6 1.7,-0.3c0.7,0.2 1.6,0.2 2.5,0.1c0.5,0 1.1,0 1.5,0.4c-1.9,-0.2 -3.8,0 -5.7,-0.2z" fill="#111111"></path><path d="M27.5,106.9c-0.2,0.6 -0.5,1.1 -0.7,1.6c-0.2,0.4 -0.4,0.7 -0.6,1.1c-0.5,-0.2 -0.7,-0.5 -0.2,-1c0.4,-0.4 0.6,-0.9 0.8,-1.4c0.3,-0.4 0.4,-0.6 0.7,-0.3z" fill="#131313"></path><path d="M25,114.9c-0.6,-1.4 -0.6,-2.1 0.7,-3.4c-0.2,1.2 -0.4,2.3 -0.7,3.4z" fill="#131313"></path><path d="M36.2,98.4c-0.1,-0.1 -0.2,-0.3 -0.1,-0.5c0.4,-0.5 2.1,-0.9 2.8,-0.7c-0.9,0.6 -1.8,0.8 -2.7,1.2z" fill="#131313"></path><path d="M24.9,117.6c-0.4,0 -0.7,-0.1 -0.6,-0.7c0.1,-0.4 0.2,-0.8 0,-1.3c-0.2,-0.4 0.2,-0.6 0.7,-0.4c-0.1,0.9 -0.1,1.7 -0.1,2.4z" fill="#131313"></path><path d="M43.3,96.2c0,-0.1 -0.1,-0.3 -0.2,-0.5c0.4,0 0.8,-0.3 1.3,-0.2c0.2,0 0.5,0.5 0.5,-0.1c0,0 0.1,-0.1 0.2,-0.1c0.3,0.1 0.1,0.4 0.2,0.6c-0.7,0.1 -1.3,0.2 -2,0.3z" fill="#111111"></path><path d="M25.1,122.3c0.2,-0.7 -0.4,-0.9 -0.7,-1.3c0.4,-0.2 0.6,0.3 0.9,0.2c0.2,0.6 0.4,1.2 0.5,1.8c-0.1,0 -0.1,0 -0.2,0c-0.1,-0.1 -0.4,-0.1 -0.5,-0.2c-0.1,-0.2 -0.4,0.4 -0.4,-0.1c0,-0.3 0.1,-0.4 0.4,-0.4v0z" fill="#131313"></path><path d="M55.7,142.3c0.2,0 0.3,0.1 0.4,0.3c-0.1,0.2 -0.2,0.6 -0.3,0.8c-0.2,0.4 -0.5,0.9 -0.7,1.3c0,0.1 -0.1,0.2 -0.2,0.2c-0.4,-0.1 0.4,-2 0.8,-2.6z" fill="#111111"></path><path d="M55.3,96.7c0.8,0 1.9,0.3 2.1,0.7c-0.7,-0.1 -1.4,-0.4 -2.1,-0.7z" fill="#111111"></path><path d="M25.7,111.2c-0.2,0 -0.6,-0.2 -0.3,-0.4c0.3,-0.3 0,-1.1 0.7,-0.8c0,0.4 -0.1,0.8 -0.4,1.2z" fill="#131313"></path><path d="M47.4,132.3c-0.1,0 -0.2,0 -0.3,0c0.3,-0.7 0.7,-1.4 1.4,-1.6c-0.4,0.5 -0.9,1 -1.1,1.6z" fill="#212121"></path><path d="M41,96.6c0.1,-0.3 -0.2,-0.8 0.1,-0.9c0.4,-0.1 0.6,0.5 0.8,0.7c-0.3,0.1 -0.6,0.3 -0.9,0.2z" fill="#131313"></path><path d="M35.4,98.9c-0.2,0 -0.3,0.1 -0.5,0.2c-0.1,-0.2 -0.3,-0.5 0,-0.6c0.4,-0.2 0.7,-0.5 1.2,0c-0.3,0.2 -0.5,0.3 -0.7,0.4z" fill="#131313"></path><path d="M60.6,98.7c0.1,0 0.1,0 0.2,0c0,0 0.1,0 0.2,0c0.4,0.3 1,0.2 1.1,0.8c-0.6,-0.2 -1,-0.5 -1.5,-0.8z" fill="#111111"></path><path d="M30.6,131.8" fill="#131313"></path><path d="M52.3,96.1c0.3,0 0.3,-0.7 0.7,-0.5c0.4,0.1 0,0.5 0.1,0.7c-0.3,0 -0.6,-0.1 -0.8,-0.2z" fill="#111111"></path><path d="M57.4,155.6c0,0.1 0,0.2 0,0.3c-0.5,0 -0.9,-0.3 -1.3,-0.7c0.1,0 0.2,0 0.4,-0.1c0.3,0.2 0.6,0.3 0.9,0.5z" fill="#101010"></path><path d="M65.3,132.5" fill="#111111"></path><path d="M40,96.8c0.2,-0.3 0.3,-0.7 0.7,-0.1c-0.2,0.2 -0.5,0.3 -0.7,0.1z" fill="#131313"></path><path d="M55.2,154.3c0.1,0 0.3,0 0.4,-0.1c0.1,0.2 0.5,0.3 0.3,0.7c-0.3,-0.1 -0.5,-0.3 -0.7,-0.6z" fill="#101010"></path><path d="M25.2,120.7c-0.4,-0.1 -0.4,-0.3 -0.1,-0.6c0.2,0.2 0.1,0.3 0.1,0.6z" fill="#131313"></path><path d="M54.4,96.5c0.3,-0.3 0.4,-0.2 0.5,0.1c-0.2,0.1 -0.4,0.1 -0.5,-0.1z" fill="#111111"></path><path d="M70.7,126.2" fill="#111111"></path><path d="M25.1,119.7c-0.2,0 -0.3,-0.1 -0.3,-0.3c0,-0.2 0.1,-0.2 0.3,-0.2c0,0.2 0,0.4 0,0.5z" fill="#131313"></path><path d="M43.5,151.2" fill="#111111"></path><path d="M68.7,104.4c0.1,0.2 0.4,0.3 0.3,0.6c-0.3,-0.1 -0.4,-0.3 -0.5,-0.6c0.1,0 0.1,0 0.2,0z" fill="#212121"></path><path d="M66.9,102.8c0.3,-0.3 0.5,-0.2 0.6,0.1c-0.1,0 -0.3,0 -0.4,0c-0.1,0 -0.2,-0.1 -0.2,-0.1z" fill="#101010"></path><path d="M67.6,103.5c0.2,0 0.4,0.1 0.4,0.3c-0.1,-0.1 -0.4,0 -0.4,-0.3z" fill="#111111"></path><path d="M58.2,97.6c0.2,0 0.5,0 0.7,0.2c-0.3,0 -0.5,0.1 -0.7,-0.2z" fill="#111111"></path><path d="M67,103c0.1,0 0.3,0 0.4,0c0,0.1 0,0.3 0,0.4c-0.2,-0.1 -0.3,-0.3 -0.4,-0.4z" fill="#111111"></path><path d="M68.7,104.4c0,0 -0.1,0 -0.2,0c0,0 -0.1,-0.1 -0.2,-0.2c0,-0.2 0.2,-0.3 0.4,-0.4c0,0.2 0,0.4 0,0.6z" fill="#111111"></path><path d="M63.9,100.6c0.2,0 0.5,0 0.5,0.3c-0.2,0 -0.4,-0.1 -0.5,-0.3z" fill="#111111"></path><path d="M25.6,123c0.1,0 0.1,0 0.2,0c0.1,0.1 0.1,0.2 0.1,0.4c-0.2,-0.1 -0.3,-0.2 -0.3,-0.4z" fill="#212121"></path><path d="M72.4,122.4" fill="#111111"></path><path d="M73.3,118.7c0.3,0.2 0.1,0.3 -0.1,0.4c0,-0.2 0,-0.3 0.1,-0.4z" fill="#111111"></path><path d="M24.9,118.7c-0.2,-0.1 -0.2,-0.2 0,-0.4c0.1,0.1 0.1,0.3 0,0.4z" fill="#131313"></path><path d="M73,112.2c0.1,0 0.3,0 0.3,0.2c0,0 -0.1,0.1 -0.2,0.1c-0.1,0 -0.1,-0.1 -0.1,-0.3z" fill="#111111"></path><path d="M65.4,101.5c0.2,0 0.3,0.1 0.3,0.3c-0.3,0.1 -0.3,-0.1 -0.3,-0.3z" fill="#111111"></path><path d="M61.5,149.2c0,-0.1 0,-0.2 0.2,-0.2c0.1,0 0.1,0.2 0.1,0.2c0,0.1 -0.1,0 -0.3,0z" fill="#101010"></path><path d="M57.4,149.5c0,-0.3 0.1,-0.5 0.4,-0.1c-0.1,0 -0.2,0 -0.4,0.1z" fill="#101010"></path><path d="M57,149.8c0,-0.1 0,-0.3 0.1,-0.4c0.1,-0.1 0.2,0.1 0.2,0.2c-0.1,0 -0.2,0.1 -0.3,0.2z" fill="#101010"></path><path d="M63.5,149.7c0.2,-0.3 0.3,-0.1 0.4,0.1c-0.2,0 -0.3,0 -0.4,-0.1z" fill="#101010"></path><path d="M56.5,155.1c-0.1,0 -0.2,0 -0.4,0.1c-0.1,-0.1 -0.4,-0.2 -0.2,-0.4c0.3,-0.1 0.5,0.2 0.6,0.3z" fill="#0c0c0c"></path><path d="M59.2,98.1c0.3,-0.2 0.3,0 0.3,0.2c-0.1,0 -0.2,-0.1 -0.3,-0.2z" fill="#111111"></path><path d="M64.2,165.9c0,-0.3 0.2,-0.4 0.5,-0.3c-0.1,0.2 -0.3,0.3 -0.5,0.3z" fill="#212121"></path><path d="M59.2,74.7c0.1,-0.7 0.3,-1.5 0.5,-2.3c2.2,1.4 4.4,2.7 6.6,4.1c1.1,0.7 2.1,1.3 3.2,2c0.5,0.3 0.7,0.6 0.5,1.3c-0.4,2.1 -0.7,4.1 -0.7,6.3c0,0.3 0.1,0.8 -0.5,0.6c-0.9,-0.5 -1.8,-1 -2.7,-1.5c-0.3,-0.1 -0.6,-0.3 -0.9,-0.5c0,0 -0.1,-0.1 -0.2,-0.1c-0.1,-0.1 -0.3,-0.2 -0.5,-0.3c-0.1,-0.1 -0.3,-0.1 -0.4,-0.2c-0.5,-0.3 -1,-0.6 -1.4,-0.8c0,0 -0.1,-0.1 -0.2,-0.1v0c0,-0.1 -0.2,-0.2 -0.3,-0.2v0c-0.1,-0.2 -0.3,-0.3 -0.6,-0.3c-0.2,-0.1 -0.3,-0.2 -0.5,-0.3c-0.2,-0.1 -0.4,-0.2 -0.6,-0.3v0c-0.1,0 -0.1,-0.1 -0.2,-0.1v0l-0.1,-0.1c-0.5,-0.5 -1.3,-0.7 -1.5,-1.5c0,-0.1 -0.1,0 0,-0.1c0,-0.1 0,-0.2 0,-0.4c0,-0.3 0,-0.6 0.1,-0.9c0,-0.2 0,-0.5 0,-0.7c0,-0.2 0,-0.4 0,-0.5c0,-0.1 0,-0.2 0,-0.4c0,-0.5 0.1,-1.1 0.2,-1.6c0.1,-0.2 0.1,-0.4 0,-0.6c0.1,-0.4 0.1,-0.4 0.2,-0.5z" fill="#929292"></path><path d="M64.6,71.1c1.5,-0.1 3,-0.3 4.5,-0.4c1,0 1.9,0.4 2.8,0.8c0.1,0 0.2,0.1 0.3,0.2c0.2,0.1 0.5,0.3 0.7,0.4c0.1,0 0.2,0.1 0.4,0.1c0.1,0 0.1,0 0.2,0.1c0.1,0.1 0.2,0.1 0.3,0.2c0,0 0,0.1 0.1,0.1c0,0 0.1,0.1 0.2,0.1c0,0 0.1,0 0.2,0.1c0.1,0.1 0.2,0.2 0.4,0.2c0.1,0 0.2,0.1 0.3,0.1c0.1,0.1 0.3,0.1 0.4,0.2c0,0 0,0.1 0.1,0.1c0,0 0.1,0.1 0.2,0.1c0,0 0.1,0 0.2,0.1c0.5,0.4 1.1,0.7 1.6,0.9c0.4,0.3 0.8,0.5 1.3,0.7c0,0 0.1,0 0.1,0.1c0,0.1 0.2,0.1 0.3,0.1c0.1,0 0.2,0.1 0.2,0.1c0.3,0.2 0.7,0.4 1.1,0.7c-1.2,0.2 -2.3,0.4 -3.4,0.6c-1.9,0.3 -3.7,0.7 -5.6,1c-0.6,0.1 -1.1,0 -1.5,-0.2c-3.2,-1.9 -6.4,-3.8 -9.5,-5.9c0,0 -0.1,-0.1 -0.2,-0.3c1.4,0 2.9,-0.1 4.3,-0.3z" fill="#b6b6b6"></path><path d="M72.8,70.6c2.1,-2 6.2,-1.8 8.3,0.8c1,1.4 1.9,3 2.2,4.7c0.3,1.5 -0.1,3 -1,4.3c-0.1,0 -0.2,0 -0.3,0c0.1,-1 0.2,-2 0.3,-3c0,-0.8 -0.2,-1.4 -1,-1.8c-1,-0.5 -2,-1 -3,-1.5c-0.1,0 -0.2,-0.1 -0.4,-0.2c-1,-0.7 -2.1,-1.3 -3.2,-1.8c-0.2,-0.3 -0.6,-0.4 -0.9,-0.6c-0.3,-0.3 -1.2,-0.1 -1,-0.9z" fill="#c3c3c3"></path><path d="M81.6,78c-0.3,2 -0.7,4.1 -1.1,6.3c-0.1,0.4 -0.5,0.5 -0.8,0.6c-2.6,0.9 -5.3,1.4 -7.9,2c-0.3,0 -0.6,0.1 -0.9,0.2c-0.8,0.2 -1.1,0.1 -0.9,-0.8c0.4,-2.2 0.4,-4.4 0.7,-6.6c0,-0.5 0.2,-0.7 0.7,-0.8c3.2,-0.6 6.5,-0.9 9.7,-1.7c0.6,-0.3 0.5,0.2 0.5,0.8zM73.3,85.2c0.3,0 0.3,-0.3 0.4,-0.5c0.4,-1.6 0.5,-3.3 0.7,-5c0,-0.3 0.4,-0.7 -0.2,-0.7c-0.4,0 -0.7,0 -0.9,0.5c-0.5,1.8 -0.6,3.7 -0.9,5.5c0,0.2 0,0.5 0.3,0.6c0.3,0 0.6,0 0.6,-0.4zM79.8,78.1c-0.5,0.1 -0.5,0.6 -0.5,1c-0.3,1.5 -0.3,3.1 -0.8,4.6c-0.3,0.8 0.2,0.8 0.7,0.8c0.6,0 0.7,-0.5 0.7,-0.8c0.1,-0.7 0.2,-1.4 0.3,-2.1c0.2,-1.1 0.4,-2.1 0.6,-3.2c0,-0.3 0.1,-0.7 -0.3,-0.7c-0.3,-0.2 -0.6,-0.1 -0.7,0.4zM76.4,83.9c0.1,0.4 -0.1,0.9 0.5,0.9c0.5,0 0.7,-0.2 0.8,-0.7c0.5,-1.8 0.6,-3.7 1,-5.6c0.1,-0.4 -0.1,-0.6 -0.5,-0.5c-0.5,0 -0.9,0.2 -1,0.8c-0.4,1.8 -0.4,3.6 -0.8,5.1zM74.4,84.6c0.1,0.4 -0.1,0.8 0.2,0.9c0.3,0.1 0.6,0 0.9,-0.2c0.2,-0.1 0.2,-0.4 0.2,-0.6c0.3,-1.9 0.5,-3.7 0.7,-5.6c0,-0.3 0.3,-0.7 -0.1,-0.7c-0.3,0 -0.7,0 -0.9,0.4c-0.1,0.2 -0.1,0.4 -0.2,0.6c-0.6,1.7 -0.3,3.6 -0.8,5.2zM72.6,80.1c-0.1,-0.3 0.1,-0.7 -0.3,-0.7c-0.5,0 -1.1,0 -1.2,0.9c-0.1,1.7 -0.4,3.5 -0.5,5.2c0,0.3 -0.5,0.7 0.1,0.8c0.4,0 0.8,-0.1 0.9,-0.7c0.4,-1.8 0.7,-3.7 1,-5.5z" fill="#474747"></path><path d="M66,85c0.9,0.5 1.8,1 2.7,1.5c-0.2,0.4 -0.2,0.2 -1.1,0.6c-0.9,-0.3 -1.7,-0.8 -2.4,-1.4c0.2,-0.3 0.5,-0.5 0.8,-0.7z" fill="#111111"></path><path d="M34,99.7c-0.8,0.6 -1.6,1.2 -2.3,1.9c-0.2,-0.1 -0.4,-0.3 -0.4,-0.7c0.5,0.3 0.8,0.1 1,-0.3c0.3,-0.8 0.9,-1 1.7,-0.9z" fill="#131313"></path><path d="M29.4,104c-0.5,0.7 -1,1.4 -1.4,2.1c-0.3,-0.2 -0.7,-0.4 -0.6,-0.9c0.4,0.2 0.7,0.2 0.8,-0.3c0.1,-0.5 0.6,-0.8 1.2,-0.9z" fill="#131313"></path><path d="M31,102.2c-0.4,0.5 -0.9,1 -1.3,1.5c-0.5,-0.4 0,-0.8 0.1,-1.1c0.3,-0.2 0.6,-0.8 1.2,-0.4z" fill="#131313"></path><path d="M60.2,87.3c-0.3,0.4 -0.7,0.8 -1,1.2c-0.3,-0.2 -0.4,-0.6 -0.1,-0.7c0.4,0 0.4,-1.1 1.1,-0.5z" fill="#111111"></path><path d="M77.5,74.7c-0.6,-0.3 -1.1,-0.5 -1.6,-0.9c0.5,0 0.9,0.1 1.4,0.2c0.5,0.1 0,0.5 0.2,0.7z" fill="#131313"></path><path d="M59,75.4c0,0.5 -0.1,1.1 -0.2,1.6c-0.5,-0.6 -0.4,-1.3 0.2,-1.6z" fill="#111111"></path><path d="M66.4,100.6c0.3,0.2 0.6,0.4 0.8,0.7c-0.2,0.1 -0.4,0.1 -0.7,0.2c-0.1,-0.1 -0.2,-0.2 -0.4,-0.4c0,-0.2 0,-0.4 0,-0.5c0.1,0 0.2,0 0.3,0z" fill="#101010"></path><path d="M65,99.6c0.2,0.1 0.5,0.3 0.7,0.5c-0.1,0.6 -0.5,0.3 -0.8,0.1c0,0 0,-0.1 0,-0.2c0.1,-0.1 0.1,-0.2 0.1,-0.4z" fill="#111111"></path><path d="M58.4,90.4c0,0.4 -0.1,0.7 -0.2,1.1c-0.4,-0.3 -0.4,-0.6 0.2,-1.1z" fill="#111111"></path><path d="M58.7,78.6c0,0.3 0,0.6 -0.1,0.9c-0.5,0 -0.6,-0.7 -0.5,-1c0.2,-0.2 0.4,0.1 0.6,0.1z" fill="#111111"></path><path d="M73.7,71.6c0.3,0.1 0.7,0.3 0.9,0.6c-0.4,0.1 -0.9,0.1 -0.9,-0.6z" fill="#131313"></path><path d="M62.1,98c0.2,0 0.4,0.1 0.5,0.2c0,0.2 0,0.5 -0.3,0.4c-0.3,-0.1 -0.2,-0.4 -0.2,-0.6z" fill="#111111"></path><path d="M66.6,101.5c0.2,-0.1 0.4,-0.1 0.7,-0.2c0,0 0,0 0.1,0c-0.1,1.1 -0.6,0.2 -0.8,0.2z" fill="#111111"></path><path d="M63.5,98.7c0.3,0 0.6,0.2 0.7,0.5c-0.4,0.3 -0.7,0.1 -0.7,-0.5z" fill="#111111"></path><path d="M82,80.4c0.1,0 0.2,0 0.3,0c0.1,0.3 -0.1,0.7 -0.4,0.7c-0.3,-0.1 -0.3,-0.7 0.1,-0.7z" fill="#131313"></path><path d="M69.2,86.9c0,0.1 0,0.2 -0.2,0.2c-0.1,0 -0.3,0 -0.2,-0.2c0,-0.1 0.1,-0.2 0.2,-0.2c0.1,0 0.2,0.1 0.2,0.2z" fill="#111111"></path><path d="M60.5,81.8c0.2,0.1 0.4,0.2 0.6,0.3c-0.4,0.3 -0.5,0.3 -0.6,-0.3z" fill="#111111"></path><path d="M64.6,99.4c0.2,0 0.3,0.1 0.4,0.3c-0.2,0.2 -0.5,0.2 -0.7,0.2c0,0 0,-0.1 0,-0.2c0.1,-0.1 0.2,-0.2 0.3,-0.3z" fill="#101010"></path><path d="M50.3,95.2c0.3,-0.1 0.5,-0.1 0.7,0c-0.2,0.1 -0.3,0.2 -0.7,0z" fill="#111111"></path><path d="M58.1,93.4c0.1,0.2 0.1,0.4 0.1,0.6c-0.4,0 -0.4,-0.3 -0.4,-0.5v0c0.1,-0.1 0.2,-0.1 0.3,-0.1z" fill="#111111"></path><path d="M77.8,73.9c0.1,0 0.2,0.1 0.4,0.2c0,0.1 0,0.4 -0.2,0.3c-0.2,-0.1 -0.2,-0.3 -0.2,-0.5z" fill="#131313"></path><path d="M58.8,77.4c0,0.2 0,0.4 0,0.5c-0.1,0 -0.6,0 -0.6,-0.2c0,-0.2 0.5,-0.2 0.6,-0.3z" fill="#111111"></path><path d="M66.2,100.6c0,0.2 0,0.4 0,0.5c-0.1,0 -0.3,0 -0.3,-0.2c-0.1,-0.2 0.1,-0.3 0.3,-0.3z" fill="#111111"></path><path d="M59.1,96.5c0.2,0 0.4,0 0.5,0.2c-0.4,0.3 -0.5,0.2 -0.5,-0.2z" fill="#111111"></path><path d="M31.5,101.7c-0.1,0.2 -0.3,0.4 -0.5,0.6c-0.1,-0.5 0.1,-0.6 0.5,-0.6z" fill="#131313"></path><path d="M60.7,86.9c-0.1,0.1 -0.3,0.3 -0.5,0.4c-0.1,-0.5 0.2,-0.4 0.5,-0.4z" fill="#111111"></path><path d="M57.3,96.5c0,-0.1 -0.1,-0.2 -0.1,-0.2v-0.1c0,0 0.1,0.1 0.2,0.2c0,-0.1 -0.1,-0.1 -0.1,0.1z" fill="#111111"></path><path d="M58.4,95.1c0.1,0.1 0.1,0.2 0.1,0.4c-0.3,-0.1 -0.4,-0.2 -0.1,-0.4z" fill="#111111"></path><path d="M73.2,72.3c-0.1,0 -0.2,-0.1 -0.4,-0.1c0.3,-0.4 0.3,-0.1 0.4,0.1z" fill="#131313"></path><path d="M61.5,82.4c0.2,0 0.4,0.1 0.6,0.3c-0.2,0 -0.5,0.1 -0.6,-0.3z" fill="#111111"></path><path d="M39.1,96.8l-0.1,-0.1c0,0 0,0 0.1,-0.1v0c0,0.1 0,0.1 0,0.2z" fill="#131313"></path><path d="M75.6,73.7c0,0 -0.1,-0.1 -0.2,-0.1c0,-0.1 0.1,-0.2 0.2,-0.3c0.2,0.2 0,0.3 0,0.4z" fill="#131313"></path><path d="M57.8,93.4c-0.1,0 -0.3,0 -0.2,-0.2v0c0.2,0 0.2,0.2 0.2,0.2z" fill="#111111"></path><path d="M64.1,83.9c0.1,0.1 0.3,0.1 0.4,0.2c-0.3,0.2 -0.5,0.2 -0.4,-0.2z" fill="#111111"></path><path d="M51.7,95.6v0c0,-0.1 0,-0.1 0,0v0c0,-0.1 0,-0.1 0,0z" fill="#111111"></path><path d="M54.4,95.9c0,0 0.1,0 0,0c0,0.1 0,0.1 0,0.1c0.1,0.1 0,0.1 0,-0.1c0,0.1 0,0.1 0,0z" fill="#111111"></path><path d="M64.2,99.7c0,0 0,0.1 0,0.2c-0.1,0 -0.2,-0.1 -0.1,-0.2c0,0 0.1,0 0.1,0z" fill="#111111"></path><path d="M64.9,100.1c0,0 0,0.1 0,0.2h-0.1c-0.1,-0.1 0,-0.2 0.1,-0.2z" fill="#101010"></path><path d="M75.3,73.5c-0.1,-0.1 -0.3,-0.1 -0.4,-0.2c0.2,0 0.3,0 0.4,0.2z" fill="#131313"></path><path d="M74.6,73.2c-0.2,0 -0.3,-0.1 -0.4,-0.2c0.2,-0.1 0.3,-0.1 0.4,0.2z" fill="#131313"></path><path d="M64.9,84.4c0,0 0.1,0.1 0.2,0.1c0,0 -0.1,0 -0.1,0.1c0,-0.1 0,-0.2 -0.1,-0.2z" fill="#111111"></path><path d="M61,98.7c0,0 -0.1,0 -0.2,0c0,-0.1 0,-0.1 0.1,-0.2c0.1,0 0.1,0.1 0.1,0.2z" fill="#101010"></path><path d="M62.4,82.9c0,0 0.1,0.1 0.2,0.1c0,0 -0.1,0 -0.1,0.1c0,0 0,-0.1 -0.1,-0.2z" fill="#111111"></path><path d="M62.1,82.7c0.1,0 0.3,0 0.3,0.2c-0.1,0 -0.3,0 -0.3,-0.2z" fill="#111111"></path><path d="M57.7,95.7c0,0 0,0.1 0,0.2c0,0 -0.1,0 -0.2,0c0.1,-0.1 0.2,-0.2 0.2,-0.2z" fill="#fdfdfd"></path><path d="M60.3,81.7c0.1,0 0.1,0.1 0.2,0.1c-0.1,0 -0.1,-0.1 -0.2,-0.1z" fill="#111111"></path><path d="M60.1,81.6l0.1,0.1c0,0 0,-0.1 -0.1,-0.1z" fill="#111111"></path><path d="M79.4,75.8c-0.1,0 -0.2,-0.1 -0.2,-0.1c0,-0.1 0.1,0 0.2,0.1z" fill="#131313"></path><path d="M78.9,75.4c0,0 -0.1,0 -0.1,-0.1c0,0 0.1,0.1 0.1,0.1z" fill="#131313"></path><path d="M59.2,74.7c0,0 0,0.1 0,0.2l-0.1,-0.1c0,-0.1 0,-0.1 0.1,-0.1z" fill="#111111"></path><path d="M39.6,96.8c0,0 -0.1,0 -0.1,-0.1c0.1,-0.1 0.1,0 0.1,0.1z" fill="#131313"></path><path d="M74.1,72.8c0,0 -0.1,-0.1 -0.2,-0.1c0,0 0.1,0.1 0.2,0.1z" fill="#131313"></path><path d="M73.7,72.7c-0.1,-0.1 -0.2,-0.1 -0.3,-0.2c0.3,-0.2 0.3,0 0.3,0.2z" fill="#131313"></path><path d="M72.1,71.7c-0.1,0 -0.2,-0.1 -0.3,-0.2c0.4,-0.1 0.2,0.1 0.3,0.2z" fill="#131313"></path><path d="M70.7,104.7c-0.6,0 -0.7,-0.4 -0.7,-0.8c0.2,0.2 0.5,0.5 0.7,0.8z" fill="#212121"></path><path d="M73.7,109.6c-0.7,0 -0.5,-0.4 -0.3,-0.7c0.2,0.1 0.3,0.4 0.3,0.7z" fill="#212121"></path><path d="M75.5,163.1c-0.1,0 -0.2,0 -0.3,0.1c0,0 -0.1,0 -0.2,0c-1.2,0.1 -1.2,0.1 -1.2,-1c0,-0.1 0,-0.2 0,-0.4c0,-0.1 0,-0.2 0,-0.3c0.1,-0.4 0,-0.7 0,-1.1c0,-0.1 0,-0.2 0,-0.4c0,-0.1 0,-0.3 0,-0.4c0,-0.2 0,-0.4 -0.1,-0.5c0.2,-0.3 -0.5,-1 0.4,-1c0.3,0 0.6,0 0.9,0c0.2,0.1 0.4,0.1 0.5,0c0.4,0 0.8,0 1.3,0c3.7,-0.3 6.9,-1.6 9.2,-4.7c3.2,-4.4 2.3,-10.5 -1.7,-13.5c-1,-0.7 -2.1,-1.3 -3.4,-1.4c-1,-0.1 -1.9,0 -2.8,0.5c-1.1,0.7 -2.3,0.7 -3.5,0.9c-0.4,0.1 -1,0.5 -1.3,0.2c-0.3,-0.4 0.2,-0.9 0.4,-1.4c0,-0.1 0.1,-0.2 0.1,-0.3c0.8,-0.9 1.6,-1.8 2.7,-2.4c0.6,-0.3 1.2,-0.6 1.8,-0.8c2.6,-0.6 5.2,-0.6 7.6,0.6c3.5,1.7 5.5,4.5 6.3,8.2c0.6,2.8 0.5,5.5 0,8.2c-0.1,0.2 -0.2,0.5 -0.3,0.7c-0.5,1.3 -1.1,2.5 -1.9,3.6c-0.2,0.2 -0.4,0.5 -0.7,0.7c-0.6,0.5 -1.3,1 -1.9,1.6c-0.2,0.1 -0.3,0.2 -0.5,0.3c-3.5,2 -7.4,3.2 -11.4,4z" fill="#c3c3c3"></path><path d="M80.2,148.3c0,-1 0,-2 0,-2.9c0,-0.4 0.1,-0.6 0.5,-0.7c1.6,-0.5 3.2,-1.1 4.7,-1.6c0.4,-0.1 0.5,0 0.7,0.3c0.8,1.9 1,3.8 0.4,5.8c-0.1,0.2 -0.2,0.5 -0.5,0.6c-1.7,0.6 -3.4,1.3 -5.1,2c-0.6,0.3 -0.8,0.1 -0.7,-0.5c0,-1.1 0,-2 0,-3z" fill="#929292"></path><path d="M71.5,141.1c3,-0.7 6,-1.4 9,-2.2c0.4,-0.1 0.8,-0.1 1.2,0.1c1.4,0.6 2.7,1.5 3.6,2.8c0.3,0.4 0.4,0.6 -0.2,0.7c-1.5,0.5 -3,1 -4.4,1.5c-0.7,0.3 -1.3,0.3 -1.9,0c-1.8,-0.9 -3.7,-1.4 -5.6,-2.1c-0.7,-0.1 -1.2,-0.3 -1.7,-0.8z" fill="#b6b6b6"></path><path d="M71.2,141.8c2.6,1.2 5.1,2.1 7.7,2.8c0.7,0.2 0.9,0.5 0.8,1.2c-0.1,2 -0.1,3.9 0,6c-2.6,-1.2 -5.2,-2.1 -7.6,-3.4c-0.5,-0.3 -0.7,-0.6 -0.7,-1.2c0.2,-1.7 -0.3,-3.5 -0.2,-5.4zM74.1,148.6v0c0.1,0.2 0.2,0.4 0.5,0.3c0.2,-0.1 0.2,-0.3 0.1,-0.5c-0.1,-0.4 -0.1,-0.7 -0.1,-1.1c0.1,-1 -0.2,-2 -0.2,-2.9c0,-0.5 -0.3,-0.8 -0.8,-0.8c-0.6,0 -0.3,0.5 -0.3,0.7c0,1.2 0.2,2.4 0.2,3.6c0,0.4 0.2,0.6 0.6,0.7zM75.5,149.3v0c0.2,0.2 0.4,0.4 0.7,0.2c0.2,-0.1 0.2,-0.3 0.2,-0.5c-0.1,-1.3 -0.2,-2.5 -0.3,-3.8c0,-0.7 -0.3,-1.1 -0.9,-1.2c0,1.6 0,3.1 0,4.7c-0.1,0.3 0.1,0.5 0.3,0.6zM77.1,144.8v0c-0.6,-0.1 -0.8,0 -0.7,0.6c0.2,0.7 0.1,1.4 0.1,2.1c0,0.6 0,1.2 0,1.8c0,0.6 0.5,0.8 1,0.8c0.5,0 0.2,-0.5 0.2,-0.8c0,-1.2 -0.2,-2.4 -0.2,-3.5c0.1,-0.4 0.1,-0.9 -0.4,-1zM73.2,146.7c0.1,-1.1 -0.3,-2.1 -0.4,-3.3c0,-0.4 -0.4,-0.6 -0.8,-0.6c-0.4,0 -0.2,0.4 -0.3,0.7c-0.1,1.3 0.3,2.5 0.2,3.7c0,0.6 0.5,0.8 0.9,0.8c0.5,0 0.3,-0.5 0.4,-0.8c0,-0.1 0,-0.2 0,-0.5zM78.2,147.6v0c0,0.8 0,1.5 0,2.3c0,0.5 0.4,0.7 0.7,0.7c0.3,0 0.3,-0.2 0.3,-0.4c-0.2,-1.5 -0.4,-3 -0.2,-4.6c0,-0.4 -0.3,-0.6 -0.6,-0.6c-0.5,0 -0.3,0.4 -0.3,0.6c0.1,0.7 0.1,1.4 0.1,2z" fill="#474747"></path><path d="M11.5,127.5c0,-2.1 0,-4.2 0,-6.2c0,-0.5 0.2,-0.7 0.6,-0.9c3,-1 5.8,-2.5 8.8,-3.6c0,0 0,0 0.1,0c0,1.7 0,3.5 0,5.2c0,0.5 -0.3,0.6 -0.6,0.8c-2.1,1.3 -4.2,2.4 -6.3,3.5c-0.8,0.3 -1.6,0.8 -2.6,1.2z" fill="#929292"></path><path d="M5.4,116.3c2.3,-0.7 4.6,-1.5 6.9,-2.2c0.6,-0.2 1.1,-0.3 1.7,-0.3c1.8,0 3.3,1 4.9,1.6c0.6,0.2 1.3,0.3 1.8,0.7c-0.1,0.4 -0.5,0.4 -0.8,0.5c-2.6,1.1 -5.3,2.2 -7.9,3.3c-0.4,0.1 -0.7,0.2 -1.1,0c-2.1,-1.1 -4.1,-2.2 -6.2,-3.3c0.3,-0.1 0.5,-0.2 0.7,-0.3z" fill="#b6b6b6"></path><path d="M4.3,117.2c2.2,1.4 4.3,2.3 6.4,3.3c0.4,0.2 0.4,0.6 0.4,0.9c-0.2,2 -0.1,4 -0.1,6.2c-1.9,-1.4 -3.8,-2.3 -5.6,-3.4c-0.3,-0.2 -0.5,-0.4 -0.5,-0.7c-0.2,-2 -0.4,-4.1 -0.6,-6.3zM8.8,125.5c0.1,0.2 0.2,0.4 0.5,0.3c0.2,-0.1 0.3,-0.4 0.2,-0.6c-0.1,-1.4 -0.2,-2.8 -0.2,-4.2c0,-0.2 -0.1,-0.4 -0.4,-0.4c-0.9,-0.4 -0.6,0.4 -0.5,0.6c0.2,1.1 0.1,2.2 0.1,3.4c0.2,0.2 0,0.6 0.3,0.9zM10.1,126.2v0c0.2,0.3 0.5,0.5 0.5,0c0,-1.6 0,-3.2 0,-4.8c0,-0.3 -0.1,-0.5 -0.4,-0.5c-0.3,0 -0.3,0.3 -0.3,0.6c0,1.2 0,2.3 0,3.5c0,0.3 -0.2,0.8 0.2,1.2zM6.7,119.7v0c0,-0.4 -0.3,-0.5 -0.6,-0.4c0.1,1 0.2,2.1 0.2,3.1c0,0.9 -0.2,2 1.1,2.4c0,0 0.1,0.1 0.1,0.2c0.1,0.1 0.3,0.3 0.5,0.3c0.3,-0.1 0.2,-0.4 0.2,-0.6c0.1,-1.4 -0.3,-2.7 -0.2,-4.1c0,-0.3 -0.1,-0.6 -0.5,-0.6c-0.4,0 -0.2,0.3 -0.2,0.6c0,1.2 0,2.3 0,3.5c-0.2,-0.8 -0.3,-1.6 -0.4,-2.5c0.1,-0.6 0.1,-1.3 -0.2,-1.9zM4.8,119.4c0.2,1.4 0.4,2.7 0.6,4c0,0.3 0.1,0.6 0.4,0.6c0.4,0 0.3,-0.4 0.3,-0.6c-0.1,-1.3 -0.2,-2.7 -0.5,-3.9c-0.1,-0.4 0,-1 -0.5,-1c-0.5,0 -0.1,0.6 -0.3,0.9z" fill="#474747"></path><path d="M6.7,127.5c-1,-0.2 -2,-0.5 -2.9,-0.9c-1.4,-0.6 -2,-1.6 -2.2,-3c-0.3,-2 -0.2,-3.8 1.2,-5.4c0.5,-0.4 0.8,-0.4 0.8,0.4c0,1.2 0.2,2.4 0.2,3.5c0,1.5 0.4,2.7 1.8,3.4c0,0.5 0.4,0.8 0.7,1.2c0.2,0.2 0.4,0.4 0.4,0.8z" fill="#c3c3c3"></path><path d="M92.5,140c0.3,0.3 0.5,-0.1 0.8,0c0,0.7 0.1,1.5 0,2.3c0,0.5 -0.2,-0.1 -0.3,0c-0.1,-0.5 -0.2,-0.9 -0.5,-1.3v0c0,-0.1 0,-0.3 -0.2,-0.4c-0.1,-0.3 0.3,-0.4 0.2,-0.6c0,-0.1 0,0 0,0z" fill="#929292"></path><path d="M92.5,140c0,0 0,-0.1 0,0c-0.1,-0.3 -0.4,-0.1 -0.6,-0.2c0,-0.1 -0.1,-0.1 -0.1,-0.2c-0.1,-0.2 -0.1,-0.4 -0.2,-0.7v0c0.2,0.1 0.4,0.2 0.6,0.2c0.5,0.1 0.6,0.4 0.3,0.9z" fill="#b6b6b6"></path><path d="M92.5,140.8c0.3,0.4 0.4,0.8 0.5,1.3c-1,-0.1 -0.4,-0.8 -0.5,-1.3z" fill="#131313"></path><path d="M89.3,157c0.2,-0.2 0.4,-0.5 0.7,-0.7c0,0.5 0,1 -0.7,0.7z" fill="#131313"></path><path d="M91.9,152.7c0.1,-0.2 0.2,-0.5 0.3,-0.7c0.2,0.3 0.2,0.6 -0.3,0.7z" fill="#131313"></path><path d="M93.5,143.9c-0.1,0 -0.1,0.1 -0.2,0.1c-0.1,0 -0.2,0 -0.2,-0.2c0,0 0.1,-0.1 0.2,-0.1c0.1,0.1 0.1,0.2 0.2,0.2z" fill="#131313"></path><path d="M86.9,158.9c0.2,-0.1 0.3,-0.2 0.5,-0.3c0.1,0.6 -0.2,0.5 -0.5,0.3z" fill="#101010"></path><path d="M91.8,139.6c0,0.1 0.1,0.1 0.1,0.2c0,0.1 0,0.4 -0.2,0.3c-0.2,-0.2 0.1,-0.4 0.1,-0.5z" fill="#131313"></path><path d="M92.3,140.5c0.1,0.1 0.2,0.2 0.2,0.4c-0.3,0 -0.3,-0.2 -0.2,-0.4z" fill="#131313"></path><path d="M93.3,145.3c0,0 0,-0.1 0,0c0.1,0 0.1,0 0.1,0v0c0,0 -0.1,0 -0.1,0z" fill="#131313"></path><path d="M91.6,138.9v0z" fill="#b6b6b6"></path><path d="M24.1,116.3v0.1h-0.1v-0.1c0,-0.1 0,0 0.1,0z" fill="#131313"></path><path d="M74.1,158.1c-0.8,0.1 -0.2,0.7 -0.4,1c-0.2,0 -0.6,0.1 -0.6,-0.2c0,-0.3 0.1,-0.7 0.3,-0.9c0.2,-0.3 0.5,-0.2 0.7,0.1z" fill="#101010"></path><path d="M73.8,160.4c0.1,0.4 0.1,0.7 0,1.1c-0.3,-0.4 -0.8,-0.8 0,-1.1z" fill="#101010"></path><path d="M75.5,158c-0.2,0.1 -0.4,0.1 -0.5,0c0.1,-0.2 0.3,-0.2 0.5,0z" fill="#101010"></path><path d="M73.8,159.6c0,0.1 0,0.3 0,0.4c-0.3,-0.1 -0.3,-0.2 0,-0.4z" fill="#101010"></path><path d="M73.8,161.8c0,0.1 0,0.2 0,0.4c-0.1,0 -0.2,-0.1 -0.2,-0.2c0,-0.1 0.2,-0.2 0.2,-0.2z" fill="#101010"></path><path d="M79.5,119.7c-0.1,-0.2 -0.1,-0.5 0,-0.7c0.2,0 0.4,0.2 0.4,0.5c0,0.3 -0.2,0.2 -0.4,0.2z" fill="#131313"></path><path d="M78.4,125.7c0,-0.1 0.1,-0.2 0.2,-0.4c0.2,0.3 0,0.3 -0.2,0.4z" fill="#131313"></path><path d="M79.9,123.7l0.1,-0.1v0.1z" fill="#0c0c0c"></path><path d="M62.5,182c0,-0.7 0,-1.2 0,-1.7c0,-0.5 0.5,-0.7 0.8,-0.7c0.5,0 0.3,0.5 0.3,0.7c-0.1,1.3 0.2,2.5 0.2,3.7c0,0.3 0,0.7 -0.3,0.9c-0.2,0.1 -0.4,0.3 -0.7,0.2c-0.2,-0.1 -0.1,-0.4 -0.1,-0.6c-0.1,-0.9 -0.4,-1.8 -0.2,-2.5zM63.2,184.6c0.3,-1.5 0,-2.9 -0.2,-4.4c-0.1,1.5 -0.4,2.9 0.2,4.4z" fill="#363636"></path><path d="M68.2,179.3c0,-0.6 0,-1.3 0,-1.9c0,-0.4 0.3,-0.7 0.7,-0.6c0.5,0.1 0.2,0.5 0.1,0.7c0,0.9 0,1.8 0,2.7c0,0.3 0,0.6 0,0.8c-0.1,0.3 -0.2,0.7 -0.6,0.6c-0.4,0 -0.2,-0.4 -0.2,-0.7c0,-0.5 0,-1 0,-1.6zM68.6,177.3c0,1.3 0,2.5 0,3.8c0.2,-1.3 0,-2.6 0,-3.8z" fill="#363636"></path><path d="M64.9,183.6c-0.3,0.4 -0.6,0.6 -0.7,-0.1c-0.3,-1.3 -0.1,-2.7 -0.2,-4c0,-0.5 0.3,-0.7 0.7,-0.7c0.4,0 0.4,0.3 0.4,0.6c0,1.3 -0.1,2.5 0.1,3.7c0.1,0.3 -0.1,0.4 -0.3,0.5c0,-1.3 -0.1,-2.5 -0.2,-3.7c0,-0.2 0.1,-0.6 -0.2,-0.6c-0.4,0 -0.4,0.3 -0.3,0.6c0.2,1.1 0.1,2.1 0.1,3.2c0.1,0.4 0.3,0.5 0.6,0.5z" fill="#363636"></path><path d="M67.1,177.7c0.1,-0.2 0.2,-0.4 0.5,-0.3c0.3,0 0.2,0.3 0.2,0.5c0,1.3 0,2.6 0,3.9c0,0.4 -0.2,0.7 -0.6,0.7c-0.5,0 -0.3,-0.4 -0.3,-0.7c0,-1.2 0,-2.3 0,-3.5c0,-0.2 -0.1,-0.4 0.2,-0.6c0,1.3 0,2.6 0,3.8c0,0.2 -0.1,0.6 0.2,0.5c0.3,0 0.3,-0.4 0.3,-0.6c-0.3,-1.1 -0.1,-2.1 -0.1,-3.2c0,-0.2 0,-0.5 -0.4,-0.5z" fill="#363636"></path><path d="M65.8,178.4c0.1,-0.2 0.5,-0.6 0.5,0c0.1,1.3 0.1,2.7 0.2,4c0,0.2 -0.1,0.3 -0.3,0.4v0c0,-1.2 0,-2.3 0,-3.5c0,-0.4 0.1,-0.8 -0.4,-0.9z" fill="#363636"></path><path d="M66.2,182.7c-0.3,0.4 -0.7,0.6 -0.7,-0.1c-0.1,-1.3 0,-2.5 0,-3.8c0,-0.2 0.1,-0.4 0.4,-0.4v0c-0.4,1.3 -0.1,2.6 -0.1,4c-0.1,0.3 0.2,0.3 0.4,0.3z" fill="#363636"></path><path d="M74.8,119.2c-0.2,0 -0.6,0 -0.5,-0.3c0.3,-0.7 0,-1.5 0,-2.3c0.5,0.2 0.3,0.7 0.7,0.8c0.1,0.7 0,1.3 -0.2,1.8z" fill="#111111"></path><path d="M74.7,113.5c-1.3,-0.2 -1,-1 -0.7,-1.8c0.1,0 0.2,0 0.3,0c0.3,0.6 0.4,1.2 0.4,1.8z" fill="#111111"></path><path d="M74.1,121.4c0.1,-0.5 0.3,-1 0.2,-1.5c-0.1,-0.5 0.3,-0.3 0.5,-0.3c0,0.7 -0.2,1.3 -0.4,2c-0.1,-0.1 -0.2,-0.2 -0.3,-0.2z" fill="#111111"></path><path d="M74.9,115.5c-0.7,-0.3 -0.7,-1.1 -0.1,-1.6c0.2,0.5 0.2,1 0.1,1.6z" fill="#111111"></path><path d="M66.9,133.3c0.1,-0.9 0.6,-1.3 1.2,-1.2c-0.4,0.4 -0.7,0.9 -1.2,1.2z" fill="#111111"></path><path d="M71.3,128.2c-0.1,0 -0.4,-0.1 -0.3,-0.2c0.4,-0.3 0.3,-1.2 1.2,-1.1c-0.4,0.4 -0.5,1 -0.9,1.3z" fill="#111111"></path><path d="M62.8,136.6c-0.1,-0.8 0,-1 0.8,-0.7c-0.1,0.4 -0.5,0.5 -0.8,0.7z" fill="#111111"></path><path d="M59.9,138.7c0,-0.8 0.6,-0.9 1.3,-0.9c-0.4,0.3 -0.8,0.6 -1.3,0.9z" fill="#111111"></path><path d="M74.9,116.9c0.1,-0.3 -0.9,-0.7 0,-1.1c0.2,0.4 0.2,0.7 0,1.1z" fill="#111111"></path><path d="M68.2,132c-0.1,-0.7 0.3,-0.9 0.9,-1c-0.2,0.5 -0.6,0.7 -0.9,1z" fill="#111111"></path><path d="M74.4,111.7c-0.1,0 -0.2,0 -0.3,0c0.2,-0.4 -0.7,-0.7 0,-1.1c0.2,0.4 0.3,0.8 0.3,1.1z" fill="#212121"></path><path d="M69.2,131c0,-0.4 -0.5,-0.9 0.2,-1.2c0,0.3 -0.1,0.6 0.2,0.7c0,0.2 -0.2,0.3 -0.4,0.5z" fill="#111111"></path><path d="M72.6,125c0,-0.4 0.1,-0.6 0.5,-0.6h0.1h0.1c0,0.2 0,0.4 -0.2,0.6c-0.1,0 -0.3,0 -0.5,0z" fill="#111111"></path><path d="M70.2,129.8c0,-0.5 0,-0.9 0.7,-0.9c-0.1,0.4 -0.4,0.7 -0.7,0.9z" fill="#111111"></path><path d="M74.1,121.4c0.1,0 0.2,0.1 0.3,0.2c0,0.2 -0.1,0.5 -0.2,0.7c-0.2,0 -0.3,0 -0.5,0c0.1,-0.3 0.2,-0.6 0.4,-0.9z" fill="#212121"></path><path d="M73.7,122.3c0.2,0 0.3,0 0.5,0c0,0.2 0,0.3 -0.2,0.4c-0.2,-0.1 -0.5,0 -0.6,-0.2c0,-0.1 0.2,-0.2 0.3,-0.2z" fill="#111111"></path><path d="M64.4,135c0,-0.1 0,-0.4 0.1,-0.4c0.1,0 0.3,0.2 0.4,0.3c-0.2,0.1 -0.3,0.3 -0.5,0.5c0,-0.2 0,-0.3 0,-0.4z" fill="#111111"></path><path d="M73.3,123.5c0,-0.4 0.3,-0.4 0.6,-0.3c-0.1,0.2 -0.1,0.4 -0.2,0.5c-0.1,-0.1 -0.2,-0.1 -0.4,-0.2z" fill="#212121"></path><path d="M64.4,135c0,0.1 0,0.2 0,0.3c0,0.2 -0.2,0.2 -0.4,0.3c0,-0.1 -0.1,-0.1 -0.2,-0.2c0.1,-0.5 0.3,-0.5 0.6,-0.4z" fill="#212121"></path><path d="M69.6,130.5c-0.3,-0.2 -0.2,-0.5 -0.2,-0.7c0.1,0 0.2,0.1 0.4,0.2c0,0 0.1,0.1 0.2,0.2c-0.2,0.1 -0.3,0.2 -0.4,0.3z" fill="#212121"></path><path d="M61.4,137.7c0,-0.2 -0.1,-0.6 0.2,-0.7c0.1,0 0.1,0.2 0.2,0.3c-0.1,0.3 -0.3,0.3 -0.4,0.4z" fill="#111111"></path><path d="M72.3,126.4c-0.2,-0.4 -0.2,-0.5 0.4,-0.5c-0.1,0.2 0,0.5 -0.4,0.5z" fill="#212121"></path><path d="M73.3,123.5c0.1,0 0.2,0.1 0.3,0.2c0,0.1 0,0.2 -0.1,0.3c-0.1,0 -0.3,0 -0.4,0c0.1,-0.1 0.2,-0.3 0.2,-0.5z" fill="#111111"></path><path d="M72.6,125c0.2,0 0.4,0 0.5,0c0,0.1 0,0.3 -0.2,0.4c-0.1,-0.1 -0.3,-0.2 -0.3,-0.4z" fill="#212121"></path><path d="M73.2,124c0.1,0 0.3,0 0.4,0c0,0.2 -0.1,0.3 -0.3,0.4h-0.1h-0.1c0.1,-0.1 0.1,-0.2 0.1,-0.4z" fill="#212121"></path><path d="M70,130.1c0,0 -0.1,-0.1 -0.2,-0.2c0.1,-0.1 0.2,-0.2 0.4,-0.2c-0.1,0.2 -0.2,0.3 -0.2,0.4z" fill="#111111"></path><path d="M65.2,134.5c0,-0.2 -0.1,-0.4 0,-0.7c0.2,0.3 0.1,0.5 0,0.7z" fill="#212121"></path><path d="M62,137c0,-0.2 0.2,-0.3 0.4,-0.3c0,0.3 -0.1,0.4 -0.4,0.3z" fill="#111111"></path><path d="M63.9,135.3c0,0.1 0.1,0.1 0.2,0.2c0,0.1 -0.1,0.2 -0.2,0.1c0,0 0,-0.1 0,-0.3z" fill="#111111"></path><path d="M72.1,126.9c0,-0.1 0,-0.3 0.1,-0.4c0.1,0.2 0.1,0.4 -0.1,0.4z" fill="#111111"></path><path d="M59.3,139.2c0,-0.1 0,-0.2 0,-0.3c0.1,0.1 0.1,0.2 0,0.3c0.1,0 0,0 0,0z" fill="#111111"></path><path d="M73.9,110.3c-0.1,0 -0.2,0 -0.2,0c0,-0.1 0.1,-0.1 0.2,-0.1c0,-0.1 0,0 0,0.1z" fill="#212121"></path><path d="M62.6,136.7c0,0 0.1,-0.1 0.2,-0.1c0,0.1 -0.1,0.1 -0.2,0.1z" fill="#111111"></path><path d="M68.5,130v0v0.1c0,0 -0.1,0 0,-0.1c-0.1,0.1 0,0 0,0z" fill="#111111"></path><path d="M58.4,140.1c-0.1,-0.1 -0.1,-0.1 0,0c0,-0.3 0,-0.1 0,0c0,-0.1 0,0 0,0z" fill="#111111"></path><path d="M25.1,122.3v0v0z" fill="#0c0c0c"></path><path d="M79.8,78.1c0.1,-0.5 0.4,-0.6 0.8,-0.5c0.4,0.1 0.3,0.5 0.3,0.7c-0.2,1.1 -0.4,2.1 -0.6,3.2c-0.1,0.7 -0.2,1.4 -0.3,2.1c-0.1,0.4 -0.2,0.8 -0.7,0.8c-0.6,0 -1,0 -0.7,-0.8c0.5,-1.5 0.5,-3.1 0.8,-4.6c-0.1,-0.3 -0.2,-0.8 0.4,-0.9c-0.3,1.8 -0.4,3.5 -0.8,5.3c0,0.3 -0.2,0.7 0.1,0.7c0.4,0.1 0.4,-0.4 0.5,-0.7c0.3,-1.5 0.5,-3.1 0.8,-4.6c0.2,-0.7 -0.1,-0.7 -0.6,-0.7z" fill="#363636"></path><path d="M76.4,83.9c0.5,-1.6 0.5,-3.4 0.8,-5.1c0.1,-0.6 0.6,-0.7 1,-0.8c0.4,0 0.6,0.1 0.5,0.5c-0.4,1.9 -0.5,3.7 -1,5.6c-0.1,0.5 -0.3,0.7 -0.8,0.7c-0.7,0.1 -0.4,-0.4 -0.5,-0.9zM78.2,79.2c0.1,-0.5 0.1,-0.7 -0.1,-0.7c-0.2,0 -0.4,0 -0.5,0.2c0,0.1 0,0.3 -0.1,0.5c-0.2,1.5 -0.4,3 -0.6,4.6c0,0.3 -0.2,0.7 0,0.8c0.4,0.1 0.5,-0.4 0.5,-0.7c0.3,-1.6 0.6,-3.3 0.8,-4.7z" fill="#363636"></path><path d="M74.4,84.6c0.5,-1.6 0.3,-3.5 0.7,-5.2c0,-0.2 0.1,-0.4 0.2,-0.6c0.2,-0.4 0.6,-0.5 0.9,-0.4c0.5,0.1 0.2,0.5 0.1,0.7c-0.2,1.9 -0.4,3.8 -0.7,5.6c0,0.2 0,0.5 -0.2,0.6c-0.3,0.2 -0.6,0.4 -0.9,0.2c-0.2,-0.2 0,-0.5 -0.1,-0.9zM76,79.5c0,-0.1 0.1,-0.6 -0.2,-0.6c-0.5,-0.1 -0.4,0.4 -0.4,0.7c-0.2,1.7 -0.5,3.4 -0.7,5.1c0,0.2 -0.1,0.6 0.2,0.6c0.3,0 0.4,-0.3 0.5,-0.6c0.3,-1.8 0.4,-3.5 0.6,-5.2z" fill="#363636"></path><path d="M73.3,85.2c0,0.4 -0.3,0.4 -0.6,0.3c-0.3,0 -0.3,-0.3 -0.3,-0.6c0.3,-1.8 0.4,-3.7 0.9,-5.5c0.1,-0.5 0.5,-0.6 0.9,-0.5c0.6,0.1 0.2,0.5 0.2,0.7c-0.3,1.7 -0.3,3.4 -0.7,5c0,0.4 0,0.6 -0.4,0.6c0,-0.2 0,-0.5 0.1,-0.7c0.2,-1.5 0.4,-3.1 0.6,-4.7c0,-0.2 0.1,-0.5 -0.2,-0.5c-0.2,0 -0.2,0.2 -0.3,0.4c-0.2,1.6 -0.5,3.3 -0.7,4.9c0,0.5 0.2,0.6 0.5,0.6z" fill="#363636"></path><path d="M72.6,80.1c-0.3,1.8 -0.6,3.6 -0.9,5.5c-0.1,0.5 -0.6,0.7 -0.9,0.7c-0.6,-0.1 -0.1,-0.5 -0.1,-0.8c0.1,-1.7 0.4,-3.5 0.5,-5.2c0,-0.9 0.7,-0.8 1.2,-0.9c0.4,0 0.2,0.4 0.2,0.7zM72.3,80c0,0 0,-0.2 -0.1,-0.2c-0.1,0 -0.3,0 -0.4,0.1c-0.2,0.3 -0.3,0.7 -0.3,1c-0.1,1.5 -0.3,3 -0.5,4.5c0,0.2 -0.1,0.4 0.1,0.4c0.3,0 0.3,-0.2 0.4,-0.4c0.2,-1.7 0.5,-3.5 0.8,-5.4z" fill="#363636"></path><path d="M73.2,146.7c0,0.2 0,0.4 0,0.5c0,0.3 0.1,0.9 -0.4,0.8c-0.4,0 -0.9,-0.3 -0.9,-0.8c0.1,-1.3 -0.3,-2.5 -0.2,-3.7c0,-0.2 -0.1,-0.6 0.3,-0.7c0.4,0 0.7,0.1 0.8,0.6c0,1.2 0.5,2.3 0.4,3.3zM71.9,143.2c0.2,1.4 0.4,2.7 0.4,4c0,0.2 0.1,0.4 0.3,0.4c0.3,0 0.2,-0.3 0.2,-0.5c0.1,-1.1 -0.2,-2.2 -0.3,-3.3c-0.1,-0.3 -0.1,-0.6 -0.6,-0.6z" fill="#363636"></path><path d="M77.1,144.8c0.5,0.1 0.5,0.6 0.5,0.9c0,1.2 0.2,2.4 0.2,3.5c0,0.3 0.2,0.8 -0.2,0.8c-0.4,0 -1,-0.2 -1,-0.8c0,-0.6 0,-1.2 0,-1.8c0,-0.7 0,-1.4 -0.1,-2.1c-0.2,-0.5 0,-0.6 0.6,-0.5c-0.3,0 -0.4,0.2 -0.4,0.5c0,1.3 0.3,2.6 0.2,3.9c0,0.4 0.2,0.5 0.7,0.5c-0.1,-0.5 0,-1.1 -0.1,-1.6c-0.3,-1.1 0,-2.2 -0.4,-3.3z" fill="#363636"></path><path d="M75.5,149.3c-0.2,-0.1 -0.3,-0.2 -0.3,-0.5c0,-1.6 0,-3.1 0,-4.7c0.6,0.1 0.8,0.5 0.9,1.2c0.1,1.3 0.2,2.5 0.3,3.8c0,0.2 0,0.4 -0.2,0.5c-0.3,0.1 -0.5,-0.1 -0.7,-0.3c0.4,0 0.6,-0.1 0.5,-0.5c-0.2,-0.9 0,-1.8 -0.2,-2.8c-0.1,-0.5 0,-1.1 -0.5,-1.5c-0.1,1.7 0.3,3.2 0.2,4.8z" fill="#363636"></path><path d="M74.1,148.6c-0.4,0 -0.6,-0.3 -0.5,-0.7c0,-1.2 -0.1,-2.4 -0.2,-3.6c0,-0.2 -0.3,-0.7 0.3,-0.7c0.5,0 0.8,0.3 0.8,0.8c0,1 0.3,1.9 0.2,2.9c0,0.4 0,0.8 0.1,1.1c0.1,0.2 0,0.4 -0.1,0.5c-0.4,0 -0.5,-0.2 -0.6,-0.3c0.4,0 0.4,-0.3 0.3,-0.6c-0.3,-1.1 -0.1,-2.2 -0.2,-3.3c0,-0.3 0,-0.6 -0.6,-0.8c0.2,1.6 0.2,3.2 0.5,4.7z" fill="#363636"></path><path d="M78.2,147.6c0,-0.7 0,-1.3 0,-2c0,-0.2 -0.2,-0.6 0.3,-0.6c0.3,0 0.6,0.2 0.6,0.6c-0.2,1.5 0,3 0.2,4.6c0,0.2 0,0.5 -0.3,0.4c-0.4,0 -0.7,-0.2 -0.7,-0.7c-0.1,-0.7 -0.1,-1.5 -0.1,-2.3zM78.7,150.2c-0.1,-1.6 0,-3.2 -0.3,-4.7c0.2,1.6 0.1,3.2 0.3,4.7z" fill="#363636"></path><path d="M6.7,119.7c0.3,0.6 0.3,1.2 0.3,1.8c0,0.8 0.2,1.6 0.4,2.5c0,-1.2 0,-2.3 0,-3.5c0,-0.2 -0.1,-0.6 0.2,-0.6c0.3,0 0.5,0.2 0.5,0.6c-0.1,1.4 0.3,2.7 0.2,4.1c0,0.2 0.1,0.5 -0.2,0.6c-0.2,0 -0.4,-0.1 -0.5,-0.3l-0.1,-0.2c-1.3,-0.4 -1,-1.4 -1.1,-2.4c0,-1 -0.1,-2.1 -0.2,-3.1c0.2,0.1 0.4,0.2 0.5,0.5c-0.1,0 -0.4,-0.1 -0.3,0.2c0.2,0.6 0,1.2 0.1,1.8c0.2,0.8 0.1,1.6 0.3,2.5c0.2,-1.5 -0.1,-3 -0.1,-4.5zM7.8,121.7c-0.1,0 -0.2,0 -0.3,0c0.4,1 0,2.1 0.3,3.3c0,-1.3 0,-2.3 0,-3.3zM7.6,121.2c0.2,-0.3 0.2,-0.5 0,-0.7c0,0.2 0,0.3 0,0.7z" fill="#363636"></path><path d="M4.8,119.4c0.2,-0.3 -0.2,-0.9 0.3,-1c0.5,0 0.4,0.6 0.5,1c0.3,1.3 0.4,2.6 0.5,3.9c0,0.2 0.1,0.6 -0.3,0.6c-0.3,0 -0.4,-0.3 -0.4,-0.6c-0.2,-1.2 -0.4,-2.5 -0.6,-3.9zM5.6,123.6c0.1,0 0.2,0 0.3,0c-0.2,-1.5 -0.4,-3 -0.7,-4.6c-0.1,0 -0.2,0 -0.3,0c0.4,1.6 0.5,3.1 0.7,4.6z" fill="#363636"></path><path d="M10.1,126.2c-0.3,-0.4 -0.1,-0.8 -0.2,-1.3c0,-1.2 0,-2.3 0,-3.5c0,-0.2 -0.1,-0.5 0.3,-0.6c0.3,0 0.4,0.2 0.4,0.5c0,1.6 0,3.2 0,4.8c0,0.6 -0.4,0.4 -0.5,0.1c0.2,0 0.3,-0.1 0.3,-0.3c0,-1.5 0.1,-3 -0.1,-4.5c0,0 -0.1,0 -0.3,0c0.1,1.6 0.1,3.2 0.1,4.8z" fill="#363636"></path><path d="M9,120.5c0.2,0 0.4,0.2 0.4,0.4c0,1.4 0,2.8 0.2,4.2c0,0.2 0,0.5 -0.2,0.6c-0.2,0.1 -0.4,-0.1 -0.5,-0.3v0c0.5,-0.1 0.4,-0.5 0.4,-0.8c-0.1,-1.3 -0.1,-2.7 -0.3,-4.1z" fill="#363636"></path><path d="M8.8,125.5c-0.3,-0.3 -0.1,-0.7 -0.2,-1c0,-1.1 0.1,-2.2 -0.1,-3.4c0,-0.2 -0.4,-1 0.5,-0.6v0c-0.3,0.2 -0.2,0.6 -0.2,0.8c0,1.4 0,2.8 0,4.2z" fill="#363636"></path><path d="M63.2,184.6c-0.6,-1.4 -0.3,-2.9 -0.2,-4.4c0.2,1.4 0.5,2.9 0.2,4.4z" fill="#474747"></path><path d="M68.6,177.3c0,1.3 0.1,2.5 0,3.8c0,-1.3 0,-2.6 0,-3.8z" fill="#474747"></path><path d="M64.9,183.6c-0.4,0 -0.5,-0.1 -0.6,-0.5c0,-1.1 0.1,-2.1 -0.1,-3.2c0,-0.3 0,-0.6 0.3,-0.6c0.3,0 0.2,0.4 0.2,0.6c0.1,1.3 0.2,2.5 0.2,3.7z" fill="#474747"></path><path d="M67.1,177.7c0.4,0 0.4,0.3 0.4,0.6c0,1.1 -0.1,2.1 0.1,3.2c0,0.2 0,0.6 -0.3,0.6c-0.4,0 -0.2,-0.3 -0.2,-0.5c0,-1.3 0,-2.6 0,-3.9z" fill="#474747"></path><path d="M66.2,182.7c-0.2,0 -0.5,0 -0.5,-0.3c0,-1.3 -0.2,-2.7 0.1,-4c0.5,0.1 0.3,0.5 0.3,0.7c0.1,1.3 0.1,2.5 0.1,3.6z" fill="#474747"></path><path d="M79.8,78.1c0.5,0 0.7,0 0.6,0.7c-0.3,1.5 -0.5,3.1 -0.8,4.6c0,0.3 0,0.8 -0.5,0.7c-0.4,0 -0.2,-0.5 -0.1,-0.7c0.4,-1.8 0.5,-3.6 0.8,-5.3z" fill="#474747"></path><path d="M78.2,79.2c-0.2,1.4 -0.5,3.1 -0.8,4.7c0,0.3 -0.1,0.8 -0.5,0.7c-0.3,-0.1 -0.1,-0.5 0,-0.8c0.2,-1.5 0.4,-3 0.6,-4.6c0,-0.2 0,-0.4 0.1,-0.5c0.1,-0.2 0.3,-0.3 0.5,-0.2c0.3,0 0.3,0.2 0.1,0.7z" fill="#474747"></path><path d="M76,79.5c-0.2,1.8 -0.4,3.4 -0.5,5.1c0,0.3 -0.2,0.6 -0.5,0.6c-0.4,0 -0.2,-0.4 -0.2,-0.6c0.2,-1.7 0.4,-3.4 0.7,-5.1c0,-0.2 -0.1,-0.7 0.4,-0.7c0.3,0.1 0.1,0.5 0.1,0.7z" fill="#474747"></path><path d="M73.3,85.2c-0.4,0 -0.6,-0.1 -0.5,-0.5c0.2,-1.6 0.5,-3.3 0.7,-4.9c0,-0.2 0.1,-0.4 0.3,-0.4c0.3,0 0.3,0.3 0.2,0.5c-0.2,1.5 -0.4,3.1 -0.6,4.7c0,0.2 0,0.4 -0.1,0.6z" fill="#474747"></path><path d="M72.3,80c-0.2,1.9 -0.5,3.7 -0.8,5.5c0,0.2 -0.1,0.5 -0.4,0.4c-0.2,0 -0.1,-0.3 -0.1,-0.4c0.1,-1.5 0.3,-3 0.5,-4.5c0,-0.4 0.1,-0.7 0.3,-1c0.1,-0.1 0.3,-0.1 0.4,-0.1c0.1,-0.1 0.1,0.1 0.1,0.1z" fill="#474747"></path><path d="M71.9,143.2c0.5,0 0.5,0.3 0.6,0.6c0.1,1.1 0.4,2.2 0.3,3.3c0,0.2 0.1,0.5 -0.2,0.5c-0.2,0 -0.3,-0.2 -0.3,-0.4c0,-1.3 -0.2,-2.7 -0.4,-4z" fill="#474747"></path><path d="M77.1,144.8c0.4,1.1 0.1,2.2 0.3,3.4c0.1,0.5 0,1 0.1,1.6c-0.4,0 -0.7,-0.1 -0.7,-0.5c0.1,-1.3 -0.1,-2.6 -0.2,-3.9c0.1,-0.3 0.2,-0.6 0.5,-0.6z" fill="#474747"></path><path d="M75.5,149.3c0.1,-1.5 -0.3,-3.1 -0.1,-4.8c0.5,0.5 0.4,1.1 0.5,1.5c0.1,0.9 0,1.8 0.2,2.8c0,0.4 -0.3,0.5 -0.6,0.5z" fill="#474747"></path><path d="M74.1,148.6c-0.2,-1.5 -0.3,-3 -0.4,-4.7c0.5,0.2 0.5,0.5 0.6,0.8c0,1.1 -0.1,2.2 0.2,3.3c-0.1,0.2 -0.1,0.5 -0.4,0.6z" fill="#474747"></path><path d="M78.7,150.2c-0.2,-1.6 -0.1,-3.2 -0.3,-4.7c0.4,1.6 0.2,3.2 0.3,4.7z" fill="#474747"></path><path d="M6.7,119.7c0,1.4 0.3,2.9 0.1,4.4c-0.2,-0.8 -0.1,-1.6 -0.3,-2.5c-0.1,-0.6 0,-1.2 -0.1,-1.8c-0.2,-0.2 0.1,-0.1 0.3,-0.1z" fill="#474747"></path><path d="M7.8,121.7c0,1 0,2.1 0,3.3c-0.2,-1.2 0.1,-2.2 -0.3,-3.3c0.1,0 0.2,0 0.3,0z" fill="#474747"></path><path d="M7.6,121.2c0,-0.3 0,-0.5 0,-0.7c0.2,0.1 0.2,0.3 0,0.7z" fill="#474747"></path><path d="M5.6,123.6c-0.2,-1.5 -0.4,-3 -0.6,-4.6c0.1,0 0.2,0 0.3,0c0.2,1.5 0.4,3 0.7,4.6c-0.1,0 -0.2,0 -0.4,0z" fill="#474747"></path><path d="M10.1,126.2c0,-1.6 0,-3.3 0,-4.9c0.1,0 0.3,0 0.3,0c0.2,1.5 0,3 0.1,4.5c-0.1,0.3 -0.3,0.4 -0.4,0.4z" fill="#474747"></path><path d="M8.8,125.5c0,-1.4 0,-2.8 0,-4.2c0,-0.3 -0.1,-0.6 0.2,-0.8c0.2,1.4 0.2,2.8 0.2,4.2c0,0.3 0.1,0.7 -0.4,0.8z" fill="#474747"></path><g fill="#101010"><path d="M66.2,88.8c-1.6,1.7 -1.8,4.2 -0.5,6c0,0 0,0 0.2,-0.3c-0.1,-0.2 -0.2,-0.5 -0.3,-0.7c-0.7,-1.8 0.6,-4.7 2.4,-5.8c-0.1,-0.1 -0.3,-0.3 -0.4,-0.5c-0.6,0.4 -1,0.8 -1.4,1.3z"></path><path d="M44.7,144.5c-3,-0.2 -5.4,1.2 -7.6,3.1c-1.9,1.7 -3,3.8 -2.5,6.4c0.1,0.7 -0.1,1 -0.7,1.4c-3.2,2 -6.7,2.8 -10.3,3.5c-4.7,0.9 -9.2,0.3 -13.2,-2.3c-2.2,-1.4 -3.6,-3.3 -3.8,-6c-0.3,-4.4 0.7,-8.5 2.9,-12.4c0.5,-0.9 1.1,-1.8 1.5,-2.8c1.2,-2.8 0.8,-5.2 -2,-6.9c-1.2,-0.7 -2.7,-1.1 -4.1,-1.6c-1.1,-0.4 -2.2,-0.8 -2.7,-2c-0.7,-1.8 -0.8,-3.6 -0.1,-5.3c-0.2,-0.3 -0.3,-0.6 -0.5,-0.9c-1.1,1.3 -1,3 -0.9,4.6c0.1,1.9 0.9,3.4 2.7,4.2c0.8,0.4 1.7,0.7 2.7,1c1.6,0.5 2.9,1.2 4.1,2.3c0.8,0.8 1.4,1.8 0.9,3c-0.4,1 -0.8,2 -1.4,2.8c-2.6,3.8 -4.3,7.8 -4.5,12.5c-0.1,2.5 0.3,4.9 2.1,6.8c3.5,3.6 7.9,4.8 12.7,4.8c4.8,0 9.2,-1.4 13.3,-3.7c0.4,-0.2 0.9,-0.4 1.4,-0.6c0.2,1.9 0.5,3.5 0.5,5.2c0.1,3.2 -1.2,4.8 -4.2,5.3c-2.1,0.4 -4.2,0.3 -6.1,-0.6c-2.7,-1.3 -5.3,-2.7 -7.8,-4.2c-4.4,-2.6 -9,-2.6 -12.2,0.7c-5,5.1 -2,12 3,14c1,0.4 2.1,0.5 3.1,0.1c1.2,-0.4 1.8,-1.3 2,-2.4c0.2,-1 0,-1.9 -0.9,-2.5c-0.9,-0.7 -1.8,-1.4 -2.6,-2.3c-0.6,-0.6 -0.8,-1.4 -0.4,-2.2c0.4,-0.8 1.6,-1.2 2.5,-1c0.4,0 0.8,0.2 1.2,0.4c0.5,0.2 1.1,0.4 1.6,0.7c-0.7,-0.6 -1.5,-1 -2.3,-1.4c-1.5,-0.6 -2.9,-0.2 -3.6,1c-0.7,1 -0.4,2.4 0.7,3.5c0.7,0.7 1.4,1.2 2.1,1.9c0.7,0.7 0.8,1.4 0.4,2.3c-0.4,0.9 -1.1,1.2 -2.1,1.1c-0.4,0 -0.9,-0.1 -1.3,-0.3c-2.5,-0.9 -4.6,-4 -4.7,-6.7c-0.1,-2.7 1.9,-5.9 4.4,-7c2.4,-1.1 4.8,-0.7 6.9,0.5c2.5,1.4 4.8,3 7.4,4.3c3.1,1.7 6.4,2.3 9.8,1.4c3.2,-0.8 4.9,-2.8 4.8,-6.1c-0.1,-2.7 -0.6,-5.4 -1.1,-8c-0.6,-3 0.4,-5.3 2.6,-7.1c1.9,-1.5 4,-2.6 6.6,-2.4c0,-0.1 -0.2,-0.1 -0.3,-0.1z"></path><path d="M71.8,106.2c-2.9,-4 -6.7,-6.9 -11.1,-8.9c-1.7,-0.7 -2.3,-1.9 -2.4,-3.5c-0.4,-4.3 1.7,-7.1 5.5,-8.3c0.2,0 0.4,-0.1 0.6,-0.1c-0.5,-0.2 -1,-0.5 -1.5,-0.7c-2.4,0.6 -4.3,1.6 -5.3,3.9c-1,2.4 -0.7,4.8 0.3,6.9c-2.5,-0.4 -5,-1.1 -7.6,-1.3c-6,-0.4 -11.8,0.7 -17,4c-2.8,1.8 -4.9,4.1 -6.6,6.9c-1.8,3.1 -2.9,6.5 -3.2,10.2c-0.2,3.5 0.3,6.8 1.8,10c1.3,2.8 3.4,4.9 5.2,7.2c1.7,2.1 3.3,4.2 4.8,6.4c1.6,2.6 1.2,5.6 -1.1,7.6c-1.6,1.4 -3.2,2.7 -5,3.6c-3.8,2.1 -7.8,2.4 -11.9,1.2c-2.8,-0.8 -4.8,-3.1 -4.9,-5.7c-0.1,-1.8 0.1,-3.6 0.9,-5.3c0.8,-1.8 1.8,-3.5 2.7,-5.3c0.9,-1.7 1.7,-3.4 1.2,-5.4c-0.2,-0.8 -0.6,-1.5 -0.8,-2.3c-0.1,0 -0.2,0.1 -0.3,0.1c0.3,0.9 0.6,1.7 0.8,2.6c0.4,2.1 -0.7,3.8 -1.7,5.4c-1.4,2.2 -2.7,4.5 -3.4,7c-0.8,2.9 -0.7,5.7 1.5,8.1c1.6,1.7 3.7,2.6 6,2.9c6,0.8 11.2,-0.9 15.4,-5.3c1.2,-1.3 2.1,-2.8 2.3,-4.6c0.2,-2.4 -0.4,-4.6 -1.8,-6.6c-1.9,-2.6 -3.8,-5 -5.7,-7.5c-3.2,-4.3 -4.9,-9.1 -4.2,-14.5c1,-7.2 4.4,-12.8 10.9,-16.2c6.3,-3.3 13,-3.5 19.8,-1.7c3.9,1 7.3,2.9 10.4,5.4c3.1,2.6 5.7,5.5 6.7,9.6c0.5,2.2 0.8,4.4 0.5,6.7c-0.5,4 -2.2,7.6 -4.8,10.7c-2.1,2.7 -4.8,4.7 -7.5,6.7c-2.6,2.1 -4.6,4.6 -5.9,7.6c-0.3,0.6 -0.4,1.3 -0.6,1.9c0.7,-1 1.3,-2 2,-2.9c2.4,-3.3 5.9,-5.3 9,-7.8c4.8,-3.9 8.4,-8.7 9.4,-15c0.6,-4.9 -0.3,-9.5 -3.4,-13.7z"></path><path d="M49.6,170.8c-2.8,-2 -4.8,-4.8 -5.9,-8c-1.6,-4.6 -1.6,-9.2 1.4,-13.5c-0.1,0 -0.3,0 -0.4,0.1c-3.7,1.5 -5.4,4.7 -4.6,8.5c0.6,2.8 1.3,5.5 1.8,8.2c0.4,1.9 0.5,3.8 -0.6,5.5c-1.7,2.9 -4.4,4.2 -7.6,4.6c-2.8,0.3 -5.5,-0.6 -8.1,-1.5c-3.1,-1.1 -5.7,-3 -8.3,-5c-0.4,-0.3 -0.9,-0.7 -1.3,-1c0.7,0.8 1.4,1.5 2.2,2.2c2.6,2.3 5.4,4.4 8.8,5.7c4,1.5 7.9,1.6 11.7,-0.5c3,-1.6 5,-4.1 5,-7.7c0,-0.7 0,-1.3 0,-1.8c1.8,1.5 3.6,3 5.4,4.5c0.4,0 0.4,-0.2 0.5,-0.3zM42.2,153.7c-0.5,1.3 -0.7,2.6 -1,3.9c-1.1,-3 0.3,-6.2 2.9,-7.6c-0.7,1.3 -1.4,2.4 -1.9,3.7z"></path><path d="M92.5,149.8c-0.1,0.7 -0.3,2.8 -0.6,3.5c-0.8,2.2 -2.1,4 -4.1,5.3c-4,2.7 -8.4,4 -13.1,4.8c-0.2,0 -0.4,0 -0.7,0c0,-1.7 0,-3.3 0,-5c0.8,0 1.7,-0.1 2.7,-0.1c2.8,-0.2 5.5,-1 7.7,-2.8c1.4,-1.1 1.7,-2.9 2.3,-4.4c-0.6,0 -0.5,0.5 -1,0.6c-1,1.9 -2.6,3.4 -4.6,4.3c-2,0.9 -4.1,1.1 -6.2,1.3c-1.1,0.1 -2,0 -2.3,-1.3c-0.1,-0.2 -0.3,-0.5 -0.4,-0.7c-2.5,-3.7 -6.1,-5.7 -10.3,-6.7c-0.5,-0.1 -1,-0.1 -1.7,-0.2c0.3,-0.2 0.5,-0.4 0.7,-0.6c2.1,-1.8 4.3,-3.6 6.3,-5.5c2.5,-2.3 4.8,-4.8 7.1,-7.3c2.2,-2.3 4,-4.9 5.2,-7.9c2.7,-6.8 1.7,-13.2 -2.2,-19.2c-1.8,-2.7 -4,-5 -6.3,-7.2c-2,-1.8 -3.7,-3.9 -5.5,-5.8v0c0.1,0.2 0.2,0.4 0.3,0.6c1.6,2.1 3.2,4.2 4.8,6.2c2.1,2.4 4.2,4.8 5.8,7.6c2.7,4.5 3.6,9.2 2.5,14.4c-0.9,4.2 -3,7.9 -5.8,11.1c-3.7,4.1 -7.8,8.1 -11.7,12.2c-1.2,1.3 -2.7,1.8 -4.3,2.1c-0.2,-0.2 -0.4,-0.4 -0.7,-0.7c0.3,0.9 0.3,0.9 -0.4,1.5c-2.2,2.1 -1.9,4.8 0.7,6.2c1.5,0.8 2.9,0.2 3.5,-1.4c0,-0.2 0.1,-0.3 0.2,-0.6c1.4,1.2 2.9,2.1 4.7,2.5c0.3,0.1 0.6,0.2 0.7,0.5c0.8,1.6 0.8,3.3 0,5c-0.1,0.2 -0.5,0.5 -0.8,0.5c-1.2,-0.1 -2.4,-0.1 -3.6,-0.3c-6.4,-0.9 -10.2,-5.1 -10.3,-11.5c0,-0.2 -0.1,-0.5 -0.1,-1c-0.3,1.1 -0.5,2 -0.7,2.8c0.5,-0.3 0.4,0.1 0.5,0.4c0.3,1.4 0.4,2.7 0.8,4c1,3.4 3.6,5.2 6.8,6.2c1.9,0.6 3.9,0.9 6,1.3c-0.5,0.4 -0.9,0.8 -1.5,1.2c-2.5,1.4 -5.1,2 -7.9,0.9c-4.5,-1.7 -6.9,-6.8 -5.5,-11.4c0.3,-0.9 0.6,-1.7 0.8,-2.6c-1.7,2.5 -2.2,5.3 -1.4,8.3c0.9,3.9 3.4,6.5 7.3,7.6c3.4,0.9 8.3,-1.1 10.4,-4c1.4,-2 1.8,-4.1 0.9,-6.4c-1.1,-2.7 -3.1,-4.3 -5.7,-5.4c-0.8,-0.3 -1.7,-0.5 -2.5,-0.7c0,0 0,0.1 -0.1,0.2c0.1,0.2 0.3,0.4 0.5,0.6c0.5,0.8 0.4,1.6 0,2.4c-0.4,0.7 -1,0.9 -1.7,0.8c-2,-0.2 -3.1,-2.3 -2.2,-4.1c0.8,-1.7 2.3,-2.3 4.1,-2.3c2.7,0 5.1,1 7.4,2.4c6,3.6 7.1,10.3 4.5,15.4c-1.4,2.7 -3.8,4.2 -6.5,5.3c0.1,0.1 0.2,0.2 0.3,0.3c4.2,-1.6 6.7,-4.5 8.2,-8.6c0.1,0 0.2,0 0.4,0c4.8,0 9.4,-1.1 13.6,-3.5c2,-1.1 3.6,-2.6 4.7,-4.5c0.8,-1.5 1.1,-3.3 1.3,-4.9c-0.5,-0.6 -0.8,-1.7 -1.3,-1.7zM59.6,152.2c0,-0.1 0.1,-0.2 0.2,-0.3c2.1,0.4 3.9,1.5 5.3,3.2c-0.1,0.1 -0.1,0.2 -0.2,0.4c-1.8,-1.2 -3.6,-2.2 -5.3,-3.3z"></path><path d="M39.5,129.2c1.2,-1.1 3.1,-1.4 4.6,-0.6c1.7,0.8 2.7,2.6 2.5,4.4c-0.2,1.9 -1.2,3.2 -2.9,3.9c-1.7,0.7 -3.5,0.7 -5.1,-0.5c-1.4,-1 -1.5,-2.4 -1.4,-4c0.3,-1.4 0.8,-2.7 2.3,-3.2c-0.5,0.7 -1.2,1.4 -1.5,2.3c-0.7,1.9 0,3.9 1.4,4.7c2.2,1.2 5.1,0.3 6.2,-2c0.9,-1.9 0.2,-4.2 -1.5,-5c-0.2,0.9 -0.7,1.4 -1.5,1.2c-0.8,-0.2 -1.2,-0.8 -0.9,-1.9c-0.9,0.2 -1.6,0.4 -2.2,0.7z"></path><path d="M48.8,130.7c1.6,-1.5 4.1,-1.6 5.9,-0.2c1.8,1.5 2.1,4.1 0.8,6c-1.6,2.2 -4.9,2.8 -7.1,1.4c-2.5,-1.7 -1.7,-6.4 0.4,-7.2c-0.1,0.1 -0.2,0.3 -0.3,0.5c-1.2,1.4 -1.5,3.6 -0.6,5.2c0.7,1.3 2.3,1.9 4.2,1.5c1.7,-0.3 3,-1.6 3.4,-3.4c0.3,-1.7 -0.3,-3.1 -1.7,-4c-0.4,1 -1,1.4 -1.7,1.1c-0.3,-0.1 -0.7,-0.4 -0.8,-0.7c-0.1,-0.3 0,-0.7 0,-1.2c-1.1,0.5 -1.8,0.8 -2.5,1z"></path></g></g><g fill="#939393"><g><path d="M129,98.2v21.3v0.1v0.2c0,3.4 -1.2,6.3 -3.6,8.7c-2.4,2.4 -5.3,3.6 -8.7,3.6c-3.4,0 -6.3,-1.2 -8.7,-3.6c-2.4,-2.4 -3.6,-5.3 -3.6,-8.7c0,-3.4 1.2,-6.3 3.6,-8.7c2.4,-2.4 5.3,-3.6 8.7,-3.6c2.8,0 5.4,0.9 7.6,2.6v-12c0,-0.7 0.2,-1.3 0.7,-1.7c0.5,-0.5 1,-0.7 1.7,-0.7c0.6,0 1.2,0.2 1.6,0.7c0.5,0.6 0.7,1.2 0.7,1.8zM111.6,125c1.4,1.4 3.1,2.1 5.2,2.1c2,0 3.7,-0.7 5.1,-2.1c1.4,-1.4 2.1,-3.1 2.1,-5.2c0,-2 -0.7,-3.7 -2.1,-5.1c-1.4,-1.4 -3.1,-2.1 -5.1,-2.1c-2,0 -3.7,0.7 -5.2,2.1c-1.4,1.4 -2.1,3.1 -2.1,5.1c0,2.1 0.7,3.8 2.1,5.2z"></path><path d="M144.7,132.2c-3.4,0 -6.3,-1.2 -8.7,-3.6c-2.4,-2.4 -3.6,-5.3 -3.6,-8.7c0,-3.4 1.2,-6.3 3.6,-8.7c2.4,-2.4 5.3,-3.6 8.7,-3.6c3.4,0 6.3,1.2 8.7,3.6c2.4,2.4 3.6,5.3 3.6,8.6c0,3.4 -1.2,6.3 -3.6,8.7c-2.4,2.5 -5.3,3.7 -8.7,3.7zM139.5,125c1.4,1.4 3.1,2.1 5.2,2.1c2.1,0 3.7,-0.7 5.1,-2.1c1.4,-1.4 2.1,-3.1 2.1,-5.2c0,-2 -0.7,-3.7 -2.1,-5.1c-1.4,-1.4 -3.1,-2.1 -5.1,-2.1c-2,0 -3.7,0.7 -5.2,2.1c-1.4,1.4 -2.1,3.1 -2.1,5.1c0,2.1 0.7,3.8 2.1,5.2z"></path><path d="M172.1,132.2c-3.4,0 -6.3,-1.2 -8.7,-3.6c-2.4,-2.4 -3.6,-5.3 -3.6,-8.8c0,-3.4 1.2,-6.3 3.6,-8.7c2.4,-2.4 5.3,-3.6 8.7,-3.6c2.9,0 5.4,0.9 7.6,2.6c0.6,0.4 0.9,1 1,1.7c0.1,0.7 -0.1,1.3 -0.5,1.9c-0.4,0.6 -1,0.9 -1.7,1c-0.7,0.1 -1.3,-0.1 -1.8,-0.5c-1.4,-1 -2.9,-1.5 -4.6,-1.5c-2,0 -3.7,0.7 -5.2,2.1c-1.4,1.4 -2.1,3.1 -2.1,5.2c0,2 0.7,3.8 2.1,5.2c1.4,1.4 3.1,2.1 5.2,2.1c1.7,0 3.2,-0.5 4.6,-1.6c0.6,-0.4 1.2,-0.6 1.8,-0.5c0.7,0.1 1.2,0.4 1.7,1c0.4,0.6 0.6,1.2 0.5,1.9c-0.1,0.7 -0.4,1.3 -1,1.7c-2.2,1.5 -4.8,2.4 -7.6,2.4z"></path><path d="M204.3,127.8c0.4,0.5 0.7,1.1 0.6,1.8c0,0.7 -0.3,1.3 -0.8,1.8c-0.6,0.4 -1.1,0.7 -1.8,0.7c-0.8,0 -1.4,-0.3 -1.8,-0.8l-9,-9.7l-1.8,1.4v6.6c0,0.7 -0.3,1.2 -0.8,1.8c-0.5,0.5 -1.1,0.8 -1.8,0.8c-0.7,0 -1.2,-0.3 -1.8,-0.8c-0.6,-0.5 -0.8,-1.1 -0.8,-1.8v-31.3c0,-0.7 0.2,-1.3 0.8,-1.8c0.5,-0.5 1.1,-0.8 1.8,-0.8c0.7,0 1.3,0.3 1.8,0.8c0.5,0.5 0.8,1.1 0.8,1.8v18.3l10.9,-8.4c0.6,-0.4 1.2,-0.6 1.9,-0.5c0.7,0.1 1.3,0.4 1.7,1c0.4,0.6 0.6,1.2 0.5,1.9c-0.1,0.7 -0.4,1.3 -1,1.7l-8.1,6.2z"></path><path d="M228.1,121.4c-0.1,0 -0.2,0.1 -0.4,0.1l-16.4,0.1c0.3,1.6 1.1,2.9 2.3,3.9c1.2,1 2.7,1.6 4.5,1.8c2.9,0.3 5.5,-0.3 7.6,-1.9c1.6,-0.6 2.7,-0.3 3.2,0.9c0.5,1.3 0.1,2.3 -1.4,3.2c-2.4,2.1 -5.7,3 -10.1,2.6c-3.3,-0.3 -6,-1.7 -8.1,-4c-2.1,-2.3 -3.1,-5.1 -3.1,-8.3c0,-3.4 1.2,-6.3 3.6,-8.7c2.4,-2.4 5.3,-3.6 8.6,-3.6c3.3,0 6.1,1.1 8.4,3.4c2.3,2.2 3.4,5 3.4,8.2c0,0.6 -0.2,1.1 -0.6,1.6c-0.4,0.3 -0.9,0.6 -1.5,0.7zM218.4,112.1c-1.8,0 -3.3,0.5 -4.6,1.6c-1.3,1.1 -2.1,2.5 -2.5,4.3l13.8,-0.1c-0.2,-1.7 -1,-3.1 -2.2,-4.2c-1.2,-1.1 -2.7,-1.6 -4.5,-1.6z"></path><path d="M238.6,131.3c-0.5,0.5 -1.1,0.7 -1.8,0.7c-0.7,0 -1.3,-0.2 -1.8,-0.8c-0.5,-0.5 -0.8,-1.1 -0.8,-1.7v-11.4c0,-3 1.1,-5.5 3.2,-7.6c2.1,-2.1 4.7,-3.2 7.6,-3.2c2.3,0 4.4,0.7 6.3,2c1.9,1.3 3.2,3.1 3.9,5.3c0.2,0.7 0.2,1.3 -0.1,1.9c-0.3,0.6 -0.8,1.1 -1.4,1.3c-0.7,0.2 -1.3,0.2 -2,-0.2c-0.6,-0.3 -1.1,-0.8 -1.3,-1.4c-0.4,-1.2 -1.1,-2.1 -2.1,-2.8c-1,-0.7 -2.1,-1.1 -3.3,-1.1c-1.6,0 -2.9,0.6 -4.1,1.7c-1.1,1.1 -1.7,2.5 -1.7,4.1v11.4c0.2,0.7 -0.1,1.3 -0.6,1.8z"></path></g><g><path d="M120.9,162.9c-2.6,0 -4.8,-0.9 -6.6,-2.7c-1.8,-1.8 -2.7,-4 -2.7,-6.6c0,-2.6 0.9,-4.8 2.7,-6.6c1.8,-1.8 4,-2.7 6.6,-2.7c1.9,0 3.6,0.5 5.2,1.6c0.3,0.2 0.5,0.5 0.5,0.8c0.1,0.3 0,0.7 -0.2,1c-0.2,0.3 -0.5,0.5 -0.8,0.5c-0.3,0.1 -0.7,0 -1,-0.2c-1.1,-0.8 -2.4,-1.2 -3.8,-1.2c-1.9,0 -3.5,0.7 -4.8,2c-1.3,1.3 -2,2.9 -2,4.8c0,1.9 0.7,3.5 2,4.8c1.3,1.3 2.9,2 4.8,2c1.4,0 2.8,-0.4 4,-1.3c0.3,-0.2 0.6,-0.3 1,-0.2c0.3,0.1 0.6,0.2 0.8,0.5c0.2,0.3 0.3,0.6 0.2,1c-0.1,0.4 -0.2,0.6 -0.5,0.8c-1.5,1.1 -3.3,1.7 -5.4,1.7z"></path><path d="M134.6,162.8c-1.7,0 -3.2,-0.6 -4.4,-1.8c-1.2,-1.2 -1.8,-2.7 -1.8,-4.4c0,-1.7 0.6,-3.2 1.8,-4.4c1.2,-1.2 2.7,-1.8 4.4,-1.8c1.7,0 3.2,0.6 4.4,1.8c1.2,1.2 1.8,2.7 1.8,4.4c0,1.7 -0.6,3.2 -1.8,4.4c-1.2,1.2 -2.6,1.8 -4.4,1.8zM132,159.2c0.7,0.7 1.6,1.1 2.6,1.1c1,0 1.9,-0.4 2.6,-1.1c0.7,-0.7 1.1,-1.6 1.1,-2.6c0,-1 -0.4,-1.9 -1.1,-2.6c-0.7,-0.7 -1.6,-1.1 -2.6,-1.1c-1,0 -1.9,0.4 -2.6,1.1c-0.7,0.7 -1.1,1.6 -1.1,2.6c0.1,1 0.4,1.9 1.1,2.6z"></path><path d="M155.6,150.3c1.4,0 2.6,0.5 3.6,1.5c1,1 1.5,2.2 1.5,3.6v6c0,0.3 -0.1,0.6 -0.4,0.9c-0.3,0.3 -0.6,0.4 -0.9,0.4c-0.4,0 -0.7,-0.1 -0.9,-0.4c-0.3,-0.3 -0.4,-0.6 -0.4,-0.9v-6c0,-0.7 -0.2,-1.3 -0.7,-1.8c-0.5,-0.5 -1.1,-0.7 -1.8,-0.7c-0.7,0 -1.3,0.2 -1.8,0.7c-0.5,0.5 -0.7,1.1 -0.7,1.8v6c0,0.3 -0.1,0.6 -0.4,0.9c-0.3,0.3 -0.6,0.4 -0.9,0.4c-0.4,0 -0.7,-0.1 -0.9,-0.4c-0.2,-0.3 -0.4,-0.6 -0.4,-0.9v-6c0,-0.7 -0.2,-1.3 -0.7,-1.8c-0.5,-0.5 -1.1,-0.7 -1.8,-0.7c-0.7,0 -1.3,0.2 -1.8,0.7c-0.5,0.5 -0.7,1.1 -0.7,1.8v6c0,0.3 -0.1,0.6 -0.4,0.9c-0.3,0.3 -0.6,0.4 -0.9,0.4c-0.3,0 -0.6,-0.1 -0.9,-0.4c-0.3,-0.3 -0.4,-0.6 -0.4,-0.9v-6c0,-1.4 0.5,-2.6 1.5,-3.6c1,-1 2.2,-1.5 3.6,-1.5c1.5,0 2.8,0.6 3.8,1.7c1.1,-1.1 2.3,-1.7 3.8,-1.7z"></path><path d="M164.7,152.1c1.2,-1.2 2.7,-1.8 4.4,-1.8c1.7,0 3.2,0.6 4.4,1.8c1.2,1.2 1.8,2.7 1.8,4.4c0,1.7 -0.6,3.2 -1.8,4.4c-1.2,1.2 -2.7,1.8 -4.4,1.8c-1.4,0 -2.7,-0.4 -3.9,-1.3v5.3c0,0.3 -0.1,0.6 -0.3,0.9c-0.2,0.2 -0.5,0.4 -0.8,0.4c-0.3,0 -0.6,-0.1 -0.8,-0.4c-0.2,-0.2 -0.4,-0.5 -0.4,-0.9v-10v-0.1v-0.1c0,-1.7 0.6,-3.1 1.8,-4.4zM166.5,159.1c0.7,0.7 1.6,1.1 2.6,1.1c1,0 1.9,-0.4 2.6,-1.1c0.7,-0.7 1.1,-1.6 1.1,-2.6c0,-1 -0.4,-1.9 -1.1,-2.6c-0.7,-0.7 -1.6,-1.1 -2.6,-1.1c-1,0 -1.9,0.4 -2.6,1.1c-0.7,0.7 -1.1,1.6 -1.1,2.6c0,1 0.4,1.9 1.1,2.6z"></path><path d="M182.5,162.8c-1.7,0 -3.2,-0.6 -4.4,-1.8c-1.2,-1.2 -1.8,-2.7 -1.8,-4.4c0,-1.7 0.6,-3.2 1.8,-4.4c1.2,-1.2 2.7,-1.8 4.4,-1.8c1.7,0 3.2,0.6 4.4,1.8c1.2,1.2 1.8,2.7 1.8,4.4c0,1.7 -0.6,3.2 -1.8,4.4c-1.2,1.2 -2.7,1.8 -4.4,1.8zM179.9,159.2c0.7,0.7 1.6,1.1 2.6,1.1c1,0 1.9,-0.4 2.6,-1.1c0.7,-0.7 1.1,-1.6 1.1,-2.6c0,-1 -0.4,-1.9 -1.1,-2.6c-0.7,-0.7 -1.6,-1.1 -2.6,-1.1c-1,0 -1.9,0.4 -2.6,1.1c-0.7,0.7 -1.1,1.6 -1.1,2.6c0,1 0.4,1.9 1.1,2.6z"></path><path d="M194.9,162.8c-1.4,0 -2.8,-0.4 -4.4,-1.2c-0.3,-0.1 -0.5,-0.3 -0.7,-0.7c-0.2,-0.4 -0.1,-0.6 0,-1c0.1,-0.3 0.3,-0.6 0.7,-0.7c0.3,-0.1 0.6,-0.1 1,0c0.5,0.3 1,0.5 1.5,0.7c0.5,0.2 1,0.3 1.5,0.3c0.4,0 0.9,0 1.2,-0.1c0.4,-0.1 0.7,-0.2 0.9,-0.4c0.2,-0.2 0.3,-0.4 0.3,-0.7c0,-0.3 -0.2,-0.6 -0.6,-0.9c-0.4,-0.3 -0.9,-0.5 -1.6,-0.6c-1.7,-0.4 -2.9,-1 -3.6,-1.8c-0.7,-0.7 -0.9,-1.5 -0.9,-2.3c0.1,-0.9 0.6,-1.7 1.5,-2.3c0.9,-0.6 2,-0.9 3.2,-0.9c1.2,0 2.4,0.3 3.5,1c0.3,0.1 0.5,0.4 0.7,0.7c0.1,0.3 0.1,0.6 0,0.9c-0.1,0.3 -0.4,0.5 -0.7,0.7c-0.3,0.2 -0.6,0.1 -1,0c-0.7,-0.4 -1.4,-0.7 -2.1,-0.7c-0.7,-0.1 -1.3,0 -1.7,0.2c-0.4,0.2 -0.7,0.4 -0.7,0.8c0,0.1 0,0.3 0.1,0.5c0.1,0.2 0.3,0.4 0.7,0.6c0.4,0.2 0.8,0.4 1.4,0.5c3,0.8 4.5,2 4.5,3.8c0,1 -0.4,1.8 -1.2,2.5c-0.8,0.7 -2,1.1 -3.5,1.1z"></path><path d="M212.6,157.4c0,0 -0.1,0 -0.2,0h-8.3c0.2,0.8 0.6,1.5 1.2,2c0.6,0.5 1.4,0.8 2.2,0.9c1.5,0.2 2.8,-0.1 3.8,-1c0.8,-0.3 1.4,-0.1 1.6,0.4c0.3,0.6 0,1.2 -0.7,1.6c-1.2,1.1 -2.9,1.5 -5.1,1.3c-1.7,-0.2 -3,-0.8 -4.1,-2c-1.1,-1.2 -1.6,-2.6 -1.6,-4.2c0,-1.7 0.6,-3.2 1.8,-4.4c1.2,-1.2 2.7,-1.8 4.4,-1.8c1.7,0 3.1,0.6 4.2,1.7c1.2,1.1 1.7,2.5 1.7,4.2c0,0.3 -0.1,0.6 -0.3,0.8c0,0.3 -0.3,0.4 -0.6,0.5zM207.7,152.7c-0.9,0 -1.7,0.3 -2.3,0.8c-0.7,0.5 -1.1,1.3 -1.3,2.2h7c-0.1,-0.9 -0.5,-1.6 -1.1,-2.1c-0.6,-0.7 -1.4,-0.9 -2.3,-0.9z"></path></g></g></g></g></g></g></svg>