<?xml version="1.0" encoding="utf-8"?>
<!-- Generator: Adobe Illustrator 24.0.1, SVG Export Plug-In . SVG Version: 6.00 Build 0)  -->
<svg version="1.1" id="Layer_1" xmlns="http://www.w3.org/2000/svg" xmlns:xlink="http://www.w3.org/1999/xlink" x="0px" y="0px"
	 viewBox="0 0 256 256" style="enable-background:new 0 0 256 256;" xml:space="preserve">
<style type="text/css">
	.st0{fill:#5D5D5D;}
</style>
<path class="st0" d="M113.4,68.3c3-5.3-12.3-7.1-2-1.9C112.4,66.8,112.2,68.7,113.4,68.3z M29.9,23.4c-6.5-8.5,12.2,1.4,5.6-7.5
	C30,11.5,24.7,20.9,29.9,23.4z M43.6,34.1c9.2-1.2-2.3-4-1.9-0.1L43.6,34.1z M36.3,32.3C38.2,29.6,32.8,33.7,36.3,32.3z M51,48.5
	c5.7,0.1-2.5-7.7,4.4-4.2c-1.1-3.7-8-4.3-11.3-5.8C42.2,41.9,47.9,48.5,51,48.5L51,48.5z M33.1,47.8C38,44.1,50,50,42.3,44.1
	C41.6,43.4,25.4,48.5,33.1,47.8L33.1,47.8z M28.1,57.4c8.6-2.9,20.3-6.2,24.4,1.4c-4.1-5-1.7-9.9,2.2-2.6c5.5,7.3,8.3-3.3,4.7-5.8
	c4.1,5.1,8.7,7.5,2.7,0.3c6.5-7.8-13,1-17.5,0.9C42.5,52.6,22.6,56.8,28.1,57.4L28.1,57.4z M44.1,84.2
	C46.2,81.6,41.2,83.5,44.1,84.2z M39.1,97.6C38.6,94.5,37.6,99.3,39.1,97.6z M34.8,95.5c4.8-0.3,7.5-5.3-0.9-5
	c-13.1-1.4,11.6,4.5-1.7,2.8C30.4,94.5,34.7,95.8,34.8,95.5L34.8,95.5z M239.9,225.6c5.9,0,18-1.8,5.1-1.8
	C242.9,224.1,233.1,224,239.9,225.6L239.9,225.6z M211.3,208.9C212,204.6,208.4,209.3,211.3,208.9z M233.7,224.2
	C233.9,220.4,230.5,225.9,233.7,224.2z M13.8,86.7C18.1,83.4,8.8,85.4,13.8,86.7z M30,98.2C32.6,95.4,24.3,97,30,98.2z M24.5,96.6
	C31.9,92.1,16.6,92.7,24.5,96.6z M79.6,61.9c2.5-6.5,9.7-2.6,1.2-1.3C80.9,61.3,80.5,64,79.6,61.9z M72.6,62
	C72.1,49,84.7,66.6,72.6,62z M48.7,65.7c3.9-4.7,22.3-3,8.9-0.5C53.9,62.5,51.2,66.8,48.7,65.7z M47,66.8C49.4,64,47.7,69.2,47,66.8
	z M40.5,69.4c0.3-4.4,10.9,2.3,1.7,1.6L40.5,69.4z M35.8,69.3C39.5,66.5,37.8,70.9,35.8,69.3z M35.3,73.9c2.6-9.5,13.9,7.8,4.2,1.3
	c-1-0.8-2.3-1.3-3.8-1.3C35.6,73.9,35.4,73.9,35.3,73.9L35.3,73.9L35.3,73.9z M8.7,87.6c-1-5.7-0.9-15.7,8.6-12.3
	c-12.7,2.5,8.8,15.8,6.1,5.3c5.3,0.3,10.5-3.2,7.6,2c10.5-1.2,17.8-10.3,28-9c9.2-0.8,17.8-2.6,25.9-5.2l-0.8,0.2
	c7-0.5,13.8-8.1,9.9-12.5c-1.9-0.1-4-0.2-6.2-0.2c-8.5,0-16.7,1-24.6,2.8l0.7-0.1c-11.7,2.4-22.3,7.1-34.2,9.1
	c-11.5,1.5,2.3,4.3-1,4.9c-6,2.1,7.2,3.5-0.8,5.7c-4.9-0.9-10-2.6-7.9-7.8c-11,1.4-20.7,6-12,17.2L8.7,87.6L8.7,87.6z M27.2,100
	C27.8,95.9,22.8,100.8,27.2,100z M221.2,225.3C222.6,221.2,217.7,225.9,221.2,225.3z M200.2,214.4
	C203.7,211.2,195.7,213.4,200.2,214.4z M25.9,106.8c5.5-2.2-10-4.5-1.1-0.4L25.9,106.8z M12.8,99C12.5,95.6,10.8,99.4,12.8,99z
	 M10.5,100.8C10.3,97.9,9,101.9,10.5,100.8z M26.3,111.1C25.6,104.8,17.4,110.1,26.3,111.1z M57,133.8C58.3,132.6,54,132.9,57,133.8
	z M29.3,116C28,114.9,28.3,117.2,29.3,116z M24.9,113.8C25,111.1,17.8,111.4,24.9,113.8z M17.1,111.8
	C15.7,103.6,11.5,110.6,17.1,111.8z M49.5,134.3C49.6,130,46.1,134.2,49.5,134.3z M196,225.6c5.5-1.1,17.9,2.8,19.9-1.5
	c-6.6-0.2-22.9-4.7-23.7,1.1l1.5,0.2L196,225.6z M45.6,133.3C45.5,131.9,44.3,133.9,45.6,133.3z M33.3,127.4
	C37.5,125.9,29.4,126.4,33.3,127.4z M131.8,193.9C131.7,189.6,127.6,195,131.8,193.9z M35.9,133.4C42.5,130.9,28.8,131.6,35.9,133.4
	z M164.1,215.8C166.4,214.1,161.3,215.6,164.1,215.8z M140,200.7C139.6,199,138.4,201,140,200.7z M137.1,198.6
	C136,195.6,132.6,198.5,137.1,198.6z M76.6,160.4C76.6,156,68.7,158.6,76.6,160.4z M69.5,158.8C66.6,156.3,69.3,158.4,69.5,158.8z
	 M23.4,130.2c1-4.1-9.1-22.5-4.8-9.2C20.2,123.8,20,129.1,23.4,130.2z M48.5,150.1c5.5,1.2,22,13.6,12.3,0.9c-5-1.5-2-13.7-7.1-11.5
	c3.4,5.7,2.8,8.1-4.4,4.5c-9-4.4-5.1,2.2-3.3,4C43.6,148.5,49.2,150,48.5,150.1L48.5,150.1z M186.7,239.1
	C190.8,236.4,181.7,238.2,186.7,239.1z M172,229.2C178.1,224.1,165.5,231.5,172,229.2z M174.8,230.6c7.5-5.4-4.6-1-1.6,1
	L174.8,230.6z M90.6,180.7C89,177.5,88.2,181.2,90.6,180.7z M85.7,177.8C85.5,175.3,82.6,178,85.7,177.8z M165.4,228
	c5.9-3.8-1.3-3.2-1.1,0.3L165.4,228z M44.7,151.9C46.4,149.4,40.2,151.6,44.7,151.9z M167.3,230.5
	C173.4,225.3,163.5,229.4,167.3,230.5z M158.1,226.9C170.2,219.1,153.1,223.5,158.1,226.9z M29.7,146.5c-5.6-8-3.5-11.6-8.9-18.1
	c-1-5-9.3-16.3-4.3-4.3C21.1,131.1,22.5,141.9,29.7,146.5L29.7,146.5z M160.2,229.1C166.7,222.1,153.8,229.5,160.2,229.1z
	 M160.2,231.3C160.2,229.8,157.6,232,160.2,231.3z M147.7,222.9C153.7,217.9,141.9,225.1,147.7,222.9z M93.4,189.3
	c3.9,3.4,17.7,2.5,4.7,0.4C96.1,186.8,85.8,187.5,93.4,189.3z M53.7,165.4C51.1,161.2,44.5,161.6,53.7,165.4z M46.8,160.9
	C45.7,156.6,39.3,156.6,46.8,160.9z M150.2,225.8c3.5-3.4,0.1,5.4,5.8-0.8c0.1-4.4-0.2-7-6.5-1.7C147.8,224.2,147,228.3,150.2,225.8
	z M143.7,223C143.9,220.1,141.6,225.6,143.7,223z M80.3,184.7C95.4,189.5,72.9,178.7,80.3,184.7z M67.9,177.6
	c3.6,2.7,13.6,7.7,5.2,1c2.9-3.3-5.5-5.1-2.7-7.3c-7-4.3-5.5-3.9-0.6-3.8c-8.5-3.8,1.2-3.5,0.7-5.4c-3.3-0.6-16.2-5.8-8.6,0.4
	c-7.7-3.9-1.8,1.5-4.2,0.9c-7.9-2.1,7,6-1.3,4c4.5,3.6,12.2,9.2,1.9,3.8C57,173.1,65.7,176.1,67.9,177.6L67.9,177.6z M91.3,193.1
	c6.6,1.7,6.5-1,0.6-1.8c-3.2-3-13.3-6.1-4.3-0.4C88.3,192.4,90.2,192.4,91.3,193.1L91.3,193.1z M79.5,187.1
	C78.1,185.9,79.7,187.8,79.5,187.1z M85.2,73.8C86.2,72.5,85.5,75.2,85.2,73.8z M81.8,94.4c-2.3-4.1,2.9-17.8,3.5-9.3
	c-2.4,6.7-0.7,10.4,1,1.5C89.4,79.4,85.6,100.4,81.8,94.4L81.8,94.4z M78.5,99.8C77.9,96.4,80.4,104.1,78.5,99.8z M80.5,105.2
	C77.2,97,83.6,109.6,80.5,105.2z M81.9,108.3C81.9,106.5,82.4,110.9,81.9,108.3z M57.7,94.9C59.9,90.3,61.7,100.1,57.7,94.9z
	 M49.1,89.8C50.5,89.2,49.9,91.6,49.1,89.8z M85.8,118.3C87,108.3,86.9,124.2,85.8,118.3z M52.9,99.1c1.8-2.6-4.8-11.9,0.9-3.3
	c2.5,2,7.2,3.3,3,4.1C63.4,105.6,55.3,101.5,52.9,99.1L52.9,99.1z M87.7,121.1c0.5-8.8,2.6-5.3,0,1.3V121.1z M49.6,102.2
	c4.4-0.9,18.3,7.8,5.5,2.5C53.8,103.1,50.7,103.8,49.6,102.2L49.6,102.2z M90.1,130.1C91.5,125.2,90.2,133.4,90.1,130.1z
	 M72.1,118.6C71.4,110,73.8,120,72.1,118.6z M48.5,106.1c-7.4-10.3,21.6,10.4,4.8,2.6C51.5,108.2,49.4,108.1,48.5,106.1z
	 M89.6,133.9C90.2,131.5,89.7,136.6,89.6,133.9z M91.7,136C92.2,130.5,92.8,139.7,91.7,136z M79.5,128.7c-5-3-1.3-21.1,0.4-8.7
	c4.9-1.6-0.3,6.4,3.4,6.3C82.6,131.4,81,133.2,79.5,128.7L79.5,128.7z M46.2,109.5c-11.6-10.3,14.6,5.4,1.9,1.9L46.2,109.5z
	 M53.6,116.6C50.1,110,57.9,119.3,53.6,116.6z M49.9,115.4C52.2,113.1,51.1,117.6,49.9,115.4z M43.8,115.5c-4-3.9-6.9-7.6,0.2-2.4
	c2.7,0.1-6-8.3,0.6-2.7C51.7,111.7,48.1,122,43.8,115.5L43.8,115.5z M55.4,124.5C57.7,119.6,59.3,131.2,55.4,124.5z M50.6,122.8
	C51,116.4,53,127.2,50.6,122.8z M61.3,130.2c-2.2-3.8-3.6-8.4-3.6-13.3l0,0l0,0c0.8,4,8.6,17.3,3.8,5.5c-5.3-9.9,6.3,3.2,7.5,5.7
	c0.5,2.4-3.3-0.7-0.7,5.1C63.6,126.6,65.6,136.8,61.3,130.2L61.3,130.2z M96,153.3c-3.8-8.4,2.7-4.6,0.8,1.4L96,153.3z M75.9,146.9
	C74.3,143.9,79.4,149.6,75.9,146.9z M99.3,163.2C100.7,157.7,101,167.7,99.3,163.2z M66.1,145.2C68.4,144.5,67.2,149.2,66.1,145.2z
	 M107.8,174C103.8,166.3,112.8,176.2,107.8,174z M111.2,178.6C111.1,173.6,112.3,182.4,111.2,178.6z M150.7,208.6
	C152.8,208.5,150.9,210.1,150.7,208.6z M116.2,186.7c-3.2-3.3-4-9.5-0.6-4.1C117.4,183.3,121.2,192.7,116.2,186.7z M126.8,216.6
	c8.2-4.9,5.5,11.5,14,1.4c8.3-6.1-7.2,7.5,3.1,1.1c7.4-5,18.4,2.3,25.3,4.7c5-0.2,9.8,4.3,15,1.5c9.8-2.7-19.3-3.9-11.6-8.6
	c-1.2,0.3-2.5,0.4-3.9,0.4c-6.9,0-12.9-3.7-16.1-9.2l-0.1-0.1c-11.1-1.8-20.5-7.8-26.8-16.3l-0.1-0.1c-2-3.4,3,0.5-1.8-5
	c-5.2-5.2-9.6-11.2-13-17.7l-0.2-0.4c-4.9-2.6-5.4-10.3-5.9-0.3c0-6.3-5.9-10.6-7.3-8.8c0-6.1,6.3-3,1.9-7.5c-1-6.3-4.1-12.9-5.1-20
	c-1.5-3.4-0.2-10.8-5-3c-1.8,8.2-0.6-10.1,2.1-4.1c3.6-6.2-1.3-5.4-1.5-4.6c2.3-5.2,1.5-12.6-0.6-9.8c1.2-5.5,2-20.3-1.9-17.7
	c2.3-5.8,4.4-26.4-5.7-18.5c-5.3,0.2-10.3,1.4-14.8,3.3L67,77c10.5,5.8-1.1,2.1-5.3,1.2c-0.6,5.3-4.8,3-10.1,3.1
	c8.5,1-4.1,8.6-9,5.7c-6.3,3,5.4,10.5,0.1,12.8c0.6,3.5-9.6-1.3-8.8,6.8c-6.1-2.6-0.8,9.6,2.2,5.5c10.4,2.8,7.3,9.2,7.6,15.3
	c-1.7,3.5-8.4-8.3-1.5-7.8c-5.4-8.8-6-3.2-10.5,0.9c-1.1,0.3,11.5,5.8,3.6,8.6c6.9,1.1,7.1,7.1,8.5,11c4.2,4.3,3.3-4.8,8.3,0.4
	c-3.2-4.6-16.7-13.1-5.8-10.4c-0.1-4.7-2-8.5,1.4-8.4c3.3-6-3.5,14.8,4,7.2c2.1-0.9,2.6-6,6.3,0.5c5.4,5.3,1.9,9.1-5.7,4.3
	c1.4,4.6,10.2,6.3,8.5,13.5c1.8,6.3,4.2,4,6.4,3.6c1.7,6.2,2.6,1.6,2.7-1.3c7.7,1.7,5.9,6.2,8.3,9.4c5.3,2.4-7.6-16.2,1.5-5.6
	c9.6,8.6,3.6,12.3-5,10.9c5.4-0.4,7.2,7.4,14,7.1c6.2,3,10.4,14.3-0.3,9.6c-3.7-3.3-16.8-7.5-6.1-1.1c10.9,4.5,19.9,8.9,28.6,13.7
	l-1.3-0.7c6.8,4.9,9.8,10.5,12.4,11.6c-5.7,2.7-17.3-2.2-8.7-3.7c-5.4-1-11.4-3.7-6.3,3c4.4,3.7,15.5,3.3,17.5,3.7
	c-1.7,3.7-4.6,4,0.1,4.3C119.4,214.6,126.3,215.1,126.8,216.6L126.8,216.6z M96.1,197.8c8.8,1.1-10.5-6-1.9-0.6L96.1,197.8z
	 M119.6,213.7C127.3,210.7,112.2,212.2,119.6,213.7z M74.4,185.6C79.3,185.1,66.4,182.3,74.4,185.6z M101.1,202.6
	C101.8,199.9,95.5,201.8,101.1,202.6z M140.2,227.9C140.1,225.8,138.3,228.7,140.2,227.9z M104.3,205.9
	C103.1,204.5,103.8,206.2,104.3,205.9z M46.6,169.3C45.8,166.1,39.4,163.6,46.6,169.3z M68.5,183.5
	C75.3,183.1,59.5,180.5,68.5,183.5z M87.2,196.8C86.5,194.8,83.6,196.7,87.2,196.8z M136.5,227.3
	C136.8,223.4,132.8,230.1,136.5,227.3z M67.5,184.8C67,182.7,64.6,185,67.5,184.8z M117.1,216.3
	C128.6,216.4,106.7,214.8,117.1,216.3z M96,204.2c12.2,3.4-10.2-7.7-3-1.3l1.6,0.7L96,204.2L96,204.2z M106.5,212.5
	C108.6,209,97.8,210.5,106.5,212.5z M71.9,191.4c5,3.8,20,0.5,7.6-2.3c-5.6-3-18.4-5.1-9.7,1.8L71.9,191.4z M99.5,210.3
	C104.1,208.6,92.1,208.6,99.5,210.3z M89.2,204C92.4,201.8,82.6,202.3,89.2,204z M77,196.9C76.5,195.1,70.3,194.9,77,196.9z
	 M118.8,229.4c4.2,2.7,24.7,5.9,11.9,1.1C128.5,231,106.9,224.4,118.8,229.4L118.8,229.4z M92.4,213C92.3,211.2,90.6,213.8,92.4,213
	z M87.2,210.4C92.4,207,80.5,210.3,87.2,210.4z M110.3,226.5C112.3,223.5,103.8,225.4,110.3,226.5z M98.3,219.8
	C101.6,216.6,93.1,217.8,98.3,219.8z M91.2,216.9C90.7,214,88.7,218.4,91.2,216.9z M85.6,214.8C87.9,213.8,82.3,213.5,85.6,214.8z
	 M43.4,177.5C43.7,176,45.2,180.9,43.4,177.5z M73.1,210.2c10.3,3.8,0-7.3-4.8-6.6c-2.1-3.6-8-5.9-3.8-7.9
	c-7.5,2.6-7.9-9.9-11.4-8.1c-7.9-2.5-3.1-11.4-12.5-16.8c-0.9-5.8-9.4-10.7-12.1-19.4c-1.2-4.4-9.6-17.2-4.5-5.3
	c5.5,11.8,11.8,22,18.9,31.4l-0.3-0.4c4.6,10.1,11.5,18.4,19.9,24.7l0.2,0.1C65.8,204.8,68.8,209.3,73.1,210.2L73.1,210.2z
	 M93.5,224.6c9.5,4.9,20.5,8.7,32,10.8l0.8,0.1c11.1,2.6,23.9,4,37,4c6.8,0,13.5-0.4,20.1-1.2l-0.8,0.1c-8.4-3.8-17.1,1.5-25.5-2.7
	c-3,0.3-6.4,0.5-10,0.5c-7.5,0-14.8-0.9-21.8-2.5l0.6,0.1c-13.9-5.1-25.5-10.3-36.6-16.2l1.5,0.7c-13.6-5,7,6.4,10.7,7.3
	c8.5,4.8-9.3-2.5-11.9-4.5c-7.1-4-8-3.2-0.7,0.9C90.5,222.9,92,223.8,93.5,224.6L93.5,224.6z M76.3,217.1
	c-10.5-7.2-19.5-15.6-27.1-25.1l-0.2-0.2c-14.3-17.5-25.9-38-33.9-60.3l-0.5-1.4c-4.6-14.5-6.2-30-12.4-44c-1.2-2.3-2-5-2-7.8
	c0-8.3,6.1-15.2,14-16.4h0.1c4.9-0.9,13.6-5.6,3.1-2.3c-9.4,6.9-10.3-6.2-0.7-7.1c4.2,0,7.5-3.4,7.5-7.6c0-1.3-0.3-2.4-0.8-3.5l0,0
	c-7-4.6,17.1-9.6,4.9-16.5C15.8,11.4,46,8.8,38.6,24.2c-1.8,11.9,21.1-2.1,15.8,11.6c5.4,6.6,20.3,1.5,19.9,10.8
	c7.9,0.5,10.6,7.2,18,7.7c7.7,3.5,21.6,6.2,24.2,14.8c-7.6,6-25.2-12.4-26,4.2c0.2,26.2,4.1,51.6,11.2,75.4l-0.5-1.9
	c5.7,14.2,13.8,26.3,23.9,36.4l0,0c9.2,10.3,20.3,18.6,32.7,24.6l0.6,0.3c9.9,4.7,21.4,8.4,33.4,10.5l0.8,0.1
	c4.8-3.7,13.2-17.2,20.7-11.5c0.3,6.4-14.8,13.5-0.7,12.8c8.3-2.5,14,6.4,20.8-1.6c6.3,7.4,26.1-4.8,21.6,10.5
	c-6,3.9-14.8,1.5-20.9,6.9c-10-5-17.9,4.5-28.9,3.3c-10.8,2-23.3,3.1-36.1,3.1c-0.4,0-0.8,0-1.1,0h0.1c-21.7-0.4-42.6-3.8-62.3-9.8
	l1.6,0.4c-11.9-4-22.2-9.3-31.6-15.9L76.3,217.1L76.3,217.1z"/>
</svg>
