<?xml version="1.0" encoding="utf-8"?>
<!-- Generator: Adobe Illustrator 24.0.1, SVG Export Plug-In . SVG Version: 6.00 Build 0)  -->
<svg version="1.1" id="Layer_1" xmlns="http://www.w3.org/2000/svg" xmlns:xlink="http://www.w3.org/1999/xlink" x="0px" y="0px"
	 viewBox="0 0 256 256" style="enable-background:new 0 0 256 256;" xml:space="preserve">
<style type="text/css">
	.st0{fill:#6F6F6F;}
	.st1{fill:#939393;}
	.st2{fill:#767676;}
	.st3{fill:#989898;}
</style>
<path id="path11_fill_1_" class="st0" d="M42,44.4c-1.9,0.1-3.8-0.4-5.4-1.5c-1.6-1-2.9-2.5-3.7-4.2s-1-3.6-0.7-5.5
	c0.3-1.9,1.2-3.6,2.5-5s3-2.3,4.8-2.8c1.8-0.4,3.8-0.3,5.6,0.3c1.8,0.7,3.3,1.8,4.5,3.3s1.7,3.3,1.8,5.2c0.1,2.6-0.9,5-2.6,6.9
	C47,43.2,44.6,44.3,42,44.4z"/>
<path id="path9_fill_1_" class="st1" d="M120.9,48.2c35.1,0,65.9,12.6,81.8,31.2c-6.2-16.7-17.4-31.2-31.9-41.3
	c-14.6-10.2-32-15.7-49.8-15.7s-35.2,5.5-49.8,15.7c-14.7,10.2-25.8,24.6-32,41.3C55.1,60.7,85.8,48.2,120.9,48.2z"/>
<path id="path8_fill" class="st1" d="M120.9,191.6c-35.1,0-65.9-12.6-81.8-31.2c6.2,16.7,17.4,31.2,31.9,41.3
	c14.6,10.2,32,15.7,49.8,15.7s35.2-5.5,49.8-15.7s25.8-24.6,31.9-41.3C186.8,179,156.2,191.6,120.9,191.6z"/>
<path id="path7_fill" class="st2" d="M223.9,12.9c0.2,2.7-0.4,5.2-1.8,7.4c-1.3,2.2-3.3,4.1-5.6,5.2c-2.4,1.1-5,1.5-7.6,1.2
	s-5-1.5-6.9-3.3c-2-1.8-3.3-4-3.9-6.6c-0.6-2.6-0.5-5.2,0.3-7.7s2.5-4.6,4.6-6.2s4.6-2.5,7.3-2.6c1.7-0.1,3.4,0.2,5,0.7
	c1.6,0.6,3.1,1.5,4.4,2.6c1.3,1.1,2.3,2.6,3.1,4.1C223.4,9.5,223.8,11.2,223.9,12.9L223.9,12.9z"/>
<path id="path10_fill_1_" class="st3" d="M72.7,237.9c0.2,3.3-0.6,6.6-2.2,9.4c-1.6,2.8-4.1,5.1-7.1,6.6s-6.3,2-9.6,1.5
	c-3.3-0.4-6.3-1.9-8.8-4.1c-2.5-2.2-4.2-5.1-5-8.3s-0.7-6.6,0.4-9.7s3.2-5.8,5.8-7.8s5.8-3.1,9.2-3.3c2.1-0.1,4.4,0.2,6.3,0.9
	c2.1,0.7,3.9,1.8,5.6,3.3c1.6,1.5,2.9,3.2,3.9,5.1C72.1,233.6,72.6,235.7,72.7,237.9L72.7,237.9z"/>
</svg>
