<?xml version="1.0" standalone="no"?>
<!DOCTYPE svg PUBLIC "-//W3C//DTD SVG 1.0//EN" "http://www.w3.org/TR/2001/REC-SVG-20010904/DTD/svg10.dtd">
<svg xmlns="http://www.w3.org/2000/svg" xmlns:xlink="http://www.w3.org/1999/xlink" id="body_1" width="102" height="77" viewBox="0 0 102 77">

<g transform="matrix(0.30078125 0 0 0.30078125 12.5 -0)">
    <path d="M42 44.4C 40.1 44.5 38.2 44 36.6 42.9C 35 41.9 33.699997 40.4 32.899998 38.7C 32.1 37 31.899998 35.100002 32.199997 33.2C 32.499996 31.300001 33.399998 29.6 34.699997 28.2C 35.999996 26.800001 37.699997 25.900002 39.499996 25.400002C 41.299995 25.000002 43.299995 25.100002 45.099995 25.7C 46.899994 26.400002 48.399994 27.5 49.599995 29C 50.799995 30.5 51.299995 32.3 51.399994 34.2C 51.499992 36.8 50.499992 39.2 48.799995 41.100002C 47 43.2 44.6 44.3 42 44.4z" stroke="none" fill="#6F6F6F" fill-rule="nonzero" />
    <path d="M120.9 48.2C 156 48.2 186.8 60.800003 202.70001 79.4C 196.50002 62.7 185.30002 48.2 170.80002 38.100002C 156.20001 27.900002 138.80002 22.400002 121.000015 22.400002C 103.20001 22.400002 85.80002 27.900002 71.20001 38.100002C 56.50001 48.300003 45.400013 62.700005 39.200012 79.4C 55.1 60.7 85.8 48.2 120.9 48.2z" stroke="none" fill="#939393" fill-rule="nonzero" />
    <path d="M120.9 191.6C 85.8 191.6 55 179 39.1 160.40001C 45.3 177.1 56.5 191.6 71 201.70001C 85.6 211.90001 103 217.40001 120.8 217.40001C 138.6 217.40001 156 211.90001 170.6 201.70001C 185.20001 191.50002 196.40001 177.1 202.5 160.40001C 186.8 179 156.2 191.6 120.9 191.6z" stroke="none" fill="#939393" fill-rule="nonzero" />
    <path d="M223.9 12.9C 224.09999 15.599999 223.5 18.099998 222.09999 20.3C 220.79999 22.5 218.79999 24.4 216.49998 25.5C 214.09999 26.6 211.49998 27 208.89998 26.7C 206.29997 26.400002 203.89998 25.2 201.99998 23.400002C 199.99998 21.600002 198.69998 19.400002 198.09999 16.800001C 197.49998 14.200001 197.59999 11.600001 198.4 9.100001C 199.2 6.6000013 200.9 4.5000014 203 2.9000015C 205.1 1.3000016 207.6 0.40000153 210.3 0.30000162C 212 0.20000163 213.7 0.5000016 215.3 1.0000017C 216.90001 1.6000017 218.40001 2.5000017 219.7 3.6000016C 221 4.7000017 222 6.2000017 222.8 7.7000017C 223.4 9.5 223.8 11.2 223.9 12.9z" stroke="none" fill="#767676" fill-rule="nonzero" />
    <path d="M72.7 237.9C 72.899994 241.2 72.1 244.5 70.5 247.29999C 68.9 250.09999 66.4 252.4 63.4 253.9C 60.4 255.4 57.100002 255.9 53.800003 255.4C 50.500004 255 47.500004 253.5 45.000004 251.29999C 42.500004 249.09999 40.800003 246.19998 40.000004 242.99998C 39.200005 239.79999 39.300003 236.39998 40.400005 233.29999C 41.500008 230.2 43.600006 227.49998 46.200005 225.49998C 48.800003 223.49998 52.000004 222.39998 55.400005 222.19998C 57.500004 222.09998 59.800007 222.39998 61.700005 223.09998C 63.800003 223.79997 65.600006 224.89998 67.3 226.39998C 68.9 227.89998 70.200005 229.59998 71.200005 231.49998C 72.1 233.6 72.6 235.7 72.7 237.9z" stroke="none" fill="#989898" fill-rule="nonzero" />
</g>
</svg>