<?xml version="1.0" encoding="UTF-8"?>
<svg xmlns="http://www.w3.org/2000/svg" xmlns:xlink="http://www.w3.org/1999/xlink" width="px" height="0px" viewBox="0 0 192 192" version="1.1">
<g id="surface1">
<path style=" stroke:none;fill-rule:nonzero;fill:rgb(36.470588%,36.470588%,36.470588%);fill-opacity:1;" d="M 12.976562 143.925781 C 13.875 145.5 15.074219 146.625 16.648438 147.523438 L 91.125 190.425781 C 94.199219 192.226562 98.023438 192.226562 100.949219 190.425781 L 175.425781 147.523438 C 178.5 145.800781 180.375 142.5 180.375 138.898438 L 180.375 53.101562 C 180.375 49.5 178.574219 46.199219 175.425781 44.476562 L 100.949219 1.574219 C 97.875 -0.226562 94.050781 -0.226562 91.125 1.574219 L 16.648438 44.476562 C 13.425781 46.199219 11.625 49.5 11.625 53.101562 L 11.625 139.050781 C 11.625 140.773438 12.074219 142.425781 12.976562 143.925781 "/>
<path style=" stroke:none;fill-rule:nonzero;fill:rgb(100%,100%,100%);fill-opacity:1;" d="M 72.148438 128.699219 C 72.148438 134.023438 67.875 138.300781 62.550781 138.300781 C 57.226562 138.300781 52.949219 134.023438 52.949219 128.699219 L 52.949219 63.074219 C 52.949219 57.976562 57.523438 53.773438 63.75 53.773438 C 68.324219 53.773438 73.574219 55.574219 76.800781 59.550781 L 79.726562 63 L 119.773438 110.851562 L 119.773438 63.226562 C 119.773438 57.898438 124.050781 53.625 129.375 53.625 C 134.699219 53.625 138.976562 57.898438 138.976562 63.226562 L 138.976562 128.925781 C 138.976562 134.023438 134.398438 138.226562 128.175781 138.226562 C 123.601562 138.226562 118.351562 136.425781 115.125 132.449219 L 72.226562 81.226562 L 72.226562 128.699219 Z M 72.148438 128.699219 "/>
</g>
</svg>
