<?xml version="1.0" encoding="utf-8"?>
<!-- Generator: Adobe Illustrator 24.0.1, SVG Export Plug-In . SVG Version: 6.00 Build 0)  -->
<svg version="1.1" id="Layer_1" xmlns="http://www.w3.org/2000/svg" xmlns:xlink="http://www.w3.org/1999/xlink" x="0px" y="0px"
	 viewBox="0 0 256 256" style="enable-background:new 0 0 256 256;" xml:space="preserve">
<style type="text/css">
	.st0{fill:#646464;}
	.st1{fill:#DEDEDE;}
</style>
<path class="st0" d="M127.1,0.8c-64.9,0-60.9,28.1-60.9,28.1l0.1,29.2h61.9v8.8H41.7c0,0-41.6-4.7-41.6,60.8s36.3,63.2,36.3,63.2H58
	v-30.4c0,0-1.2-36.3,35.7-36.3H155c0,0,34.6,0.6,34.6-33.4v-56C189.7,34.7,194.9,0.8,127.1,0.8z M92.9,20.4c6.2,0,11.1,5,11.1,11.1
	s-5,11.1-11.1,11.1s-11.1-5-11.1-11.1l0,0C81.7,25.4,86.7,20.4,92.9,20.4z"/>
<path class="st1" d="M128.9,255.2c64.9,0,60.9-28.1,60.9-28.1l-0.1-29.2h-61.9v-8.8h86.5c0,0,41.6,4.7,41.6-60.8
	s-36.3-63.2-36.3-63.2H198v30.4c0,0,1.2,36.3-35.7,36.3H101c0,0-34.6-0.6-34.6,33.4v56.1C66.3,221.3,61.1,255.2,128.9,255.2z
	 M163.1,235.6c-6.1,0-11.1-5-11.1-11.1l0,0c0-6.1,5-11.1,11.1-11.1c6.2,0,11.1,5,11.1,11.1C174.3,230.6,169.3,235.6,163.1,235.6z"/>
</svg>
