<?xml version="1.0" encoding="utf-8"?>
<!-- Generator: Adobe Illustrator 24.0.1, SVG Export Plug-In . SVG Version: 6.00 Build 0)  -->
<svg version="1.1" id="Layer_1" xmlns="http://www.w3.org/2000/svg" xmlns:xlink="http://www.w3.org/1999/xlink" x="0px" y="0px"
	 viewBox="0 0 256 256" style="enable-background:new 0 0 256 256;" xml:space="preserve">
<style type="text/css">
	.st0{fill:#5D5D5D;}
</style>
<path class="st0" d="M85.3,33.9c11.9,10.3,12,25.4,14,40.9c1.3-2.2,2.1-3.4,2.8-4.7c6.3-12.7,9.5-26.3,9.5-40.5
	c-0.1-9.2,2.7-17.6,8.7-24.7c1.7-2,4-3.4,6.6-4.8c-4.4,12,1.4,22.1,5.6,32.1c6.2,14.7,10,29.8,10.4,45.8c0.1,3.4,0.9,6.8,2,10.2
	c2.7-22.1,3.1-44.7,17.3-63.5c-2.5,14.8,1.6,28.1,8.9,40.6c11.9,20.2,15.9,41.5,7.8,64.1c-2,5.4-5.4,10.3-8.5,16.1
	c15.3-3.1,30.4-6,46.6-9.2c-4.5,11.9-11.7,22.5-18.9,32.9c-1.2,1.7-4.2,3-6.4,3c-42.8,0.2-85.6,0.2-128.4,0.1
	c-1.8,0-4.2-0.8-5.4-2.1c-4.6-5-8.8-10.4-12.2-16.3c-1.8-3-3.4-6.1-4.6-9.3c-0.3-0.7-2.1-7.9-2.4-7.9c14.4,3.1,28.4,6.1,43.2,9.3
	c-0.7-1.5-0.8-2-1.1-2.5c-12.9-16.9-15.3-35.6-9-55.5c3.2-10.1,7.3-20.1,10-30.3C83.8,49.9,84.2,41.9,85.3,33.9z"/>
<path class="st0" d="M195.4,186.4c0,7.6,0,15.1,0,23c-44.9,0-89.8,0-135.1,0c0-7.3,0-14.9,0-23C104.9,186.4,150,186.4,195.4,186.4z"
	/>
<path class="st0" d="M135.8,255.9h-16.6c-18,0-32.7-14.6-32.7-32.7v-0.9h82.1v0.9C168.6,241.2,154,255.9,135.8,255.9z"/>
</svg>
