<?xml version="1.0" encoding="UTF-8"?>
<svg xmlns="http://www.w3.org/2000/svg" xmlns:xlink="http://www.w3.org/1999/xlink" width="px" height="0px" viewBox="0 0 192 192" version="1.1">
<g id="surface1">
<path style=" stroke:none;fill-rule:nonzero;fill:rgb(36.470588%,36.470588%,36.470588%);fill-opacity:1;" d="M 85.050781 51.226562 C 87.300781 47.25 75.824219 45.898438 83.550781 49.800781 C 84.300781 50.101562 84.148438 51.523438 85.050781 51.226562 Z M 22.425781 17.550781 C 17.550781 11.175781 31.574219 18.601562 26.625 11.925781 C 22.5 8.625 18.523438 15.675781 22.425781 17.550781 Z M 32.699219 25.574219 C 39.601562 24.675781 30.976562 22.574219 31.273438 25.5 Z M 27.226562 24.226562 C 28.648438 22.199219 24.601562 25.273438 27.226562 24.226562 Z M 38.25 36.375 C 42.523438 36.449219 36.375 30.601562 41.550781 33.226562 C 40.726562 30.449219 35.550781 30 33.074219 28.875 C 31.648438 31.425781 35.925781 36.375 38.25 36.375 Z M 24.824219 35.851562 C 28.5 33.074219 37.5 37.5 31.726562 33.074219 C 31.199219 32.550781 19.050781 36.375 24.824219 35.851562 Z M 21.074219 43.050781 C 27.523438 40.875 36.300781 38.398438 39.375 44.101562 C 36.300781 40.351562 38.101562 36.675781 41.023438 42.148438 C 45.148438 47.625 47.25 39.675781 44.550781 37.800781 C 47.625 41.625 51.074219 43.425781 46.574219 38.023438 C 51.449219 32.175781 36.824219 38.773438 33.449219 38.699219 C 31.875 39.449219 16.949219 42.601562 21.074219 43.050781 Z M 33.074219 63.148438 C 34.648438 61.199219 30.898438 62.625 33.074219 63.148438 Z M 29.324219 73.199219 C 28.949219 70.875 28.199219 74.476562 29.324219 73.199219 Z M 26.101562 71.625 C 29.699219 71.398438 31.726562 67.648438 25.425781 67.875 C 15.601562 66.824219 34.125 71.25 24.148438 69.976562 C 22.800781 70.875 26.023438 71.851562 26.101562 71.625 Z M 179.925781 169.199219 C 184.351562 169.199219 193.425781 167.851562 183.75 167.851562 C 182.175781 168.074219 174.824219 168 179.925781 169.199219 Z M 158.476562 156.675781 C 159 153.449219 156.300781 156.976562 158.476562 156.675781 Z M 175.273438 168.148438 C 175.425781 165.300781 172.875 169.425781 175.273438 168.148438 Z M 10.351562 65.023438 C 13.574219 62.550781 6.601562 64.050781 10.351562 65.023438 Z M 22.5 73.648438 C 24.449219 71.550781 18.226562 72.75 22.5 73.648438 Z M 18.375 72.449219 C 23.925781 69.074219 12.449219 69.523438 18.375 72.449219 Z M 59.699219 46.425781 C 61.574219 41.550781 66.976562 44.476562 60.601562 45.449219 C 60.675781 45.976562 60.375 48 59.699219 46.425781 Z M 54.449219 46.5 C 54.074219 36.75 63.523438 49.949219 54.449219 46.5 Z M 36.523438 49.273438 C 39.449219 45.75 53.25 47.023438 43.199219 48.898438 C 40.425781 46.875 38.398438 50.101562 36.523438 49.273438 Z M 35.25 50.101562 C 37.050781 48 35.773438 51.898438 35.25 50.101562 Z M 30.375 52.050781 C 30.601562 48.75 38.550781 53.773438 31.648438 53.25 Z M 26.851562 51.976562 C 29.625 49.875 28.351562 53.175781 26.851562 51.976562 Z M 26.476562 55.425781 C 28.425781 48.300781 36.898438 61.273438 29.625 56.398438 C 28.875 55.800781 27.898438 55.425781 26.773438 55.425781 C 26.699219 55.425781 26.550781 55.425781 26.476562 55.425781 Z M 6.523438 65.699219 C 5.773438 61.425781 5.851562 53.925781 12.976562 56.476562 C 3.449219 58.351562 19.574219 68.324219 17.550781 60.449219 C 21.523438 60.675781 25.425781 58.050781 23.25 61.949219 C 31.125 61.050781 36.601562 54.226562 44.25 55.199219 C 51.148438 54.601562 57.601562 53.25 63.675781 51.300781 L 63.074219 51.449219 C 68.324219 51.074219 73.425781 45.375 70.5 42.074219 C 69.074219 42 67.5 41.925781 65.851562 41.925781 C 59.476562 41.925781 53.324219 42.675781 47.398438 44.023438 L 47.925781 43.949219 C 39.148438 45.75 31.199219 49.273438 22.273438 50.773438 C 13.648438 51.898438 24 54 21.523438 54.449219 C 17.023438 56.023438 26.925781 57.074219 20.925781 58.726562 C 17.25 58.050781 13.425781 56.773438 15 52.875 C 6.75 53.925781 -0.523438 57.375 6 65.773438 Z M 20.398438 75 C 20.851562 71.925781 17.101562 75.601562 20.398438 75 Z M 165.898438 168.976562 C 166.949219 165.898438 163.273438 169.425781 165.898438 168.976562 Z M 150.148438 160.800781 C 152.773438 158.398438 146.773438 160.050781 150.148438 160.800781 Z M 19.425781 80.101562 C 23.550781 78.449219 11.925781 76.726562 18.601562 79.800781 Z M 9.601562 74.25 C 9.375 71.699219 8.101562 74.550781 9.601562 74.25 Z M 7.875 75.601562 C 7.726562 73.425781 6.75 76.425781 7.875 75.601562 Z M 19.726562 83.324219 C 19.199219 78.601562 13.050781 82.574219 19.726562 83.324219 Z M 42.75 100.351562 C 43.726562 99.449219 40.5 99.675781 42.75 100.351562 Z M 21.976562 87 C 21 86.175781 21.226562 87.898438 21.976562 87 Z M 18.675781 85.351562 C 18.75 83.324219 13.351562 83.550781 18.675781 85.351562 Z M 12.824219 83.851562 C 11.773438 77.699219 8.625 82.949219 12.824219 83.851562 Z M 37.125 100.726562 C 37.199219 97.5 34.574219 100.648438 37.125 100.726562 Z M 147 169.199219 C 151.125 168.375 160.425781 171.300781 161.925781 168.074219 C 156.976562 167.925781 144.75 164.550781 144.148438 168.898438 L 145.273438 169.050781 Z M 34.199219 99.976562 C 34.125 98.925781 33.226562 100.425781 34.199219 99.976562 Z M 24.976562 95.550781 C 28.125 94.425781 22.050781 94.800781 24.976562 95.550781 Z M 98.851562 145.425781 C 98.773438 142.199219 95.699219 146.25 98.851562 145.425781 Z M 26.925781 100.050781 C 31.875 98.175781 21.601562 98.699219 26.925781 100.050781 Z M 123.074219 161.851562 C 124.800781 160.574219 120.976562 161.699219 123.074219 161.851562 Z M 105 150.523438 C 104.699219 149.25 103.800781 150.75 105 150.523438 Z M 102.824219 148.949219 C 102 146.699219 99.449219 148.875 102.824219 148.949219 Z M 57.449219 120.300781 C 57.449219 117 51.523438 118.949219 57.449219 120.300781 Z M 52.125 119.101562 C 49.949219 117.226562 51.976562 118.800781 52.125 119.101562 Z M 17.550781 97.648438 C 18.300781 94.574219 10.726562 80.773438 13.949219 90.75 C 15.148438 92.851562 15 96.824219 17.550781 97.648438 Z M 36.375 112.574219 C 40.5 113.476562 52.875 122.773438 45.601562 113.25 C 41.851562 112.125 44.101562 102.976562 40.273438 104.625 C 42.824219 108.898438 42.375 110.699219 36.976562 108 C 30.226562 104.699219 33.148438 109.648438 34.5 111 C 32.699219 111.375 36.898438 112.5 36.375 112.574219 Z M 140.023438 179.324219 C 143.101562 177.300781 136.273438 178.648438 140.023438 179.324219 Z M 129 171.898438 C 133.574219 168.074219 124.125 173.625 129 171.898438 Z M 131.101562 172.949219 C 136.726562 168.898438 127.648438 172.199219 129.898438 173.699219 Z M 67.949219 135.523438 C 66.75 133.125 66.148438 135.898438 67.949219 135.523438 Z M 64.273438 133.351562 C 64.125 131.476562 61.949219 133.5 64.273438 133.351562 Z M 124.050781 171 C 128.476562 168.148438 123.074219 168.601562 123.226562 171.226562 Z M 33.523438 113.925781 C 34.800781 112.050781 30.148438 113.699219 33.523438 113.925781 Z M 125.476562 172.875 C 130.050781 168.976562 122.625 172.050781 125.476562 172.875 Z M 118.574219 170.175781 C 127.648438 164.324219 114.824219 167.625 118.574219 170.175781 Z M 22.273438 109.875 C 18.074219 103.875 19.648438 101.175781 15.601562 96.300781 C 14.851562 92.550781 8.625 84.074219 12.375 93.074219 C 15.824219 98.324219 16.875 106.425781 22.273438 109.875 Z M 120.148438 171.824219 C 125.023438 166.574219 115.351562 172.125 120.148438 171.824219 Z M 120.148438 173.476562 C 120.148438 172.351562 118.199219 174 120.148438 173.476562 Z M 110.773438 167.175781 C 115.273438 163.425781 106.425781 168.824219 110.773438 167.175781 Z M 70.050781 141.976562 C 72.976562 144.523438 83.324219 143.851562 73.574219 142.273438 C 72.074219 140.101562 64.351562 140.625 70.050781 141.976562 Z M 40.273438 124.050781 C 38.324219 120.898438 33.375 121.199219 40.273438 124.050781 Z M 35.101562 120.675781 C 34.273438 117.449219 29.476562 117.449219 35.101562 120.675781 Z M 112.648438 169.351562 C 115.273438 166.800781 112.726562 173.398438 117 168.75 C 117.074219 165.449219 116.851562 163.5 112.125 167.476562 C 110.851562 168.148438 110.25 171.226562 112.648438 169.351562 Z M 107.773438 167.25 C 107.925781 165.074219 106.199219 169.199219 107.773438 167.25 Z M 60.226562 138.523438 C 71.550781 142.125 54.675781 134.023438 60.226562 138.523438 Z M 50.925781 133.199219 C 53.625 135.226562 61.125 138.976562 54.824219 133.949219 C 57 131.476562 50.699219 130.125 52.800781 128.476562 C 47.550781 125.25 48.675781 125.550781 52.351562 125.625 C 45.976562 122.773438 53.25 123 52.875 121.574219 C 50.398438 121.125 40.726562 117.226562 46.425781 121.875 C 40.648438 118.949219 45.074219 123 43.273438 122.550781 C 37.351562 120.976562 48.523438 127.050781 42.300781 125.550781 C 45.675781 128.25 51.449219 132.449219 43.726562 128.398438 C 42.75 129.824219 49.273438 132.074219 50.925781 133.199219 Z M 68.476562 144.824219 C 73.425781 146.101562 73.351562 144.074219 68.925781 143.476562 C 66.523438 141.226562 58.949219 138.898438 65.699219 143.175781 C 66.226562 144.300781 67.648438 144.300781 68.476562 144.824219 Z M 59.625 140.324219 C 58.574219 139.425781 59.773438 140.851562 59.625 140.324219 Z M 63.898438 55.351562 C 64.648438 54.375 64.125 56.398438 63.898438 55.351562 Z M 61.351562 70.800781 C 59.625 67.726562 63.523438 57.449219 63.976562 63.824219 C 62.175781 68.851562 63.449219 71.625 64.726562 64.949219 C 67.050781 59.550781 64.199219 75.300781 61.351562 70.800781 Z M 58.875 74.851562 C 58.425781 72.300781 60.300781 78.074219 58.875 74.851562 Z M 60.375 78.898438 C 57.898438 72.75 62.699219 82.199219 60.375 78.898438 Z M 61.425781 81.226562 C 61.425781 79.875 61.800781 83.175781 61.425781 81.226562 Z M 43.273438 71.175781 C 44.925781 67.726562 46.273438 75.074219 43.273438 71.175781 Z M 36.824219 67.351562 C 37.875 66.898438 37.425781 68.699219 36.824219 67.351562 Z M 64.351562 88.726562 C 65.25 81.226562 65.175781 93.148438 64.351562 88.726562 Z M 39.675781 74.324219 C 41.023438 72.375 36.074219 65.398438 40.351562 71.851562 C 42.226562 73.351562 45.75 74.324219 42.601562 74.925781 C 47.550781 79.199219 41.476562 76.125 39.675781 74.324219 Z M 65.773438 90.824219 C 66.148438 84.226562 67.726562 86.851562 65.773438 91.800781 Z M 37.199219 76.648438 C 40.5 75.976562 50.925781 82.5 41.324219 78.523438 C 40.351562 77.324219 38.023438 77.851562 37.199219 76.648438 Z M 67.574219 97.574219 C 68.625 93.898438 67.648438 100.050781 67.574219 97.574219 Z M 54.074219 88.949219 C 53.550781 82.5 55.351562 90 54.074219 88.949219 Z M 36.375 79.574219 C 30.824219 71.851562 52.574219 87.375 39.976562 81.523438 C 38.625 81.148438 37.050781 81.074219 36.375 79.574219 Z M 67.199219 100.425781 C 67.648438 98.625 67.273438 102.449219 67.199219 100.425781 Z M 68.773438 102 C 69.148438 97.875 69.601562 104.773438 68.773438 102 Z M 59.625 96.523438 C 55.875 94.273438 58.648438 80.699219 59.925781 90 C 63.601562 88.800781 59.699219 94.800781 62.476562 94.726562 C 61.949219 98.550781 60.75 99.898438 59.625 96.523438 Z M 34.648438 82.125 C 25.949219 74.398438 45.601562 86.175781 36.074219 83.550781 Z M 40.199219 87.449219 C 37.574219 82.5 43.425781 89.476562 40.199219 87.449219 Z M 37.425781 86.550781 C 39.148438 84.824219 38.324219 88.199219 37.425781 86.550781 Z M 32.851562 86.625 C 29.851562 83.699219 27.675781 80.925781 33 84.824219 C 35.023438 84.898438 28.5 78.601562 33.449219 82.800781 C 38.773438 83.773438 36.074219 91.5 32.851562 86.625 Z M 41.550781 93.375 C 43.273438 89.699219 44.476562 98.398438 41.550781 93.375 Z M 37.949219 92.101562 C 38.25 87.300781 39.75 95.398438 37.949219 92.101562 Z M 45.976562 97.648438 C 44.324219 94.800781 43.273438 91.351562 43.273438 87.675781 C 43.875 90.675781 49.726562 100.648438 46.125 91.800781 C 42.148438 84.375 50.851562 94.199219 51.75 96.074219 C 52.125 97.875 49.273438 95.550781 51.226562 99.898438 C 47.699219 94.949219 49.199219 102.601562 45.976562 97.648438 Z M 72 114.976562 C 69.148438 108.675781 74.023438 111.523438 72.601562 116.023438 Z M 56.925781 110.175781 C 55.726562 107.925781 59.550781 112.199219 56.925781 110.175781 Z M 74.476562 122.398438 C 75.523438 118.273438 75.75 125.773438 74.476562 122.398438 Z M 49.574219 108.898438 C 51.300781 108.375 50.398438 111.898438 49.574219 108.898438 Z M 80.851562 130.5 C 77.851562 124.726562 84.601562 132.148438 80.851562 130.5 Z M 83.398438 133.949219 C 83.324219 130.199219 84.226562 136.800781 83.398438 133.949219 Z M 113.023438 156.449219 C 114.601562 156.375 113.175781 157.574219 113.023438 156.449219 Z M 87.148438 140.023438 C 84.75 137.550781 84.148438 132.898438 86.699219 136.949219 C 88.050781 137.476562 90.898438 144.523438 87.148438 140.023438 Z M 95.101562 162.449219 C 101.25 158.773438 99.226562 171.074219 105.601562 163.5 C 111.824219 158.925781 100.199219 169.125 107.925781 164.324219 C 113.476562 160.574219 121.726562 166.050781 126.898438 167.851562 C 130.648438 167.699219 134.25 171.074219 138.148438 168.976562 C 145.5 166.949219 123.675781 166.050781 129.449219 162.523438 C 128.550781 162.75 127.574219 162.824219 126.523438 162.824219 C 121.351562 162.824219 116.851562 160.050781 114.449219 155.925781 L 114.375 155.851562 C 106.050781 154.5 99 150 94.273438 143.625 L 94.199219 143.550781 C 92.699219 141 96.449219 143.925781 92.851562 139.800781 C 88.949219 135.898438 85.648438 131.398438 83.101562 126.523438 L 82.949219 126.226562 C 79.273438 124.273438 78.898438 118.5 78.523438 126 C 78.523438 121.273438 74.101562 118.050781 73.050781 119.398438 C 73.050781 114.824219 77.773438 117.148438 74.476562 113.773438 C 73.726562 109.050781 71.398438 104.101562 70.648438 98.773438 C 69.523438 96.226562 70.5 90.675781 66.898438 96.523438 C 65.550781 102.675781 66.449219 88.949219 68.476562 93.449219 C 71.175781 88.800781 67.5 89.398438 67.351562 90 C 69.074219 86.101562 68.476562 80.550781 66.898438 82.648438 C 67.800781 78.523438 68.398438 67.425781 65.476562 69.375 C 67.199219 65.023438 68.773438 49.574219 61.199219 55.5 C 57.226562 55.648438 53.476562 56.550781 50.101562 57.976562 L 50.25 57.75 C 58.125 62.101562 49.425781 59.324219 46.273438 58.648438 C 45.824219 62.625 42.675781 60.898438 38.699219 60.976562 C 45.074219 61.726562 35.625 67.425781 31.949219 65.25 C 27.226562 67.5 36 73.125 32.023438 74.851562 C 32.476562 77.476562 24.824219 73.875 25.425781 79.949219 C 20.851562 78 24.824219 87.148438 27.074219 84.074219 C 34.875 86.175781 32.550781 90.976562 32.773438 95.550781 C 31.5 98.175781 26.476562 89.324219 31.648438 89.699219 C 27.601562 83.101562 27.148438 87.300781 23.773438 90.375 C 22.949219 90.601562 32.398438 94.726562 26.476562 96.824219 C 31.648438 97.648438 31.800781 102.148438 32.851562 105.074219 C 36 108.300781 35.324219 101.476562 39.074219 105.375 C 36.675781 101.925781 26.550781 95.550781 34.726562 97.574219 C 34.648438 94.050781 33.226562 91.199219 35.773438 91.273438 C 38.25 86.773438 33.148438 102.375 38.773438 96.675781 C 40.351562 96 40.726562 92.175781 43.5 97.050781 C 47.550781 101.023438 44.925781 103.875 39.226562 100.273438 C 40.273438 103.726562 46.875 105 45.601562 110.398438 C 46.949219 115.125 48.75 113.398438 50.398438 113.101562 C 51.675781 117.75 52.351562 114.300781 52.425781 112.125 C 58.199219 113.398438 56.851562 116.773438 58.648438 119.175781 C 62.625 120.976562 52.949219 107.023438 59.773438 114.976562 C 66.976562 121.425781 62.476562 124.199219 56.023438 123.148438 C 60.074219 122.851562 61.425781 128.699219 66.523438 128.476562 C 71.175781 130.726562 74.324219 139.199219 66.300781 135.675781 C 63.523438 133.199219 53.699219 130.050781 61.726562 134.851562 C 69.898438 138.226562 76.648438 141.523438 83.175781 145.125 L 82.199219 144.601562 C 87.300781 148.273438 89.550781 152.476562 91.5 153.300781 C 87.226562 155.324219 78.523438 151.648438 84.976562 150.523438 C 80.925781 149.773438 76.425781 147.75 80.25 152.773438 C 83.550781 155.550781 91.875 155.25 93.375 155.550781 C 92.101562 158.324219 89.925781 158.550781 93.449219 158.773438 C 89.550781 160.949219 94.726562 161.324219 95.101562 162.449219 Z M 72.074219 148.351562 C 78.675781 149.175781 64.199219 143.851562 70.648438 147.898438 Z M 89.699219 160.273438 C 95.476562 158.023438 84.148438 159.148438 89.699219 160.273438 Z M 55.800781 139.199219 C 59.476562 138.824219 49.800781 136.726562 55.800781 139.199219 Z M 75.824219 151.949219 C 76.351562 149.925781 71.625 151.351562 75.824219 151.949219 Z M 105.148438 170.925781 C 105.074219 169.351562 103.726562 171.523438 105.148438 170.925781 Z M 78.226562 154.425781 C 77.324219 153.375 77.851562 154.648438 78.226562 154.425781 Z M 34.949219 126.976562 C 34.351562 124.574219 29.550781 122.699219 34.949219 126.976562 Z M 51.375 137.625 C 56.476562 137.324219 44.625 135.375 51.375 137.625 Z M 65.398438 147.601562 C 64.875 146.101562 62.699219 147.523438 65.398438 147.601562 Z M 102.375 170.476562 C 102.601562 167.550781 99.601562 172.574219 102.375 170.476562 Z M 50.625 138.601562 C 50.25 137.023438 48.449219 138.75 50.625 138.601562 Z M 87.824219 162.226562 C 96.449219 162.300781 80.023438 161.101562 87.824219 162.226562 Z M 72 153.148438 C 81.148438 155.699219 64.351562 147.375 69.75 152.175781 L 70.949219 152.699219 Z M 79.875 159.375 C 81.449219 156.75 73.351562 157.875 79.875 159.375 Z M 53.925781 143.550781 C 57.675781 146.398438 68.925781 143.925781 59.625 141.824219 C 55.425781 139.574219 45.824219 138 52.351562 143.175781 Z M 74.625 157.726562 C 78.074219 156.449219 69.074219 156.449219 74.625 157.726562 Z M 66.898438 153 C 69.300781 151.351562 61.949219 151.726562 66.898438 153 Z M 57.75 147.675781 C 57.375 146.324219 52.726562 146.175781 57.75 147.675781 Z M 89.101562 172.050781 C 92.25 174.074219 107.625 176.476562 98.023438 172.875 C 96.375 173.25 80.175781 168.300781 89.101562 172.050781 Z M 69.300781 159.75 C 69.226562 158.398438 67.949219 160.351562 69.300781 159.75 Z M 65.398438 157.800781 C 69.300781 155.25 60.375 157.726562 65.398438 157.800781 Z M 82.726562 169.875 C 84.226562 167.625 77.851562 169.050781 82.726562 169.875 Z M 73.726562 164.851562 C 76.199219 162.449219 69.824219 163.351562 73.726562 164.851562 Z M 68.398438 162.675781 C 68.023438 160.5 66.523438 163.800781 68.398438 162.675781 Z M 64.199219 161.101562 C 65.925781 160.351562 61.726562 160.125 64.199219 161.101562 Z M 32.550781 133.125 C 32.773438 132 33.898438 135.675781 32.550781 133.125 Z M 54.824219 157.648438 C 62.550781 160.5 54.824219 152.175781 51.226562 152.699219 C 49.648438 150 45.226562 148.273438 48.375 146.773438 C 42.75 148.726562 42.449219 139.351562 39.824219 140.699219 C 33.898438 138.824219 37.5 132.148438 30.449219 128.101562 C 29.773438 123.75 23.398438 120.074219 21.375 113.550781 C 20.476562 110.25 14.175781 100.648438 18 109.574219 C 22.125 118.425781 26.851562 126.074219 32.175781 133.125 L 31.949219 132.824219 C 35.398438 140.398438 40.574219 146.625 46.875 151.351562 L 47.023438 151.425781 C 49.351562 153.601562 51.601562 156.976562 54.824219 157.648438 Z M 70.125 168.449219 C 77.25 172.125 85.5 174.976562 94.125 176.550781 L 94.726562 176.625 C 103.050781 178.574219 112.648438 179.625 122.476562 179.625 C 127.574219 179.625 132.601562 179.324219 137.550781 178.726562 L 136.949219 178.800781 C 130.648438 175.949219 124.125 179.925781 117.824219 176.773438 C 115.574219 177 113.023438 177.148438 110.324219 177.148438 C 104.699219 177.148438 99.226562 176.476562 93.976562 175.273438 L 94.425781 175.351562 C 84 171.523438 75.300781 167.625 66.976562 163.199219 L 68.101562 163.726562 C 57.898438 159.976562 73.351562 168.523438 76.125 169.199219 C 82.5 172.800781 69.148438 167.324219 67.199219 165.824219 C 61.875 162.824219 61.199219 163.425781 66.675781 166.5 C 67.875 167.175781 69 167.851562 70.125 168.449219 Z M 57.226562 162.824219 C 49.351562 157.425781 42.601562 151.125 36.898438 144 L 36.75 143.851562 C 26.023438 130.726562 17.324219 115.351562 11.324219 98.625 L 10.949219 97.574219 C 7.5 86.699219 6.300781 75.074219 1.648438 64.574219 C 0.75 62.851562 0.148438 60.824219 0.148438 58.726562 C 0.148438 52.5 4.726562 47.324219 10.648438 46.425781 L 10.726562 46.425781 C 14.398438 45.75 20.925781 42.226562 13.050781 44.699219 C 6 49.875 5.324219 40.050781 12.523438 39.375 C 15.675781 39.375 18.148438 36.824219 18.148438 33.675781 C 18.148438 32.699219 17.925781 31.875 17.550781 31.050781 C 12.300781 27.601562 30.375 23.851562 21.226562 18.675781 C 11.851562 8.550781 34.5 6.601562 28.949219 18.148438 C 27.601562 27.074219 44.773438 16.574219 40.800781 26.851562 C 44.851562 31.800781 56.023438 27.976562 55.726562 34.949219 C 61.648438 35.324219 63.675781 40.351562 69.226562 40.726562 C 75 43.351562 85.425781 45.375 87.375 51.824219 C 81.675781 56.324219 68.476562 42.523438 67.875 54.976562 C 68.023438 74.625 70.949219 93.675781 76.273438 111.523438 L 75.898438 110.101562 C 80.175781 120.75 86.25 129.824219 93.824219 137.398438 C 100.726562 145.125 109.050781 151.351562 118.351562 155.851562 L 118.800781 156.074219 C 126.226562 159.601562 134.851562 162.375 143.851562 163.949219 L 144.449219 164.023438 C 148.050781 161.25 154.351562 151.125 159.976562 155.398438 C 160.199219 160.199219 148.875 165.523438 159.449219 165 C 165.675781 163.125 169.949219 169.800781 175.050781 163.800781 C 179.773438 169.351562 194.625 160.199219 191.25 171.675781 C 186.75 174.601562 180.148438 172.800781 175.574219 176.851562 C 168.074219 173.101562 162.148438 180.226562 153.898438 179.324219 C 145.800781 180.824219 136.425781 181.648438 126.824219 181.648438 C 126.523438 181.648438 126.226562 181.648438 126 181.648438 L 126.074219 181.648438 C 109.800781 181.351562 94.125 178.800781 79.351562 174.300781 L 80.550781 174.601562 C 71.625 171.601562 63.898438 167.625 56.851562 162.675781 Z M 57.226562 162.824219 "/>
</g>
</svg>
