<svg version="1.1" xmlns="http://www.w3.org/2000/svg" xmlns:xlink="http://www.w3.org/1999/xlink" width="256px" height="256px" viewBox="0,0,256,256"><g transform="translate(38.4,38.4) scale(0.7,0.7)"><g fill="none" fill-rule="nonzero" stroke="none" stroke-width="1" stroke-linecap="butt" stroke-linejoin="miter" stroke-miterlimit="10" stroke-dasharray="" stroke-dashoffset="0" font-family="none" font-weight="none" font-size="none" text-anchor="none" style="mix-blend-mode: normal"><g><g><g><path d="M32.4,159.3c-17.8,0 -32.3,-14.5 -32.3,-32.3c0,-17.8 14.5,-32.3 32.3,-32.3c6.9,0 13.6,2.2 19.1,6.3l-6.8,9.2c-3.6,-2.7 -7.9,-4.1 -12.4,-4.1c-11.5,0 -20.9,9.4 -20.9,20.9c0,11.5 9.4,20.9 20.9,20.9c0.2,0 0.5,0 0.7,0l0.4,11.4c-0.3,0 -0.7,0 -1,0z" fill="#646464"></path><path d="M64.6,127h-11.3c0,-5.1 -1.9,-10.1 -5.3,-13.9l8.5,-7.6c5.2,6 8.1,13.6 8.1,21.5z" fill="#646464"></path><path d="M25.1,128.4h18.7l32.7,32.9h-18.4z" fill="#646464"></path><path d="M3.4,112.9l10.1,5.1c-0.8,1.7 -2.7,6.4 -1.8,12.4c1.1,6.8 5.3,10.9 6.6,12.1c-1,-0.2 -11.6,-3.1 -15.4,-13.6c-2.9,-7.7 -0.2,-14.4 0.5,-16z" fill="#c3c3c3"></path></g><g fill="#646464"><path d="M115.9,141.6l-2.4,2.8l-5,-4c-2.3,1.4 -4.8,2.1 -7.6,2.1c-4.3,0 -7.8,-1.4 -10.5,-4.3c-2.7,-2.9 -4.1,-6.7 -4.1,-11.4c0,-4.7 1.4,-8.5 4.1,-11.4c2.7,-2.9 6.2,-4.3 10.5,-4.3c4.3,0 7.8,1.4 10.5,4.3c2.7,2.9 4.1,6.7 4.1,11.4c0,4.6 -1.3,8.4 -3.9,11.3zM108.4,135.7c1.9,-2.2 2.8,-5.2 2.8,-8.9c0,-3.9 -1,-6.9 -2.9,-9.1c-1.9,-2.2 -4.4,-3.2 -7.4,-3.2c-3.1,0 -5.6,1.1 -7.5,3.2c-2,2.2 -2.9,5.2 -2.9,9.1c0,3.9 1,6.9 2.9,9c2,2.2 4.4,3.3 7.5,3.3c1.6,0 3.1,-0.3 4.6,-1l-3,-2.4l2.4,-2.8z"></path><path d="M134.4,139.2c-2,2.2 -4.1,3.3 -6.6,3.3c-5,0 -7.5,-2.7 -7.5,-8.1v-14.4h3.9v14.2c0,1.8 0.3,3.1 1,3.9c0.6,0.8 1.7,1.2 3.2,1.2c2.2,0 4.2,-1.2 6,-3.5v-15.8h3.9v22h-3.9z"></path><path d="M153.7,142.5c-3.2,0 -5.8,-1 -7.8,-3c-2,-2 -2.9,-4.9 -2.9,-8.5c0,-3.6 1,-6.4 2.9,-8.5c1.9,-2 4.4,-3.1 7.5,-3.1c3.1,0 5.7,1 7.5,3c1.9,2 2.8,4.8 2.8,8.5v0.9h-16.7c0.2,2.5 0.9,4.4 2.1,5.7c1.2,1.2 2.8,1.8 4.6,1.8c1.4,0 2.6,-0.3 3.7,-1c1.1,-0.7 1.7,-1.7 1.7,-3h4.1c-0.3,2.3 -1.3,4 -3.1,5.3c-1.8,1.3 -3.9,1.9 -6.4,1.9zM159.4,128.8c-0.3,-2.1 -1,-3.7 -2.1,-4.8c-1.1,-1.1 -2.5,-1.6 -4.1,-1.6c-1.6,0 -2.9,0.5 -4,1.6c-1.1,1 -1.8,2.6 -2.1,4.8z"></path><path d="M176,142.5c-6,0 -9.2,-2.4 -9.4,-7.1h3.9c0,2.7 1.9,4 5.5,4c1.6,0 2.9,-0.3 3.7,-1c0.9,-0.7 1.3,-1.5 1.3,-2.5c0,-1 -0.4,-1.7 -1.2,-2.1c-0.8,-0.4 -2.5,-0.9 -5.1,-1.6c-2.6,-0.7 -4.5,-1.4 -5.7,-2.2c-1.2,-0.8 -1.8,-2.2 -1.8,-4.2c0,-1.8 0.7,-3.3 2.2,-4.5c1.5,-1.2 3.5,-1.8 6,-1.8c5.8,0 8.7,2.1 8.8,6.2h-3.9c-0.1,-2.1 -1.7,-3.1 -4.7,-3.1c-1.3,0 -2.4,0.2 -3.3,0.7c-0.9,0.5 -1.3,1.2 -1.3,2.2c0,0.9 0.3,1.5 1,1.9c0.7,0.4 2.3,0.9 5,1.5c2.7,0.6 4.6,1.4 5.9,2.3c1.3,0.9 1.9,2.3 1.9,4.4c0,2 -0.8,3.7 -2.4,5c-1.5,1.2 -3.7,1.9 -6.4,1.9z"></path><path d="M198.2,142c-0.9,0.2 -1.8,0.2 -2.8,0.2c-1.6,0 -2.8,-0.3 -3.5,-0.9c-0.7,-0.6 -1.2,-1.3 -1.4,-2.2c-0.2,-0.9 -0.3,-2.1 -0.3,-3.7v-12.4h-2.7v-3.1h2.7v-5.5h3.9v5.5h3.6v3.1h-3.6v12.7c0,1.5 0.2,2.5 0.6,2.9c0.4,0.4 0.9,0.6 1.6,0.6c0.7,0 1.3,-0.1 2,-0.2v3z"></path><path d="M202.2,111.5h9.7c10.3,0 15.5,5 15.5,15.1c0,10.3 -5.2,15.4 -15.5,15.4h-9.7zM206.2,138.4h5.5c4.4,0 7.4,-1 9,-3.1c1.6,-2.1 2.4,-5 2.4,-8.7c0,-3.6 -0.8,-6.5 -2.4,-8.5c-1.6,-2 -4.6,-3 -9,-3h-5.5z"></path><path d="M255.9,133.1c0,2.9 -1,5 -2.9,6.6c-1.9,1.5 -4.8,2.3 -8.5,2.3h-11.4v-30.4h10.9c3.2,0 5.8,0.7 7.6,2.1c1.9,1.4 2.8,3.3 2.8,5.7c0,2.9 -1.5,5.1 -4.4,6.5c2,0.5 3.4,1.4 4.4,2.8c1,1.2 1.5,2.7 1.5,4.4zM237.2,124.3h6.8c2.2,0 3.9,-0.4 4.9,-1.1c1,-0.7 1.6,-1.9 1.6,-3.6c0,-1.5 -0.5,-2.6 -1.5,-3.4c-1,-0.8 -2.8,-1.1 -5.3,-1.1h-6.4v9.2zM237.2,138.4h7.3c4.8,0 7.2,-1.7 7.2,-5.2c0,-1.8 -0.6,-3.1 -1.7,-4c-1.1,-0.8 -3.1,-1.3 -6.1,-1.3h-6.8v10.5z"></path></g></g></g></g></g></svg>