<?xml version="1.0" encoding="utf-8"?>
<!-- Generator: Adobe Illustrator 24.0.1, SVG Export Plug-In . SVG Version: 6.00 Build 0)  -->
<svg version="1.1" id="Layer_1" xmlns="http://www.w3.org/2000/svg" xmlns:xlink="http://www.w3.org/1999/xlink" x="0px" y="0px"
	 viewBox="0 0 256 256" style="enable-background:new 0 0 256 256;" xml:space="preserve">
<style type="text/css">
	.st0{fill:#7F7F7F;}
</style>
<path class="st0" d="M237.5,104.8c5.8-17.4,3.8-36.5-5.5-52.3c-13.9-24.3-42-36.7-69.3-30.9C138.8-4.9,98-7.1,71.5,16.8
	C63,24.3,56.8,34,53.3,44.7c-18,3.7-33.5,14.9-42.6,30.9c-14.1,24.2-10.9,54.8,7.9,75.6c-5.8,17.4-3.8,36.5,5.4,52.3
	c14,24.3,42,36.8,69.4,30.9c12.2,13.7,29.7,21.5,48,21.4c28,0,52.9-18.1,61.5-44.8c18-3.7,33.5-14.9,42.6-30.9
	C259.4,155.9,256.2,125.5,237.5,104.8L237.5,104.8z M141.4,239.1c-11.2,0-22-3.9-30.6-11.1l1.5-0.9l50.9-29.4
	c2.6-1.5,4.2-4.3,4.2-7.3v-71.7l21.5,12.4c0.2,0.1,0.4,0.3,0.4,0.6v59.4C189.2,217.6,167.8,239,141.4,239.1z M38.5,195.1
	c-5.6-9.7-7.6-21.1-5.7-32.1l1.5,0.9l50.9,29.4c2.6,1.5,5.7,1.5,8.3,0l62.2-35.9v24.8c0,0.3-0.1,0.5-0.4,0.7l-51.5,29.7
	C81,225.9,51.8,218,38.5,195.1L38.5,195.1z M25.1,84.3c5.7-9.8,14.6-17.2,25.2-21v60.5c0,3,1.5,5.7,4.1,7.2l61.9,35.7l-21.5,12.4
	c-0.2,0.1-0.5,0.1-0.8,0l-51.4-29.7C19.8,136.2,12,106.9,25.1,84V84.3z M201.9,125.4l-62.1-36.1l21.5-12.4c0.2-0.1,0.5-0.1,0.8,0
	l51.4,29.7c22.9,13.2,30.7,42.5,17.5,65.4c-5.6,9.6-14.3,17-24.7,20.9v-60.5C206.1,129.5,204.5,126.8,201.9,125.4L201.9,125.4z
	 M223.3,93.2l-1.5-0.9L171,62.7c-2.6-1.5-5.8-1.5-8.4,0l-62.2,35.9V73.7c0-0.3,0.1-0.5,0.3-0.7l51.4-29.7
	c22.9-13.2,52.2-5.3,65.4,17.6c5.6,9.7,7.6,21,5.7,32L223.3,93.2z M88.7,137.2l-21.5-12.4c-0.2-0.1-0.4-0.4-0.4-0.6V64.9
	c0-26.5,21.5-47.9,48-47.8c11.2,0,22,3.9,30.6,11.1l-1.5,0.9l-51,29.2c-2.6,1.5-4.2,4.3-4.2,7.3L88.7,137.2z M100.4,112l27.7-16
	l27.8,16v31.9l-27.7,16l-27.8-16L100.4,112z"/>
</svg>
