<svg version="1.1" xmlns="http://www.w3.org/2000/svg" xmlns:xlink="http://www.w3.org/1999/xlink" width="256px" height="256px" viewBox="0,0,256,256"><g transform="translate(38.4,38.4) scale(0.7,0.7)"><g fill="#5d5d5d" fill-rule="nonzero" stroke="none" stroke-width="1" stroke-linecap="butt" stroke-linejoin="miter" stroke-miterlimit="10" stroke-dasharray="" stroke-dashoffset="0" font-family="none" font-weight="none" font-size="none" text-anchor="none" style="mix-blend-mode: normal"><g transform="translate(0.15,-0.05)"><path d="M105.4,130.4c-0.4,10.5 -8.7,18.7 -19,18.7c-10.9,0 -18.9,-8.8 -18.9,-19.4c0,-10.7 8.8,-19.5 19.4,-19.5c4.8,0 9.5,2.1 13.5,5.8l-3.1,3.8c-3.1,-2.6 -6.7,-4.4 -10.4,-4.4c-7.8,0 -14.2,6.4 -14.2,14.3c0,8 6.1,14.2 13.8,14.2c6.9,0 12.4,-5.1 13.5,-11.6h-15.8v-4.6h21.3l-0.1,2.7z"></path><path d="M123.5,127.8h-2.9c-3.2,0 -5.8,2.6 -5.8,5.8v15.1h-5.2v-25.9h4.2v2.2c1.4,-1.4 3.6,-2.2 6.1,-2.2h5.6z"></path><path d="M151.7,148.7h-4.4v-3.3c-3.4,3.3 -8.8,4.9 -14.2,2.5c-4,-1.8 -7,-5.4 -7.8,-9.8c-1.5,-8.4 4.9,-15.8 13.1,-15.8c3.5,0 6.6,1.4 8.8,3.7v-3.3h4.4l0.1,26zM146.4,137.7c1.2,-5.3 -2.8,-10 -8,-10c-4.5,0 -8.1,3.7 -8.1,8.1c0,5 4.4,8.9 9.6,8.1c3.2,-0.7 5.8,-3.1 6.5,-6.2z"></path><path d="M162.1,121.4v1.5h8.2v4.6h-8.2v21.3h-5.1v-27.2c0,-5.7 4.1,-9.1 9.2,-9.1h6.2l-2.1,4.9h-4.1c-2.3,0 -4.1,1.8 -4.1,4z"></path><path d="M197.8,148.7h-4.4v-3.3c-3.4,3.3 -8.8,4.9 -14.2,2.5c-4,-1.8 -7,-5.4 -7.8,-9.8c-1.5,-8.4 4.9,-15.8 13.1,-15.8c3.5,0 6.6,1.4 8.8,3.7v-3.3h4.4zM192.5,137.7c1.2,-5.3 -2.8,-10 -8,-10c-4.5,0 -8.1,3.7 -8.1,8.1c0,5 4.4,8.9 9.6,8.1c3.2,-0.7 5.8,-3.1 6.5,-6.2z"></path><path d="M225.4,133.4v15.3h-5.2v-15.3c0,-3.2 -2.6,-5.8 -5.8,-5.8c-3.3,0 -5.8,2.6 -5.8,5.8v15.3h-5.2v-25.9h4.3v2.2c1.9,-1.7 4.3,-2.6 6.9,-2.6c6.1,0 10.8,5 10.8,11z"></path><path d="M255.9,148.7h-4.4v-3.3c-3.4,3.3 -8.8,4.9 -14.2,2.5c-4,-1.8 -7,-5.4 -7.8,-9.8c-1.5,-8.4 4.9,-15.8 13.1,-15.8c3.5,0 6.6,1.4 8.8,3.7v-3.3h4.4zM250.6,137.7c1.2,-5.3 -2.8,-10 -8,-10c-4.5,0 -8.1,3.7 -8.1,8.1c0,5 4.4,8.9 9.6,8.1c3.1,-0.7 5.7,-3.1 6.5,-6.2z"></path><path d="M59.2,124.3c-0.1,-1.1 -0.3,-2.3 -0.6,-3.7c-0.3,-1.4 -0.9,-2.8 -1.7,-4.4c-0.8,-1.5 -1.8,-3.2 -3.1,-4.7c-0.5,-0.6 -1.1,-1.2 -1.7,-1.8c0.9,-3.6 -1.1,-6.8 -1.1,-6.8c-3.5,-0.2 -5.7,1.1 -6.5,1.7c-0.1,-0.1 -0.3,-0.1 -0.4,-0.2c-0.6,-0.2 -1.2,-0.5 -1.8,-0.7c-0.6,-0.2 -1.3,-0.4 -1.9,-0.5c-0.6,-0.2 -1.3,-0.3 -2,-0.4c-0.1,0 -0.2,-0.1 -0.4,-0.1c-1.5,-4.8 -5.8,-6.9 -5.8,-6.9c-5,3.2 -5.9,7.5 -5.9,7.5c0,0 0,0.1 -0.1,0.2c-0.3,0.1 -0.5,0.2 -0.8,0.2c-0.4,0.1 -0.8,0.2 -1.1,0.4c-0.4,0.2 -0.8,0.3 -1.1,0.5c-0.8,0.4 -1.4,0.7 -2.2,1.1c-0.7,0.4 -1.4,0.8 -2,1.3c-0.1,-0.1 -0.2,-0.1 -0.2,-0.1c-6.7,-2.6 -12.6,0.5 -12.6,0.5c-0.5,7.2 2.7,11.6 3.3,12.4c-0.2,0.5 -0.3,0.9 -0.5,1.3c-0.5,1.6 -0.9,3.3 -1.1,4.9c-0.1,0.2 -0.1,0.5 -0.1,0.8c-6.2,3 -8,9.3 -8,9.3c5.1,5.9 11.2,6.3 11.2,6.3c0.8,1.4 1.6,2.7 2.6,3.9c0.4,0.5 0.9,1 1.3,1.5c-1.9,5.3 0.3,9.9 0.3,9.9c5.8,0.2 9.5,-2.5 10.3,-3.1l1.7,0.5c1.8,0.5 3.6,0.8 5.3,0.8h2.3c2.7,3.9 7.5,4.4 7.5,4.4c3.4,-3.6 3.6,-7.1 3.6,-7.9v-0.4c0.7,-0.5 1.4,-1 2.1,-1.6c1.4,-1.2 2.5,-2.6 3.5,-4.1c0.1,-0.1 0.2,-0.3 0.3,-0.4c3.8,0.2 6.5,-2.4 6.5,-2.4c-0.6,-4 -2.9,-5.9 -3.4,-6.3l-0.1,-0.1l-0.1,-0.1l-0.1,-0.1c0,-0.2 0.1,-0.5 0.1,-0.8c0.1,-0.5 0.1,-0.9 0.1,-1.3v-1.6c0,-0.1 0,-0.2 -0.1,-0.4l-0.1,-0.7c-0.1,-0.5 -0.2,-0.9 -0.2,-1.3c-0.4,-1.7 -1.1,-3.3 -1.9,-4.8c-0.9,-1.4 -2,-2.7 -3.2,-3.9c-1.2,-1.1 -2.6,-2 -4.1,-2.6c-1.4,-0.7 -2.9,-1.1 -4.5,-1.3c-0.8,-0.1 -1.5,-0.1 -2.3,-0.1h-1.1c-0.4,0.1 -0.8,0.1 -1.1,0.2c-1.5,0.3 -3,0.9 -4.2,1.6c-1.2,0.7 -2.3,1.7 -3.2,2.8c-0.9,1 -1.6,2.2 -2.1,3.5c-0.5,1.2 -0.8,2.5 -0.8,3.7v1.4c0,0.2 0,0.3 0.1,0.5c0.2,1.8 0.8,3.4 1.9,4.8c0.7,0.9 1.4,1.6 2.3,2.2c0.9,0.6 1.7,1 2.6,1.3c0.9,0.3 1.8,0.4 2.6,0.4h1.2c0.1,0 0.2,-0.1 0.3,-0.1c0.1,0 0.2,-0.1 0.3,-0.1c0.2,-0.1 0.4,-0.1 0.6,-0.2c0.4,-0.1 0.7,-0.3 1,-0.4c0.4,-0.2 0.6,-0.4 0.9,-0.5c0.1,-0.1 0.2,-0.1 0.2,-0.2c0.3,-0.2 0.3,-0.6 0.1,-0.9v0c-0.2,-0.2 -0.6,-0.3 -0.9,-0.2c-0.1,0.1 -0.1,0.1 -0.2,0.1c-0.2,0.1 -0.5,0.2 -0.8,0.3c-0.3,0.1 -0.6,0.2 -0.9,0.2c-0.2,0 -0.3,0.1 -0.5,0.1h-1c0,0 -0.1,0 0,0h-0.2c-0.1,0 -0.2,0 -0.2,-0.1c-0.6,-0.1 -1.3,-0.3 -1.9,-0.6c-0.6,-0.3 -1.3,-0.7 -1.8,-1.2c-0.6,-0.5 -1,-1.1 -1.4,-1.8c-0.4,-0.7 -0.6,-1.4 -0.8,-2.2c-0.1,-0.4 -0.1,-0.8 -0.1,-1.2v-0.4v-0.3c0,-0.2 0.1,-0.4 0.1,-0.6c0.3,-1.8 1.2,-3.4 2.5,-4.6c0.4,-0.4 0.7,-0.6 1.1,-0.9c0.4,-0.3 0.8,-0.5 1.2,-0.7c0.4,-0.2 0.9,-0.4 1.3,-0.5c0.5,-0.1 0.9,-0.2 1.4,-0.2c0.2,0 0.5,-0.1 0.7,-0.1h0.5h0.2c1.5,0.1 3,0.6 4.3,1.3c1.8,1 3.4,2.6 4.3,4.4c0.5,0.9 0.8,1.9 1,3c0.1,0.3 0.1,0.5 0.1,0.8v1.5c0,0.3 -0.1,0.6 -0.1,0.9c-0.1,0.3 -0.1,0.6 -0.1,0.9l-0.2,0.9c-0.1,0.3 -0.4,1.1 -0.5,1.7c-0.2,0.6 -1,2.1 -1.7,3c-1.4,1.9 -3.2,3.4 -5.3,4.4c-1.1,0.5 -2.2,0.9 -3.3,1c-0.6,0.1 -1.1,0.2 -1.7,0.2h-0.9h-0.1c-0.3,0 -0.6,0 -0.9,-0.1c-1.3,-0.1 -2.5,-0.4 -3.6,-0.7c-1.2,-0.4 -2.3,-0.8 -3.4,-1.4c-2.2,-1.2 -4.1,-2.8 -5.7,-4.7c-0.8,-1 -1.4,-2 -2,-3.1c-0.6,-1.1 -1,-2.2 -1.3,-3.4c-0.3,-1.2 -0.5,-2.3 -0.6,-3.5v-1.8c0,-0.6 0.1,-1.2 0.2,-1.8c0.1,-0.6 0.2,-1.2 0.3,-1.8c0.1,-0.6 0.3,-1.2 0.5,-1.8c0.2,-0.6 0.8,-2.3 1.3,-3.4c1,-2.2 2.3,-4.1 3.9,-5.7c0.4,-0.4 0.8,-0.8 1.3,-1.1c0.2,-0.2 0.6,-0.5 1,-0.8c0.5,-0.3 0.9,-0.6 1.4,-0.8c0.2,-0.1 0.5,-0.2 0.8,-0.4c0.1,-0.1 0.2,-0.1 0.4,-0.2c0.1,-0.1 0.2,-0.1 0.4,-0.2c0.5,-0.2 1,-0.4 1.5,-0.6c0.1,-0.1 0.3,-0.1 0.4,-0.1c0.1,-0.1 0.3,-0.1 0.4,-0.1c0.1,-0.1 0.5,-0.1 0.8,-0.2c0.1,-0.1 0.3,-0.1 0.4,-0.1c0.1,0 0.3,-0.1 0.4,-0.1c0.1,0 0.3,-0.1 0.4,-0.1l0.5,-0.1c0.1,0 0.3,-0.1 0.4,-0.1c0.2,0 0.3,-0.1 0.5,-0.1c0.1,0 0.4,-0.1 0.5,-0.1c0.1,0 0.2,0 0.3,-0.1h0.4c0.2,0 0.3,0 0.5,-0.1h0.2c0,0 0.1,0 0,0h2.1c1,0.1 2.1,0.2 3,0.4c1.9,0.3 3.7,1 5.5,1.8c1.6,0.8 3.1,1.8 4.4,2.9c0.1,0.1 0.2,0.1 0.2,0.2c0.1,0.1 0.2,0.1 0.2,0.2c0.2,0.1 0.3,0.3 0.5,0.4c0.2,0.1 0.3,0.3 0.5,0.4c0.1,0.2 0.3,0.3 0.4,0.5c1.5,1.6 2.8,3.3 3.8,5.3c0.1,0.1 0.1,0.1 0.1,0.2c0.1,0.1 0.1,0.1 0.1,0.2c0.1,0.1 0.1,0.3 0.2,0.4c0.1,0.1 0.1,0.3 0.2,0.4c0.1,0.1 0.1,0.3 0.2,0.4c0.2,0.5 0.4,1 0.6,1.5c0.3,0.8 0.5,1.5 0.6,2.1c0.1,0.2 0.3,0.4 0.5,0.4c0.3,0 0.5,-0.2 0.5,-0.5c-0.1,0.1 -0.1,-0.6 -0.1,-1.5z"></path></g></g></g></svg>