<?xml version="1.0" standalone="no"?>
<!DOCTYPE svg PUBLIC "-//W3C//DTD SVG 1.0//EN" "http://www.w3.org/TR/2001/REC-SVG-20010904/DTD/svg10.dtd">
<svg xmlns="http://www.w3.org/2000/svg" xmlns:xlink="http://www.w3.org/1999/xlink" id="body_1" width="256" height="192">

<g transform="matrix(0.75 0 0 0.75 32.000008 -0)">
    <path d="M245.2 113.4C 244.7 109.1 244.09999 104.1 242.7 98.700005C 241.3 93.3 239.09999 87.4 236.09999 81C 232.9 74.9 229.09999 68.3 223.9 62.2C 221.9 59.7 219.59999 57.4 217.29999 54.9C 220.9 40.6 213 28 213 28C 199.2 27.1 190.5 32.3 187.3 34.6C 186.8 34.399998 186.2 34.1 185.7 33.899998C 183.4 32.999996 180.9 32.1 178.4 31.199997C 175.9 30.499996 173.4 29.599997 170.9 29.199997C 168.4 28.499996 165.7 28.099997 163 27.599997C 162.5 27.599997 162.1 27.399996 161.6 27.399996C 155.6 8.1 138.4 0 138.4 0C 118.59999 12.6 114.799995 29.7 114.799995 29.7C 114.799995 29.7 114.799995 30.2 114.6 30.6C 113.5 30.800001 112.6 31.300001 111.4 31.5C 110 32 108.4 32.4 107.1 33.1C 105.7 33.8 104.1 34.199997 102.799995 34.899998C 99.799995 36.3 97.1 37.6 94.2 39.199997C 91.5 40.699997 88.799995 42.399998 86.299995 44.199997C 85.799995 43.999996 85.6 43.699997 85.6 43.699997C 59 33.499996 35.399998 45.699997 35.399998 45.699997C 33.3 74.2 46 91.8 48.5 95C 47.8 96.8 47.4 98.4 46.7 100.2C 44.7 106.6 43.2 113.2 42.4 119.899994C 42.2 120.799995 42.2 121.899994 41.9 122.899994C 17.300001 134.9 10.100002 160 10.100002 160C 30.500002 183.6 54.7 185.1 54.7 185.1C 57.7 190.5 61.2 195.70001 65.1 200.5C 66.7 202.5 68.5 204.4 70.299995 206.4C 62.799995 227.7 71.399994 245.7 71.399994 245.7C 94.299995 246.59999 109.399994 235.7 112.49999 233.2L112.49999 233.2L119.299995 235.2C 126.299995 237 133.59999 238.2 140.59999 238.4L140.59999 238.4L149.9 238.4C 160.59999 253.79999 179.7 255.9 179.7 255.9C 193.09999 241.59999 194 227.7 194 224.5L194 224.5L194 223.1C 196.7 221.1 199.4 219 202.2 216.8C 207.59999 212 212.2 206.40001 216.3 200.5C 216.8 200 217 199.4 217.40001 198.9C 232.6 199.79999 243.40001 189.4 243.40001 189.4C 240.90001 173.5 231.8 165.79999 230.00002 164.29999L230.00002 164.29999L229.80002 164.09999L229.60002 163.9L229.40002 163.7C 229.40002 162.8 229.60002 161.9 229.60002 160.7C 229.80002 158.9 229.80002 157.3 229.80002 155.5L229.80002 155.5L229.80002 149C 229.80002 148.5 229.80002 148.1 229.60002 147.6L229.60002 147.6L229.10002 144.90001C 228.90002 143.1 228.40002 141.50002 228.20003 139.70001C 226.60002 133.00002 224.00003 126.60001 220.50003 120.60001C 216.90002 114.90002 212.60004 109.70001 207.60004 105.20001C 202.70004 100.90001 197.20004 97.40001 191.30003 94.80001C 185.60004 92.20001 179.60004 90.50001 173.40004 89.80001C 170.40004 89.30001 167.30003 89.30001 164.30003 89.30001L164.30003 89.30001L159.80003 89.30001C 158.20003 89.50001 156.60004 89.80001 155.30003 90.00001C 149.20003 91.100006 143.50003 93.40001 138.50003 96.30001C 133.50003 99.20001 129.20003 103.10001 125.60003 107.40001C 122.10003 111.50001 119.300026 116.20001 117.40003 121.20001C 115.60003 126.000015 114.40003 131.20001 114.200035 135.90001L114.200035 135.90001L114.200035 141.3C 114.200035 142 114.200035 142.40001 114.40003 143.1C 115.10003 150.1 117.700035 156.70001 121.90003 162.40001C 124.60003 166.00002 127.60003 168.70001 131.00003 171.00002C 134.40002 173.30002 137.80003 174.90001 141.40002 176.00002C 145.00003 177.10002 148.40002 177.60002 151.60002 177.40001L151.60002 177.40001L156.30002 177.40001C 156.80002 177.40001 157.20001 177.20001 157.40002 177.20001C 157.90002 177.20001 158.10002 177.00002 158.50003 177.00002C 159.20003 176.80002 160.10004 176.50002 160.80003 176.30002C 162.20003 175.80002 163.50003 175.20001 164.90004 174.70001C 166.30003 174.00002 167.40004 173.30002 168.30003 172.70001C 168.50003 172.50002 169.00003 172.20001 169.20003 172.00002C 170.30003 171.10002 170.50003 169.50002 169.70003 168.40001C 169.70003 168.40001 169.70003 168.40001 169.70003 168.3C 168.80003 167.40001 167.50003 167.2 166.30003 167.6C 166.10004 167.8 165.80003 167.8 165.40004 168.1C 164.50005 168.6 163.50005 169 162.40004 169.20001C 161.30003 169.40001 160.10004 169.90001 159.00005 170.1C 158.30005 170.1 157.90004 170.3 157.20004 170.3L157.20004 170.3L153.40004 170.3C 153.40004 170.3 153.20004 170.3 153.40004 170.3L153.40004 170.3L152.50005 170.3C 152.30005 170.3 151.80005 170.3 151.60005 170.1C 149.10005 169.6 146.40005 169 143.90005 167.8C 141.40005 166.7 138.90005 165.1 136.90005 163C 134.60005 161 132.80005 158.7 131.20006 156C 129.60005 153.3 128.70006 150.3 128.20006 147.4C 128.00006 145.79999 127.70006 144.2 128.00006 142.59999L128.00006 142.59999L128.00006 141.2L128.00006 140.09999C 128.00006 139.2 128.20006 138.49998 128.50006 137.59999C 129.70006 130.59999 133.10007 124.09999 138.30006 119.19999C 139.70006 117.79999 141.00006 116.69999 142.60007 115.79999C 144.20007 114.69999 145.80006 113.79999 147.40007 113.09999C 149.00008 112.399994 150.80006 111.69999 152.60007 111.29999C 154.40007 110.79999 156.20007 110.39999 158.00006 110.39999C 158.90005 110.39999 159.80006 110.19999 160.70006 110.19999L160.70006 110.19999L162.50006 110.19999L163.40005 110.19999C 169.50006 110.69999 175.30005 112.49999 180.60005 115.39999C 187.90005 119.499985 194.00005 125.59998 197.60005 133.09999C 199.40005 136.7 200.80005 140.79999 201.50005 145.09999C 201.70004 146.2 201.70004 147.09999 202.00005 148.29999L202.00005 148.29999L202.00005 154.19998C 202.00005 155.29999 201.80005 156.49998 201.80005 157.59998C 201.60005 158.69998 201.60005 159.89998 201.30005 160.99997L201.30005 160.99997L200.60005 164.39996C 200.40005 165.49997 199.20006 168.69997 198.60005 170.99997C 197.90005 173.29997 194.70006 179.39996 192.00005 182.99997C 186.50005 190.49997 179.20004 196.49997 170.70004 200.49997C 166.40004 202.29997 162.10004 203.89996 157.50005 204.59998C 155.30005 205.09998 153.00005 205.29997 150.70004 205.29997L150.70004 205.29997L147.30005 205.29997L146.90005 205.29997C 145.80005 205.29997 144.40005 205.29997 143.30005 205.09998C 138.30005 204.59998 133.50005 203.69998 128.80005 202.39998C 124.000046 200.99998 119.500046 199.19998 115.20005 196.99998C 106.60005 192.29999 98.900055 185.99998 92.70005 178.39998C 89.70005 174.49998 87.00005 170.49998 84.80005 166.19998C 82.500046 161.89998 80.90005 157.29999 79.60005 152.79999C 78.30005 148.19998 77.50005 143.49998 77.30005 138.69998L77.30005 138.69998L77.30005 131.69998C 77.30005 129.39998 77.500046 126.89998 78.000046 124.39998C 78.20004 121.89998 78.70004 119.599976 79.100044 117.099976C 79.500046 114.599976 80.20004 112.29997 80.90005 109.79997C 81.60005 107.29997 83.90005 100.49997 85.90005 96.199974C 90.000046 87.599976 95.20005 79.89998 101.30005 73.699974C 102.90005 72.099976 104.500046 70.699974 106.30005 69.39997C 107.000046 68.699974 108.60005 67.39997 110.40005 66.199974C 112.20005 65.099976 114.000046 63.899975 116.100044 62.999973C 117.000046 62.499973 117.90005 62.09997 119.100044 61.59997C 119.600044 61.39997 120.000046 61.09997 120.70004 60.89997C 121.20004 60.69997 121.600044 60.39997 122.30004 60.19997C 124.30004 59.29997 126.40004 58.59997 128.40004 57.89997C 128.90004 57.69997 129.50005 57.69997 130.00005 57.39997C 130.50005 57.19997 131.10005 57.19997 131.60005 56.89997C 132.10005 56.69997 133.60005 56.39997 134.80005 55.99997C 135.30005 55.79997 135.90005 55.79997 136.40005 55.49997C 136.90005 55.49997 137.50006 55.29997 138.00006 55.29997C 138.50006 55.29997 139.10007 55.099968 139.60007 55.099968L139.60007 55.099968L141.40007 54.599968C 141.90007 54.599968 142.50008 54.399967 143.00008 54.399967C 143.70007 54.399967 144.10008 54.199966 144.80008 54.199966C 145.30008 54.199966 146.20007 53.999966 146.60008 53.999966C 147.00009 53.999966 147.30008 53.999966 147.70009 53.799965L147.70009 53.799965L149.3001 53.799965C 150.00009 53.799965 150.4001 53.799965 151.1001 53.599964L151.1001 53.599964L152.00009 53.599964C 152.00009 53.599964 152.20009 53.599964 152.00009 53.599964L152.00009 53.599964L160.40009 53.599964C 164.50009 53.799965 168.60008 54.299965 172.40009 54.999966C 180.00009 56.299965 187.30008 58.799965 194.20009 62.299965C 200.60008 65.39996 206.50009 69.299965 211.90009 73.89996C 212.10008 74.09996 212.60008 74.39996 212.80008 74.799965C 213.00008 74.99996 213.50008 75.299965 213.70007 75.69997C 214.40007 76.19997 214.80008 76.799965 215.50008 77.299965C 216.20007 77.799965 216.60008 78.39996 217.30008 78.89996C 217.80008 79.59996 218.40009 79.99996 218.90009 80.69997C 225.00009 86.89996 230.00009 93.99997 233.90009 101.799965C 234.10008 101.99996 234.10008 102.299965 234.40009 102.69997C 234.60008 102.89996 234.60008 103.19997 234.90009 103.59997C 235.10008 103.99997 235.40009 104.69997 235.80008 105.19997C 236.00008 105.69997 236.30008 106.299965 236.50008 106.799965C 236.70007 107.299965 237.00008 107.89996 237.20007 108.39996C 238.10007 110.39996 238.80008 112.49996 239.50008 114.49996C 240.60008 117.69996 241.30008 120.39996 242.00008 122.69996C 242.30008 123.59996 243.10008 124.29996 244.00008 124.29996C 245.10008 124.29996 245.80008 123.399956 245.80008 122.29996C 245.4 119.7 245.4 116.8 245.2 113.4z" stroke="none" fill="#5D5D5D" fill-rule="nonzero" />
</g>
</svg>