<svg version="1.1" xmlns="http://www.w3.org/2000/svg" xmlns:xlink="http://www.w3.org/1999/xlink" width="256px" height="256px" viewBox="0,0,256,256"><g transform="translate(38.4,38.4) scale(0.7,0.7)"><g fill="#5d5d5d" fill-rule="nonzero" stroke="none" stroke-width="1" stroke-linecap="butt" stroke-linejoin="miter" stroke-miterlimit="10" stroke-dasharray="" stroke-dashoffset="0" font-family="none" font-weight="none" font-size="none" text-anchor="none" style="mix-blend-mode: normal"><g transform="translate(-0.09841,3.05)"><path d="M101.3,116.2c-2.3,-1.6 -7.6,-2.2 -11.7,-1.4c-0.5,-4 -2.7,-7.5 -6.5,-10.6l-2.2,-1.6l-1.5,2.3c-1.9,3 -2.9,7.2 -2.6,11.2c0.1,1.4 0.6,3.9 2,6.1c-1.4,0.8 -4.1,1.8 -7.8,1.8h-69.2l-0.2,0.8c-0.7,4 -0.7,16.5 7.2,26.1c6,7.3 14.7,11 26.4,11c25.1,0 43.7,-12.1 52.4,-33.9c3.4,0.1 10.8,0 14.6,-7.5c0.1,-0.2 0.3,-0.6 1,-2.1l0.4,-0.8l-2.3,-1.4zM57.2,88h-10.6v10h10.6v-10zM57.2,100h-10.6v10h10.6v-10zM44.7,100h-10.5v10h10.6v-10zM32.3,100h-10.6v10h10.6v-10zM19.8,112h-10.6v10h10.6v-10zM32.3,112h-10.6v10h10.6v-10zM44.7,112h-10.5v10h10.6v-10zM57.2,112h-10.6v10h10.6v-10zM69.6,112h-10.5v10h10.6v-10z"></path><path d="M123.8,119.9v22.1v0.1v0.2c0,3.5 -1.2,6.5 -3.7,9c-2.5,2.5 -5.5,3.8 -9,3.8c-3.5,0 -6.5,-1.3 -9,-3.8c-2.5,-2.5 -3.7,-5.5 -3.7,-9c0,-3.5 1.2,-6.5 3.7,-9c2.5,-2.5 5.5,-3.7 9,-3.7c2.9,0 5.6,0.9 7.9,2.7v-12.4c0,-0.7 0.2,-1.3 0.7,-1.8c0.5,-0.5 1.1,-0.7 1.7,-0.7c0.6,0 1.2,0.3 1.7,0.8c0.5,0.4 0.7,1 0.7,1.7zM105.7,147.6c1.5,1.5 3.3,2.2 5.3,2.2c2.1,0 3.8,-0.7 5.3,-2.2c1.5,-1.5 2.2,-3.3 2.2,-5.3c0,-2 -0.7,-3.8 -2.2,-5.3c-1.5,-1.5 -3.2,-2.2 -5.3,-2.2c-2.1,0 -3.9,0.7 -5.3,2.2c-1.5,1.5 -2.2,3.2 -2.2,5.3c0,2.1 0.8,3.9 2.2,5.3z"></path><path d="M140,155c-3.5,0 -6.5,-1.2 -9,-3.7c-2.5,-2.5 -3.7,-5.5 -3.7,-9c0,-3.5 1.2,-6.5 3.7,-9c2.5,-2.5 5.5,-3.7 9,-3.7c3.5,0 6.5,1.3 9,3.8c2.5,2.5 3.7,5.5 3.7,9c0,3.5 -1.2,6.5 -3.7,9c-2.5,2.4 -5.5,3.6 -9,3.6zM134.6,147.6c1.5,1.5 3.3,2.2 5.3,2.2c2.1,0 3.8,-0.7 5.3,-2.2c1.5,-1.5 2.2,-3.3 2.2,-5.3c0,-2 -0.7,-3.8 -2.2,-5.3c-1.5,-1.5 -3.2,-2.2 -5.3,-2.2c-2.1,0 -3.9,0.7 -5.3,2.2c-1.5,1.5 -2.2,3.2 -2.2,5.3c0,2.1 0.8,3.9 2.2,5.3z"></path><path d="M168.3,155c-3.5,0 -6.6,-1.3 -9.1,-3.8c-2.5,-2.5 -3.8,-5.5 -3.8,-9.1c0,-3.5 1.3,-6.6 3.8,-9.1c2.5,-2.5 5.5,-3.8 9.1,-3.8c3,0 5.6,0.9 7.9,2.7c0.6,0.5 0.9,1.1 1,1.8c0.1,0.7 -0.1,1.4 -0.5,1.9c-0.5,0.6 -1,0.9 -1.7,1c-0.7,0.1 -1.3,-0.1 -1.9,-0.6c-1.4,-1 -3,-1.6 -4.7,-1.6c-2.1,0 -3.9,0.7 -5.3,2.2c-1.5,1.5 -2.2,3.3 -2.2,5.3c0,2.1 0.7,3.9 2.2,5.4c1.5,1.5 3.3,2.2 5.3,2.2c1.8,0 3.3,-0.5 4.7,-1.6c0.6,-0.4 1.2,-0.6 1.9,-0.5c0.7,0.1 1.3,0.4 1.7,1c0.5,0.6 0.6,1.2 0.5,1.9c-0.1,0.7 -0.4,1.3 -1,1.8c-2.3,2 -4.9,2.9 -7.9,2.9z"></path><path d="M201.7,150.5c0.5,0.5 0.7,1.1 0.7,1.8c0,0.7 -0.3,1.3 -0.8,1.8c-0.6,0.5 -1.2,0.7 -1.8,0.7c-0.8,0 -1.4,-0.3 -1.9,-0.8l-9.3,-10.1l-1.9,1.4v6.8c0,0.7 -0.3,1.3 -0.8,1.8c-0.5,0.5 -1.1,0.8 -1.8,0.8c-0.7,0 -1.3,-0.3 -1.8,-0.8c-0.5,-0.5 -0.8,-1.1 -0.8,-1.8v-32.3c0,-0.7 0.3,-1.3 0.8,-1.8c0.5,-0.5 1.1,-0.8 1.8,-0.8c0.7,0 1.3,0.3 1.8,0.8c0.5,0.5 0.8,1.1 0.8,1.8v18.9l11.3,-8.7c0.6,-0.5 1.2,-0.6 2,-0.5c0.7,0.1 1.3,0.4 1.7,1c0.5,0.6 0.6,1.2 0.5,1.9c-0.1,0.7 -0.5,1.3 -1.1,1.8l-8.4,6.4z"></path><path d="M226.4,143.9c-0.1,0 -0.2,0.1 -0.4,0.1l-17,0.1c0.4,1.6 1.2,3 2.4,4c1.3,1 2.8,1.7 4.6,1.9c3,0.4 5.7,-0.3 7.9,-2c1.7,-0.6 2.8,-0.3 3.3,0.9c0.5,1.3 0.1,2.4 -1.4,3.3c-2.5,2.2 -6,3.1 -10.5,2.7c-3.4,-0.4 -6.2,-1.7 -8.4,-4.2c-2.2,-2.4 -3.2,-5.3 -3.2,-8.6c0,-3.5 1.2,-6.5 3.7,-9c2.5,-2.5 5.5,-3.7 9,-3.7c3.4,0 6.3,1.2 8.7,3.5c2.4,2.3 3.5,5.2 3.5,8.5c0,0.6 -0.2,1.1 -0.6,1.6c-0.5,0.5 -1,0.8 -1.6,0.9zM216.3,134.2c-1.8,0 -3.4,0.5 -4.8,1.6c-1.4,1.1 -2.2,2.6 -2.6,4.4l14.3,-0.1c-0.3,-1.8 -1,-3.2 -2.3,-4.3c-1.2,-1 -2.7,-1.6 -4.6,-1.6z"></path><path d="M237.3,154.1c-0.5,0.5 -1.1,0.8 -1.8,0.8c-0.7,0 -1.3,-0.3 -1.8,-0.8c-0.5,-0.5 -0.8,-1.1 -0.8,-1.8v-11.8c0,-3.1 1.1,-5.7 3.3,-7.9c2.2,-2.2 4.8,-3.3 7.9,-3.3c2.4,0 4.6,0.7 6.5,2.1c1.9,1.4 3.3,3.2 4.1,5.5c0.3,0.7 0.2,1.3 -0.1,2c-0.3,0.6 -0.8,1.1 -1.5,1.3c-0.7,0.2 -1.4,0.2 -2,-0.2c-0.6,-0.3 -1.1,-0.8 -1.3,-1.5c-0.4,-1.2 -1.1,-2.2 -2.1,-2.9c-1,-0.7 -2.2,-1.1 -3.4,-1.1c-1.6,0 -3,0.6 -4.2,1.7c-1.2,1.2 -1.7,2.6 -1.7,4.2v11.8c-0.4,0.8 -0.6,1.4 -1.1,1.9z"></path></g></g></g></svg>