<svg version="1.1" xmlns="http://www.w3.org/2000/svg" xmlns:xlink="http://www.w3.org/1999/xlink" width="256px" height="256px" viewBox="0,0,256,256"><g transform="translate(51.2,51.2) scale(0.6,0.6)"><g fill="#5d5d5d" fill-rule="nonzero" stroke="none" stroke-width="1" stroke-linecap="butt" stroke-linejoin="miter" stroke-miterlimit="10" stroke-dasharray="" stroke-dashoffset="0" font-family="none" font-weight="none" font-size="none" text-anchor="none" style="mix-blend-mode: normal"><g transform="translate(0.07059,0.06133)"><path d="M113.4,68.3c3,-5.3 -12.3,-7.1 -2,-1.9c1,0.4 0.8,2.3 2,1.9zM29.9,23.4c-6.5,-8.5 12.2,1.4 5.6,-7.5c-5.5,-4.4 -10.8,5 -5.6,7.5zM43.6,34.1c9.2,-1.2 -2.3,-4 -1.9,-0.1zM36.3,32.3c1.9,-2.7 -3.5,1.4 0,0zM51,48.5c5.7,0.1 -2.5,-7.7 4.4,-4.2c-1.1,-3.7 -8,-4.3 -11.3,-5.8c-1.9,3.4 3.8,10 6.9,10zM33.1,47.8c4.9,-3.7 16.9,2.2 9.2,-3.7c-0.7,-0.7 -16.9,4.4 -9.2,3.7zM28.1,57.4c8.6,-2.9 20.3,-6.2 24.4,1.4c-4.1,-5 -1.7,-9.9 2.2,-2.6c5.5,7.3 8.3,-3.3 4.7,-5.8c4.1,5.1 8.7,7.5 2.7,0.3c6.5,-7.8 -13,1 -17.5,0.9c-2.1,1 -22,5.2 -16.5,5.8zM44.1,84.2c2.1,-2.6 -2.9,-0.7 0,0zM39.1,97.6c-0.5,-3.1 -1.5,1.7 0,0zM34.8,95.5c4.8,-0.3 7.5,-5.3 -0.9,-5c-13.1,-1.4 11.6,4.5 -1.7,2.8c-1.8,1.2 2.5,2.5 2.6,2.2zM239.9,225.6c5.9,0 18,-1.8 5.1,-1.8c-2.1,0.3 -11.9,0.2 -5.1,1.8zM211.3,208.9c0.7,-4.3 -2.9,0.4 0,0zM233.7,224.2c0.2,-3.8 -3.2,1.7 0,0zM13.8,86.7c4.3,-3.3 -5,-1.3 0,0zM30,98.2c2.6,-2.8 -5.7,-1.2 0,0zM24.5,96.6c7.4,-4.5 -7.9,-3.9 0,0zM79.6,61.9c2.5,-6.5 9.7,-2.6 1.2,-1.3c0.1,0.7 -0.3,3.4 -1.2,1.3zM72.6,62c-0.5,-13 12.1,4.6 0,0zM48.7,65.7c3.9,-4.7 22.3,-3 8.9,-0.5c-3.7,-2.7 -6.4,1.6 -8.9,0.5zM47,66.8c2.4,-2.8 0.7,2.4 0,0zM40.5,69.4c0.3,-4.4 10.9,2.3 1.7,1.6zM35.8,69.3c3.7,-2.8 2,1.6 0,0zM35.3,73.9c2.6,-9.5 13.9,7.8 4.2,1.3c-1,-0.8 -2.3,-1.3 -3.8,-1.3c-0.1,0 -0.3,0 -0.4,0v0zM8.7,87.6c-1,-5.7 -0.9,-15.7 8.6,-12.3c-12.7,2.5 8.8,15.8 6.1,5.3c5.3,0.3 10.5,-3.2 7.6,2c10.5,-1.2 17.8,-10.3 28,-9c9.2,-0.8 17.8,-2.6 25.9,-5.2l-0.8,0.2c7,-0.5 13.8,-8.1 9.9,-12.5c-1.9,-0.1 -4,-0.2 -6.2,-0.2c-8.5,0 -16.7,1 -24.6,2.8l0.7,-0.1c-11.7,2.4 -22.3,7.1 -34.2,9.1c-11.5,1.5 2.3,4.3 -1,4.9c-6,2.1 7.2,3.5 -0.8,5.7c-4.9,-0.9 -10,-2.6 -7.9,-7.8c-11,1.4 -20.7,6 -12,17.2l0.7,-0.1zM27.2,100c0.6,-4.1 -4.4,0.8 0,0zM221.2,225.3c1.4,-4.1 -3.5,0.6 0,0zM200.2,214.4c3.5,-3.2 -4.5,-1 0,0zM25.9,106.8c5.5,-2.2 -10,-4.5 -1.1,-0.4zM12.8,99c-0.3,-3.4 -2,0.4 0,0zM10.5,100.8c-0.2,-2.9 -1.5,1.1 0,0zM26.3,111.1c-0.7,-6.3 -8.9,-1 0,0zM57,133.8c1.3,-1.2 -3,-0.9 0,0zM29.3,116c-1.3,-1.1 -1,1.2 0,0zM24.9,113.8c0.1,-2.7 -7.1,-2.4 0,0zM17.1,111.8c-1.4,-8.2 -5.6,-1.2 0,0zM49.5,134.3c0.1,-4.3 -3.4,-0.1 0,0zM196,225.6c5.5,-1.1 17.9,2.8 19.9,-1.5c-6.6,-0.2 -22.9,-4.7 -23.7,1.1l1.5,0.2zM45.6,133.3c-0.1,-1.4 -1.3,0.6 0,0zM33.3,127.4c4.2,-1.5 -3.9,-1 0,0zM131.8,193.9c-0.1,-4.3 -4.2,1.1 0,0zM35.9,133.4c6.6,-2.5 -7.1,-1.8 0,0zM164.1,215.8c2.3,-1.7 -2.8,-0.2 0,0zM140,200.7c-0.4,-1.7 -1.6,0.3 0,0zM137.1,198.6c-1.1,-3 -4.5,-0.1 0,0zM76.6,160.4c0,-4.4 -7.9,-1.8 0,0zM69.5,158.8c-2.9,-2.5 -0.2,-0.4 0,0zM23.4,130.2c1,-4.1 -9.1,-22.5 -4.8,-9.2c1.6,2.8 1.4,8.1 4.8,9.2zM48.5,150.1c5.5,1.2 22,13.6 12.3,0.9c-5,-1.5 -2,-13.7 -7.1,-11.5c3.4,5.7 2.8,8.1 -4.4,4.5c-9,-4.4 -5.1,2.2 -3.3,4c-2.4,0.5 3.2,2 2.5,2.1zM186.7,239.1c4.1,-2.7 -5,-0.9 0,0zM172,229.2c6.1,-5.1 -6.5,2.3 0,0zM174.8,230.6c7.5,-5.4 -4.6,-1 -1.6,1zM90.6,180.7c-1.6,-3.2 -2.4,0.5 0,0zM85.7,177.8c-0.2,-2.5 -3.1,0.2 0,0zM165.4,228c5.9,-3.8 -1.3,-3.2 -1.1,0.3zM44.7,151.9c1.7,-2.5 -4.5,-0.3 0,0zM167.3,230.5c6.1,-5.2 -3.8,-1.1 0,0zM158.1,226.9c12.1,-7.8 -5,-3.4 0,0zM29.7,146.5c-5.6,-8 -3.5,-11.6 -8.9,-18.1c-1,-5 -9.3,-16.3 -4.3,-4.3c4.6,7 6,17.8 13.2,22.4zM160.2,229.1c6.5,-7 -6.4,0.4 0,0zM160.2,231.3c0,-1.5 -2.6,0.7 0,0zM147.7,222.9c6,-5 -5.8,2.2 0,0zM93.4,189.3c3.9,3.4 17.7,2.5 4.7,0.4c-2,-2.9 -12.3,-2.2 -4.7,-0.4zM53.7,165.4c-2.6,-4.2 -9.2,-3.8 0,0zM46.8,160.9c-1.1,-4.3 -7.5,-4.3 0,0zM150.2,225.8c3.5,-3.4 0.1,5.4 5.8,-0.8c0.1,-4.4 -0.2,-7 -6.5,-1.7c-1.7,0.9 -2.5,5 0.7,2.5zM143.7,223c0.2,-2.9 -2.1,2.6 0,0zM80.3,184.7c15.1,4.8 -7.4,-6 0,0zM67.9,177.6c3.6,2.7 13.6,7.7 5.2,1c2.9,-3.3 -5.5,-5.1 -2.7,-7.3c-7,-4.3 -5.5,-3.9 -0.6,-3.8c-8.5,-3.8 1.2,-3.5 0.7,-5.4c-3.3,-0.6 -16.2,-5.8 -8.6,0.4c-7.7,-3.9 -1.8,1.5 -4.2,0.9c-7.9,-2.1 7,6 -1.3,4c4.5,3.6 12.2,9.2 1.9,3.8c-1.3,1.9 7.4,4.9 9.6,6.4zM91.3,193.1c6.6,1.7 6.5,-1 0.6,-1.8c-3.2,-3 -13.3,-6.1 -4.3,-0.4c0.7,1.5 2.6,1.5 3.7,2.2zM79.5,187.1c-1.4,-1.2 0.2,0.7 0,0zM85.2,73.8c1,-1.3 0.3,1.4 0,0zM81.8,94.4c-2.3,-4.1 2.9,-17.8 3.5,-9.3c-2.4,6.7 -0.7,10.4 1,1.5c3.1,-7.2 -0.7,13.8 -4.5,7.8zM78.5,99.8c-0.6,-3.4 1.9,4.3 0,0zM80.5,105.2c-3.3,-8.2 3.1,4.4 0,0zM81.9,108.3c0,-1.8 0.5,2.6 0,0zM57.7,94.9c2.2,-4.6 4,5.2 0,0zM49.1,89.8c1.4,-0.6 0.8,1.8 0,0zM85.8,118.3c1.2,-10 1.1,5.9 0,0zM52.9,99.1c1.8,-2.6 -4.8,-11.9 0.9,-3.3c2.5,2 7.2,3.3 3,4.1c6.6,5.7 -1.5,1.6 -3.9,-0.8zM87.7,121.1c0.5,-8.8 2.6,-5.3 0,1.3zM49.6,102.2c4.4,-0.9 18.3,7.8 5.5,2.5c-1.3,-1.6 -4.4,-0.9 -5.5,-2.5zM90.1,130.1c1.4,-4.9 0.1,3.3 0,0zM72.1,118.6c-0.7,-8.6 1.7,1.4 0,0zM48.5,106.1c-7.4,-10.3 21.6,10.4 4.8,2.6c-1.8,-0.5 -3.9,-0.6 -4.8,-2.6zM89.6,133.9c0.6,-2.4 0.1,2.7 0,0zM91.7,136c0.5,-5.5 1.1,3.7 0,0zM79.5,128.7c-5,-3 -1.3,-21.1 0.4,-8.7c4.9,-1.6 -0.3,6.4 3.4,6.3c-0.7,5.1 -2.3,6.9 -3.8,2.4zM46.2,109.5c-11.6,-10.3 14.6,5.4 1.9,1.9zM53.6,116.6c-3.5,-6.6 4.3,2.7 0,0zM49.9,115.4c2.3,-2.3 1.2,2.2 0,0zM43.8,115.5c-4,-3.9 -6.9,-7.6 0.2,-2.4c2.7,0.1 -6,-8.3 0.6,-2.7c7.1,1.3 3.5,11.6 -0.8,5.1zM55.4,124.5c2.3,-4.9 3.9,6.7 0,0zM50.6,122.8c0.4,-6.4 2.4,4.4 0,0zM61.3,130.2c-2.2,-3.8 -3.6,-8.4 -3.6,-13.3v0v0c0.8,4 8.6,17.3 3.8,5.5c-5.3,-9.9 6.3,3.2 7.5,5.7c0.5,2.4 -3.3,-0.7 -0.7,5.1c-4.7,-6.6 -2.7,3.6 -7,-3zM96,153.3c-3.8,-8.4 2.7,-4.6 0.8,1.4zM75.9,146.9c-1.6,-3 3.5,2.7 0,0zM99.3,163.2c1.4,-5.5 1.7,4.5 0,0zM66.1,145.2c2.3,-0.7 1.1,4 0,0zM107.8,174c-4,-7.7 5,2.2 0,0zM111.2,178.6c-0.1,-5 1.1,3.8 0,0zM150.7,208.6c2.1,-0.1 0.2,1.5 0,0zM116.2,186.7c-3.2,-3.3 -4,-9.5 -0.6,-4.1c1.8,0.7 5.6,10.1 0.6,4.1zM126.8,216.6c8.2,-4.9 5.5,11.5 14,1.4c8.3,-6.1 -7.2,7.5 3.1,1.1c7.4,-5 18.4,2.3 25.3,4.7c5,-0.2 9.8,4.3 15,1.5c9.8,-2.7 -19.3,-3.9 -11.6,-8.6c-1.2,0.3 -2.5,0.4 -3.9,0.4c-6.9,0 -12.9,-3.7 -16.1,-9.2l-0.1,-0.1c-11.1,-1.8 -20.5,-7.8 -26.8,-16.3l-0.1,-0.1c-2,-3.4 3,0.5 -1.8,-5c-5.2,-5.2 -9.6,-11.2 -13,-17.7l-0.2,-0.4c-4.9,-2.6 -5.4,-10.3 -5.9,-0.3c0,-6.3 -5.9,-10.6 -7.3,-8.8c0,-6.1 6.3,-3 1.9,-7.5c-1,-6.3 -4.1,-12.9 -5.1,-20c-1.5,-3.4 -0.2,-10.8 -5,-3c-1.8,8.2 -0.6,-10.1 2.1,-4.1c3.6,-6.2 -1.3,-5.4 -1.5,-4.6c2.3,-5.2 1.5,-12.6 -0.6,-9.8c1.2,-5.5 2,-20.3 -1.9,-17.7c2.3,-5.8 4.4,-26.4 -5.7,-18.5c-5.3,0.2 -10.3,1.4 -14.8,3.3l0.2,-0.3c10.5,5.8 -1.1,2.1 -5.3,1.2c-0.6,5.3 -4.8,3 -10.1,3.1c8.5,1 -4.1,8.6 -9,5.7c-6.3,3 5.4,10.5 0.1,12.8c0.6,3.5 -9.6,-1.3 -8.8,6.8c-6.1,-2.6 -0.8,9.6 2.2,5.5c10.4,2.8 7.3,9.2 7.6,15.3c-1.7,3.5 -8.4,-8.3 -1.5,-7.8c-5.4,-8.8 -6,-3.2 -10.5,0.9c-1.1,0.3 11.5,5.8 3.6,8.6c6.9,1.1 7.1,7.1 8.5,11c4.2,4.3 3.3,-4.8 8.3,0.4c-3.2,-4.6 -16.7,-13.1 -5.8,-10.4c-0.1,-4.7 -2,-8.5 1.4,-8.4c3.3,-6 -3.5,14.8 4,7.2c2.1,-0.9 2.6,-6 6.3,0.5c5.4,5.3 1.9,9.1 -5.7,4.3c1.4,4.6 10.2,6.3 8.5,13.5c1.8,6.3 4.2,4 6.4,3.6c1.7,6.2 2.6,1.6 2.7,-1.3c7.7,1.7 5.9,6.2 8.3,9.4c5.3,2.4 -7.6,-16.2 1.5,-5.6c9.6,8.6 3.6,12.3 -5,10.9c5.4,-0.4 7.2,7.4 14,7.1c6.2,3 10.4,14.3 -0.3,9.6c-3.7,-3.3 -16.8,-7.5 -6.1,-1.1c10.9,4.5 19.9,8.9 28.6,13.7l-1.3,-0.7c6.8,4.9 9.8,10.5 12.4,11.6c-5.7,2.7 -17.3,-2.2 -8.7,-3.7c-5.4,-1 -11.4,-3.7 -6.3,3c4.4,3.7 15.5,3.3 17.5,3.7c-1.7,3.7 -4.6,4 0.1,4.3c-5.2,2.9 1.7,3.4 2.2,4.9zM96.1,197.8c8.8,1.1 -10.5,-6 -1.9,-0.6zM119.6,213.7c7.7,-3 -7.4,-1.5 0,0zM74.4,185.6c4.9,-0.5 -8,-3.3 0,0zM101.1,202.6c0.7,-2.7 -5.6,-0.8 0,0zM140.2,227.9c-0.1,-2.1 -1.9,0.8 0,0zM104.3,205.9c-1.2,-1.4 -0.5,0.3 0,0zM46.6,169.3c-0.8,-3.2 -7.2,-5.7 0,0zM68.5,183.5c6.8,-0.4 -9,-3 0,0zM87.2,196.8c-0.7,-2 -3.6,-0.1 0,0zM136.5,227.3c0.3,-3.9 -3.7,2.8 0,0zM67.5,184.8c-0.5,-2.1 -2.9,0.2 0,0zM117.1,216.3c11.5,0.1 -10.4,-1.5 0,0zM96,204.2c12.2,3.4 -10.2,-7.7 -3,-1.3l1.6,0.7l1.4,0.6zM106.5,212.5c2.1,-3.5 -8.7,-2 0,0zM71.9,191.4c5,3.8 20,0.5 7.6,-2.3c-5.6,-3 -18.4,-5.1 -9.7,1.8zM99.5,210.3c4.6,-1.7 -7.4,-1.7 0,0zM89.2,204c3.2,-2.2 -6.6,-1.7 0,0zM77,196.9c-0.5,-1.8 -6.7,-2 0,0zM118.8,229.4c4.2,2.7 24.7,5.9 11.9,1.1c-2.2,0.5 -23.8,-6.1 -11.9,-1.1zM92.4,213c-0.1,-1.8 -1.8,0.8 0,0zM87.2,210.4c5.2,-3.4 -6.7,-0.1 0,0zM110.3,226.5c2,-3 -6.5,-1.1 0,0zM98.3,219.8c3.3,-3.2 -5.2,-2 0,0zM91.2,216.9c-0.5,-2.9 -2.5,1.5 0,0zM85.6,214.8c2.3,-1 -3.3,-1.3 0,0zM43.4,177.5c0.3,-1.5 1.8,3.4 0,0zM73.1,210.2c10.3,3.8 0,-7.3 -4.8,-6.6c-2.1,-3.6 -8,-5.9 -3.8,-7.9c-7.5,2.6 -7.9,-9.9 -11.4,-8.1c-7.9,-2.5 -3.1,-11.4 -12.5,-16.8c-0.9,-5.8 -9.4,-10.7 -12.1,-19.4c-1.2,-4.4 -9.6,-17.2 -4.5,-5.3c5.5,11.8 11.8,22 18.9,31.4l-0.3,-0.4c4.6,10.1 11.5,18.4 19.9,24.7l0.2,0.1c3.1,2.9 6.1,7.4 10.4,8.3zM93.5,224.6c9.5,4.9 20.5,8.7 32,10.8l0.8,0.1c11.1,2.6 23.9,4 37,4c6.8,0 13.5,-0.4 20.1,-1.2l-0.8,0.1c-8.4,-3.8 -17.1,1.5 -25.5,-2.7c-3,0.3 -6.4,0.5 -10,0.5c-7.5,0 -14.8,-0.9 -21.8,-2.5l0.6,0.1c-13.9,-5.1 -25.5,-10.3 -36.6,-16.2l1.5,0.7c-13.6,-5 7,6.4 10.7,7.3c8.5,4.8 -9.3,-2.5 -11.9,-4.5c-7.1,-4 -8,-3.2 -0.7,0.9c1.6,0.9 3.1,1.8 4.6,2.6zM76.3,217.1c-10.5,-7.2 -19.5,-15.6 -27.1,-25.1l-0.2,-0.2c-14.3,-17.5 -25.9,-38 -33.9,-60.3l-0.5,-1.4c-4.6,-14.5 -6.2,-30 -12.4,-44c-1.2,-2.3 -2,-5 -2,-7.8c0,-8.3 6.1,-15.2 14,-16.4h0.1c4.9,-0.9 13.6,-5.6 3.1,-2.3c-9.4,6.9 -10.3,-6.2 -0.7,-7.1c4.2,0 7.5,-3.4 7.5,-7.6c0,-1.3 -0.3,-2.4 -0.8,-3.5v0c-7,-4.6 17.1,-9.6 4.9,-16.5c-12.5,-13.5 17.7,-16.1 10.3,-0.7c-1.8,11.9 21.1,-2.1 15.8,11.6c5.4,6.6 20.3,1.5 19.9,10.8c7.9,0.5 10.6,7.2 18,7.7c7.7,3.5 21.6,6.2 24.2,14.8c-7.6,6 -25.2,-12.4 -26,4.2c0.2,26.2 4.1,51.6 11.2,75.4l-0.5,-1.9c5.7,14.2 13.8,26.3 23.9,36.4v0c9.2,10.3 20.3,18.6 32.7,24.6l0.6,0.3c9.9,4.7 21.4,8.4 33.4,10.5l0.8,0.1c4.8,-3.7 13.2,-17.2 20.7,-11.5c0.3,6.4 -14.8,13.5 -0.7,12.8c8.3,-2.5 14,6.4 20.8,-1.6c6.3,7.4 26.1,-4.8 21.6,10.5c-6,3.9 -14.8,1.5 -20.9,6.9c-10,-5 -17.9,4.5 -28.9,3.3c-10.8,2 -23.3,3.1 -36.1,3.1c-0.4,0 -0.8,0 -1.1,0h0.1c-21.7,-0.4 -42.6,-3.8 -62.3,-9.8l1.6,0.4c-11.9,-4 -22.2,-9.3 -31.6,-15.9l0.5,0.2z"></path></g></g></g></svg>