<?xml version="1.0" encoding="utf-8"?>
<!-- Generator: Adobe Illustrator 24.0.1, SVG Export Plug-In . SVG Version: 6.00 Build 0)  -->
<svg version="1.1" id="Layer_1" xmlns="http://www.w3.org/2000/svg" xmlns:xlink="http://www.w3.org/1999/xlink" x="0px" y="0px"
	 viewBox="0 0 256 256" style="enable-background:new 0 0 256 256;" xml:space="preserve">
<style type="text/css">
	.st0{fill:#646464;}
	.st1{fill:#C3C3C3;}
</style>
<path class="st0" d="M108.1,232.6c-59.6,0-108-48.5-108-108c0-59.6,48.5-108,108-108c23.2,0,45.4,7.3,64,21l-22.6,30.7
	c-12-8.9-26.3-13.6-41.5-13.6c-38.6,0-69.9,31.4-69.9,69.9s31.4,69.9,69.9,69.9c0.8,0,1.6,0,2.3,0l1.3,38.1
	C110.5,232.6,109.3,232.6,108.1,232.6z"/>
<path class="st0" d="M216.1,124.6H178c0-17.1-6.3-33.7-17.7-46.5l28.4-25.3C206.4,72.6,216.1,98.1,216.1,124.6z"/>
<polygon class="st0" points="83.8,129.3 146.3,129.3 255.9,239.3 194.2,239.3 "/>
<path class="st1" d="M11,77.4l33.9,17.2c-2.7,5.7-9.2,21.3-5.9,41.4c3.8,22.8,17.7,36.4,22.1,40.4c-3.3-0.8-38.8-10.5-51.7-45.5
	C-0.1,105.3,8.7,82.8,11,77.4z"/>
</svg>
