<?xml version="1.0" standalone="no"?>
<!DOCTYPE svg PUBLIC "-//W3C//DTD SVG 1.0//EN" "http://www.w3.org/TR/2001/REC-SVG-20010904/DTD/svg10.dtd">
<svg xmlns="http://www.w3.org/2000/svg" xmlns:xlink="http://www.w3.org/1999/xlink" id="body_1" width="102" height="77" viewBox="0 0 102 77">

<g transform="matrix(0.30078125 0 0 0.30078125 12.5 -0)">
    <path d="M237.5 104.8C 243.3 87.4 241.3 68.3 232 52.500004C 218.1 28.200005 190 15.800003 162.7 21.600004C 138.8 -4.9 98 -7.1 71.5 16.8C 63 24.3 56.8 34 53.3 44.7C 35.3 48.4 19.8 59.6 10.700001 75.6C -3.3999996 99.8 -0.19999886 130.4 18.6 151.2C 12.8 168.59999 14.8 187.7 24 203.5C 38 227.8 66 240.3 93.4 234.4C 105.6 248.09999 123.100006 255.9 141.4 255.79999C 169.4 255.79999 194.29999 237.69998 202.9 210.99998C 220.9 207.29999 236.4 196.09999 245.5 180.09999C 259.4 155.9 256.2 125.5 237.5 104.8zM141.4 239.1C 130.2 239.1 119.399994 235.20001 110.799995 228L110.799995 228L112.299995 227.1L163.2 197.70001C 165.8 196.20001 167.4 193.40001 167.4 190.40001L167.4 190.40001L167.4 118.70001L188.9 131.1C 189.09999 131.20001 189.29999 131.40001 189.29999 131.70001L189.29999 131.70001L189.29999 191.1C 189.2 217.6 167.8 239 141.4 239.1zM38.5 195.1C 32.9 185.40001 30.9 174 32.8 163L32.8 163L34.3 163.9L85.2 193.29999C 87.799995 194.79999 90.899994 194.79999 93.5 193.29999L93.5 193.29999L155.7 157.4L155.7 182.2C 155.7 182.5 155.59999 182.7 155.3 182.9L155.3 182.9L103.8 212.59999C 81 225.9 51.8 218 38.5 195.1zM25.1 84.3C 30.8 74.5 39.7 67.100006 50.300003 63.300003L50.300003 63.300003L50.300003 123.8C 50.300003 126.8 51.800003 129.5 54.4 131L54.4 131L116.3 166.7L94.8 179.09999C 94.600006 179.2 94.3 179.2 94 179.09999L94 179.09999L42.6 149.4C 19.8 136.2 12 106.9 25.1 84L25.1 84L25.1 84.3zM201.9 125.4L139.79999 89.3L161.29999 76.9C 161.49998 76.8 161.79999 76.8 162.09999 76.9L162.09999 76.9L213.5 106.600006C 236.4 119.8 244.2 149.1 231 172C 225.4 181.6 216.7 189 206.3 192.9L206.3 192.9L206.3 132.4C 206.1 129.5 204.5 126.8 201.9 125.4zM223.3 93.2L221.8 92.299995L171 62.7C 168.4 61.2 165.2 61.2 162.6 62.7L162.6 62.7L100.40001 98.600006L100.40001 73.7C 100.40001 73.399994 100.50001 73.2 100.70001 73L100.70001 73L152.1 43.3C 175 30.099998 204.3 38 217.5 60.9C 223.1 70.6 225.1 81.9 223.2 92.9L223.2 92.9L223.3 93.2zM88.7 137.2L67.2 124.799995C 67 124.7 66.799995 124.399994 66.799995 124.2L66.799995 124.2L66.799995 64.9C 66.799995 38.4 88.299995 17 114.799995 17.100002C 125.99999 17.100002 136.79999 21.000002 145.4 28.200003L145.4 28.200003L143.9 29.100002L92.899994 58.300003C 90.299995 59.800003 88.7 62.600002 88.7 65.600006L88.7 65.600006L88.7 137.2zM100.4 112L128.1 96L155.90001 112L155.90001 143.9L128.20001 159.9L100.40001 143.9L100.4 112z" stroke="none" fill="#7F7F7F" fill-rule="nonzero" />
</g>
</svg>