<svg version="1.1" xmlns="http://www.w3.org/2000/svg" xmlns:xlink="http://www.w3.org/1999/xlink" width="256px" height="256px" viewBox="0,0,256,256"><g transform="translate(51.2,51.2) scale(0.6,0.6)"><g fill="none" fill-rule="nonzero" stroke="none" stroke-width="1" stroke-linecap="butt" stroke-linejoin="miter" stroke-miterlimit="10" stroke-dasharray="" stroke-dashoffset="0" font-family="none" font-weight="none" font-size="none" text-anchor="none" style="mix-blend-mode: normal"><g><path d="M48.6,123.2h-31.8c-5.2,0 -9.3,-4.2 -9.3,-9.3c0,-5.1 4.1,-9.4 9.3,-9.4h31.8c5.1,0 9.3,4.2 9.3,9.4c0.1,5.1 -4.1,9.3 -9.3,9.3zM71,73c-2.1,0 -4.2,-0.7 -5.9,-2.1l-25.2,-20.7c-4,-3.2 -4.5,-9.1 -1.2,-13.1c3.2,-4 9.1,-4.6 13.1,-1.3l25.2,20.7c6.8,5.5 2.8,16.5 -6,16.5zM128,51c-5.1,0 -9.3,-4.2 -9.3,-9.3v-32.2c0,-5.1 4.2,-9.3 9.3,-9.3c5.1,0 9.3,4.2 9.3,9.3v32.1c0,5.2 -4.2,9.4 -9.3,9.4zM185,73c-8.8,0 -12.8,-11 -6,-16.6l25.2,-20.7c9.6,-7.9 21.5,6.5 11.9,14.5l-25.2,20.7c-1.7,1.4 -3.8,2.1 -5.9,2.1zM239.2,123.2h-32.1c-5.2,0 -9.3,-4.2 -9.3,-9.3c0,-5.1 4.1,-9.4 9.3,-9.4h32.1c5.2,0 9.3,4.2 9.3,9.4c0,5.1 -4.1,9.3 -9.3,9.3z" fill="#afafaf"></path><path d="M181.6,137.6h12.4c5.6,0 10.2,4.6 10.2,10.3v97.7c0,5.6 -4.6,10.2 -10.2,10.2v0h-132c-5.6,0 -10.2,-4.6 -10.2,-10.2v-97.7c0,-5.6 4.6,-10.3 10.2,-10.3h12.4M134.7,201.8c12.1,-6.8 7.3,-25.4 -6.7,-25.4c-13.9,0 -18.8,18.5 -6.7,25.4v13.2c0,8.9 13.4,8.9 13.4,0z" fill="#333333"></path><path d="M181.6,137.6h-107.2M74.4,137.6v-15.8c0,-29.6 24.1,-53.6 53.6,-53.6c29.6,0 53.6,24.1 53.6,53.6v15.8M150.9,137.6v-15.8c0,-12.6 -10.3,-22.8 -22.9,-22.8c-12.6,0 -22.8,10.2 -22.8,22.8v15.8v0" fill="#afafaf"></path></g></g></g></svg>