<svg version="1.1" xmlns="http://www.w3.org/2000/svg" xmlns:xlink="http://www.w3.org/1999/xlink" width="256px" height="256px" viewBox="0,0,256,256"><defs><linearGradient x1="95.0049" y1="19.0102" x2="174.0617" y2="249.0404" gradientUnits="userSpaceOnUse" id="color-1"><stop offset="0" stop-color="#b8b8b8"></stop><stop offset="1" stop-color="#929292"></stop></linearGradient></defs><g transform="translate(51.2,51.2) scale(0.6,0.6)"><g fill="none" fill-rule="evenodd" stroke="none" stroke-width="1" stroke-linecap="butt" stroke-linejoin="miter" stroke-miterlimit="10" stroke-dasharray="" stroke-dashoffset="0" font-family="none" font-weight="none" font-size="none" text-anchor="none" style="mix-blend-mode: normal"><g transform=""><path d="M128,200.7c-70.7,0 -128,-38.3 -128,-85.7c0,-47.3 57.3,-85.7 128,-85.7c70.7,0 128,38.4 128,85.7c0,47.4 -57.3,85.7 -128,85.7zM147.6,62.8c-53.7,0 -97.3,26.2 -97.3,58.6c0,32.4 43.6,58.6 97.3,58.6c53.7,0 93.3,-17.9 93.3,-58.6c0,-40.6 -39.6,-58.6 -93.3,-58.6z" fill="url(#color-1)"></path><path d="M194.9,162.1c0,0 7.7,2.3 12.2,4.6c1.6,0.8 4.3,2.4 6.2,4.4c1.9,2 2.8,4.1 2.8,4.1l30.5,51.5h-49.3l-23.1,-43.3c0,0 -4.7,-8.1 -7.6,-10.5c-2.4,-2 -3.5,-2.7 -5.9,-2.7h-11.7v56.4h-43.6v-144.1h87.7c0,0 39.9,0.7 39.9,38.7c0,38 -38.1,40.9 -38.1,40.9zM175.9,113.8h-26.4v24.5h26.4c0,0 12.2,0 12.2,-12.5c0.1,-12.7 -12.2,-12 -12.2,-12z" fill="#5d5d5d"></path></g></g></g></svg>