<?xml version="1.0" standalone="no"?>
<!DOCTYPE svg PUBLIC "-//W3C//DTD SVG 1.0//EN" "http://www.w3.org/TR/2001/REC-SVG-20010904/DTD/svg10.dtd">
<svg xmlns="http://www.w3.org/2000/svg" xmlns:xlink="http://www.w3.org/1999/xlink" id="body_1" width="102" height="77" viewBox="0 0 102 77">

<g transform="matrix(0.30078125 0 0 0.30078125 12.5 -0)">
    <path d="M85.3 33.9C 97.200005 44.2 97.3 59.300003 99.3 74.8C 100.600006 72.600006 101.4 71.4 102.100006 70.100006C 108.40001 57.400005 111.600006 43.800007 111.600006 29.600006C 111.50001 20.400005 114.3 12.000006 120.3 4.9000053C 122 2.9000053 124.3 1.5000052 126.9 0.10000515C 122.5 12.100005 128.3 22.200005 132.5 32.200005C 138.7 46.900005 142.5 62.000004 142.9 78C 143 81.4 143.79999 84.8 144.9 88.2C 147.59999 66.1 148 43.499996 162.2 24.699997C 159.7 39.499996 163.8 52.799995 171.09999 65.299995C 182.99998 85.5 186.99998 106.799995 178.9 129.4C 176.9 134.79999 173.5 139.7 170.4 145.5C 185.7 142.4 200.79999 139.5 217 136.3C 212.5 148.2 205.3 158.8 198.1 169.20001C 196.90001 170.90001 193.90001 172.20001 191.70001 172.20001C 148.90001 172.40001 106.10001 172.40001 63.30002 172.30002C 61.50002 172.30002 59.100018 171.50002 57.900017 170.20001C 53.30002 165.20001 49.100018 159.80002 45.700016 153.90001C 43.900017 150.90001 42.300014 147.8 41.100018 144.6C 40.80002 143.90001 39.00002 136.70001 38.700016 136.70001C 53.100014 139.80002 67.10001 142.80002 81.90002 146.00002C 81.20002 144.50002 81.10001 144.00002 80.80002 143.50002C 67.90002 126.60001 65.500015 107.90002 71.80002 88.000015C 75.000015 77.90002 79.10002 67.90002 81.80002 57.700016C 83.8 49.9 84.2 41.9 85.3 33.9z" stroke="none" fill="#5D5D5D" fill-rule="nonzero" />
    <path d="M195.4 186.4C 195.4 194 195.4 201.5 195.4 209.4C 150.5 209.4 105.59999 209.4 60.299988 209.4C 60.299988 202.09999 60.299988 194.5 60.299988 186.4C 104.9 186.4 150 186.4 195.4 186.4z" stroke="none" fill="#5D5D5D" fill-rule="nonzero" />
    <path d="M135.8 255.9L119.200005 255.9C 101.200005 255.9 86.5 241.29999 86.5 223.2L86.5 223.2L86.5 222.3L168.6 222.3L168.6 223.2C 168.6 241.2 154 255.9 135.8 255.9z" stroke="none" fill="#5D5D5D" fill-rule="nonzero" />
</g>
</svg>