<?xml version="1.0" standalone="no"?>
<!DOCTYPE svg PUBLIC "-//W3C//DTD SVG 1.0//EN" "http://www.w3.org/TR/2001/REC-SVG-20010904/DTD/svg10.dtd">
<svg xmlns="http://www.w3.org/2000/svg" xmlns:xlink="http://www.w3.org/1999/xlink" id="body_1" width="102" height="77" viewBox="0 0 102 77">

<g transform="matrix(0.30078125 0 0 0.30078125 12.5 -0)">
    <path d="M188.20001 68.1C 188.20001 84.64093 182.35191 98.75949 170.6557 110.455696C 158.9595 122.1519 144.84094 128 128.3 128C 111.75908 128 97.64051 122.1519 85.944305 110.455696C 74.24811 98.75949 68.4 84.64093 68.4 68.1C 68.4 51.55907 74.24811 37.440506 85.944305 25.7443C 97.64051 14.0480995 111.75908 8.199997 128.3 8.199997C 144.84094 8.199997 158.9595 14.0480995 170.6557 25.7443C 182.35191 37.440506 188.20001 51.55907 188.20001 68.1C 188.20001 68.79704 188.18785 69.493866 188.16351 70.190475" stroke="none" fill="#6F6F6F" fill-rule="nonzero" />
    <path d="M119.9 187.9C 119.9 204.44093 114.0519 218.55951 102.3557 230.25569C 90.6595 241.9519 76.54093 247.79999 60 247.79999C 43.459072 247.79999 29.340508 241.9519 17.644302 230.25569C 5.9481 218.55951 0.099998474 204.44093 0.099998474 187.9C 0.099998474 171.35907 5.9481 157.2405 17.644302 145.5443C 29.340508 133.8481 43.459072 127.99999 60 127.99999C 76.54093 127.99999 90.6595 133.8481 102.3557 145.5443C 114.0519 157.2405 119.9 171.35907 119.9 187.9C 119.9 188.59705 119.88784 189.29387 119.86351 189.99048" stroke="none" fill="#676767" fill-rule="nonzero" />
    <path d="M255.9 187.9C 255.90001 204.44093 250.05191 218.55951 238.3557 230.25569C 226.65952 241.9519 212.54095 247.79999 196 247.79999C 179.45908 247.79999 165.3405 241.9519 153.6443 230.25569C 141.9481 218.55951 136.1 204.44093 136.1 187.9C 136.1 171.35907 141.9481 157.2405 153.6443 145.5443C 165.3405 133.8481 179.45908 127.99999 196 127.99999C 212.54095 127.99999 226.65952 133.8481 238.3557 145.5443C 250.05191 157.2405 255.90001 171.35907 255.9 187.9C 255.90001 188.59705 255.88785 189.29387 255.86351 189.99048" stroke="none" fill="#747474" fill-rule="nonzero" />
</g>
</svg>