<?xml version="1.0" encoding="utf-8"?>
<!-- Generator: Adobe Illustrator 24.0.1, SVG Export Plug-In . SVG Version: 6.00 Build 0)  -->
<svg version="1.1" id="Layer_1" xmlns="http://www.w3.org/2000/svg" xmlns:xlink="http://www.w3.org/1999/xlink" x="0px" y="0px"
	 viewBox="0 0 256 256" style="enable-background:new 0 0 256 256;" xml:space="preserve">
<style type="text/css">
	.st0{fill:#AFAFAF;}
	.st1{fill:#333333;}
</style>
<path class="st0" d="M48.6,123.2H16.8c-5.2,0-9.3-4.2-9.3-9.3c0-5.1,4.1-9.4,9.3-9.4h31.8c5.1,0,9.3,4.2,9.3,9.4
	C58,119,53.8,123.2,48.6,123.2z M71,73c-2.1,0-4.2-0.7-5.9-2.1L39.9,50.2c-4-3.2-4.5-9.1-1.2-13.1c3.2-4,9.1-4.6,13.1-1.3L77,56.5
	C83.8,62,79.8,73,71,73L71,73z M128,51c-5.1,0-9.3-4.2-9.3-9.3V9.5c0-5.1,4.2-9.3,9.3-9.3s9.3,4.2,9.3,9.3v32.1
	C137.3,46.8,133.1,51,128,51z M185,73c-8.8,0-12.8-11-6-16.6l25.2-20.7c9.6-7.9,21.5,6.5,11.9,14.5l-25.2,20.7
	C189.2,72.3,187.1,73,185,73L185,73z M239.2,123.2h-32.1c-5.2,0-9.3-4.2-9.3-9.3c0-5.1,4.1-9.4,9.3-9.4h32.1c5.2,0,9.3,4.2,9.3,9.4
	C248.5,119,244.4,123.2,239.2,123.2z"/>
<path class="st1" d="M181.6,137.6H194c5.6,0,10.2,4.6,10.2,10.3v97.7c0,5.6-4.6,10.2-10.2,10.2l0,0H62c-5.6,0-10.2-4.6-10.2-10.2
	v-97.7c0-5.6,4.6-10.3,10.2-10.3h12.4 M134.7,201.8c12.1-6.8,7.3-25.4-6.7-25.4c-13.9,0-18.8,18.5-6.7,25.4V215
	c0,8.9,13.4,8.9,13.4,0V201.8z"/>
<path class="st0" d="M181.6,137.6H74.4 M74.4,137.6v-15.8c0-29.6,24.1-53.6,53.6-53.6c29.6,0,53.6,24.1,53.6,53.6v15.8 M150.9,137.6
	v-15.8c0-12.6-10.3-22.8-22.9-22.8s-22.8,10.2-22.8,22.8v15.8l0,0"/>
</svg>
