<?xml version="1.0" encoding="utf-8"?>
<!-- Generator: Adobe Illustrator 24.0.1, SVG Export Plug-In . SVG Version: 6.00 Build 0)  -->
<svg version="1.1" id="Layer_1" xmlns="http://www.w3.org/2000/svg" xmlns:xlink="http://www.w3.org/1999/xlink" x="0px" y="0px"
	 viewBox="0 0 256 256" style="enable-background:new 0 0 256 256;" xml:space="preserve">
<style type="text/css">
	.st0{fill:#5D5D5D;}
</style>
<path class="st0" d="M250.5,106.2c-5.8-4-18.9-5.5-29.3-3.5c-1.2-10-6.7-18.7-16.3-26.5l-5.5-4l-3.8,5.7c-4.8,7.5-7.2,18-6.5,28
	c0.2,3.5,1.4,9.7,5,15.2c-3.4,2-10.3,4.5-19.4,4.5H1.3l-0.5,2c-1.7,10-1.7,41.2,18,65.2c14.9,18.2,36.9,27.5,66,27.5
	c62.8,0,109.4-30.2,131.2-84.9c8.6,0.2,27.1,0,36.5-18.7c0.2-0.5,0.7-1.5,2.4-5.2l1-2L250.5,106.2L250.5,106.2z M140,35.8h-26.4v25
	H140V35.8L140,35.8z M140,65.7h-26.4v25H140V65.7L140,65.7z M108.8,65.7H82.4v25h26.4V65.7L108.8,65.7z M77.6,65.7H51.2v25h26.4
	V65.7L77.6,65.7z M46.4,95.7H20v25h26.4V95.7L46.4,95.7z M77.6,95.7H51.2v25h26.4V95.7L77.6,95.7z M108.8,95.7H82.4v25h26.4V95.7
	L108.8,95.7z M140,95.7h-26.4v25H140V95.7L140,95.7z M171.1,95.7h-26.4v25h26.4V95.7L171.1,95.7z"/>
</svg>
