<svg version="1.1" xmlns="http://www.w3.org/2000/svg" xmlns:xlink="http://www.w3.org/1999/xlink" width="256px" height="256px" viewBox="0,0,256,256"><g transform="translate(51.2,51.2) scale(0.6,0.6)"><g fill="none" fill-rule="nonzero" stroke="none" stroke-width="1" stroke-linecap="butt" stroke-linejoin="miter" stroke-miterlimit="10" stroke-dasharray="" stroke-dashoffset="0" font-family="none" font-weight="none" font-size="none" text-anchor="none" style="mix-blend-mode: normal"><g transform=""><path d="M127.1,0.8c-64.9,0 -60.9,28.1 -60.9,28.1l0.1,29.2h61.9v8.8h-86.5c0,0 -41.6,-4.7 -41.6,60.8c0,65.5 36.3,63.2 36.3,63.2h21.6v-30.4c0,0 -1.2,-36.3 35.7,-36.3h61.3c0,0 34.6,0.6 34.6,-33.4v-56c0.1,-0.1 5.3,-34 -62.5,-34zM92.9,20.4c6.2,0 11.1,5 11.1,11.1c0,6.1 -5,11.1 -11.1,11.1c-6.1,0 -11.1,-5 -11.1,-11.1v0c-0.1,-6.1 4.9,-11.1 11.1,-11.1z" fill="#646464"></path><path d="M128.9,255.2c64.9,0 60.9,-28.1 60.9,-28.1l-0.1,-29.2h-61.9v-8.8h86.5c0,0 41.6,4.7 41.6,-60.8c0,-65.5 -36.3,-63.2 -36.3,-63.2h-21.6v30.4c0,0 1.2,36.3 -35.7,36.3h-61.3c0,0 -34.6,-0.6 -34.6,33.4v56.1c-0.1,0 -5.3,33.9 62.5,33.9zM163.1,235.6c-6.1,0 -11.1,-5 -11.1,-11.1v0c0,-6.1 5,-11.1 11.1,-11.1c6.2,0 11.1,5 11.1,11.1c0.1,6.1 -4.9,11.1 -11.1,11.1z" fill="#dedede"></path></g></g></g></svg>