<?xml version="1.0" standalone="no"?>
<!DOCTYPE svg PUBLIC "-//W3C//DTD SVG 1.0//EN" "http://www.w3.org/TR/2001/REC-SVG-20010904/DTD/svg10.dtd">
<svg xmlns="http://www.w3.org/2000/svg" xmlns:xlink="http://www.w3.org/1999/xlink" id="body_1" width="256" height="192">

<g transform="matrix(0.75 0 0 0.75 32.000008 -0)">
    <path d="M108.1 232.6C 48.5 232.6 0.099998474 184.1 0.099998474 124.600006C 0.099998474 65.00001 48.6 16.600006 108.1 16.600006C 131.3 16.600006 153.5 23.900005 172.1 37.600006L172.1 37.600006L149.5 68.3C 137.5 59.4 123.2 54.700005 108 54.700005C 69.4 54.700005 38.1 86.100006 38.1 124.600006C 38.1 163.1 69.5 194.5 108 194.5C 108.8 194.5 109.6 194.5 110.3 194.5L110.3 194.5L111.600006 232.6C 110.5 232.6 109.3 232.6 108.1 232.6z" stroke="none" fill="#646464" fill-rule="nonzero" />
    <path d="M216.1 124.6L178 124.6C 178 107.5 171.7 90.899994 160.3 78.1L160.3 78.1L188.7 52.8C 206.4 72.6 216.1 98.1 216.1 124.6z" stroke="none" fill="#646464" fill-rule="nonzero" />
    <path d="M83.8 129.3L146.3 129.3L255.9 239.3L194.2 239.3L83.8 129.3" stroke="none" fill="#646464" fill-rule="nonzero" />
    <path d="M11 77.4L44.9 94.600006C 42.2 100.3 35.7 115.90001 39 136C 42.8 158.8 56.7 172.4 61.1 176.4C 57.8 175.59999 22.3 165.9 9.399998 130.9C -0.1 105.3 8.7 82.8 11 77.4z" stroke="none" fill="#C3C3C3" fill-rule="nonzero" />
</g>
</svg>