<?xml version="1.0" encoding="UTF-8"?>
<svg xmlns="http://www.w3.org/2000/svg" xmlns:xlink="http://www.w3.org/1999/xlink" width="px" height="0px" viewBox="0 0 192 192" version="1.1">
<g id="surface1">
<path style=" stroke:none;fill-rule:nonzero;fill:rgb(35.686275%,35.686275%,35.686275%);fill-opacity:1;" d="M 185.175781 20.851562 L 145.648438 1.800781 C 141.074219 -0.375 135.601562 0.523438 132 4.125 L 2.699219 122.023438 C -0.75 125.175781 -0.75 130.648438 2.699219 133.875 L 13.273438 143.476562 C 16.125 146.101562 20.398438 146.25 23.476562 143.925781 L 179.175781 25.800781 C 184.425781 21.824219 191.925781 25.574219 191.925781 32.101562 L 191.925781 31.648438 C 191.925781 27 189.300781 22.800781 185.175781 20.851562 Z M 185.175781 20.851562 "/>
<path style=" stroke:none;fill-rule:nonzero;fill:rgb(40.392157%,40.392157%,40.392157%);fill-opacity:1;" d="M 185.175781 171.148438 L 145.648438 190.199219 C 141.074219 192.375 135.601562 191.476562 132 187.875 L 2.699219 69.976562 C -0.75 66.824219 -0.75 61.351562 2.699219 58.125 L 13.273438 48.523438 C 16.125 45.898438 20.398438 45.75 23.476562 48.074219 L 179.25 166.199219 C 184.5 170.175781 192 166.425781 192 159.898438 L 192 160.351562 C 191.925781 165 189.300781 169.199219 185.175781 171.148438 Z M 185.175781 171.148438 "/>
<path style=" stroke:none;fill-rule:nonzero;fill:rgb(54.117647%,54.117647%,54.117647%);fill-opacity:1;" d="M 145.648438 190.199219 C 141.074219 192.375 135.601562 191.476562 132 187.875 C 136.425781 192.300781 144 189.148438 144 182.925781 L 144 9.074219 C 144 2.851562 136.425781 -0.300781 132 4.125 C 135.601562 0.523438 141.074219 -0.375 145.648438 1.800781 L 185.175781 20.773438 C 189.300781 22.800781 192 27 192 31.574219 L 192 160.351562 C 192 164.925781 189.375 169.125 185.175781 171.148438 Z M 145.648438 190.199219 "/>
</g>
</svg>
