




<?xml version="1.0" encoding="UTF-8"?>




<svg width="352px" height="92px" viewBox="0 0 352 92" version="1.1" xmlns="http://www.w3.org/2000/svg" xmlns:xlink="http://www.w3.org/1999/xlink">
    <title>Logos</title>
    <g id="Logos" stroke="none" stroke-width="1" fill="none" fill-rule="evenodd">
        <g id="logo-apple" transform="translate(83.000000, 14.000000)" fill="#707780" fill-rule="nonzero">
<path 
	d="
M272.000000,513.000000 
	C181.355331,513.000000 91.210663,513.000000 1.032996,513.000000 
	C1.032996,342.396973 1.032996,171.793930 1.032996,1.095450 
	C171.561356,1.095450 342.122772,1.095450 512.842102,1.095450 
	C512.842102,171.666550 512.842102,342.333252 512.842102,513.000000 
	C432.793915,513.000000 352.646942,513.000000 272.000000,513.000000 
M335.079590,116.296684 
	C326.512238,95.766571 321.463318,74.698463 325.978333,51.499939 
	C324.615326,52.351231 323.862366,52.550575 323.608521,53.019897 
	C318.010529,63.369610 311.567719,73.377831 307.102295,84.200562 
	C297.874817,106.565071 295.244293,130.459793 292.961029,154.342422 
	C292.433472,159.860443 291.492523,165.338943 290.741821,170.835617 
	C290.247833,170.820221 289.753845,170.804840 289.259857,170.789444 
	C288.507233,166.010223 287.558655,161.252075 287.042084,156.447479 
	C285.916382,145.977493 285.525360,135.403854 283.911072,125.016022 
	C280.215393,101.234703 272.359131,78.718895 262.494049,56.792633 
	C256.320129,43.070454 250.286819,29.082067 253.027481,13.335467 
	C253.618591,9.939222 254.548965,6.602030 255.323059,3.237636 
	C250.972214,4.751659 247.058624,6.645913 244.119370,9.532346 
	C230.920059,22.494608 225.153992,38.793301 224.037613,56.917526 
	C223.467194,66.177910 223.976395,75.552322 222.780792,84.716438 
	C220.526276,101.997223 215.468750,118.628571 208.614792,134.653641 
	C206.675186,139.188583 203.976624,143.398895 201.626144,147.758102 
	C199.251541,138.941055 198.041183,130.720551 197.027039,122.475906 
	C195.352051,108.858864 192.245758,95.647392 184.863937,83.919617 
	C181.626816,78.776688 177.362396,74.280365 173.564453,69.490440 
	C173.103683,69.741768 172.642929,69.993095 172.182175,70.244423 
	C171.787796,72.623184 171.327530,74.993217 171.010712,77.382256 
	C169.780518,86.658638 169.499680,96.172127 167.199051,105.171326 
	C162.909744,121.949379 158.035904,138.631653 152.343155,154.984009 
	C144.794022,176.668930 138.017227,198.222458 138.821762,221.694275 
	C139.518494,242.021835 145.205429,260.420258 155.964539,277.451569 
	C158.668411,281.731689 161.450638,285.962341 164.978226,291.425934 
	C135.340942,285.052917 107.365204,279.037201 78.387497,272.806030 
	C81.752716,282.026245 84.157944,290.413239 87.807671,298.218262 
	C94.167366,311.818604 103.254005,323.664612 112.553955,335.456360 
	C118.386139,342.851227 124.824791,345.167236 133.783325,345.131012 
	C195.444214,344.881805 257.106567,345.000000 318.768463,345.000000 
	C340.100159,345.000000 361.431824,344.991760 382.763519,345.004547 
	C389.856262,345.008820 395.406830,342.410156 399.331635,336.214752 
	C405.562378,326.379486 412.521484,316.981293 418.346375,306.919952 
	C424.554535,296.196564 429.802795,284.917511 435.470154,273.881073 
	C435.074005,273.538574 434.677826,273.196075 434.281647,272.853577 
	C404.054901,278.891541 373.828156,284.929474 343.202209,291.047180 
	C343.836365,289.665527 344.165070,288.724304 344.667816,287.887726 
	C351.850037,275.937225 358.753448,263.935974 362.469299,250.259842 
	C367.281036,232.550491 369.191284,214.623352 366.816406,196.505737 
	C364.439026,178.368866 358.992401,161.012604 350.350189,144.775436 
	C345.409454,135.492661 340.428680,126.231194 335.079590,116.296684 
M154.500000,373.000000 
	C143.750854,373.000000 133.001724,373.000000 122.331192,373.000000 
	C122.331192,388.739502 122.331192,403.656921 122.331192,418.590210 
	C212.017960,418.590210 301.372894,418.590210 390.668884,418.590210 
	C390.668884,403.260620 390.668884,388.343170 390.668884,373.000000 
	C312.059021,373.000000 233.779510,373.000000 154.500000,373.000000 
M291.327057,508.984772 
	C325.209503,499.551758 341.578644,463.757629 337.170593,444.289795 
	C282.937378,444.289795 228.711044,444.289795 173.680649,444.289795 
	C174.142395,448.025269 174.603531,451.386047 174.966888,454.757324 
	C176.903152,472.722534 185.369278,487.057953 199.553055,497.950287 
	C210.651947,506.473633 223.167358,511.258545 237.436462,511.043640 
	C250.922821,510.840515 264.417389,511.153381 277.902374,510.909302 
	C282.109497,510.833160 286.297150,509.683167 291.327057,508.984772 
z"/>
<path fill="#707780" opacity="1.000000" stroke="none" 
	d="
M335.272766,116.628410 
	C340.428680,126.231194 345.409454,135.492661 350.350189,144.775436 
	C358.992401,161.012604 364.439026,178.368866 366.816406,196.505737 
	C369.191284,214.623352 367.281036,232.550491 362.469299,250.259842 
	C358.753448,263.935974 351.850037,275.937225 344.667816,287.887726 
	C344.165070,288.724304 343.836365,289.665527 343.202209,291.047180 
	C373.828156,284.929474 404.054901,278.891541 434.281647,272.853577 
	C434.677826,273.196075 435.074005,273.538574 435.470154,273.881073 
	C429.802795,284.917511 424.554535,296.196564 418.346375,306.919952 
	C412.521484,316.981293 405.562378,326.379486 399.331635,336.214752 
	C395.406830,342.410156 389.856262,345.008820 382.763519,345.004547 
	C361.431824,344.991760 340.100159,345.000000 318.768463,345.000000 
	C257.106567,345.000000 195.444214,344.881805 133.783325,345.131012 
	C124.824791,345.167236 118.386139,342.851227 112.553955,335.456360 
	C103.254005,323.664612 94.167366,311.818604 87.807671,298.218262 
	C84.157944,290.413239 81.752716,282.026245 78.387497,272.806030 
	C107.365204,279.037201 135.340942,285.052917 164.978226,291.425934 
	C161.450638,285.962341 158.668411,281.731689 155.964539,277.451569 
	C145.205429,260.420258 139.518494,242.021835 138.821762,221.694275 
	C138.017227,198.222458 144.794022,176.668930 152.343155,154.984009 
	C158.035904,138.631653 162.909744,121.949379 167.199051,105.171326 
	C169.499680,96.172127 169.780518,86.658638 171.010712,77.382256 
	C171.327530,74.993217 171.787796,72.623184 172.182175,70.244423 
	C172.642929,69.993095 173.103683,69.741768 173.564453,69.490440 
	C177.362396,74.280365 181.626816,78.776688 184.863937,83.919617 
	C192.245758,95.647392 195.352051,108.858864 197.027039,122.475906 
	C198.041183,130.720551 199.251541,138.941055 201.626144,147.758102 
	C203.976624,143.398895 206.675186,139.188583 208.614792,134.653641 
	C215.468750,118.628571 220.526276,101.997223 222.780792,84.716438 
	C223.976395,75.552322 223.467194,66.177910 224.037613,56.917526 
	C225.153992,38.793301 230.920059,22.494608 244.119370,9.532346 
	C247.058624,6.645913 250.972214,4.751659 255.323059,3.237636 
	C254.548965,6.602030 253.618591,9.939222 253.027481,13.335467 
	C250.286819,29.082067 256.320129,43.070454 262.494049,56.792633 
	C272.359131,78.718895 280.215393,101.234703 283.911072,125.016022 
	C285.525360,135.403854 285.916382,145.977493 287.042084,156.447479 
	C287.558655,161.252075 288.507233,166.010223 289.259857,170.789444 
	C289.753845,170.804840 290.247833,170.820221 290.741821,170.835617 
	C291.492523,165.338943 292.433472,159.860443 292.961029,154.342422 
	C295.244293,130.459793 297.874817,106.565071 307.102295,84.200562 
	C311.567719,73.377831 318.010529,63.369610 323.608521,53.019897 
	C323.862366,52.550575 324.615326,52.351231 325.978333,51.499939 
	C321.463318,74.698463 326.512238,95.766571 335.272766,116.628410 
z"/>
<path fill="#707780" opacity="1.000000" stroke="none" 
	d="
M155.000000,373.000000 
	C233.779510,373.000000 312.059021,373.000000 390.668884,373.000000 
	C390.668884,388.343170 390.668884,403.260620 390.668884,418.590210 
	C301.372894,418.590210 212.017960,418.590210 122.331192,418.590210 
	C122.331192,403.656921 122.331192,388.739502 122.331192,373.000000 
	C133.001724,373.000000 143.750854,373.000000 155.000000,373.000000 
z"/>
<path fill="#707780" opacity="1.000000" stroke="none" 
	d="
M290.910400,509.004761 
	C286.297150,509.683167 282.109497,510.833160 277.902374,510.909302 
	C264.417389,511.153381 250.922821,510.840515 237.436462,511.043640 
	C223.167358,511.258545 210.651947,506.473633 199.553055,497.950287 
	C185.369278,487.057953 176.903152,472.722534 174.966888,454.757324 
	C174.603531,451.386047 174.142395,448.025269 173.680649,444.289795 
	C228.711044,444.289795 282.937378,444.289795 337.170593,444.289795 
	C341.578644,463.757629 325.209503,499.551758 290.910400,509.004761 
z"/>

        </g>
    </g>
</svg>