<?xml version="1.0" standalone="no"?>
<!DOCTYPE svg PUBLIC "-//W3C//DTD SVG 1.0//EN" "http://www.w3.org/TR/2001/REC-SVG-20010904/DTD/svg10.dtd">
<svg xmlns="http://www.w3.org/2000/svg" xmlns:xlink="http://www.w3.org/1999/xlink" id="body_1" width="102" height="77">

<g transform="matrix(0.30078125 0 0 0.30078125 12.5 -0)">
    <path d="M113.4 68.3C 116.4 63.000004 101.1 61.200005 111.4 66.4C 112.4 66.8 112.2 68.7 113.4 68.3zM29.9 23.4C 23.4 14.9 42.1 24.8 35.5 15.9C 30 11.5 24.7 20.9 29.9 23.4zM43.6 34.1C 52.8 32.899998 41.3 30.099998 41.699997 34L41.699997 34L43.6 34.1zM36.3 32.3C 38.2 29.6 32.8 33.7 36.3 32.3zM51 48.5C 56.7 48.6 48.5 40.8 55.4 44.3C 54.300003 40.6 47.4 40 44.100002 38.5C 42.2 41.9 47.9 48.5 51 48.5zM33.1 47.8C 38 44.1 50 50 42.3 44.1C 41.6 43.4 25.4 48.5 33.1 47.8zM28.1 57.4C 36.7 54.5 48.4 51.2 52.5 58.800003C 48.4 53.800003 50.8 48.9 54.7 56.200005C 60.2 63.500004 63 52.900005 59.4 50.400005C 63.5 55.500004 68.1 57.900005 62.100002 50.700005C 68.600006 42.900005 49.100002 51.700005 44.600002 51.600006C 42.5 52.6 22.6 56.8 28.1 57.4zM44.1 84.2C 46.2 81.6 41.2 83.5 44.1 84.2zM39.1 97.6C 38.6 94.5 37.6 99.3 39.1 97.6zM34.8 95.5C 39.6 95.2 42.3 90.2 33.899998 90.5C 20.799997 89.1 45.5 95 32.199997 93.3C 30.4 94.5 34.7 95.8 34.8 95.5zM239.9 225.6C 245.79999 225.6 257.9 223.8 245 223.8C 242.9 224.1 233.1 224 239.9 225.6zM211.3 208.9C 212 204.6 208.4 209.3 211.3 208.9zM233.7 224.2C 233.9 220.4 230.5 225.9 233.7 224.2zM13.8 86.7C 18.1 83.4 8.8 85.4 13.8 86.7zM30 98.2C 32.6 95.4 24.3 97 30 98.2zM24.5 96.6C 31.9 92.1 16.6 92.7 24.5 96.6zM79.6 61.9C 82.1 55.4 89.299995 59.300003 80.799995 60.600002C 80.9 61.3 80.5 64 79.6 61.9zM72.6 62C 72.1 49 84.7 66.6 72.6 62zM48.7 65.7C 52.600002 60.999996 71 62.699997 57.6 65.2C 53.9 62.5 51.2 66.8 48.7 65.7zM47 66.8C 49.4 64 47.7 69.2 47 66.8zM40.5 69.4C 40.8 65 51.4 71.700005 42.2 71L42.2 71L40.5 69.4zM35.8 69.3C 39.5 66.5 37.8 70.9 35.8 69.3zM35.3 73.9C 37.899998 64.4 49.199997 81.700005 39.5 75.200005C 38.5 74.4 37.2 73.9 35.7 73.9C 35.6 73.9 35.4 73.9 35.3 73.9zM8.7 87.6C 7.7 81.9 7.7999997 71.9 17.3 75.299995C 4.5999994 77.799995 26.099998 91.1 23.4 80.6C 28.7 80.9 33.9 77.4 31 82.6C 41.5 81.4 48.8 72.299995 59 73.6C 68.2 72.799995 76.8 71 84.9 68.4L84.9 68.4L84.1 68.6C 91.1 68.1 97.9 60.5 94 56.1C 92.1 56 90 55.899998 87.8 55.899998C 79.3 55.899998 71.100006 56.899998 63.200005 58.699997L63.200005 58.699997L63.900005 58.6C 52.200005 61 41.600006 65.7 29.700005 67.7C 18.200005 69.2 32.000004 72 28.700005 72.6C 22.700005 74.7 35.900005 76.1 27.900005 78.299995C 23.000006 77.399994 17.900005 75.7 20.000006 70.49999C 9.000006 71.899994 -0.69999504 76.49999 8.000006 87.7L8.000006 87.7L8.7 87.6zM27.2 100C 27.8 95.9 22.8 100.8 27.2 100zM221.2 225.3C 222.6 221.2 217.7 225.9 221.2 225.3zM200.2 214.4C 203.7 211.2 195.7 213.4 200.2 214.4zM25.9 106.8C 31.4 104.600006 15.9 102.3 24.8 106.4L24.8 106.4L25.9 106.8zM12.8 99C 12.5 95.6 10.8 99.4 12.8 99zM10.5 100.8C 10.3 97.9 9 101.9 10.5 100.8zM26.3 111.1C 25.6 104.8 17.4 110.1 26.3 111.1zM57 133.8C 58.3 132.6 54 132.9 57 133.8zM29.3 116C 28 114.9 28.3 117.2 29.3 116zM24.9 113.8C 25 111.1 17.8 111.4 24.9 113.8zM17.1 111.8C 15.7 103.6 11.5 110.6 17.1 111.8zM49.5 134.3C 49.6 130 46.1 134.2 49.5 134.3zM196 225.6C 201.5 224.5 213.9 228.40001 215.9 224.1C 209.29999 223.90001 193 219.40001 192.2 225.20001L192.2 225.20001L193.7 225.40001L196 225.6zM45.6 133.3C 45.5 131.9 44.3 133.9 45.6 133.3zM33.3 127.4C 37.5 125.9 29.4 126.4 33.3 127.4zM131.8 193.9C 131.7 189.6 127.6 195 131.8 193.9zM35.9 133.4C 42.5 130.9 28.8 131.6 35.9 133.4zM164.1 215.8C 166.4 214.1 161.3 215.6 164.1 215.8zM140 200.7C 139.6 199 138.4 201 140 200.7zM137.1 198.6C 136 195.6 132.6 198.5 137.1 198.6zM76.6 160.4C 76.6 156 68.7 158.6 76.6 160.4zM69.5 158.8C 66.6 156.3 69.3 158.4 69.5 158.8zM23.4 130.2C 24.4 126.1 14.299999 107.7 18.599998 121C 20.2 123.8 20 129.1 23.4 130.2zM48.5 150.1C 54 151.3 70.5 163.70001 60.8 151C 55.8 149.5 58.8 137.3 53.7 139.5C 57.100002 145.2 56.5 147.6 49.3 144C 40.3 139.6 44.2 146.2 46 148C 43.6 148.5 49.2 150 48.5 150.1zM186.7 239.1C 190.8 236.4 181.7 238.2 186.7 239.1zM172 229.2C 178.1 224.1 165.5 231.5 172 229.2zM174.8 230.6C 182.3 225.20001 170.2 229.6 173.2 231.6L173.2 231.6L174.8 230.6zM90.6 180.7C 89 177.5 88.2 181.2 90.6 180.7zM85.7 177.8C 85.5 175.3 82.6 178 85.7 177.8zM165.4 228C 171.29999 224.2 164.09999 224.8 164.29999 228.3L164.29999 228.3L165.4 228zM44.7 151.9C 46.4 149.4 40.2 151.6 44.7 151.9zM167.3 230.5C 173.4 225.3 163.5 229.4 167.3 230.5zM158.1 226.9C 170.2 219.1 153.1 223.5 158.1 226.9zM29.7 146.5C 24.1 138.5 26.2 134.9 20.800001 128.4C 19.800001 123.399994 11.500001 112.09999 16.5 124.09999C 21.1 131.1 22.5 141.9 29.7 146.5zM160.2 229.1C 166.7 222.1 153.8 229.5 160.2 229.1zM160.2 231.3C 160.2 229.8 157.6 232 160.2 231.3zM147.7 222.9C 153.7 217.9 141.9 225.1 147.7 222.9zM93.4 189.3C 97.3 192.7 111.100006 191.8 98.1 189.7C 96.1 186.8 85.8 187.5 93.4 189.3zM53.7 165.4C 51.1 161.2 44.5 161.6 53.7 165.4zM46.8 160.9C 45.7 156.6 39.3 156.6 46.8 160.9zM150.2 225.8C 153.7 222.40001 150.3 231.2 156 225C 156.1 220.6 155.8 218 149.5 223.3C 147.8 224.2 147 228.3 150.2 225.8zM143.7 223C 143.9 220.1 141.6 225.6 143.7 223zM80.3 184.7C 95.4 189.5 72.9 178.7 80.3 184.7zM67.9 177.6C 71.5 180.3 81.5 185.3 73.1 178.6C 76 175.3 67.6 173.5 70.4 171.3C 63.4 167 64.9 167.40001 69.8 167.5C 61.300003 163.7 71 164 70.5 162.1C 67.2 161.5 54.3 156.3 61.9 162.5C 54.2 158.6 60.100002 164 57.7 163.4C 49.8 161.29999 64.7 169.4 56.4 167.4C 60.9 171 68.6 176.59999 58.300003 171.2C 57 173.1 65.7 176.1 67.9 177.6zM91.3 193.1C 97.9 194.8 97.8 192.1 91.9 191.3C 88.700005 188.3 78.6 185.2 87.6 190.90001C 88.3 192.4 90.2 192.4 91.3 193.1zM79.5 187.1C 78.1 185.9 79.7 187.8 79.5 187.1zM85.2 73.8C 86.2 72.5 85.5 75.2 85.2 73.8zM81.8 94.4C 79.5 90.3 84.700005 76.600006 85.3 85.1C 82.9 91.799995 84.600006 95.5 86.3 86.6C 89.4 79.4 85.6 100.4 81.8 94.4zM78.5 99.8C 77.9 96.4 80.4 104.1 78.5 99.8zM80.5 105.2C 77.2 97 83.6 109.6 80.5 105.2zM81.9 108.3C 81.9 106.5 82.4 110.9 81.9 108.3zM57.7 94.9C 59.9 90.3 61.7 100.1 57.7 94.9zM49.1 89.8C 50.5 89.2 49.9 91.6 49.1 89.8zM85.8 118.3C 87 108.3 86.9 124.2 85.8 118.3zM52.9 99.1C 54.7 96.5 48.100002 87.2 53.800003 95.799995C 56.300003 97.799995 61.000004 99.1 56.800003 99.899994C 63.4 105.6 55.3 101.5 52.9 99.1zM87.7 121.1C 88.2 112.299995 90.299995 115.799995 87.7 122.4L87.7 122.4L87.7 121.1zM49.6 102.2C 54 101.299995 67.899994 110 55.1 104.7C 53.8 103.1 50.7 103.8 49.6 102.2zM90.1 130.1C 91.5 125.2 90.2 133.4 90.1 130.1zM72.1 118.6C 71.4 110 73.8 120 72.1 118.6zM48.5 106.1C 41.1 95.799995 70.1 116.5 53.3 108.7C 51.5 108.2 49.4 108.1 48.5 106.1zM89.6 133.9C 90.2 131.5 89.7 136.6 89.6 133.9zM91.7 136C 92.2 130.5 92.8 139.7 91.7 136zM79.5 128.7C 74.5 125.7 78.2 107.6 79.9 120C 84.8 118.4 79.6 126.4 83.3 126.3C 82.6 131.4 81 133.2 79.5 128.7zM46.2 109.5C 34.6 99.2 60.800003 114.9 48.100002 111.4L48.100002 111.4L46.2 109.5zM53.6 116.6C 50.1 110 57.9 119.3 53.6 116.6zM49.9 115.4C 52.2 113.1 51.1 117.6 49.9 115.4zM43.8 115.5C 39.8 111.6 36.899998 107.9 44 113.1C 46.7 113.2 38 104.799995 44.6 110.4C 51.7 111.7 48.1 122 43.8 115.5zM55.4 124.5C 57.7 119.6 59.3 131.2 55.4 124.5zM50.6 122.8C 51 116.4 53 127.2 50.6 122.8zM61.3 130.2C 59.1 126.399994 57.7 121.799995 57.7 116.899994C 58.5 120.899994 66.3 134.2 61.5 122.399994C 56.2 112.49999 67.8 125.59999 69 128.09999C 69.5 130.49998 65.7 127.399994 68.3 133.2C 63.6 126.6 65.6 136.8 61.3 130.2zM96 153.3C 92.2 144.90001 98.7 148.7 96.8 154.7L96.8 154.7L96 153.3zM75.9 146.9C 74.3 143.9 79.4 149.6 75.9 146.9zM99.3 163.2C 100.7 157.7 101 167.7 99.3 163.2zM66.1 145.2C 68.4 144.5 67.2 149.2 66.1 145.2zM107.8 174C 103.8 166.3 112.8 176.2 107.8 174zM111.2 178.6C 111.1 173.6 112.3 182.4 111.2 178.6zM150.7 208.6C 152.8 208.5 150.9 210.1 150.7 208.6zM116.2 186.7C 113 183.4 112.2 177.2 115.6 182.59999C 117.4 183.3 121.2 192.7 116.2 186.7zM126.8 216.6C 135 211.70001 132.3 228.1 140.8 218C 149.1 211.9 133.6 225.5 143.90001 219.1C 151.3 214.1 162.3 221.40001 169.20001 223.8C 174.20001 223.6 179.00002 228.1 184.20001 225.3C 194.00002 222.6 164.90001 221.40001 172.6 216.7C 171.40001 217 170.1 217.09999 168.70001 217.09999C 161.80002 217.09999 155.80002 213.4 152.6 207.9L152.6 207.9L152.5 207.79999C 141.4 205.99998 132 199.99998 125.7 191.49998L125.7 191.49998L125.6 191.39998C 123.6 187.99998 128.6 191.89998 123.799995 186.39998C 118.6 181.19998 114.2 175.19998 110.799995 168.69998L110.799995 168.69998L110.6 168.29999C 105.7 165.69998 105.2 157.99998 104.7 167.99998C 104.7 161.69998 98.799995 157.39998 97.399994 159.19998C 97.399994 153.09998 103.7 156.19998 99.299995 151.69998C 98.299995 145.39998 95.2 138.79999 94.2 131.69998C 92.7 128.29999 94 120.89998 89.2 128.69998C 87.399994 136.89998 88.6 118.59998 91.299995 124.59998C 94.899994 118.39999 89.99999 119.19998 89.799995 119.999985C 92.1 114.79999 91.299995 107.39999 89.2 110.19998C 90.399994 104.69998 91.2 89.89998 87.299995 92.499985C 89.6 86.69998 91.7 66.09998 81.6 73.999985C 76.299995 74.19998 71.299995 75.39999 66.799995 77.29999L66.799995 77.29999L67 77C 77.5 82.8 65.9 79.1 61.7 78.2C 61.100002 83.5 56.9 81.2 51.6 81.299995C 60.1 82.299995 47.5 89.899994 42.6 86.99999C 36.3 89.99999 48 97.49999 42.699997 99.799995C 43.299995 103.299995 33.1 98.49999 33.899998 106.6C 27.799997 104 33.1 116.2 36.1 112.1C 46.5 114.9 43.399998 121.299995 43.699997 127.4C 41.999996 130.9 35.299995 119.1 42.199997 119.6C 36.799995 110.799995 36.199997 116.4 31.699997 120.5C 30.599997 120.8 43.199997 126.3 35.299995 129.1C 42.199997 130.20001 42.399994 136.20001 43.799995 140.1C 47.999996 144.40001 47.099995 135.3 52.099995 140.5C 48.899994 135.9 35.399994 127.4 46.299995 130.1C 46.199997 125.40001 44.299995 121.600006 47.699997 121.700005C 50.999996 115.700005 44.199997 136.5 51.699997 128.90001C 53.799995 128.00002 54.299995 122.90001 57.999996 129.40001C 63.399998 134.70001 59.899998 138.50002 52.299995 133.70001C 53.699997 138.30002 62.499996 140.00002 60.799995 147.20001C 62.599995 153.50002 64.99999 151.20001 67.2 150.80002C 68.899994 157.00002 69.799995 152.40002 69.899994 149.50002C 77.59999 151.20001 75.799995 155.70001 78.2 158.90001C 83.5 161.3 70.6 142.70001 79.7 153.3C 89.299995 161.90001 83.299995 165.6 74.7 164.2C 80.1 163.8 81.899994 171.59999 88.7 171.3C 94.899994 174.3 99.1 185.6 88.399994 180.90001C 84.7 177.6 71.59999 173.40001 82.299995 179.8C 93.2 184.3 102.2 188.7 110.899994 193.5L110.899994 193.5L109.59999 192.8C 116.399994 197.7 119.399994 203.3 121.99999 204.40001C 116.299995 207.1 104.7 202.20001 113.299995 200.70001C 107.899994 199.70001 101.899994 197.00002 106.99999 203.70001C 111.399994 207.40001 122.49999 207.00002 124.49999 207.40001C 122.799995 211.1 119.899994 211.40001 124.59999 211.70001C 119.4 214.6 126.3 215.1 126.8 216.6zM96.1 197.8C 104.9 198.90001 85.6 191.8 94.2 197.2L94.2 197.2L96.1 197.8zM119.6 213.7C 127.3 210.7 112.2 212.2 119.6 213.7zM74.4 185.6C 79.3 185.1 66.4 182.3 74.4 185.6zM101.1 202.6C 101.8 199.9 95.5 201.8 101.1 202.6zM140.2 227.9C 140.1 225.8 138.3 228.7 140.2 227.9zM104.3 205.9C 103.1 204.5 103.8 206.2 104.3 205.9zM46.6 169.3C 45.8 166.1 39.4 163.6 46.6 169.3zM68.5 183.5C 75.3 183.1 59.5 180.5 68.5 183.5zM87.2 196.8C 86.5 194.8 83.6 196.7 87.2 196.8zM136.5 227.3C 136.8 223.4 132.8 230.1 136.5 227.3zM67.5 184.8C 67 182.7 64.6 185 67.5 184.8zM117.1 216.3C 128.6 216.4 106.7 214.8 117.1 216.3zM96 204.2C 108.2 207.59999 85.8 196.5 93 202.9L93 202.9L94.6 203.59999L96 204.2zM106.5 212.5C 108.6 209 97.8 210.5 106.5 212.5zM71.9 191.4C 76.9 195.2 91.9 191.9 79.5 189.09999C 73.9 186.09999 61.1 183.99998 69.8 190.9L69.8 190.9L71.9 191.4zM99.5 210.3C 104.1 208.6 92.1 208.6 99.5 210.3zM89.2 204C 92.4 201.8 82.6 202.3 89.2 204zM77 196.9C 76.5 195.1 70.3 194.9 77 196.9zM118.8 229.4C 123 232.09999 143.5 235.29999 130.7 230.5C 128.5 231 106.9 224.4 118.8 229.4zM92.4 213C 92.3 211.2 90.6 213.8 92.4 213zM87.2 210.4C 92.4 207 80.5 210.3 87.2 210.4zM110.3 226.5C 112.3 223.5 103.8 225.4 110.3 226.5zM98.3 219.8C 101.6 216.6 93.1 217.8 98.3 219.8zM91.2 216.9C 90.7 214 88.7 218.4 91.2 216.9zM85.6 214.8C 87.9 213.8 82.3 213.5 85.6 214.8zM43.4 177.5C 43.7 176 45.2 180.9 43.4 177.5zM73.1 210.2C 83.4 214 73.1 202.9 68.299995 203.59999C 66.2 199.99998 60.299995 197.7 64.49999 195.7C 56.999992 198.3 56.59999 185.8 53.09999 187.59999C 45.19999 185.09999 49.999992 176.2 40.59999 170.79999C 39.69999 164.99998 31.199991 160.09999 28.49999 151.4C 27.29999 147 18.89999 134.2 23.99999 146.09999C 29.49999 157.9 35.79999 168.09999 42.89999 177.49998L42.89999 177.49998L42.59999 177.09999C 47.19999 187.2 54.09999 195.49998 62.499992 201.79999L62.499992 201.79999L62.699993 201.9C 65.8 204.8 68.8 209.3 73.1 210.2zM93.5 224.6C 103 229.5 114 233.3 125.5 235.40001L125.5 235.40001L126.3 235.50002C 137.40001 238.10002 150.2 239.50002 163.3 239.50002C 170.1 239.50002 176.8 239.10002 183.40001 238.30002L183.40001 238.30002L182.6 238.40002C 174.20001 234.60002 165.5 239.90002 157.1 235.70003C 154.1 236.00003 150.70001 236.20003 147.1 236.20003C 139.6 236.20003 132.3 235.30003 125.3 233.70003L125.3 233.70003L125.9 233.80003C 112 228.70003 100.4 223.50003 89.3 217.60004L89.3 217.60004L90.8 218.30003C 77.200005 213.30003 97.8 224.70003 101.5 225.60004C 110 230.40004 92.2 223.10004 89.6 221.10004C 82.5 217.10004 81.6 217.90004 88.9 222.00003C 90.5 222.9 92 223.8 93.5 224.6zM76.3 217.1C 65.8 209.90001 56.800003 201.5 49.200005 192L49.200005 192L49.000004 191.8C 34.700005 174.3 23.100004 153.8 15.100002 131.5L15.100002 131.5L14.600002 130.1C 10.000002 115.600006 8.4000025 100.100006 2.2000027 86.100006C 1.0000026 83.8 0.20000267 81.100006 0.20000267 78.3C 0.20000267 70 6.3000026 63.100002 14.200003 61.9L14.200003 61.9L14.300003 61.9C 19.200003 61 27.900003 56.300003 17.400003 59.600002C 8.000004 66.5 7.1000032 53.4 16.700003 52.500004C 20.900002 52.500004 24.200003 49.100002 24.200003 44.900005C 24.200003 43.600006 23.900003 42.500004 23.400003 41.400005C 16.400003 36.800007 40.500004 31.800005 28.300003 24.900005C 15.8 11.4 46 8.8 38.6 24.2C 36.8 36.1 59.699997 22.1 54.399998 35.800003C 59.8 42.4 74.7 37.300003 74.299995 46.600002C 82.2 47.100002 84.899994 53.800003 92.299995 54.300003C 99.99999 57.800003 113.899994 60.500004 116.5 69.100006C 108.9 75.100006 91.3 56.700005 90.5 73.3C 90.7 99.5 94.6 124.9 101.7 148.70001L101.7 148.70001L101.2 146.80002C 106.899994 161.00002 115 173.10002 125.1 183.20001C 134.3 193.50002 145.4 201.80002 157.8 207.80002L157.8 207.80002L158.40001 208.10002C 168.3 212.80002 179.8 216.50002 191.80002 218.60002L191.80002 218.60002L192.60002 218.70003C 197.40002 215.00003 205.80002 201.50003 213.30002 207.20003C 213.60002 213.60002 198.50002 220.70003 212.60002 220.00003C 220.90002 217.50003 226.60002 226.40002 233.40002 218.40002C 239.70003 225.80002 259.50003 213.60002 255.00003 228.90002C 249.00003 232.80002 240.20003 230.40002 234.10004 235.80002C 224.10004 230.80002 216.20004 240.30002 205.20004 239.10002C 194.40004 241.10002 181.90004 242.20003 169.10004 242.20003C 168.70004 242.20003 168.30003 242.20003 168.00003 242.20003L168.00003 242.20003L168.10004 242.20003C 146.40004 241.80003 125.50004 238.40002 105.80003 232.40002L105.80003 232.40002L107.40003 232.80002C 95.50003 228.80002 85.20003 223.50002 75.80003 216.90002L75.80003 216.90002L76.3 217.1z" stroke="none" fill="#5D5D5D" fill-rule="nonzero" />
</g>
</svg>