<svg version="1.1" xmlns="http://www.w3.org/2000/svg" xmlns:xlink="http://www.w3.org/1999/xlink" width="256px" height="256px" viewBox="0,0,256,256"><g transform="translate(51.2,51.2) scale(0.6,0.6)"><g fill="none" fill-rule="nonzero" stroke="none" stroke-width="1" stroke-linecap="butt" stroke-linejoin="miter" stroke-miterlimit="10" stroke-dasharray="" stroke-dashoffset="0" font-family="none" font-weight="none" font-size="none" text-anchor="none" style="mix-blend-mode: normal"><g transform="translate(-0.00254,0.06583)"><path d="M42,44.4c-1.9,0.1 -3.8,-0.4 -5.4,-1.5c-1.6,-1 -2.9,-2.5 -3.7,-4.2c-0.8,-1.7 -1,-3.6 -0.7,-5.5c0.3,-1.9 1.2,-3.6 2.5,-5c1.3,-1.4 3,-2.3 4.8,-2.8c1.8,-0.4 3.8,-0.3 5.6,0.3c1.8,0.7 3.3,1.8 4.5,3.3c1.2,1.5 1.7,3.3 1.8,5.2c0.1,2.6 -0.9,5 -2.6,6.9c-1.8,2.1 -4.2,3.2 -6.8,3.3z" id="path11_fill_1_" fill="#6f6f6f"></path><path d="M120.9,48.2c35.1,0 65.9,12.6 81.8,31.2c-6.2,-16.7 -17.4,-31.2 -31.9,-41.3c-14.6,-10.2 -32,-15.7 -49.8,-15.7c-17.8,0 -35.2,5.5 -49.8,15.7c-14.7,10.2 -25.8,24.6 -32,41.3c15.9,-18.7 46.6,-31.2 81.7,-31.2z" id="path9_fill_1_" fill="#939393"></path><path d="M120.9,191.6c-35.1,0 -65.9,-12.6 -81.8,-31.2c6.2,16.7 17.4,31.2 31.9,41.3c14.6,10.2 32,15.7 49.8,15.7c17.8,0 35.2,-5.5 49.8,-15.7c14.6,-10.2 25.8,-24.6 31.9,-41.3c-15.7,18.6 -46.3,31.2 -81.6,31.2z" id="path8_fill" fill="#939393"></path><path d="M223.9,12.9c0.2,2.7 -0.4,5.2 -1.8,7.4c-1.3,2.2 -3.3,4.1 -5.6,5.2c-2.4,1.1 -5,1.5 -7.6,1.2c-2.6,-0.3 -5,-1.5 -6.9,-3.3c-2,-1.8 -3.3,-4 -3.9,-6.6c-0.6,-2.6 -0.5,-5.2 0.3,-7.7c0.8,-2.5 2.5,-4.6 4.6,-6.2c2.1,-1.6 4.6,-2.5 7.3,-2.6c1.7,-0.1 3.4,0.2 5,0.7c1.6,0.6 3.1,1.5 4.4,2.6c1.3,1.1 2.3,2.6 3.1,4.1c0.6,1.8 1,3.5 1.1,5.2z" id="path7_fill" fill="#767676"></path><path d="M72.7,237.9c0.2,3.3 -0.6,6.6 -2.2,9.4c-1.6,2.8 -4.1,5.1 -7.1,6.6c-3,1.5 -6.3,2 -9.6,1.5c-3.3,-0.4 -6.3,-1.9 -8.8,-4.1c-2.5,-2.2 -4.2,-5.1 -5,-8.3c-0.8,-3.2 -0.7,-6.6 0.4,-9.7c1.1,-3.1 3.2,-5.8 5.8,-7.8c2.6,-2 5.8,-3.1 9.2,-3.3c2.1,-0.1 4.4,0.2 6.3,0.9c2.1,0.7 3.9,1.8 5.6,3.3c1.6,1.5 2.9,3.2 3.9,5.1c0.9,2.1 1.4,4.2 1.5,6.4z" id="path10_fill_1_" fill="#989898"></path></g></g></g>
</svg>