<svg version="1.1" xmlns="http://www.w3.org/2000/svg" xmlns:xlink="http://www.w3.org/1999/xlink" width="256px" height="256px" viewBox="0,0,256,256"><g transform="translate(51.2,51.2) scale(0.6,0.6)"><g fill="none" fill-rule="nonzero" stroke="none" stroke-width="1" stroke-linecap="butt" stroke-linejoin="miter" stroke-miterlimit="10" stroke-dasharray="" stroke-dashoffset="0" font-family="none" font-weight="none" font-size="none" text-anchor="none" style="mix-blend-mode: normal"><g transform="translate(0,0.05)"><path d="M108.1,232.6c-59.6,0 -108,-48.5 -108,-108c0,-59.6 48.5,-108 108,-108c23.2,0 45.4,7.3 64,21l-22.6,30.7c-12,-8.9 -26.3,-13.6 -41.5,-13.6c-38.6,0 -69.9,31.4 -69.9,69.9c0,38.5 31.4,69.9 69.9,69.9c0.8,0 1.6,0 2.3,0l1.3,38.1c-1.1,0 -2.3,0 -3.5,0z" fill="#646464"></path><path d="M216.1,124.6h-38.1c0,-17.1 -6.3,-33.7 -17.7,-46.5l28.4,-25.3c17.7,19.8 27.4,45.3 27.4,71.8z" fill="#646464"></path><path d="M83.8,129.3h62.5l109.6,110h-61.7z" fill="#646464"></path><path d="M11,77.4l33.9,17.2c-2.7,5.7 -9.2,21.3 -5.9,41.4c3.8,22.8 17.7,36.4 22.1,40.4c-3.3,-0.8 -38.8,-10.5 -51.7,-45.5c-9.5,-25.6 -0.7,-48.1 1.6,-53.5z" fill="#c3c3c3"></path></g></g></g></svg>