<?xml version="1.0" standalone="no"?>
<!DOCTYPE svg PUBLIC "-//W3C//DTD SVG 1.0//EN" "http://www.w3.org/TR/2001/REC-SVG-20010904/DTD/svg10.dtd">
<svg xmlns="http://www.w3.org/2000/svg" xmlns:xlink="http://www.w3.org/1999/xlink" id="body_1" width="102" height="77">

<defs>
    <linearGradient transform="matrix(1 0 0 1 0 0)"  id="1" x1="95.0049" y1="19.0102" x2="174.0617" y2="249.0404">
        <stop stop-color="#B8B8B8" offset="0%"/>
        <stop stop-color="#929292" offset="100%"/>
    </linearGradient>
</defs>

<g transform="matrix(0.30078125 0 0 0.30078125 12.5 -0)">
    <path d="M128 200.7C 57.3 200.7 0 162.4 0 115C 0 67.7 57.3 29.300003 128 29.300003C 198.7 29.300003 256 67.7 256 115C 256 162.4 198.7 200.7 128 200.7zM147.6 62.8C 93.90001 62.8 50.300003 89 50.300003 121.399994C 50.300003 153.79999 93.9 180 147.6 180C 201.30002 180 240.90001 162.1 240.90001 121.4C 240.9 80.8 201.3 62.8 147.6 62.8z" stroke="none" fill="url(#1)" />
    <path d="M194.9 162.1C 194.9 162.1 202.59999 164.40001 207.09999 166.70001C 208.7 167.50002 211.4 169.1 213.29999 171.1C 215.19998 173.1 216.09999 175.20001 216.09999 175.20001L216.09999 175.20001L246.59999 226.70001L197.29999 226.70001L174.19998 183.40001C 174.19998 183.40001 169.49998 175.3 166.59998 172.90001C 164.19998 170.90001 163.09998 170.20001 160.69998 170.20001L160.69998 170.20001L149 170.20001L149 226.6L105.4 226.6L105.4 82.5L193.1 82.5C 193.1 82.5 233 83.2 233 121.2C 233 159.2 194.9 162.1 194.9 162.1zM175.9 113.8L149.5 113.8L149.5 138.3L175.9 138.3C 175.9 138.3 188.09999 138.3 188.09999 125.8C 188.2 113.1 175.9 113.8 175.9 113.8z" stroke="none" fill="#5D5D5D" fill-rule="nonzero" />
</g>
</svg>