<svg version="1.1" xmlns="http://www.w3.org/2000/svg" xmlns:xlink="http://www.w3.org/1999/xlink" width="256px" height="256px" viewBox="0,0,256,256"><g transform="translate(64,64) scale(0.5,0.5)"><g fill="none" fill-rule="nonzero" stroke="none" stroke-width="1" stroke-linecap="butt" stroke-linejoin="miter" stroke-miterlimit="10" stroke-dasharray="" stroke-dashoffset="0" font-family="none" font-weight="none" font-size="none" text-anchor="none" style="mix-blend-mode: normal"><g transform="translate(-0.025,0)"><g><g><path d="M0.7,153.6c0.5,0.8 1.1,1.4 2,1.9l39.7,22.9v0c1.6,1 3.7,1 5.2,0l39.7,-22.9c1.6,-0.9 2.6,-2.7 2.6,-4.6v-45.8v0c0,-1.9 -1,-3.7 -2.6,-4.6l-39.6,-22.9v0c-1.6,-1 -3.7,-1 -5.2,0v0l-39.8,22.9c-1.7,0.9 -2.7,2.7 -2.7,4.6v0v45.9c0,0.9 0.3,1.8 0.7,2.6" fill="#5d5d5d"></path><path d="M32.3,145.4c0,2.8 -2.3,5.1 -5.1,5.1c-2.8,0 -5.1,-2.3 -5.1,-5.1v0v-35c0,-2.7 2.4,-5 5.8,-5c2.4,0 5.2,1 7,3.1l1.6,1.8l21.4,25.5v-25.4v0c0,-2.8 2.3,-5.1 5.1,-5.1c2.8,0 5.1,2.3 5.1,5.1v0v35.1c0,2.7 -2.4,5 -5.8,5c-2.4,0 -5.2,-1 -7,-3.1l-22.9,-27.3l-0.1,25.3v0z" fill="#ffffff"></path></g><path d="M127.1,143.6c-0.9,0 -1.8,-0.3 -2.4,-1l-20.4,-20.4v18c0,1.9 -1.5,3.4 -3.4,3.4c-1.9,0 -3.4,-1.5 -3.4,-3.4v-26.3c0,-1.4 0.8,-2.6 2.1,-3.2c1.3,-0.5 2.8,-0.2 3.8,0.7l20.4,20.4v-18c0,-1.9 1.5,-3.4 3.4,-3.4c1.9,0 3.4,1.5 3.4,3.4v26.3c-0.1,1.9 -1.6,3.5 -3.5,3.5M143,110.4l-1,1.8l-7.3,13.3l-1,1.7l1,1.7l7.3,12.9l1,1.8h19.2l1,-1.9l5.5,-11l2.5,-5h-5.5l-14,0.1c-1.8,0 -3.5,1.6 -3.5,3.4c0,1.8 1.7,3.5 3.5,3.4l8.4,-0.1l-2.1,4.2h-10.9l-5.4,-9.5l5.4,-9.8h11.5l2.7,5.5h6.9l-4.4,-10.5l-1,-1.9l-19.8,-0.1M177.9,110.4c-1.8,0 -3.4,1.7 -3.4,3.5v9h6.9v-9c0.1,-1.9 -1.6,-3.6 -3.5,-3.5M189,143.6c-1.9,0 -3.4,-1.5 -3.4,-3.4v-26.3c0,-1.9 1.5,-3.4 3.4,-3.4c1.9,0 3.4,1.5 3.4,3.4v18l20.4,-20.4c1,-1 2.5,-1.3 3.8,-0.7c1.3,0.6 2.1,1.8 2.1,3.2v26.3c0,1.9 -1.5,3.4 -3.4,3.4c-1.9,0 -3.4,-1.5 -3.4,-3.4v-18l-20.4,20.4c-0.7,0.6 -1.6,0.9 -2.5,0.9M244.3,127l10.7,-10.7c1.4,-1.4 1.4,-3.5 0,-4.9c-1.4,-1.4 -3.5,-1.4 -4.9,0l-10.7,10.7l-10.7,-10.7c-1.4,-1.4 -3.5,-1.4 -4.9,0c-1.4,1.4 -1.4,3.5 0,4.9l10.7,10.7l-10.7,10.7c-1.4,1.4 -1.4,3.5 0,4.9c0.6,0.6 1.5,1 2.4,1c0.9,0 1.8,-0.3 2.4,-1l10.7,-10.7l10.7,10.7c0.6,0.6 1.5,1 2.4,1c0.9,0 1.8,-0.3 2.4,-1c1.4,-1.4 1.4,-3.5 0,-4.9zM177.9,143.5c-1.8,0 -3.4,-1.7 -3.4,-3.5v-14.4h6.9v14.4c0.1,1.9 -1.6,3.5 -3.5,3.5" fill="#5d5d5d"></path></g></g></g></g></svg>