<svg version="1.1" xmlns="http://www.w3.org/2000/svg" xmlns:xlink="http://www.w3.org/1999/xlink" width="256px" height="256px" viewBox="0,0,256,256"><g transform="translate(51.2,51.2) scale(0.6,0.6)"><g fill="none" fill-rule="nonzero" stroke="none" stroke-width="1" stroke-linecap="butt" stroke-linejoin="miter" stroke-miterlimit="10" stroke-dasharray="" stroke-dashoffset="0" font-family="none" font-weight="none" font-size="none" text-anchor="none" style="mix-blend-mode: normal"><g transform="translate(-0.075,0)"><path d="M246.9,27.8l-52.7,-25.4c-6.1,-2.9 -13.4,-1.7 -18.2,3.1l-172.4,157.2c-4.6,4.2 -4.6,11.5 0,15.8l14.1,12.8c3.8,3.5 9.5,3.7 13.6,0.6l207.6,-157.5c7,-5.3 17,-0.3 17,8.4v-0.6c0,-6.2 -3.5,-11.8 -9,-14.4z" fill="#5b5b5b"></path><path d="M246.9,228.2l-52.7,25.4c-6.1,2.9 -13.4,1.7 -18.2,-3.1l-172.4,-157.2c-4.6,-4.2 -4.6,-11.5 0,-15.8l14.1,-12.8c3.8,-3.5 9.5,-3.7 13.6,-0.6l207.7,157.5c7,5.3 17,0.3 17,-8.4v0.6c-0.1,6.2 -3.6,11.8 -9.1,14.4z" fill="#676767"></path><path d="M194.2,253.6c-6.1,2.9 -13.4,1.7 -18.2,-3.1c5.9,5.9 16,1.7 16,-6.6v-231.8c0,-8.3 -10.1,-12.5 -16,-6.6c4.8,-4.8 12.1,-6 18.2,-3.1l52.7,25.3c5.5,2.7 9.1,8.3 9.1,14.4v171.7c0,6.1 -3.5,11.7 -9.1,14.4z" fill="#8a8a8a"></path></g></g></g></svg>