<?xml version="1.0" encoding="utf-8"?>
<!-- Generator: Adobe Illustrator 24.0.1, SVG Export Plug-In . SVG Version: 6.00 Build 0)  -->
<svg version="1.1" id="Layer_1" xmlns="http://www.w3.org/2000/svg" xmlns:xlink="http://www.w3.org/1999/xlink" x="0px" y="0px"
	 viewBox="0 0 256 256" style="enable-background:new 0 0 256 256;" xml:space="preserve">
<style type="text/css">
	.st0{fill-rule:evenodd;clip-rule:evenodd;fill:url(#SVGID_1_);}
	.st1{fill-rule:evenodd;clip-rule:evenodd;fill:#5D5D5D;}
</style>
<linearGradient id="SVGID_1_" gradientUnits="userSpaceOnUse" x1="95.0049" y1="19.0102" x2="174.0617" y2="249.0404">
	<stop  offset="0" style="stop-color:#B8B8B8"/>
	<stop  offset="1" style="stop-color:#929292"/>
</linearGradient>
<path class="st0" d="M128,200.7C57.3,200.7,0,162.4,0,115c0-47.3,57.3-85.7,128-85.7S256,67.7,256,115
	C256,162.4,198.7,200.7,128,200.7z M147.6,62.8c-53.7,0-97.3,26.2-97.3,58.6S93.9,180,147.6,180s93.3-17.9,93.3-58.6
	C240.9,80.8,201.3,62.8,147.6,62.8L147.6,62.8z"/>
<path class="st1" d="M194.9,162.1c0,0,7.7,2.3,12.2,4.6c1.6,0.8,4.3,2.4,6.2,4.4s2.8,4.1,2.8,4.1l30.5,51.5h-49.3l-23.1-43.3
	c0,0-4.7-8.1-7.6-10.5c-2.4-2-3.5-2.7-5.9-2.7H149v56.4h-43.6V82.5h87.7c0,0,39.9,0.7,39.9,38.7S194.9,162.1,194.9,162.1z
	 M175.9,113.8h-26.4v24.5h26.4c0,0,12.2,0,12.2-12.5C188.2,113.1,175.9,113.8,175.9,113.8L175.9,113.8z"/>
</svg>
