<?xml version="1.0" encoding="UTF-8"?>
<svg xmlns="http://www.w3.org/2000/svg" xmlns:xlink="http://www.w3.org/1999/xlink" width="px" height="0px" viewBox="0 0 192 192" version="1.1">
<g id="surface1">
<path style=" stroke:none;fill-rule:nonzero;fill:rgb(39.215686%,39.215686%,39.215686%);fill-opacity:1;" d="M 95.324219 0.601562 C 46.648438 0.601562 49.648438 21.675781 49.648438 21.675781 L 49.726562 43.574219 L 96.148438 43.574219 L 96.148438 50.175781 L 31.273438 50.175781 C 31.273438 50.175781 0.0742188 46.648438 0.0742188 95.773438 C 0.0742188 144.898438 27.300781 143.175781 27.300781 143.175781 L 43.5 143.175781 L 43.5 120.375 C 43.5 120.375 42.601562 93.148438 70.273438 93.148438 L 116.25 93.148438 C 116.25 93.148438 142.199219 93.601562 142.199219 68.101562 L 142.199219 26.101562 C 142.273438 26.023438 146.175781 0.601562 95.324219 0.601562 Z M 69.675781 15.300781 C 74.324219 15.300781 78 19.050781 78 23.625 C 78 28.199219 74.25 31.949219 69.675781 31.949219 C 65.101562 31.949219 61.351562 28.199219 61.351562 23.625 C 61.273438 19.050781 65.023438 15.300781 69.675781 15.300781 Z M 69.675781 15.300781 "/>
<path style=" stroke:none;fill-rule:nonzero;fill:rgb(87.058824%,87.058824%,87.058824%);fill-opacity:1;" d="M 96.675781 191.398438 C 145.351562 191.398438 142.351562 170.324219 142.351562 170.324219 L 142.273438 148.425781 L 95.851562 148.425781 L 95.851562 141.824219 L 160.726562 141.824219 C 160.726562 141.824219 191.925781 145.351562 191.925781 96.226562 C 191.925781 47.101562 164.699219 48.824219 164.699219 48.824219 L 148.5 48.824219 L 148.5 71.625 C 148.5 71.625 149.398438 98.851562 121.726562 98.851562 L 75.75 98.851562 C 75.75 98.851562 49.800781 98.398438 49.800781 123.898438 L 49.800781 165.976562 C 49.726562 165.976562 45.824219 191.398438 96.675781 191.398438 Z M 122.324219 176.699219 C 117.75 176.699219 114 172.949219 114 168.375 C 114 163.800781 117.75 160.050781 122.324219 160.050781 C 126.976562 160.050781 130.648438 163.800781 130.648438 168.375 C 130.726562 172.949219 126.976562 176.699219 122.324219 176.699219 Z M 122.324219 176.699219 "/>
</g>
</svg>
