<svg version="1.1" xmlns="http://www.w3.org/2000/svg" xmlns:xlink="http://www.w3.org/1999/xlink" width="256px" height="256px" viewBox="0,0,256,256"><g transform="translate(51.2,51.2) scale(0.6,0.6)"><g fill="#7f7f7f" fill-rule="nonzero" stroke="none" stroke-width="1" stroke-linecap="butt" stroke-linejoin="miter" stroke-miterlimit="10" stroke-dasharray="" stroke-dashoffset="0" font-family="none" font-weight="none" font-size="none" text-anchor="none" style="mix-blend-mode: normal"><g transform="translate(-0.02357,-0.00494)"><path d="M237.5,104.8c5.8,-17.4 3.8,-36.5 -5.5,-52.3c-13.9,-24.3 -42,-36.7 -69.3,-30.9c-23.9,-26.5 -64.7,-28.7 -91.2,-4.8c-8.5,7.5 -14.7,17.2 -18.2,27.9c-18,3.7 -33.5,14.9 -42.6,30.9c-14.1,24.2 -10.9,54.8 7.9,75.6c-5.8,17.4 -3.8,36.5 5.4,52.3c14,24.3 42,36.8 69.4,30.9c12.2,13.7 29.7,21.5 48,21.4c28,0 52.9,-18.1 61.5,-44.8c18,-3.7 33.5,-14.9 42.6,-30.9c13.9,-24.2 10.7,-54.6 -8,-75.3zM141.4,239.1c-11.2,0 -22,-3.9 -30.6,-11.1l1.5,-0.9l50.9,-29.4c2.6,-1.5 4.2,-4.3 4.2,-7.3v-71.7l21.5,12.4c0.2,0.1 0.4,0.3 0.4,0.6v59.4c-0.1,26.5 -21.5,47.9 -47.9,48zM38.5,195.1c-5.6,-9.7 -7.6,-21.1 -5.7,-32.1l1.5,0.9l50.9,29.4c2.6,1.5 5.7,1.5 8.3,0l62.2,-35.9v24.8c0,0.3 -0.1,0.5 -0.4,0.7l-51.5,29.7c-22.8,13.3 -52,5.4 -65.3,-17.5zM25.1,84.3c5.7,-9.8 14.6,-17.2 25.2,-21v60.5c0,3 1.5,5.7 4.1,7.2l61.9,35.7l-21.5,12.4c-0.2,0.1 -0.5,0.1 -0.8,0l-51.4,-29.7c-22.8,-13.2 -30.6,-42.5 -17.5,-65.4zM201.9,125.4l-62.1,-36.1l21.5,-12.4c0.2,-0.1 0.5,-0.1 0.8,0l51.4,29.7c22.9,13.2 30.7,42.5 17.5,65.4c-5.6,9.6 -14.3,17 -24.7,20.9v-60.5c-0.2,-2.9 -1.8,-5.6 -4.4,-7zM223.3,93.2l-1.5,-0.9l-50.8,-29.6c-2.6,-1.5 -5.8,-1.5 -8.4,0l-62.2,35.9v-24.9c0,-0.3 0.1,-0.5 0.3,-0.7l51.4,-29.7c22.9,-13.2 52.2,-5.3 65.4,17.6c5.6,9.7 7.6,21 5.7,32zM88.7,137.2l-21.5,-12.4c-0.2,-0.1 -0.4,-0.4 -0.4,-0.6v-59.3c0,-26.5 21.5,-47.9 48,-47.8c11.2,0 22,3.9 30.6,11.1l-1.5,0.9l-51,29.2c-2.6,1.5 -4.2,4.3 -4.2,7.3zM100.4,112l27.7,-16l27.8,16v31.9l-27.7,16l-27.8,-16z"></path></g></g></g></svg>