<?xml version="1.0" encoding="UTF-8"?>
<svg xmlns="http://www.w3.org/2000/svg" xmlns:xlink="http://www.w3.org/1999/xlink" width="px" height="0px" viewBox="0 0 192 192" version="1.1">
<g id="surface1">
<path style=" stroke:none;fill-rule:nonzero;fill:rgb(39.215686%,39.215686%,39.215686%);fill-opacity:1;" d="M 81.074219 174.449219 C 36.375 174.449219 0.0742188 138.074219 0.0742188 93.449219 C 0.0742188 48.75 36.449219 12.449219 81.074219 12.449219 C 98.476562 12.449219 115.125 17.925781 129.074219 28.199219 L 112.125 51.226562 C 103.125 44.550781 92.398438 41.023438 81 41.023438 C 52.050781 41.023438 28.574219 64.574219 28.574219 93.449219 C 28.574219 122.324219 52.125 145.875 81 145.875 C 81.601562 145.875 82.199219 145.875 82.726562 145.875 L 83.699219 174.449219 C 82.875 174.449219 81.976562 174.449219 81.074219 174.449219 Z M 81.074219 174.449219 "/>
<path style=" stroke:none;fill-rule:nonzero;fill:rgb(39.215686%,39.215686%,39.215686%);fill-opacity:1;" d="M 162.074219 93.449219 L 133.5 93.449219 C 133.5 80.625 128.773438 68.175781 120.226562 58.574219 L 141.523438 39.601562 C 154.800781 54.449219 162.074219 73.574219 162.074219 93.449219 Z M 162.074219 93.449219 "/>
<path style=" stroke:none;fill-rule:nonzero;fill:rgb(39.215686%,39.215686%,39.215686%);fill-opacity:1;" d="M 62.851562 96.976562 L 109.726562 96.976562 L 191.925781 179.476562 L 145.648438 179.476562 Z M 62.851562 96.976562 "/>
<path style=" stroke:none;fill-rule:nonzero;fill:rgb(76.470588%,76.470588%,76.470588%);fill-opacity:1;" d="M 8.25 58.050781 L 33.675781 70.949219 C 31.648438 75.226562 26.773438 86.925781 29.25 102 C 32.101562 119.101562 42.523438 129.300781 45.824219 132.300781 C 43.351562 131.699219 16.726562 124.425781 7.050781 98.175781 C -0.0742188 78.976562 6.523438 62.101562 8.25 58.050781 Z M 8.25 58.050781 "/>
</g>
</svg>
