<?xml version="1.0" standalone="no"?>
<!DOCTYPE svg PUBLIC "-//W3C//DTD SVG 1.0//EN" "http://www.w3.org/TR/2001/REC-SVG-20010904/DTD/svg10.dtd">
<svg xmlns="http://www.w3.org/2000/svg" xmlns:xlink="http://www.w3.org/1999/xlink" id="body_1" width="512" height="384">

<g transform="matrix(1.5 0 0 1.5 64.000015 -0)">
    <path d="M17.3 191.9C 18.5 194 20.099998 195.5 22.199999 196.7L22.199999 196.7L121.5 253.9C 125.6 256.3 130.7 256.3 134.6 253.9L134.6 253.9L233.90001 196.7C 238.00002 194.4 240.50002 190 240.50002 185.2L240.50002 185.2L240.50002 70.8C 240.50002 66 238.10002 61.600002 233.90001 59.300003L233.90001 59.300003L134.6 2.1C 130.5 -0.3000002 125.40001 -0.3000002 121.50001 2.1L121.50001 2.1L22.2 59.3C 17.900002 61.6 15.500001 66 15.500001 70.8L15.500001 70.8L15.500001 185.4C 15.5 187.7 16.1 189.9 17.3 191.9" stroke="none" fill="#5D5D5D" fill-rule="nonzero" />
    <path d="M96.2 171.6C 96.2 178.70001 90.5 184.40001 83.399994 184.40001C 76.299995 184.40001 70.59999 178.70001 70.59999 171.6L70.59999 171.6L70.59999 84.1C 70.59999 77.299995 76.69999 71.7 84.99999 71.7C 91.09999 71.7 98.09999 74.1 102.399994 79.399994L102.399994 79.399994L106.299995 83.99999L159.7 147.79999L159.7 84.3C 159.7 77.200005 165.4 71.5 172.5 71.5C 179.6 71.5 185.3 77.2 185.3 84.3L185.3 84.3L185.3 171.9C 185.3 178.7 179.2 184.29999 170.90001 184.29999C 164.8 184.29999 157.8 181.9 153.50002 176.59999L153.50002 176.59999L96.30002 108.29999L96.30002 171.59999L96.2 171.6z" stroke="none" fill="#FFFFFF" fill-rule="nonzero" />
</g>
</svg>