<svg version="1.1" xmlns="http://www.w3.org/2000/svg" xmlns:xlink="http://www.w3.org/1999/xlink" width="256px" height="256px" viewBox="0,0,256,256"><g transform="translate(25.6,25.6) scale(0.8,0.8)"><g fill="none" fill-rule="nonzero" stroke="none" stroke-width="1" stroke-linecap="butt" stroke-linejoin="miter" stroke-miterlimit="10" stroke-dasharray="" stroke-dashoffset="0" font-family="none" font-weight="none" font-size="none" text-anchor="none" style="mix-blend-mode: normal"><g transform="translate(-0.075,0)"><g><g><path d="M53.8,106.3l-11.4,-5.5c-1.3,-0.6 -2.9,-0.4 -3.9,0.7l-37.4,34c-1,0.9 -1,2.5 0,3.4l3.1,2.8c0.8,0.8 2.1,0.8 2.9,0.1l45,-34.1c1.5,-1.1 3.7,-0.1 3.7,1.8v-0.1c0,-1.3 -0.8,-2.6 -2,-3.1z" fill="#5b5b5b"></path><path d="M53.8,149.7l-11.4,5.5c-1.3,0.6 -2.9,0.4 -3.9,-0.7l-37.4,-34c-1,-0.9 -1,-2.5 0,-3.4l3.1,-2.8c0.8,-0.8 2.1,-0.8 2.9,-0.1l45,34.1c1.5,1.1 3.7,0.1 3.7,-1.8v0.1c0,1.3 -0.8,2.6 -2,3.1z" fill="#676767"></path><path d="M42.4,155.2c-1.3,0.6 -2.9,0.4 -3.9,-0.7c1.3,1.3 3.5,0.4 3.5,-1.4v-50.2c0,-1.8 -2.2,-2.7 -3.5,-1.4c1,-1 2.6,-1.3 3.9,-0.7l11.4,5.5c1.2,0.6 2,1.8 2,3.1v37.2c0,1.3 -0.8,2.5 -2,3.1z" fill="#8a8a8a"></path></g><path d="M79.2,134.6h-1.5l-5.8,-16h1.7l4.6,12.8l0.2,0.7c0,0.2 0.1,0.5 0.2,0.8c0,-0.2 0.1,-0.5 0.2,-0.7c0,-0.2 0.1,-0.5 0.2,-0.8l4.7,-12.8h1.6zM88.1,120.2c-0.3,0 -0.5,-0.1 -0.7,-0.3c-0.2,-0.2 -0.3,-0.5 -0.2,-0.8c0,-0.3 0.1,-0.5 0.3,-0.7c0.2,-0.2 0.4,-0.3 0.7,-0.3c0.1,0 0.3,0 0.4,0c0.1,0.1 0.2,0.1 0.3,0.2c0.1,0.1 0.2,0.2 0.2,0.3c0.1,0.1 0.1,0.3 0.1,0.4c0,0.1 0,0.3 0,0.4c-0.1,0.1 -0.1,0.2 -0.2,0.3c-0.1,0.1 -0.2,0.2 -0.3,0.2c-0.2,0.3 -0.4,0.3 -0.6,0.3zM87.4,134.6v-11.5h1.6v11.5zM91.9,132.6c0.5,0.3 1,0.6 1.5,0.8c0.3,0.1 0.5,0.2 0.8,0.2c0.3,0 0.5,0 0.8,0c1.7,0 2.6,-0.6 2.6,-1.9c0,-0.3 -0.1,-0.5 -0.2,-0.7c-0.1,-0.2 -0.3,-0.4 -0.5,-0.6c-0.2,-0.2 -0.5,-0.3 -0.8,-0.4c-0.3,-0.2 -0.7,-0.3 -1.1,-0.5c-0.5,-0.2 -0.9,-0.4 -1.4,-0.7c-0.3,-0.2 -0.7,-0.4 -0.9,-0.7c-0.2,-0.3 -0.4,-0.5 -0.6,-0.9c-0.1,-0.4 -0.2,-0.7 -0.2,-1.1c0,-0.5 0.1,-0.9 0.3,-1.4c0.2,-0.4 0.5,-0.7 0.9,-1c0.4,-0.3 0.8,-0.5 1.3,-0.6c0.5,-0.1 1,-0.2 1.6,-0.2c0.9,0 1.8,0.2 2.6,0.6v1.5c-0.8,-0.5 -1.8,-0.8 -2.8,-0.8c-0.3,0 -0.7,0 -1,0.1c-0.3,0.1 -0.5,0.2 -0.8,0.4c-0.2,0.2 -0.4,0.4 -0.5,0.6c-0.1,0.2 -0.2,0.5 -0.2,0.8c0,0.3 0,0.5 0.1,0.7c0.1,0.2 0.2,0.4 0.4,0.6c0.2,0.2 0.5,0.4 0.7,0.5c0.3,0.2 0.7,0.3 1.1,0.5l1.4,0.7c0.4,0.2 0.7,0.4 1,0.7c0.3,0.2 0.5,0.5 0.6,0.9c0.1,0.4 0.2,0.7 0.2,1.1c0,0.5 -0.1,0.9 -0.3,1.4c-0.2,0.4 -0.5,0.8 -0.9,1c-0.4,0.3 -0.8,0.5 -1.3,0.6c-0.5,0.1 -1.1,0.2 -1.7,0.2c-1,0 -2,-0.2 -2.9,-0.7zM109.4,134.6v-2c-0.6,1.4 -2,2.3 -3.6,2.2c-2.7,0 -4.1,-1.7 -4.1,-5v-6.8h1.4v6.5c-0.1,1.1 0.2,2.1 0.7,3c0.5,0.7 1.4,1.1 2.2,1c0.5,0 0.9,-0.1 1.4,-0.3c0.4,-0.2 0.8,-0.5 1.1,-0.8c0.3,-0.4 0.5,-0.8 0.7,-1.2c0.2,-0.5 0.2,-1.1 0.2,-1.6v-6.5h1.4v11.5zM121.1,134.6v-2c-0.3,0.7 -0.9,1.3 -1.5,1.8c-0.7,0.4 -1.4,0.6 -2.2,0.6c-0.5,0 -1,-0.1 -1.5,-0.2c-0.4,-0.1 -0.8,-0.4 -1.1,-0.7c-0.3,-0.3 -0.6,-0.6 -0.7,-1c-0.2,-0.4 -0.3,-0.9 -0.2,-1.3c0,-0.9 0.3,-1.8 1,-2.5c0.8,-0.7 1.8,-1.1 2.9,-1.2l3.6,-0.5c0,-2.2 -0.9,-3.3 -2.6,-3.3c-1.4,0 -2.7,0.5 -3.7,1.5v-1.6c0.2,-0.2 0.5,-0.3 0.8,-0.5c0.3,-0.1 0.6,-0.3 1,-0.4c0.3,-0.1 0.7,-0.2 1,-0.2c0.3,0 0.7,0 1,0c1.1,-0.1 2.1,0.3 2.9,1.1c0.7,0.9 1.1,2.1 1,3.2v7.5zM118.2,129c-0.4,0.1 -0.9,0.2 -1.3,0.3c-0.3,0.1 -0.6,0.2 -0.9,0.4c-0.2,0.2 -0.4,0.4 -0.5,0.7c-0.1,0.3 -0.2,0.7 -0.2,1c0,0.3 0.1,0.6 0.2,0.9c0.1,0.3 0.3,0.5 0.5,0.7c0.2,0.2 0.5,0.4 0.7,0.4c0.3,0.1 0.7,0.2 1,0.2c0.5,0 1,-0.1 1.4,-0.3c0.4,-0.2 0.8,-0.5 1.1,-0.8c0.3,-0.4 0.6,-0.8 0.7,-1.2c0.2,-0.5 0.3,-1 0.2,-1.6v-1.1zM126,134.6v-17h1.4v17zM137.1,132.3c0.3,0.2 0.6,0.4 0.9,0.5c0.3,0.2 0.7,0.3 1,0.4c0.4,0.1 0.7,0.2 1,0.2c0.3,0 0.7,0 1,0c1,0.1 1.9,-0.2 2.7,-0.7c0.6,-0.5 0.9,-1.3 0.9,-2c0,-0.4 -0.1,-0.8 -0.2,-1.1c-0.2,-0.3 -0.4,-0.6 -0.7,-0.9c-0.3,-0.3 -0.7,-0.6 -1.1,-0.8l-1.6,-0.9l-1.8,-1.1c-0.4,-0.3 -0.8,-0.6 -1.2,-1c-0.3,-0.3 -0.5,-0.7 -0.7,-1.1c-0.2,-0.4 -0.2,-0.9 -0.2,-1.4c0,-0.6 0.1,-1.2 0.4,-1.8c0.3,-0.5 0.7,-1 1.1,-1.3c0.5,-0.4 1,-0.7 1.6,-0.8c0.7,-0.2 1.4,-0.2 2.1,-0.2c1.1,0 2.2,0.1 3.2,0.5v1.7c-1,-0.6 -2.2,-0.9 -3.3,-0.8c-0.5,0 -0.9,0.1 -1.3,0.2c-0.4,0.1 -0.8,0.3 -1.1,0.5c-0.3,0.2 -0.6,0.5 -0.7,0.8c-0.2,0.4 -0.3,0.8 -0.3,1.2c0,0.4 0,0.7 0.2,1.1c0.1,0.3 0.3,0.6 0.6,0.9c0.3,0.3 0.7,0.6 1.1,0.8l1.6,0.9c0.6,0.3 1.2,0.7 1.8,1.1c0.5,0.3 0.9,0.7 1.2,1.1c0.3,0.3 0.6,0.7 0.7,1.2c0.2,0.4 0.3,0.9 0.2,1.4c0,0.6 -0.1,1.2 -0.4,1.8c-0.3,0.5 -0.6,1 -1.1,1.3c-0.5,0.4 -1.1,0.6 -1.7,0.8c-0.7,0.2 -1.4,0.3 -2.1,0.3c-0.3,0 -0.6,0 -0.9,0c-0.4,0 -0.7,-0.1 -1.1,-0.2c-0.3,-0.1 -0.7,-0.2 -1,-0.3c-0.3,-0.1 -0.5,-0.2 -0.8,-0.4zM153.4,134.5c-0.5,0.3 -1.1,0.4 -1.6,0.4c-1.9,0 -2.8,-1.1 -2.8,-3.2v-7.3h-2v-1.2h2v-2.9l1.4,-0.5v3.4h3v1.2h-3v7c-0.1,0.6 0.1,1.2 0.4,1.8c0.3,0.4 0.8,0.6 1.3,0.5c0.5,0 0.9,-0.1 1.3,-0.4zM163.3,134.6v-2c-0.6,1.4 -2,2.3 -3.6,2.2c-2.7,0 -4.1,-1.7 -4.1,-5v-6.8h1.4v6.5c-0.1,1.1 0.2,2.1 0.7,3c0.5,0.7 1.4,1.1 2.2,1c0.5,0 0.9,-0.1 1.4,-0.3c0.4,-0.2 0.8,-0.5 1.1,-0.8c0.3,-0.4 0.5,-0.8 0.7,-1.2c0.2,-0.5 0.3,-1.1 0.2,-1.6v-6.5h1.4v11.5zM176.5,134.6v-2c-0.4,0.7 -0.9,1.3 -1.6,1.7c-0.7,0.4 -1.6,0.6 -2.4,0.6c-0.7,0 -1.3,-0.1 -1.9,-0.4c-0.6,-0.3 -1.1,-0.6 -1.5,-1.1c-0.4,-0.5 -0.8,-1.1 -1,-1.8c-0.2,-0.8 -0.4,-1.6 -0.4,-2.4c0,-0.9 0.1,-1.7 0.4,-2.5c0.2,-0.8 0.6,-1.5 1.1,-2.1c0.5,-0.5 1,-1 1.7,-1.3c0.7,-0.3 1.4,-0.5 2.2,-0.4c1.5,-0.1 2.9,0.7 3.6,2v-7.1h1.4v17zM176.5,127.7c0,-0.5 -0.1,-0.9 -0.2,-1.4c-0.2,-0.4 -0.4,-0.8 -0.7,-1.1c-0.3,-0.3 -0.7,-0.6 -1.1,-0.8c-0.4,-0.2 -0.9,-0.3 -1.4,-0.3c-0.5,0 -1.1,0.1 -1.6,0.3c-0.5,0.2 -0.9,0.6 -1.2,1c-0.4,0.5 -0.6,1 -0.8,1.5c-0.2,0.7 -0.3,1.4 -0.3,2c0,0.7 0.1,1.3 0.3,1.9c0.1,0.5 0.4,1 0.7,1.5c0.6,0.8 1.6,1.2 2.6,1.2c0.5,0 1.1,-0.1 1.6,-0.3c0.9,-0.4 1.6,-1.2 1.9,-2.2c0.2,-0.5 0.3,-1 0.3,-1.6zM182.3,120.2c-0.3,0 -0.5,-0.1 -0.7,-0.3c-0.2,-0.2 -0.3,-0.5 -0.3,-0.7c0,-0.3 0.1,-0.5 0.3,-0.7c0.2,-0.2 0.4,-0.3 0.7,-0.3c0.1,0 0.3,0 0.4,0c0.1,0 0.2,0.1 0.3,0.2c0.1,0.1 0.2,0.2 0.2,0.3c0.1,0.3 0.1,0.6 0,0.8c0,0.1 -0.1,0.2 -0.2,0.3c-0.1,0.1 -0.2,0.2 -0.3,0.2c-0.1,0.2 -0.2,0.2 -0.4,0.2zM181.6,134.6v-11.5h1.4v11.5zM191.4,134.9c-0.8,0 -1.6,-0.1 -2.3,-0.4c-0.7,-0.3 -1.3,-0.7 -1.8,-1.2c-0.5,-0.5 -0.9,-1.1 -1.1,-1.8c-0.3,-0.8 -0.4,-1.6 -0.4,-2.4c0,-0.9 0.1,-1.7 0.4,-2.6c0.3,-0.7 0.7,-1.4 1.2,-1.9c0.5,-0.5 1.1,-0.9 1.8,-1.2c0.7,-0.3 1.5,-0.4 2.4,-0.4c0.8,0 1.5,0.1 2.2,0.4c0.7,0.2 1.3,0.6 1.8,1.2c0.4,0.5 0.8,1.1 1,1.8c0.5,1.6 0.5,3.4 0,5c-0.2,0.7 -0.6,1.3 -1.1,1.9c-0.5,0.5 -1.1,1 -1.8,1.2c-0.7,0.2 -1.5,0.4 -2.3,0.4zM191.5,124.1c-0.6,0 -1.2,0.1 -1.8,0.3c-0.5,0.2 -0.9,0.5 -1.3,0.9c-0.4,0.4 -0.7,1 -0.8,1.5c-0.2,0.7 -0.3,1.4 -0.3,2c0,0.7 0.1,1.3 0.3,1.9c0.2,0.5 0.5,1 0.8,1.5c0.3,0.4 0.8,0.7 1.3,0.9c0.6,0.2 1.2,0.4 1.8,0.3c0.6,0 1.2,-0.1 1.8,-0.3c0.5,-0.2 0.9,-0.5 1.3,-0.9c0.4,-0.4 0.6,-0.9 0.8,-1.5c0.2,-0.7 0.3,-1.3 0.3,-2c0.1,-1.3 -0.3,-2.5 -1,-3.6c-0.9,-0.6 -2,-1.1 -3.2,-1zM217.2,134c-1.3,0.6 -2.8,0.9 -4.3,0.9c-1.1,0 -2.1,-0.2 -3.1,-0.6c-0.9,-0.4 -1.7,-1 -2.4,-1.7c-0.7,-0.7 -1.2,-1.6 -1.5,-2.5c-0.4,-1 -0.5,-2.1 -0.5,-3.2c0,-1.2 0.2,-2.3 0.6,-3.4c0.4,-1 0.9,-1.9 1.6,-2.7c0.7,-0.8 1.6,-1.4 2.5,-1.8c1.1,-0.5 2.2,-0.7 3.3,-0.7c1.3,0 2.5,0.2 3.7,0.6v1.6c-1.1,-0.6 -2.4,-0.9 -3.7,-0.9c-1,0 -1.9,0.2 -2.8,0.5c-0.8,0.3 -1.5,0.9 -2,1.5c-0.6,0.7 -1,1.4 -1.3,2.3c-0.3,0.9 -0.4,1.9 -0.4,2.9c0,0.9 0.1,1.8 0.4,2.6c0.2,0.8 0.6,1.5 1.2,2.1c0.5,0.6 1.2,1.1 1.9,1.5c0.8,0.4 1.7,0.6 2.7,0.5c1.4,0 2.8,-0.3 4.1,-1zM225.1,134.9c-0.8,0 -1.6,-0.1 -2.3,-0.4c-0.7,-0.3 -1.3,-0.7 -1.8,-1.2c-0.5,-0.5 -0.9,-1.1 -1.1,-1.8c-0.3,-0.8 -0.4,-1.6 -0.4,-2.4c0,-0.9 0.1,-1.7 0.4,-2.6c0.3,-0.7 0.7,-1.4 1.2,-1.9c0.5,-0.5 1.1,-1 1.8,-1.2c0.7,-0.3 1.5,-0.4 2.4,-0.4c0.8,0 1.5,0.1 2.2,0.4c0.7,0.2 1.3,0.6 1.8,1.2c0.5,0.5 0.8,1.2 1.1,1.9c0.3,0.8 0.4,1.7 0.4,2.5c0,0.8 -0.1,1.7 -0.4,2.5c-0.2,0.7 -0.6,1.3 -1.1,1.9c-0.5,0.5 -1.1,1 -1.8,1.2c-0.8,0.2 -1.6,0.3 -2.4,0.3zM225.2,124.1c-0.6,0 -1.2,0.1 -1.8,0.3c-0.5,0.2 -0.9,0.5 -1.3,0.9c-0.4,0.4 -0.7,1 -0.8,1.5c-0.2,0.7 -0.3,1.4 -0.3,2c0,0.7 0.1,1.3 0.3,1.9c0.2,0.5 0.5,1 0.8,1.5c0.4,0.4 0.8,0.7 1.3,0.9c1.1,0.4 2.3,0.4 3.4,0c0.5,-0.2 0.9,-0.5 1.2,-0.9c0.4,-0.4 0.6,-0.9 0.8,-1.5c0.2,-0.7 0.3,-1.3 0.3,-2c0.1,-1.3 -0.3,-2.5 -1,-3.6c-0.8,-0.6 -1.8,-1 -2.9,-1zM241.6,134.6v-2c-0.4,0.7 -0.9,1.3 -1.6,1.7c-1.3,0.7 -3,0.8 -4.4,0.2c-0.6,-0.3 -1.1,-0.6 -1.5,-1.1c-0.4,-0.5 -0.8,-1.1 -1,-1.8c-0.2,-0.8 -0.4,-1.6 -0.3,-2.4c0,-0.9 0.1,-1.7 0.4,-2.5c0.2,-0.7 0.6,-1.4 1.1,-2c0.4,-0.6 1,-1 1.7,-1.3c0.7,-0.3 1.4,-0.5 2.2,-0.4c1.5,-0.1 2.9,0.7 3.6,2v-7.3h1.4v17zM241.6,127.7c0,-0.5 -0.1,-1 -0.3,-1.4c-0.2,-0.4 -0.4,-0.8 -0.7,-1.1c-0.3,-0.3 -0.7,-0.6 -1.1,-0.8c-0.5,-0.2 -0.9,-0.3 -1.4,-0.3c-0.5,0 -1.1,0.1 -1.6,0.3c-0.5,0.2 -0.9,0.6 -1.2,1c-0.4,0.5 -0.6,1 -0.8,1.5c-0.2,0.7 -0.3,1.4 -0.3,2.1c0,0.7 0.1,1.3 0.2,1.9c0.2,0.5 0.4,1 0.7,1.5c0.3,0.4 0.7,0.7 1.1,0.9c0.5,0.2 1,0.3 1.5,0.3c0.5,0 1.1,-0.1 1.6,-0.3c0.4,-0.2 0.9,-0.5 1.2,-0.9c0.3,-0.4 0.6,-0.8 0.7,-1.3c0.2,-0.5 0.3,-1 0.3,-1.6zM247.4,129.2c0,0.6 0.1,1.3 0.3,1.9c0.1,0.5 0.4,1 0.8,1.4c0.3,0.4 0.8,0.7 1.2,0.9c0.5,0.2 1.1,0.3 1.6,0.3c1.3,0 2.6,-0.5 3.7,-1.4v1.4c-1.2,0.8 -2.6,1.2 -4,1.2c-0.7,0 -1.4,-0.1 -2.1,-0.4c-0.6,-0.3 -1.2,-0.7 -1.6,-1.2c-0.5,-0.6 -0.8,-1.2 -1,-1.9c-0.2,-0.8 -0.4,-1.7 -0.4,-2.5c0,-0.8 0.1,-1.6 0.4,-2.4c0.2,-0.7 0.6,-1.3 1.1,-1.9c0.5,-0.5 1,-1 1.7,-1.3c0.7,-0.3 1.4,-0.5 2.1,-0.4c0.7,0 1.3,0.1 2,0.4c0.6,0.3 1,0.6 1.4,1.1c0.4,0.5 0.7,1.1 0.9,1.8c0.2,0.8 0.3,1.5 0.3,2.3v0.7zM254.2,127.9c0,-1 -0.3,-2 -0.9,-2.8c-0.6,-0.7 -1.4,-1 -2.3,-1c-0.5,0 -0.9,0.1 -1.4,0.3c-0.4,0.2 -0.8,0.4 -1.1,0.7c-0.3,0.3 -0.6,0.7 -0.8,1.2c-0.2,0.5 -0.4,1 -0.4,1.6z" fill="#8a8a8a"></path></g></g></g></g></svg>