<?xml version="1.0" encoding="UTF-8"?>
<svg xmlns="http://www.w3.org/2000/svg" xmlns:xlink="http://www.w3.org/1999/xlink" width="px" height="0px" viewBox="0 0 192 192" version="1.1">
<g id="surface1">
<path style=" stroke:none;fill-rule:nonzero;fill:rgb(36.470588%,36.470588%,36.470588%);fill-opacity:1;" d="M 183.898438 85.050781 C 183.523438 81.824219 183.074219 78.074219 182.023438 74.023438 C 180.976562 69.976562 179.324219 65.550781 177.074219 60.75 C 174.675781 56.175781 171.824219 51.226562 167.925781 46.648438 C 166.425781 44.773438 164.699219 43.050781 162.976562 41.175781 C 165.675781 30.449219 159.75 21 159.75 21 C 149.398438 20.324219 142.875 24.226562 140.476562 25.949219 C 140.101562 25.800781 139.648438 25.574219 139.273438 25.425781 C 137.550781 24.75 135.675781 24.074219 133.800781 23.398438 C 131.925781 22.875 130.050781 22.199219 128.175781 21.898438 C 126.300781 21.375 124.273438 21.074219 122.25 20.699219 C 121.875 20.699219 121.574219 20.550781 121.199219 20.550781 C 116.699219 6.074219 103.800781 0 103.800781 0 C 88.949219 9.449219 86.101562 22.273438 86.101562 22.273438 C 86.101562 22.273438 86.101562 22.648438 85.949219 22.949219 C 85.125 23.101562 84.449219 23.476562 83.550781 23.625 C 82.5 24 81.300781 24.300781 80.324219 24.824219 C 79.273438 25.351562 78.074219 25.648438 77.101562 26.175781 C 74.851562 27.226562 72.824219 28.199219 70.648438 29.398438 C 68.625 30.523438 66.601562 31.800781 64.726562 33.148438 C 64.351562 33 64.199219 32.773438 64.199219 32.773438 C 44.25 25.125 26.550781 34.273438 26.550781 34.273438 C 24.976562 55.648438 34.5 68.851562 36.375 71.25 C 35.851562 72.601562 35.550781 73.800781 35.023438 75.148438 C 33.523438 79.949219 32.398438 84.898438 31.800781 89.925781 C 31.648438 90.601562 31.648438 91.425781 31.425781 92.175781 C 12.976562 101.175781 7.574219 120 7.574219 120 C 22.875 137.699219 41.023438 138.824219 41.023438 138.824219 C 43.273438 142.875 45.898438 146.773438 48.824219 150.375 C 50.023438 151.875 51.375 153.300781 52.726562 154.800781 C 47.101562 170.773438 53.550781 184.273438 53.550781 184.273438 C 70.726562 184.949219 82.050781 176.773438 84.375 174.898438 L 89.476562 176.398438 C 94.726562 177.75 100.199219 178.648438 105.449219 178.800781 L 112.425781 178.800781 C 120.449219 190.351562 134.773438 191.925781 134.773438 191.925781 C 144.824219 181.199219 145.5 170.773438 145.5 168.375 L 145.5 167.324219 C 147.523438 165.824219 149.550781 164.25 151.648438 162.601562 C 155.699219 159 159.148438 154.800781 162.226562 150.375 C 162.601562 150 162.75 149.550781 163.050781 149.175781 C 174.449219 149.851562 182.550781 142.050781 182.550781 142.050781 C 180.675781 130.125 173.851562 124.351562 172.5 123.226562 L 172.351562 123.074219 L 172.199219 122.925781 L 172.050781 122.773438 C 172.050781 122.101562 172.199219 121.425781 172.199219 120.523438 C 172.351562 119.175781 172.351562 117.976562 172.351562 116.625 L 172.351562 111.75 C 172.351562 111.375 172.351562 111.074219 172.199219 110.699219 L 171.824219 108.675781 C 171.675781 107.324219 171.300781 106.125 171.148438 104.773438 C 169.949219 99.75 168 94.949219 165.375 90.449219 C 162.675781 86.175781 159.449219 82.273438 155.699219 78.898438 C 152.023438 75.675781 147.898438 73.050781 143.476562 71.101562 C 139.199219 69.148438 134.699219 67.875 130.050781 67.351562 C 127.800781 66.976562 125.476562 66.976562 123.226562 66.976562 L 119.851562 66.976562 C 118.648438 67.125 117.449219 67.351562 116.476562 67.5 C 111.898438 68.324219 107.625 70.050781 103.875 72.226562 C 100.125 74.398438 96.898438 77.324219 94.199219 80.550781 C 91.574219 83.625 89.476562 87.148438 88.050781 90.898438 C 86.699219 94.5 85.800781 98.398438 85.648438 101.925781 L 85.648438 105.976562 C 85.648438 106.5 85.648438 106.800781 85.800781 107.324219 C 86.324219 112.574219 88.273438 117.523438 91.425781 121.800781 C 93.449219 124.5 95.699219 126.523438 98.25 128.25 C 100.800781 129.976562 103.351562 131.175781 106.050781 132 C 108.75 132.824219 111.300781 133.199219 113.699219 133.050781 L 117.226562 133.050781 C 117.601562 133.050781 117.898438 132.898438 118.050781 132.898438 C 118.425781 132.898438 118.574219 132.75 118.875 132.75 C 119.398438 132.601562 120.074219 132.375 120.601562 132.226562 C 121.648438 131.851562 122.625 131.398438 123.675781 131.023438 C 124.726562 130.5 125.550781 129.976562 126.226562 129.523438 C 126.375 129.375 126.75 129.148438 126.898438 129 C 127.726562 128.324219 127.875 127.125 127.273438 126.300781 C 127.273438 126.300781 127.273438 126.300781 127.273438 126.226562 C 126.601562 125.550781 125.625 125.398438 124.726562 125.699219 C 124.574219 125.851562 124.351562 125.851562 124.050781 126.074219 C 123.375 126.449219 122.625 126.75 121.800781 126.898438 C 120.976562 127.050781 120.074219 127.425781 119.25 127.574219 C 118.726562 127.574219 118.425781 127.726562 117.898438 127.726562 L 115.050781 127.726562 C 115.050781 127.726562 114.898438 127.726562 115.050781 127.726562 L 114.375 127.726562 C 114.226562 127.726562 113.851562 127.726562 113.699219 127.574219 C 111.824219 127.199219 109.800781 126.75 107.925781 125.851562 C 106.050781 125.023438 104.175781 123.824219 102.675781 122.25 C 100.949219 120.75 99.601562 119.023438 98.398438 117 C 97.199219 114.976562 96.523438 112.726562 96.148438 110.550781 C 96 109.351562 95.773438 108.148438 96 106.949219 L 96 105.074219 C 96 104.398438 96.148438 103.875 96.375 103.199219 C 97.273438 97.949219 99.824219 93.074219 103.726562 89.398438 C 104.773438 88.351562 105.75 87.523438 106.949219 86.851562 C 108.148438 86.023438 109.351562 85.351562 110.550781 84.824219 C 111.75 84.300781 113.101562 83.773438 114.449219 83.476562 C 115.800781 83.101562 117.148438 82.800781 118.5 82.800781 C 119.175781 82.800781 119.851562 82.648438 120.523438 82.648438 L 122.550781 82.648438 C 127.125 83.023438 131.476562 84.375 135.449219 86.550781 C 140.925781 89.625 145.5 94.199219 148.199219 99.824219 C 149.550781 102.523438 150.601562 105.601562 151.125 108.824219 C 151.273438 109.648438 151.273438 110.324219 151.5 111.226562 L 151.5 115.648438 C 151.5 116.476562 151.351562 117.375 151.351562 118.199219 C 151.199219 119.023438 151.199219 119.925781 150.976562 120.75 L 150.449219 123.300781 C 150.300781 124.125 149.398438 126.523438 148.949219 128.25 C 148.425781 129.976562 146.023438 134.550781 144 137.25 C 139.875 142.875 134.398438 147.375 128.023438 150.375 C 124.800781 151.726562 121.574219 152.925781 118.125 153.449219 C 116.476562 153.824219 114.75 153.976562 113.023438 153.976562 L 110.175781 153.976562 C 109.351562 153.976562 108.300781 153.976562 107.476562 153.824219 C 103.726562 153.449219 100.125 152.773438 96.601562 151.800781 C 93 150.75 89.625 149.398438 86.398438 147.75 C 79.949219 144.226562 74.175781 139.5 69.523438 133.800781 C 67.273438 130.875 65.25 127.875 63.601562 124.648438 C 61.875 121.425781 60.675781 117.976562 59.699219 114.601562 C 58.726562 111.148438 58.125 107.625 57.976562 104.023438 L 57.976562 98.773438 C 57.976562 97.050781 58.125 95.175781 58.5 93.300781 C 58.648438 91.425781 59.023438 89.699219 59.324219 87.824219 C 59.625 85.949219 60.148438 84.226562 60.675781 82.351562 C 61.199219 80.476562 62.925781 75.375 64.425781 72.148438 C 67.5 65.699219 71.398438 59.925781 75.976562 55.273438 C 77.175781 54.074219 78.375 53.023438 79.726562 52.050781 C 80.25 51.523438 81.449219 50.550781 82.800781 49.648438 C 84.148438 48.824219 85.5 47.925781 87.074219 47.25 C 87.75 46.875 88.425781 46.574219 89.324219 46.199219 C 89.699219 46.050781 90 45.824219 90.523438 45.675781 C 90.898438 45.523438 91.199219 45.300781 91.726562 45.148438 C 93.226562 44.476562 94.800781 43.949219 96.300781 43.425781 C 96.675781 43.273438 97.125 43.273438 97.5 43.050781 C 97.875 42.898438 98.324219 42.898438 98.699219 42.675781 C 99.074219 42.523438 100.199219 42.300781 101.101562 42 C 101.476562 41.851562 101.925781 41.851562 102.300781 41.625 C 102.675781 41.625 103.125 41.476562 103.5 41.476562 C 103.875 41.476562 104.324219 41.324219 104.699219 41.324219 L 106.050781 40.949219 C 106.425781 40.949219 106.875 40.800781 107.25 40.800781 C 107.773438 40.800781 108.074219 40.648438 108.601562 40.648438 C 108.976562 40.648438 109.648438 40.5 109.949219 40.5 C 110.25 40.5 110.476562 40.5 110.773438 40.351562 L 111.976562 40.351562 C 112.5 40.351562 112.800781 40.351562 113.324219 40.199219 L 114 40.199219 C 114 40.199219 114.148438 40.199219 114 40.199219 L 120.300781 40.199219 C 123.375 40.351562 126.449219 40.726562 129.300781 41.25 C 135 42.226562 140.476562 44.101562 145.648438 46.726562 C 150.449219 49.050781 154.875 51.976562 158.925781 55.425781 C 159.074219 55.574219 159.449219 55.800781 159.601562 56.101562 C 159.75 56.25 160.125 56.476562 160.273438 56.773438 C 160.800781 57.148438 161.101562 57.601562 161.625 57.976562 C 162.148438 58.351562 162.449219 58.800781 162.976562 59.175781 C 163.351562 59.699219 163.800781 60 164.175781 60.523438 C 168.75 65.175781 172.5 70.5 175.425781 76.351562 C 175.574219 76.5 175.574219 76.726562 175.800781 77.023438 C 175.949219 77.175781 175.949219 77.398438 176.175781 77.699219 C 176.324219 78 176.550781 78.523438 176.851562 78.898438 C 177 79.273438 177.226562 79.726562 177.375 80.101562 C 177.523438 80.476562 177.75 80.925781 177.898438 81.300781 C 178.574219 82.800781 179.101562 84.375 179.625 85.875 C 180.449219 88.273438 180.976562 90.300781 181.5 92.023438 C 181.726562 92.699219 182.324219 93.226562 183 93.226562 C 183.824219 93.226562 184.351562 92.550781 184.351562 91.726562 C 184.050781 89.773438 184.050781 87.601562 183.898438 85.050781 Z M 183.898438 85.050781 "/>
</g>
</svg>
