<?xml version="1.0" standalone="no"?>
<!DOCTYPE svg PUBLIC "-//W3C//DTD SVG 1.0//EN" "http://www.w3.org/TR/2001/REC-SVG-20010904/DTD/svg10.dtd">
<svg xmlns="http://www.w3.org/2000/svg" xmlns:xlink="http://www.w3.org/1999/xlink" id="body_1" width="512" height="384">

<g transform="matrix(1.5 0 0 1.5 64.000015 -0)">
    <path d="M250.5 106.2C 244.7 102.2 231.6 100.7 221.2 102.7C 220 92.7 214.5 84 204.9 76.2L204.9 76.2L199.4 72.2L195.59999 77.899994C 190.79999 85.399994 188.4 95.899994 189.09999 105.899994C 189.29999 109.399994 190.49998 115.59999 194.09999 121.09999C 190.7 123.09999 183.79999 125.59999 174.7 125.59999L174.7 125.59999L1.3 125.59999L0.79999995 127.59999C -0.9000001 137.59999 -0.9000001 168.79999 18.8 192.79999C 33.699997 210.99998 55.7 220.29999 84.8 220.29999C 147.6 220.29999 194.20001 190.09999 216 135.4C 224.6 135.59999 243.1 135.4 252.5 116.7C 252.7 116.2 253.2 115.2 254.9 111.5L254.9 111.5L255.9 109.5L250.5 106.2zM140 35.8L113.6 35.8L113.6 60.8L140 60.8L140 35.8zM140 65.7L113.6 65.7L113.6 90.7L140 90.7L140 65.7zM108.8 65.7L82.4 65.7L82.4 90.7L108.8 90.7L108.8 65.7zM77.6 65.7L51.2 65.7L51.2 90.7L77.6 90.7L77.6 65.7zM46.4 95.7L20 95.7L20 120.7L46.4 120.7L46.4 95.7zM77.6 95.7L51.2 95.7L51.2 120.7L77.6 120.7L77.6 95.7zM108.8 95.7L82.4 95.7L82.4 120.7L108.8 120.7L108.8 95.7zM140 95.7L113.6 95.7L113.6 120.7L140 120.7L140 95.7zM171.1 95.7L144.70001 95.7L144.70001 120.7L171.1 120.7L171.1 95.7z" stroke="none" fill="#5D5D5D" fill-rule="nonzero" />
</g>
</svg>